G04*
G04 #@! TF.GenerationSoftware,Altium Limited,Altium Designer,18.0.9 (584)*
G04*
G04 Layer_Physical_Order=1*
G04 Layer_Color=255*
%FSLAX44Y44*%
%MOMM*%
G71*
G01*
G75*
%ADD14C,0.2000*%
G04:AMPARAMS|DCode=15|XSize=1.1mm|YSize=1.4mm|CornerRadius=0mm|HoleSize=0mm|Usage=FLASHONLY|Rotation=255.000|XOffset=0mm|YOffset=0mm|HoleType=Round|Shape=Rectangle|*
%AMROTATEDRECTD15*
4,1,4,-0.5338,0.7124,0.8185,0.3501,0.5338,-0.7124,-0.8185,-0.3501,-0.5338,0.7124,0.0*
%
%ADD15ROTATEDRECTD15*%

G04:AMPARAMS|DCode=16|XSize=1.1mm|YSize=1.4mm|CornerRadius=0mm|HoleSize=0mm|Usage=FLASHONLY|Rotation=217.000|XOffset=0mm|YOffset=0mm|HoleType=Round|Shape=Rectangle|*
%AMROTATEDRECTD16*
4,1,4,0.0180,0.8900,0.8605,-0.2281,-0.0180,-0.8900,-0.8605,0.2281,0.0180,0.8900,0.0*
%
%ADD16ROTATEDRECTD16*%

G04:AMPARAMS|DCode=17|XSize=1.1mm|YSize=1.4mm|CornerRadius=0mm|HoleSize=0mm|Usage=FLASHONLY|Rotation=285.000|XOffset=0mm|YOffset=0mm|HoleType=Round|Shape=Rectangle|*
%AMROTATEDRECTD17*
4,1,4,-0.8185,0.3501,0.5338,0.7124,0.8185,-0.3501,-0.5338,-0.7124,-0.8185,0.3501,0.0*
%
%ADD17ROTATEDRECTD17*%

G04:AMPARAMS|DCode=18|XSize=1.1mm|YSize=1.4mm|CornerRadius=0mm|HoleSize=0mm|Usage=FLASHONLY|Rotation=320.000|XOffset=0mm|YOffset=0mm|HoleType=Round|Shape=Rectangle|*
%AMROTATEDRECTD18*
4,1,4,-0.8713,-0.1827,0.0286,0.8898,0.8713,0.1827,-0.0286,-0.8898,-0.8713,-0.1827,0.0*
%
%ADD18ROTATEDRECTD18*%

%ADD19R,0.5000X0.6000*%
%ADD20R,0.6000X0.5000*%
%ADD21R,0.9000X0.9000*%
%ADD22C,1.0000*%
%ADD23R,0.4500X1.4500*%
%ADD36C,0.3000*%
%ADD37C,1.0500*%
%ADD38R,1.0500X1.0500*%
%ADD39C,0.5500*%
G36*
X92219Y173759D02*
X92500Y173447D01*
Y163750D01*
X105500D01*
X105500Y163750D01*
Y163750D01*
X107000Y163250D01*
X108673Y163128D01*
X108673Y161122D01*
X107000Y161000D01*
X105500Y160750D01*
Y160750D01*
X92500D01*
Y157309D01*
X92500Y157309D01*
X91329Y157076D01*
X90337Y156413D01*
X82733Y148809D01*
X78000D01*
X78000Y148809D01*
X76830Y148576D01*
X75837Y147913D01*
X72906Y144982D01*
X71059Y145748D01*
Y150000D01*
X74500D01*
Y163000D01*
X63059D01*
Y166000D01*
X74500D01*
Y169768D01*
X75750Y171250D01*
X88750D01*
Y173304D01*
X90000Y174691D01*
X90500Y174791D01*
X92219Y173759D01*
D02*
G37*
G36*
X49000Y162250D02*
X49000Y162250D01*
X50941D01*
Y157250D01*
X43000D01*
Y148086D01*
X42268Y146925D01*
X41311Y146500D01*
X33394D01*
X33224Y147353D01*
X32175Y148925D01*
X30603Y149974D01*
X28750Y150343D01*
X27710Y150136D01*
X26309Y150791D01*
X25727Y151598D01*
X25475Y152861D01*
X24426Y154432D01*
X22854Y155482D01*
X21001Y155850D01*
X19148Y155482D01*
X18019Y154728D01*
X17026Y156022D01*
X15564Y157144D01*
X13861Y157850D01*
X12034Y158090D01*
X10207Y157850D01*
X8504Y157144D01*
X7042Y156022D01*
X5919Y154560D01*
X5569Y153713D01*
X3569Y154110D01*
Y158521D01*
X6478Y161431D01*
X44800D01*
X46166Y161703D01*
X47000Y162260D01*
X49000Y162250D01*
D02*
G37*
G36*
X62191Y130002D02*
Y109977D01*
X62191Y109977D01*
X62424Y108806D01*
X63087Y107814D01*
X65444Y105457D01*
X65514Y105411D01*
X67476Y103448D01*
X66343Y101753D01*
X65577Y102070D01*
X63750Y102310D01*
X61923Y102070D01*
X60220Y101364D01*
X58758Y100242D01*
X57635Y98780D01*
X56975Y97186D01*
X56782Y97119D01*
X54850Y97392D01*
X52692Y105443D01*
X46953Y103906D01*
X45572Y109061D01*
X45556Y122835D01*
X46969Y124250D01*
X55500D01*
Y126144D01*
X56163Y126587D01*
X60343Y130768D01*
X62191Y130002D01*
D02*
G37*
G36*
X5919Y147500D02*
X7042Y146037D01*
X8504Y144915D01*
X10207Y144210D01*
X12034Y143969D01*
X13861Y144210D01*
X15564Y144915D01*
X17026Y146037D01*
X17997Y147302D01*
X19148Y146533D01*
X21001Y146164D01*
X22041Y146371D01*
X23442Y145717D01*
X24024Y144909D01*
X24276Y143647D01*
X25326Y142076D01*
X24756Y140051D01*
X24577Y139931D01*
X23527Y138360D01*
X23158Y136507D01*
X23527Y134653D01*
X24577Y133082D01*
X26148Y132032D01*
X28001Y131664D01*
X28500Y131254D01*
Y124250D01*
X38500D01*
X39439Y122639D01*
X39455Y108652D01*
X39533Y108262D01*
X39559Y107864D01*
X41044Y102322D01*
X35306Y100785D01*
X39188Y86296D01*
X56574Y90955D01*
X56575Y90955D01*
X58407Y90715D01*
X58758Y90258D01*
X60220Y89136D01*
X60407Y89058D01*
X60620Y86988D01*
X59788Y86221D01*
X57710Y86718D01*
X57610Y87091D01*
X40223Y82432D01*
X44105Y67943D01*
X50194Y69575D01*
X50227Y69526D01*
X52945Y66808D01*
X53276Y65147D01*
X54325Y63575D01*
X55897Y62526D01*
X57750Y62157D01*
X59603Y62526D01*
X61175Y63575D01*
X62224Y65147D01*
X62593Y67000D01*
X62224Y68853D01*
X61175Y70424D01*
X61151Y70440D01*
X61492Y72602D01*
X61492D01*
X60199Y77428D01*
X61936Y78672D01*
X62150Y78530D01*
X64003Y78161D01*
X65856Y78530D01*
X67428Y79580D01*
X67691Y79974D01*
X69691Y79367D01*
Y73750D01*
X67750D01*
Y64750D01*
X76191D01*
Y44770D01*
X76191Y44770D01*
X76424Y43599D01*
X77087Y42607D01*
X81078Y38616D01*
X76380Y33016D01*
X87870Y23374D01*
X99440Y37163D01*
X87950Y46805D01*
X85977Y44454D01*
X83979Y44367D01*
X82309Y46037D01*
Y66250D01*
X82076Y67421D01*
X81413Y68413D01*
X78413Y71413D01*
X77750Y71856D01*
Y73750D01*
X75809D01*
Y82907D01*
X77809Y83893D01*
X78470Y83385D01*
X80173Y82680D01*
X82000Y82440D01*
X83827Y82680D01*
X85530Y83385D01*
X86992Y84508D01*
X88115Y85970D01*
X88820Y87673D01*
X89060Y89500D01*
X88934Y90460D01*
X89114Y91566D01*
X90439Y92643D01*
X90941Y92743D01*
X91193Y92718D01*
X92941Y91598D01*
Y80923D01*
X90337Y78319D01*
X89674Y77326D01*
X89441Y76156D01*
X89441Y76156D01*
Y75560D01*
X88970Y75364D01*
X87507Y74242D01*
X86385Y72780D01*
X85680Y71077D01*
X85440Y69250D01*
X85680Y67423D01*
X86385Y65720D01*
X87507Y64258D01*
X88970Y63135D01*
X90673Y62430D01*
X92500Y62190D01*
X94327Y62430D01*
X96030Y63135D01*
X97492Y64258D01*
X98615Y65720D01*
X99320Y67423D01*
X99560Y69250D01*
X99320Y71077D01*
X98615Y72780D01*
X97492Y74242D01*
X98278Y76073D01*
X98717Y76597D01*
X106348D01*
Y75156D01*
X116348D01*
Y84156D01*
X106348D01*
Y82715D01*
X99059D01*
Y93765D01*
X101059Y94834D01*
X101147Y94776D01*
X103000Y94407D01*
X104853Y94776D01*
X106425Y95825D01*
X107376Y97250D01*
X116500D01*
Y106250D01*
X114600D01*
X114576Y108250D01*
X119431Y113105D01*
X121431Y112277D01*
Y3569D01*
X109000D01*
X108885Y3546D01*
X103588Y3893D01*
X98269Y4951D01*
X93133Y6694D01*
X88269Y9093D01*
X83759Y12106D01*
X79682Y15682D01*
X77299Y18400D01*
X77262Y18368D01*
X77262Y18368D01*
X32262Y71997D01*
X32299Y72028D01*
X31106Y73388D01*
X28093Y77898D01*
X25694Y82762D01*
X23951Y87898D01*
X22893Y93217D01*
X22546Y98514D01*
X22569Y98629D01*
Y120000D01*
X22297Y121365D01*
X21523Y122523D01*
X20366Y123297D01*
X19000Y123568D01*
X3569D01*
Y147949D01*
X5569Y148347D01*
X5919Y147500D01*
D02*
G37*
G36*
X108995Y376239D02*
X109108Y376019D01*
X109382Y374969D01*
X109460Y374431D01*
X108385Y373029D01*
X107680Y371326D01*
X107439Y369499D01*
X107680Y367672D01*
X108385Y365969D01*
X109507Y364507D01*
X110970Y363385D01*
X111441Y363189D01*
Y360880D01*
X109475Y360165D01*
X103653Y367891D01*
X91674Y358864D01*
X95619Y353629D01*
X94604Y351905D01*
X93422Y352071D01*
X92032Y351992D01*
X91894Y351926D01*
X88479Y356456D01*
X76500Y347429D01*
X87332Y333054D01*
X94745Y338640D01*
X95739Y338280D01*
X95857Y338031D01*
X95884Y336341D01*
X88137Y328594D01*
X87474Y327602D01*
X87241Y326431D01*
X87241Y326431D01*
Y307164D01*
X85827Y305750D01*
X82550Y305750D01*
X82500Y307249D01*
X82500D01*
Y316249D01*
X72500D01*
Y314808D01*
X71329Y314575D01*
X70337Y313912D01*
X70337Y313912D01*
X67000Y310575D01*
X65000Y311379D01*
Y318749D01*
X55000D01*
Y317159D01*
X54579Y317075D01*
X53587Y316412D01*
X51337Y314162D01*
X51230Y314002D01*
X51084Y313875D01*
X50901Y313510D01*
X50674Y313170D01*
X50636Y312980D01*
X50550Y312808D01*
X49888Y310395D01*
X44108Y311943D01*
X40226Y297455D01*
X57612Y292796D01*
X58762Y297086D01*
X61708Y296296D01*
X61771Y296292D01*
X62292Y295342D01*
X62448Y294555D01*
X62437Y294218D01*
X61526Y292853D01*
X61157Y291000D01*
X61206Y290756D01*
X59923Y288570D01*
X58379Y287931D01*
X58202Y288014D01*
X56577Y288932D01*
X56577Y288932D01*
X39190Y293591D01*
X35757Y280778D01*
X35308Y279102D01*
X33512Y279341D01*
X33500Y279343D01*
X33415Y279326D01*
X31647Y278974D01*
X30076Y277925D01*
X29026Y276353D01*
X28657Y274500D01*
X29026Y272647D01*
X30076Y271075D01*
X31647Y270026D01*
X33500Y269657D01*
X35353Y270026D01*
X35934Y269838D01*
X36573Y267709D01*
X36512Y267550D01*
X35924Y266670D01*
X35890Y266500D01*
X34250D01*
Y256586D01*
X34000Y256189D01*
X33043Y255000D01*
X23250D01*
Y253657D01*
X16670D01*
X16463Y253864D01*
X16172Y254667D01*
X17609Y256431D01*
X19000D01*
X20366Y256703D01*
X21523Y257476D01*
X22297Y258634D01*
X22569Y260000D01*
Y281371D01*
X22546Y281485D01*
X22893Y286782D01*
X23951Y292101D01*
X25694Y297237D01*
X28093Y302101D01*
X31004Y306457D01*
X32299Y307971D01*
X33547Y309534D01*
X77262Y361631D01*
X77299Y361600D01*
X79682Y364317D01*
X83759Y367893D01*
X88269Y370906D01*
X93133Y373305D01*
X98269Y375048D01*
X103588Y376106D01*
X108769Y376446D01*
X108995Y376239D01*
D02*
G37*
G36*
X121431Y353129D02*
Y264218D01*
X121380Y264088D01*
X119036Y263603D01*
X118725Y263914D01*
Y264084D01*
X118492Y265254D01*
X117829Y266247D01*
X117829Y266247D01*
X116576Y267500D01*
X117250Y269500D01*
X117250D01*
X117250Y279000D01*
X117250Y280500D01*
Y288500D01*
X117250D01*
X117240Y288514D01*
X117682Y290464D01*
X117750Y290500D01*
Y300500D01*
X117750D01*
X117750Y301750D01*
X117750D01*
Y311750D01*
X108750D01*
Y302086D01*
X108298Y301369D01*
X107268Y300500D01*
X106750Y300500D01*
X98800D01*
X98750Y300500D01*
X96800Y300621D01*
Y305750D01*
X93359D01*
Y319314D01*
X94951Y320392D01*
X95359Y320483D01*
X97000Y320156D01*
X98500Y320455D01*
X100500Y319750D01*
Y319750D01*
X109500D01*
Y329750D01*
X111250Y330250D01*
Y340250D01*
X109809D01*
Y349991D01*
X114486Y353516D01*
X116453Y353214D01*
X116749Y353155D01*
X118603Y353524D01*
X119431Y354077D01*
X121431Y353129D01*
D02*
G37*
G36*
X87241Y270017D02*
X86887Y269663D01*
X86224Y268670D01*
X86130Y268199D01*
X84800Y266750D01*
X84800Y266750D01*
X84800Y266750D01*
Y248250D01*
X106070D01*
X106362Y247812D01*
X108337Y245837D01*
X108337Y245837D01*
X109329Y245174D01*
X109757Y245089D01*
X110750Y243500D01*
X110750D01*
X110957Y241500D01*
X110907Y241250D01*
X111276Y239397D01*
X112325Y237825D01*
X113897Y236776D01*
X115750Y236407D01*
X117603Y236776D01*
X119175Y237825D01*
X119431Y238210D01*
X121431Y237603D01*
Y213494D01*
X119431Y213042D01*
X118675Y214175D01*
X117103Y215224D01*
X115250Y215593D01*
X113397Y215224D01*
X111826Y214175D01*
X110776Y212603D01*
X110407Y210750D01*
X110484Y210362D01*
X110158Y208362D01*
D01*
X109746Y206532D01*
X108819Y205913D01*
X108148Y205241D01*
X106300Y206007D01*
Y207750D01*
X72609D01*
Y223200D01*
X72609Y223200D01*
X72376Y224370D01*
X71713Y225363D01*
X71713Y225363D01*
X63913Y233163D01*
X62920Y233826D01*
X61750Y234059D01*
X61750Y234059D01*
X51296D01*
X50473Y236059D01*
X50976Y237152D01*
X51279Y237633D01*
X62742D01*
X62742Y237633D01*
X63913Y237866D01*
X64905Y238529D01*
X71713Y245337D01*
X71713Y245337D01*
X72376Y246329D01*
X72609Y247500D01*
Y248250D01*
X80300D01*
Y266750D01*
X79109D01*
Y275336D01*
X80523Y276750D01*
X83800Y276750D01*
X84550Y276750D01*
X87241D01*
Y270017D01*
D02*
G37*
G36*
X23250Y246125D02*
X23250Y244000D01*
Y236000D01*
X23250D01*
X23513Y234190D01*
X23505Y234000D01*
X23157Y232250D01*
X23526Y230397D01*
X24575Y228825D01*
X26147Y227776D01*
X28000Y227407D01*
X29853Y227776D01*
X31250Y228709D01*
X32093Y228508D01*
X33250Y227957D01*
Y220000D01*
X31878Y218568D01*
X6478D01*
X3569Y221478D01*
Y245437D01*
X5256Y246192D01*
X5569Y246192D01*
X15256D01*
Y247539D01*
X21836D01*
X23250Y246125D01*
D02*
G37*
%LPC*%
G36*
X109250Y60686D02*
X106613Y60339D01*
X104156Y59321D01*
X102046Y57703D01*
X100428Y55593D01*
X99410Y53136D01*
X99063Y50499D01*
X99410Y47863D01*
X100428Y45406D01*
X102046Y43296D01*
X104156Y41677D01*
X106613Y40659D01*
X109250Y40312D01*
X111886Y40659D01*
X114343Y41677D01*
X116453Y43296D01*
X118072Y45406D01*
X119090Y47863D01*
X119437Y50499D01*
X119090Y53136D01*
X118072Y55593D01*
X116453Y57703D01*
X114343Y59321D01*
X111886Y60339D01*
X109250Y60686D01*
D02*
G37*
G36*
X110750Y36592D02*
X108896Y36224D01*
X107325Y35174D01*
X106462Y33882D01*
X105700Y33495D01*
X104157Y33205D01*
X102505Y34592D01*
X90934Y20803D01*
X102425Y11161D01*
X113995Y24950D01*
X113304Y25530D01*
X113568Y27919D01*
X114174Y28325D01*
X115224Y29896D01*
X115593Y31749D01*
X115224Y33602D01*
X114174Y35174D01*
X112603Y36224D01*
X110750Y36592D01*
D02*
G37*
G36*
X70750Y344686D02*
X68113Y344339D01*
X65656Y343321D01*
X63546Y341703D01*
X61927Y339593D01*
X60910Y337136D01*
X60563Y334499D01*
X60910Y331863D01*
X61927Y329406D01*
X63546Y327296D01*
X65656Y325677D01*
X68113Y324659D01*
X70750Y324312D01*
X73386Y324659D01*
X75843Y325677D01*
X77953Y327296D01*
X79572Y329406D01*
X80590Y331863D01*
X80937Y334499D01*
X80590Y337136D01*
X79572Y339593D01*
X77953Y341703D01*
X75843Y343321D01*
X73386Y344339D01*
X70750Y344686D01*
D02*
G37*
%LPD*%
D14*
X105500Y101750D02*
X111500D01*
X103000Y99250D02*
X105500Y101750D01*
X82000Y90000D02*
X89250Y97250D01*
X82000Y89500D02*
Y90000D01*
X92500Y69250D02*
Y76156D01*
X96000Y79656D01*
X60000Y142250D02*
Y170500D01*
X52250Y134500D02*
X60000Y142250D01*
X33500Y134500D02*
X52250D01*
X54000Y154250D02*
Y166750D01*
X52000Y152250D02*
X54000Y154250D01*
X47500Y152250D02*
X52000D01*
X76250Y69250D02*
X79250Y66250D01*
Y44770D02*
Y66250D01*
Y44770D02*
X87910Y36110D01*
X72750Y69250D02*
X76250D01*
X59750Y186250D02*
X63050Y189550D01*
X65250Y133000D02*
X78000Y145750D01*
X65250Y109977D02*
Y133000D01*
Y109977D02*
X67607Y107620D01*
X118500Y116500D02*
Y154500D01*
X111500Y109500D02*
X118500Y116500D01*
X111500Y101750D02*
Y109500D01*
X99000Y176000D02*
X103750Y180750D01*
X99000Y170250D02*
Y176000D01*
X99382Y180750D02*
X103750D01*
X110982Y203750D02*
X116550D01*
X116500Y156500D02*
X118500Y154500D01*
X96000Y79656D02*
X111348D01*
X62000Y172500D02*
X68000D01*
X60000Y170500D02*
X62000Y172500D01*
X67630Y107620D02*
X72750Y102500D01*
X67607Y107620D02*
X67630D01*
X72750Y69250D02*
Y102500D01*
X63750Y95250D02*
X64003Y94997D01*
Y83004D02*
Y94997D01*
X68000Y142750D02*
Y156500D01*
X54000Y128750D02*
X68000Y142750D01*
X50500Y128750D02*
X54000D01*
X74030Y134780D02*
X80750Y141500D01*
X74030Y128640D02*
Y134780D01*
X80750Y141500D02*
X89750D01*
X78000Y145750D02*
X84000D01*
X92500Y154250D01*
X112500Y117000D02*
Y122000D01*
X96000Y100500D02*
X112500Y117000D01*
X92500Y154250D02*
X99000D01*
X60700Y247000D02*
X61250Y247550D01*
X54250Y247000D02*
X60700D01*
X69550Y187418D02*
Y198500D01*
X54000Y176750D02*
X58882D01*
X69550Y187418D01*
X60000Y186000D02*
X60000D01*
X59750Y186250D02*
X60000Y186000D01*
X96000Y79656D02*
Y100500D01*
X83000Y103000D02*
X86630D01*
X37800Y224000D02*
Y228800D01*
X68000Y172500D02*
Y178500D01*
X45816Y240692D02*
X62742D01*
X67538Y268500D02*
X69550Y266488D01*
X41750Y268500D02*
X67538D01*
X38750Y265500D02*
X41750Y268500D01*
X38750Y261500D02*
Y265500D01*
X61750Y231000D02*
X69550Y223200D01*
X40000Y231000D02*
X61750D01*
X37800Y228800D02*
X40000Y231000D01*
X45251Y128750D02*
X50500D01*
X42493Y125993D02*
X45251Y128750D01*
X42493Y125993D02*
X42514Y108656D01*
X45940Y95870D01*
X76049Y299251D02*
X76050Y299250D01*
X62500Y299251D02*
X76049D01*
X99303Y335434D02*
X106750D01*
X90300Y326431D02*
X99303Y335434D01*
X90300Y299250D02*
Y326431D01*
X114500Y360248D02*
Y369499D01*
Y360248D02*
X116749Y357998D01*
X66000Y305249D02*
X72500Y311749D01*
X77500D01*
X53500Y311999D02*
X55750Y314249D01*
X60000D01*
X103080Y356190D02*
X106750Y351319D01*
Y335434D02*
Y351319D01*
X96864Y324999D02*
X97000D01*
X96807Y324943D02*
X96864Y324999D01*
X97000D02*
X103999D01*
X104000Y325000D01*
X86630Y103000D02*
X99500Y115870D01*
X69550Y198500D02*
Y223200D01*
X91550Y282000D02*
X98269D01*
X90300Y283250D02*
X91550Y282000D01*
X98269D02*
X100505Y279764D01*
X50860Y302370D02*
X53500Y311999D01*
X50860Y302370D02*
X62500Y299251D01*
X106750Y335250D02*
Y335434D01*
X104000Y325000D02*
X104250Y324750D01*
X43300Y250750D02*
X44800D01*
X105732Y198500D02*
X110982Y203750D01*
X102050Y198500D02*
X105732D01*
X87910Y35090D02*
Y36110D01*
X90300Y268750D02*
Y283250D01*
X62742Y240692D02*
X69550Y247500D01*
X105550Y257500D02*
X108525Y254525D01*
X102050Y257500D02*
X105550D01*
X99500Y118370D02*
X99620Y118250D01*
X61300Y247500D02*
X63050Y249250D01*
X76050Y257500D02*
Y282250D01*
X69550Y257500D02*
Y266488D01*
X63088Y198538D02*
Y220118D01*
X63050Y198500D02*
X63088Y198538D01*
X61250Y247550D02*
X61300Y247500D01*
X9665Y250925D02*
X9748Y250946D01*
X8732Y250688D02*
X9665Y250925D01*
X115158Y203862D02*
X115250Y203954D01*
X108525Y249975D02*
Y254525D01*
Y249975D02*
X110500Y248000D01*
X115750D01*
X113250Y295500D02*
X113250Y295500D01*
X111626Y268124D02*
X115666Y264084D01*
X111126Y268124D02*
X111626D01*
X113250Y289750D02*
Y295500D01*
X115750Y241250D02*
Y248000D01*
X115250Y203954D02*
Y210750D01*
X112000Y156500D02*
X116500D01*
X112000D02*
Y167750D01*
X74250Y291000D02*
X76050Y289200D01*
Y283250D02*
Y289200D01*
X74249Y291000D02*
X74250Y291000D01*
X66000Y291000D02*
X74249D01*
X69000Y283250D02*
X76050D01*
X61750Y281750D02*
X67501D01*
X69000Y283250D01*
X95550Y190238D02*
X98039Y187750D01*
X89050Y191082D02*
X99382Y180750D01*
X113250Y295500D02*
Y306750D01*
X45940Y95870D02*
Y99810D01*
X63050Y189550D02*
Y197750D01*
X47500Y141500D02*
Y152250D01*
X68000Y178500D02*
X76050Y186550D01*
X112000Y177750D02*
Y187000D01*
X115158Y190158D02*
Y193862D01*
X112000Y187000D02*
X112750Y187750D01*
X115158Y190158D01*
X98039Y187750D02*
X112750D01*
X95550Y257500D02*
Y265800D01*
X97874Y268124D01*
X111126D01*
X47750Y225000D02*
X58206D01*
X63088Y220118D01*
X89050Y257500D02*
Y267500D01*
X90300Y268750D01*
X112250Y284000D02*
Y288750D01*
X113250Y289750D01*
X112250Y269247D02*
Y274000D01*
X111126Y268124D02*
X112250Y269247D01*
X28036Y250641D02*
X28250Y250640D01*
X48750Y261500D02*
X55000D01*
X59000Y257500D01*
X28001Y136507D02*
X30008Y134500D01*
X33500Y128750D02*
Y134500D01*
X30008D02*
X33500D01*
X9748Y250598D02*
X28036D01*
X28250Y250640D02*
X45816Y250598D01*
X99500Y115870D02*
Y118370D01*
X74030Y128640D02*
X74100Y128570D01*
X95550Y190238D02*
Y198500D01*
X111500Y274000D02*
Y274000D01*
X115666Y258000D02*
Y264084D01*
X89050Y191082D02*
Y198500D01*
X76050Y186550D02*
Y198500D01*
X63050Y249250D02*
Y257500D01*
X59000D02*
X63050D01*
X69550Y247500D02*
Y257500D01*
X82250Y177750D02*
X90000D01*
X92000Y179750D01*
D15*
X50860Y302370D02*
D03*
X45943Y284017D02*
D03*
D16*
X87906Y344755D02*
D03*
X103080Y356190D02*
D03*
D17*
X45940Y95870D02*
D03*
X50858Y77517D02*
D03*
D18*
X102465Y22877D02*
D03*
X87910Y35090D02*
D03*
D19*
X116750Y335250D02*
D03*
X106750D02*
D03*
X115000Y324750D02*
D03*
X105000D02*
D03*
X103250Y306750D02*
D03*
X113250D02*
D03*
X103250Y295500D02*
D03*
X113250D02*
D03*
X37500Y152250D02*
D03*
X47500D02*
D03*
X38750Y261500D02*
D03*
X48750D02*
D03*
X37500Y141500D02*
D03*
X47500D02*
D03*
X37750Y225000D02*
D03*
X47750D02*
D03*
D20*
X112250Y284000D02*
D03*
Y274000D02*
D03*
X10256Y240692D02*
D03*
Y250692D02*
D03*
X45250Y250500D02*
D03*
Y240500D02*
D03*
X28250D02*
D03*
Y250500D02*
D03*
X77500Y321749D02*
D03*
Y311749D02*
D03*
X60000Y324249D02*
D03*
Y314249D02*
D03*
X111500Y91750D02*
D03*
Y101750D02*
D03*
X115750Y248000D02*
D03*
Y258000D02*
D03*
X115158Y203862D02*
D03*
Y193862D02*
D03*
X54000Y166750D02*
D03*
Y176750D02*
D03*
X112000Y167750D02*
D03*
Y177750D02*
D03*
Y146500D02*
D03*
Y156500D02*
D03*
X33500Y118750D02*
D03*
Y128750D02*
D03*
X111348Y69656D02*
D03*
Y79656D02*
D03*
X50500Y118750D02*
D03*
Y128750D02*
D03*
X72750Y59250D02*
D03*
Y69250D02*
D03*
D21*
X82250Y177750D02*
D03*
Y161750D02*
D03*
X76050Y283250D02*
D03*
Y299250D02*
D03*
X68000Y172500D02*
D03*
Y156500D02*
D03*
X99000Y170250D02*
D03*
Y154250D02*
D03*
X90300Y283250D02*
D03*
Y299250D02*
D03*
D22*
X61750Y281750D02*
D03*
X114500Y369499D02*
D03*
X92500Y69250D02*
D03*
X70750Y334499D02*
D03*
X12034Y151030D02*
D03*
X63750Y95250D02*
D03*
X109250Y50499D02*
D03*
X82000Y89500D02*
D03*
X12000Y130750D02*
D03*
D23*
X102050Y257500D02*
D03*
X95550D02*
D03*
X89050D02*
D03*
X82550D02*
D03*
X76050D02*
D03*
X69550D02*
D03*
X63050D02*
D03*
X102050Y198500D02*
D03*
X95550D02*
D03*
X89050D02*
D03*
X82550D02*
D03*
X76050D02*
D03*
X69550D02*
D03*
X63050D02*
D03*
D36*
X97755Y317745D02*
X103250Y312250D01*
X97266Y317265D02*
X97750Y317750D01*
X111250Y69558D02*
X111255Y69552D01*
X30950Y152300D02*
X37500D01*
X56500Y110750D02*
Y116750D01*
X54500Y118750D02*
X56500Y116750D01*
X50500Y118750D02*
X54500D01*
X106500Y137749D02*
X112000Y143249D01*
X80250Y151500D02*
X82250Y153500D01*
X72750Y51250D02*
Y59250D01*
X85250Y324999D02*
Y328999D01*
X82000Y321749D02*
X85250Y324999D01*
X83250Y330999D02*
X85250Y328999D01*
X57750Y67000D02*
Y67050D01*
X52750Y72050D02*
X57750Y67050D01*
X33462Y274538D02*
X40538D01*
X28036Y232286D02*
Y240598D01*
X44451Y278451D02*
X45943Y284017D01*
X40538Y274538D02*
X44451Y278451D01*
X102465Y23464D02*
X110750Y31749D01*
X105053Y69552D02*
X111255D01*
X103000Y67499D02*
X105053Y69552D01*
X102465Y22877D02*
Y23464D01*
X112000Y143249D02*
Y146500D01*
X77500Y321749D02*
X82000D01*
X96799Y347993D02*
X100750Y342750D01*
X51500Y320749D02*
X55000Y324249D01*
X60000D01*
X116500Y335500D02*
X116750Y335250D01*
X116500Y335500D02*
Y350249D01*
X105500Y91750D02*
X111500D01*
X103250Y89500D02*
X105500Y91750D01*
X103250Y290500D02*
Y295500D01*
X100500Y287750D02*
X103250Y290500D01*
X33500Y274500D02*
X33500D01*
X33462Y274538D02*
X33500Y274500D01*
X92925Y348537D02*
X96799Y347993D01*
X88000Y344826D02*
X92925Y348537D01*
X115000Y318000D02*
Y324750D01*
Y318000D02*
X116750Y316250D01*
X97755Y317265D02*
Y317745D01*
X97750Y317750D02*
X97755Y317745D01*
X82550Y257500D02*
Y271700D01*
X82500Y271750D02*
X82550Y271700D01*
X111250Y69558D02*
X111348Y69656D01*
X10256Y234596D02*
Y240692D01*
Y234596D02*
X13050Y231802D01*
X18130D01*
X103250Y306750D02*
Y312250D01*
X50858Y77517D02*
X52750Y75625D01*
Y72050D02*
Y75625D01*
X28000Y232250D02*
X28036Y232286D01*
X12000Y130750D02*
X16757Y135507D01*
X12034Y151030D02*
X20979D01*
X27000Y156250D02*
X30950Y152300D01*
X20979Y151030D02*
X21001Y151007D01*
X32750Y141500D02*
X37500D01*
X28750Y145500D02*
X32750Y141500D01*
X16757Y135507D02*
X16763Y135500D01*
X19750D01*
X33500Y107700D02*
Y118750D01*
X30800Y105000D02*
X33500Y107700D01*
X82250Y198200D02*
X82550Y198500D01*
X82250Y177750D02*
X82550Y178050D01*
X82250Y153500D02*
Y161750D01*
X82550Y178050D02*
Y198500D01*
D37*
X74100Y128570D02*
D03*
X86800D02*
D03*
X99500D02*
D03*
X86800Y115870D02*
D03*
X99500D02*
D03*
D38*
X74100D02*
D03*
D39*
X90250Y83250D02*
D03*
X103750Y180750D02*
D03*
X64003Y83004D02*
D03*
X56500Y110750D02*
D03*
X89750Y141500D02*
D03*
X106500Y137749D02*
D03*
X112500Y122000D02*
D03*
X54250Y247000D02*
D03*
X60000Y186000D02*
D03*
X80250Y151500D02*
D03*
X72750Y51250D02*
D03*
X83250Y330999D02*
D03*
X57750Y67000D02*
D03*
X89250Y97250D02*
D03*
X83000Y103000D02*
D03*
X103000Y99250D02*
D03*
X110750Y31749D02*
D03*
X103000Y67499D02*
D03*
X116749Y357998D02*
D03*
X100750Y342750D02*
D03*
X66000Y305249D02*
D03*
X116500Y350249D02*
D03*
X97000Y324999D02*
D03*
X103250Y89500D02*
D03*
X100500Y287750D02*
D03*
X100505Y279764D02*
D03*
X33500Y274500D02*
D03*
X86997Y361897D02*
D03*
X97755Y317265D02*
D03*
X51500Y320749D02*
D03*
X82500Y271750D02*
D03*
X18130Y231802D02*
D03*
X30800Y105000D02*
D03*
X115750Y241250D02*
D03*
X115250Y210750D02*
D03*
X66000Y291000D02*
D03*
X102250Y217250D02*
D03*
X73500Y230750D02*
D03*
X92000Y237000D02*
D03*
X87000Y18750D02*
D03*
X115750Y9750D02*
D03*
X34000Y82750D02*
D03*
X36250Y297250D02*
D03*
X62250Y44250D02*
D03*
X28000Y232250D02*
D03*
X116750Y316250D02*
D03*
X28750Y145500D02*
D03*
X27000Y156250D02*
D03*
X21001Y151007D02*
D03*
X28001Y136507D02*
D03*
X19750Y135500D02*
D03*
X92000Y179750D02*
D03*
M02*
