G04*
G04 #@! TF.GenerationSoftware,Altium Limited,Altium Designer,18.0.9 (584)*
G04*
G04 Layer_Physical_Order=2*
G04 Layer_Color=36540*
%FSLAX44Y44*%
%MOMM*%
G71*
G01*
G75*
%ADD37C,1.0500*%
%ADD39C,0.5500*%
G36*
X109000Y376431D02*
X121431D01*
Y362867D01*
X119431Y361919D01*
X118603Y362472D01*
X116749Y362841D01*
X114896Y362472D01*
X113325Y361423D01*
X112275Y359851D01*
X111906Y357998D01*
X112275Y356145D01*
X113325Y354574D01*
X114896Y353524D01*
X116749Y353155D01*
X118603Y353524D01*
X119431Y354077D01*
X121431Y353129D01*
Y244897D01*
X119431Y244290D01*
X119175Y244674D01*
X117603Y245724D01*
X115750Y246093D01*
X113897Y245724D01*
X112325Y244674D01*
X111276Y243103D01*
X110907Y241250D01*
X111276Y239397D01*
X112325Y237825D01*
X113897Y236776D01*
X115750Y236407D01*
X117603Y236776D01*
X119175Y237825D01*
X119431Y238210D01*
X121431Y237603D01*
Y213494D01*
X119431Y213042D01*
X118675Y214175D01*
X117103Y215224D01*
X115250Y215593D01*
X113397Y215224D01*
X111826Y214175D01*
X110776Y212603D01*
X110407Y210750D01*
X110776Y208897D01*
X111826Y207325D01*
X113397Y206276D01*
X115250Y205907D01*
X117103Y206276D01*
X118675Y207325D01*
X119431Y208458D01*
X121431Y208006D01*
Y3569D01*
X109000D01*
X108885Y3546D01*
X103588Y3893D01*
X98269Y4951D01*
X93133Y6694D01*
X88269Y9093D01*
X83759Y12106D01*
X79682Y15682D01*
X77299Y18400D01*
X77262Y18368D01*
X77262Y18368D01*
X32262Y71997D01*
X32299Y72028D01*
X31106Y73388D01*
X28093Y77898D01*
X25694Y82762D01*
X23951Y87898D01*
X22893Y93217D01*
X22546Y98514D01*
X22569Y98629D01*
Y120000D01*
X22297Y121365D01*
X21523Y122523D01*
X20366Y123297D01*
X19000Y123568D01*
X3569D01*
Y158521D01*
X6478Y161431D01*
X44800D01*
X46166Y161703D01*
X47323Y162476D01*
X48097Y163634D01*
X48369Y165000D01*
Y215000D01*
X48097Y216365D01*
X47323Y217523D01*
X46166Y218297D01*
X44800Y218568D01*
X6478D01*
X3569Y221478D01*
Y256431D01*
X19000D01*
X20366Y256703D01*
X21523Y257476D01*
X22297Y258634D01*
X22569Y260000D01*
Y281371D01*
X22546Y281485D01*
X22893Y286782D01*
X23951Y292101D01*
X25694Y297237D01*
X28093Y302101D01*
X31004Y306457D01*
X32299Y307971D01*
X33547Y309534D01*
X77262Y361631D01*
X77299Y361600D01*
X79682Y364317D01*
X83759Y367893D01*
X88269Y370906D01*
X93133Y373305D01*
X98269Y375048D01*
X103588Y376106D01*
X108885Y376454D01*
X109000Y376431D01*
D02*
G37*
%LPC*%
G36*
X100750Y347593D02*
X98897Y347224D01*
X97325Y346175D01*
X96276Y344603D01*
X95907Y342750D01*
X96276Y340897D01*
X97325Y339325D01*
X98897Y338276D01*
X100750Y337907D01*
X102603Y338276D01*
X104174Y339325D01*
X105224Y340897D01*
X105593Y342750D01*
X105224Y344603D01*
X104174Y346175D01*
X102603Y347224D01*
X100750Y347593D01*
D02*
G37*
G36*
X97000Y329842D02*
X95146Y329474D01*
X93575Y328424D01*
X92525Y326853D01*
X92157Y324999D01*
X92525Y323146D01*
X93575Y321575D01*
X95146Y320525D01*
X97000Y320156D01*
X98853Y320525D01*
X100424Y321575D01*
X101474Y323146D01*
X101843Y324999D01*
X101474Y326853D01*
X100424Y328424D01*
X98853Y329474D01*
X97000Y329842D01*
D02*
G37*
G36*
X66000Y310092D02*
X64146Y309724D01*
X62575Y308674D01*
X61525Y307103D01*
X61157Y305249D01*
X61525Y303396D01*
X62575Y301825D01*
X64146Y300775D01*
X66000Y300406D01*
X67853Y300775D01*
X69424Y301825D01*
X70474Y303396D01*
X70843Y305249D01*
X70474Y307103D01*
X69424Y308674D01*
X67853Y309724D01*
X66000Y310092D01*
D02*
G37*
G36*
X66000Y295843D02*
X64147Y295474D01*
X62575Y294425D01*
X61526Y292853D01*
X61157Y291000D01*
X61526Y289147D01*
X62575Y287575D01*
X64147Y286526D01*
X66000Y286157D01*
X67853Y286526D01*
X69425Y287575D01*
X70474Y289147D01*
X70843Y291000D01*
X70474Y292853D01*
X69425Y294425D01*
X67853Y295474D01*
X66000Y295843D01*
D02*
G37*
G36*
X100500Y292593D02*
X98647Y292224D01*
X97075Y291175D01*
X96026Y289603D01*
X95657Y287750D01*
X96026Y285897D01*
X97075Y284325D01*
X97080Y284322D01*
Y283188D01*
X96031Y281617D01*
X95662Y279764D01*
X96031Y277910D01*
X97080Y276339D01*
X98652Y275289D01*
X100505Y274921D01*
X102358Y275289D01*
X103930Y276339D01*
X104979Y277910D01*
X105348Y279764D01*
X104979Y281617D01*
X103930Y283188D01*
X103925Y283192D01*
Y284326D01*
X104974Y285897D01*
X105343Y287750D01*
X104974Y289603D01*
X103925Y291175D01*
X102353Y292224D01*
X100500Y292593D01*
D02*
G37*
G36*
X33500Y279343D02*
X31647Y278974D01*
X30076Y277925D01*
X29026Y276353D01*
X28657Y274500D01*
X29026Y272647D01*
X30076Y271075D01*
X31647Y270026D01*
X33500Y269657D01*
X35353Y270026D01*
X36925Y271075D01*
X37974Y272647D01*
X38343Y274500D01*
X37974Y276353D01*
X36925Y277925D01*
X35353Y278974D01*
X33500Y279343D01*
D02*
G37*
G36*
X54250Y251843D02*
X52397Y251474D01*
X50826Y250424D01*
X49776Y248853D01*
X49407Y247000D01*
X49776Y245147D01*
X50826Y243575D01*
X52397Y242526D01*
X54250Y242157D01*
X56103Y242526D01*
X57675Y243575D01*
X58724Y245147D01*
X59093Y247000D01*
X58724Y248853D01*
X57675Y250424D01*
X56103Y251474D01*
X54250Y251843D01*
D02*
G37*
G36*
X28000Y237093D02*
X26147Y236724D01*
X24575Y235675D01*
X23526Y234103D01*
X23157Y232250D01*
X23526Y230397D01*
X24575Y228825D01*
X26147Y227776D01*
X28000Y227407D01*
X29853Y227776D01*
X31425Y228825D01*
X32474Y230397D01*
X32843Y232250D01*
X32474Y234103D01*
X31425Y235675D01*
X29853Y236724D01*
X28000Y237093D01*
D02*
G37*
G36*
X60000Y190843D02*
X58147Y190474D01*
X56575Y189425D01*
X55526Y187853D01*
X55157Y186000D01*
X55526Y184147D01*
X56575Y182575D01*
X58147Y181526D01*
X60000Y181157D01*
X61853Y181526D01*
X63425Y182575D01*
X64474Y184147D01*
X64843Y186000D01*
X64474Y187853D01*
X63425Y189425D01*
X61853Y190474D01*
X60000Y190843D01*
D02*
G37*
G36*
X103750Y185593D02*
X101897Y185224D01*
X100325Y184175D01*
X99276Y182603D01*
X98907Y180750D01*
X99276Y178897D01*
X100325Y177325D01*
X101897Y176276D01*
X103750Y175907D01*
X105603Y176276D01*
X107175Y177325D01*
X108224Y178897D01*
X108593Y180750D01*
X108224Y182603D01*
X107175Y184175D01*
X105603Y185224D01*
X103750Y185593D01*
D02*
G37*
G36*
X92000Y184593D02*
X90147Y184224D01*
X88575Y183175D01*
X87526Y181603D01*
X87157Y179750D01*
X87526Y177897D01*
X88575Y176325D01*
X90147Y175276D01*
X92000Y174907D01*
X93853Y175276D01*
X95424Y176325D01*
X96474Y177897D01*
X96843Y179750D01*
X96474Y181603D01*
X95424Y183175D01*
X93853Y184224D01*
X92000Y184593D01*
D02*
G37*
G36*
X89750Y146343D02*
X87897Y145974D01*
X86326Y144925D01*
X85276Y143353D01*
X84907Y141500D01*
X85276Y139647D01*
X86326Y138075D01*
X86708Y137820D01*
X86138Y135795D01*
X84907Y135633D01*
X83144Y134902D01*
X81629Y133740D01*
X79271D01*
X77756Y134902D01*
X75993Y135633D01*
X74100Y135882D01*
X72207Y135633D01*
X70444Y134902D01*
X68929Y133740D01*
X67767Y132226D01*
X67037Y130462D01*
X66787Y128570D01*
X67037Y126677D01*
X67682Y125120D01*
X67579Y124839D01*
X66850Y123120D01*
X66850Y123120D01*
X66850Y123120D01*
Y108620D01*
X79261D01*
X79868Y106620D01*
X79576Y106425D01*
X78526Y104853D01*
X78157Y103000D01*
X78526Y101147D01*
X79576Y99575D01*
X81147Y98526D01*
X83000Y98157D01*
X84570Y96430D01*
X84776Y95397D01*
X85826Y93825D01*
X87397Y92776D01*
X89250Y92407D01*
X91103Y92776D01*
X92675Y93825D01*
X93724Y95397D01*
X94093Y97250D01*
X93724Y99103D01*
X92675Y100675D01*
X91103Y101724D01*
X89250Y102093D01*
X87680Y103820D01*
X87474Y104853D01*
X86425Y106425D01*
X86117Y106630D01*
X86778Y108495D01*
X86827Y108561D01*
X88693Y108806D01*
X90456Y109537D01*
X91971Y110699D01*
X94329D01*
X95844Y109537D01*
X97607Y108806D01*
X99500Y108557D01*
X101393Y108806D01*
X103156Y109537D01*
X104671Y110699D01*
X105833Y112213D01*
X106563Y113977D01*
X106813Y115870D01*
X106563Y117762D01*
X105833Y119526D01*
X104671Y121040D01*
X105543Y122892D01*
X105884Y123337D01*
X107754Y122490D01*
X107657Y122000D01*
X108026Y120147D01*
X109075Y118575D01*
X110647Y117526D01*
X112500Y117157D01*
X114353Y117526D01*
X115925Y118575D01*
X116974Y120147D01*
X117343Y122000D01*
X116974Y123853D01*
X115925Y125425D01*
X114353Y126474D01*
X112500Y126843D01*
X110647Y126474D01*
X109375Y125624D01*
X108197Y126132D01*
X107567Y126639D01*
X107624Y127070D01*
X99500D01*
Y128570D01*
X98000D01*
Y136693D01*
X97346Y136607D01*
X95339Y135776D01*
X93823Y134612D01*
X92241Y133868D01*
X90595Y134974D01*
X90571Y135419D01*
X90897Y136885D01*
X91603Y137026D01*
X93175Y138075D01*
X94224Y139647D01*
X94593Y141500D01*
X94224Y143353D01*
X93175Y144925D01*
X91603Y145974D01*
X89750Y146343D01*
D02*
G37*
G36*
X21001Y155850D02*
X19148Y155482D01*
X17577Y154432D01*
X16527Y152861D01*
X16158Y151007D01*
X16527Y149154D01*
X17577Y147583D01*
X19148Y146533D01*
X21001Y146164D01*
X22041Y146371D01*
X23442Y145717D01*
X24024Y144909D01*
X24276Y143647D01*
X25326Y142076D01*
X24756Y140051D01*
X24577Y139931D01*
X23527Y138360D01*
X23158Y136507D01*
X23527Y134653D01*
X24577Y133082D01*
X26148Y132032D01*
X28001Y131664D01*
X29855Y132032D01*
X31426Y133082D01*
X32476Y134653D01*
X32844Y136507D01*
X32476Y138360D01*
X31426Y139931D01*
X31996Y141956D01*
X32175Y142075D01*
X33224Y143647D01*
X33593Y145500D01*
X33224Y147353D01*
X32175Y148925D01*
X30603Y149974D01*
X28750Y150343D01*
X27710Y150136D01*
X26309Y150791D01*
X25727Y151598D01*
X25475Y152861D01*
X24426Y154432D01*
X22854Y155482D01*
X21001Y155850D01*
D02*
G37*
G36*
X106500Y142592D02*
X104647Y142224D01*
X103075Y141174D01*
X102025Y139602D01*
X101657Y137749D01*
X101000Y137432D01*
Y130070D01*
X107624D01*
X107538Y130723D01*
X107404Y131047D01*
X108353Y133275D01*
X109924Y134325D01*
X110974Y135896D01*
X111343Y137749D01*
X110974Y139602D01*
X109924Y141174D01*
X108353Y142224D01*
X106500Y142592D01*
D02*
G37*
G36*
X103000Y104093D02*
X101147Y103724D01*
X99575Y102675D01*
X98526Y101103D01*
X98157Y99250D01*
X98526Y97397D01*
X99575Y95825D01*
X101147Y94776D01*
X103000Y94407D01*
X104853Y94776D01*
X106425Y95825D01*
X107474Y97397D01*
X107843Y99250D01*
X107474Y101103D01*
X106425Y102675D01*
X104853Y103724D01*
X103000Y104093D01*
D02*
G37*
G36*
X64003Y87847D02*
X62150Y87478D01*
X60579Y86429D01*
X59529Y84857D01*
X59160Y83004D01*
X59529Y81151D01*
X60579Y79580D01*
X62150Y78530D01*
X64003Y78161D01*
X65856Y78530D01*
X67428Y79580D01*
X68478Y81151D01*
X68846Y83004D01*
X68478Y84857D01*
X67428Y86429D01*
X65856Y87478D01*
X64003Y87847D01*
D02*
G37*
G36*
X57750Y71843D02*
X55897Y71474D01*
X54325Y70424D01*
X53276Y68853D01*
X52907Y67000D01*
X53276Y65147D01*
X54325Y63575D01*
X55897Y62526D01*
X57750Y62157D01*
X59603Y62526D01*
X61175Y63575D01*
X62224Y65147D01*
X62593Y67000D01*
X62224Y68853D01*
X61175Y70424D01*
X59603Y71474D01*
X57750Y71843D01*
D02*
G37*
G36*
X110750Y36592D02*
X108896Y36224D01*
X107325Y35174D01*
X106275Y33602D01*
X105907Y31749D01*
X106275Y29896D01*
X107325Y28325D01*
X108896Y27275D01*
X110750Y26906D01*
X112603Y27275D01*
X114174Y28325D01*
X115224Y29896D01*
X115593Y31749D01*
X115224Y33602D01*
X114174Y35174D01*
X112603Y36224D01*
X110750Y36592D01*
D02*
G37*
%LPD*%
D37*
X99500Y128570D02*
D03*
D39*
X90250Y83250D02*
D03*
X56500Y110750D02*
D03*
X80250Y151500D02*
D03*
X72750Y51250D02*
D03*
X83250Y330999D02*
D03*
X103000Y67499D02*
D03*
X116500Y350249D02*
D03*
X103250Y89500D02*
D03*
X86997Y361897D02*
D03*
X97755Y317265D02*
D03*
X51500Y320749D02*
D03*
X82500Y271750D02*
D03*
X18130Y231802D02*
D03*
X30800Y105000D02*
D03*
X102250Y217250D02*
D03*
X73500Y230750D02*
D03*
X92000Y237000D02*
D03*
X87000Y18750D02*
D03*
X115750Y9750D02*
D03*
X34000Y82750D02*
D03*
X36250Y297250D02*
D03*
X62250Y44250D02*
D03*
X116750Y316250D02*
D03*
X27000Y156250D02*
D03*
X19750Y135500D02*
D03*
M02*
