G04*
G04 #@! TF.GenerationSoftware,Altium Limited,Altium Designer,18.0.9 (584)*
G04*
G04 Layer_Color=128*
%FSLAX44Y44*%
%MOMM*%
G71*
G01*
G75*
%ADD40C,0.0508*%
D40*
X70600Y128570D02*
X77600D01*
X74100Y125070D02*
Y132070D01*
X83300Y128570D02*
X90300D01*
X86800Y125070D02*
Y132070D01*
X96000Y128570D02*
X103000D01*
X99500Y125070D02*
Y132070D01*
X70600Y115870D02*
X77600D01*
X74100Y112370D02*
Y119370D01*
X83300Y115870D02*
X90300D01*
X86800Y112370D02*
Y119370D01*
X96000Y115870D02*
X103000D01*
X99500Y112370D02*
Y119370D01*
X88750Y83250D02*
X91750D01*
X90250Y81750D02*
Y84750D01*
X102250Y180750D02*
X105250D01*
X103750Y179250D02*
Y182250D01*
X62503Y83004D02*
X65503D01*
X64003Y81504D02*
Y84504D01*
X55000Y110750D02*
X58000D01*
X56500Y109250D02*
Y112250D01*
X88250Y141500D02*
X91250D01*
X89750Y140000D02*
Y143000D01*
X105000Y137749D02*
X108000D01*
X106500Y136249D02*
Y139249D01*
X111000Y122000D02*
X114000D01*
X112500Y120500D02*
Y123500D01*
X52750Y247000D02*
X55750D01*
X54250Y245500D02*
Y248500D01*
X58500Y186000D02*
X61500D01*
X60000Y184500D02*
Y187500D01*
X78750Y151500D02*
X81750D01*
X80250Y150000D02*
Y153000D01*
X71250Y51250D02*
X74250D01*
X72750Y49750D02*
Y52750D01*
X81750Y330999D02*
X84750D01*
X83250Y329499D02*
Y332499D01*
X56250Y67000D02*
X59250D01*
X57750Y65500D02*
Y68500D01*
X87750Y97250D02*
X90750D01*
X89250Y95750D02*
Y98750D01*
X81500Y103000D02*
X84500D01*
X83000Y101500D02*
Y104500D01*
X101500Y99250D02*
X104500D01*
X103000Y97750D02*
Y100750D01*
X109250Y31749D02*
X112250D01*
X110750Y30249D02*
Y33249D01*
X101500Y67499D02*
X104500D01*
X103000Y65999D02*
Y68999D01*
X115249Y357998D02*
X118249D01*
X116749Y356498D02*
Y359498D01*
X99250Y342750D02*
X102250D01*
X100750Y341250D02*
Y344250D01*
X64500Y305249D02*
X67500D01*
X66000Y303749D02*
Y306749D01*
X115000Y350249D02*
X118000D01*
X116500Y348749D02*
Y351749D01*
X95500Y324999D02*
X98500D01*
X97000Y323499D02*
Y326499D01*
X101750Y89500D02*
X104750D01*
X103250Y88000D02*
Y91000D01*
X99000Y287750D02*
X102000D01*
X100500Y286250D02*
Y289250D01*
X99005Y279764D02*
X102005D01*
X100505Y278264D02*
Y281264D01*
X32000Y274500D02*
X35000D01*
X33500Y273000D02*
Y276000D01*
X85497Y361897D02*
X88497D01*
X86997Y360397D02*
Y363397D01*
X96255Y317265D02*
X99255D01*
X97755Y315765D02*
Y318766D01*
X50000Y320749D02*
X53000D01*
X51500Y319249D02*
Y322249D01*
X81000Y271750D02*
X84000D01*
X82500Y270250D02*
Y273250D01*
X16630Y231802D02*
X19630D01*
X18130Y230302D02*
Y233302D01*
X29300Y105000D02*
X32300D01*
X30800Y103500D02*
Y106500D01*
X114250Y241250D02*
X117250D01*
X115750Y239750D02*
Y242750D01*
X113750Y210750D02*
X116750D01*
X115250Y209250D02*
Y212250D01*
X64500Y291000D02*
X67500D01*
X66000Y289500D02*
Y292500D01*
X100750Y217250D02*
X103750D01*
X102250Y215750D02*
Y218750D01*
X72000Y230750D02*
X75000D01*
X73500Y229250D02*
Y232250D01*
X90500Y237000D02*
X93500D01*
X92000Y235500D02*
Y238500D01*
X85500Y18750D02*
X88500D01*
X87000Y17250D02*
Y20250D01*
X114250Y9750D02*
X117250D01*
X115750Y8250D02*
Y11250D01*
X32500Y82750D02*
X35500D01*
X34000Y81250D02*
Y84250D01*
X34750Y297250D02*
X37750D01*
X36250Y295750D02*
Y298750D01*
X60750Y44250D02*
X63750D01*
X62250Y42750D02*
Y45750D01*
X26500Y232250D02*
X29500D01*
X28000Y230750D02*
Y233750D01*
X115250Y316250D02*
X118250D01*
X116750Y314750D02*
Y317750D01*
X27250Y145500D02*
X30250D01*
X28750Y144000D02*
Y147000D01*
X25500Y156250D02*
X28500D01*
X27000Y154750D02*
Y157750D01*
X19501Y151007D02*
X22501D01*
X21001Y149507D02*
Y152507D01*
X26501Y136507D02*
X29501D01*
X28001Y135007D02*
Y138007D01*
X18250Y135500D02*
X21250D01*
X19750Y134000D02*
Y137000D01*
X90500Y179750D02*
X93500D01*
X92000Y178250D02*
Y181250D01*
M02*
