G04*
G04 #@! TF.GenerationSoftware,Altium Limited,Altium Designer,18.0.9 (584)*
G04*
G04 Layer_Physical_Order=4*
G04 Layer_Color=16711680*
%FSLAX44Y44*%
%MOMM*%
G71*
G01*
G75*
%ADD14C,0.2000*%
%ADD37C,1.0500*%
%ADD38R,1.0500X1.0500*%
%ADD39C,0.5500*%
G36*
X109000Y376431D02*
X121431D01*
Y362867D01*
X119431Y361919D01*
X118603Y362472D01*
X116749Y362841D01*
X114896Y362472D01*
X113325Y361423D01*
X113080Y361057D01*
X99248D01*
X98078Y360824D01*
X97085Y360161D01*
X88087Y351163D01*
X87424Y350171D01*
X87191Y349000D01*
X87191Y349000D01*
Y331749D01*
X87191Y331749D01*
X87424Y330578D01*
X88087Y329586D01*
X91439Y326235D01*
Y323764D01*
X88087Y320412D01*
X87424Y319420D01*
X87191Y318249D01*
X87191Y318249D01*
Y289868D01*
X87191Y289868D01*
X87424Y288698D01*
X88087Y287705D01*
X95723Y280070D01*
X95662Y279764D01*
X96031Y277910D01*
X97080Y276339D01*
X98652Y275289D01*
X100505Y274921D01*
X102358Y275289D01*
X103930Y276339D01*
X104979Y277910D01*
X105348Y279764D01*
X104979Y281617D01*
X103930Y283188D01*
X103925Y283192D01*
Y284326D01*
X104974Y285897D01*
X105343Y287750D01*
X104974Y289603D01*
X103925Y291175D01*
X102353Y292224D01*
X100500Y292593D01*
X98647Y292224D01*
X97075Y291175D01*
X96798Y290759D01*
X94776Y290470D01*
X93309Y291772D01*
Y316982D01*
X96568Y320242D01*
X97000Y320156D01*
X98853Y320525D01*
X100424Y321575D01*
X101474Y323146D01*
X101843Y324999D01*
X101474Y326853D01*
X100424Y328424D01*
X98853Y329474D01*
X97000Y329842D01*
X96568Y329756D01*
X93309Y333016D01*
Y347733D01*
X100515Y354939D01*
X113080D01*
X113325Y354574D01*
X114896Y353524D01*
X116749Y353155D01*
X118603Y353524D01*
X119431Y354077D01*
X121431Y353129D01*
Y244897D01*
X119431Y244290D01*
X119175Y244674D01*
X117603Y245724D01*
X115750Y246093D01*
X113897Y245724D01*
X112325Y244674D01*
X111276Y243103D01*
X110907Y241250D01*
X110993Y240819D01*
X83837Y213663D01*
X83174Y212670D01*
X82941Y211500D01*
X82941Y211500D01*
Y149250D01*
X82941Y149250D01*
X83174Y148080D01*
X83837Y147087D01*
X85974Y144950D01*
X85182Y143149D01*
X83068Y142508D01*
X63059Y162517D01*
Y182331D01*
X63425Y182575D01*
X64474Y184147D01*
X64843Y186000D01*
X64474Y187853D01*
X63425Y189425D01*
X61853Y190474D01*
X60000Y190843D01*
X59309Y190706D01*
X57309Y192137D01*
Y243331D01*
X57675Y243575D01*
X58724Y245147D01*
X59093Y247000D01*
X58724Y248853D01*
X57675Y250424D01*
X56103Y251474D01*
X54250Y251843D01*
X52397Y251474D01*
X50826Y250424D01*
X49776Y248853D01*
X49407Y247000D01*
X49776Y245147D01*
X50826Y243575D01*
X51191Y243331D01*
Y161767D01*
X48587Y159163D01*
X47924Y158170D01*
X47691Y157000D01*
X47691Y157000D01*
Y108368D01*
X47691Y108368D01*
X47924Y107198D01*
X48587Y106205D01*
X53955Y100837D01*
X54948Y100174D01*
X56118Y99941D01*
X56118Y99941D01*
X79331D01*
X79576Y99575D01*
X81147Y98526D01*
X83000Y98157D01*
X84570Y96430D01*
X84776Y95397D01*
X85826Y93825D01*
X87397Y92776D01*
X89250Y92407D01*
X91103Y92776D01*
X92675Y93825D01*
X92919Y94191D01*
X95750D01*
X95750Y94191D01*
X96920Y94424D01*
X97913Y95087D01*
X98517Y95691D01*
X99776D01*
X101147Y94776D01*
X103000Y94407D01*
X104853Y94776D01*
X106425Y95825D01*
X107474Y97397D01*
X107843Y99250D01*
X107474Y101103D01*
X106748Y102191D01*
X106842Y102941D01*
X107153Y103719D01*
X107559Y104302D01*
X108170Y104424D01*
X109163Y105087D01*
X119431Y115356D01*
X121431Y114527D01*
Y3569D01*
X109000D01*
X108885Y3546D01*
X103588Y3893D01*
X98269Y4951D01*
X93133Y6694D01*
X88269Y9093D01*
X83759Y12106D01*
X79682Y15682D01*
X77299Y18400D01*
X77262Y18368D01*
X77262Y18368D01*
X32262Y71997D01*
X32299Y72028D01*
X31106Y73388D01*
X28093Y77898D01*
X25694Y82762D01*
X23951Y87898D01*
X22893Y93217D01*
X22546Y98514D01*
X22569Y98629D01*
Y120000D01*
X22297Y121365D01*
X21523Y122523D01*
X20366Y123297D01*
X19000Y123568D01*
X3569D01*
Y158521D01*
X6478Y161431D01*
X44800D01*
X46166Y161703D01*
X47323Y162476D01*
X48097Y163634D01*
X48369Y165000D01*
Y215000D01*
X48097Y216365D01*
X47323Y217523D01*
X46166Y218297D01*
X44800Y218568D01*
X6478D01*
X3569Y221478D01*
Y256431D01*
X19000D01*
X20366Y256703D01*
X21523Y257476D01*
X22297Y258634D01*
X22569Y260000D01*
Y281371D01*
X22546Y281485D01*
X22893Y286782D01*
X23951Y292101D01*
X25694Y297237D01*
X28093Y302101D01*
X31004Y306457D01*
X32299Y307971D01*
X33547Y309534D01*
X77262Y361631D01*
X77299Y361600D01*
X79682Y364317D01*
X83759Y367893D01*
X88269Y370906D01*
X93133Y373305D01*
X98269Y375048D01*
X103588Y376106D01*
X108885Y376454D01*
X109000Y376431D01*
D02*
G37*
G36*
X121431Y237603D02*
Y213494D01*
X119431Y213042D01*
X118675Y214175D01*
X117103Y215224D01*
X115250Y215593D01*
X113397Y215224D01*
X111826Y214175D01*
X110776Y212603D01*
X110407Y210750D01*
X110776Y208897D01*
X111826Y207325D01*
X113397Y206276D01*
X115191Y205919D01*
Y176463D01*
X113191Y175634D01*
X108507Y180319D01*
X108593Y180750D01*
X108224Y182603D01*
X107175Y184175D01*
X105603Y185224D01*
X103750Y185593D01*
X101897Y185224D01*
X100325Y184175D01*
X99276Y182603D01*
X98907Y180750D01*
X99276Y178897D01*
X100325Y177325D01*
X101897Y176276D01*
X103750Y175907D01*
X104181Y175993D01*
X109441Y170733D01*
Y143719D01*
X107441Y142405D01*
X106500Y142592D01*
X104647Y142224D01*
X103075Y141174D01*
X102025Y139602D01*
X101657Y137749D01*
X101000Y137432D01*
Y128570D01*
X98000D01*
Y136693D01*
X97346Y136607D01*
X95339Y135776D01*
X93823Y134612D01*
X92241Y133868D01*
X90923Y134754D01*
X90975Y136783D01*
X91152Y136936D01*
X91603Y137026D01*
X93175Y138075D01*
X94224Y139647D01*
X94593Y141500D01*
X94224Y143353D01*
X93175Y144925D01*
X92809Y145169D01*
Y145500D01*
X92809Y145500D01*
X92576Y146671D01*
X91913Y147663D01*
X91913Y147663D01*
X89059Y150517D01*
Y173780D01*
X91059Y175094D01*
X92000Y174907D01*
X93853Y175276D01*
X95424Y176325D01*
X96474Y177897D01*
X96843Y179750D01*
X96474Y181603D01*
X95424Y183175D01*
X93853Y184224D01*
X92000Y184593D01*
X91059Y184406D01*
X89059Y185720D01*
Y210233D01*
X115318Y236493D01*
X115750Y236407D01*
X117603Y236776D01*
X119175Y237825D01*
X119431Y238210D01*
X121431Y237603D01*
D02*
G37*
G36*
X58726Y158199D02*
X81184Y135740D01*
X80812Y134767D01*
X78555Y134290D01*
X77756Y134902D01*
X75993Y135633D01*
X74100Y135882D01*
X72207Y135633D01*
X70444Y134902D01*
X68929Y133740D01*
X67767Y132226D01*
X67037Y130462D01*
X66787Y128570D01*
X67037Y126677D01*
X67682Y125120D01*
X67579Y124839D01*
X66850Y123120D01*
X66850Y123120D01*
X66850Y123120D01*
Y108620D01*
X77391D01*
X78378Y106620D01*
X77948Y106059D01*
X57385D01*
X53809Y109635D01*
Y155733D01*
X56125Y158049D01*
X56583Y158327D01*
X58726Y158199D01*
D02*
G37*
%LPC*%
G36*
X100750Y347593D02*
X98897Y347224D01*
X97325Y346175D01*
X96276Y344603D01*
X95907Y342750D01*
X96276Y340897D01*
X97325Y339325D01*
X98897Y338276D01*
X100750Y337907D01*
X102603Y338276D01*
X104174Y339325D01*
X105224Y340897D01*
X105593Y342750D01*
X105224Y344603D01*
X104174Y346175D01*
X102603Y347224D01*
X100750Y347593D01*
D02*
G37*
G36*
X66000Y310092D02*
X64146Y309724D01*
X62575Y308674D01*
X61525Y307103D01*
X61157Y305249D01*
X61525Y303396D01*
X62575Y301825D01*
X62941Y301580D01*
Y294669D01*
X62575Y294425D01*
X61526Y292853D01*
X61157Y291000D01*
X61526Y289147D01*
X62575Y287575D01*
X64147Y286526D01*
X66000Y286157D01*
X67853Y286526D01*
X69425Y287575D01*
X70474Y289147D01*
X70843Y291000D01*
X70474Y292853D01*
X69425Y294425D01*
X69059Y294669D01*
Y301580D01*
X69424Y301825D01*
X70474Y303396D01*
X70843Y305249D01*
X70474Y307103D01*
X69424Y308674D01*
X67853Y309724D01*
X66000Y310092D01*
D02*
G37*
G36*
X33500Y279343D02*
X31647Y278974D01*
X30076Y277925D01*
X29026Y276353D01*
X28657Y274500D01*
X29026Y272647D01*
X30076Y271075D01*
X31647Y270026D01*
X33500Y269657D01*
X35353Y270026D01*
X36925Y271075D01*
X37974Y272647D01*
X38343Y274500D01*
X37974Y276353D01*
X36925Y277925D01*
X35353Y278974D01*
X33500Y279343D01*
D02*
G37*
G36*
X28000Y237093D02*
X26147Y236724D01*
X24575Y235675D01*
X23526Y234103D01*
X23157Y232250D01*
X23526Y230397D01*
X24575Y228825D01*
X26147Y227776D01*
X28000Y227407D01*
X29853Y227776D01*
X31425Y228825D01*
X32474Y230397D01*
X32843Y232250D01*
X32474Y234103D01*
X31425Y235675D01*
X29853Y236724D01*
X28000Y237093D01*
D02*
G37*
G36*
X21001Y155850D02*
X19148Y155482D01*
X17577Y154432D01*
X16527Y152861D01*
X16158Y151007D01*
X16527Y149154D01*
X17577Y147583D01*
X19148Y146533D01*
X21001Y146164D01*
X22041Y146371D01*
X23442Y145717D01*
X24024Y144909D01*
X24276Y143647D01*
X25326Y142076D01*
X24756Y140051D01*
X24577Y139931D01*
X23527Y138360D01*
X23158Y136507D01*
X23527Y134653D01*
X24577Y133082D01*
X24943Y132838D01*
Y118499D01*
X24943Y118499D01*
X25175Y117328D01*
X25838Y116336D01*
X59162Y83013D01*
X59160Y83004D01*
X59529Y81151D01*
X60579Y79580D01*
X62150Y78530D01*
X64003Y78161D01*
X65856Y78530D01*
X67428Y79580D01*
X68478Y81151D01*
X68846Y83004D01*
X68478Y84857D01*
X67428Y86429D01*
X65856Y87478D01*
X64003Y87847D01*
X63149Y87677D01*
X31060Y119766D01*
Y132838D01*
X31426Y133082D01*
X32476Y134653D01*
X32844Y136507D01*
X32476Y138360D01*
X31426Y139931D01*
X31996Y141956D01*
X32175Y142075D01*
X33224Y143647D01*
X33593Y145500D01*
X33224Y147353D01*
X32175Y148925D01*
X30603Y149974D01*
X28750Y150343D01*
X27710Y150136D01*
X26309Y150791D01*
X25727Y151598D01*
X25475Y152861D01*
X24426Y154432D01*
X22854Y155482D01*
X21001Y155850D01*
D02*
G37*
G36*
X57750Y71843D02*
X55897Y71474D01*
X54325Y70424D01*
X53276Y68853D01*
X52907Y67000D01*
X53276Y65147D01*
X54325Y63575D01*
X55897Y62526D01*
X57750Y62157D01*
X59603Y62526D01*
X61175Y63575D01*
X62224Y65147D01*
X62593Y67000D01*
X62224Y68853D01*
X61175Y70424D01*
X59603Y71474D01*
X57750Y71843D01*
D02*
G37*
G36*
X110750Y36592D02*
X108896Y36224D01*
X107325Y35174D01*
X106275Y33602D01*
X105907Y31749D01*
X106275Y29896D01*
X107325Y28325D01*
X108896Y27275D01*
X110750Y26906D01*
X112603Y27275D01*
X114174Y28325D01*
X115224Y29896D01*
X115593Y31749D01*
X115224Y33602D01*
X114174Y35174D01*
X112603Y36224D01*
X110750Y36592D01*
D02*
G37*
%LPD*%
D14*
X97250Y98750D02*
X103000D01*
X54250Y160500D02*
Y247000D01*
X50750Y157000D02*
X54250Y160500D01*
X50750Y108368D02*
Y157000D01*
X86800Y128570D02*
Y134450D01*
X60000Y161250D02*
X86800Y134450D01*
X60000Y161250D02*
Y186000D01*
X112500Y122000D02*
Y172000D01*
X103750Y180750D02*
X112500Y172000D01*
X90250Y349000D02*
X99248Y357998D01*
X90250Y331749D02*
Y349000D01*
Y331749D02*
X97000Y324999D01*
X99248Y357998D02*
X116749D01*
X95750Y97250D02*
X97250Y98750D01*
X89250Y97250D02*
X95750D01*
X107000Y107250D02*
X118250Y118500D01*
X88920Y107250D02*
X107000D01*
X86800Y109370D02*
X88920Y107250D01*
X118250Y118500D02*
Y207250D01*
X63746Y82754D02*
X63996Y83004D01*
X64003D01*
X28001Y118499D02*
X63746Y82754D01*
X28001Y118499D02*
Y136507D01*
X56118Y103000D02*
X83000D01*
X50750Y108368D02*
X56118Y103000D01*
X86000Y149250D02*
X89750Y145500D01*
Y141500D02*
Y145500D01*
X86000Y149250D02*
Y211500D01*
X115250Y210250D02*
X118250Y207250D01*
X86000Y211500D02*
X115750Y241250D01*
X103000Y98750D02*
Y99250D01*
X66000Y291000D02*
Y305249D01*
Y291000D02*
X66000Y291000D01*
X90250Y318249D02*
X97000Y324999D01*
X90250Y289868D02*
Y318249D01*
Y289868D02*
X100355Y279764D01*
X100505D01*
X114966Y210212D02*
X115250Y210496D01*
Y210250D02*
Y210496D01*
Y210750D01*
X86800Y115870D02*
Y118370D01*
Y109370D02*
Y115870D01*
D37*
X74100Y128570D02*
D03*
X86800D02*
D03*
X99500D02*
D03*
X86800Y115870D02*
D03*
X99500D02*
D03*
D38*
X74100D02*
D03*
D39*
X90250Y83250D02*
D03*
X103750Y180750D02*
D03*
X64003Y83004D02*
D03*
X56500Y110750D02*
D03*
X89750Y141500D02*
D03*
X106500Y137749D02*
D03*
X112500Y122000D02*
D03*
X54250Y247000D02*
D03*
X60000Y186000D02*
D03*
X80250Y151500D02*
D03*
X72750Y51250D02*
D03*
X83250Y330999D02*
D03*
X57750Y67000D02*
D03*
X89250Y97250D02*
D03*
X83000Y103000D02*
D03*
X103000Y99250D02*
D03*
X110750Y31749D02*
D03*
X103000Y67499D02*
D03*
X116749Y357998D02*
D03*
X100750Y342750D02*
D03*
X66000Y305249D02*
D03*
X116500Y350249D02*
D03*
X97000Y324999D02*
D03*
X103250Y89500D02*
D03*
X100500Y287750D02*
D03*
X100505Y279764D02*
D03*
X33500Y274500D02*
D03*
X86997Y361897D02*
D03*
X97755Y317265D02*
D03*
X51500Y320749D02*
D03*
X82500Y271750D02*
D03*
X18130Y231802D02*
D03*
X30800Y105000D02*
D03*
X115750Y241250D02*
D03*
X115250Y210750D02*
D03*
X66000Y291000D02*
D03*
X102250Y217250D02*
D03*
X73500Y230750D02*
D03*
X92000Y237000D02*
D03*
X87000Y18750D02*
D03*
X115750Y9750D02*
D03*
X34000Y82750D02*
D03*
X36250Y297250D02*
D03*
X62250Y44250D02*
D03*
X28000Y232250D02*
D03*
X116750Y316250D02*
D03*
X28750Y145500D02*
D03*
X27000Y156250D02*
D03*
X21001Y151007D02*
D03*
X28001Y136507D02*
D03*
X19750Y135500D02*
D03*
X92000Y179750D02*
D03*
M02*
