G04*
G04 #@! TF.GenerationSoftware,Altium Limited,Altium Designer,18.0.9 (584)*
G04*
G04 Layer_Color=2752767*
%FSLAX44Y44*%
%MOMM*%
G71*
G01*
G75*
%ADD40C,0.0508*%
%ADD41C,0.0677*%
D40*
X72068Y126538D02*
Y130602D01*
X76132D01*
Y126538D01*
X72068D01*
X84768D02*
Y130602D01*
X88832D01*
Y126538D01*
X84768D01*
X97468D02*
Y130602D01*
X101532D01*
Y126538D01*
X97468D01*
X72068Y113838D02*
Y117902D01*
X76132D01*
Y113838D01*
X72068D01*
X84768D02*
Y117902D01*
X88832D01*
Y113838D01*
X84768D01*
X97468D02*
Y117902D01*
X101532D01*
Y113838D01*
X97468D01*
D41*
X92282Y83250D02*
G03*
X92282Y83250I-2032J0D01*
G01*
X105782Y180750D02*
G03*
X105782Y180750I-2032J0D01*
G01*
X66035Y83004D02*
G03*
X66035Y83004I-2032J0D01*
G01*
X58532Y110750D02*
G03*
X58532Y110750I-2032J0D01*
G01*
X91782Y141500D02*
G03*
X91782Y141500I-2032J0D01*
G01*
X108532Y137749D02*
G03*
X108532Y137749I-2032J0D01*
G01*
X114532Y122000D02*
G03*
X114532Y122000I-2032J0D01*
G01*
X56282Y247000D02*
G03*
X56282Y247000I-2032J0D01*
G01*
X62032Y186000D02*
G03*
X62032Y186000I-2032J0D01*
G01*
X82282Y151500D02*
G03*
X82282Y151500I-2032J0D01*
G01*
X74782Y51250D02*
G03*
X74782Y51250I-2032J0D01*
G01*
X85282Y330999D02*
G03*
X85282Y330999I-2032J0D01*
G01*
X59782Y67000D02*
G03*
X59782Y67000I-2032J0D01*
G01*
X91282Y97250D02*
G03*
X91282Y97250I-2032J0D01*
G01*
X85032Y103000D02*
G03*
X85032Y103000I-2032J0D01*
G01*
X105032Y99250D02*
G03*
X105032Y99250I-2032J0D01*
G01*
X112782Y31749D02*
G03*
X112782Y31749I-2032J0D01*
G01*
X105032Y67499D02*
G03*
X105032Y67499I-2032J0D01*
G01*
X118781Y357998D02*
G03*
X118781Y357998I-2032J0D01*
G01*
X102782Y342750D02*
G03*
X102782Y342750I-2032J0D01*
G01*
X68032Y305249D02*
G03*
X68032Y305249I-2032J0D01*
G01*
X118532Y350249D02*
G03*
X118532Y350249I-2032J0D01*
G01*
X99032Y324999D02*
G03*
X99032Y324999I-2032J0D01*
G01*
X105282Y89500D02*
G03*
X105282Y89500I-2032J0D01*
G01*
X102532Y287750D02*
G03*
X102532Y287750I-2032J0D01*
G01*
X102537Y279764D02*
G03*
X102537Y279764I-2032J0D01*
G01*
X35532Y274500D02*
G03*
X35532Y274500I-2032J0D01*
G01*
X89029Y361897D02*
G03*
X89029Y361897I-2032J0D01*
G01*
X99787Y317265D02*
G03*
X99787Y317265I-2032J0D01*
G01*
X53532Y320749D02*
G03*
X53532Y320749I-2032J0D01*
G01*
X84532Y271750D02*
G03*
X84532Y271750I-2032J0D01*
G01*
X20162Y231802D02*
G03*
X20162Y231802I-2032J0D01*
G01*
X32832Y105000D02*
G03*
X32832Y105000I-2032J0D01*
G01*
X117782Y241250D02*
G03*
X117782Y241250I-2032J0D01*
G01*
X117282Y210750D02*
G03*
X117282Y210750I-2032J0D01*
G01*
X68032Y291000D02*
G03*
X68032Y291000I-2032J0D01*
G01*
X104282Y217250D02*
G03*
X104282Y217250I-2032J0D01*
G01*
X75532Y230750D02*
G03*
X75532Y230750I-2032J0D01*
G01*
X94032Y237000D02*
G03*
X94032Y237000I-2032J0D01*
G01*
X89032Y18750D02*
G03*
X89032Y18750I-2032J0D01*
G01*
X117782Y9750D02*
G03*
X117782Y9750I-2032J0D01*
G01*
X36032Y82750D02*
G03*
X36032Y82750I-2032J0D01*
G01*
X38282Y297250D02*
G03*
X38282Y297250I-2032J0D01*
G01*
X64282Y44250D02*
G03*
X64282Y44250I-2032J0D01*
G01*
X30032Y232250D02*
G03*
X30032Y232250I-2032J0D01*
G01*
X118782Y316250D02*
G03*
X118782Y316250I-2032J0D01*
G01*
X30782Y145500D02*
G03*
X30782Y145500I-2032J0D01*
G01*
X29032Y156250D02*
G03*
X29032Y156250I-2032J0D01*
G01*
X23033Y151007D02*
G03*
X23033Y151007I-2032J0D01*
G01*
X30033Y136507D02*
G03*
X30033Y136507I-2032J0D01*
G01*
X21782Y135500D02*
G03*
X21782Y135500I-2032J0D01*
G01*
X94032Y179750D02*
G03*
X94032Y179750I-2032J0D01*
G01*
M02*
