M48
;Layer_Color=9474304
;FILE_FORMAT=4:4
METRIC,LZ
;TYPE=PLATED
T1F00S00C0.3000
T2F00S00C0.7000
%
T01
X00087Y0001875
X0011075Y00031749
X0011575Y0000975
X00103Y00067499
X0010325Y000895
X00103Y0009925
X0008925Y0009725
X00083Y00103
X0009025Y0008325
X0007275Y0005125
X0008975Y001415
X001065Y00137749
X001125Y00122
X000565Y0011075
X000308Y00105
X00034Y0008275
X00064003Y00083004
X0005775Y00067
X0006225Y0004425
X00028001Y00136507
X0001975Y001355
X0002875Y001455
X00027Y0015625
X00021001Y00151007
X0006Y00186
X0005425Y00247
X00028Y0023225
X0001813Y00231802
X000335Y002745
X0003625Y0029725
X00066Y00291
X00066Y00305249
X000515Y00320749
X0008325Y00330999
X00097Y00324999
X00097755Y00317265
X0011675Y0031625
X001165Y00350249
X00116749Y00357998
X0010075Y0034275
X00086997Y00361897
X001005Y0028775
X00100505Y00279764
X000825Y0027175
X00092Y00237
X000735Y0023075
X0010225Y0021725
X0011525Y0021075
X0011575Y0024125
X0010375Y0018075
X00092Y0017975
X0008025Y001515
T02
X000741Y0011587
Y0012857
X000868
X000995
Y0011587
X000868
M30
