G04*
G04 #@! TF.GenerationSoftware,Altium Limited,Altium Designer,18.0.9 (584)*
G04*
G04 Layer_Color=65535*
%FSLAX44Y44*%
%MOMM*%
G71*
G01*
G75*
%ADD10C,0.1000*%
%ADD11C,0.2000*%
%ADD12C,0.5000*%
%ADD13C,0.1998*%
%ADD14C,0.2500*%
%ADD15C,0.4000*%
%ADD16C,0.2540*%
%ADD17R,0.3845X2.9500*%
%ADD18R,0.3845X2.3250*%
%ADD19R,0.3250X0.3500*%
D10*
X182995Y151364D02*
G03*
X183058Y159051I-6757J3898D01*
G01*
X169216Y158660D02*
G03*
X169261Y151773I7022J-3398D01*
G01*
X169216Y228660D02*
G03*
X169261Y221773I7022J-3398D01*
G01*
X182995Y221364D02*
G03*
X183058Y229051I-6757J3898D01*
G01*
X337893Y186242D02*
Y193742D01*
X556422Y148884D02*
Y153884D01*
X530952Y224576D02*
Y229576D01*
X82052Y226804D02*
Y231804D01*
X785102Y352232D02*
X790102D01*
X188435Y318000D02*
X193435D01*
X787751Y355894D02*
Y360894D01*
X784340Y303316D02*
X789340D01*
X203185Y320000D02*
X210685D01*
X226300Y297300D02*
X231300D01*
X442964Y203388D02*
X447964D01*
X364440Y53700D02*
Y58700D01*
X199300Y54050D02*
Y59050D01*
X109050Y277300D02*
Y282300D01*
X163750Y356250D02*
Y361250D01*
X695051Y162300D02*
X700050D01*
X682002Y250250D02*
X686001D01*
X688000Y252249D01*
X686001Y254249D01*
X682002D01*
X683002Y260247D02*
X682002Y259247D01*
Y257248D01*
X683002Y256248D01*
X687000D01*
X688000Y257248D01*
Y259247D01*
X687000Y260247D01*
X683002Y266245D02*
X682002Y265245D01*
Y263246D01*
X683002Y262246D01*
X687000D01*
X688000Y263246D01*
Y265245D01*
X687000Y266245D01*
X667752Y254249D02*
X666752Y253249D01*
Y251250D01*
X667752Y250250D01*
X671750D01*
X672750Y251250D01*
Y253249D01*
X671750Y254249D01*
X666752Y256248D02*
X672750D01*
Y260247D01*
Y262246D02*
X666752D01*
Y265245D01*
X667752Y266245D01*
X669751D01*
X670751Y265245D01*
Y262246D01*
Y264245D02*
X672750Y266245D01*
X651862Y250190D02*
X657860D01*
Y253189D01*
X656860Y254189D01*
X652862D01*
X651862Y253189D01*
Y250190D01*
X657860Y256188D02*
X653861D01*
X651862Y258187D01*
X653861Y260187D01*
X657860D01*
X654861D01*
Y256188D01*
X651862Y262186D02*
Y266185D01*
Y264186D01*
X657860D01*
X638260Y254312D02*
X637261Y253312D01*
Y251313D01*
X638260Y250313D01*
X642259D01*
X643259Y251313D01*
Y253312D01*
X642259Y254312D01*
X637261Y256311D02*
X643259D01*
Y260310D01*
X637261Y262310D02*
X643259D01*
X641259D01*
X637261Y266308D01*
X640259Y263309D01*
X643259Y266308D01*
X622890Y254189D02*
X621890Y253189D01*
Y251190D01*
X622890Y250190D01*
X626888D01*
X627888Y251190D01*
Y253189D01*
X626888Y254189D01*
X624889D01*
Y252189D01*
X627888Y256188D02*
X621890D01*
X627888Y260187D01*
X621890D01*
Y262186D02*
X627888D01*
Y265185D01*
X626888Y266185D01*
X622890D01*
X621890Y265185D01*
Y262186D01*
X417674Y249936D02*
X421673D01*
X423672Y251935D01*
X421673Y253935D01*
X417674D01*
X418674Y259933D02*
X417674Y258933D01*
Y256934D01*
X418674Y255934D01*
X422672D01*
X423672Y256934D01*
Y258933D01*
X422672Y259933D01*
X418674Y265931D02*
X417674Y264931D01*
Y262932D01*
X418674Y261932D01*
X422672D01*
X423672Y262932D01*
Y264931D01*
X422672Y265931D01*
X14667Y141634D02*
X10668D01*
Y135636D01*
X14667D01*
X10668Y138635D02*
X12667D01*
X16666Y135636D02*
Y139635D01*
X19665D01*
X20665Y138635D01*
Y135636D01*
X25663D02*
X23664D01*
X22664Y136636D01*
Y138635D01*
X23664Y139635D01*
X25663D01*
X26663Y138635D01*
Y137635D01*
X22664D01*
X38659Y135636D02*
X34660D01*
X38659Y139635D01*
Y140634D01*
X37659Y141634D01*
X35660D01*
X34660Y140634D01*
X40658D02*
X41658Y141634D01*
X43657D01*
X44657Y140634D01*
Y136636D01*
X43657Y135636D01*
X41658D01*
X40658Y136636D01*
Y140634D01*
X46656Y135636D02*
X48656D01*
X47656D01*
Y141634D01*
X46656Y140634D01*
X51655D02*
X52654Y141634D01*
X54654D01*
X55653Y140634D01*
Y139635D01*
X54654Y138635D01*
X55653Y137635D01*
Y136636D01*
X54654Y135636D01*
X52654D01*
X51655Y136636D01*
Y137635D01*
X52654Y138635D01*
X51655Y139635D01*
Y140634D01*
X52654Y138635D02*
X54654D01*
X10750Y147000D02*
Y152998D01*
X12749Y150999D01*
X14749Y152998D01*
Y147000D01*
X17748D02*
X19747D01*
X20747Y148000D01*
Y149999D01*
X19747Y150999D01*
X17748D01*
X16748Y149999D01*
Y148000D01*
X17748Y147000D01*
X22746Y150999D02*
Y148000D01*
X23746Y147000D01*
X24746Y148000D01*
X25745Y147000D01*
X26745Y148000D01*
Y150999D01*
X29744D02*
X31743D01*
X32743Y149999D01*
Y147000D01*
X29744D01*
X28744Y148000D01*
X29744Y148999D01*
X32743D01*
X34742Y150999D02*
Y148000D01*
X35742Y147000D01*
X38741D01*
Y146000D01*
X37741Y145001D01*
X36742D01*
X38741Y147000D02*
Y150999D01*
X40740Y146000D02*
X44739D01*
X46738Y152998D02*
Y148999D01*
X48738Y147000D01*
X50737Y148999D01*
Y152998D01*
X52736Y151998D02*
X53736Y152998D01*
X55735D01*
X56735Y151998D01*
Y150999D01*
X55735Y149999D01*
X54736D01*
X55735D01*
X56735Y148999D01*
Y148000D01*
X55735Y147000D01*
X53736D01*
X52736Y148000D01*
X10750Y157500D02*
Y163498D01*
X12749Y161499D01*
X14749Y163498D01*
Y157500D01*
X16748Y163498D02*
X18747D01*
X17748D01*
Y157500D01*
X16748D01*
X18747D01*
X21746D02*
Y163498D01*
X25745Y157500D01*
Y163498D01*
X27745Y156500D02*
X31743D01*
X33742Y157500D02*
Y163498D01*
X35742Y161499D01*
X37741Y163498D01*
Y157500D01*
X42740Y163498D02*
X40740D01*
X39741Y162498D01*
Y158500D01*
X40740Y157500D01*
X42740D01*
X43739Y158500D01*
Y162498D01*
X42740Y163498D01*
X45739D02*
Y157500D01*
X47738Y159499D01*
X49737Y157500D01*
Y163498D01*
X433406Y253681D02*
X432406Y252681D01*
Y250682D01*
X433406Y249682D01*
X437404D01*
X438404Y250682D01*
Y252681D01*
X437404Y253681D01*
X435405D01*
Y251681D01*
X438404Y255680D02*
X432406D01*
X438404Y259679D01*
X432406D01*
Y261678D02*
X438404D01*
Y264677D01*
X437404Y265677D01*
X433406D01*
X432406Y264677D01*
Y261678D01*
X447900Y249682D02*
X453898D01*
Y252681D01*
X452898Y253681D01*
X448900D01*
X447900Y252681D01*
Y249682D01*
X453898Y255680D02*
X449899D01*
X447900Y257679D01*
X449899Y259679D01*
X453898D01*
X450899D01*
Y255680D01*
X447900Y261678D02*
Y265677D01*
Y263678D01*
X453898D01*
X463632Y253681D02*
X462632Y252681D01*
Y250682D01*
X463632Y249682D01*
X467630D01*
X468630Y250682D01*
Y252681D01*
X467630Y253681D01*
X462632Y255680D02*
X468630D01*
Y259679D01*
X462632Y261678D02*
X468630D01*
X466631D01*
X462632Y265677D01*
X465631Y262678D01*
X468630Y265677D01*
X478618Y253681D02*
X477618Y252681D01*
Y250682D01*
X478618Y249682D01*
X482616D01*
X483616Y250682D01*
Y252681D01*
X482616Y253681D01*
X477618Y255680D02*
X483616D01*
Y259679D01*
Y261678D02*
X477618D01*
Y264677D01*
X478618Y265677D01*
X480617D01*
X481617Y264677D01*
Y261678D01*
Y263678D02*
X483616Y265677D01*
X266999Y134498D02*
X263000D01*
Y128500D01*
X266999D01*
X263000Y131499D02*
X264999D01*
X268998Y134498D02*
X272997Y128500D01*
Y134498D02*
X268998Y128500D01*
X274996Y134498D02*
X278995D01*
X276996D01*
Y128500D01*
X280994Y133498D02*
X281994Y134498D01*
X283993D01*
X284993Y133498D01*
Y132499D01*
X283993Y131499D01*
X282994D01*
X283993D01*
X284993Y130499D01*
Y129500D01*
X283993Y128500D01*
X281994D01*
X280994Y129500D01*
X568042Y180340D02*
X569042D01*
X571041Y182339D01*
X569042Y184339D01*
X568042D01*
X571041Y182339D02*
X574040D01*
Y186338D02*
Y188337D01*
Y187338D01*
X568042D01*
X569042Y186338D01*
X574040Y191336D02*
Y193336D01*
Y192336D01*
X568042D01*
X569042Y191336D01*
X324999Y180498D02*
X323999Y181498D01*
X322000D01*
X321000Y180498D01*
Y176500D01*
X322000Y175500D01*
X323999D01*
X324999Y176500D01*
X330997Y181498D02*
X326998D01*
Y178499D01*
X328997Y179499D01*
X329997D01*
X330997Y178499D01*
Y176500D01*
X329997Y175500D01*
X327998D01*
X326998Y176500D01*
X544765Y144190D02*
X543765Y145190D01*
X541766D01*
X540766Y144190D01*
Y140192D01*
X541766Y139192D01*
X543765D01*
X544765Y140192D01*
X550763Y145190D02*
X548763Y144190D01*
X546764Y142191D01*
Y140192D01*
X547764Y139192D01*
X549763D01*
X550763Y140192D01*
Y141191D01*
X549763Y142191D01*
X546764D01*
X559243Y229534D02*
X558243Y230534D01*
X556244D01*
X555244Y229534D01*
Y225536D01*
X556244Y224536D01*
X558243D01*
X559243Y225536D01*
X561242Y230534D02*
X565241D01*
Y229534D01*
X561242Y225536D01*
Y224536D01*
X110433Y231248D02*
X109434Y232248D01*
X107434D01*
X106435Y231248D01*
Y227249D01*
X107434Y226250D01*
X109434D01*
X110433Y227249D01*
X112433Y231248D02*
X113432Y232248D01*
X115432D01*
X116432Y231248D01*
Y230248D01*
X115432Y229249D01*
X116432Y228249D01*
Y227249D01*
X115432Y226250D01*
X113432D01*
X112433Y227249D01*
Y228249D01*
X113432Y229249D01*
X112433Y230248D01*
Y231248D01*
X113432Y229249D02*
X115432D01*
X795610Y336485D02*
X794610Y335485D01*
Y333486D01*
X795610Y332486D01*
X799608D01*
X800608Y333486D01*
Y335485D01*
X799608Y336485D01*
X800608Y338484D02*
Y340483D01*
Y339484D01*
X794610D01*
X795610Y338484D01*
X794610Y347481D02*
Y343482D01*
X797609D01*
X796609Y345482D01*
Y346482D01*
X797609Y347481D01*
X799608D01*
X800608Y346482D01*
Y344482D01*
X799608Y343482D01*
X188686Y283248D02*
X187687Y282249D01*
Y280249D01*
X188686Y279250D01*
X192685D01*
X193685Y280249D01*
Y282249D01*
X192685Y283248D01*
X193685Y285248D02*
Y287247D01*
Y286247D01*
X187687D01*
X188686Y285248D01*
X187687Y294245D02*
X188686Y292246D01*
X190686Y290246D01*
X192685D01*
X193685Y291246D01*
Y293245D01*
X192685Y294245D01*
X191685D01*
X190686Y293245D01*
Y290246D01*
X774381Y369996D02*
X773381Y370996D01*
X771382D01*
X770382Y369996D01*
Y365998D01*
X771382Y364998D01*
X773381D01*
X774381Y365998D01*
X776380Y364998D02*
X778379D01*
X777380D01*
Y370996D01*
X776380Y369996D01*
X781378Y370996D02*
X785377D01*
Y369996D01*
X781378Y365998D01*
Y364998D01*
X795436Y308998D02*
X794437Y307999D01*
Y305999D01*
X795436Y305000D01*
X799435D01*
X800435Y305999D01*
Y307999D01*
X799435Y308998D01*
X800435Y310998D02*
Y312997D01*
Y311997D01*
X794437D01*
X795436Y310998D01*
Y315996D02*
X794437Y316996D01*
Y318995D01*
X795436Y319995D01*
X796436D01*
X797436Y318995D01*
X798435Y319995D01*
X799435D01*
X800435Y318995D01*
Y316996D01*
X799435Y315996D01*
X798435D01*
X797436Y316996D01*
X796436Y315996D01*
X795436D01*
X797436Y316996D02*
Y318995D01*
X216186Y306248D02*
X215187Y305249D01*
Y303249D01*
X216186Y302250D01*
X220185D01*
X221185Y303249D01*
Y305249D01*
X220185Y306248D01*
X221185Y312246D02*
Y308248D01*
X217186Y312246D01*
X216186D01*
X215187Y311247D01*
Y309247D01*
X216186Y308248D01*
Y314246D02*
X215187Y315245D01*
Y317245D01*
X216186Y318244D01*
X220185D01*
X221185Y317245D01*
Y315245D01*
X220185Y314246D01*
X216186D01*
X226936Y304748D02*
X225937Y303749D01*
Y301749D01*
X226936Y300750D01*
X230935D01*
X231935Y301749D01*
Y303749D01*
X230935Y304748D01*
X231935Y310746D02*
Y306748D01*
X227936Y310746D01*
X226936D01*
X225937Y309747D01*
Y307747D01*
X226936Y306748D01*
X231935Y312746D02*
Y314745D01*
Y313745D01*
X225937D01*
X226936Y312746D01*
X99279Y339787D02*
X104329Y336550D01*
X105947Y339075D01*
X105645Y340456D01*
X102279Y342613D01*
X100898Y342311D01*
X99279Y339787D01*
X107566Y341599D02*
X108645Y343283D01*
X108105Y342441D01*
X103055Y345678D01*
X103357Y344297D01*
X95662Y64451D02*
X90613Y61214D01*
X92231Y58689D01*
X93612Y58387D01*
X96979Y60545D01*
X97281Y61926D01*
X95662Y64451D01*
X96007Y52798D02*
X93850Y56164D01*
X99374Y54956D01*
X100216Y55495D01*
X100518Y56876D01*
X99439Y58559D01*
X98058Y58861D01*
X822935Y238998D02*
Y233000D01*
X825934D01*
X826933Y233999D01*
Y237998D01*
X825934Y238998D01*
X822935D01*
X828933Y237998D02*
X829932Y238998D01*
X831932D01*
X832932Y237998D01*
Y236998D01*
X831932Y235999D01*
X830932D01*
X831932D01*
X832932Y234999D01*
Y233999D01*
X831932Y233000D01*
X829932D01*
X828933Y233999D01*
X228435Y214998D02*
Y209000D01*
X231434D01*
X232433Y209999D01*
Y213998D01*
X231434Y214998D01*
X228435D01*
X237432Y209000D02*
Y214998D01*
X234433Y211999D01*
X238431D01*
X227685Y171498D02*
Y165500D01*
X230684D01*
X231683Y166499D01*
Y170498D01*
X230684Y171498D01*
X227685D01*
X237682D02*
X233683D01*
Y168499D01*
X235682Y169498D01*
X236682D01*
X237682Y168499D01*
Y166499D01*
X236682Y165500D01*
X234682D01*
X233683Y166499D01*
X16953Y224692D02*
Y218694D01*
X19952D01*
X20951Y219693D01*
Y223692D01*
X19952Y224692D01*
X16953D01*
X26950D02*
X24950Y223692D01*
X22951Y221693D01*
Y219693D01*
X23950Y218694D01*
X25950D01*
X26950Y219693D01*
Y220693D01*
X25950Y221693D01*
X22951D01*
X822400Y75366D02*
Y69368D01*
X825399D01*
X826399Y70368D01*
Y74366D01*
X825399Y75366D01*
X822400D01*
X828399D02*
X832397D01*
Y74366D01*
X828399Y70368D01*
Y69368D01*
X819593Y317910D02*
Y311912D01*
X822592D01*
X823591Y312911D01*
Y316910D01*
X822592Y317910D01*
X819593D01*
X825591Y316910D02*
X826590Y317910D01*
X828590D01*
X829589Y316910D01*
Y315910D01*
X828590Y314911D01*
X829589Y313911D01*
Y312911D01*
X828590Y311912D01*
X826590D01*
X825591Y312911D01*
Y313911D01*
X826590Y314911D01*
X825591Y315910D01*
Y316910D01*
X826590Y314911D02*
X828590D01*
X258055Y193316D02*
X256056D01*
X257055D01*
Y188317D01*
X256056Y187318D01*
X255056D01*
X254056Y188317D01*
X260054Y187318D02*
X262054D01*
X261054D01*
Y193316D01*
X260054Y192316D01*
X98233Y164494D02*
X96233D01*
X97233D01*
Y159496D01*
X96233Y158496D01*
X95234D01*
X94234Y159496D01*
X100232Y163494D02*
X101232Y164494D01*
X103231D01*
X104231Y163494D01*
Y162495D01*
X103231Y161495D01*
X102231D01*
X103231D01*
X104231Y160495D01*
Y159496D01*
X103231Y158496D01*
X101232D01*
X100232Y159496D01*
X390587Y301146D02*
X388587D01*
X389587D01*
Y296148D01*
X388587Y295148D01*
X387588D01*
X386588Y296148D01*
X395585Y295148D02*
Y301146D01*
X392586Y298147D01*
X396585D01*
X252685Y312250D02*
Y318248D01*
X254684Y316248D01*
X256683Y318248D01*
Y312250D01*
X258683Y318248D02*
Y312250D01*
Y314249D01*
X262682Y318248D01*
X259682Y315249D01*
X262682Y312250D01*
X264681D02*
X266680D01*
X265681D01*
Y318248D01*
X264681Y317248D01*
X772603Y33004D02*
Y37002D01*
X771603Y38002D01*
X769604D01*
X768604Y37002D01*
Y33004D01*
X769604Y32004D01*
X771603D01*
X770603Y34003D02*
X772603Y32004D01*
X771603D02*
X772603Y33004D01*
X774602Y37002D02*
X775602Y38002D01*
X777601D01*
X778601Y37002D01*
Y36003D01*
X777601Y35003D01*
X776601D01*
X777601D01*
X778601Y34003D01*
Y33004D01*
X777601Y32004D01*
X775602D01*
X774602Y33004D01*
X322435Y211500D02*
Y217498D01*
X325434D01*
X326433Y216498D01*
Y214499D01*
X325434Y213499D01*
X322435D01*
X324434D02*
X326433Y211500D01*
X332431D02*
X328433D01*
X332431Y215498D01*
Y216498D01*
X331432Y217498D01*
X329432D01*
X328433Y216498D01*
X111185Y191000D02*
Y196998D01*
X114184D01*
X115183Y195998D01*
Y193999D01*
X114184Y192999D01*
X111185D01*
X113184D02*
X115183Y191000D01*
X121181Y196998D02*
X117183D01*
Y193999D01*
X119182Y194998D01*
X120182D01*
X121181Y193999D01*
Y191999D01*
X120182Y191000D01*
X118182D01*
X117183Y191999D01*
X77435Y208750D02*
Y214748D01*
X80434D01*
X81433Y213748D01*
Y211749D01*
X80434Y210749D01*
X77435D01*
X79434D02*
X81433Y208750D01*
X83433Y214748D02*
X87431D01*
Y213748D01*
X83433Y209749D01*
Y208750D01*
X311352Y243308D02*
Y249306D01*
X314351D01*
X315351Y248306D01*
Y246307D01*
X314351Y245307D01*
X311352D01*
X313351D02*
X315351Y243308D01*
X317350Y244308D02*
X318350Y243308D01*
X320349D01*
X321349Y244308D01*
Y248306D01*
X320349Y249306D01*
X318350D01*
X317350Y248306D01*
Y247307D01*
X318350Y246307D01*
X321349D01*
X312500Y133250D02*
Y139248D01*
X315499D01*
X316499Y138248D01*
Y136249D01*
X315499Y135249D01*
X312500D01*
X314499D02*
X316499Y133250D01*
X318498D02*
X320497D01*
X319498D01*
Y139248D01*
X318498Y138248D01*
X323496D02*
X324496Y139248D01*
X326496D01*
X327495Y138248D01*
Y137249D01*
X326496Y136249D01*
X325496D01*
X326496D01*
X327495Y135249D01*
Y134250D01*
X326496Y133250D01*
X324496D01*
X323496Y134250D01*
X49750Y189750D02*
Y195748D01*
X52749D01*
X53749Y194748D01*
Y192749D01*
X52749Y191749D01*
X49750D01*
X51749D02*
X53749Y189750D01*
X55748D02*
X57747D01*
X56748D01*
Y195748D01*
X55748Y194748D01*
X63745Y189750D02*
Y195748D01*
X60746Y192749D01*
X64745D01*
X793939Y41656D02*
X787941D01*
Y44655D01*
X788940Y45654D01*
X790940D01*
X791939Y44655D01*
Y41656D01*
Y43655D02*
X793939Y45654D01*
Y47654D02*
Y49653D01*
Y48653D01*
X787941D01*
X788940Y47654D01*
X787941Y56651D02*
Y52652D01*
X790940D01*
X789940Y54651D01*
Y55651D01*
X790940Y56651D01*
X792939D01*
X793939Y55651D01*
Y53652D01*
X792939Y52652D01*
X752935Y56500D02*
Y62498D01*
X755934D01*
X756933Y61498D01*
Y59499D01*
X755934Y58499D01*
X752935D01*
X754934D02*
X756933Y56500D01*
X762932D02*
X758933D01*
X762932Y60498D01*
Y61498D01*
X761932Y62498D01*
X759932D01*
X758933Y61498D01*
X764931D02*
X765930Y62498D01*
X767930D01*
X768930Y61498D01*
Y57499D01*
X767930Y56500D01*
X765930D01*
X764931Y57499D01*
Y61498D01*
X730486Y56978D02*
Y62976D01*
X733485D01*
X734485Y61976D01*
Y59977D01*
X733485Y58977D01*
X730486D01*
X732486D02*
X734485Y56978D01*
X740483D02*
X736484D01*
X740483Y60976D01*
Y61976D01*
X739483Y62976D01*
X737484D01*
X736484Y61976D01*
X742482Y56978D02*
X744482D01*
X743482D01*
Y62976D01*
X742482Y61976D01*
X527304Y262636D02*
X521306D01*
Y265635D01*
X522306Y266635D01*
X524305D01*
X525305Y265635D01*
Y262636D01*
Y264635D02*
X527304Y266635D01*
Y272633D02*
Y268634D01*
X523305Y272633D01*
X522306D01*
X521306Y271633D01*
Y269634D01*
X522306Y268634D01*
X527304Y278631D02*
Y274632D01*
X523305Y278631D01*
X522306D01*
X521306Y277631D01*
Y275632D01*
X522306Y274632D01*
X516128Y262890D02*
X510130D01*
Y265889D01*
X511130Y266889D01*
X513129D01*
X514129Y265889D01*
Y262890D01*
Y264889D02*
X516128Y266889D01*
Y272887D02*
Y268888D01*
X512129Y272887D01*
X511130D01*
X510130Y271887D01*
Y269888D01*
X511130Y268888D01*
Y274886D02*
X510130Y275886D01*
Y277885D01*
X511130Y278885D01*
X512129D01*
X513129Y277885D01*
Y276886D01*
Y277885D01*
X514129Y278885D01*
X515128D01*
X516128Y277885D01*
Y275886D01*
X515128Y274886D01*
X192685Y332000D02*
Y337998D01*
X195684D01*
X196683Y336998D01*
Y334999D01*
X195684Y333999D01*
X192685D01*
X194684D02*
X196683Y332000D01*
X198683Y336998D02*
X199683Y337998D01*
X201682D01*
X202682Y336998D01*
Y335998D01*
X201682Y334999D01*
X200682D01*
X201682D01*
X202682Y333999D01*
Y332999D01*
X201682Y332000D01*
X199683D01*
X198683Y332999D01*
X204681D02*
X205681Y332000D01*
X207680D01*
X208680Y332999D01*
Y336998D01*
X207680Y337998D01*
X205681D01*
X204681Y336998D01*
Y335998D01*
X205681Y334999D01*
X208680D01*
X183323Y346202D02*
X177325D01*
Y349201D01*
X178324Y350200D01*
X180324D01*
X181323Y349201D01*
Y346202D01*
Y348201D02*
X183323Y350200D01*
Y355199D02*
X177325D01*
X180324Y352200D01*
Y356198D01*
X183323Y358198D02*
Y360197D01*
Y359198D01*
X177325D01*
X178324Y358198D01*
X762254Y360426D02*
X756256D01*
Y363425D01*
X757256Y364425D01*
X759255D01*
X760255Y363425D01*
Y360426D01*
Y362425D02*
X762254Y364425D01*
Y369423D02*
X756256D01*
X759255Y366424D01*
Y370423D01*
X762254Y376421D02*
Y372422D01*
X758255Y376421D01*
X757256D01*
X756256Y375421D01*
Y373422D01*
X757256Y372422D01*
X727500Y354250D02*
X721502D01*
Y357249D01*
X722502Y358249D01*
X724501D01*
X725501Y357249D01*
Y354250D01*
Y356249D02*
X727500Y358249D01*
Y363247D02*
X721502D01*
X724501Y360248D01*
Y364247D01*
X722502Y366246D02*
X721502Y367246D01*
Y369245D01*
X722502Y370245D01*
X723501D01*
X724501Y369245D01*
Y368246D01*
Y369245D01*
X725501Y370245D01*
X726500D01*
X727500Y369245D01*
Y367246D01*
X726500Y366246D01*
X218375Y264922D02*
X212377D01*
Y267921D01*
X213376Y268920D01*
X215376D01*
X216375Y267921D01*
Y264922D01*
Y266921D02*
X218375Y268920D01*
Y273919D02*
X212377D01*
X215376Y270920D01*
Y274918D01*
X212377Y280917D02*
Y276918D01*
X215376D01*
X214376Y278917D01*
Y279917D01*
X215376Y280917D01*
X217375D01*
X218375Y279917D01*
Y277917D01*
X217375Y276918D01*
X201865Y345694D02*
X195867D01*
Y348693D01*
X196866Y349692D01*
X198866D01*
X199865Y348693D01*
Y345694D01*
Y347693D02*
X201865Y349692D01*
Y354691D02*
X195867D01*
X198866Y351692D01*
Y355690D01*
X195867Y361688D02*
X196866Y359689D01*
X198866Y357690D01*
X200865D01*
X201865Y358689D01*
Y360689D01*
X200865Y361688D01*
X199865D01*
X198866Y360689D01*
Y357690D01*
X171958Y269904D02*
Y264906D01*
X172958Y263906D01*
X174957D01*
X175957Y264906D01*
Y269904D01*
X181955D02*
X179955Y268904D01*
X177956Y266905D01*
Y264906D01*
X178956Y263906D01*
X180955D01*
X181955Y264906D01*
Y265905D01*
X180955Y266905D01*
X177956D01*
X731937Y315750D02*
X736935D01*
X737935Y316749D01*
Y318749D01*
X736935Y319748D01*
X731937D01*
Y321748D02*
Y325746D01*
X732936D01*
X736935Y321748D01*
X737935D01*
X405577Y234830D02*
X409576D01*
X407577D01*
Y228832D01*
X411575D02*
Y234830D01*
X414574D01*
X415574Y233830D01*
Y231831D01*
X414574Y230831D01*
X411575D01*
X417573Y234830D02*
X421572D01*
Y233830D01*
X417573Y229832D01*
Y228832D01*
X130800Y250298D02*
X134799D01*
X132800D01*
Y244300D01*
X136798D02*
Y250298D01*
X139797D01*
X140797Y249298D01*
Y247299D01*
X139797Y246299D01*
X136798D01*
X145796Y244300D02*
Y250298D01*
X142797Y247299D01*
X146795D01*
X405577Y181236D02*
X409576D01*
X407577D01*
Y175238D01*
X411575D02*
Y181236D01*
X414574D01*
X415574Y180236D01*
Y178237D01*
X414574Y177237D01*
X411575D01*
X421572Y181236D02*
X419573Y180236D01*
X417573Y178237D01*
Y176238D01*
X418573Y175238D01*
X420572D01*
X421572Y176238D01*
Y177237D01*
X420572Y178237D01*
X417573D01*
X128016Y301400D02*
Y296402D01*
X129016Y295402D01*
X131015D01*
X132015Y296402D01*
Y301400D01*
X134014Y295402D02*
X136013D01*
X135014D01*
Y301400D01*
X134014Y300400D01*
X139012Y301400D02*
X143011D01*
Y300400D01*
X139012Y296402D01*
Y295402D01*
X450440Y222250D02*
X455438D01*
X456438Y223250D01*
Y225249D01*
X455438Y226249D01*
X450440D01*
X456438Y228248D02*
Y230247D01*
Y229248D01*
X450440D01*
X451440Y228248D01*
X456438Y233246D02*
Y235246D01*
Y234246D01*
X450440D01*
X451440Y233246D01*
X374687Y319500D02*
X379685D01*
X380685Y320499D01*
Y322499D01*
X379685Y323498D01*
X374687D01*
X380685Y325498D02*
Y327497D01*
Y326497D01*
X374687D01*
X375686Y325498D01*
X379685Y330496D02*
X380685Y331496D01*
Y333495D01*
X379685Y334495D01*
X375686D01*
X374687Y333495D01*
Y331496D01*
X375686Y330496D01*
X376686D01*
X377686Y331496D01*
Y334495D01*
X249018Y16002D02*
X254016D01*
X255016Y17002D01*
Y19001D01*
X254016Y20001D01*
X249018D01*
X255016Y22000D02*
Y23999D01*
Y23000D01*
X249018D01*
X250018Y22000D01*
X249018Y30997D02*
X250018Y28998D01*
X252017Y26998D01*
X254016D01*
X255016Y27998D01*
Y29997D01*
X254016Y30997D01*
X253017D01*
X252017Y29997D01*
Y26998D01*
X109253Y73660D02*
X114251D01*
X115251Y74659D01*
Y76659D01*
X114251Y77658D01*
X109253D01*
X115251Y79658D02*
Y81657D01*
Y80657D01*
X109253D01*
X110252Y79658D01*
X109253Y88655D02*
Y84656D01*
X112252D01*
X111252Y86656D01*
Y87655D01*
X112252Y88655D01*
X114251D01*
X115251Y87655D01*
Y85656D01*
X114251Y84656D01*
X447252Y296500D02*
X451834D01*
X452750Y297416D01*
Y299249D01*
X451834Y300166D01*
X447252D01*
X452750Y301998D02*
Y303831D01*
Y302915D01*
X447252D01*
X448168Y301998D01*
X452750Y310245D02*
Y306580D01*
X449085Y310245D01*
X448168D01*
X447252Y309329D01*
Y307496D01*
X448168Y306580D01*
X485448Y72520D02*
Y67522D01*
X486448Y66522D01*
X488447D01*
X489447Y67522D01*
Y72520D01*
X491446Y66522D02*
X493446D01*
X492446D01*
Y72520D01*
X491446Y71520D01*
X496445D02*
X497444Y72520D01*
X499444D01*
X500444Y71520D01*
Y67522D01*
X499444Y66522D01*
X497444D01*
X496445Y67522D01*
Y71520D01*
X368250Y359500D02*
Y365498D01*
X371249D01*
X372249Y364498D01*
Y362499D01*
X371249Y361499D01*
X368250D01*
X370249D02*
X372249Y359500D01*
X374248Y364498D02*
X375248Y365498D01*
X377247D01*
X378247Y364498D01*
Y363499D01*
X377247Y362499D01*
X378247Y361499D01*
Y360500D01*
X377247Y359500D01*
X375248D01*
X374248Y360500D01*
Y361499D01*
X375248Y362499D01*
X374248Y363499D01*
Y364498D01*
X375248Y362499D02*
X377247D01*
X384245Y365498D02*
X382245Y364498D01*
X380246Y362499D01*
Y360500D01*
X381246Y359500D01*
X383245D01*
X384245Y360500D01*
Y361499D01*
X383245Y362499D01*
X380246D01*
X400935Y314500D02*
X394937D01*
Y317499D01*
X395936Y318498D01*
X397936D01*
X398935Y317499D01*
Y314500D01*
Y316499D02*
X400935Y318498D01*
X395936Y320498D02*
X394937Y321497D01*
Y323497D01*
X395936Y324496D01*
X396936D01*
X397936Y323497D01*
X398935Y324496D01*
X399935D01*
X400935Y323497D01*
Y321497D01*
X399935Y320498D01*
X398935D01*
X397936Y321497D01*
X396936Y320498D01*
X395936D01*
X397936Y321497D02*
Y323497D01*
X394937Y330494D02*
Y326496D01*
X397936D01*
X396936Y328495D01*
Y329495D01*
X397936Y330494D01*
X399935D01*
X400935Y329495D01*
Y327495D01*
X399935Y326496D01*
X732028Y125222D02*
X726030D01*
Y128221D01*
X727030Y129221D01*
X729029D01*
X730029Y128221D01*
Y125222D01*
Y127221D02*
X732028Y129221D01*
X727030Y131220D02*
X726030Y132220D01*
Y134219D01*
X727030Y135219D01*
X728029D01*
X729029Y134219D01*
X730029Y135219D01*
X731028D01*
X732028Y134219D01*
Y132220D01*
X731028Y131220D01*
X730029D01*
X729029Y132220D01*
X728029Y131220D01*
X727030D01*
X729029Y132220D02*
Y134219D01*
X732028Y140217D02*
X726030D01*
X729029Y137218D01*
Y141217D01*
X331405Y289814D02*
Y295812D01*
X334404D01*
X335403Y294812D01*
Y292813D01*
X334404Y291813D01*
X331405D01*
X333404D02*
X335403Y289814D01*
X337403Y294812D02*
X338402Y295812D01*
X340402D01*
X341401Y294812D01*
Y293812D01*
X340402Y292813D01*
X341401Y291813D01*
Y290813D01*
X340402Y289814D01*
X338402D01*
X337403Y290813D01*
Y291813D01*
X338402Y292813D01*
X337403Y293812D01*
Y294812D01*
X338402Y292813D02*
X340402D01*
X343401Y294812D02*
X344400Y295812D01*
X346400D01*
X347399Y294812D01*
Y293812D01*
X346400Y292813D01*
X345400D01*
X346400D01*
X347399Y291813D01*
Y290813D01*
X346400Y289814D01*
X344400D01*
X343401Y290813D01*
X732028Y148590D02*
X726030D01*
Y151589D01*
X727030Y152589D01*
X729029D01*
X730029Y151589D01*
Y148590D01*
Y150589D02*
X732028Y152589D01*
X727030Y154588D02*
X726030Y155588D01*
Y157587D01*
X727030Y158587D01*
X728029D01*
X729029Y157587D01*
X730029Y158587D01*
X731028D01*
X732028Y157587D01*
Y155588D01*
X731028Y154588D01*
X730029D01*
X729029Y155588D01*
X728029Y154588D01*
X727030D01*
X729029Y155588D02*
Y157587D01*
X732028Y164585D02*
Y160586D01*
X728029Y164585D01*
X727030D01*
X726030Y163585D01*
Y161586D01*
X727030Y160586D01*
X329760Y344800D02*
Y350798D01*
X332760D01*
X333759Y349798D01*
Y347799D01*
X332760Y346799D01*
X329760D01*
X331760D02*
X333759Y344800D01*
X335759Y349798D02*
X336758Y350798D01*
X338758D01*
X339757Y349798D01*
Y348799D01*
X338758Y347799D01*
X339757Y346799D01*
Y345800D01*
X338758Y344800D01*
X336758D01*
X335759Y345800D01*
Y346799D01*
X336758Y347799D01*
X335759Y348799D01*
Y349798D01*
X336758Y347799D02*
X338758D01*
X341757Y344800D02*
X343756D01*
X342756D01*
Y350798D01*
X341757Y349798D01*
X220661Y345694D02*
X214663D01*
Y348693D01*
X215662Y349692D01*
X217662D01*
X218661Y348693D01*
Y345694D01*
Y347693D02*
X220661Y349692D01*
X215662Y351692D02*
X214663Y352691D01*
Y354691D01*
X215662Y355690D01*
X216662D01*
X217662Y354691D01*
X218661Y355690D01*
X219661D01*
X220661Y354691D01*
Y352691D01*
X219661Y351692D01*
X218661D01*
X217662Y352691D01*
X216662Y351692D01*
X215662D01*
X217662Y352691D02*
Y354691D01*
X215662Y357690D02*
X214663Y358689D01*
Y360689D01*
X215662Y361688D01*
X219661D01*
X220661Y360689D01*
Y358689D01*
X219661Y357690D01*
X215662D01*
X676656Y126746D02*
Y132744D01*
X679655D01*
X680655Y131744D01*
Y129745D01*
X679655Y128745D01*
X676656D01*
X678655D02*
X680655Y126746D01*
X682654Y132744D02*
X686653D01*
Y131744D01*
X682654Y127746D01*
Y126746D01*
X688652Y127746D02*
X689652Y126746D01*
X691651D01*
X692651Y127746D01*
Y131744D01*
X691651Y132744D01*
X689652D01*
X688652Y131744D01*
Y130745D01*
X689652Y129745D01*
X692651D01*
X281185Y362500D02*
Y368498D01*
X284184D01*
X285183Y367498D01*
Y365499D01*
X284184Y364499D01*
X281185D01*
X283184D02*
X285183Y362500D01*
X287183Y368498D02*
X291182D01*
Y367498D01*
X287183Y363499D01*
Y362500D01*
X293181Y367498D02*
X294181Y368498D01*
X296180D01*
X297180Y367498D01*
Y366498D01*
X296180Y365499D01*
X297180Y364499D01*
Y363499D01*
X296180Y362500D01*
X294181D01*
X293181Y363499D01*
Y364499D01*
X294181Y365499D01*
X293181Y366498D01*
Y367498D01*
X294181Y365499D02*
X296180D01*
X325685Y295000D02*
X319687D01*
Y297999D01*
X320686Y298998D01*
X322686D01*
X323685Y297999D01*
Y295000D01*
Y296999D02*
X325685Y298998D01*
X319687Y300998D02*
Y304996D01*
X320686D01*
X324685Y300998D01*
X325685D01*
X319687Y306996D02*
Y310994D01*
X320686D01*
X324685Y306996D01*
X325685D01*
X77948Y274272D02*
X71950D01*
Y277271D01*
X72950Y278271D01*
X74949D01*
X75949Y277271D01*
Y274272D01*
Y276271D02*
X77948Y278271D01*
X71950Y280270D02*
Y284269D01*
X72950D01*
X76949Y280270D01*
X77948D01*
X71950Y290267D02*
X72950Y288267D01*
X74949Y286268D01*
X76949D01*
X77948Y287268D01*
Y289267D01*
X76949Y290267D01*
X75949D01*
X74949Y289267D01*
Y286268D01*
X168935Y325250D02*
X162937D01*
Y328249D01*
X163936Y329248D01*
X165936D01*
X166935Y328249D01*
Y325250D01*
Y327249D02*
X168935Y329248D01*
X162937Y331248D02*
Y335246D01*
X163936D01*
X167935Y331248D01*
X168935D01*
Y340245D02*
X162937D01*
X165936Y337246D01*
Y341245D01*
X184185Y44250D02*
Y50248D01*
X187184D01*
X188183Y49248D01*
Y47249D01*
X187184Y46249D01*
X184185D01*
X186184D02*
X188183Y44250D01*
X190183Y50248D02*
X194181D01*
Y49248D01*
X190183Y45249D01*
Y44250D01*
X196181D02*
X198180D01*
X197181D01*
Y50248D01*
X196181Y49248D01*
X158935Y63250D02*
Y69248D01*
X161934D01*
X162933Y68248D01*
Y66249D01*
X161934Y65249D01*
X158935D01*
X160934D02*
X162933Y63250D01*
X164933Y69248D02*
X168932D01*
Y68248D01*
X164933Y64249D01*
Y63250D01*
X170931Y68248D02*
X171931Y69248D01*
X173930D01*
X174930Y68248D01*
Y64249D01*
X173930Y63250D01*
X171931D01*
X170931Y64249D01*
Y68248D01*
X227435Y72750D02*
Y78748D01*
X230434D01*
X231433Y77748D01*
Y75749D01*
X230434Y74749D01*
X227435D01*
X229434D02*
X231433Y72750D01*
X237432Y78748D02*
X235432Y77748D01*
X233433Y75749D01*
Y73749D01*
X234432Y72750D01*
X236432D01*
X237432Y73749D01*
Y74749D01*
X236432Y75749D01*
X233433D01*
X239431Y78748D02*
X243430D01*
Y77748D01*
X239431Y73749D01*
Y72750D01*
X236935Y43750D02*
Y49748D01*
X239934D01*
X240933Y48748D01*
Y46749D01*
X239934Y45749D01*
X236935D01*
X238934D02*
X240933Y43750D01*
X246931Y49748D02*
X244932Y48748D01*
X242933Y46749D01*
Y44749D01*
X243932Y43750D01*
X245932D01*
X246931Y44749D01*
Y45749D01*
X245932Y46749D01*
X242933D01*
X252929Y49748D02*
X250930Y48748D01*
X248931Y46749D01*
Y44749D01*
X249930Y43750D01*
X251930D01*
X252929Y44749D01*
Y45749D01*
X251930Y46749D01*
X248931D01*
X303685Y95000D02*
X297687D01*
Y97999D01*
X298686Y98998D01*
X300686D01*
X301685Y97999D01*
Y95000D01*
Y96999D02*
X303685Y98998D01*
X297687Y104996D02*
X298686Y102997D01*
X300686Y100998D01*
X302685D01*
X303685Y101997D01*
Y103997D01*
X302685Y104996D01*
X301685D01*
X300686Y103997D01*
Y100998D01*
X303685Y109995D02*
X297687D01*
X300686Y106996D01*
Y110995D01*
X140970Y14478D02*
X134972D01*
Y17477D01*
X135972Y18477D01*
X137971D01*
X138971Y17477D01*
Y14478D01*
Y16477D02*
X140970Y18477D01*
X134972Y24475D02*
X135972Y22475D01*
X137971Y20476D01*
X139970D01*
X140970Y21476D01*
Y23475D01*
X139970Y24475D01*
X138971D01*
X137971Y23475D01*
Y20476D01*
X135972Y26474D02*
X134972Y27474D01*
Y29473D01*
X135972Y30473D01*
X136971D01*
X137971Y29473D01*
Y28473D01*
Y29473D01*
X138971Y30473D01*
X139970D01*
X140970Y29473D01*
Y27474D01*
X139970Y26474D01*
X273874Y106998D02*
Y112996D01*
X276873D01*
X277873Y111996D01*
Y109997D01*
X276873Y108997D01*
X273874D01*
X275874D02*
X277873Y106998D01*
X283871Y112996D02*
X281872Y111996D01*
X279872Y109997D01*
Y107998D01*
X280872Y106998D01*
X282871D01*
X283871Y107998D01*
Y108997D01*
X282871Y109997D01*
X279872D01*
X285870Y106998D02*
X287870D01*
X286870D01*
Y112996D01*
X285870Y111996D01*
X326185Y31500D02*
Y37498D01*
X329184D01*
X330183Y36498D01*
Y34499D01*
X329184Y33499D01*
X326185D01*
X328184D02*
X330183Y31500D01*
X336181Y37498D02*
X334182Y36498D01*
X332183Y34499D01*
Y32499D01*
X333182Y31500D01*
X335182D01*
X336181Y32499D01*
Y33499D01*
X335182Y34499D01*
X332183D01*
X338181Y36498D02*
X339180Y37498D01*
X341180D01*
X342179Y36498D01*
Y32499D01*
X341180Y31500D01*
X339180D01*
X338181Y32499D01*
Y36498D01*
X124141Y121666D02*
Y127664D01*
X127140D01*
X128139Y126664D01*
Y124665D01*
X127140Y123665D01*
X124141D01*
X126140D02*
X128139Y121666D01*
X134137Y127664D02*
X130139D01*
Y124665D01*
X132138Y125664D01*
X133138D01*
X134137Y124665D01*
Y122665D01*
X133138Y121666D01*
X131138D01*
X130139Y122665D01*
X136137D02*
X137136Y121666D01*
X139136D01*
X140135Y122665D01*
Y126664D01*
X139136Y127664D01*
X137136D01*
X136137Y126664D01*
Y125664D01*
X137136Y124665D01*
X140135D01*
X115062Y37846D02*
X109064D01*
Y40845D01*
X110064Y41845D01*
X112063D01*
X113063Y40845D01*
Y37846D01*
Y39845D02*
X115062Y41845D01*
X109064Y47843D02*
Y43844D01*
X112063D01*
X111063Y45843D01*
Y46843D01*
X112063Y47843D01*
X114062D01*
X115062Y46843D01*
Y44844D01*
X114062Y43844D01*
X110064Y49842D02*
X109064Y50842D01*
Y52841D01*
X110064Y53841D01*
X111063D01*
X112063Y52841D01*
X113063Y53841D01*
X114062D01*
X115062Y52841D01*
Y50842D01*
X114062Y49842D01*
X113063D01*
X112063Y50842D01*
X111063Y49842D01*
X110064D01*
X112063Y50842D02*
Y52841D01*
X319935Y102750D02*
X313937D01*
Y105749D01*
X314936Y106748D01*
X316936D01*
X317935Y105749D01*
Y102750D01*
Y104749D02*
X319935Y106748D01*
X313937Y112746D02*
Y108748D01*
X316936D01*
X315936Y110747D01*
Y111747D01*
X316936Y112746D01*
X318935D01*
X319935Y111747D01*
Y109747D01*
X318935Y108748D01*
X313937Y118744D02*
Y114746D01*
X316936D01*
X315936Y116745D01*
Y117745D01*
X316936Y118744D01*
X318935D01*
X319935Y117745D01*
Y115745D01*
X318935Y114746D01*
X459486Y292862D02*
Y298860D01*
X462485D01*
X463485Y297860D01*
Y295861D01*
X462485Y294861D01*
X459486D01*
X461485D02*
X463485Y292862D01*
X469483Y298860D02*
X465484D01*
Y295861D01*
X467483Y296861D01*
X468483D01*
X469483Y295861D01*
Y293862D01*
X468483Y292862D01*
X466484D01*
X465484Y293862D01*
X475481Y292862D02*
X471482D01*
X475481Y296861D01*
Y297860D01*
X474481Y298860D01*
X472482D01*
X471482Y297860D01*
X537185Y119500D02*
Y125498D01*
X540184D01*
X541183Y124498D01*
Y122499D01*
X540184Y121499D01*
X537185D01*
X539184D02*
X541183Y119500D01*
X547182Y125498D02*
X543183D01*
Y122499D01*
X545182Y123498D01*
X546182D01*
X547182Y122499D01*
Y120499D01*
X546182Y119500D01*
X544183D01*
X543183Y120499D01*
X549181Y119500D02*
X551180D01*
X550181D01*
Y125498D01*
X549181Y124498D01*
X441819Y102949D02*
X435821D01*
Y105948D01*
X436821Y106948D01*
X438820D01*
X439820Y105948D01*
Y102949D01*
Y104949D02*
X441819Y106948D01*
X435821Y112946D02*
Y108947D01*
X438820D01*
X437820Y110947D01*
Y111946D01*
X438820Y112946D01*
X440819D01*
X441819Y111946D01*
Y109947D01*
X440819Y108947D01*
X436821Y114945D02*
X435821Y115945D01*
Y117944D01*
X436821Y118944D01*
X440819D01*
X441819Y117944D01*
Y115945D01*
X440819Y114945D01*
X436821D01*
X537435Y109000D02*
Y114998D01*
X540434D01*
X541433Y113998D01*
Y111999D01*
X540434Y110999D01*
X537435D01*
X539434D02*
X541433Y109000D01*
X546432D02*
Y114998D01*
X543433Y111999D01*
X547431D01*
X549431Y109999D02*
X550430Y109000D01*
X552430D01*
X553429Y109999D01*
Y113998D01*
X552430Y114998D01*
X550430D01*
X549431Y113998D01*
Y112998D01*
X550430Y111999D01*
X553429D01*
X460069Y97449D02*
Y103448D01*
X463068D01*
X464068Y102448D01*
Y100448D01*
X463068Y99449D01*
X460069D01*
X462068D02*
X464068Y97449D01*
X469066D02*
Y103448D01*
X466067Y100448D01*
X470066D01*
X472065Y102448D02*
X473065Y103448D01*
X475064D01*
X476064Y102448D01*
Y101448D01*
X475064Y100448D01*
X476064Y99449D01*
Y98449D01*
X475064Y97449D01*
X473065D01*
X472065Y98449D01*
Y99449D01*
X473065Y100448D01*
X472065Y101448D01*
Y102448D01*
X473065Y100448D02*
X475064D01*
X478761Y76502D02*
Y82500D01*
X481760D01*
X482759Y81500D01*
Y79501D01*
X481760Y78501D01*
X478761D01*
X480760D02*
X482759Y76502D01*
X487758D02*
Y82500D01*
X484759Y79501D01*
X488758D01*
X490757Y82500D02*
X494756D01*
Y81500D01*
X490757Y77501D01*
Y76502D01*
X304923Y346439D02*
Y350438D01*
X303924Y351438D01*
X301924D01*
X300925Y350438D01*
Y346439D01*
X301924Y345440D01*
X303924D01*
X302924Y347439D02*
X304923Y345440D01*
X303924D02*
X304923Y346439D01*
X306923Y345440D02*
X308922D01*
X307922D01*
Y351438D01*
X306923Y350438D01*
X314920Y345440D02*
Y351438D01*
X311921Y348439D01*
X315920D01*
X181987Y108949D02*
Y112948D01*
X180988Y113948D01*
X178988D01*
X177989Y112948D01*
Y108949D01*
X178988Y107950D01*
X180988D01*
X179988Y109949D02*
X181987Y107950D01*
X180988D02*
X181987Y108949D01*
X183987Y107950D02*
X185986D01*
X184986D01*
Y113948D01*
X183987Y112948D01*
X188985D02*
X189985Y113948D01*
X191984D01*
X192984Y112948D01*
Y111948D01*
X191984Y110949D01*
X190984D01*
X191984D01*
X192984Y109949D01*
Y108949D01*
X191984Y107950D01*
X189985D01*
X188985Y108949D01*
X146084Y38916D02*
X142418D01*
X141502Y37999D01*
Y36166D01*
X142418Y35250D01*
X146084D01*
X147000Y36166D01*
Y37999D01*
X145167Y37083D02*
X147000Y38916D01*
Y37999D02*
X146084Y38916D01*
X147000Y40748D02*
Y42581D01*
Y41665D01*
X141502D01*
X142418Y40748D01*
X147000Y45330D02*
Y47163D01*
Y46246D01*
X141502D01*
X142418Y45330D01*
X327683Y76749D02*
Y80748D01*
X326684Y81748D01*
X324684D01*
X323685Y80748D01*
Y76749D01*
X324684Y75750D01*
X326684D01*
X325684Y77749D02*
X327683Y75750D01*
X326684D02*
X327683Y76749D01*
X329683Y81748D02*
X333681D01*
Y80748D01*
X329683Y76749D01*
Y75750D01*
X262183Y96249D02*
Y100248D01*
X261184Y101248D01*
X259184D01*
X258185Y100248D01*
Y96249D01*
X259184Y95250D01*
X261184D01*
X260184Y97249D02*
X262183Y95250D01*
X261184D02*
X262183Y96249D01*
X268181Y101248D02*
X266182Y100248D01*
X264183Y98249D01*
Y96249D01*
X265182Y95250D01*
X267182D01*
X268181Y96249D01*
Y97249D01*
X267182Y98249D01*
X264183D01*
X480933Y131999D02*
Y135998D01*
X479934Y136998D01*
X477934D01*
X476935Y135998D01*
Y131999D01*
X477934Y131000D01*
X479934D01*
X478934Y132999D02*
X480933Y131000D01*
X479934D02*
X480933Y131999D01*
X486931Y136998D02*
X482933D01*
Y133999D01*
X484932Y134998D01*
X485932D01*
X486931Y133999D01*
Y131999D01*
X485932Y131000D01*
X483932D01*
X482933Y131999D01*
X148669Y370788D02*
X147669Y371788D01*
X145670D01*
X144670Y370788D01*
Y366789D01*
X145670Y365790D01*
X147669D01*
X148669Y366789D01*
X154667Y365790D02*
X150668D01*
X154667Y369788D01*
Y370788D01*
X153667Y371788D01*
X151668D01*
X150668Y370788D01*
X160665Y371788D02*
X158666Y370788D01*
X156666Y368789D01*
Y366789D01*
X157666Y365790D01*
X159665D01*
X160665Y366789D01*
Y367789D01*
X159665Y368789D01*
X156666D01*
X116183Y272248D02*
X115184Y273248D01*
X113184D01*
X112185Y272248D01*
Y268249D01*
X113184Y267250D01*
X115184D01*
X116183Y268249D01*
X122182Y267250D02*
X118183D01*
X122182Y271248D01*
Y272248D01*
X121182Y273248D01*
X119182D01*
X118183Y272248D01*
X128180Y273248D02*
X124181D01*
Y270249D01*
X126180Y271248D01*
X127180D01*
X128180Y270249D01*
Y268249D01*
X127180Y267250D01*
X125181D01*
X124181Y268249D01*
X207017Y68914D02*
X206017Y69914D01*
X204018D01*
X203018Y68914D01*
Y64916D01*
X204018Y63916D01*
X206017D01*
X207017Y64916D01*
X213015Y63916D02*
X209016D01*
X213015Y67915D01*
Y68914D01*
X212015Y69914D01*
X210016D01*
X209016Y68914D01*
X218013Y63916D02*
Y69914D01*
X215014Y66915D01*
X219013D01*
X379777Y67802D02*
X378777Y68802D01*
X376778D01*
X375778Y67802D01*
Y63804D01*
X376778Y62804D01*
X378777D01*
X379777Y63804D01*
X385775Y62804D02*
X381776D01*
X385775Y66803D01*
Y67802D01*
X384775Y68802D01*
X382776D01*
X381776Y67802D01*
X387774D02*
X388774Y68802D01*
X390773D01*
X391773Y67802D01*
Y66803D01*
X390773Y65803D01*
X389773D01*
X390773D01*
X391773Y64803D01*
Y63804D01*
X390773Y62804D01*
X388774D01*
X387774Y63804D01*
X443436Y167998D02*
X442437Y166999D01*
Y164999D01*
X443436Y164000D01*
X447435D01*
X448435Y164999D01*
Y166999D01*
X447435Y167998D01*
X448435Y173997D02*
Y169998D01*
X444436Y173997D01*
X443436D01*
X442437Y172997D01*
Y170997D01*
X443436Y169998D01*
X448435Y179995D02*
Y175996D01*
X444436Y179995D01*
X443436D01*
X442437Y178995D01*
Y176996D01*
X443436Y175996D01*
X239899Y38256D02*
X237900D01*
X238900D01*
Y33257D01*
X237900Y32258D01*
X236900D01*
X235901Y33257D01*
X241899Y38256D02*
X245898D01*
Y37256D01*
X241899Y33257D01*
Y32258D01*
X356993Y50194D02*
X354994D01*
X355994D01*
Y45195D01*
X354994Y44196D01*
X353994D01*
X352995Y45195D01*
X362991Y50194D02*
X360992Y49194D01*
X358993Y47195D01*
Y45195D01*
X359992Y44196D01*
X361992D01*
X362991Y45195D01*
Y46195D01*
X361992Y47195D01*
X358993D01*
X246183Y330998D02*
X244184D01*
X245184D01*
Y325999D01*
X244184Y325000D01*
X243184D01*
X242185Y325999D01*
X248183Y329998D02*
X249182Y330998D01*
X251182D01*
X252181Y329998D01*
Y328998D01*
X251182Y327999D01*
X252181Y326999D01*
Y325999D01*
X251182Y325000D01*
X249182D01*
X248183Y325999D01*
Y326999D01*
X249182Y327999D01*
X248183Y328998D01*
Y329998D01*
X249182Y327999D02*
X251182D01*
X483616Y292862D02*
Y298860D01*
X486615D01*
X487615Y297860D01*
Y295861D01*
X486615Y294861D01*
X483616D01*
X485615D02*
X487615Y292862D01*
X493613Y298860D02*
X489614D01*
Y295861D01*
X491613Y296861D01*
X492613D01*
X493613Y295861D01*
Y293862D01*
X492613Y292862D01*
X490614D01*
X489614Y293862D01*
X495612Y297860D02*
X496612Y298860D01*
X498611D01*
X499611Y297860D01*
Y296861D01*
X498611Y295861D01*
X497612D01*
X498611D01*
X499611Y294861D01*
Y293862D01*
X498611Y292862D01*
X496612D01*
X495612Y293862D01*
X406327Y153562D02*
X410326D01*
X408327D01*
Y147564D01*
X412325D02*
Y153562D01*
X415324D01*
X416324Y152562D01*
Y150563D01*
X415324Y149563D01*
X412325D01*
X418323Y147564D02*
X420323D01*
X419323D01*
Y153562D01*
X418323Y152562D01*
X132080Y166526D02*
X136079D01*
X134079D01*
Y160528D01*
X138078D02*
Y166526D01*
X141077D01*
X142077Y165526D01*
Y163527D01*
X141077Y162527D01*
X138078D01*
X148075Y160528D02*
X144076D01*
X148075Y164527D01*
Y165526D01*
X147075Y166526D01*
X145076D01*
X144076Y165526D01*
X698754Y184052D02*
X702753D01*
X700753D01*
Y178054D01*
X704752D02*
Y184052D01*
X707751D01*
X708751Y183052D01*
Y181053D01*
X707751Y180053D01*
X704752D01*
X710750Y183052D02*
X711750Y184052D01*
X713749D01*
X714749Y183052D01*
Y182053D01*
X713749Y181053D01*
X712749D01*
X713749D01*
X714749Y180053D01*
Y179054D01*
X713749Y178054D01*
X711750D01*
X710750Y179054D01*
X405327Y208160D02*
X409326D01*
X407327D01*
Y202162D01*
X411325D02*
Y208160D01*
X414324D01*
X415324Y207160D01*
Y205161D01*
X414324Y204161D01*
X411325D01*
X421322Y208160D02*
X417323D01*
Y205161D01*
X419323Y206161D01*
X420322D01*
X421322Y205161D01*
Y203162D01*
X420322Y202162D01*
X418323D01*
X417323Y203162D01*
X683850Y146747D02*
X682850Y145747D01*
Y143748D01*
X683850Y142748D01*
X687848D01*
X688848Y143748D01*
Y145747D01*
X687848Y146747D01*
X688848Y152745D02*
Y148746D01*
X684849Y152745D01*
X683850D01*
X682850Y151745D01*
Y149746D01*
X683850Y148746D01*
X687848Y154744D02*
X688848Y155744D01*
Y157743D01*
X687848Y158743D01*
X683850D01*
X682850Y157743D01*
Y155744D01*
X683850Y154744D01*
X684849D01*
X685849Y155744D01*
Y158743D01*
D11*
X63888Y335281D02*
G03*
X64463Y328980I6506J-2583D01*
G01*
X75790Y346651D02*
G03*
X69824Y344542I-902J-6942D01*
G01*
X64482Y50581D02*
G03*
X63907Y44280I5931J-3718D01*
G01*
X69844Y35019D02*
G03*
X75809Y32910I5064J4833D01*
G01*
X841250Y36970D02*
G03*
X837365Y41965I-6871J-1336D01*
G01*
Y20975D02*
G03*
X841250Y25970I-2987J6331D01*
G01*
X836115Y335935D02*
G03*
X840000Y340930I-2987J6331D01*
G01*
Y351930D02*
G03*
X836115Y356925I-6871J-1336D01*
G01*
X769798Y351052D02*
G03*
X769798Y351052I-1000J0D01*
G01*
X531550Y164800D02*
Y214800D01*
X563550Y164800D02*
Y214800D01*
X57537Y310548D02*
X69323Y302993D01*
X63888Y335281D02*
X69824Y344542D01*
X63907Y44280D02*
X69844Y35019D01*
X89665Y18921D02*
X101452Y26476D01*
X819250Y61220D02*
X833250D01*
X841250Y25970D02*
Y36970D01*
X840000Y340930D02*
Y351930D01*
X818000Y376180D02*
X832000D01*
X65498Y107212D02*
Y141712D01*
X107998Y107212D02*
Y141712D01*
X754536Y8864D02*
X764786D01*
X754536Y37364D02*
X764786D01*
X147550Y287050D02*
Y296550D01*
X178550Y287050D02*
Y296550D01*
X774798Y314552D02*
Y319302D01*
Y313552D02*
Y314552D01*
X773798Y313552D02*
X774798D01*
X742798Y339802D02*
Y344552D01*
Y345552D01*
X743798D01*
X742798Y314552D02*
Y319302D01*
Y313552D02*
Y314552D01*
Y313552D02*
X743798D01*
X773798Y345552D02*
X774798D01*
Y344552D02*
Y345552D01*
Y339802D02*
Y344552D01*
X152842Y76790D02*
Y84290D01*
X120342Y76790D02*
Y84290D01*
X259152Y22640D02*
Y30140D01*
X291652Y22640D02*
Y30140D01*
X349804Y342962D02*
X357304D01*
X349804Y310462D02*
X357304D01*
X456302Y163128D02*
Y216878D01*
Y162878D02*
Y216628D01*
X528302Y163128D02*
Y216878D01*
X483300Y127050D02*
X493550D01*
X483300Y98550D02*
X493550D01*
X280102Y74598D02*
Y84848D01*
X251602Y74598D02*
Y84848D01*
X301300Y71800D02*
X311551D01*
X301300Y43300D02*
X311551D01*
X151000Y17500D02*
Y27750D01*
X179500Y17500D02*
Y27750D01*
X174050Y103300D02*
X184300D01*
X174050Y74800D02*
X184300D01*
X280236Y312806D02*
Y323056D01*
X308736Y312806D02*
Y323056D01*
X111186Y318694D02*
Y328194D01*
X142186Y318694D02*
Y328194D01*
D12*
X334648Y279202D02*
G03*
X334648Y279202I-2500J0D01*
G01*
D13*
X300797Y279271D02*
G03*
X300797Y279271I-29599J0D01*
G01*
X259041Y236008D02*
Y241008D01*
X289039Y236008D02*
Y241008D01*
Y140013D02*
Y145013D01*
X259041Y140013D02*
Y145013D01*
X284039Y140013D02*
X289039D01*
X284039Y241008D02*
X289039D01*
X259041D02*
X264041D01*
X259041Y140013D02*
X264041D01*
D14*
X154666Y267970D02*
G03*
X154666Y267970I-1250J0D01*
G01*
X147092Y104290D02*
G03*
X147092Y104290I-1000J0D01*
G01*
X285902Y50140D02*
G03*
X285902Y50140I-1000J0D01*
G01*
X330804Y336212D02*
G03*
X330804Y336212I-1000J0D01*
G01*
X118344Y299466D02*
G03*
X118344Y299466I-1250J0D01*
G01*
D15*
X464282Y137874D02*
G03*
X464302Y137628I-1480J-247D01*
G01*
X454050Y42050D02*
G03*
X454050Y42050I-2000J0D01*
G01*
X496050Y338050D02*
G03*
X496050Y338050I-2000J0D01*
G01*
D16*
X186988Y177112D02*
X193288D01*
X186988Y132612D02*
X193288D01*
X182988Y183512D02*
X186988D01*
Y177112D02*
Y183512D01*
X161488Y180512D02*
Y183512D01*
X169488D01*
X161588Y126312D02*
Y129262D01*
Y126312D02*
X171588D01*
X183888D02*
X186888D01*
Y132312D01*
X193288Y177112D02*
Y183412D01*
X193388Y183512D02*
X195388D01*
X218688Y179762D02*
Y183512D01*
X203488D02*
X218488D01*
X193288Y126312D02*
Y129312D01*
Y129612D02*
Y132612D01*
Y126312D02*
X195788D01*
X218688D02*
Y129762D01*
X207688Y126312D02*
X218688D01*
X207688Y196312D02*
X218688D01*
Y199762D01*
X193288Y196312D02*
X195788D01*
X193288Y199612D02*
Y202612D01*
Y196312D02*
Y199312D01*
X203488Y253512D02*
X218488D01*
X218688Y249762D02*
Y253512D01*
X193388D02*
X195388D01*
X193288Y247112D02*
Y253412D01*
X186888Y196312D02*
Y202312D01*
X183888Y196312D02*
X186888D01*
X161588D02*
X171588D01*
X161588D02*
Y199262D01*
X161488Y253512D02*
X169488D01*
X161488Y250512D02*
Y253512D01*
X186988Y247112D02*
Y253512D01*
X182988D02*
X186988D01*
Y202612D02*
X193288D01*
X186988Y247112D02*
X193288D01*
X818300Y243550D02*
X837800D01*
X6770Y214690D02*
X36020D01*
X382348Y114302D02*
Y139052D01*
X352348Y139302D02*
Y164052D01*
X382348Y165302D02*
Y190052D01*
X352348Y190302D02*
Y215052D01*
X382348Y215802D02*
Y240552D01*
X352348Y241052D02*
Y265802D01*
X382348Y266552D02*
Y296452D01*
X352348Y83452D02*
Y113552D01*
Y83452D02*
X382348D01*
X352348Y296452D02*
X382348D01*
X355640Y40135D02*
X361890D01*
X355640Y27510D02*
Y40135D01*
X395640Y27510D02*
Y40135D01*
X389390D02*
X395640D01*
X370140Y4010D02*
X380890D01*
X191050Y40135D02*
X197300D01*
X191050Y27510D02*
Y40135D01*
X231050Y27510D02*
Y40135D01*
X224800D02*
X231050D01*
X205550Y4010D02*
X216300D01*
X261550Y340175D02*
X267801D01*
Y352800D01*
X227800Y340175D02*
Y352800D01*
Y340175D02*
X234051D01*
X242550Y376300D02*
X253300D01*
D17*
X306371Y211272D02*
D03*
D18*
X306121Y168897D02*
D03*
D19*
X273941Y177888D02*
D03*
M02*
