G04*
G04 #@! TF.GenerationSoftware,Altium Limited,Altium Designer,18.0.9 (584)*
G04*
G04 Layer_Color=128*
%FSLAX44Y44*%
%MOMM*%
G71*
G01*
G75*
%ADD136C,0.0508*%
D136*
X479059Y278892D02*
X482059D01*
X480559Y277392D02*
Y280392D01*
X464059Y278892D02*
X467059D01*
X465559Y277392D02*
Y280392D01*
X449059Y278892D02*
X452059D01*
X450559Y277392D02*
Y280392D01*
X434059Y278892D02*
X437059D01*
X435559Y277392D02*
Y280392D01*
X419059Y278892D02*
X422059D01*
X420559Y277392D02*
Y280392D01*
X623261Y279500D02*
X626261D01*
X624761Y278000D02*
Y281000D01*
X638261Y279500D02*
X641261D01*
X639761Y278000D02*
Y281000D01*
X653261Y279500D02*
X656261D01*
X654761Y278000D02*
Y281000D01*
X668261Y279500D02*
X671261D01*
X669761Y278000D02*
Y281000D01*
X683261Y279500D02*
X686261D01*
X684761Y278000D02*
Y281000D01*
X172238Y142312D02*
X180238D01*
X176238Y138312D02*
Y146312D01*
X200238Y142312D02*
X208238D01*
X204238Y138312D02*
Y146312D01*
X172238Y167712D02*
X180238D01*
X176238Y163712D02*
Y171712D01*
X200238Y167712D02*
X208238D01*
X204238Y163712D02*
Y171712D01*
X200238Y237712D02*
X208238D01*
X204238Y233712D02*
Y241712D01*
X172238Y237712D02*
X180238D01*
X176238Y233712D02*
Y241712D01*
X200238Y212312D02*
X208238D01*
X204238Y208312D02*
Y216312D01*
X172238Y212312D02*
X180238D01*
X176238Y208312D02*
Y216312D01*
X779700Y278500D02*
X799700D01*
X789700Y268500D02*
Y288500D01*
X750000Y278500D02*
X770000D01*
X760000Y268500D02*
Y288500D01*
X779700Y239500D02*
X799700D01*
X789700Y229500D02*
Y249500D01*
X750000Y239500D02*
X770000D01*
X760000Y229500D02*
Y249500D01*
X265544Y232010D02*
X282536D01*
X274040Y223514D02*
Y240506D01*
X265544Y148010D02*
X282536D01*
X274040Y139514D02*
Y156506D01*
X278200Y269272D02*
X283195D01*
X280697Y266774D02*
Y271770D01*
X259201Y269272D02*
X264196D01*
X261698Y266774D02*
Y271770D01*
X787449Y127572D02*
X796448D01*
X791948Y123072D02*
Y132072D01*
X787449Y83572D02*
X796448D01*
X791948Y79072D02*
Y88072D01*
X641500Y168250D02*
X644500D01*
X643000Y166750D02*
Y169750D01*
X641000Y159000D02*
X644000D01*
X642500Y157500D02*
Y160500D01*
X612750Y141500D02*
X615750D01*
X614250Y140000D02*
Y143000D01*
X686500Y140000D02*
X689500D01*
X688000Y138500D02*
Y141500D01*
X684500Y127750D02*
X687500D01*
X686000Y126250D02*
Y129250D01*
X648250Y155250D02*
X651250D01*
X649750Y153750D02*
Y156750D01*
X634500Y196250D02*
X637500D01*
X636000Y194750D02*
Y197750D01*
X619500Y153750D02*
X622500D01*
X621000Y152250D02*
Y155250D01*
X624864Y190250D02*
X627864D01*
X626364Y188750D02*
Y191750D01*
X629166Y183941D02*
X632166D01*
X630666Y182441D02*
Y185441D01*
X619250Y177000D02*
X622250D01*
X620750Y175500D02*
Y178500D01*
X605000Y177750D02*
X608000D01*
X606500Y176250D02*
Y179250D01*
X599000Y165750D02*
X602000D01*
X600500Y164250D02*
Y167250D01*
X586750Y164500D02*
X589750D01*
X588250Y163000D02*
Y166000D01*
X580963Y197259D02*
X583963D01*
X582463Y195759D02*
Y198759D01*
X566000Y166250D02*
X569000D01*
X567500Y164750D02*
Y167750D01*
X653820Y193548D02*
X656820D01*
X655320Y192048D02*
Y195048D01*
X666012Y107188D02*
X669012D01*
X667512Y105688D02*
Y108688D01*
X206000Y107250D02*
X209000D01*
X207500Y105750D02*
Y108750D01*
X659750Y210000D02*
X662750D01*
X661250Y208500D02*
Y211500D01*
X682750Y253750D02*
X685750D01*
X684250Y252250D02*
Y255250D01*
X126500Y235000D02*
X129500D01*
X128000Y233500D02*
Y236500D01*
X529549Y104648D02*
X532549D01*
X531049Y103148D02*
Y106148D01*
X605000Y141250D02*
X608000D01*
X606500Y139750D02*
Y142750D01*
X563500Y158500D02*
X566500D01*
X565000Y157000D02*
Y160000D01*
X612750Y203250D02*
X615750D01*
X614250Y201750D02*
Y204750D01*
X605750Y196250D02*
X608750D01*
X607250Y194750D02*
Y197750D01*
X586750Y205250D02*
X589750D01*
X588250Y203750D02*
Y206750D01*
X565903Y203241D02*
X568903D01*
X567403Y201741D02*
Y204741D01*
X561777Y196760D02*
X564777D01*
X563278Y195260D02*
Y198260D01*
X569278Y196010D02*
X572278D01*
X570778Y194510D02*
Y197510D01*
X331750Y222000D02*
X334750D01*
X333250Y220500D02*
Y223500D01*
X349690Y188122D02*
X352690D01*
X351190Y186622D02*
Y189622D01*
X720114Y224536D02*
X723114D01*
X721614Y223036D02*
Y226036D01*
X737000Y228000D02*
X740000D01*
X738500Y226500D02*
Y229500D01*
X734250Y209000D02*
X737250D01*
X735750Y207500D02*
Y210500D01*
X722250Y170000D02*
X725250D01*
X723750Y168500D02*
Y171500D01*
X802685Y340000D02*
X805685D01*
X804185Y338500D02*
Y341500D01*
X134250Y269500D02*
X137250D01*
X135750Y268000D02*
Y271000D01*
X134689Y279750D02*
X137689D01*
X136189Y278250D02*
Y281250D01*
X738786Y294764D02*
X741786D01*
X740286Y293264D02*
Y296264D01*
X645685Y226750D02*
X648685D01*
X647185Y225250D02*
Y228250D01*
X457750Y106000D02*
X460750D01*
X459250Y104500D02*
Y107500D01*
X229250Y105500D02*
X232250D01*
X230750Y104000D02*
Y107000D01*
X251500Y90500D02*
X254500D01*
X253000Y89000D02*
Y92000D01*
X272449Y168773D02*
X275449D01*
X273949Y167273D02*
Y170273D01*
X164870Y131826D02*
X167870D01*
X166370Y130326D02*
Y133326D01*
X308250Y90000D02*
X311250D01*
X309750Y88500D02*
Y91500D01*
X72250Y202750D02*
X75250D01*
X73750Y201250D02*
Y204250D01*
X80288Y161290D02*
X83288D01*
X81788Y159790D02*
Y162790D01*
X72185Y161712D02*
X75185D01*
X73685Y160212D02*
Y163212D01*
X86130Y167304D02*
X89130D01*
X87630Y165804D02*
Y168804D01*
X215750Y305750D02*
X218750D01*
X217250Y304250D02*
Y307250D01*
X181250Y306750D02*
X184250D01*
X182750Y305250D02*
Y308250D01*
X365250Y132750D02*
X368250D01*
X366750Y131250D02*
Y134250D01*
X359500Y138500D02*
X362500D01*
X361000Y137000D02*
Y140000D01*
X364750Y106750D02*
X367750D01*
X366250Y105250D02*
Y108250D01*
X338500Y139750D02*
X341500D01*
X340000Y138250D02*
Y141250D01*
X502750Y138500D02*
X505750D01*
X504250Y137000D02*
Y140000D01*
X115000Y123500D02*
X118000D01*
X116500Y122000D02*
Y125000D01*
X110000Y129500D02*
X113000D01*
X111500Y128000D02*
Y131000D01*
X219000Y280500D02*
X222000D01*
X220500Y279000D02*
Y282000D01*
X214435Y296750D02*
X217435D01*
X215935Y295250D02*
Y298250D01*
X744992Y265536D02*
X747992D01*
X746492Y264036D02*
Y267036D01*
X745185Y299000D02*
X748185D01*
X746685Y297500D02*
Y300500D01*
X177316Y73406D02*
X180316D01*
X178816Y71906D02*
Y74906D01*
X524788Y133096D02*
X527788D01*
X526288Y131596D02*
Y134596D01*
X425474Y219964D02*
X428474D01*
X426974Y218464D02*
Y221464D01*
X429030Y229616D02*
X432030D01*
X430530Y228116D02*
Y231116D01*
X367308Y213868D02*
X370308D01*
X368808Y212368D02*
Y215368D01*
X436396Y197612D02*
X439396D01*
X437896Y196112D02*
Y199112D01*
X436142Y186436D02*
X439142D01*
X437642Y184936D02*
Y187936D01*
X77189Y299514D02*
X80189D01*
X78689Y298014D02*
Y301014D01*
X95782Y328422D02*
X98782D01*
X97282Y326922D02*
Y329922D01*
X209320Y64516D02*
X212320D01*
X210820Y63016D02*
Y66016D01*
X156742Y67564D02*
X159742D01*
X158242Y66064D02*
Y69064D01*
X626185Y198000D02*
X629185D01*
X627685Y196500D02*
Y199500D01*
X419886Y197612D02*
X422886D01*
X421386Y196112D02*
Y199112D01*
X170712Y324612D02*
X173712D01*
X172212Y323112D02*
Y326112D01*
X454176Y79248D02*
X457176D01*
X455676Y77748D02*
Y80748D01*
X483132Y102870D02*
X486132D01*
X484632Y101370D02*
Y104370D01*
X488974Y91440D02*
X491974D01*
X490474Y89940D02*
Y92940D01*
X325144Y164846D02*
X328144D01*
X326644Y163346D02*
Y166346D01*
X331748Y179070D02*
X334748D01*
X333248Y177570D02*
Y180570D01*
X120166Y52578D02*
X123166D01*
X121666Y51078D02*
Y54078D01*
X238276Y36576D02*
X241276D01*
X239776Y35076D02*
Y38076D01*
X320318Y35306D02*
X323318D01*
X321818Y33806D02*
Y36806D01*
X235990Y48260D02*
X238990D01*
X237490Y46760D02*
Y49760D01*
X371118Y64262D02*
X374118D01*
X372618Y62762D02*
Y65762D01*
X358164Y56388D02*
X361164D01*
X359664Y54888D02*
Y57888D01*
X397280Y38100D02*
X400280D01*
X398780Y36600D02*
Y39600D01*
X397280Y56388D02*
X400280D01*
X398780Y54888D02*
Y57888D01*
X269264Y347472D02*
X272264D01*
X270764Y345972D02*
Y348972D01*
X268502Y334772D02*
X271502D01*
X270002Y333272D02*
Y336272D01*
X241324Y364998D02*
X244324D01*
X242824Y363498D02*
Y366498D01*
X283435Y347000D02*
X286435D01*
X284935Y345500D02*
Y348500D01*
X109498Y218440D02*
X112498D01*
X110998Y216940D02*
Y219940D01*
X644168Y93472D02*
X647168D01*
X645668Y91972D02*
Y94972D01*
X583970Y93472D02*
X586970D01*
X585470Y91972D02*
Y94972D01*
X235185Y203750D02*
X238185D01*
X236685Y202250D02*
Y205250D01*
X686840Y161160D02*
X689840D01*
X688340Y159660D02*
Y162660D01*
X558570Y151384D02*
X561570D01*
X560070Y149884D02*
Y152884D01*
X340638Y262636D02*
X343638D01*
X342138Y261136D02*
Y264136D01*
X593114Y132588D02*
X596114D01*
X594614Y131088D02*
Y134088D01*
X623529Y134112D02*
X626529D01*
X625029Y132612D02*
Y135612D01*
X631216Y133006D02*
X634216D01*
X632716Y131506D02*
Y134506D01*
X600669Y134620D02*
X603669D01*
X602169Y133120D02*
Y136120D01*
X146814Y134620D02*
X149814D01*
X148314Y133120D02*
Y136120D01*
X142935Y239000D02*
X145935D01*
X144435Y237500D02*
Y240500D01*
X722146Y13716D02*
X725146D01*
X723646Y12216D02*
Y15216D01*
X722146Y32258D02*
X725146D01*
X723646Y30758D02*
Y33758D01*
X688364Y238760D02*
X691364D01*
X689864Y237260D02*
Y240260D01*
X679728Y239014D02*
X682728D01*
X681228Y237514D02*
Y240514D01*
X751291Y305816D02*
X754291D01*
X752791Y304316D02*
Y307316D01*
X686586Y93472D02*
X689586D01*
X688086Y91972D02*
Y94972D01*
X722146Y86868D02*
X725146D01*
X723646Y85368D02*
Y88368D01*
X715034Y93472D02*
X718034D01*
X716534Y91972D02*
Y94972D01*
X714780Y119888D02*
X717780D01*
X716280Y118388D02*
Y121388D01*
X613942Y93472D02*
X616942D01*
X615442Y91972D02*
Y94972D01*
X72414Y86614D02*
X75414D01*
X73914Y85114D02*
Y88114D01*
X411758Y258500D02*
X414758D01*
X413258Y257000D02*
Y260000D01*
X714750Y189000D02*
X717750D01*
X716250Y187500D02*
Y190500D01*
X397435Y81750D02*
X400435D01*
X398935Y80250D02*
Y83250D01*
X354500Y106750D02*
X357500D01*
X356000Y105250D02*
Y108250D01*
X795250Y31500D02*
X798250D01*
X796750Y30000D02*
Y33000D01*
X332500Y75750D02*
X335500D01*
X334000Y74250D02*
Y77250D01*
X565750Y280750D02*
X568750D01*
X567250Y279250D02*
Y282250D01*
X604000Y277500D02*
X607000D01*
X605500Y276000D02*
Y279000D01*
X595654Y140970D02*
X598654D01*
X597154Y139470D02*
Y142470D01*
X547500Y104750D02*
X550500D01*
X549000Y103250D02*
Y106250D01*
X379500Y343750D02*
X382500D01*
X381000Y342250D02*
Y345250D01*
X729000Y367000D02*
X732000D01*
X730500Y365500D02*
Y368500D01*
X763806Y367056D02*
X766806D01*
X765306Y365556D02*
Y368556D01*
X584750Y235250D02*
X587750D01*
X586250Y233750D02*
Y236750D01*
X574250Y235250D02*
X577250D01*
X575750Y233750D02*
Y236750D01*
X601500Y235500D02*
X604500D01*
X603000Y234000D02*
Y237000D01*
X658750Y182500D02*
X661750D01*
X660250Y181000D02*
Y184000D01*
X152500Y52500D02*
X155500D01*
X154000Y51000D02*
Y54000D01*
X448935Y313000D02*
X451935D01*
X450435Y311500D02*
Y314500D01*
X352702Y362767D02*
X355702D01*
X354202Y361267D02*
Y364267D01*
X97935Y244250D02*
X100935D01*
X99435Y242750D02*
Y245750D01*
X98185Y276500D02*
X101185D01*
X99685Y275000D02*
Y278000D01*
X101935Y269500D02*
X104935D01*
X103435Y268000D02*
Y271000D01*
X75435Y239750D02*
X78435D01*
X76935Y238250D02*
Y241250D01*
X356185Y32750D02*
X359185D01*
X357685Y31250D02*
Y34250D01*
X584185Y132250D02*
X587185D01*
X585685Y130750D02*
Y133750D01*
X653935Y226500D02*
X656935D01*
X655435Y225000D02*
Y228000D01*
X740750Y252500D02*
X743750D01*
X742250Y251000D02*
Y254000D01*
X312241Y335306D02*
X315241D01*
X313741Y333806D02*
Y336806D01*
X141935Y128500D02*
X144935D01*
X143435Y127000D02*
Y130000D01*
X161685Y237500D02*
X164685D01*
X163185Y236000D02*
Y239000D01*
X156185Y203500D02*
X159185D01*
X157685Y202000D02*
Y205000D01*
X168935Y197500D02*
X171935D01*
X170435Y196000D02*
Y199000D01*
X391013Y289078D02*
X394013D01*
X392513Y287578D02*
Y290578D01*
X392435Y305000D02*
X395435D01*
X393935Y303500D02*
Y306500D01*
X351935Y326500D02*
X354935D01*
X353435Y325000D02*
Y328000D01*
X613890Y265456D02*
X616890D01*
X615390Y263956D02*
Y266956D01*
X565435Y272000D02*
X568435D01*
X566935Y270500D02*
Y273500D01*
X454685Y296000D02*
X457685D01*
X456185Y294500D02*
Y297500D01*
X302185Y127750D02*
X305185D01*
X303685Y126250D02*
Y129250D01*
X345435Y85500D02*
X348435D01*
X346935Y84000D02*
Y87000D01*
X73111Y193548D02*
X76111D01*
X74611Y192048D02*
Y195048D01*
X497435Y132250D02*
X500435D01*
X498935Y130750D02*
Y133750D01*
X489417Y132334D02*
X492417D01*
X490917Y130834D02*
Y133834D01*
X437935Y166500D02*
X440935D01*
X439435Y165000D02*
Y168000D01*
X378419Y270002D02*
X381419D01*
X379919Y268502D02*
Y271502D01*
X370291Y268732D02*
X373291D01*
X371791Y267232D02*
Y270232D01*
X326095Y128270D02*
X329095D01*
X327595Y126770D02*
Y129770D01*
X440435Y93250D02*
X443435D01*
X441935Y91750D02*
Y94750D01*
X135595Y179832D02*
X138595D01*
X137095Y178332D02*
Y181332D01*
X161503Y266954D02*
X164503D01*
X163003Y265454D02*
Y268454D01*
X354289Y265176D02*
X357289D01*
X355789Y263676D02*
Y266676D01*
X333715Y104648D02*
X336715D01*
X335215Y103148D02*
Y106148D01*
X309077Y41656D02*
X312077D01*
X310577Y40156D02*
Y43156D01*
X540230Y256820D02*
X543230D01*
X541730Y255320D02*
Y258320D01*
X276036Y48280D02*
X279036D01*
X277536Y46780D02*
Y49780D01*
X274004Y22118D02*
X277004D01*
X275504Y20618D02*
Y23618D01*
X144685Y54250D02*
X147685D01*
X146185Y52750D02*
Y55750D01*
X268500Y316750D02*
X271500D01*
X270000Y315250D02*
Y318250D01*
X69822Y41428D02*
X72822D01*
X71322Y39928D02*
Y42928D01*
X70076Y337592D02*
X73076D01*
X71576Y336092D02*
Y339092D01*
X217698Y145022D02*
X220698D01*
X219198Y143522D02*
Y146522D01*
X311363Y309118D02*
X314363D01*
X312863Y307618D02*
Y310618D01*
X373098Y276378D02*
X376098D01*
X374598Y274878D02*
Y277878D01*
X349222Y239548D02*
X352222D01*
X350722Y238048D02*
Y241048D01*
X806630Y13970D02*
X809631D01*
X808130Y12470D02*
Y15470D01*
X382300Y167050D02*
X385300D01*
X383800Y165550D02*
Y168550D01*
X212300Y74550D02*
X215300D01*
X213800Y73050D02*
Y76050D01*
X222050Y79550D02*
X225050D01*
X223550Y78050D02*
Y81050D01*
X481302Y312954D02*
X484302D01*
X482802Y311454D02*
Y314454D01*
X551185Y253500D02*
X554185D01*
X552685Y252000D02*
Y255000D01*
X135100Y85370D02*
X138100D01*
X136600Y83870D02*
Y86870D01*
X390435Y371500D02*
X393435D01*
X391935Y370000D02*
Y373000D01*
X397435Y349750D02*
X400435D01*
X398935Y348250D02*
Y351250D01*
X137881Y368300D02*
X140881D01*
X139381Y366800D02*
Y369800D01*
X66435Y266750D02*
X69435D01*
X67935Y265250D02*
Y268250D01*
X51435Y129250D02*
X54435D01*
X52935Y127750D02*
Y130750D01*
X822185Y226750D02*
X825185D01*
X823685Y225250D02*
Y228250D01*
X773389Y215900D02*
X776389D01*
X774889Y214400D02*
Y217400D01*
X838685Y358250D02*
X841685D01*
X840185Y356750D02*
Y359750D01*
X117185Y203500D02*
X120185D01*
X118685Y202000D02*
Y205000D01*
X101685Y251000D02*
X104685D01*
X103185Y249500D02*
Y252500D01*
X215685Y218000D02*
X218685D01*
X217185Y216500D02*
Y219500D01*
X216435Y237500D02*
X219435D01*
X217935Y236000D02*
Y239000D01*
X242500Y141750D02*
X245500D01*
X244000Y140250D02*
Y143250D01*
X112685Y58250D02*
X115685D01*
X114185Y56750D02*
Y59750D01*
X252750Y150000D02*
X255750D01*
X254250Y148500D02*
Y151500D01*
X807435Y239250D02*
X810435D01*
X808935Y237750D02*
Y240750D01*
X798435Y371250D02*
X801435D01*
X799935Y369750D02*
Y372750D01*
X215699Y133772D02*
X218698D01*
X217198Y132272D02*
Y135272D01*
X66185Y288250D02*
X69185D01*
X67685Y286750D02*
Y289750D01*
X46454Y183414D02*
X49454D01*
X47954Y181914D02*
Y184914D01*
X815435Y269500D02*
X818435D01*
X816935Y268000D02*
Y271000D01*
X396720Y333528D02*
X399720D01*
X398220Y332028D02*
Y335028D01*
X325854Y86132D02*
X328854D01*
X327354Y84632D02*
Y87632D01*
X806930Y326416D02*
X809930D01*
X808430Y324916D02*
Y327916D01*
X799564Y322860D02*
X802564D01*
X801064Y321360D02*
Y324360D01*
X763750Y300254D02*
X766750D01*
X765250Y298754D02*
Y301754D01*
X57936Y156718D02*
X60936D01*
X59436Y155218D02*
Y158218D01*
X53685Y250500D02*
X56685D01*
X55185Y249000D02*
Y252000D01*
X335544Y55793D02*
X338544D01*
X337044Y54293D02*
Y57293D01*
X427435Y106250D02*
X430435D01*
X428935Y104750D02*
Y107750D01*
X397469Y69342D02*
X400469D01*
X398969Y67842D02*
Y70842D01*
X397280Y47752D02*
X400280D01*
X398780Y46252D02*
Y49252D01*
X343621Y104902D02*
X346621D01*
X345121Y103402D02*
Y106402D01*
X373750Y169750D02*
X376750D01*
X375250Y168250D02*
Y171250D01*
X246435Y186500D02*
X249435D01*
X247935Y185000D02*
Y188000D01*
X240500Y240250D02*
X243500D01*
X242000Y238750D02*
Y241750D01*
X307685Y134000D02*
X310685D01*
X309185Y132500D02*
Y135500D01*
X308315Y285242D02*
X311315D01*
X309815Y283742D02*
Y286742D01*
X324435Y291000D02*
X327435D01*
X325935Y289500D02*
Y292500D01*
X101685Y285250D02*
X104685D01*
X103185Y283750D02*
Y286750D01*
X135435Y203750D02*
X138435D01*
X136935Y202250D02*
Y205250D01*
X98435Y66500D02*
X101435D01*
X99935Y65000D02*
Y68000D01*
X251685Y279250D02*
X254685D01*
X253185Y277750D02*
Y280750D01*
X844185Y238250D02*
X847185D01*
X845685Y236750D02*
Y239750D01*
X144993Y336042D02*
X147993D01*
X146493Y334542D02*
Y337542D01*
X74127Y247904D02*
X77127D01*
X75627Y246404D02*
Y249404D01*
X287185Y235000D02*
X290185D01*
X288685Y233500D02*
Y236500D01*
X447507Y132080D02*
X450507D01*
X449007Y130580D02*
Y133580D01*
X517103Y99314D02*
X520103D01*
X518603Y97814D02*
Y100814D01*
X428457Y132588D02*
X431457D01*
X429957Y131088D02*
Y134088D01*
X312125Y226568D02*
X315125D01*
X313625Y225068D02*
Y228068D01*
X535899Y237490D02*
X538899D01*
X537399Y235990D02*
Y238990D01*
X737321Y345948D02*
X740321D01*
X738821Y344448D02*
Y347448D01*
X728939Y357124D02*
X731939D01*
X730439Y355624D02*
Y358624D01*
X757133Y357378D02*
X760133D01*
X758633Y355878D02*
Y358878D01*
X82050Y71550D02*
X85050D01*
X83550Y70050D02*
Y73050D01*
X100685Y41500D02*
X103685D01*
X102185Y40000D02*
Y43000D01*
X253935Y224500D02*
X256935D01*
X255435Y223000D02*
Y226000D01*
X84435Y218250D02*
X87435D01*
X85935Y216750D02*
Y219750D01*
X195935Y279750D02*
X198935D01*
X197435Y278250D02*
Y281250D01*
X181435Y281750D02*
X184435D01*
X182935Y280250D02*
Y283250D01*
X364500Y144250D02*
X367500D01*
X366000Y142750D02*
Y145750D01*
X550435Y286500D02*
X553435D01*
X551935Y285000D02*
Y288000D01*
X382185Y132500D02*
X385185D01*
X383685Y131000D02*
Y134000D01*
X568685Y93250D02*
X571685D01*
X570185Y91750D02*
Y94750D01*
X354685Y302750D02*
X357685D01*
X356185Y301250D02*
Y304250D01*
X140685Y320500D02*
X143685D01*
X142185Y319000D02*
Y322000D01*
X789935Y371500D02*
X792935D01*
X791435Y370000D02*
Y373000D01*
X115935Y87750D02*
X118935D01*
X117435Y86250D02*
Y89250D01*
X135185Y56000D02*
X138185D01*
X136685Y54500D02*
Y57500D01*
X233185Y246750D02*
X236185D01*
X234685Y245250D02*
Y248250D01*
X370185Y305000D02*
X373185D01*
X371685Y303500D02*
Y306500D01*
X275448Y92004D02*
X278448D01*
X276948Y90504D02*
Y93504D01*
X287435Y87750D02*
X290435D01*
X288935Y86250D02*
Y89250D01*
X403685Y107000D02*
X406685D01*
X405185Y105500D02*
Y108500D01*
X592935Y235500D02*
X595935D01*
X594435Y234000D02*
Y237000D01*
X837435Y301500D02*
X840435D01*
X838935Y300000D02*
Y303000D01*
X844435Y315000D02*
X847435D01*
X845935Y313500D02*
Y316500D01*
X773685Y225500D02*
X776685D01*
X775185Y224000D02*
Y227000D01*
X512185Y187250D02*
X515185D01*
X513685Y185750D02*
Y188750D01*
X127685Y179750D02*
X130685D01*
X129185Y178250D02*
Y181250D01*
X59500Y167000D02*
X62500D01*
X61000Y165500D02*
Y168500D01*
X792935Y299000D02*
X795935D01*
X794435Y297500D02*
Y300500D01*
X785435Y294500D02*
X788435D01*
X786935Y293000D02*
Y296000D01*
X416935Y93250D02*
X419935D01*
X418435Y91750D02*
Y94750D01*
X136185Y8750D02*
X139185D01*
X137685Y7250D02*
Y10250D01*
X168172Y262890D02*
X171172D01*
X169672Y261390D02*
Y264390D01*
X361685Y258500D02*
X364685D01*
X363185Y257000D02*
Y260000D01*
X386612Y239014D02*
X389612D01*
X388112Y237514D02*
Y240514D01*
X216185Y209750D02*
X219185D01*
X217685Y208250D02*
Y211250D01*
X151685Y344500D02*
X154685D01*
X153185Y343000D02*
Y346000D01*
X206685Y365250D02*
X209685D01*
X208185Y363750D02*
Y366750D01*
X169435Y365750D02*
X172435D01*
X170935Y364250D02*
Y367250D01*
X188185Y365500D02*
X191185D01*
X189685Y364000D02*
Y367000D01*
X148185Y317000D02*
X151185D01*
X149685Y315500D02*
Y318500D01*
X622185Y232500D02*
X625185D01*
X623685Y231000D02*
Y234000D01*
X616685Y227250D02*
X619685D01*
X618185Y225750D02*
Y228750D01*
X660935Y253500D02*
X663935D01*
X662435Y252000D02*
Y255000D01*
X462239Y68834D02*
X465239D01*
X463739Y67334D02*
Y70334D01*
X492685Y75500D02*
X495685D01*
X494185Y74000D02*
Y77000D01*
X659935Y115750D02*
X662935D01*
X661435Y114250D02*
Y117250D01*
X108185Y33250D02*
X111185D01*
X109685Y31750D02*
Y34750D01*
X795685Y352000D02*
X798685D01*
X797185Y350500D02*
Y353500D01*
X135600Y107584D02*
X138600D01*
X137100Y106084D02*
Y109084D01*
X734781Y327914D02*
X737781D01*
X736281Y326414D02*
Y329414D01*
X730717Y334518D02*
X733717D01*
X732217Y333018D02*
Y336018D01*
X826550Y292615D02*
X829550D01*
X828050Y291115D02*
Y294115D01*
X97898Y84094D02*
X100898D01*
X99398Y82594D02*
Y85594D01*
X540000Y286500D02*
X543000D01*
X541500Y285000D02*
Y288000D01*
X483000Y186000D02*
X486000D01*
X484500Y184500D02*
Y187500D01*
X511250Y178250D02*
X514250D01*
X512750Y176750D02*
Y179750D01*
X505250Y173000D02*
X508250D01*
X506750Y171500D02*
Y174500D01*
X324500Y262750D02*
X327500D01*
X326000Y261250D02*
Y264250D01*
X505738Y264668D02*
X508738D01*
X507238Y263168D02*
Y266168D01*
X429500Y166500D02*
X432500D01*
X431000Y165000D02*
Y168000D01*
X157500Y350500D02*
X160500D01*
X159000Y349000D02*
Y352000D01*
X685750Y214750D02*
X688750D01*
X687250Y213250D02*
Y216250D01*
X660424Y140716D02*
X663424D01*
X661924Y139216D02*
Y142216D01*
X753896Y193548D02*
X756896D01*
X755396Y192048D02*
Y195048D01*
X122706Y299720D02*
X125706D01*
X124206Y298220D02*
Y301220D01*
X483185Y195500D02*
X486185D01*
X484685Y194000D02*
Y197000D01*
X476000Y190250D02*
X479000D01*
X477500Y188750D02*
Y191750D01*
X465098Y197612D02*
X468098D01*
X466598Y196112D02*
Y199112D01*
X465751Y189084D02*
X468751D01*
X467252Y187584D02*
Y190585D01*
X469924Y182372D02*
X472924D01*
X471424Y180872D02*
Y183872D01*
X418616Y182372D02*
X421616D01*
X420116Y180872D02*
Y183872D01*
X370864Y182372D02*
X373864D01*
X372364Y180872D02*
Y183872D01*
X339780Y190022D02*
X342780D01*
X341280Y188522D02*
Y191522D01*
X309185Y165500D02*
X312185D01*
X310685Y164000D02*
Y167000D01*
X312444Y212090D02*
X315444D01*
X313944Y210590D02*
Y213590D01*
X299998Y190500D02*
X302998D01*
X301498Y189000D02*
Y192000D01*
X319810Y228854D02*
X322810D01*
X321310Y227354D02*
Y230354D01*
X525804Y246380D02*
X528804D01*
X527304Y244880D02*
Y247880D01*
X504976Y273812D02*
X507976D01*
X506476Y272312D02*
Y275312D01*
X504976Y281940D02*
X507976D01*
X506476Y280440D02*
Y283440D01*
X493800Y258826D02*
X496800D01*
X495300Y257326D02*
Y260326D01*
X255802Y40894D02*
X258802D01*
X257302Y39394D02*
Y42394D01*
X284758Y55118D02*
X287758D01*
X286258Y53618D02*
Y56618D01*
X285266Y71120D02*
X288266D01*
X286766Y69620D02*
Y72620D01*
X291108Y80264D02*
X294108D01*
X292608Y78764D02*
Y81764D01*
X65556Y157734D02*
X68556D01*
X67056Y156234D02*
Y159234D01*
X290990Y48142D02*
X293990D01*
X292490Y46642D02*
Y49642D01*
X712750Y205250D02*
X715750D01*
X714250Y203750D02*
Y206750D01*
X494816Y207010D02*
X497816D01*
X496316Y205510D02*
Y208510D01*
X506500Y198120D02*
X509500D01*
X508000Y196620D02*
Y199620D01*
X500912Y192532D02*
X503912D01*
X502412Y191032D02*
Y194032D01*
M02*
