G04*
G04 #@! TF.GenerationSoftware,Altium Limited,Altium Designer,18.0.9 (584)*
G04*
G04 Layer_Physical_Order=4*
G04 Layer_Color=16711680*
%FSLAX44Y44*%
%MOMM*%
G71*
G01*
G75*
%ADD11C,0.2000*%
%ADD14C,0.2500*%
%ADD16C,0.2540*%
%ADD20R,1.0190X2.0000*%
%ADD22R,0.9000X0.9000*%
%ADD23R,0.6000X0.6000*%
%ADD24R,0.6000X0.6000*%
%ADD25R,0.9000X0.9000*%
%ADD37R,1.4000X1.0000*%
%ADD38R,0.5000X0.6000*%
%ADD40R,0.6000X0.5000*%
%ADD44R,0.7000X1.0000*%
%ADD45R,1.0000X0.7000*%
%ADD48C,1.0000*%
%ADD49R,1.0000X1.4000*%
%ADD93C,0.3000*%
%ADD97C,0.7000*%
%ADD98C,1.6002*%
%ADD99C,2.0000*%
%ADD100C,1.6992*%
%ADD101C,1.2996*%
%ADD102C,0.6000*%
%ADD103C,0.5500*%
%ADD104R,0.8300X0.6300*%
%ADD105R,1.7000X1.0000*%
%ADD106R,0.8000X0.6000*%
%ADD107R,1.0000X0.9000*%
%ADD108R,1.5000X0.3000*%
%ADD109R,0.3000X1.5000*%
%ADD110R,3.0000X3.0000*%
%ADD111R,2.5000X2.0000*%
%ADD112R,2.3000X0.5000*%
%ADD113R,0.8500X0.3000*%
%ADD114R,1.9000X3.2500*%
%ADD115R,1.9000X0.9500*%
%ADD116R,1.2500X1.1000*%
%ADD117R,2.5000X1.2000*%
G36*
X401642Y339778D02*
X399642Y338598D01*
X398220Y338881D01*
X396172Y338473D01*
X394435Y337313D01*
X393275Y335576D01*
X392868Y333528D01*
X393275Y331480D01*
X394435Y329743D01*
X396172Y328583D01*
X398220Y328175D01*
X399642Y328458D01*
X401642Y327278D01*
Y307404D01*
X399642Y306268D01*
X398953Y306679D01*
X398880Y307048D01*
X397720Y308785D01*
X395983Y309945D01*
X393935Y310352D01*
X391980Y309964D01*
X391867Y309956D01*
X389980Y311077D01*
Y312078D01*
X387059D01*
Y323140D01*
X386748Y324700D01*
X385864Y326023D01*
X371954Y339934D01*
X370631Y340818D01*
X369070Y341128D01*
X369070Y341128D01*
X364300D01*
Y344300D01*
X340300D01*
Y329800D01*
X364300D01*
Y332972D01*
X367381D01*
X378902Y321450D01*
Y312078D01*
X375980D01*
Y310849D01*
X373980Y309780D01*
X373733Y309945D01*
X371685Y310352D01*
X369636Y309945D01*
X367900Y308785D01*
X366739Y307048D01*
X366332Y305000D01*
X366739Y302951D01*
X367900Y301215D01*
X369636Y300054D01*
X371685Y299647D01*
X373733Y300054D01*
X373980Y300220D01*
X375980Y299151D01*
Y298078D01*
X389980D01*
Y298922D01*
X391867Y300043D01*
X391980Y300036D01*
X393417Y299750D01*
X395606Y297560D01*
Y254065D01*
X395606Y254065D01*
X395917Y252505D01*
X396801Y251181D01*
X406470Y241512D01*
Y238552D01*
X395548D01*
Y233720D01*
X355050D01*
X354444Y235720D01*
X354507Y235763D01*
X355668Y237500D01*
X356075Y239548D01*
X355668Y241596D01*
X354507Y243333D01*
X352771Y244493D01*
X350722Y244901D01*
X348674Y244493D01*
X346937Y243333D01*
X345777Y241596D01*
X345370Y239548D01*
X345777Y237500D01*
X346937Y235763D01*
X347001Y235720D01*
X346395Y233720D01*
X331869D01*
X331869Y233720D01*
X330308Y233410D01*
X328985Y232526D01*
X328010Y231551D01*
X325565Y231935D01*
X325095Y232639D01*
X323358Y233799D01*
X321310Y234207D01*
X319262Y233799D01*
X317525Y232639D01*
X316365Y230902D01*
X315957Y228854D01*
X316365Y226806D01*
X317525Y225069D01*
X318229Y224599D01*
X318613Y222154D01*
X313892Y217432D01*
X311896Y217035D01*
X310159Y215875D01*
X308999Y214138D01*
X308591Y212090D01*
X308999Y210042D01*
X310159Y208305D01*
X311896Y207145D01*
X313944Y206737D01*
X315992Y207145D01*
X317729Y208305D01*
X318889Y210042D01*
X319101Y211107D01*
X326719Y218725D01*
X328729Y218669D01*
X329170Y218347D01*
Y182416D01*
X328947Y182083D01*
X326529Y181673D01*
X304814Y203388D01*
Y273014D01*
X304814Y273014D01*
X304504Y274575D01*
X303620Y275898D01*
X281027Y298491D01*
Y344555D01*
X281092Y344883D01*
X281092Y344883D01*
Y355126D01*
X281092Y355126D01*
X280782Y356687D01*
X279898Y358010D01*
X279898Y358010D01*
X270275Y367634D01*
X268951Y368518D01*
X267391Y368828D01*
X267391Y368828D01*
X246542D01*
X244872Y369943D01*
X242824Y370351D01*
X240776Y369943D01*
X239106Y368828D01*
X221189D01*
X219628Y368518D01*
X218305Y367634D01*
X218305Y367634D01*
X215491Y364820D01*
X214565Y365024D01*
X213464Y365621D01*
X213130Y367298D01*
X211970Y369035D01*
X210233Y370195D01*
X208185Y370602D01*
X206136Y370195D01*
X204400Y369035D01*
X203239Y367298D01*
X202832Y365250D01*
X203239Y363201D01*
X204400Y361465D01*
X206136Y360304D01*
X207813Y359971D01*
X208410Y358870D01*
X208614Y357943D01*
X178669Y327998D01*
X176094Y328251D01*
X175997Y328397D01*
X174260Y329557D01*
X172212Y329965D01*
X170164Y329557D01*
X168427Y328397D01*
X167267Y326660D01*
X166859Y324612D01*
X167267Y322564D01*
X168427Y320827D01*
X168573Y320730D01*
X168826Y318155D01*
X135671Y285000D01*
X134140Y284695D01*
X132404Y283535D01*
X131243Y281798D01*
X130836Y279750D01*
X131243Y277702D01*
X132404Y275965D01*
X132390Y273569D01*
X131965Y273285D01*
X130805Y271548D01*
X130397Y269500D01*
X130427Y269350D01*
X128786Y267350D01*
X120508D01*
Y253350D01*
X134508D01*
Y256911D01*
X135224Y257053D01*
X136381Y257827D01*
X138273Y259719D01*
X139047Y260876D01*
X139319Y262242D01*
Y265570D01*
X139535Y265715D01*
X140695Y267452D01*
X141103Y269500D01*
X140695Y271548D01*
X139535Y273285D01*
X139549Y275681D01*
X139974Y275965D01*
X141134Y277702D01*
X141439Y279232D01*
X222878Y360671D01*
X239850D01*
X240776Y360053D01*
X242824Y359645D01*
X244872Y360053D01*
X245798Y360671D01*
X265701D01*
X271694Y354679D01*
X270764Y352825D01*
X268716Y352417D01*
X266979Y351257D01*
X265819Y349520D01*
X265526Y348050D01*
X231550D01*
Y313050D01*
X246326D01*
X246527Y312749D01*
X279083Y280193D01*
X278366Y278081D01*
X278338Y278077D01*
X276139Y277167D01*
X274251Y275718D01*
X272803Y273830D01*
X272259Y272517D01*
X270094D01*
X269558Y273810D01*
X268116Y275690D01*
X266236Y277132D01*
X264047Y278039D01*
X261698Y278348D01*
X259349Y278039D01*
X257161Y277132D01*
X255281Y275690D01*
X253839Y273810D01*
X253437Y272841D01*
X233206D01*
X225802Y280245D01*
X225853Y280500D01*
X225445Y282548D01*
X224285Y284285D01*
X222548Y285445D01*
X220500Y285853D01*
X218452Y285445D01*
X216715Y284285D01*
X215555Y282548D01*
X215147Y280500D01*
X215555Y278452D01*
X216715Y276715D01*
X218452Y275555D01*
X220500Y275147D01*
X220755Y275198D01*
X229205Y266749D01*
X230362Y265975D01*
X231728Y265703D01*
X253437D01*
X253839Y264734D01*
X255281Y262854D01*
X257161Y261412D01*
X259349Y260506D01*
X261698Y260196D01*
X264047Y260506D01*
X266236Y261412D01*
X268116Y262854D01*
X269558Y264734D01*
X270094Y266027D01*
X272259D01*
X272803Y264714D01*
X274251Y262826D01*
X276139Y261377D01*
X278338Y260466D01*
X279427Y260323D01*
Y269272D01*
X281967D01*
Y260323D01*
X283057Y260466D01*
X285256Y261377D01*
X287143Y262826D01*
X288592Y264714D01*
X288756Y265110D01*
X291229Y265854D01*
X291579Y265617D01*
Y172905D01*
X291851Y171539D01*
X292625Y170381D01*
X327476Y135530D01*
X326727Y133450D01*
X325546Y133215D01*
X323810Y132055D01*
X322649Y130318D01*
X322242Y128270D01*
X322397Y127488D01*
X320917Y125488D01*
X310627D01*
X308986Y127488D01*
X309037Y127750D01*
X308630Y129798D01*
X307470Y131535D01*
X305733Y132695D01*
X303685Y133103D01*
X301636Y132695D01*
X299900Y131535D01*
X298739Y129798D01*
X298332Y127750D01*
X298384Y127488D01*
X296742Y125488D01*
X241642D01*
X241317Y125707D01*
X240158Y127488D01*
X240253Y127969D01*
Y199820D01*
X240470Y199965D01*
X241630Y201701D01*
X242038Y203750D01*
X241630Y205798D01*
X240470Y207535D01*
X238733Y208695D01*
X236685Y209102D01*
X234636Y208695D01*
X232900Y207535D01*
X231739Y205798D01*
X231332Y203750D01*
X231739Y201701D01*
X232900Y199965D01*
X233116Y199820D01*
Y129447D01*
X196488Y92819D01*
X182000D01*
Y94750D01*
X174000D01*
X172000Y94750D01*
X170569Y96123D01*
Y101627D01*
X172000Y103000D01*
X182000D01*
Y103000D01*
X183750D01*
Y103000D01*
X191750D01*
X193750Y103000D01*
X195750Y103000D01*
X203750D01*
Y114000D01*
X203750Y114000D01*
X203750D01*
X204749Y115555D01*
X217716Y128522D01*
X219247Y128827D01*
X220984Y129987D01*
X222144Y131724D01*
X222551Y133772D01*
X222144Y135820D01*
X220984Y137557D01*
X219247Y138717D01*
X217198Y139125D01*
X216356Y138957D01*
X216231Y138998D01*
X214645Y140602D01*
X214703Y141042D01*
X205508D01*
Y131847D01*
X206855Y132024D01*
X207011Y131886D01*
X207641Y129982D01*
X195866Y118207D01*
X194982Y116884D01*
X194826Y116098D01*
X193865Y115739D01*
X192319Y116954D01*
Y118750D01*
X192047Y120116D01*
X191273Y121273D01*
X181366Y131181D01*
X181931Y133444D01*
X183728Y134823D01*
X185411Y137016D01*
X186469Y139571D01*
X186830Y142312D01*
X186469Y145053D01*
X185411Y147608D01*
X184395Y148931D01*
X185382Y150931D01*
X191026D01*
X192392Y151203D01*
X193550Y151977D01*
X199770Y158197D01*
X201497Y157481D01*
X204238Y157120D01*
X206980Y157481D01*
X209534Y158539D01*
X211728Y160223D01*
X213411Y162416D01*
X214469Y164971D01*
X214830Y167712D01*
X214469Y170453D01*
X213411Y173008D01*
X211728Y175201D01*
X209534Y176885D01*
X206980Y177943D01*
X204238Y178304D01*
X201497Y177943D01*
X198943Y176885D01*
X196749Y175201D01*
X195066Y173008D01*
X194008Y170453D01*
X193647Y167712D01*
X194008Y164971D01*
X194723Y163244D01*
X189548Y158069D01*
X184206D01*
X183527Y160069D01*
X183728Y160223D01*
X185411Y162416D01*
X186469Y164971D01*
X186830Y167712D01*
X186469Y170453D01*
X185754Y172181D01*
X192773Y179200D01*
X193547Y180358D01*
X193819Y181723D01*
Y205291D01*
X195819Y205970D01*
X196721Y204794D01*
X198922Y203104D01*
X201487Y202042D01*
X202968Y201847D01*
Y212312D01*
Y222777D01*
X201487Y222582D01*
X198922Y221520D01*
X196721Y219830D01*
X195819Y218654D01*
X193819Y219333D01*
Y223700D01*
X193547Y225066D01*
X192773Y226224D01*
X185754Y233244D01*
X186469Y234971D01*
X186830Y237712D01*
X186469Y240453D01*
X185411Y243008D01*
X183935Y244931D01*
X184194Y245983D01*
X184759Y246931D01*
X189972D01*
X194723Y242181D01*
X194008Y240453D01*
X193647Y237712D01*
X194008Y234971D01*
X195066Y232416D01*
X196749Y230223D01*
X198943Y228539D01*
X201497Y227481D01*
X204238Y227120D01*
X206980Y227481D01*
X209534Y228539D01*
X211728Y230223D01*
X213411Y232416D01*
X214469Y234971D01*
X214830Y237712D01*
X214469Y240453D01*
X213411Y243008D01*
X211728Y245201D01*
X209534Y246885D01*
X206980Y247943D01*
X204238Y248304D01*
X201497Y247943D01*
X199770Y247227D01*
X193974Y253023D01*
X192816Y253797D01*
X191450Y254069D01*
X166250D01*
X164884Y253797D01*
X163727Y253023D01*
X151302Y240599D01*
X149197Y241322D01*
X148220Y242785D01*
X146483Y243945D01*
X144435Y244352D01*
X143502Y244167D01*
X141550Y244050D01*
X141550Y244050D01*
X141550Y244050D01*
X130550D01*
Y244050D01*
X129258Y243514D01*
X128588Y244184D01*
X127265Y245068D01*
X126050Y245310D01*
Y246800D01*
X118050D01*
X116051Y246800D01*
Y246800D01*
X116050D01*
Y246800D01*
X106050D01*
Y244869D01*
X104617D01*
X103251Y244597D01*
X102093Y243823D01*
X99427Y241157D01*
X99226Y241023D01*
X99003Y240800D01*
X97003Y241628D01*
Y266075D01*
X99003Y266682D01*
X99650Y265715D01*
X101386Y264554D01*
X103435Y264147D01*
X105483Y264554D01*
X107220Y265715D01*
X108380Y267451D01*
X108787Y269500D01*
X108380Y271548D01*
X107220Y273285D01*
X105483Y274445D01*
X103435Y274853D01*
X101386Y274445D01*
X99650Y273285D01*
X99003Y272317D01*
X97003Y272924D01*
Y302777D01*
X99805Y305579D01*
X100579Y306736D01*
X100851Y308102D01*
Y311283D01*
X101510Y313010D01*
X117780D01*
Y330550D01*
X119050D01*
Y331820D01*
X136590D01*
Y348090D01*
X131925D01*
X131552Y350090D01*
X132965Y351035D01*
X134181Y352854D01*
X134608Y355000D01*
Y374392D01*
X294308D01*
X294375Y373541D01*
X295495Y368873D01*
X297333Y364437D01*
X299841Y360344D01*
X302959Y356693D01*
X306610Y353576D01*
X310703Y351067D01*
X315138Y349230D01*
X319806Y348109D01*
X324593Y347733D01*
X329379Y348109D01*
X334047Y349230D01*
X338482Y351067D01*
X342575Y353576D01*
X346226Y356693D01*
X349344Y360344D01*
X351852Y364437D01*
X353689Y368873D01*
X354810Y373541D01*
X354877Y374392D01*
X401642D01*
Y339778D01*
D02*
G37*
G36*
X84000Y349392D02*
X100050D01*
X101510Y348090D01*
X101510Y347392D01*
Y334316D01*
X99510Y333247D01*
X99330Y333367D01*
X97282Y333775D01*
X95234Y333367D01*
X93497Y332207D01*
X92337Y330470D01*
X91929Y328422D01*
X92337Y326374D01*
X93497Y324637D01*
X93713Y324492D01*
Y319498D01*
X91713Y318819D01*
X91582Y318990D01*
X89368Y320689D01*
X86790Y321757D01*
X84022Y322122D01*
X81255Y321757D01*
X78677Y320689D01*
X76462Y318990D01*
X74763Y316776D01*
X73695Y314197D01*
X73331Y311430D01*
X73695Y308663D01*
X74763Y306084D01*
X75333Y305342D01*
X75007Y303369D01*
X74904Y303299D01*
X73743Y301563D01*
X73336Y299514D01*
X73743Y297466D01*
X74904Y295729D01*
X76640Y294569D01*
X78689Y294161D01*
X78944Y294212D01*
X80732Y292424D01*
Y266800D01*
X78801D01*
Y258800D01*
X78800Y256800D01*
X78801Y254319D01*
X76800Y253023D01*
X75627Y253256D01*
X73578Y252849D01*
X71842Y251689D01*
X71697Y251472D01*
X68339D01*
X66973Y251201D01*
X65815Y250427D01*
X61527Y246139D01*
X60753Y244981D01*
X60620Y244309D01*
X59205Y243372D01*
X58667Y243270D01*
X57050Y243270D01*
X49050D01*
Y232270D01*
X47401Y231424D01*
X44924D01*
Y212424D01*
X57989D01*
X58980Y210424D01*
X58264Y209424D01*
X54425D01*
Y190424D01*
X69424D01*
X71080Y189593D01*
X72562Y188602D01*
X74611Y188195D01*
X76659Y188602D01*
X78396Y189763D01*
X79556Y191499D01*
X79963Y193548D01*
X79556Y195596D01*
X78487Y197196D01*
X78392Y197373D01*
X78158Y199897D01*
X78695Y200702D01*
X79103Y202750D01*
X78695Y204798D01*
X78116Y205665D01*
X78114Y206145D01*
X78584Y207938D01*
X78709Y208104D01*
X79267Y208477D01*
X82458Y211668D01*
X83232Y212826D01*
X83503Y214191D01*
Y230772D01*
X86972Y234240D01*
X87745Y235398D01*
X87866Y236005D01*
X89866Y235808D01*
Y75147D01*
X87866Y74541D01*
X87335Y75335D01*
X85599Y76495D01*
X83550Y76903D01*
X81502Y76495D01*
X79765Y75335D01*
X78605Y73598D01*
X78198Y71550D01*
X78605Y69502D01*
X79765Y67765D01*
X81502Y66605D01*
X83550Y66197D01*
X85599Y66605D01*
X87335Y67765D01*
X87866Y68559D01*
X89866Y67952D01*
Y50250D01*
X90138Y48884D01*
X90911Y47726D01*
X96883Y41755D01*
X96832Y41500D01*
X97239Y39451D01*
X98400Y37715D01*
X100136Y36554D01*
X102185Y36147D01*
X104233Y36554D01*
X105970Y37715D01*
X107130Y39451D01*
X107538Y41500D01*
X107130Y43548D01*
X105970Y45285D01*
X104233Y46445D01*
X102185Y46852D01*
X101929Y46802D01*
X97003Y51728D01*
Y77178D01*
X99003Y78820D01*
X99398Y78741D01*
X101447Y79149D01*
X103183Y80309D01*
X104344Y82046D01*
X104751Y84094D01*
X104344Y86142D01*
X103183Y87879D01*
X101447Y89039D01*
X99398Y89447D01*
X99003Y89368D01*
X97003Y91010D01*
Y212122D01*
X99003Y212950D01*
X102165Y209789D01*
X103322Y209015D01*
X104688Y208743D01*
X166350D01*
X167066Y207016D01*
X168749Y204823D01*
X169025Y204611D01*
X168526Y202473D01*
X168386Y202445D01*
X166650Y201285D01*
X165489Y199548D01*
X165082Y197500D01*
X165489Y195451D01*
X166650Y193715D01*
X168386Y192554D01*
X170435Y192147D01*
X172483Y192554D01*
X174220Y193715D01*
X175380Y195451D01*
X175788Y197500D01*
X175380Y199548D01*
X175184Y199842D01*
X176238Y201720D01*
X178980Y202081D01*
X181534Y203139D01*
X183728Y204823D01*
X184681Y206065D01*
X186681Y205386D01*
Y183202D01*
X180707Y177227D01*
X178980Y177943D01*
X176238Y178304D01*
X173497Y177943D01*
X170943Y176885D01*
X168749Y175201D01*
X167066Y173008D01*
X166350Y171281D01*
X131462D01*
X130096Y171009D01*
X128939Y170235D01*
X127572Y168869D01*
X124050D01*
Y174800D01*
X109051D01*
Y155800D01*
X124050D01*
Y161731D01*
X129050D01*
X130416Y162003D01*
X131573Y162777D01*
X132940Y164143D01*
X166350D01*
X167066Y162416D01*
X168749Y160223D01*
X169646Y159534D01*
X169444Y157169D01*
X169227Y157023D01*
X158097Y145893D01*
X157323Y144736D01*
X157051Y143370D01*
Y127130D01*
X157323Y125764D01*
X158097Y124607D01*
X163431Y119272D01*
Y114000D01*
X162000D01*
Y103000D01*
X163431D01*
Y94750D01*
X162000D01*
Y83750D01*
X171733Y83750D01*
X172135Y82363D01*
X170886Y81039D01*
X156098D01*
Y92090D01*
X142098D01*
Y90192D01*
X141242Y89674D01*
X140098Y89347D01*
X138649Y90315D01*
X136600Y90723D01*
X134552Y90315D01*
X132815Y89155D01*
X131655Y87418D01*
X131248Y85370D01*
X131655Y83322D01*
X132815Y81585D01*
X134552Y80425D01*
X136600Y80017D01*
X138649Y80425D01*
X140098Y81393D01*
X141242Y81067D01*
X142098Y80548D01*
Y78090D01*
X145832D01*
X146575Y76979D01*
X148607Y74947D01*
X149764Y74173D01*
X151130Y73901D01*
X154677D01*
X155284Y71901D01*
X154457Y71349D01*
X153297Y69612D01*
X152889Y67564D01*
X153297Y65516D01*
X154457Y63779D01*
X156194Y62619D01*
X158242Y62211D01*
X160290Y62619D01*
X162027Y63779D01*
X163187Y65516D01*
X163595Y67564D01*
X163187Y69612D01*
X162027Y71349D01*
X161200Y71901D01*
X161807Y73901D01*
X173057D01*
X173463Y73406D01*
X173871Y71358D01*
X175031Y69621D01*
X176768Y68461D01*
X178816Y68053D01*
X180864Y68461D01*
X182601Y69621D01*
X182746Y69837D01*
X187778D01*
X189144Y70109D01*
X190302Y70883D01*
X192704Y73284D01*
X194551Y72519D01*
Y28422D01*
X194823Y27057D01*
X195597Y25899D01*
X213719Y7777D01*
X213972Y7607D01*
X213366Y5607D01*
X134608D01*
Y25000D01*
X134181Y27146D01*
X132965Y28965D01*
X131146Y30181D01*
X129000Y30607D01*
X84000D01*
X83750Y30558D01*
X80202Y30907D01*
X79114Y31237D01*
X76550Y32015D01*
X73185Y33814D01*
X70235Y36235D01*
X67814Y39185D01*
X66015Y42550D01*
X64907Y46202D01*
X64558Y49749D01*
X64608Y50000D01*
Y120750D01*
X64181Y122896D01*
X62965Y124715D01*
X61146Y125931D01*
X59000Y126357D01*
X9551D01*
X9345Y127093D01*
X6013Y142618D01*
X5608Y145281D01*
Y234719D01*
X6013Y237382D01*
X9345Y252906D01*
X9551Y253642D01*
X59000D01*
X61146Y254069D01*
X62965Y255285D01*
X64181Y257104D01*
X64608Y259250D01*
Y330000D01*
X64558Y330250D01*
X64907Y333798D01*
X66015Y337449D01*
X67814Y340815D01*
X70235Y343765D01*
X73185Y346186D01*
X76550Y347985D01*
X80202Y349093D01*
X83750Y349442D01*
X84000Y349392D01*
D02*
G37*
G36*
X268716Y342527D02*
X270764Y342119D01*
X270870Y342140D01*
X272870Y340499D01*
Y299327D01*
X270870Y298499D01*
X258167Y311202D01*
X258932Y313050D01*
X266550D01*
Y341568D01*
X268550Y342637D01*
X268716Y342527D01*
D02*
G37*
G36*
X498442Y295000D02*
X498869Y292854D01*
X500085Y291035D01*
X501904Y289819D01*
X504050Y289392D01*
X534896D01*
X536325Y287392D01*
X536147Y286500D01*
X536212Y286172D01*
X535976Y284172D01*
X535976D01*
X535976Y284172D01*
Y277371D01*
X534129Y276606D01*
X531961Y278773D01*
X530804Y279547D01*
X530500Y279607D01*
Y281750D01*
X520500D01*
Y281750D01*
X520500D01*
Y281750D01*
X510500D01*
Y279819D01*
X509000D01*
X507634Y279547D01*
X506928Y279075D01*
X506476Y279165D01*
X504428Y278757D01*
X502691Y277597D01*
X502546Y277380D01*
X500546Y277987D01*
Y279312D01*
X490783D01*
X488680Y281415D01*
X488154Y281766D01*
Y291392D01*
X461825D01*
X460756Y293392D01*
X461130Y293951D01*
X461538Y296000D01*
X461130Y298048D01*
X459970Y299785D01*
X458233Y300945D01*
X456185Y301353D01*
X454136Y300945D01*
X452400Y299785D01*
X451239Y298048D01*
X450832Y296000D01*
X451239Y293951D01*
X451613Y293392D01*
X450544Y291392D01*
X448476D01*
X447338Y293392D01*
X447658Y295000D01*
Y336392D01*
X498442D01*
Y295000D01*
D02*
G37*
G36*
X706300Y270550D02*
X706300D01*
X706715Y269548D01*
X681483Y244316D01*
X681228Y244367D01*
X679180Y243959D01*
X678897Y243771D01*
X677961Y244131D01*
X677003Y244911D01*
Y260431D01*
X690250D01*
X691615Y260703D01*
X692773Y261476D01*
X697023Y265727D01*
X697797Y266884D01*
X698069Y268250D01*
Y283772D01*
X699228Y284931D01*
X706300D01*
Y270550D01*
D02*
G37*
G36*
X503453Y268598D02*
Y268453D01*
X502293Y266716D01*
X501885Y264668D01*
X502293Y262620D01*
X503453Y260883D01*
X505190Y259723D01*
X507238Y259315D01*
X508570Y259580D01*
X510082Y259713D01*
X511794Y258509D01*
X511931Y258377D01*
Y257356D01*
X512203Y255991D01*
X512977Y254833D01*
X522081Y245729D01*
X522359Y244332D01*
X523519Y242595D01*
X525256Y241435D01*
X527304Y241027D01*
X529352Y241435D01*
X531089Y242595D01*
X532249Y244332D01*
X532300Y244587D01*
X534470Y245245D01*
X543060Y236656D01*
X542294Y234808D01*
X530461D01*
Y229991D01*
X529945Y229562D01*
X529341Y229312D01*
X528461Y229133D01*
X527392Y229847D01*
X526758Y229973D01*
Y232094D01*
X516758D01*
Y232094D01*
X514758Y232094D01*
X506758D01*
Y229976D01*
X506108Y229847D01*
X504951Y229073D01*
X490492Y214615D01*
X488645Y215380D01*
Y247124D01*
X495045Y253524D01*
X495300Y253473D01*
X497348Y253881D01*
X499085Y255041D01*
X500245Y256778D01*
X500653Y258826D01*
X500245Y260874D01*
X499085Y262611D01*
X498477Y263018D01*
X497681Y264703D01*
X497989Y265566D01*
X498343Y266096D01*
X498615Y267462D01*
Y268312D01*
X500546D01*
Y268312D01*
X502546Y269284D01*
X503453Y268598D01*
D02*
G37*
G36*
X841783Y365783D02*
X845261Y347020D01*
X847751Y328100D01*
X849249Y309076D01*
X849736Y290469D01*
X849643Y290000D01*
Y219608D01*
X796616D01*
X796478Y219580D01*
X791987Y219227D01*
X787472Y218143D01*
X783182Y216366D01*
X779222Y213940D01*
X775692Y210924D01*
X772676Y207393D01*
X770250Y203434D01*
X768473Y199144D01*
X767389Y194629D01*
X767177Y191937D01*
X766142Y190366D01*
X761806D01*
X760514Y192366D01*
X760749Y193548D01*
X760341Y195596D01*
X759220Y197274D01*
Y205366D01*
X766142D01*
Y220366D01*
X744142D01*
Y219787D01*
X742294Y219021D01*
X740212Y221104D01*
X740873Y223271D01*
X742285Y224215D01*
X743445Y225952D01*
X743853Y228000D01*
X743544Y229550D01*
X744390Y231060D01*
X744847Y231550D01*
X747300D01*
Y232364D01*
X748235Y232801D01*
X749300Y232911D01*
X751085Y230585D01*
X753696Y228581D01*
X756737Y227322D01*
X760000Y226892D01*
X763263Y227322D01*
X766304Y228581D01*
X768915Y230585D01*
X770919Y233196D01*
X772179Y236237D01*
X772608Y239500D01*
X772179Y242763D01*
X770919Y245804D01*
X768915Y248415D01*
X766304Y250419D01*
X763263Y251678D01*
X760000Y252108D01*
X756737Y251678D01*
X753696Y250419D01*
X751085Y248415D01*
X749300Y246089D01*
X748235Y246199D01*
X747300Y246636D01*
Y247550D01*
X730467D01*
Y257949D01*
X739360Y266842D01*
X741203Y265857D01*
X741140Y265536D01*
X741547Y263487D01*
X742707Y261751D01*
X744444Y260590D01*
X746492Y260183D01*
X748541Y260590D01*
X750277Y261751D01*
X751438Y263487D01*
X751845Y265536D01*
X751623Y266651D01*
X753438Y267779D01*
X753696Y267581D01*
X756737Y266322D01*
X760000Y265892D01*
X763263Y266322D01*
X766304Y267581D01*
X768915Y269585D01*
X770919Y272196D01*
X772179Y275237D01*
X772608Y278500D01*
X772179Y281763D01*
X770919Y284804D01*
X768915Y287415D01*
X766304Y289419D01*
X763263Y290678D01*
X760000Y291108D01*
X756737Y290678D01*
X753696Y289419D01*
X751085Y287415D01*
X749300Y285089D01*
X748235Y285199D01*
X747300Y285636D01*
Y286550D01*
X744109D01*
X742629Y287661D01*
X742318Y289222D01*
X741434Y290545D01*
X741434Y290545D01*
X738013Y293966D01*
Y300750D01*
X739435D01*
Y310750D01*
X731435D01*
X729435Y310750D01*
Y320750D01*
X728013D01*
Y324546D01*
X732735Y329268D01*
X734265Y329572D01*
X736002Y330733D01*
X737162Y332469D01*
X737570Y334518D01*
X737162Y336566D01*
X736002Y338303D01*
X734265Y339463D01*
X732217Y339870D01*
X730168Y339463D01*
X728432Y338303D01*
X727271Y336566D01*
X726967Y335036D01*
X722858Y330927D01*
X720858Y331755D01*
Y374392D01*
X839716D01*
X841783Y365783D01*
D02*
G37*
G36*
X617126Y280770D02*
X624761D01*
Y279500D01*
X626031D01*
Y266960D01*
X632396D01*
Y267000D01*
X652092D01*
X652237Y266782D01*
X656864Y262156D01*
X656098Y260308D01*
X623619D01*
Y260796D01*
X623347Y262162D01*
X622574Y263319D01*
X620933Y264960D01*
X621089Y265878D01*
X621978Y266960D01*
X623491D01*
Y278230D01*
X617126D01*
Y272040D01*
X615580Y270771D01*
X615390Y270809D01*
X613342Y270401D01*
X612750Y270006D01*
X610750Y271075D01*
Y276000D01*
X610750D01*
X610853Y277500D01*
X610762Y277955D01*
X610445Y279548D01*
X609285Y281285D01*
X607548Y282445D01*
X605500Y282853D01*
X603452Y282445D01*
X601715Y281285D01*
X600555Y279548D01*
X600209Y277810D01*
X599750Y276000D01*
X599750D01*
X599750Y274136D01*
Y265000D01*
X601378D01*
X601482Y264478D01*
X602366Y263155D01*
X603214Y262308D01*
X602385Y260308D01*
X583468D01*
X583348Y260916D01*
X582574Y262073D01*
X579488Y265159D01*
X580250Y267000D01*
X580250D01*
Y277000D01*
X580250D01*
X580250Y279000D01*
Y287000D01*
X569250D01*
Y287000D01*
X567980Y285958D01*
X567250Y286103D01*
X565202Y285695D01*
X563465Y284535D01*
X562305Y282798D01*
X561897Y280750D01*
X562305Y278702D01*
X563465Y276965D01*
Y275995D01*
X563150Y275785D01*
X561989Y274048D01*
X561582Y272000D01*
X561844Y270681D01*
X560616Y268681D01*
X557390D01*
Y274172D01*
X557391D01*
Y274172D01*
X557390D01*
Y284172D01*
X557391Y284172D01*
X557391D01*
X557222Y286172D01*
X557287Y286500D01*
X557110Y287392D01*
X558538Y289392D01*
X617126D01*
Y280770D01*
D02*
G37*
G36*
X407250Y289392D02*
X412964D01*
Y266392D01*
X427924D01*
Y266352D01*
X434289D01*
Y278892D01*
X436829D01*
Y266352D01*
X443194D01*
Y266392D01*
X486101D01*
X486929Y264392D01*
X478553Y256015D01*
X477779Y254858D01*
X477507Y253492D01*
Y238552D01*
X450548D01*
Y233694D01*
X433876D01*
X432578Y234561D01*
X430530Y234969D01*
X428482Y234561D01*
X427548Y233938D01*
X425548Y234572D01*
Y238552D01*
X414627D01*
Y243202D01*
X414316Y244762D01*
X413432Y246085D01*
X413432Y246085D01*
X403763Y255755D01*
Y288493D01*
X405763Y289688D01*
X407250Y289392D01*
D02*
G37*
G36*
X605961Y240308D02*
X611392D01*
Y230474D01*
X611664Y229108D01*
X612437Y227950D01*
X612883Y227505D01*
X612832Y227250D01*
X613017Y226318D01*
X611607Y224318D01*
X583017D01*
X582390Y225926D01*
X582365Y226318D01*
X585995Y229948D01*
X586250Y229897D01*
X588298Y230305D01*
X588912Y230715D01*
X590650Y231715D01*
X592386Y230554D01*
X594435Y230147D01*
X596483Y230554D01*
X598220Y231715D01*
X599380Y233451D01*
X599787Y235500D01*
X599654Y236172D01*
X602484Y239002D01*
X603257Y240160D01*
X603287Y240308D01*
X603960D01*
Y247538D01*
X605961Y248425D01*
Y240308D01*
D02*
G37*
G36*
X168493Y244868D02*
X167066Y243008D01*
X166008Y240453D01*
X165647Y237712D01*
X166008Y234971D01*
X167066Y232416D01*
X168749Y230223D01*
X170943Y228539D01*
X173497Y227481D01*
X176238Y227120D01*
X178980Y227481D01*
X180707Y228197D01*
X186681Y222222D01*
Y219238D01*
X184681Y218559D01*
X183728Y219801D01*
X181534Y221485D01*
X178980Y222543D01*
X176238Y222904D01*
X173497Y222543D01*
X170943Y221485D01*
X168749Y219801D01*
X167066Y217608D01*
X166350Y215881D01*
X117824D01*
X116240Y217881D01*
X116351Y218440D01*
X116229Y219050D01*
X117790Y221050D01*
X126050D01*
Y222981D01*
X127300D01*
X128666Y223253D01*
X128782Y223331D01*
X130550Y224050D01*
X130550Y224050D01*
X130550Y224050D01*
X141550D01*
Y225481D01*
X144800D01*
X146166Y225753D01*
X147323Y226527D01*
X166987Y246190D01*
X168493Y244868D01*
D02*
G37*
G36*
X73578Y242958D02*
X75627Y242551D01*
X77675Y242958D01*
X78880Y243763D01*
X80634Y243085D01*
X80880Y242877D01*
Y238242D01*
X77411Y234773D01*
X76638Y233615D01*
X76366Y232250D01*
Y215670D01*
X75265Y214569D01*
X65500D01*
X64134Y214297D01*
X62977Y213523D01*
X61924Y212471D01*
X59924Y213300D01*
Y230270D01*
X59924Y231424D01*
X61574Y232270D01*
X69050D01*
Y242973D01*
X70182Y243915D01*
X71842Y244119D01*
X73578Y242958D01*
D02*
G37*
G36*
X722310Y229160D02*
X722310Y229160D01*
X722620Y227599D01*
X723505Y226276D01*
X739798Y209982D01*
X739798Y209982D01*
X741121Y209098D01*
X742682Y208788D01*
X744142D01*
Y205366D01*
X751064D01*
Y196514D01*
X750451Y195596D01*
X750043Y193548D01*
X750278Y192366D01*
X748986Y190366D01*
X744142D01*
Y190366D01*
X742750Y189500D01*
X728750D01*
Y186578D01*
X726500D01*
X724939Y186268D01*
X723616Y185384D01*
X723616Y185384D01*
X714598Y176365D01*
X712750Y177131D01*
Y181250D01*
X701750D01*
Y181250D01*
X701250D01*
Y181250D01*
X690250D01*
Y179377D01*
X684460D01*
Y179808D01*
X668958D01*
X667717Y181808D01*
X684460D01*
Y187419D01*
X684923Y187511D01*
X686081Y188285D01*
X688273Y190477D01*
X689047Y191634D01*
X689319Y193000D01*
X698500D01*
Y204000D01*
X687500D01*
Y203480D01*
X686353Y202825D01*
X684460Y204013D01*
Y208078D01*
X685473Y208825D01*
X687226Y209389D01*
X688294Y209159D01*
X689000Y209000D01*
Y209000D01*
X690874Y209000D01*
X700000D01*
Y219000D01*
X701475Y220267D01*
X702746Y221116D01*
X705130Y223500D01*
X705130Y223500D01*
X705630Y224248D01*
X707630Y223641D01*
Y221400D01*
X706708D01*
Y210400D01*
X716708D01*
Y221400D01*
X716708D01*
X716594Y223400D01*
X717884Y224690D01*
X717884Y224690D01*
X718768Y226013D01*
X719078Y227574D01*
X719078Y227574D01*
Y231550D01*
X722310D01*
Y229160D01*
D02*
G37*
G36*
X657465Y206215D02*
X659202Y205055D01*
X661250Y204647D01*
X662460Y204888D01*
X664461Y203609D01*
Y194377D01*
X663583D01*
X663523Y194365D01*
X660510D01*
X660265Y195596D01*
X659105Y197333D01*
X657368Y198493D01*
X655320Y198901D01*
X653272Y198493D01*
X651535Y197333D01*
X650375Y195596D01*
X649967Y193548D01*
X650375Y191500D01*
X651535Y189763D01*
X653272Y188603D01*
X655320Y188195D01*
X656031Y186324D01*
X656095Y185761D01*
X656074Y185700D01*
X655305Y184548D01*
X654897Y182500D01*
X655305Y180452D01*
X656465Y178715D01*
X656681Y178570D01*
Y175815D01*
X656953Y174449D01*
X657727Y173292D01*
X659794Y171224D01*
X659029Y169377D01*
X649308D01*
X647942Y169105D01*
X646785Y168331D01*
X642755Y164302D01*
X642500Y164353D01*
X640452Y163945D01*
X638715Y162785D01*
X637555Y161048D01*
X637147Y159000D01*
X637555Y156952D01*
X638715Y155215D01*
X640452Y154055D01*
X642500Y153647D01*
X642802Y153707D01*
X644805Y153202D01*
X645965Y151465D01*
X646203Y151306D01*
X647395Y149780D01*
X646767Y148707D01*
X646669Y148560D01*
X646398Y147194D01*
Y136874D01*
X645085Y136111D01*
X644445Y135998D01*
X630670Y149773D01*
X629512Y150547D01*
X628146Y150819D01*
X582228D01*
X581463Y152666D01*
X587995Y159198D01*
X588250Y159147D01*
X590298Y159555D01*
X592035Y160715D01*
X593195Y162452D01*
X593603Y164500D01*
X593195Y166548D01*
X592035Y168285D01*
X590298Y169445D01*
X588250Y169853D01*
X587069Y169618D01*
X585069Y170911D01*
Y182218D01*
X600046Y197196D01*
X601897Y196250D01*
X602305Y194202D01*
X603465Y192465D01*
X605202Y191305D01*
X607250Y190897D01*
X609298Y191305D01*
X611035Y192465D01*
X612195Y194202D01*
X612603Y196250D01*
X614250Y197897D01*
X616298Y198305D01*
X618035Y199465D01*
X619195Y201202D01*
X619603Y203250D01*
X619368Y204431D01*
X620661Y206431D01*
X657320D01*
X657465Y206215D01*
D02*
G37*
G36*
X324926Y171741D02*
X324267Y169572D01*
X322859Y168631D01*
X321699Y166894D01*
X321291Y164846D01*
X321699Y162798D01*
X322859Y161061D01*
X324596Y159901D01*
X326644Y159493D01*
X328692Y159901D01*
X330429Y161061D01*
X331370Y162469D01*
X333539Y163128D01*
X338751Y157916D01*
X340074Y157032D01*
X341634Y156722D01*
X341634Y156722D01*
X386389D01*
X386389Y156722D01*
X387950Y157032D01*
X389273Y157916D01*
X393701Y162344D01*
X395548Y161578D01*
Y161552D01*
X406470D01*
Y158552D01*
X395548D01*
Y142252D01*
X382019D01*
X380654Y141981D01*
X380033Y141566D01*
X379937Y141547D01*
X378780Y140773D01*
X373451Y135444D01*
X371007Y135829D01*
X370535Y136535D01*
X368798Y137695D01*
X366750Y138103D01*
X366353Y138500D01*
X365945Y140548D01*
X364785Y142285D01*
X363048Y143445D01*
X361000Y143853D01*
X358952Y143445D01*
X357215Y142285D01*
X356055Y140548D01*
X355647Y138500D01*
X355683Y138319D01*
X354042Y136319D01*
X336781D01*
X298717Y174383D01*
Y183822D01*
X300717Y185303D01*
X301498Y185147D01*
X303546Y185555D01*
X305283Y186715D01*
X306020Y187818D01*
X308309Y188358D01*
X324926Y171741D01*
D02*
G37*
G36*
X395548Y221552D02*
X406470D01*
Y218552D01*
X395548D01*
Y201552D01*
X415299D01*
X416423Y199689D01*
X416419Y199552D01*
X416033Y197612D01*
X416441Y195564D01*
X417601Y193827D01*
X419338Y192667D01*
X421386Y192259D01*
X423434Y192667D01*
X425171Y193827D01*
X426331Y195564D01*
X426739Y197612D01*
X426331Y199660D01*
X426255Y199775D01*
X425549Y201552D01*
X425549Y201552D01*
X425548Y201552D01*
Y206247D01*
X425735Y206284D01*
X427058Y207168D01*
X429858Y209968D01*
X429858Y209968D01*
X430742Y211291D01*
X431052Y212852D01*
X431052Y212852D01*
Y216618D01*
X431919Y217916D01*
X432327Y219964D01*
X431919Y222012D01*
X431632Y222443D01*
X432552Y224665D01*
X432578Y224671D01*
X433876Y225538D01*
X450548D01*
Y221552D01*
X461470D01*
Y218552D01*
X450548D01*
Y201552D01*
X458484D01*
X459309Y199552D01*
X444746Y184990D01*
X442903Y185975D01*
X442995Y186436D01*
X442587Y188484D01*
X441427Y190221D01*
X439690Y191381D01*
X437642Y191789D01*
X435594Y191381D01*
X433857Y190221D01*
X432697Y188484D01*
X432289Y186436D01*
X432697Y184388D01*
X433857Y182651D01*
X435594Y181491D01*
X437642Y181083D01*
X438103Y181175D01*
X439088Y179332D01*
X431508Y171752D01*
X431000Y171853D01*
X428952Y171445D01*
X427548Y170508D01*
X426312Y170884D01*
X425548Y171391D01*
Y178552D01*
X425549Y178552D01*
X425107Y180552D01*
X425469Y182372D01*
X425061Y184420D01*
X423901Y186157D01*
X422164Y187317D01*
X420116Y187725D01*
X418068Y187317D01*
X416770Y186450D01*
X415036D01*
X415036Y186450D01*
X413475Y186140D01*
X412152Y185256D01*
X412152Y185256D01*
X407665Y180768D01*
X406781Y179445D01*
X406603Y178552D01*
X395548D01*
Y174112D01*
X394081Y173820D01*
X392757Y172936D01*
X390257Y170436D01*
X387683Y170690D01*
X387585Y170835D01*
X385849Y171995D01*
X383800Y172403D01*
X381752Y171995D01*
X380015Y170835D01*
X378855Y169098D01*
X378448Y167050D01*
X378482Y166878D01*
X376840Y164878D01*
X343324D01*
X335851Y172351D01*
X336261Y174769D01*
X337033Y175285D01*
X338193Y177022D01*
X338601Y179070D01*
X338193Y181118D01*
X337326Y182416D01*
Y218651D01*
X338195Y219952D01*
X338603Y222000D01*
X338292Y223564D01*
X339405Y225564D01*
X395548D01*
Y221552D01*
D02*
G37*
G36*
X530461Y196327D02*
Y186808D01*
X550460D01*
Y187239D01*
X561336D01*
X562316Y185239D01*
X561647Y184377D01*
X550460D01*
Y184808D01*
X530461D01*
Y174886D01*
X526550D01*
Y181800D01*
X516692D01*
X516535Y182035D01*
X514798Y183195D01*
X512750Y183603D01*
X510702Y183195D01*
X508965Y182035D01*
X507805Y180298D01*
X507781Y180180D01*
X507773Y180146D01*
X506750Y178353D01*
X505742Y178152D01*
X503705Y179295D01*
X503512Y179556D01*
X503402Y180301D01*
X506677Y183577D01*
X507317Y184005D01*
X511193Y187881D01*
X511621Y188521D01*
X514122Y191021D01*
X520848D01*
X522213Y191293D01*
X523371Y192067D01*
X528707Y197402D01*
X530461Y196327D01*
D02*
G37*
G36*
X473938Y186316D02*
X475452Y185305D01*
X477500Y184897D01*
X479296Y185254D01*
X479555Y183952D01*
X480715Y182215D01*
X482452Y181055D01*
X484500Y180647D01*
X484997Y180746D01*
X486997Y179132D01*
Y153160D01*
X482396Y148559D01*
X480548Y149325D01*
Y158552D01*
X469627D01*
Y161552D01*
X480548D01*
Y178552D01*
X458966D01*
X458200Y180400D01*
X461915Y184114D01*
X463467Y185299D01*
X465203Y184139D01*
X467252Y183732D01*
X469300Y184139D01*
X471036Y185299D01*
X471562Y186087D01*
X473619Y186448D01*
X473938Y186316D01*
D02*
G37*
G36*
X768473Y180856D02*
X770250Y176566D01*
X772676Y172607D01*
X775692Y169076D01*
X777021Y167940D01*
X776283Y165940D01*
X734250D01*
Y150199D01*
X732338Y148916D01*
X731292Y149435D01*
X731250Y149762D01*
Y150750D01*
X716250D01*
X715500Y152439D01*
Y157500D01*
X713078D01*
Y163311D01*
X726750Y176982D01*
X728750Y176154D01*
Y175500D01*
X742750D01*
Y175500D01*
X744142Y175366D01*
Y175366D01*
X744695Y175366D01*
X766142D01*
Y181997D01*
X768142Y182234D01*
X768473Y180856D01*
D02*
G37*
G36*
X566431Y213284D02*
X567588Y212511D01*
X568954Y212239D01*
X586226D01*
X586422Y210239D01*
X586202Y210195D01*
X584465Y209035D01*
X583305Y207298D01*
X582897Y205250D01*
X583305Y203202D01*
X584465Y201465D01*
X586202Y200305D01*
X588250Y199897D01*
X590216Y200288D01*
X590346Y200204D01*
X591395Y198638D01*
X578977Y186220D01*
X578203Y185062D01*
X577931Y183697D01*
Y165728D01*
X573306Y161103D01*
X570988Y161614D01*
X570865Y161951D01*
X571136Y162366D01*
X571285Y162465D01*
X572445Y164202D01*
X572853Y166250D01*
X572445Y168298D01*
X571285Y170035D01*
X569548Y171195D01*
X567500Y171603D01*
X567245Y171552D01*
X563375Y175422D01*
X564273Y177352D01*
X565074Y177511D01*
X566231Y178285D01*
X579200Y191253D01*
X579974Y192411D01*
X580245Y193777D01*
Y198720D01*
X579974Y200085D01*
X579200Y201243D01*
X574679Y205764D01*
X573521Y206538D01*
X572155Y206810D01*
X571332D01*
X571188Y207026D01*
X569451Y208186D01*
X567403Y208594D01*
X565354Y208186D01*
X563618Y207026D01*
X562457Y205289D01*
X562050Y203241D01*
X562313Y201921D01*
X561229Y201705D01*
X559492Y200545D01*
X558712Y199377D01*
X550460D01*
Y206808D01*
Y216808D01*
Y226426D01*
X551898Y227403D01*
X552191Y227525D01*
X566431Y213284D01*
D02*
G37*
G36*
X690250Y170250D02*
X701250D01*
Y170250D01*
X701750D01*
Y170250D01*
X705869D01*
X706635Y168402D01*
X706116Y167884D01*
X705232Y166561D01*
X704922Y165000D01*
X704922Y165000D01*
Y157500D01*
X702500D01*
Y152543D01*
X702000Y150750D01*
X691000D01*
Y149319D01*
X684460D01*
Y161808D01*
Y172239D01*
X690250D01*
Y170250D01*
D02*
G37*
G36*
X559698Y158755D02*
X559647Y158500D01*
X560055Y156452D01*
X561215Y154715D01*
X562952Y153555D01*
X563591Y151388D01*
X556580Y144377D01*
X550460D01*
Y151808D01*
Y162239D01*
X556214D01*
X559698Y158755D01*
D02*
G37*
G36*
X499552Y141480D02*
X499661Y141082D01*
X499305Y140548D01*
X498897Y138500D01*
X499305Y136452D01*
X500465Y134715D01*
X502202Y133555D01*
X504250Y133147D01*
X506298Y133555D01*
X508035Y134715D01*
X508237Y135017D01*
X510640Y135013D01*
X510675Y134961D01*
X515063Y130572D01*
X516221Y129799D01*
X517587Y129527D01*
X517588Y129527D01*
X522358D01*
X522503Y129311D01*
X524240Y128151D01*
X524243Y128150D01*
X524046Y126150D01*
X518588Y126150D01*
X516588Y126150D01*
X508588D01*
Y115150D01*
X510019D01*
Y104328D01*
X510291Y102963D01*
X511065Y101805D01*
X513301Y99569D01*
X513250Y99314D01*
X513657Y97265D01*
X514818Y95529D01*
X516554Y94368D01*
X518603Y93961D01*
X520651Y94368D01*
X522388Y95529D01*
X523548Y97265D01*
X523955Y99314D01*
X523548Y101362D01*
X522388Y103099D01*
X520651Y104259D01*
X518603Y104667D01*
X517157Y106042D01*
Y113777D01*
X518588Y115150D01*
X520588Y115150D01*
X528588D01*
Y117081D01*
X551060D01*
X552426Y117353D01*
X553583Y118127D01*
X554113Y118656D01*
X555961Y117891D01*
Y106308D01*
X590905D01*
X591670Y104460D01*
X591144Y103934D01*
X590260Y102611D01*
X590243Y102528D01*
X588528D01*
Y101007D01*
X587465Y100796D01*
X586142Y99912D01*
X584952Y98722D01*
X583422Y98417D01*
X581685Y97257D01*
X580525Y95520D01*
X580117Y93472D01*
X580289Y92607D01*
X578848Y90608D01*
X504050D01*
X501904Y90181D01*
X500085Y88965D01*
X498869Y87146D01*
X498442Y85000D01*
Y43608D01*
X447658D01*
Y85000D01*
X447231Y87146D01*
X446015Y88965D01*
X444196Y90181D01*
X442050Y90608D01*
X407250D01*
X405104Y90181D01*
X403285Y88965D01*
X402069Y87146D01*
X401642Y85000D01*
Y63012D01*
X399642Y61569D01*
X398780Y61741D01*
X396732Y61333D01*
X394995Y60173D01*
X393835Y58436D01*
X393427Y56388D01*
X393835Y54340D01*
X394995Y52603D01*
X396732Y51443D01*
X398780Y51035D01*
X399642Y51207D01*
X401642Y49764D01*
Y5607D01*
X386160D01*
X384550Y6550D01*
Y25550D01*
X380619D01*
Y47450D01*
X380347Y48815D01*
X379574Y49973D01*
X372537Y57009D01*
X372544Y57161D01*
X373325Y59050D01*
X374666Y59317D01*
X376403Y60477D01*
X376548Y60693D01*
X385572D01*
X386938Y60965D01*
X388095Y61739D01*
X390676Y64319D01*
X391449Y65477D01*
X391616Y66314D01*
X395652D01*
Y78314D01*
X382119D01*
Y85314D01*
X395652D01*
Y95653D01*
X477985D01*
X484721Y88917D01*
X485879Y88143D01*
X486437Y88032D01*
X486689Y87655D01*
X488426Y86495D01*
X490474Y86087D01*
X492522Y86495D01*
X494259Y87655D01*
X495419Y89392D01*
X495827Y91440D01*
X495419Y93488D01*
X494259Y95225D01*
X492522Y96385D01*
X490474Y96793D01*
X489594Y96618D01*
X489039Y97095D01*
X488417Y99085D01*
X489577Y100822D01*
X489985Y102870D01*
X489577Y104918D01*
X488417Y106655D01*
X488201Y106800D01*
Y124571D01*
X490661Y127032D01*
X490917Y126981D01*
X492965Y127388D01*
X494702Y128549D01*
X495862Y130285D01*
X496269Y132334D01*
X495862Y134382D01*
X494702Y136119D01*
X494396Y136323D01*
X494142Y138898D01*
X497317Y142072D01*
X499552Y141480D01*
D02*
G37*
G36*
X450548Y141552D02*
X472776D01*
X473541Y139704D01*
X458597Y124760D01*
X396095D01*
X388924Y131931D01*
X389038Y132500D01*
X388915Y133115D01*
X390474Y135115D01*
X440925D01*
X443705Y132335D01*
X443654Y132080D01*
X444061Y130031D01*
X445222Y128295D01*
X446958Y127134D01*
X449007Y126727D01*
X451055Y127134D01*
X452792Y128295D01*
X453952Y130031D01*
X454360Y132080D01*
X453952Y134128D01*
X452792Y135865D01*
X451055Y137025D01*
X449007Y137432D01*
X448751Y137382D01*
X444926Y141207D01*
X443768Y141981D01*
X442403Y142252D01*
X425548D01*
Y145974D01*
X450548D01*
Y141552D01*
D02*
G37*
G36*
X731250Y136750D02*
X733100Y136388D01*
Y136100D01*
X734250D01*
Y115092D01*
X726570D01*
Y115092D01*
X725570D01*
Y115092D01*
X712070D01*
Y114661D01*
X684136D01*
X668837Y129960D01*
X669602Y131808D01*
X679992D01*
X681061Y129808D01*
X681055Y129798D01*
X680647Y127750D01*
X681055Y125702D01*
X682215Y123965D01*
X683952Y122805D01*
X686000Y122397D01*
X688048Y122805D01*
X689785Y123965D01*
X689930Y124181D01*
X693000D01*
X694366Y124453D01*
X695523Y125227D01*
X699023Y128727D01*
X699797Y129884D01*
X699969Y130750D01*
X702000D01*
X702500Y132500D01*
X705071D01*
X705232Y131689D01*
X706116Y130366D01*
X709116Y127366D01*
X709116Y127366D01*
X710439Y126482D01*
X712000Y126172D01*
X720250D01*
X720250Y126172D01*
X721811Y126482D01*
X723134Y127366D01*
X726634Y130866D01*
X726634Y130866D01*
X727518Y132189D01*
X727828Y133750D01*
X727828Y133750D01*
Y136750D01*
X731250D01*
X731250Y136750D01*
D02*
G37*
G36*
X601233Y141681D02*
X601147Y141250D01*
X601555Y139202D01*
X602715Y137465D01*
X604452Y136305D01*
X606392Y135919D01*
Y126308D01*
X605961D01*
Y119077D01*
X603960Y118191D01*
Y126308D01*
X598529D01*
Y128998D01*
X599559Y130540D01*
X599967Y132588D01*
X599559Y134636D01*
X598399Y136373D01*
X596662Y137533D01*
X594614Y137941D01*
X592566Y137533D01*
X591396Y136752D01*
X589470Y136035D01*
X587733Y137195D01*
X585685Y137603D01*
X583636Y137195D01*
X581900Y136035D01*
X581755Y135818D01*
X577820D01*
X576454Y135547D01*
X576232Y135398D01*
X576124Y135377D01*
X574967Y134603D01*
X567437Y127074D01*
X566925Y126308D01*
X564378D01*
X563613Y128156D01*
X579138Y143681D01*
X599592D01*
X601233Y141681D01*
D02*
G37*
G36*
X481063Y123206D02*
Y106800D01*
X480847Y106655D01*
X479687Y104918D01*
X479279Y102870D01*
X479214Y102790D01*
X411091D01*
X410023Y104790D01*
X410130Y104951D01*
X410537Y107000D01*
X410414Y107623D01*
X411968Y109623D01*
X463389D01*
X464755Y109895D01*
X465912Y110668D01*
X479216Y123972D01*
X481063Y123206D01*
D02*
G37*
G36*
X364118Y111771D02*
X364093Y111623D01*
X362465Y110535D01*
X361305Y108798D01*
X360897Y106750D01*
X361287Y104790D01*
X361295Y104685D01*
X360176Y102790D01*
X352279D01*
X350423Y104646D01*
X350474Y104902D01*
X350066Y106950D01*
X348906Y108687D01*
X347169Y109847D01*
X345121Y110254D01*
X343072Y109847D01*
X341336Y108687D01*
X340175Y106950D01*
X339768Y104902D01*
X340175Y102853D01*
X341336Y101117D01*
X343072Y99956D01*
X345121Y99549D01*
X345376Y99600D01*
X348093Y96883D01*
X347993Y96113D01*
X347395Y94883D01*
X341367D01*
X340002Y94611D01*
X338844Y93837D01*
X338732Y93670D01*
X334028Y88966D01*
X331544Y89311D01*
X331139Y89917D01*
X329403Y91077D01*
X327354Y91485D01*
X325306Y91077D01*
X324311Y90412D01*
X318550Y96173D01*
Y106050D01*
X308550D01*
Y95114D01*
X307702Y94945D01*
X305965Y93785D01*
X304805Y92048D01*
X304397Y90000D01*
X304805Y87952D01*
X305407Y87050D01*
X304550Y85050D01*
X304550D01*
Y67819D01*
X285375D01*
X284009Y67547D01*
X282851Y66773D01*
X274466Y58388D01*
X272800Y57550D01*
Y57550D01*
X272800Y57550D01*
X270120D01*
X270097Y57666D01*
X269324Y58823D01*
X267574Y60573D01*
X266416Y61347D01*
X265051Y61618D01*
X257943D01*
X257337Y63618D01*
X257573Y63777D01*
X267461Y73664D01*
X269308Y72899D01*
Y70558D01*
X284308D01*
Y76481D01*
X288821D01*
X288823Y76479D01*
X290560Y75319D01*
X292608Y74911D01*
X294656Y75319D01*
X296393Y76479D01*
X297553Y78216D01*
X297961Y80264D01*
X297553Y82312D01*
X296393Y84049D01*
X294656Y85209D01*
X292608Y85617D01*
X290560Y85209D01*
X288823Y84049D01*
X288535Y83619D01*
X284308D01*
Y89558D01*
X283850D01*
X282212Y91558D01*
X282301Y92004D01*
X281894Y94053D01*
X280733Y95789D01*
X278997Y96950D01*
X276948Y97357D01*
X276808Y97329D01*
X274808Y98971D01*
Y111558D01*
X270560D01*
X269492Y113558D01*
X269535Y113623D01*
X363227D01*
X364118Y111771D01*
D02*
G37*
G36*
X628960Y106308D02*
X630882Y106119D01*
Y103750D01*
X630882Y103750D01*
X630718Y102808D01*
X630718Y102808D01*
Y91808D01*
X629216Y90608D01*
X601147D01*
X599528Y91528D01*
Y100783D01*
X602844Y104099D01*
X602844Y104099D01*
X603728Y105422D01*
X603960Y106308D01*
X605961D01*
Y106308D01*
X628960D01*
Y106308D01*
D02*
G37*
G36*
X235051Y95702D02*
Y92550D01*
X254050D01*
X255681Y91659D01*
Y79978D01*
X251822Y76119D01*
X243922D01*
X242557Y75847D01*
X241399Y75073D01*
X238777Y72451D01*
X238342Y71800D01*
X236301D01*
Y71800D01*
X235550D01*
Y71800D01*
X227550D01*
X225550Y71800D01*
X223550Y71800D01*
X220499D01*
X219004Y73800D01*
X219153Y74550D01*
X218746Y76598D01*
X217585Y78335D01*
X215849Y79495D01*
X213800Y79903D01*
X211752Y79495D01*
X210015Y78335D01*
X208855Y76598D01*
X208448Y74550D01*
X208855Y72502D01*
X209436Y71633D01*
X208783Y69500D01*
X208697Y69412D01*
X207035Y68301D01*
X205875Y66564D01*
X205467Y64516D01*
X205875Y62468D01*
X207035Y60731D01*
X208772Y59571D01*
X210820Y59163D01*
X212868Y59571D01*
X213734Y60149D01*
X215550Y60800D01*
X215550Y60800D01*
X215550Y60800D01*
X223550D01*
X225550Y60800D01*
X227550Y60800D01*
X235550D01*
Y60800D01*
X236301D01*
Y60800D01*
X244235D01*
X245068Y58987D01*
X244083Y57550D01*
X241800D01*
Y54099D01*
X239800Y53030D01*
X239538Y53205D01*
X237490Y53613D01*
X235442Y53205D01*
X233705Y52045D01*
X232545Y50308D01*
X232137Y48260D01*
X232545Y46212D01*
X233705Y44475D01*
X235442Y43315D01*
X236497Y43105D01*
X236920Y40981D01*
X235991Y40361D01*
X234831Y38624D01*
X234423Y36576D01*
X234831Y34528D01*
X235991Y32791D01*
X237728Y31631D01*
X239776Y31223D01*
X239800Y31228D01*
X241800Y29587D01*
Y27619D01*
X230552D01*
X229186Y27347D01*
X228029Y26573D01*
X223527Y22072D01*
X222754Y20914D01*
X222482Y19548D01*
Y15800D01*
X221050D01*
Y13869D01*
X217721D01*
X201689Y29901D01*
Y76246D01*
X210667Y85224D01*
X213050D01*
Y83050D01*
X232050D01*
Y95335D01*
X234014Y96413D01*
X235051Y95702D01*
D02*
G37*
G36*
X678122Y103141D02*
X679280Y102367D01*
X680646Y102095D01*
X707520D01*
X711047Y98569D01*
X712070Y97885D01*
Y97092D01*
X725570D01*
X725570Y97092D01*
X726570D01*
Y97092D01*
X727570Y97092D01*
X734250D01*
X734250Y71032D01*
X722480D01*
X720858Y71945D01*
Y85000D01*
X720431Y87146D01*
X719216Y88965D01*
X717396Y90181D01*
X715250Y90608D01*
X674447D01*
X672934Y91782D01*
Y102782D01*
X672934D01*
X672501Y103991D01*
X673196Y105460D01*
X675345Y105918D01*
X678122Y103141D01*
D02*
G37*
G36*
X314051Y47871D02*
X312050Y46715D01*
X310577Y47009D01*
X308528Y46601D01*
X306792Y45441D01*
X305631Y43704D01*
X305224Y41656D01*
X305631Y39607D01*
X306792Y37871D01*
X308528Y36710D01*
X310577Y36303D01*
X312625Y36710D01*
X314362Y37871D01*
X315522Y39607D01*
X315930Y41656D01*
X317292Y42173D01*
X318724Y40391D01*
X318602Y39471D01*
X318033Y39091D01*
X316873Y37354D01*
X316465Y35306D01*
X316873Y33258D01*
X316881Y33245D01*
X315993Y30975D01*
X315138Y30770D01*
X310703Y28932D01*
X306610Y26424D01*
X302959Y23306D01*
X302177Y22390D01*
X300300Y23082D01*
Y26300D01*
X292171D01*
X290940Y28108D01*
X291166Y29753D01*
X292323Y30527D01*
X295014Y33217D01*
X295787Y34375D01*
X296059Y35740D01*
Y44213D01*
X296275Y44357D01*
X297436Y46094D01*
X297843Y48142D01*
X297436Y50191D01*
X296275Y51927D01*
X294539Y53088D01*
X292490Y53495D01*
X290442Y53088D01*
X288705Y51927D01*
X287545Y50191D01*
X287138Y48142D01*
X287545Y46094D01*
X288705Y44357D01*
X288922Y44213D01*
Y38050D01*
X279800D01*
Y36618D01*
X269300D01*
X267935Y36347D01*
X266777Y35573D01*
X264277Y33073D01*
X263503Y31916D01*
X263431Y31550D01*
X261267D01*
X261068Y32550D01*
X260184Y33873D01*
X260184Y33873D01*
X254598Y39460D01*
X253275Y40344D01*
X252239Y40550D01*
X252436Y42550D01*
X253800D01*
Y54481D01*
X260800D01*
Y42550D01*
X272800D01*
Y42725D01*
X274800Y43794D01*
X275488Y43335D01*
X277536Y42927D01*
X279585Y43335D01*
X281321Y44495D01*
X282482Y46232D01*
X282889Y48280D01*
X282482Y50328D01*
X281321Y52065D01*
X281168Y52168D01*
X280914Y54743D01*
X286853Y60681D01*
X314051D01*
Y47871D01*
D02*
G37*
G36*
X331741Y58246D02*
X333107Y57975D01*
X353029D01*
X354337Y56516D01*
X354311Y56388D01*
X354623Y54819D01*
X353513Y52819D01*
X342500D01*
X341134Y52547D01*
X339977Y51773D01*
X337931Y49728D01*
X337231Y48680D01*
X335455D01*
Y38369D01*
X333805Y37565D01*
X333455Y37540D01*
X328434Y42561D01*
X329050Y44050D01*
X329050D01*
Y57989D01*
X331050Y58708D01*
X331741Y58246D01*
D02*
G37*
G36*
X734250Y5607D02*
X720858D01*
Y25584D01*
X722858Y27062D01*
X723646Y26905D01*
X725694Y27313D01*
X727431Y28473D01*
X728591Y30210D01*
X728999Y32258D01*
X728591Y34306D01*
X727431Y36043D01*
X725694Y37203D01*
X723646Y37611D01*
X722858Y37454D01*
X720858Y38932D01*
Y59119D01*
X722480Y60032D01*
X734250D01*
Y5607D01*
D02*
G37*
%LPC*%
G36*
X381000Y349103D02*
X378952Y348695D01*
X377215Y347535D01*
X376055Y345798D01*
X375647Y343750D01*
X376055Y341702D01*
X377215Y339965D01*
X378952Y338805D01*
X381000Y338397D01*
X383048Y338805D01*
X384785Y339965D01*
X385945Y341702D01*
X386353Y343750D01*
X385945Y345798D01*
X384785Y347535D01*
X383048Y348695D01*
X381000Y349103D01*
D02*
G37*
G36*
X313741Y340659D02*
X311693Y340251D01*
X309956Y339091D01*
X308796Y337354D01*
X308388Y335306D01*
X308796Y333258D01*
X309956Y331521D01*
X311693Y330361D01*
X313741Y329953D01*
X315790Y330361D01*
X317526Y331521D01*
X318686Y333258D01*
X319094Y335306D01*
X318686Y337354D01*
X317526Y339091D01*
X315790Y340251D01*
X313741Y340659D01*
D02*
G37*
G36*
X136590Y329280D02*
X120320D01*
Y313010D01*
X136590D01*
Y315823D01*
X137697Y316368D01*
X138590Y316587D01*
X140136Y315554D01*
X142185Y315147D01*
X144233Y315554D01*
X145970Y316715D01*
X147130Y318451D01*
X147538Y320500D01*
X147130Y322548D01*
X145970Y324285D01*
X144233Y325445D01*
X142185Y325853D01*
X140136Y325445D01*
X138590Y324412D01*
X137697Y324631D01*
X136590Y325177D01*
Y329280D01*
D02*
G37*
G36*
X215935Y302103D02*
X213886Y301695D01*
X212150Y300535D01*
X210989Y298798D01*
X210582Y296750D01*
X210989Y294701D01*
X212150Y292965D01*
X213886Y291804D01*
X215935Y291397D01*
X217983Y291804D01*
X219720Y292965D01*
X220880Y294701D01*
X221287Y296750D01*
X220880Y298798D01*
X219720Y300535D01*
X217983Y301695D01*
X215935Y302103D01*
D02*
G37*
G36*
X182935Y287103D02*
X180886Y286695D01*
X179150Y285535D01*
X177989Y283798D01*
X177582Y281750D01*
X177989Y279701D01*
X179150Y277965D01*
X180886Y276804D01*
X182935Y276397D01*
X184983Y276804D01*
X186720Y277965D01*
X187880Y279701D01*
X188288Y281750D01*
X187880Y283798D01*
X186720Y285535D01*
X184983Y286695D01*
X182935Y287103D01*
D02*
G37*
G36*
X197435Y285103D02*
X195386Y284695D01*
X193650Y283535D01*
X192489Y281798D01*
X192082Y279750D01*
X192489Y277701D01*
X193650Y275965D01*
X195386Y274804D01*
X197435Y274397D01*
X199483Y274804D01*
X201220Y275965D01*
X202380Y277701D01*
X202788Y279750D01*
X202380Y281798D01*
X201220Y283535D01*
X199483Y284695D01*
X197435Y285103D01*
D02*
G37*
G36*
X371791Y274084D02*
X369742Y273677D01*
X368006Y272517D01*
X366845Y270780D01*
X366438Y268732D01*
X366845Y266683D01*
X368006Y264947D01*
X369742Y263786D01*
X371791Y263379D01*
X373839Y263786D01*
X375576Y264947D01*
X376736Y266683D01*
X377144Y268732D01*
X376736Y270780D01*
X375576Y272517D01*
X373839Y273677D01*
X371791Y274084D01*
D02*
G37*
G36*
X163003Y272306D02*
X160954Y271899D01*
X159218Y270739D01*
X158057Y269002D01*
X157650Y266954D01*
X158057Y264905D01*
X159218Y263169D01*
X160954Y262008D01*
X163003Y261601D01*
X165051Y262008D01*
X166788Y263169D01*
X167948Y264905D01*
X168356Y266954D01*
X167948Y269002D01*
X166788Y270739D01*
X165051Y271899D01*
X163003Y272306D01*
D02*
G37*
G36*
X364300Y298300D02*
X340300D01*
Y283800D01*
X341459D01*
X342225Y281952D01*
X339254Y278982D01*
X339119Y278780D01*
X335138D01*
Y264780D01*
X335173D01*
X336814Y262780D01*
X336785Y262636D01*
X337193Y260588D01*
X338353Y258851D01*
X340090Y257691D01*
X342138Y257283D01*
X344186Y257691D01*
X345923Y258851D01*
X347083Y260588D01*
X347491Y262636D01*
X347462Y262780D01*
X349013Y264670D01*
X350720Y263745D01*
X350843Y263127D01*
X352004Y261391D01*
X353740Y260230D01*
X355789Y259823D01*
X356067Y259878D01*
X357832Y258500D01*
X358239Y256451D01*
X359400Y254715D01*
X361136Y253554D01*
X363185Y253147D01*
X365233Y253554D01*
X366970Y254715D01*
X368130Y256451D01*
X368537Y258500D01*
X368130Y260548D01*
X366970Y262285D01*
X365233Y263445D01*
X363185Y263853D01*
X362906Y263797D01*
X361142Y265176D01*
X360734Y267224D01*
X359574Y268961D01*
X357837Y270121D01*
X356307Y270425D01*
X352068Y274664D01*
X350745Y275548D01*
X350014Y275693D01*
X349619Y277811D01*
X355184Y283377D01*
X355184Y283377D01*
X355467Y283800D01*
X364300D01*
Y298300D01*
D02*
G37*
G36*
X234685Y252103D02*
X232636Y251695D01*
X230900Y250535D01*
X229739Y248798D01*
X229332Y246750D01*
X229739Y244701D01*
X230900Y242965D01*
X232636Y241804D01*
X234685Y241397D01*
X236733Y241804D01*
X238470Y242965D01*
X239630Y244701D01*
X240037Y246750D01*
X239630Y248798D01*
X238470Y250535D01*
X236733Y251695D01*
X234685Y252103D01*
D02*
G37*
G36*
X274040Y243101D02*
X271169Y242723D01*
X268494Y241615D01*
X266197Y239853D01*
X264435Y237556D01*
X263327Y234881D01*
X262949Y232010D01*
X263327Y229139D01*
X264435Y226465D01*
X266197Y224167D01*
X268494Y222405D01*
X271169Y221297D01*
X274040Y220919D01*
X276911Y221297D01*
X279585Y222405D01*
X281883Y224167D01*
X283645Y226465D01*
X284753Y229139D01*
X285131Y232010D01*
X284753Y234881D01*
X283645Y237556D01*
X281883Y239853D01*
X279585Y241615D01*
X276911Y242723D01*
X274040Y243101D01*
D02*
G37*
G36*
X255435Y229853D02*
X253386Y229445D01*
X251650Y228285D01*
X250489Y226548D01*
X250082Y224500D01*
X250489Y222451D01*
X251650Y220715D01*
X253386Y219554D01*
X255435Y219147D01*
X257483Y219554D01*
X259220Y220715D01*
X260380Y222451D01*
X260788Y224500D01*
X260380Y226548D01*
X259220Y228285D01*
X257483Y229445D01*
X255435Y229853D01*
D02*
G37*
G36*
X205508Y222777D02*
Y213582D01*
X214703D01*
X214508Y215064D01*
X213446Y217628D01*
X211756Y219830D01*
X209554Y221520D01*
X206990Y222582D01*
X205508Y222777D01*
D02*
G37*
G36*
X214703Y211042D02*
X205508D01*
Y201847D01*
X206990Y202042D01*
X209554Y203104D01*
X211756Y204794D01*
X213446Y206996D01*
X214508Y209560D01*
X214703Y211042D01*
D02*
G37*
G36*
X273949Y174126D02*
X271901Y173718D01*
X270164Y172558D01*
X269004Y170821D01*
X268596Y168773D01*
X269004Y166724D01*
X270164Y164988D01*
X271901Y163827D01*
X273949Y163420D01*
X275998Y163827D01*
X277734Y164988D01*
X278895Y166724D01*
X279302Y168773D01*
X278895Y170821D01*
X277734Y172558D01*
X275998Y173718D01*
X273949Y174126D01*
D02*
G37*
G36*
X205508Y152777D02*
Y143582D01*
X214703D01*
X214508Y145064D01*
X213446Y147628D01*
X211756Y149830D01*
X209554Y151519D01*
X206990Y152582D01*
X205508Y152777D01*
D02*
G37*
G36*
X202968Y152777D02*
X201487Y152582D01*
X198922Y151519D01*
X196721Y149830D01*
X195031Y147628D01*
X193969Y145064D01*
X193774Y143582D01*
X202968D01*
Y152777D01*
D02*
G37*
G36*
X274040Y159101D02*
X271169Y158723D01*
X268494Y157615D01*
X266197Y155853D01*
X264435Y153555D01*
X263327Y150881D01*
X262949Y148010D01*
X263327Y145139D01*
X264435Y142465D01*
X266197Y140167D01*
X268494Y138405D01*
X271169Y137297D01*
X274040Y136919D01*
X276911Y137297D01*
X279585Y138405D01*
X281883Y140167D01*
X283645Y142465D01*
X284753Y145139D01*
X285131Y148010D01*
X284753Y150881D01*
X283645Y153555D01*
X281883Y155853D01*
X279585Y157615D01*
X276911Y158723D01*
X274040Y159101D01*
D02*
G37*
G36*
X202968Y141042D02*
X193774D01*
X193969Y139560D01*
X195031Y136996D01*
X196721Y134794D01*
X198922Y133104D01*
X201487Y132042D01*
X202968Y131847D01*
Y141042D01*
D02*
G37*
G36*
X47954Y188767D02*
X45906Y188359D01*
X44169Y187199D01*
X43009Y185462D01*
X42602Y183414D01*
X43009Y181366D01*
X44169Y179629D01*
X45906Y178469D01*
X47954Y178061D01*
X50003Y178469D01*
X51739Y179629D01*
X52900Y181366D01*
X53307Y183414D01*
X52900Y185462D01*
X51739Y187199D01*
X50003Y188359D01*
X47954Y188767D01*
D02*
G37*
G36*
X137095Y185184D02*
X135046Y184777D01*
X133310Y183617D01*
X132149Y181880D01*
X131742Y179832D01*
X132149Y177783D01*
X133310Y176047D01*
X135046Y174886D01*
X137095Y174479D01*
X139143Y174886D01*
X140880Y176047D01*
X142040Y177783D01*
X142448Y179832D01*
X142040Y181880D01*
X140880Y183617D01*
X139143Y184777D01*
X137095Y185184D01*
D02*
G37*
G36*
X73685Y167065D02*
X71636Y166657D01*
X69900Y165497D01*
X68739Y163760D01*
X68546Y162790D01*
X67056Y163087D01*
X65008Y162679D01*
X63271Y161519D01*
X62111Y159782D01*
X61703Y157734D01*
X62111Y155686D01*
X63271Y153949D01*
X65008Y152789D01*
X67056Y152381D01*
X69104Y152789D01*
X70841Y153949D01*
X72001Y155686D01*
X72194Y156656D01*
X73685Y156359D01*
X75733Y156767D01*
X75981Y156932D01*
X78003Y157505D01*
X79740Y156345D01*
X81788Y155937D01*
X83836Y156345D01*
X85573Y157505D01*
X86733Y159242D01*
X87141Y161290D01*
X86733Y163338D01*
X85573Y165075D01*
X83836Y166235D01*
X81788Y166643D01*
X79740Y166235D01*
X78003Y165075D01*
X77525Y165413D01*
X77470Y165497D01*
X75733Y166657D01*
X73685Y167065D01*
D02*
G37*
G36*
X145402Y155742D02*
X134402D01*
Y153877D01*
X133487Y153265D01*
X133021Y152800D01*
X118551D01*
Y133800D01*
X133550D01*
Y134095D01*
X134403Y135742D01*
X136334D01*
Y132032D01*
X136606Y130666D01*
X137379Y129509D01*
X138133Y128755D01*
X138082Y128500D01*
X138489Y126451D01*
X139650Y124715D01*
X141386Y123554D01*
X143435Y123147D01*
X145483Y123554D01*
X147220Y124715D01*
X148380Y126451D01*
X148787Y128500D01*
X148623Y129328D01*
X150363Y129675D01*
X152099Y130835D01*
X153260Y132572D01*
X153667Y134620D01*
X153260Y136668D01*
X152099Y138405D01*
X150363Y139565D01*
X148314Y139973D01*
X147402Y139791D01*
X145402Y141211D01*
Y145742D01*
X145402D01*
Y145742D01*
X145402D01*
Y155742D01*
D02*
G37*
G36*
X116500Y128853D02*
X114452Y128445D01*
X112715Y127285D01*
X111555Y125548D01*
X111147Y123500D01*
X111555Y121452D01*
X112715Y119715D01*
X114452Y118555D01*
X116500Y118147D01*
X118548Y118555D01*
X120285Y119715D01*
X121445Y121452D01*
X121853Y123500D01*
X121445Y125548D01*
X120285Y127285D01*
X118548Y128445D01*
X116500Y128853D01*
D02*
G37*
G36*
X137100Y112937D02*
X135052Y112529D01*
X133315Y111369D01*
X132155Y109632D01*
X131748Y107584D01*
X132155Y105536D01*
X133315Y103799D01*
X135052Y102639D01*
X137100Y102231D01*
X139149Y102639D01*
X140885Y103799D01*
X142046Y105536D01*
X142453Y107584D01*
X142046Y109632D01*
X140885Y111369D01*
X139149Y112529D01*
X137100Y112937D01*
D02*
G37*
G36*
X73914Y91967D02*
X71866Y91559D01*
X70129Y90399D01*
X68969Y88662D01*
X68561Y86614D01*
X68969Y84566D01*
X70129Y82829D01*
X71866Y81669D01*
X73914Y81261D01*
X75962Y81669D01*
X77699Y82829D01*
X78859Y84566D01*
X79267Y86614D01*
X78859Y88662D01*
X77699Y90399D01*
X75962Y91559D01*
X73914Y91967D01*
D02*
G37*
G36*
X121666Y57931D02*
X119618Y57523D01*
X117881Y56363D01*
X116721Y54626D01*
X116313Y52578D01*
X116721Y50530D01*
X117881Y48793D01*
X119618Y47633D01*
X121666Y47225D01*
X123714Y47633D01*
X125451Y48793D01*
X126611Y50530D01*
X127019Y52578D01*
X126611Y54626D01*
X125451Y56363D01*
X123714Y57523D01*
X121666Y57931D01*
D02*
G37*
G36*
X765306Y372409D02*
X763258Y372001D01*
X761521Y370841D01*
X760361Y369104D01*
X759953Y367056D01*
X760361Y365008D01*
X760809Y364337D01*
X759606Y362537D01*
X758633Y362730D01*
X756584Y362323D01*
X754848Y361163D01*
X753687Y359426D01*
X753280Y357378D01*
X753687Y355329D01*
X754848Y353593D01*
X756584Y352432D01*
X758633Y352025D01*
X760681Y352432D01*
X762418Y353593D01*
X763578Y355329D01*
X763986Y357378D01*
X763578Y359426D01*
X763130Y360097D01*
X764333Y361897D01*
X765306Y361703D01*
X767354Y362111D01*
X769091Y363271D01*
X770251Y365008D01*
X770659Y367056D01*
X770251Y369104D01*
X769091Y370841D01*
X767354Y372001D01*
X765306Y372409D01*
D02*
G37*
G36*
X730500Y372353D02*
X728452Y371945D01*
X726715Y370785D01*
X725555Y369048D01*
X725147Y367000D01*
X725555Y364952D01*
X726715Y363215D01*
X726654Y360909D01*
X725493Y359172D01*
X725086Y357124D01*
X725493Y355075D01*
X726654Y353339D01*
X728390Y352178D01*
X730439Y351771D01*
X732487Y352178D01*
X734224Y353339D01*
X735384Y355075D01*
X735791Y357124D01*
X735384Y359172D01*
X734224Y360909D01*
X734285Y363215D01*
X735445Y364952D01*
X735853Y367000D01*
X735445Y369048D01*
X734285Y370785D01*
X732548Y371945D01*
X730500Y372353D01*
D02*
G37*
G36*
X797185Y357352D02*
X795136Y356945D01*
X793400Y355785D01*
X792239Y354048D01*
X791832Y352000D01*
X792239Y349951D01*
X793400Y348215D01*
X793813Y347938D01*
X794083Y345380D01*
X793777Y345074D01*
X793003Y343916D01*
X792732Y342550D01*
Y339923D01*
X791300Y338550D01*
X781300D01*
Y327550D01*
X782409Y326009D01*
X782533Y325389D01*
X783417Y324066D01*
X787506Y319976D01*
X787506Y319976D01*
X787770Y319800D01*
X787163Y317800D01*
X782050D01*
Y306800D01*
X782050Y306800D01*
X782050D01*
X781257Y305119D01*
X779961Y303823D01*
X769180D01*
X769035Y304039D01*
X767299Y305199D01*
X765250Y305607D01*
X763202Y305199D01*
X761465Y304039D01*
X760305Y302302D01*
X759898Y300254D01*
X760305Y298206D01*
X761465Y296469D01*
X763202Y295309D01*
X765250Y294901D01*
X767299Y295309D01*
X769035Y296469D01*
X769180Y296685D01*
X781439D01*
X782805Y296957D01*
X783962Y297731D01*
X787493Y301261D01*
X789336Y300275D01*
X789082Y299000D01*
X789489Y296951D01*
X790650Y295215D01*
X792386Y294054D01*
X794435Y293647D01*
X796483Y294054D01*
X798220Y295215D01*
X799137Y296587D01*
X799380Y296951D01*
X800948Y297429D01*
X801510Y297405D01*
X802684Y297172D01*
X802685Y297172D01*
X822375D01*
X823444Y295172D01*
X823105Y294664D01*
X822698Y292615D01*
X823105Y290567D01*
X824265Y288830D01*
X826002Y287670D01*
X828050Y287263D01*
X830099Y287670D01*
X831835Y288830D01*
X832996Y290567D01*
X833403Y292615D01*
X832996Y294664D01*
X831835Y296400D01*
X832267Y298267D01*
X832527Y298474D01*
X834922Y298056D01*
X835150Y297715D01*
X835366Y297570D01*
Y254478D01*
X809957Y229068D01*
X799684D01*
X798987Y231068D01*
X800619Y233196D01*
X801879Y236237D01*
X802308Y239500D01*
X801879Y242763D01*
X800619Y245804D01*
X798615Y248415D01*
X796004Y250419D01*
X792963Y251678D01*
X789700Y252108D01*
X786437Y251678D01*
X783396Y250419D01*
X780785Y248415D01*
X778782Y245804D01*
X777522Y242763D01*
X777092Y239500D01*
X777522Y236237D01*
X778782Y233196D01*
X779336Y232474D01*
X778578Y230176D01*
X777919Y229987D01*
X777233Y230445D01*
X775185Y230853D01*
X773136Y230445D01*
X771400Y229285D01*
X770239Y227548D01*
X769832Y225500D01*
X770239Y223451D01*
X771400Y221715D01*
X773136Y220554D01*
X775185Y220147D01*
X777233Y220554D01*
X778970Y221715D01*
X779114Y221931D01*
X811435D01*
X812800Y222203D01*
X813958Y222976D01*
X841458Y250476D01*
X842232Y251634D01*
X842503Y253000D01*
Y297570D01*
X842720Y297715D01*
X843880Y299451D01*
X844287Y301500D01*
X843880Y303548D01*
X842720Y305285D01*
X840983Y306445D01*
X839800Y306680D01*
Y324050D01*
X824800D01*
Y305328D01*
X804374D01*
X802050Y307652D01*
Y317703D01*
X803113Y317915D01*
X804849Y319075D01*
X806010Y320812D01*
X806417Y322860D01*
X806010Y324908D01*
X804849Y326645D01*
X803113Y327805D01*
X801300Y328166D01*
Y333391D01*
X803300Y334823D01*
X804185Y334647D01*
X806233Y335054D01*
X807970Y336215D01*
X809130Y337951D01*
X809538Y340000D01*
X809153Y341931D01*
X809152Y342084D01*
X810277Y343931D01*
X815301D01*
Y327050D01*
X830300D01*
Y346050D01*
X826200D01*
X826097Y346565D01*
X825324Y347723D01*
X823023Y350023D01*
X821866Y350797D01*
X820500Y351069D01*
X803302D01*
X802538Y352000D01*
X802130Y354048D01*
X800970Y355785D01*
X799233Y356945D01*
X797185Y357352D01*
D02*
G37*
G36*
X775651Y346456D02*
X741869Y346456D01*
X741869Y312674D01*
X775651Y312674D01*
X775651Y346456D01*
D02*
G37*
G36*
X746685Y304352D02*
X744636Y303945D01*
X742900Y302785D01*
X741739Y301048D01*
X741332Y299000D01*
X741739Y296951D01*
X742900Y295215D01*
X744636Y294054D01*
X746685Y293647D01*
X748733Y294054D01*
X750470Y295215D01*
X751630Y296951D01*
X752038Y299000D01*
X751630Y301048D01*
X750470Y302785D01*
X748733Y303945D01*
X746685Y304352D01*
D02*
G37*
G36*
X789700Y291108D02*
X786437Y290678D01*
X783396Y289419D01*
X780785Y287415D01*
X778782Y284804D01*
X777522Y281763D01*
X777092Y278500D01*
X777522Y275237D01*
X778782Y272196D01*
X780785Y269585D01*
X783396Y267581D01*
X786437Y266322D01*
X789700Y265892D01*
X792963Y266322D01*
X796004Y267581D01*
X798615Y269585D01*
X800619Y272196D01*
X801879Y275237D01*
X802308Y278500D01*
X801879Y281763D01*
X800619Y284804D01*
X798615Y287415D01*
X796004Y289419D01*
X792963Y290678D01*
X789700Y291108D01*
D02*
G37*
G36*
X413258Y263853D02*
X411210Y263445D01*
X409473Y262285D01*
X408313Y260548D01*
X407905Y258500D01*
X408313Y256451D01*
X409473Y254715D01*
X411210Y253554D01*
X413258Y253147D01*
X415306Y253554D01*
X417043Y254715D01*
X418203Y256451D01*
X418611Y258500D01*
X418203Y260548D01*
X417043Y262285D01*
X415306Y263445D01*
X413258Y263853D01*
D02*
G37*
G36*
X626364Y195603D02*
X624316Y195195D01*
X622579Y194035D01*
X621419Y192298D01*
X621011Y190250D01*
X621419Y188202D01*
X622579Y186465D01*
X624316Y185305D01*
X625536Y185062D01*
X625313Y183941D01*
X625604Y182476D01*
X624039Y181178D01*
X623983Y181154D01*
X622798Y181945D01*
X620750Y182353D01*
X618702Y181945D01*
X616965Y180785D01*
X615805Y179048D01*
X615397Y177000D01*
X615805Y174952D01*
X616965Y173215D01*
X618702Y172055D01*
X620750Y171647D01*
X622798Y172055D01*
X624535Y173215D01*
X625695Y174952D01*
X626103Y177000D01*
X625811Y178465D01*
X627376Y179763D01*
X627432Y179787D01*
X628617Y178996D01*
X630666Y178588D01*
X632714Y178996D01*
X634451Y180156D01*
X635611Y181893D01*
X636018Y183941D01*
X635611Y185989D01*
X634451Y187726D01*
X632714Y188886D01*
X631494Y189129D01*
X631717Y190250D01*
X631309Y192298D01*
X630149Y194035D01*
X628412Y195195D01*
X626364Y195603D01*
D02*
G37*
G36*
X606500Y183103D02*
X604452Y182695D01*
X602715Y181535D01*
X601555Y179798D01*
X601147Y177750D01*
X601555Y175702D01*
X602715Y173965D01*
X604452Y172805D01*
X606500Y172397D01*
X608548Y172805D01*
X610285Y173965D01*
X611445Y175702D01*
X611853Y177750D01*
X611445Y179798D01*
X610285Y181535D01*
X608548Y182695D01*
X606500Y183103D01*
D02*
G37*
G36*
X368808Y219221D02*
X366760Y218813D01*
X365023Y217653D01*
X363863Y215916D01*
X363455Y213868D01*
X363863Y211820D01*
X365023Y210083D01*
X366760Y208923D01*
X368808Y208515D01*
X370856Y208923D01*
X372593Y210083D01*
X373753Y211820D01*
X374161Y213868D01*
X373753Y215916D01*
X372593Y217653D01*
X370856Y218813D01*
X368808Y219221D01*
D02*
G37*
G36*
X351190Y193475D02*
X349142Y193067D01*
X347405Y191907D01*
X346245Y190170D01*
X345837Y188122D01*
X346245Y186074D01*
X347405Y184337D01*
X349142Y183177D01*
X351190Y182769D01*
X353238Y183177D01*
X354975Y184337D01*
X356135Y186074D01*
X356543Y188122D01*
X356135Y190170D01*
X354975Y191907D01*
X353238Y193067D01*
X351190Y193475D01*
D02*
G37*
G36*
X372364Y187725D02*
X370316Y187317D01*
X368579Y186157D01*
X367419Y184420D01*
X367011Y182372D01*
X367419Y180324D01*
X368579Y178587D01*
X370316Y177427D01*
X372364Y177019D01*
X374412Y177427D01*
X376149Y178587D01*
X377309Y180324D01*
X377717Y182372D01*
X377309Y184420D01*
X376149Y186157D01*
X374412Y187317D01*
X372364Y187725D01*
D02*
G37*
G36*
X531049Y110000D02*
X529000Y109593D01*
X527264Y108433D01*
X526103Y106696D01*
X525696Y104648D01*
X526103Y102599D01*
X527264Y100863D01*
X529000Y99702D01*
X531049Y99295D01*
X533097Y99702D01*
X534834Y100863D01*
X535994Y102599D01*
X536401Y104648D01*
X535994Y106696D01*
X534834Y108433D01*
X533097Y109593D01*
X531049Y110000D01*
D02*
G37*
G36*
X455676Y84601D02*
X453628Y84193D01*
X451891Y83033D01*
X450731Y81296D01*
X450323Y79248D01*
X450731Y77200D01*
X451891Y75463D01*
X453628Y74303D01*
X455676Y73895D01*
X457724Y74303D01*
X459461Y75463D01*
X460621Y77200D01*
X461029Y79248D01*
X460621Y81296D01*
X459461Y83033D01*
X457724Y84193D01*
X455676Y84601D01*
D02*
G37*
%LPD*%
D11*
X642500Y159000D02*
X649308Y165808D01*
X606500Y141118D02*
Y141250D01*
X628146Y147250D02*
X650050Y125346D01*
X551060Y120650D02*
X577660Y147250D01*
X628146D01*
X606500Y141118D02*
X609961Y137658D01*
Y116308D02*
Y137658D01*
X683808Y135808D02*
X688000Y140000D01*
X674460Y135808D02*
X683808D01*
X674519Y145750D02*
X696500D01*
X686000Y127750D02*
X693000D01*
X696500Y131250D02*
Y135750D01*
X693000Y127750D02*
X696500Y131250D01*
X649308Y165808D02*
X674460D01*
X655308Y160808D02*
X674460D01*
X649750Y155250D02*
X655308Y160808D01*
X649966Y147194D02*
X658592Y155820D01*
X654506Y145314D02*
X660472Y151280D01*
X654506Y139244D02*
Y145314D01*
X658592Y155820D02*
X665820D01*
X660472Y151280D02*
X665820D01*
X649966Y136343D02*
Y147194D01*
X559558Y135808D02*
X588250Y164500D01*
X576677Y193777D02*
Y198720D01*
X572155Y203241D02*
X576677Y198720D01*
X557942Y175808D02*
X567500Y166250D01*
X558058Y140808D02*
X581500Y164250D01*
X655320Y193548D02*
X658072Y190796D01*
X259250Y110242D02*
X266199Y117192D01*
X259250Y78500D02*
Y110242D01*
X253300Y72550D02*
X259250Y78500D01*
X243922Y72550D02*
X253300D01*
X267300Y78550D02*
Y102050D01*
X255050Y66300D02*
X267300Y78550D01*
X251300Y66300D02*
X255050D01*
X364704Y49250D02*
X367550Y46404D01*
X342500Y49250D02*
X364704D01*
X340455Y47205D02*
X342500Y49250D01*
X340455Y43180D02*
Y47205D01*
X377050Y16050D02*
Y47450D01*
X362060Y62440D02*
X377050Y47450D01*
X362060Y62440D02*
Y72314D01*
X330400Y64250D02*
X333107Y61543D01*
X285375Y64250D02*
X330400D01*
X271175Y50050D02*
X285375Y64250D01*
X607803Y210000D02*
X661250D01*
X697750Y288500D02*
X717943D01*
X694500Y285250D02*
X697750Y288500D01*
X694500Y268250D02*
Y285250D01*
X690250Y264000D02*
X694500Y268250D01*
X673250Y264000D02*
X690250D01*
X129800Y229050D02*
X136050D01*
X127300Y226550D02*
X129800Y229050D01*
X121050Y226550D02*
X127300D01*
X171750Y154500D02*
X191026D01*
X160620Y143370D02*
X171750Y154500D01*
X160620Y127130D02*
Y143370D01*
Y127130D02*
X167000Y120750D01*
X581500Y164250D02*
Y183697D01*
X540460Y140808D02*
X558058D01*
X557692Y165808D02*
X565000Y158500D01*
X540460Y165808D02*
X557692D01*
X540460Y175808D02*
X557942D01*
X546160Y135808D02*
X559558D01*
X523588Y120650D02*
X551060D01*
X581500Y183697D02*
X607803Y210000D01*
X568954Y215808D02*
X674460D01*
X567403Y203241D02*
X572155D01*
X540460Y180808D02*
X563708D01*
X576677Y193777D01*
X562326Y195808D02*
X563278Y196760D01*
X565623Y190808D02*
X570778Y195963D01*
Y196010D01*
X333437Y32512D02*
X340455D01*
X321258Y44690D02*
X333437Y32512D01*
X674460Y145808D02*
X674519Y145750D01*
X687500Y198500D02*
X693000D01*
X685750Y196750D02*
X687500Y198500D01*
X685750Y193000D02*
Y196750D01*
X683558Y190808D02*
X685750Y193000D01*
X674460Y190808D02*
X683558D01*
X695750Y175750D02*
X707250D01*
X695692Y175808D02*
X695750Y175750D01*
X674460Y175808D02*
X695692D01*
X820500Y347500D02*
X822800Y345200D01*
X801250Y347500D02*
X820500D01*
X796300Y342550D02*
X801250Y347500D01*
X822800Y336550D02*
Y345200D01*
X796300Y333050D02*
Y342550D01*
X733320Y111092D02*
X750469D01*
X752949Y113572D01*
X765449D01*
X733320Y101092D02*
X738570D01*
X743050Y105572D01*
X765449D01*
X178816Y73406D02*
X187778D01*
X135750Y262242D02*
Y269500D01*
X133858Y260350D02*
X135750Y262242D01*
X647185Y226750D02*
X668435Y248000D01*
X236200Y100050D02*
X244550D01*
X230750Y105500D02*
X236200Y100050D01*
X266199Y117192D02*
X461732D01*
X236685Y127969D02*
Y203750D01*
X197966Y89250D02*
X236685Y127969D01*
X167000Y108500D02*
Y120750D01*
X191026Y154500D02*
X204238Y167712D01*
X190250Y181723D02*
Y223700D01*
X176238Y237712D02*
X190250Y223700D01*
X191450Y250500D02*
X204238Y237712D01*
X166250Y250500D02*
X191450D01*
X144800Y229050D02*
X166250Y250500D01*
X136050Y229050D02*
X144800D01*
X481076Y253492D02*
X495046Y267462D01*
X481076Y201076D02*
Y253492D01*
X131462Y167712D02*
X176238D01*
X129050Y165300D02*
X131462Y167712D01*
X116550Y165300D02*
X129050D01*
X167000Y89250D02*
X167000Y89250D01*
X167000Y89250D02*
Y108500D01*
X188750D02*
Y118750D01*
X176238Y131262D02*
X188750Y118750D01*
X176238Y131262D02*
Y142312D01*
Y167712D02*
X190250Y181723D01*
X104617Y241300D02*
X111050D01*
X101816Y238500D02*
X104617Y241300D01*
X101750Y238500D02*
X101816D01*
X100604Y237354D02*
X101750Y238500D01*
X100604Y216396D02*
Y237354D01*
X104688Y212312D02*
X176238D01*
X100604Y216396D02*
X104688Y212312D01*
X309750Y90000D02*
X310558D01*
X312050Y88508D01*
X335303Y132750D02*
X366750D01*
X295148Y172905D02*
X335303Y132750D01*
X236292Y121920D02*
X364973D01*
X367354Y106750D02*
X373796Y113192D01*
X366250Y106750D02*
X367354D01*
X504185Y146588D02*
X504250Y146522D01*
Y138500D02*
Y146522D01*
X231728Y269272D02*
X261698D01*
X220500Y280500D02*
X231728Y269272D01*
X529438Y276250D02*
X533654Y272034D01*
Y256765D02*
Y272034D01*
Y256765D02*
X569669Y220750D01*
X517587Y133096D02*
X526288D01*
X517587Y133096D02*
X517587Y133096D01*
X525500Y276250D02*
X529438D01*
X97282Y308102D02*
Y328422D01*
X93435Y304255D02*
X97282Y308102D01*
X93435Y50250D02*
Y304255D01*
X78689Y299514D02*
Y301270D01*
Y299514D02*
X84300Y293902D01*
X134112Y145288D02*
Y148844D01*
X132124Y143300D02*
X134112Y145288D01*
X126050Y143300D02*
X132124D01*
X136010Y150742D02*
X139902D01*
X134112Y148844D02*
X136010Y150742D01*
X187778Y73406D02*
X236292Y121920D01*
X198120Y77724D02*
X209189Y88793D01*
X198120Y28422D02*
Y77724D01*
Y28422D02*
X216242Y10300D01*
X213800Y69726D02*
X217227Y66300D01*
X213800Y69726D02*
Y74550D01*
X209189Y88793D02*
X220793D01*
X177000Y80480D02*
Y89250D01*
X173990Y77470D02*
X177000Y80480D01*
X151130Y77470D02*
X173990D01*
X336934Y67500D02*
X342000D01*
X334000Y70434D02*
X336934Y67500D01*
X334000Y70434D02*
Y75750D01*
X354000Y72314D02*
X362060D01*
X349186Y67500D02*
X354000Y72314D01*
X342000Y67500D02*
X349186D01*
X381585Y138250D02*
X382019Y138684D01*
X381303Y138250D02*
X381585D01*
X364973Y121920D02*
X381303Y138250D01*
X382019Y138684D02*
X442403D01*
X373796Y113192D02*
X463389D01*
X484632Y126049D02*
X490917Y132334D01*
X484632Y102870D02*
Y126049D01*
X487244Y91440D02*
X490474D01*
X479463Y99222D02*
X487244Y91440D01*
X350801Y99222D02*
X479463D01*
X312050Y75550D02*
Y88508D01*
X230552Y24050D02*
X247800D01*
X226050Y19548D02*
X230552Y24050D01*
X226050Y10300D02*
Y19548D01*
X345121Y104902D02*
X350801Y99222D01*
X372618Y64262D02*
X385572D01*
X354509Y61543D02*
X359664Y56388D01*
X333107Y61543D02*
X354509D01*
X177000Y89250D02*
X197966D01*
X220793Y88793D02*
X222550Y90550D01*
X388152Y66842D02*
Y72314D01*
X385572Y64262D02*
X388152Y66842D01*
X506476Y273726D02*
X509000Y276250D01*
X79935Y214191D02*
Y232250D01*
X65500Y211000D02*
X76743D01*
X79935Y214191D01*
X574488Y265112D02*
X580051Y259550D01*
X553250Y265112D02*
X574488D01*
X551890Y266472D02*
X553250Y265112D01*
X572832Y261112D02*
X575051Y258893D01*
X545820Y261112D02*
X572832D01*
X541476Y265456D02*
X545820Y261112D01*
X149098Y79502D02*
X151130Y77470D01*
X149098Y79502D02*
Y85090D01*
X525500Y259262D02*
X568954Y215808D01*
X495046Y267462D02*
Y273812D01*
X491236D02*
X495046D01*
X486156Y278892D02*
X491236Y273812D01*
X480559Y278892D02*
X486156D01*
X594614Y132014D02*
Y132588D01*
Y132014D02*
X594961Y131668D01*
Y116308D02*
Y131668D01*
X619961Y129044D02*
X625029Y134112D01*
X619961Y116308D02*
Y129044D01*
X614961Y116308D02*
Y140970D01*
X624961Y125251D02*
X632716Y133006D01*
X624961Y116308D02*
Y125251D01*
X144384Y239050D02*
X144435Y239000D01*
X136050Y239050D02*
X144384D01*
X127508Y260350D02*
X133858D01*
X715050Y272836D02*
Y278550D01*
X681228Y239014D02*
X715050Y272836D01*
X663594Y190796D02*
X674550D01*
X658072D02*
X663594D01*
X663583Y190808D02*
X674460D01*
X513588Y104328D02*
X518603Y99314D01*
X513588Y104328D02*
Y120650D01*
X716534Y93472D02*
X724154D01*
X726070Y95388D01*
Y103842D01*
X718820Y106092D02*
X723820D01*
X726070Y103842D01*
X394617Y121192D02*
X460075D01*
X383685Y132124D02*
X394617Y121192D01*
X568992Y282050D02*
X576601D01*
X567371Y280428D02*
X568992Y282050D01*
X525500Y259262D02*
Y265250D01*
X515500Y257356D02*
Y265250D01*
X669761Y267489D02*
X673250Y264000D01*
X669761Y267489D02*
Y279400D01*
X61924Y207424D02*
X65500Y211000D01*
X61924Y199924D02*
Y207424D01*
X579750Y228750D02*
X586250Y235250D01*
X568276Y228750D02*
X579750D01*
X541730Y255295D02*
X568276Y228750D01*
X660250Y175815D02*
X665257Y170808D01*
X660250Y175815D02*
Y182500D01*
X665257Y170808D02*
X674460D01*
X285300Y33050D02*
X289800D01*
X266800Y50050D02*
X271175D01*
X93435Y50250D02*
X102185Y41500D01*
X84448Y236763D02*
Y251652D01*
X79935Y232250D02*
X84448Y236763D01*
X350455Y32512D02*
X357447D01*
X357685Y32750D01*
X577820Y132250D02*
X585685D01*
X577570Y132000D02*
X577820Y132250D01*
X569669Y220750D02*
X674250D01*
X674308Y220808D01*
X139902Y132032D02*
X143435Y128500D01*
X139902Y132032D02*
Y140742D01*
X84300Y261800D02*
Y293902D01*
X674460Y216050D02*
X674550D01*
X526026Y226550D02*
X531769Y220808D01*
X523300Y226550D02*
X526026D01*
X531769Y220808D02*
X540460D01*
X615390Y265456D02*
X620051Y260796D01*
X566935Y272000D02*
X575000D01*
X362060Y72314D02*
X362152D01*
X325659Y75550D02*
X341367Y91259D01*
Y91314D01*
X362152D01*
X599961Y241525D02*
Y250308D01*
X249050Y315272D02*
Y330550D01*
X624961Y116308D02*
X625461Y116808D01*
X650050Y116550D02*
Y125346D01*
X673960Y140308D02*
X674460Y140808D01*
X600051Y250308D02*
Y250550D01*
X630051Y250308D02*
Y250550D01*
X529050Y148050D02*
X531809Y150808D01*
X540460D01*
X520848Y194590D02*
X532066Y205808D01*
X540308D02*
X540550Y206050D01*
X540308Y205808D02*
X540460D01*
X532066D02*
X540308D01*
X540460Y221050D02*
X540550D01*
X521664Y215926D02*
X521782Y215808D01*
X540460D01*
Y211050D02*
X540550D01*
X525982Y205512D02*
X531278Y210808D01*
X540460D01*
X513198Y137484D02*
Y142022D01*
X367550Y38050D02*
Y46404D01*
X350455Y32512D02*
Y43180D01*
X321258Y44690D02*
Y53550D01*
X674308Y220808D02*
X674550Y221050D01*
X674308Y220808D02*
X674460D01*
X526800Y142022D02*
X529050Y144272D01*
X523198Y142022D02*
X526800D01*
X522948Y161022D02*
X523162Y160808D01*
X540460D01*
X522948Y151772D02*
X527116D01*
X531067Y155723D01*
X312050Y75550D02*
X325659D01*
X570051Y122318D02*
X570461Y122728D01*
X570051Y116550D02*
Y122318D01*
X84300Y261550D02*
Y261800D01*
Y251800D02*
X84448Y251652D01*
X813668Y27300D02*
X813764Y27204D01*
X540376Y155723D02*
X540460Y155808D01*
X531067Y155723D02*
X540376D01*
X249742Y58050D02*
X265051D01*
X247800Y56108D02*
X249742Y58050D01*
X247800Y50050D02*
Y56108D01*
X241300Y69928D02*
X243922Y72550D01*
X241300Y66300D02*
Y69928D01*
X276800Y80050D02*
X276808Y80058D01*
X575000Y272000D02*
X575800Y272800D01*
X580051Y250550D02*
Y259550D01*
X266800Y50050D02*
Y56300D01*
X230550Y66300D02*
X241300D01*
X540550Y221050D02*
X540550Y221050D01*
X285300Y20800D02*
Y33050D01*
X285300Y20800D02*
X285300Y20800D01*
X529050Y144272D02*
Y148050D01*
X285300Y20800D02*
Y33050D01*
X266800Y24050D02*
Y30550D01*
X269300Y33050D01*
X285300D01*
X265051Y58050D02*
X266800Y56300D01*
X575051Y250550D02*
Y258893D01*
X546144Y135824D02*
X546160Y135808D01*
X540460D02*
X540476Y135824D01*
X546144D01*
X521758Y205512D02*
X525982D01*
X216242Y10300D02*
X226050D01*
X217227Y66300D02*
X220550D01*
X313550Y100550D02*
X314434Y99666D01*
X54050Y232436D02*
Y237770D01*
X52272Y230658D02*
X54050Y232436D01*
X52272Y222076D02*
Y230658D01*
Y222076D02*
X52424Y221924D01*
X378550Y88306D02*
X381558Y91314D01*
X388152D01*
X378550Y75068D02*
Y88306D01*
Y75068D02*
X381304Y72314D01*
X388152D01*
X313550Y96126D02*
Y100550D01*
Y96126D02*
X323544Y86132D01*
X327354D01*
X620051Y250550D02*
Y260796D01*
X541476Y265456D02*
Y269172D01*
X551890Y266472D02*
Y269172D01*
X513198Y137484D02*
X517587Y133096D01*
X442403Y138684D02*
X449007Y132080D01*
X663583Y190808D02*
X663594Y190796D01*
X540460Y195808D02*
X562326D01*
X509369Y151772D02*
X512948D01*
X64050Y237770D02*
Y243615D01*
X68339Y247904D01*
X75627D01*
X551935Y286500D02*
X552143D01*
X540961Y279687D02*
X541476Y279172D01*
X551935Y279216D02*
Y286500D01*
X551890Y279172D02*
X551935Y279216D01*
X383685Y132124D02*
Y132500D01*
X569961Y124551D02*
X577490Y132080D01*
X569961Y116308D02*
Y124551D01*
X504185Y146588D02*
X509369Y151772D01*
X594435Y236000D02*
X599961Y241525D01*
X594435Y235500D02*
Y236000D01*
X577490Y132080D02*
X577570Y132000D01*
X838935Y253000D02*
Y301500D01*
X811435Y225500D02*
X838935Y253000D01*
X775185Y225500D02*
X811435D01*
X512643Y194590D02*
X520848D01*
X540460Y190808D02*
X565623D01*
X541730Y255295D02*
Y256820D01*
X765250Y300254D02*
X781439D01*
X787050Y305865D01*
Y312300D01*
X614961Y230474D02*
Y250308D01*
Y230474D02*
X618185Y227250D01*
X629961Y238866D02*
Y250308D01*
X623685Y232500D02*
Y232590D01*
X629961Y238866D01*
X654761Y269305D02*
Y279400D01*
X668435Y248000D02*
Y255631D01*
X654761Y269305D02*
X668435Y255631D01*
X655435Y226500D02*
X673435Y244500D01*
Y264000D01*
X654960Y116308D02*
X660877D01*
X661435Y115750D01*
X723935Y294492D02*
Y305750D01*
X717943Y288500D02*
X723935Y294492D01*
X540961Y279687D02*
X541500Y280226D01*
Y286500D01*
X506750Y173000D02*
X512948Y166802D01*
Y161022D02*
Y166802D01*
X665820Y155820D02*
X666050Y156050D01*
X665820Y151280D02*
X666050Y151050D01*
X509000Y276250D02*
X515500D01*
X431000Y166500D02*
X431303D01*
X687250Y214750D02*
X687878Y214122D01*
X687250Y214750D02*
X694000D01*
X694500Y215250D01*
X663729Y140808D02*
X674460D01*
X661924Y140345D02*
Y140716D01*
X663637D02*
X663729Y140808D01*
X661924Y140716D02*
X663637D01*
X713570Y101092D02*
X718820D01*
X666050Y156050D02*
X674550D01*
X666050Y151050D02*
X674550D01*
X654506Y139244D02*
X682658Y111092D01*
X718820D01*
X649966Y136343D02*
X680646Y105664D01*
X708998D01*
X713570Y101092D01*
X477500Y190250D02*
Y197500D01*
X462415Y197612D02*
X466598D01*
X431303Y166500D02*
X462415Y197612D01*
X439435Y166500D02*
Y166681D01*
X461838Y189084D01*
X467252D01*
X463389Y113192D02*
X498629Y148431D01*
X461732Y117192D02*
X494629Y150088D01*
X498629Y148431D02*
Y180575D01*
X249050Y315272D02*
X295148Y269174D01*
Y172905D02*
Y269174D01*
X526476Y246380D02*
X527304D01*
X515500Y257356D02*
X526476Y246380D01*
X506476Y273726D02*
Y273812D01*
X292862Y80264D02*
X293076Y80050D01*
X292608Y80264D02*
X292862D01*
X507474Y226550D02*
X513300D01*
X292490Y35740D02*
Y48142D01*
X289800Y33050D02*
X292490Y35740D01*
X276800Y80050D02*
X293076D01*
X490566Y151682D02*
Y209642D01*
X507474Y226550D01*
X477500Y197500D02*
X481076Y201076D01*
X485076Y248602D02*
X495300Y258826D01*
X484685Y195500D02*
X485076Y195891D01*
Y248602D01*
X460075Y121192D02*
X490566Y151682D01*
X494629Y205323D02*
X496316Y207010D01*
X494629Y150088D02*
Y205323D01*
X506502Y215926D02*
X511664D01*
X498629Y180575D02*
X504581Y186528D01*
X508670Y190617D02*
X512643Y194590D01*
X504581Y186528D02*
X504794D01*
X508670Y190404D02*
Y190617D01*
X504794Y186528D02*
X508670Y190404D01*
X502250Y192694D02*
X502412Y192532D01*
X502250Y211674D02*
X506502Y215926D01*
X502250Y192694D02*
Y211674D01*
X508000Y198120D02*
X511758Y201878D01*
Y205512D01*
D14*
X733935Y315750D02*
X738185D01*
X740435Y313500D01*
D16*
X740286Y294764D02*
Y313171D01*
X740500Y313385D01*
X740410Y313475D02*
X740500Y313385D01*
X740410Y313475D02*
X740435Y313500D01*
D20*
X480559Y278892D02*
D03*
X465559D02*
D03*
X450559D02*
D03*
X435559D02*
D03*
X420559D02*
D03*
X624761Y279500D02*
D03*
X639761D02*
D03*
X654761D02*
D03*
X669761D02*
D03*
X684761D02*
D03*
D22*
X127508Y260350D02*
D03*
X111508D02*
D03*
X342138Y271780D02*
D03*
X326138D02*
D03*
D23*
X605028Y97028D02*
D03*
X594028D02*
D03*
X625219Y97308D02*
D03*
X636218D02*
D03*
X594250Y270500D02*
D03*
X605250D02*
D03*
X678434Y97282D02*
D03*
X667434D02*
D03*
X704000Y198500D02*
D03*
X693000D02*
D03*
D24*
X521050Y187300D02*
D03*
Y176300D02*
D03*
X707250Y186750D02*
D03*
Y175750D02*
D03*
X695750Y186750D02*
D03*
Y175750D02*
D03*
X828185Y26250D02*
D03*
Y37250D02*
D03*
X495046Y284812D02*
D03*
Y273812D02*
D03*
D25*
X149098Y85090D02*
D03*
Y101090D02*
D03*
X735750Y182500D02*
D03*
Y198500D02*
D03*
X382980Y305078D02*
D03*
Y289078D02*
D03*
D37*
X244550Y81050D02*
D03*
Y100050D02*
D03*
X222550Y90550D02*
D03*
D38*
X177000Y108500D02*
D03*
X167000D02*
D03*
X64050Y237770D02*
D03*
X54050D02*
D03*
X796300Y333050D02*
D03*
X786300D02*
D03*
X787050Y312300D02*
D03*
X797050D02*
D03*
X511758Y226594D02*
D03*
X521758D02*
D03*
X511664Y215926D02*
D03*
X521664D02*
D03*
X511758Y205512D02*
D03*
X521758D02*
D03*
X513198Y142022D02*
D03*
X523198D02*
D03*
X512948Y151772D02*
D03*
X522948D02*
D03*
X512948Y161022D02*
D03*
X522948D02*
D03*
X121050Y241300D02*
D03*
X111050D02*
D03*
X121050Y226550D02*
D03*
X111050D02*
D03*
X515500Y265250D02*
D03*
X525500D02*
D03*
X515500Y276250D02*
D03*
X525500D02*
D03*
X523588Y120650D02*
D03*
X513588D02*
D03*
X198750Y108500D02*
D03*
X188750D02*
D03*
X177000Y89250D02*
D03*
X167000D02*
D03*
X285300Y20800D02*
D03*
X295300D02*
D03*
X226050Y10300D02*
D03*
X236050D02*
D03*
X303550Y100550D02*
D03*
X313550D02*
D03*
X241300Y66300D02*
D03*
X251300D02*
D03*
X230550D02*
D03*
X220550D02*
D03*
X350455Y43180D02*
D03*
X340455D02*
D03*
X350455Y32512D02*
D03*
X340455D02*
D03*
X721708Y215900D02*
D03*
X711708D02*
D03*
D40*
X84300Y251800D02*
D03*
Y261800D02*
D03*
X723935Y305750D02*
D03*
Y315750D02*
D03*
X551890Y279172D02*
D03*
Y269172D02*
D03*
X541476Y279172D02*
D03*
Y269172D02*
D03*
X136050Y239050D02*
D03*
Y229050D02*
D03*
X574750Y272000D02*
D03*
Y282000D02*
D03*
X696500Y135750D02*
D03*
Y145750D02*
D03*
X694500Y224000D02*
D03*
Y214000D02*
D03*
X733935Y315750D02*
D03*
Y305750D02*
D03*
X139902Y150742D02*
D03*
Y140742D02*
D03*
X813764Y27204D02*
D03*
Y37204D02*
D03*
X342000Y67500D02*
D03*
Y77500D02*
D03*
X285300Y43050D02*
D03*
Y33050D02*
D03*
D44*
X266800Y50050D02*
D03*
X247800D02*
D03*
X257300D02*
D03*
X247800Y24050D02*
D03*
X257300D02*
D03*
X266800D02*
D03*
D45*
X362152Y72314D02*
D03*
Y81814D02*
D03*
Y91314D02*
D03*
X388152Y81814D02*
D03*
Y91314D02*
D03*
Y72314D02*
D03*
D48*
X789198Y19522D02*
D03*
X84022Y311430D02*
D03*
D49*
X71424Y221924D02*
D03*
X52424D02*
D03*
X61924Y199924D02*
D03*
X813300Y314550D02*
D03*
X832300D02*
D03*
X822800Y336550D02*
D03*
X107050Y143300D02*
D03*
X126050D02*
D03*
X116550Y165300D02*
D03*
X386550Y38050D02*
D03*
X367550D02*
D03*
X377050Y16050D02*
D03*
X302550Y53550D02*
D03*
X321550D02*
D03*
X312050Y75550D02*
D03*
X286308Y102058D02*
D03*
X267308D02*
D03*
X276808Y80058D02*
D03*
D93*
X667434Y107188D02*
X667512D01*
X738550Y271800D02*
Y287661D01*
X726388Y259638D02*
X738550Y271800D01*
X726388Y229160D02*
Y259638D01*
X726750Y273250D02*
Y285806D01*
X702246Y248746D02*
X726750Y273250D01*
X702246Y226384D02*
Y248746D01*
X125704Y241300D02*
X128000Y239004D01*
Y235000D02*
Y239004D01*
X313944Y211717D02*
X331869Y229642D01*
X410548D01*
X721614Y224536D02*
X721708Y224442D01*
X738500Y227716D02*
Y228000D01*
Y227716D02*
X738550Y227666D01*
X790390Y322860D02*
X801064D01*
X786300Y326950D02*
X790390Y322860D01*
X786300Y326950D02*
Y333050D01*
X257300Y14300D02*
X261350Y10250D01*
X289750D01*
X295300Y15800D01*
X734314Y198626D02*
X735750Y200062D01*
Y209000D01*
X709000Y165000D02*
X726500Y182500D01*
X735750D01*
X736116Y182866D01*
X755142D01*
X712000Y130250D02*
X720250D01*
X709000Y133250D02*
X712000Y130250D01*
X709000Y133250D02*
Y138000D01*
X720250Y130250D02*
X723750Y133750D01*
Y143750D01*
Y160750D02*
Y170000D01*
X709000Y152000D02*
Y165000D01*
X733500Y141750D02*
X739750D01*
X731500Y143750D02*
X733500Y141750D01*
X723750Y143750D02*
X731500D01*
X723750Y160750D02*
X730726D01*
X734026Y164050D01*
X739750D01*
X495046Y284734D02*
X503682D01*
X594500Y266000D02*
Y270500D01*
X723138Y86868D02*
X723646Y86360D01*
X729000Y79532D02*
Y84562D01*
X601915Y135128D02*
X602296Y134747D01*
X520697Y187250D02*
X520899Y187452D01*
X604961Y97028D02*
Y116308D01*
X398506Y81814D02*
X398935Y81385D01*
X386601Y38000D02*
X386701Y38100D01*
X286301Y102050D02*
X292726D01*
X285496Y54746D02*
X287750Y57000D01*
X285300Y54550D02*
X285496Y54355D01*
X257198Y49948D02*
X257302Y49844D01*
X707000Y205250D02*
X714250D01*
X704000Y202250D02*
X707000Y205250D01*
X704000Y198500D02*
Y202250D01*
X714000Y186750D02*
X716250Y189000D01*
X707250Y186750D02*
X714000D01*
X695750D02*
X707250D01*
X690500D02*
X695750D01*
X684558Y180808D02*
X690500Y186750D01*
X674460Y180808D02*
X684558D01*
X221189Y364750D02*
X267391D01*
X136189Y279750D02*
X221189Y364750D01*
X300736Y201698D02*
Y273014D01*
X276949Y296801D02*
X300736Y273014D01*
X276949Y296801D02*
Y344818D01*
X410548Y230052D02*
Y243202D01*
X399685Y254065D02*
X410548Y243202D01*
X399685Y254065D02*
Y299250D01*
X699862Y224000D02*
X702246Y226384D01*
X694500Y224000D02*
X699862D01*
X734036Y292176D02*
X738550Y287661D01*
X734036Y292176D02*
Y292628D01*
X733804Y292860D02*
X734036Y292628D01*
X726750Y285806D02*
X733804Y292860D01*
X216488Y142312D02*
X219198Y145022D01*
X204238Y142312D02*
X216488D01*
X215122Y212312D02*
X217685Y209750D01*
X204238Y212312D02*
X215122D01*
X166370Y131826D02*
X177000Y121196D01*
X111434Y129500D02*
X111500D01*
X107050Y133884D02*
X111434Y129500D01*
X426974Y212852D02*
Y219964D01*
X424174Y210052D02*
X426974Y212852D01*
X410548Y210052D02*
X424174D01*
X430530Y229616D02*
X462524D01*
X462550Y229642D01*
X410574Y229616D02*
X430530D01*
X410548Y229642D02*
X410574Y229616D01*
X253300Y10300D02*
X257300Y14300D01*
X236050Y10300D02*
X253300D01*
X353086Y81814D02*
X362152D01*
X348772Y77500D02*
X353086Y81814D01*
X342000Y77500D02*
X348772D01*
X415036Y182372D02*
X420116D01*
X410548Y177884D02*
X415036Y182372D01*
X410548Y170052D02*
Y177884D01*
X300736Y201698D02*
X341634Y160800D01*
X386389D01*
X333248Y179070D02*
Y221488D01*
X239776Y36576D02*
X251714D01*
X295300Y15800D02*
Y20800D01*
X257300Y24050D02*
Y30989D01*
X251714Y36576D02*
X257300Y30989D01*
X386701Y38100D02*
X398780D01*
X267391Y364750D02*
X277014Y355126D01*
Y344883D02*
Y355126D01*
X276949Y344818D02*
X277014Y344883D01*
X733935Y292991D02*
Y305750D01*
X177000Y108500D02*
Y121196D01*
X382980Y305876D02*
Y323140D01*
X369070Y337050D02*
X382980Y323140D01*
X352300Y337050D02*
X369070D01*
X641832Y97308D02*
X645668Y93472D01*
X636218Y97308D02*
X641832D01*
X585470Y93472D02*
X589026Y97028D01*
X594028D01*
X754902Y182626D02*
X755142Y182866D01*
X503682Y284734D02*
X506476Y281940D01*
X349184Y271780D02*
X355789Y265176D01*
X342138Y271780D02*
X349184D01*
X352300Y286260D02*
Y291050D01*
X342138Y276098D02*
X352300Y286260D01*
X342138Y271780D02*
Y276098D01*
Y262636D02*
Y271780D01*
X294300Y289072D02*
X311592Y271780D01*
X326138D01*
X326000Y262750D02*
X326138Y262888D01*
Y271780D01*
X130775Y101090D02*
X149098D01*
X117435Y87750D02*
X130775Y101090D01*
X601915Y134874D02*
X602169Y134620D01*
X604961Y131828D01*
X105664Y260350D02*
X111508D01*
X103185Y257871D02*
X105664Y260350D01*
X103185Y251000D02*
Y257871D01*
X684276Y97282D02*
X688086Y93472D01*
X678434Y97282D02*
X684276D01*
X741250Y84500D02*
X746322Y89572D01*
X741250Y69674D02*
Y84500D01*
X746322Y89572D02*
X765449D01*
X737108Y65532D02*
X741250Y69674D01*
X728980Y65532D02*
X737108D01*
X726694Y86868D02*
X729000Y84562D01*
X723646Y86868D02*
X726694D01*
X723646Y86996D02*
Y87376D01*
X723138Y87884D02*
X723646Y87376D01*
X723138Y86868D02*
X723646D01*
X667434Y107188D02*
X667434Y107188D01*
X667434Y97282D02*
Y107188D01*
X619278Y97308D02*
X625219D01*
X615442Y93472D02*
X619278Y97308D01*
X594028Y97028D02*
Y101051D01*
X599961Y106983D01*
X755142Y193802D02*
X755396Y193548D01*
X755142Y193802D02*
Y212866D01*
X398935Y81385D02*
Y81750D01*
X388152Y81814D02*
X398506D01*
X398935Y81343D02*
X398983Y81294D01*
X398935Y81385D02*
X398983Y81337D01*
X398935Y81343D02*
Y81385D01*
X800950Y27300D02*
X813668D01*
X796750Y31500D02*
X800950Y27300D01*
X342000Y80565D02*
X346935Y85500D01*
X342000Y77500D02*
Y80565D01*
X605500Y270500D02*
Y277500D01*
X605250Y266039D02*
X609961Y261329D01*
X605250Y266039D02*
Y270500D01*
X599192Y261308D02*
X602910D01*
X594500Y266000D02*
X599192Y261308D01*
X828000Y301250D02*
X832300Y305550D01*
X802684Y301250D02*
X828000D01*
X797050Y306884D02*
X802684Y301250D01*
X198750Y115323D02*
X217198Y133772D01*
X198750Y108500D02*
Y115323D01*
X813300Y314550D02*
Y321546D01*
X808430Y326416D02*
X813300Y321546D01*
X609961Y250308D02*
Y261329D01*
X603000Y235500D02*
Y235815D01*
X604961Y237775D01*
X71424Y234240D02*
X76935Y239750D01*
X71424Y221924D02*
Y234240D01*
X386550Y38050D02*
X386601Y38000D01*
X332812Y107050D02*
X335215Y104648D01*
X140559Y336042D02*
X146493D01*
X382980Y289078D02*
X392513D01*
X352300Y306634D02*
X356185Y302750D01*
X393935Y305000D02*
X399685Y299250D01*
X383185Y305000D02*
X393935D01*
X383106Y305078D02*
X383185Y305000D01*
X382104D02*
X382980Y305876D01*
X383106Y305078D02*
Y305750D01*
X371685Y305000D02*
X382104D01*
X382980Y305876D02*
X383106Y305750D01*
X653935Y97250D02*
X653935D01*
X641435Y103500D02*
X647685D01*
X644960Y106224D02*
X653935Y97250D01*
X664613D01*
X647685Y103500D02*
X653935Y97250D01*
X634961Y103750D02*
Y116308D01*
X644960D02*
Y116550D01*
Y106224D02*
Y116308D01*
X639961Y104974D02*
X641435Y103500D01*
X639961Y104974D02*
Y116308D01*
X604961Y237775D02*
Y250308D01*
X294300Y289072D02*
Y314050D01*
X604961Y116308D02*
Y131828D01*
X601915Y134874D02*
Y135128D01*
X297726Y107050D02*
X332812D01*
X292726Y102050D02*
X297726Y107050D01*
X836002Y37250D02*
X840688Y41936D01*
X121050Y241300D02*
X125704D01*
X625219Y102564D02*
X629961Y107306D01*
Y116308D01*
X599961Y106983D02*
Y116308D01*
X528923Y185808D02*
X540460D01*
X527430Y187300D02*
X528923Y185808D01*
X521050Y172598D02*
Y176300D01*
X522840Y170808D02*
X540460D01*
X521050Y172598D02*
X522840Y170808D01*
X602910Y261308D02*
X604961Y259258D01*
X832300Y305550D02*
Y314550D01*
X111050Y219800D02*
Y226550D01*
X243050Y79550D02*
X244550Y81050D01*
X257300Y14300D02*
Y24050D01*
X223550Y79550D02*
X243050D01*
X135050Y330550D02*
X140550Y336050D01*
X521050Y187300D02*
X527430D01*
X625219Y97308D02*
Y102564D01*
X257198Y49948D02*
X257300Y50050D01*
X604961Y250308D02*
Y259258D01*
X465548Y210052D02*
Y230052D01*
X395641Y170052D02*
X410548D01*
Y150052D02*
Y170052D01*
Y150052D02*
X465548D01*
Y170052D01*
X821450Y61072D02*
X836337D01*
X840688Y56720D01*
Y41936D02*
Y56720D01*
X766449Y61072D02*
X767946D01*
X821448D01*
X766449Y62570D02*
X767946Y61072D01*
X821450Y61074D02*
Y150070D01*
X821448Y61072D02*
X821450Y61074D01*
X766449Y150072D02*
X821448D01*
X821450Y150070D01*
X751146Y121572D02*
X765449D01*
X140550Y336050D02*
X140559Y336042D01*
X410548Y229642D02*
Y230052D01*
Y210052D02*
Y229642D01*
X386389Y160800D02*
X395641Y170052D01*
X828185Y37250D02*
X836002D01*
X813764Y37204D02*
X828139D01*
X828185Y37250D01*
X813764Y27204D02*
X820981D01*
X821935Y26250D01*
X828185D01*
X352300Y306634D02*
Y314050D01*
X119050Y330550D02*
X135050D01*
X107050Y133884D02*
Y143300D01*
X520899Y187452D02*
X521050Y187300D01*
X513685Y187250D02*
X520697D01*
X797050Y306884D02*
Y312300D01*
X636218Y97308D02*
Y102492D01*
X634961Y103750D02*
X636218Y102492D01*
X723935Y315750D02*
Y326236D01*
X732217Y334518D01*
X514700Y176300D02*
X521050D01*
X512750Y178250D02*
X514700Y176300D01*
X739750Y132968D02*
Y141750D01*
Y132968D02*
X751146Y121572D01*
X715000Y239499D02*
X715050Y239550D01*
X711708Y215900D02*
Y224282D01*
X715000Y227574D01*
Y239499D01*
X753124Y210058D02*
X753364Y209818D01*
X721708Y215900D02*
Y224442D01*
X726388Y229160D02*
X742682Y212866D01*
X755142D01*
X738550Y227666D02*
Y239550D01*
X313944Y211717D02*
Y212090D01*
X257302Y40894D02*
Y49844D01*
X287750Y57000D02*
X294028D01*
X297478Y53550D01*
X302550D01*
X285300Y43050D02*
Y54550D01*
X285496Y54355D02*
Y54746D01*
Y54355D02*
X286258Y55117D01*
Y55118D01*
D97*
X480559Y278892D02*
D03*
X465559D02*
D03*
X450559D02*
D03*
X435559D02*
D03*
X420559D02*
D03*
X624761Y279500D02*
D03*
X639761D02*
D03*
X654761D02*
D03*
X669761D02*
D03*
X684761D02*
D03*
D98*
X176238Y142312D02*
D03*
X204238D02*
D03*
X176238Y167712D02*
D03*
X204238D02*
D03*
Y237712D02*
D03*
X176238D02*
D03*
X204238Y212312D02*
D03*
X176238D02*
D03*
D99*
X789700Y278500D02*
D03*
X760000D02*
D03*
X789700Y239500D02*
D03*
X760000D02*
D03*
D100*
X274040Y232010D02*
D03*
Y148010D02*
D03*
D101*
X280697Y269272D02*
D03*
X261698D02*
D03*
D102*
X791948Y127572D02*
D03*
Y83572D02*
D03*
D103*
X643000Y168250D02*
D03*
X642500Y159000D02*
D03*
X614250Y141500D02*
D03*
X688000Y140000D02*
D03*
X686000Y127750D02*
D03*
X649750Y155250D02*
D03*
X636000Y196250D02*
D03*
X621000Y153750D02*
D03*
X626364Y190250D02*
D03*
X630666Y183941D02*
D03*
X620750Y177000D02*
D03*
X606500Y177750D02*
D03*
X600500Y165750D02*
D03*
X588250Y164500D02*
D03*
X582463Y197259D02*
D03*
X567500Y166250D02*
D03*
X655320Y193548D02*
D03*
X667512Y107188D02*
D03*
X207500Y107250D02*
D03*
X661250Y210000D02*
D03*
X684250Y253750D02*
D03*
X128000Y235000D02*
D03*
X531049Y104648D02*
D03*
X606500Y141250D02*
D03*
X565000Y158500D02*
D03*
X614250Y203250D02*
D03*
X607250Y196250D02*
D03*
X588250Y205250D02*
D03*
X567403Y203241D02*
D03*
X563278Y196760D02*
D03*
X570778Y196010D02*
D03*
X333250Y222000D02*
D03*
X351190Y188122D02*
D03*
X721614Y224536D02*
D03*
X738500Y228000D02*
D03*
X735750Y209000D02*
D03*
X723750Y170000D02*
D03*
X804185Y340000D02*
D03*
X135750Y269500D02*
D03*
X136189Y279750D02*
D03*
X740286Y294764D02*
D03*
X647185Y226750D02*
D03*
X459250Y106000D02*
D03*
X230750Y105500D02*
D03*
X253000Y90500D02*
D03*
X273949Y168773D02*
D03*
X166370Y131826D02*
D03*
X309750Y90000D02*
D03*
X73750Y202750D02*
D03*
X81788Y161290D02*
D03*
X73685Y161712D02*
D03*
X87630Y167304D02*
D03*
X217250Y305750D02*
D03*
X182750Y306750D02*
D03*
X366750Y132750D02*
D03*
X361000Y138500D02*
D03*
X366250Y106750D02*
D03*
X340000Y139750D02*
D03*
X504250Y138500D02*
D03*
X116500Y123500D02*
D03*
X111500Y129500D02*
D03*
X220500Y280500D02*
D03*
X215935Y296750D02*
D03*
X746492Y265536D02*
D03*
X746685Y299000D02*
D03*
X178816Y73406D02*
D03*
X526288Y133096D02*
D03*
X426974Y219964D02*
D03*
X430530Y229616D02*
D03*
X368808Y213868D02*
D03*
X437896Y197612D02*
D03*
X437642Y186436D02*
D03*
X78689Y299514D02*
D03*
X97282Y328422D02*
D03*
X210820Y64516D02*
D03*
X158242Y67564D02*
D03*
X627685Y198000D02*
D03*
X421386Y197612D02*
D03*
X172212Y324612D02*
D03*
X455676Y79248D02*
D03*
X484632Y102870D02*
D03*
X490474Y91440D02*
D03*
X326644Y164846D02*
D03*
X333248Y179070D02*
D03*
X121666Y52578D02*
D03*
X239776Y36576D02*
D03*
X321818Y35306D02*
D03*
X237490Y48260D02*
D03*
X372618Y64262D02*
D03*
X359664Y56388D02*
D03*
X398780Y38100D02*
D03*
Y56388D02*
D03*
X270764Y347472D02*
D03*
X270002Y334772D02*
D03*
X242824Y364998D02*
D03*
X284935Y347000D02*
D03*
X110998Y218440D02*
D03*
X645668Y93472D02*
D03*
X585470D02*
D03*
X236685Y203750D02*
D03*
X688340Y161160D02*
D03*
X560070Y151384D02*
D03*
X342138Y262636D02*
D03*
X594614Y132588D02*
D03*
X625029Y134112D02*
D03*
X632716Y133006D02*
D03*
X602169Y134620D02*
D03*
X148314Y134620D02*
D03*
X144435Y239000D02*
D03*
X723646Y13716D02*
D03*
Y32258D02*
D03*
X689864Y238760D02*
D03*
X681228Y239014D02*
D03*
X752791Y305816D02*
D03*
X688086Y93472D02*
D03*
X723646Y86868D02*
D03*
X716534Y93472D02*
D03*
X716280Y119888D02*
D03*
X615442Y93472D02*
D03*
X73914Y86614D02*
D03*
X413258Y258500D02*
D03*
X716250Y189000D02*
D03*
X398935Y81750D02*
D03*
X356000Y106750D02*
D03*
X796750Y31500D02*
D03*
X334000Y75750D02*
D03*
X567250Y280750D02*
D03*
X605500Y277500D02*
D03*
X597154Y140970D02*
D03*
X549000Y104750D02*
D03*
X381000Y343750D02*
D03*
X730500Y367000D02*
D03*
X765306Y367056D02*
D03*
X586250Y235250D02*
D03*
X575750D02*
D03*
X603000Y235500D02*
D03*
X660250Y182500D02*
D03*
X154000Y52500D02*
D03*
X450435Y313000D02*
D03*
X354202Y362767D02*
D03*
X99435Y244250D02*
D03*
X99685Y276500D02*
D03*
X103435Y269500D02*
D03*
X76935Y239750D02*
D03*
X357685Y32750D02*
D03*
X585685Y132250D02*
D03*
X655435Y226500D02*
D03*
X742250Y252500D02*
D03*
X313741Y335306D02*
D03*
X143435Y128500D02*
D03*
X163185Y237500D02*
D03*
X157685Y203500D02*
D03*
X170435Y197500D02*
D03*
X392513Y289078D02*
D03*
X393935Y305000D02*
D03*
X353435Y326500D02*
D03*
X615390Y265456D02*
D03*
X566935Y272000D02*
D03*
X456185Y296000D02*
D03*
X303685Y127750D02*
D03*
X346935Y85500D02*
D03*
X74611Y193548D02*
D03*
X498935Y132250D02*
D03*
X490917Y132334D02*
D03*
X439435Y166500D02*
D03*
X379919Y270002D02*
D03*
X371791Y268732D02*
D03*
X327595Y128270D02*
D03*
X441935Y93250D02*
D03*
X137095Y179832D02*
D03*
X163003Y266954D02*
D03*
X355789Y265176D02*
D03*
X335215Y104648D02*
D03*
X310577Y41656D02*
D03*
X541730Y256820D02*
D03*
X277536Y48280D02*
D03*
X275504Y22118D02*
D03*
X146185Y54250D02*
D03*
X270000Y316750D02*
D03*
X71322Y41428D02*
D03*
X71576Y337592D02*
D03*
X219198Y145022D02*
D03*
X312863Y309118D02*
D03*
X374598Y276378D02*
D03*
X350722Y239548D02*
D03*
X808130Y13970D02*
D03*
X383800Y167050D02*
D03*
X213800Y74550D02*
D03*
X223550Y79550D02*
D03*
X482802Y312954D02*
D03*
X552685Y253500D02*
D03*
X136600Y85370D02*
D03*
X391935Y371500D02*
D03*
X398935Y349750D02*
D03*
X139381Y368300D02*
D03*
X67935Y266750D02*
D03*
X52935Y129250D02*
D03*
X823685Y226750D02*
D03*
X774889Y215900D02*
D03*
X840185Y358250D02*
D03*
X118685Y203500D02*
D03*
X103185Y251000D02*
D03*
X217185Y218000D02*
D03*
X217935Y237500D02*
D03*
X244000Y141750D02*
D03*
X114185Y58250D02*
D03*
X254250Y150000D02*
D03*
X808935Y239250D02*
D03*
X799935Y371250D02*
D03*
X217198Y133772D02*
D03*
X67685Y288250D02*
D03*
X47954Y183414D02*
D03*
X816935Y269500D02*
D03*
X398220Y333528D02*
D03*
X327354Y86132D02*
D03*
X808430Y326416D02*
D03*
X801064Y322860D02*
D03*
X765250Y300254D02*
D03*
X59436Y156718D02*
D03*
X55185Y250500D02*
D03*
X337044Y55793D02*
D03*
X428935Y106250D02*
D03*
X398969Y69342D02*
D03*
X398780Y47752D02*
D03*
X345121Y104902D02*
D03*
X375250Y169750D02*
D03*
X247935Y186500D02*
D03*
X242000Y240250D02*
D03*
X309185Y134000D02*
D03*
X309815Y285242D02*
D03*
X325935Y291000D02*
D03*
X103185Y285250D02*
D03*
X136935Y203750D02*
D03*
X99935Y66500D02*
D03*
X253185Y279250D02*
D03*
X845685Y238250D02*
D03*
X146493Y336042D02*
D03*
X75627Y247904D02*
D03*
X288685Y235000D02*
D03*
X449007Y132080D02*
D03*
X518603Y99314D02*
D03*
X429957Y132588D02*
D03*
X313625Y226568D02*
D03*
X537399Y237490D02*
D03*
X738821Y345948D02*
D03*
X730439Y357124D02*
D03*
X758633Y357378D02*
D03*
X83550Y71550D02*
D03*
X102185Y41500D02*
D03*
X255435Y224500D02*
D03*
X85935Y218250D02*
D03*
X197435Y279750D02*
D03*
X182935Y281750D02*
D03*
X366000Y144250D02*
D03*
X551935Y286500D02*
D03*
X383685Y132500D02*
D03*
X570185Y93250D02*
D03*
X356185Y302750D02*
D03*
X142185Y320500D02*
D03*
X791435Y371500D02*
D03*
X117435Y87750D02*
D03*
X136685Y56000D02*
D03*
X234685Y246750D02*
D03*
X371685Y305000D02*
D03*
X276948Y92004D02*
D03*
X288935Y87750D02*
D03*
X405185Y107000D02*
D03*
X594435Y235500D02*
D03*
X838935Y301500D02*
D03*
X845935Y315000D02*
D03*
X775185Y225500D02*
D03*
X513685Y187250D02*
D03*
X129185Y179750D02*
D03*
X61000Y167000D02*
D03*
X794435Y299000D02*
D03*
X786935Y294500D02*
D03*
X418435Y93250D02*
D03*
X137685Y8750D02*
D03*
X169672Y262890D02*
D03*
X363185Y258500D02*
D03*
X388112Y239014D02*
D03*
X217685Y209750D02*
D03*
X153185Y344500D02*
D03*
X208185Y365250D02*
D03*
X170935Y365750D02*
D03*
X189685Y365500D02*
D03*
X149685Y317000D02*
D03*
X623685Y232500D02*
D03*
X618185Y227250D02*
D03*
X662435Y253500D02*
D03*
X463739Y68834D02*
D03*
X494185Y75500D02*
D03*
X661435Y115750D02*
D03*
X109685Y33250D02*
D03*
X797185Y352000D02*
D03*
X137100Y107584D02*
D03*
X736281Y327914D02*
D03*
X732217Y334518D02*
D03*
X828050Y292615D02*
D03*
X99398Y84094D02*
D03*
X541500Y286500D02*
D03*
X484500Y186000D02*
D03*
X512750Y178250D02*
D03*
X506750Y173000D02*
D03*
X326000Y262750D02*
D03*
X507238Y264668D02*
D03*
X431000Y166500D02*
D03*
X159000Y350500D02*
D03*
X687250Y214750D02*
D03*
X661924Y140716D02*
D03*
X755396Y193548D02*
D03*
X124206Y299720D02*
D03*
X484685Y195500D02*
D03*
X477500Y190250D02*
D03*
X466598Y197612D02*
D03*
X467252Y189084D02*
D03*
X471424Y182372D02*
D03*
X420116D02*
D03*
X372364D02*
D03*
X341280Y190022D02*
D03*
X310685Y165500D02*
D03*
X313944Y212090D02*
D03*
X301498Y190500D02*
D03*
X321310Y228854D02*
D03*
X527304Y246380D02*
D03*
X506476Y273812D02*
D03*
Y281940D02*
D03*
X495300Y258826D02*
D03*
X257302Y40894D02*
D03*
X286258Y55118D02*
D03*
X286766Y71120D02*
D03*
X292608Y80264D02*
D03*
X67056Y157734D02*
D03*
X292490Y48142D02*
D03*
X714250Y205250D02*
D03*
X496316Y207010D02*
D03*
X508000Y198120D02*
D03*
X502412Y192532D02*
D03*
D104*
X739750Y141750D02*
D03*
Y164050D02*
D03*
D105*
X755142Y182866D02*
D03*
Y212866D02*
D03*
D106*
X709000Y152000D02*
D03*
Y138000D02*
D03*
X728980Y79532D02*
D03*
Y65532D02*
D03*
D107*
X723750Y160750D02*
D03*
Y143750D02*
D03*
D108*
X674460Y230808D02*
D03*
Y225808D02*
D03*
Y215808D02*
D03*
Y220808D02*
D03*
Y200808D02*
D03*
Y195808D02*
D03*
Y205808D02*
D03*
Y210808D02*
D03*
Y170808D02*
D03*
Y165808D02*
D03*
Y155808D02*
D03*
Y160808D02*
D03*
Y180808D02*
D03*
Y175808D02*
D03*
Y185808D02*
D03*
Y190808D02*
D03*
Y140808D02*
D03*
Y135808D02*
D03*
Y145808D02*
D03*
Y150808D02*
D03*
X540460D02*
D03*
Y145808D02*
D03*
Y135808D02*
D03*
Y140808D02*
D03*
Y190808D02*
D03*
Y185808D02*
D03*
Y175808D02*
D03*
Y180808D02*
D03*
Y160808D02*
D03*
Y155808D02*
D03*
Y165808D02*
D03*
Y170808D02*
D03*
Y210808D02*
D03*
Y205808D02*
D03*
Y195808D02*
D03*
Y200808D02*
D03*
Y220808D02*
D03*
Y215808D02*
D03*
Y225808D02*
D03*
Y230808D02*
D03*
D109*
X574961Y250308D02*
D03*
X569961D02*
D03*
X559961D02*
D03*
X564961D02*
D03*
X614961D02*
D03*
X609961D02*
D03*
X599961D02*
D03*
X604961D02*
D03*
X584961D02*
D03*
X579961D02*
D03*
X589961D02*
D03*
X594961D02*
D03*
X634961D02*
D03*
X629961D02*
D03*
X619961D02*
D03*
X624961D02*
D03*
X644960D02*
D03*
X639961D02*
D03*
X649960D02*
D03*
X654960D02*
D03*
X574961Y116308D02*
D03*
X569961D02*
D03*
X559961D02*
D03*
X564961D02*
D03*
X614961D02*
D03*
X609961D02*
D03*
X599961D02*
D03*
X604961D02*
D03*
X584961D02*
D03*
X579961D02*
D03*
X589961D02*
D03*
X594961D02*
D03*
X634961D02*
D03*
X629961D02*
D03*
X619961D02*
D03*
X624961D02*
D03*
X644960D02*
D03*
X639961D02*
D03*
X649960D02*
D03*
X654960D02*
D03*
D110*
X249050Y330550D02*
D03*
X119050Y330550D02*
D03*
D111*
X821448Y61072D02*
D03*
X766449D02*
D03*
X821448Y150072D02*
D03*
X766449D02*
D03*
D112*
X765449Y105572D02*
D03*
Y97572D02*
D03*
Y89572D02*
D03*
Y113572D02*
D03*
Y121572D02*
D03*
D113*
X733320Y101092D02*
D03*
Y106092D02*
D03*
Y111092D02*
D03*
X718820D02*
D03*
Y106092D02*
D03*
Y101092D02*
D03*
D114*
X294300Y314050D02*
D03*
D115*
X352300Y291050D02*
D03*
Y314050D02*
D03*
Y337050D02*
D03*
D116*
X715050Y278550D02*
D03*
X738550D02*
D03*
X715050Y239550D02*
D03*
X738550D02*
D03*
D117*
X465548Y230052D02*
D03*
Y210052D02*
D03*
Y150052D02*
D03*
Y170052D02*
D03*
X410548D02*
D03*
Y150052D02*
D03*
Y210052D02*
D03*
Y230052D02*
D03*
M02*
