G04*
G04 #@! TF.GenerationSoftware,Altium Limited,Altium Designer,18.0.9 (584)*
G04*
G04 Layer_Physical_Order=1*
G04 Layer_Color=255*
%FSLAX44Y44*%
%MOMM*%
G71*
G01*
G75*
%ADD11C,0.2000*%
%ADD14C,0.2500*%
%ADD16C,0.2540*%
%ADD20R,1.0190X2.0000*%
%ADD21R,2.4000X2.0000*%
%ADD22R,0.9000X0.9000*%
%ADD23R,0.6000X0.6000*%
%ADD24R,0.6000X0.6000*%
%ADD25R,0.9000X0.9000*%
%ADD26P,2.1213X4X282.3*%
%ADD27P,1.2728X4X282.3*%
%ADD28P,1.2728X4X347.7*%
%ADD29P,2.1213X4X347.7*%
%ADD30R,3.0000X1.2000*%
%ADD31R,1.7500X1.5000*%
%ADD32R,1.5000X1.5000*%
%ADD33R,0.4000X0.4000*%
%ADD34R,0.2000X0.4000*%
%ADD35R,0.7000X2.5500*%
%ADD37R,1.4000X1.0000*%
%ADD38R,0.5000X0.6000*%
%ADD39R,0.7000X1.3000*%
%ADD40R,0.6000X0.5000*%
%ADD41R,0.6000X1.1000*%
%ADD42R,0.3050X0.8130*%
%ADD43R,0.8130X0.3050*%
%ADD44R,0.7000X1.0000*%
%ADD45R,1.0000X0.7000*%
%ADD46R,0.4500X1.7500*%
%ADD47R,0.8000X1.4000*%
%ADD48C,1.0000*%
%ADD49R,1.0000X1.4000*%
%ADD50R,0.6000X1.5500*%
%ADD51R,1.2000X1.8000*%
%ADD92R,1.9100X0.9999*%
%ADD93C,0.3000*%
%ADD94R,4.0000X3.0500*%
%ADD95R,3.2000X1.4750*%
%ADD96R,3.2000X1.4250*%
%ADD97C,0.7000*%
%ADD98C,1.6002*%
%ADD99C,2.0000*%
%ADD100C,1.6992*%
%ADD101C,1.2996*%
%ADD102C,0.6000*%
%ADD103C,0.5500*%
G36*
X257300Y356550D02*
X272360D01*
X273188Y354550D01*
X271347Y352709D01*
X270764Y352825D01*
X268716Y352417D01*
X266979Y351257D01*
X265819Y349520D01*
X265411Y347472D01*
X265819Y345424D01*
X266979Y343687D01*
X268716Y342527D01*
X270764Y342119D01*
X272812Y342527D01*
X274549Y343687D01*
X275709Y345424D01*
X276095Y347364D01*
X277820Y349088D01*
X279174Y350380D01*
Y350380D01*
X279174Y350380D01*
X287174D01*
X289174Y350380D01*
X291174Y350380D01*
X299174D01*
Y351106D01*
X301174Y351935D01*
X306456Y346654D01*
X305690Y344806D01*
X296486D01*
Y327884D01*
X249129D01*
X246879Y330135D01*
Y332550D01*
X248300D01*
Y353050D01*
X246879D01*
Y361617D01*
X247769Y362950D01*
X248177Y364998D01*
X247769Y367046D01*
X246609Y368783D01*
X244872Y369943D01*
X242824Y370351D01*
X240776Y369943D01*
X240300Y369626D01*
X238300Y370695D01*
Y374392D01*
X257300D01*
Y356550D01*
D02*
G37*
G36*
X815000Y373930D02*
Y353930D01*
X813207Y353430D01*
X811500D01*
Y343313D01*
X809500Y341913D01*
X809130Y342048D01*
X807970Y343785D01*
X806233Y344945D01*
X804185Y345353D01*
X803263Y345169D01*
X801263Y346584D01*
Y348654D01*
X802130Y349951D01*
X802538Y352000D01*
X802130Y354048D01*
X800970Y355785D01*
X799233Y356945D01*
X797185Y357352D01*
X795136Y356945D01*
X793400Y355785D01*
X792239Y354048D01*
X791832Y352000D01*
X792239Y349951D01*
X793106Y348654D01*
Y342980D01*
X793102Y340982D01*
X783552D01*
X779514Y345020D01*
X778267Y345853D01*
X777467Y346012D01*
X775651Y346456D01*
Y346456D01*
X772823D01*
Y348867D01*
X772823D01*
X772061Y350708D01*
X773524Y352171D01*
X774007Y352894D01*
X776501D01*
Y363894D01*
X771729D01*
X770428Y365894D01*
X770659Y367056D01*
X770251Y369104D01*
X769091Y370841D01*
X767354Y372001D01*
X765306Y372409D01*
X763258Y372001D01*
X761960Y371134D01*
X755510D01*
Y372056D01*
X744510D01*
Y372056D01*
X743813Y372124D01*
Y372124D01*
X742539Y372124D01*
X732813D01*
X732813Y372124D01*
Y372124D01*
X730877Y372278D01*
X730500Y372353D01*
X728452Y371945D01*
X726715Y370785D01*
X725555Y369048D01*
X725147Y367000D01*
X725555Y364952D01*
X726715Y363215D01*
X726654Y360909D01*
X725493Y359172D01*
X725086Y357124D01*
X725493Y355075D01*
X726654Y353339D01*
X726870Y353194D01*
Y344972D01*
X727142Y343606D01*
X727915Y342448D01*
X729208Y341156D01*
X728912Y338624D01*
X728432Y338303D01*
X727271Y336566D01*
X726864Y334518D01*
X727271Y332469D01*
X728432Y330733D01*
X730168Y329572D01*
X732217Y329165D01*
X734265Y329572D01*
X736002Y330733D01*
X736322Y331213D01*
X737693Y331766D01*
X739277Y330763D01*
X739483Y330527D01*
Y328577D01*
X739483D01*
Y320527D01*
X741869D01*
X741869Y317655D01*
X741697Y317483D01*
X740923Y316326D01*
X740651Y314960D01*
Y301464D01*
X740923Y300099D01*
X741407Y299375D01*
X741332Y299000D01*
X741739Y296951D01*
X742900Y295215D01*
X743883Y294558D01*
X744376Y292222D01*
X703472Y251319D01*
X669393D01*
X667751Y253319D01*
X667787Y253500D01*
X667380Y255548D01*
X666220Y257285D01*
X664483Y258445D01*
X662435Y258853D01*
X660386Y258445D01*
X658650Y257285D01*
X658505Y257068D01*
X651964D01*
X644033Y265000D01*
X644861Y267000D01*
X692356D01*
Y289392D01*
X715250D01*
X717396Y289819D01*
X719216Y291035D01*
X720431Y292854D01*
X720858Y295000D01*
Y374392D01*
X813191D01*
X815000Y373930D01*
D02*
G37*
G36*
X401642Y339778D02*
X399642Y338598D01*
X398220Y338881D01*
X396172Y338473D01*
X395801Y338225D01*
X393801Y339010D01*
Y339010D01*
X386552D01*
X385483Y341010D01*
X385945Y341702D01*
X386353Y343750D01*
X386096Y345040D01*
X386000Y347000D01*
X386000Y347000D01*
X386000Y347000D01*
Y358000D01*
X378000D01*
X376000Y358000D01*
Y358000D01*
X376000D01*
Y358000D01*
X366000D01*
Y347000D01*
X366000Y347000D01*
X366000D01*
X364937Y345484D01*
X364031Y344578D01*
X363257Y343420D01*
X363017Y342212D01*
X359054D01*
Y330212D01*
X374054D01*
Y330212D01*
X376012Y330753D01*
X376054Y330745D01*
X377378Y330481D01*
X381525D01*
X382801Y329010D01*
Y319010D01*
X393801D01*
X393854Y319931D01*
X395414Y320242D01*
X396738Y321126D01*
X399642Y324031D01*
X401642Y323202D01*
Y295000D01*
X402069Y292854D01*
X403285Y291035D01*
X405104Y289819D01*
X407250Y289392D01*
X412964D01*
Y266392D01*
X427924D01*
Y266352D01*
X434289D01*
Y278892D01*
X436829D01*
Y266352D01*
X443194D01*
Y266392D01*
X447211D01*
X447262Y266134D01*
X448035Y264976D01*
X465982Y247029D01*
Y237378D01*
X464802D01*
Y214878D01*
X476204D01*
X476969Y213030D01*
X466853Y202914D01*
X466598Y202965D01*
X464550Y202557D01*
X462813Y201397D01*
X461653Y199660D01*
X461245Y197612D01*
X461653Y195564D01*
X462813Y193827D01*
X462596Y191567D01*
X462306Y191133D01*
X461899Y189084D01*
X462306Y187036D01*
X463466Y185299D01*
X465203Y184139D01*
X467252Y183732D01*
X469300Y184139D01*
X471036Y185299D01*
X473259Y185145D01*
X473931Y184635D01*
Y183500D01*
X474203Y182134D01*
X474977Y180977D01*
X478994Y176960D01*
Y165378D01*
X467131D01*
Y173218D01*
X467131Y173218D01*
X466820Y174778D01*
X465936Y176101D01*
X465936Y176101D01*
X452438Y189600D01*
X451115Y190484D01*
X450964Y190514D01*
Y192138D01*
X439964D01*
Y192138D01*
X437964Y191725D01*
X437642Y191789D01*
X435594Y191381D01*
X433857Y190221D01*
X432697Y188484D01*
X432289Y186436D01*
X432697Y184388D01*
X433857Y182651D01*
X435594Y181491D01*
X437642Y181083D01*
X437965Y181147D01*
X439964Y181138D01*
X439964Y181138D01*
X439964Y181138D01*
X449364D01*
X458974Y171528D01*
Y165378D01*
X458302D01*
Y142878D01*
X465873D01*
X465938Y140878D01*
X460708Y135648D01*
X452936D01*
X452792Y135865D01*
X451055Y137025D01*
X449007Y137432D01*
X446958Y137025D01*
X445222Y135865D01*
X444061Y134128D01*
X443654Y132080D01*
X444061Y130031D01*
X445222Y128295D01*
X446958Y127134D01*
X449007Y126727D01*
X451055Y127134D01*
X452792Y128295D01*
X452936Y128511D01*
X462186D01*
X463552Y128783D01*
X464710Y129556D01*
X470484Y135330D01*
X472484Y134502D01*
Y125056D01*
X466496Y119068D01*
X453935D01*
Y120500D01*
X442935D01*
Y112500D01*
X442935Y110500D01*
X442935D01*
Y110500D01*
X442935D01*
Y100500D01*
X444982D01*
Y91878D01*
X442982Y90422D01*
X442050Y90608D01*
X411325D01*
X410560Y92455D01*
X417495Y99391D01*
X418269Y100548D01*
X418541Y101914D01*
Y140559D01*
X439179Y161198D01*
X439435Y161147D01*
X441483Y161554D01*
X443220Y162715D01*
X444380Y164451D01*
X444788Y166500D01*
X444380Y168548D01*
X443220Y170285D01*
X441483Y171445D01*
X439435Y171852D01*
X437386Y171445D01*
X435650Y170285D01*
X433720Y170997D01*
X433048Y171445D01*
X431000Y171853D01*
X428952Y171445D01*
X427215Y170285D01*
X426055Y168548D01*
X425647Y166500D01*
X425698Y166245D01*
X422998Y163545D01*
X420886Y164261D01*
X420819Y164772D01*
X420063Y166596D01*
X418861Y168163D01*
X417513Y169197D01*
Y174001D01*
X420634Y177122D01*
X422164Y177427D01*
X423901Y178587D01*
X425061Y180324D01*
X425469Y182372D01*
X425061Y184420D01*
X423901Y186157D01*
X422164Y187317D01*
X420936Y187562D01*
X420819Y187780D01*
X421077Y189738D01*
X420868Y191326D01*
X421904Y192362D01*
X423434Y192667D01*
X425171Y193827D01*
X426331Y195564D01*
X426739Y197612D01*
X426331Y199660D01*
X425171Y201397D01*
X423434Y202557D01*
X421386Y202965D01*
X419338Y202557D01*
X417601Y201397D01*
X416441Y199660D01*
X416136Y198130D01*
X415100Y197094D01*
X413512Y197303D01*
X411554Y197045D01*
X410753Y196713D01*
X408753Y197926D01*
Y208474D01*
X410753Y209687D01*
X411554Y209355D01*
X413512Y209097D01*
X415470Y209355D01*
X417294Y210111D01*
X418861Y211313D01*
X420063Y212880D01*
X420819Y214704D01*
X420975Y215892D01*
X423056Y216377D01*
X423189Y216179D01*
X424926Y215019D01*
X426974Y214611D01*
X429022Y215019D01*
X430759Y216179D01*
X431919Y217916D01*
X432327Y219964D01*
X431919Y222012D01*
X431632Y222443D01*
X432552Y224665D01*
X432578Y224671D01*
X434315Y225831D01*
X435475Y227568D01*
X435883Y229616D01*
X435475Y231664D01*
X434315Y233401D01*
X432578Y234561D01*
X430530Y234969D01*
X428482Y234561D01*
X427184Y233694D01*
X426466D01*
X426466Y233694D01*
X424905Y233384D01*
X423582Y232500D01*
X415100Y224018D01*
X413512Y224227D01*
X411554Y223969D01*
X409730Y223213D01*
X408163Y222011D01*
X406961Y220444D01*
X406731Y219889D01*
X404371Y219419D01*
X381719Y242071D01*
X380562Y242845D01*
X379196Y243117D01*
X354652D01*
X354507Y243333D01*
X352771Y244493D01*
X350722Y244901D01*
X348674Y244493D01*
X346937Y243333D01*
X345777Y241596D01*
X345370Y239548D01*
X345747Y237652D01*
X345730Y237425D01*
X344607Y235651D01*
X338848D01*
X337328Y236810D01*
Y257130D01*
X339328Y258199D01*
X340090Y257691D01*
X342138Y257283D01*
X344186Y257691D01*
X345923Y258851D01*
X347083Y260588D01*
X347491Y262636D01*
X347083Y264684D01*
X345923Y266421D01*
X344186Y267581D01*
X343046Y267808D01*
X342779Y267929D01*
X342044Y270106D01*
X342720Y271453D01*
X352133D01*
X352740Y269452D01*
X352004Y268961D01*
X350843Y267224D01*
X350436Y265176D01*
X350843Y263127D01*
X352004Y261391D01*
X353740Y260230D01*
X355789Y259823D01*
X356067Y259878D01*
X357832Y258500D01*
X358239Y256451D01*
X359400Y254715D01*
X361136Y253554D01*
X363185Y253147D01*
X365233Y253554D01*
X366970Y254715D01*
X368130Y256451D01*
X368537Y258500D01*
X368130Y260548D01*
X366970Y262285D01*
X365233Y263445D01*
X363185Y263853D01*
X362906Y263797D01*
X361142Y265176D01*
X360734Y267224D01*
X359574Y268961D01*
X358838Y269452D01*
X359444Y271453D01*
X362948D01*
X362948Y271453D01*
Y271453D01*
X364426Y270328D01*
X366541Y268214D01*
X366845Y266683D01*
X368006Y264947D01*
X369742Y263786D01*
X371791Y263379D01*
X373839Y263786D01*
X375576Y264947D01*
X376736Y266683D01*
X377144Y268732D01*
X376736Y270780D01*
X375576Y272517D01*
X373839Y273677D01*
X372309Y273981D01*
X364454Y281836D01*
X363131Y282720D01*
X362948Y282756D01*
Y286451D01*
X341629D01*
Y296550D01*
X342550D01*
Y307550D01*
X332550D01*
Y306084D01*
X301986D01*
Y309860D01*
X302734Y310009D01*
X303891Y310783D01*
X306184Y313075D01*
X317269D01*
Y311644D01*
X328269D01*
Y313075D01*
X333054D01*
Y311212D01*
X348054D01*
Y320712D01*
Y332842D01*
X348422Y332915D01*
X349580Y333689D01*
X352136Y336245D01*
X352909Y337402D01*
X353181Y338768D01*
Y347078D01*
X354612D01*
Y358078D01*
X349797D01*
X348960Y359894D01*
X349344Y360344D01*
X351852Y364437D01*
X353689Y368873D01*
X354810Y373541D01*
X354877Y374392D01*
X401642D01*
Y339778D01*
D02*
G37*
G36*
X146212Y372544D02*
X144131Y370463D01*
X143246Y369140D01*
X142936Y367579D01*
X142936Y367579D01*
Y364250D01*
X141500D01*
Y355359D01*
X133303Y347161D01*
X132418Y345838D01*
X132390Y345694D01*
X130686D01*
Y331203D01*
X122686D01*
Y345694D01*
X111686D01*
Y329694D01*
X113785D01*
X113890Y329168D01*
X114663Y328011D01*
X117378Y325295D01*
X117566Y324623D01*
X117573Y323617D01*
X117381Y322827D01*
X114663Y320109D01*
X113890Y318951D01*
X113639Y317694D01*
X111686D01*
Y312887D01*
X111341Y312819D01*
X110184Y312045D01*
X91287Y293149D01*
X89800Y292050D01*
Y292050D01*
X89800Y292050D01*
X78801D01*
Y284050D01*
X78800Y282050D01*
X78801Y280050D01*
Y272050D01*
X89800D01*
X89800Y272050D01*
Y272050D01*
X91459Y271220D01*
X95703Y266976D01*
X96861Y266203D01*
X98227Y265931D01*
X99505D01*
X99650Y265715D01*
X101386Y264554D01*
X103435Y264147D01*
X105483Y264554D01*
X107220Y265715D01*
X108380Y267451D01*
X108787Y269500D01*
X108380Y271548D01*
X107220Y273285D01*
X105483Y274445D01*
X103435Y274853D01*
X101386Y274445D01*
X99650Y273285D01*
X99503Y273270D01*
X93200Y279573D01*
X92042Y280347D01*
X91191Y280516D01*
X90232Y282268D01*
X90984Y283630D01*
X91601Y283753D01*
X92758Y284527D01*
X110441Y302210D01*
X111686Y301694D01*
Y301694D01*
X122686D01*
Y316931D01*
X130686D01*
Y301694D01*
X132108D01*
Y295941D01*
X122917Y286749D01*
X122032Y285426D01*
X122007Y285300D01*
X120300D01*
Y274300D01*
X130238D01*
X131309Y272304D01*
X130805Y271548D01*
X130397Y269500D01*
X130805Y267452D01*
X131965Y265715D01*
X132181Y265570D01*
Y247684D01*
X132453Y246319D01*
X133227Y245161D01*
X139133Y239255D01*
X139082Y239000D01*
X139489Y236951D01*
X140650Y235215D01*
X140866Y235070D01*
Y185698D01*
X140157Y185319D01*
X138866Y184832D01*
X137095Y185184D01*
X135046Y184777D01*
X133310Y183617D01*
X132149Y181880D01*
X131742Y179832D01*
X132149Y177783D01*
X133016Y176486D01*
Y121996D01*
X132100Y120376D01*
X123115D01*
X122788Y120587D01*
X121587Y122163D01*
X121853Y123500D01*
X121445Y125548D01*
X120285Y127285D01*
X118548Y128445D01*
X116500Y128853D01*
X114452Y128445D01*
X112715Y127285D01*
X111555Y125548D01*
X111147Y123500D01*
X111555Y121452D01*
X112715Y119715D01*
X112931Y119570D01*
Y109978D01*
X111484Y108531D01*
X105398D01*
Y120212D01*
X94698D01*
X93398Y120212D01*
X91398Y120212D01*
X81998D01*
X80698Y120212D01*
X78698Y120212D01*
X67998D01*
Y89712D01*
X67998D01*
X68780Y87712D01*
X68561Y86614D01*
X68969Y84566D01*
X70129Y82829D01*
X71866Y81669D01*
X73914Y81261D01*
X75962Y81669D01*
X77699Y82829D01*
X78859Y84566D01*
X79267Y86614D01*
X79048Y87712D01*
X79998Y89712D01*
X82338Y89712D01*
X83130Y88920D01*
X83401Y87554D01*
X84175Y86397D01*
X89001Y81571D01*
X90159Y80797D01*
X91524Y80525D01*
X95469D01*
X95613Y80309D01*
X97350Y79149D01*
X99398Y78741D01*
X101447Y79149D01*
X103183Y80309D01*
X104344Y82046D01*
X104751Y84094D01*
X104344Y86142D01*
X103295Y87712D01*
X103488Y88530D01*
X104040Y89712D01*
X105398D01*
Y101393D01*
X112962D01*
X114328Y101665D01*
X115485Y102439D01*
X116250Y103203D01*
X118097Y102438D01*
Y95504D01*
X118369Y94138D01*
X119143Y92981D01*
X121092Y91031D01*
Y86040D01*
X129477D01*
X129980Y84975D01*
X128699Y83109D01*
X117225D01*
X115859Y82837D01*
X114702Y82063D01*
X105911Y73273D01*
X105138Y72115D01*
X104866Y70750D01*
Y48244D01*
X102866Y46717D01*
X102185Y46852D01*
X100136Y46445D01*
X98400Y45285D01*
X97239Y43548D01*
X97052Y42605D01*
X95283Y41658D01*
X92780Y45564D01*
X91970Y46827D01*
X93210Y48215D01*
X94647Y49136D01*
X87092Y60923D01*
X85654Y60002D01*
X83066Y60718D01*
X80486Y64742D01*
X82945Y66318D01*
X83550Y66197D01*
X85599Y66605D01*
X87335Y67765D01*
X88496Y69502D01*
X88903Y71550D01*
X88496Y73598D01*
X87335Y75335D01*
X85599Y76495D01*
X83550Y76903D01*
X81502Y76495D01*
X79765Y75335D01*
X78605Y73598D01*
X78520Y73170D01*
X76085Y71609D01*
X73082Y76293D01*
X66363Y71985D01*
X64608Y72945D01*
Y120750D01*
X64181Y122896D01*
X62965Y124715D01*
X61146Y125931D01*
X59000Y126357D01*
X49137D01*
X49069Y126440D01*
Y141190D01*
X49069Y141190D01*
Y171690D01*
X48875Y172666D01*
X48323Y173493D01*
X47496Y174045D01*
X47387Y174067D01*
X46662Y176082D01*
X46669Y176177D01*
X48702Y178210D01*
X50003Y178469D01*
X51739Y179629D01*
X52900Y181366D01*
X53307Y183414D01*
X52900Y185462D01*
X51739Y187199D01*
X50003Y188359D01*
X47954Y188767D01*
X45906Y188359D01*
X44169Y187199D01*
X43009Y185462D01*
X42659Y183702D01*
X41020Y182064D01*
X39020Y182481D01*
Y186190D01*
X5608D01*
Y194190D01*
X39020D01*
Y199181D01*
X46685D01*
Y197250D01*
X54685D01*
X56685Y197250D01*
X58685Y197250D01*
X66685D01*
Y199181D01*
X69821D01*
X69873Y199102D01*
X69969Y198925D01*
X70203Y196401D01*
X69665Y195596D01*
X69258Y193548D01*
X69665Y191499D01*
X70826Y189763D01*
X72562Y188602D01*
X74611Y188195D01*
X76659Y188602D01*
X76800Y188697D01*
X78801Y187628D01*
Y184550D01*
X90800D01*
Y202550D01*
X79267D01*
X79103Y202750D01*
X78695Y204798D01*
X77535Y206535D01*
X75798Y207695D01*
X73750Y208103D01*
X71702Y207695D01*
X69965Y206535D01*
X69820Y206318D01*
X66685D01*
Y208250D01*
X58685D01*
X56685Y208250D01*
X54685Y208250D01*
X49431D01*
X49069Y208690D01*
Y239190D01*
Y253440D01*
X49235Y253642D01*
X59000D01*
X61146Y254069D01*
X62965Y255285D01*
X64181Y257104D01*
X64608Y259250D01*
Y299209D01*
X66455Y299974D01*
X69438Y296991D01*
X70596Y296217D01*
X71962Y295946D01*
X74759D01*
X74904Y295729D01*
X76640Y294569D01*
X78689Y294161D01*
X80737Y294569D01*
X82474Y295729D01*
X83634Y297466D01*
X84041Y299514D01*
X83634Y301563D01*
X82474Y303299D01*
X80737Y304460D01*
X78689Y304867D01*
X76640Y304460D01*
X75874Y303948D01*
X74416Y305379D01*
X82303Y317684D01*
X84228Y316981D01*
X83999Y315240D01*
X84363Y312473D01*
X85431Y309894D01*
X87130Y307680D01*
X89345Y305981D01*
X91923Y304913D01*
X94690Y304548D01*
X97458Y304913D01*
X100036Y305981D01*
X102250Y307680D01*
X103949Y309894D01*
X105018Y312473D01*
X105382Y315240D01*
X105018Y318007D01*
X103949Y320586D01*
X102250Y322800D01*
X101037Y323731D01*
X101067Y324637D01*
X102227Y326374D01*
X102635Y328422D01*
X102227Y330470D01*
X101067Y332207D01*
X101017Y332240D01*
Y340735D01*
X100942Y341112D01*
X100935Y341497D01*
X100844Y341909D01*
X100287Y343185D01*
X99284Y344151D01*
X100291Y345746D01*
X102628Y349392D01*
X129000D01*
X131146Y349819D01*
X132965Y351035D01*
X134181Y352854D01*
X134608Y355000D01*
Y374392D01*
X145446D01*
X146212Y372544D01*
D02*
G37*
G36*
X76499Y345690D02*
X75113Y343528D01*
X81602Y339369D01*
X82032Y336717D01*
X75286Y326194D01*
X73507Y326740D01*
X67018Y330899D01*
X66561Y330186D01*
X64618Y330861D01*
X64907Y333798D01*
X66015Y337449D01*
X67814Y340815D01*
X70235Y343765D01*
X73185Y346186D01*
X75096Y347208D01*
X76499Y345690D01*
D02*
G37*
G36*
X197422Y362310D02*
Y351000D01*
X197422Y351000D01*
X197732Y349439D01*
X198616Y348116D01*
X201476Y345256D01*
X201476Y345256D01*
X202715Y344428D01*
Y343140D01*
X204390D01*
Y340031D01*
X204390Y340031D01*
X204701Y338471D01*
X205585Y337147D01*
X243610Y299122D01*
X244934Y298238D01*
X246494Y297927D01*
X332550D01*
Y296550D01*
X333472D01*
Y271844D01*
X330364Y268736D01*
X329480Y267413D01*
X329170Y265852D01*
X329172Y265842D01*
Y225346D01*
X328305Y224048D01*
X327897Y222000D01*
X328305Y219952D01*
X328649Y219437D01*
X327580Y217437D01*
X327406D01*
X326040Y217165D01*
X324883Y216391D01*
X321211Y212719D01*
X319041Y213378D01*
X318889Y214138D01*
X317729Y215875D01*
X315992Y217035D01*
X313944Y217443D01*
X311896Y217035D01*
X310159Y215875D01*
X308999Y214138D01*
X308591Y212090D01*
X308999Y210042D01*
X310159Y208305D01*
X311896Y207145D01*
X313292Y206867D01*
X314061Y205093D01*
X314079Y204826D01*
X312175Y202922D01*
X311402Y201764D01*
X311130Y200398D01*
Y196992D01*
X307643D01*
Y194353D01*
X305643Y193747D01*
X305283Y194285D01*
X303546Y195445D01*
X302016Y195750D01*
X298494Y199272D01*
X298547Y199839D01*
X299167Y201272D01*
X304198D01*
Y221272D01*
X296619D01*
Y226323D01*
X303728Y233431D01*
X306250D01*
Y231500D01*
X314542D01*
X316086Y229500D01*
X315957Y228854D01*
X316365Y226806D01*
X317525Y225069D01*
X319262Y223909D01*
X321310Y223501D01*
X323358Y223909D01*
X325095Y225069D01*
X326255Y226806D01*
X326663Y228854D01*
X326513Y229609D01*
X326250Y231500D01*
X326250Y231500D01*
X326250Y231500D01*
Y242500D01*
X318250D01*
X316250Y242500D01*
X314250Y242500D01*
X306250D01*
Y240569D01*
X302250D01*
X300884Y240297D01*
X299727Y239523D01*
X290527Y230324D01*
X289754Y229166D01*
X289482Y227801D01*
Y221272D01*
X281698D01*
Y202888D01*
X281698Y201272D01*
X279858Y200888D01*
X268539D01*
X266698Y201272D01*
X266698Y202888D01*
Y221272D01*
X261814D01*
X260543Y223272D01*
X260788Y224500D01*
X260380Y226548D01*
X259220Y228285D01*
X257483Y229445D01*
X255435Y229853D01*
X253386Y229445D01*
X251650Y228285D01*
X250489Y226548D01*
X250082Y224500D01*
X250326Y223272D01*
X249055Y221272D01*
X244198D01*
Y201272D01*
X261725D01*
X263566Y200888D01*
X263566Y199272D01*
Y191888D01*
X284566D01*
Y192444D01*
X293787D01*
X296248Y189982D01*
X296425Y189091D01*
X295240Y187091D01*
X284566D01*
Y187888D01*
X263566D01*
X263566Y178888D01*
X261614Y178772D01*
X243948D01*
Y158772D01*
X266448D01*
Y164694D01*
X270604D01*
X271901Y163827D01*
X273949Y163420D01*
X275998Y163827D01*
X277734Y164988D01*
X278895Y166724D01*
X279302Y168773D01*
X278895Y170821D01*
X277734Y172558D01*
X275998Y173718D01*
X273949Y174126D01*
X271901Y173718D01*
X270602Y172850D01*
X266448D01*
X266448Y178772D01*
X268400Y178888D01*
X279496D01*
X281448Y178772D01*
X281448Y176888D01*
Y158772D01*
X289195D01*
X289401Y157736D01*
X290175Y156579D01*
X303027Y143727D01*
X304185Y142953D01*
X305550Y142681D01*
X306250D01*
Y140750D01*
X314250D01*
X316250Y140750D01*
X318250Y140750D01*
X323516D01*
Y131616D01*
X322649Y130318D01*
X322242Y128270D01*
X322649Y126221D01*
X323810Y124485D01*
X325546Y123324D01*
X327595Y122917D01*
X329643Y123324D01*
X331380Y124485D01*
X332540Y126221D01*
X332948Y128270D01*
X332540Y130318D01*
X331673Y131616D01*
Y139215D01*
X336132Y143674D01*
X336132Y143674D01*
X337016Y144997D01*
X337326Y146558D01*
X337326Y146558D01*
Y168699D01*
X338848Y169853D01*
X339326Y169853D01*
X362948D01*
Y184851D01*
X357541D01*
X356290Y186852D01*
X356543Y188122D01*
X356135Y190170D01*
X354975Y191907D01*
X353238Y193067D01*
X351190Y193475D01*
X349142Y193067D01*
X347405Y191907D01*
X346245Y190170D01*
X345837Y188122D01*
X346090Y186852D01*
X344839Y184851D01*
X338848D01*
Y183738D01*
X337723Y183191D01*
X336848Y182978D01*
X335296Y184015D01*
X333248Y184423D01*
X331200Y184015D01*
X329463Y182855D01*
X328303Y181118D01*
X327895Y179070D01*
X328303Y177022D01*
X329170Y175724D01*
Y171695D01*
X327170Y170094D01*
X326644Y170199D01*
X324596Y169791D01*
X322859Y168631D01*
X321699Y166894D01*
X321291Y164846D01*
X321699Y162798D01*
X322859Y161061D01*
X323075Y160916D01*
Y151750D01*
X316250Y151750D01*
X314250Y151750D01*
X306250D01*
Y151750D01*
X305435Y151412D01*
X299923Y156924D01*
X300688Y158772D01*
X303948D01*
Y178021D01*
X303948Y178556D01*
X304415Y179497D01*
X304964Y180351D01*
X305933Y180999D01*
X307926Y182992D01*
X321643D01*
Y196992D01*
X321643D01*
X321696Y198970D01*
X327769D01*
Y209184D01*
X328884Y210299D01*
X364878D01*
X365023Y210083D01*
X366760Y208923D01*
X368808Y208515D01*
X369748Y208702D01*
X371749Y207296D01*
Y195252D01*
X376769D01*
X377534Y193405D01*
X371728Y187598D01*
X370316Y187317D01*
X368579Y186157D01*
X367419Y184420D01*
X367011Y182372D01*
X367419Y180324D01*
X368579Y178587D01*
X370316Y177427D01*
X372364Y177019D01*
X374412Y177427D01*
X376149Y178587D01*
X377309Y180324D01*
X377717Y182372D01*
X377531Y183307D01*
X386324Y192101D01*
X387097Y193258D01*
X387369Y194624D01*
Y195252D01*
X395848D01*
Y210252D01*
X374928D01*
X373839Y212251D01*
X374161Y213868D01*
X373753Y215916D01*
X372593Y217653D01*
X370856Y218813D01*
X368808Y219221D01*
X366760Y218813D01*
X365023Y217653D01*
X364878Y217437D01*
X339152D01*
X338239Y219154D01*
X339264Y220653D01*
X339912D01*
X362948D01*
Y235651D01*
X364813Y235979D01*
X377718D01*
X401616Y212081D01*
Y110929D01*
X401400Y110785D01*
X400239Y109048D01*
X399832Y107000D01*
X400239Y104951D01*
X401400Y103215D01*
X402204Y102677D01*
X402626Y100272D01*
X399076Y96721D01*
X395848D01*
Y108652D01*
X387253D01*
Y128570D01*
X387470Y128715D01*
X388630Y130451D01*
X389038Y132500D01*
X388630Y134548D01*
X387470Y136285D01*
X385733Y137445D01*
X383685Y137852D01*
X381636Y137445D01*
X379900Y136285D01*
X378739Y134548D01*
X378332Y132500D01*
X378739Y130451D01*
X379900Y128715D01*
X380116Y128570D01*
Y108652D01*
X373108D01*
X371637Y108764D01*
X370345Y110070D01*
X370319Y110111D01*
Y128820D01*
X370535Y128965D01*
X371695Y130702D01*
X372103Y132750D01*
X371695Y134798D01*
X370535Y136535D01*
X368798Y137695D01*
X366750Y138103D01*
X366353Y138500D01*
X365945Y140548D01*
X364785Y142285D01*
X363048Y143445D01*
X361000Y143853D01*
X358952Y143445D01*
X357215Y142285D01*
X357070Y142069D01*
X354750D01*
X353384Y141797D01*
X352227Y141023D01*
X348375Y137172D01*
X347602Y136014D01*
X347330Y134648D01*
Y134052D01*
X338848D01*
Y119052D01*
X362948D01*
X363181Y117149D01*
Y111014D01*
X362465Y110535D01*
X361305Y108798D01*
X360897Y106750D01*
X361305Y104702D01*
X362465Y102965D01*
X364202Y101805D01*
X366250Y101397D01*
X368298Y101805D01*
X369748Y102774D01*
X370890Y102448D01*
X371749Y101930D01*
Y96721D01*
X334030D01*
X320949Y109801D01*
X319792Y110575D01*
X318426Y110847D01*
X242528D01*
X241162Y110575D01*
X240005Y109801D01*
X237608Y107405D01*
X235386Y108011D01*
X234535Y109285D01*
X232798Y110445D01*
X230750Y110853D01*
X228702Y110445D01*
X226965Y109285D01*
X225805Y107548D01*
X225397Y105500D01*
X225448Y105245D01*
X211277Y91074D01*
X210504Y89916D01*
X210232Y88550D01*
Y78480D01*
X210015Y78335D01*
X208855Y76598D01*
X208448Y74550D01*
X208855Y72502D01*
X209436Y71633D01*
X208783Y69500D01*
X208697Y69412D01*
X207035Y68301D01*
X206716Y67824D01*
X206660Y67813D01*
X205503Y67039D01*
X202527Y64063D01*
X201753Y62906D01*
X201583Y62050D01*
X199550Y62050D01*
X198955Y62035D01*
X196955Y63748D01*
Y68223D01*
X199074Y70342D01*
X199847Y71500D01*
X199957Y72050D01*
X206050D01*
Y87050D01*
X187050D01*
Y72050D01*
X188524D01*
X189887Y70050D01*
X189817Y69701D01*
Y63427D01*
X188435Y62000D01*
X186435Y62000D01*
X178435D01*
Y62000D01*
X177503D01*
X175799Y63169D01*
X175680Y65224D01*
X178561Y68104D01*
X178816Y68053D01*
X180864Y68461D01*
X182601Y69621D01*
X183761Y71358D01*
X184169Y73406D01*
X183761Y75454D01*
X182601Y77191D01*
X180864Y78351D01*
X178816Y78759D01*
X176768Y78351D01*
X175031Y77191D01*
X173871Y75454D01*
X173463Y73406D01*
X173514Y73151D01*
X169411Y69048D01*
X168638Y67890D01*
X168366Y66525D01*
Y63372D01*
X166935Y62000D01*
X162964D01*
X162427Y63019D01*
X162174Y64000D01*
X163187Y65516D01*
X163595Y67564D01*
X163187Y69612D01*
X162027Y71349D01*
X160290Y72509D01*
X158242Y72917D01*
X156194Y72509D01*
X154457Y71349D01*
X154296Y71108D01*
X152092D01*
Y75040D01*
X149474D01*
X149389Y75466D01*
X148616Y76623D01*
X147655Y77584D01*
X148616Y78545D01*
X149389Y79703D01*
X149661Y81068D01*
Y86040D01*
X152092D01*
Y98181D01*
X164160D01*
X165050Y96550D01*
Y81550D01*
X184050D01*
Y96550D01*
X178099D01*
X177847Y97815D01*
X177074Y98973D01*
X171774Y104273D01*
X170616Y105047D01*
X169250Y105318D01*
X144042D01*
X142400Y107318D01*
X142440Y107517D01*
X142453Y107584D01*
X142100Y109376D01*
X142100Y109376D01*
Y120376D01*
X142100D01*
X142131Y121673D01*
X143435Y123147D01*
X145483Y123554D01*
X147220Y124715D01*
X148380Y126451D01*
X148787Y128500D01*
X148623Y129328D01*
X150363Y129675D01*
X152099Y130835D01*
X153260Y132572D01*
X153667Y134620D01*
X153260Y136668D01*
X152099Y138405D01*
X150363Y139565D01*
X148314Y139973D01*
X148003Y141919D01*
Y235070D01*
X148220Y235215D01*
X149380Y236951D01*
X149788Y239000D01*
X149380Y241048D01*
X148220Y242785D01*
X146483Y243945D01*
X144435Y244352D01*
X144179Y244302D01*
X139319Y249163D01*
Y259968D01*
X141319Y260797D01*
X144928Y257188D01*
X144839Y256974D01*
X144581Y255016D01*
X144839Y253058D01*
X145595Y251234D01*
X146797Y249667D01*
X148364Y248465D01*
X150188Y247709D01*
X152146Y247451D01*
X154104Y247709D01*
X155928Y248465D01*
X157495Y249667D01*
X158697Y251234D01*
X159453Y253058D01*
X159711Y255016D01*
X159453Y256974D01*
X158697Y258798D01*
X157495Y260365D01*
X155928Y261567D01*
X154104Y262323D01*
X152146Y262581D01*
X150188Y262323D01*
X149974Y262234D01*
X145819Y266390D01*
Y316614D01*
X145970Y316715D01*
X147130Y318451D01*
X147538Y320500D01*
X147226Y322065D01*
X148339Y324065D01*
X150391D01*
Y322660D01*
X161391D01*
Y332660D01*
X150391D01*
Y331203D01*
X141686D01*
Y344010D01*
X149898Y352221D01*
X149898Y352222D01*
X150585Y353250D01*
X152500D01*
Y364250D01*
X151962D01*
X151453Y366250D01*
X154124Y368922D01*
X190810D01*
X197422Y362310D01*
D02*
G37*
G36*
X498442Y333550D02*
X487550D01*
Y314550D01*
X490482D01*
Y313450D01*
X490661Y312550D01*
X489847Y311077D01*
X489373Y310550D01*
X481050D01*
Y309027D01*
X479050Y307993D01*
X478137Y308641D01*
Y310554D01*
X476384D01*
X475660Y311637D01*
X472550Y314746D01*
Y333550D01*
X459550D01*
Y314550D01*
X462943D01*
X463527Y313676D01*
X464802Y312402D01*
X464036Y310554D01*
X458137D01*
Y302540D01*
X456591Y301272D01*
X456185Y301353D01*
X454136Y300945D01*
X452400Y299785D01*
X451239Y298048D01*
X450832Y296000D01*
X451239Y293951D01*
X451613Y293392D01*
X450544Y291392D01*
X448476D01*
X447338Y293392D01*
X447658Y295000D01*
Y336392D01*
X498442D01*
Y333550D01*
D02*
G37*
G36*
X221300Y356550D02*
X237556D01*
X238422Y354600D01*
X237647Y353050D01*
X237300D01*
Y332550D01*
X238722D01*
Y328446D01*
X238722Y328446D01*
X239032Y326885D01*
X239917Y325562D01*
X244556Y320922D01*
X244556Y320922D01*
X245879Y320038D01*
X247440Y319728D01*
X247440Y319728D01*
X286986D01*
Y306084D01*
X248184D01*
X213128Y341140D01*
X213715Y343140D01*
X213715D01*
Y353140D01*
X213715D01*
Y353140D01*
X213715D01*
Y363140D01*
X213715Y363140D01*
X213715D01*
X213516Y365140D01*
X213538Y365250D01*
X213130Y367298D01*
X211970Y369035D01*
X210233Y370195D01*
X208185Y370602D01*
X206136Y370195D01*
X204400Y369035D01*
X202427Y368840D01*
X198723Y372544D01*
X199488Y374392D01*
X221300D01*
Y356550D01*
D02*
G37*
G36*
X841783Y365783D02*
X845261Y347020D01*
X847751Y328100D01*
X849249Y309076D01*
X849736Y290469D01*
X849643Y290000D01*
Y219608D01*
X796616D01*
X796478Y219580D01*
X791987Y219227D01*
X787472Y218143D01*
X783182Y216366D01*
X779222Y213940D01*
X775692Y210924D01*
X772676Y207393D01*
X770250Y203434D01*
X768473Y199144D01*
X767389Y194629D01*
X767025Y190000D01*
X767389Y185371D01*
X768473Y180856D01*
X770250Y176566D01*
X772676Y172607D01*
X775692Y169076D01*
X777021Y167940D01*
X776283Y165940D01*
X740423D01*
Y185691D01*
X748129Y193398D01*
X750220Y192660D01*
X750451Y191500D01*
X751611Y189763D01*
X753348Y188603D01*
X755396Y188195D01*
X757444Y188603D01*
X759181Y189763D01*
X760341Y191500D01*
X760749Y193548D01*
X760341Y195596D01*
X759181Y197333D01*
X757444Y198493D01*
X756284Y198724D01*
X755546Y200815D01*
X774929Y220198D01*
X775185Y220147D01*
X777233Y220554D01*
X778970Y221715D01*
X780130Y223451D01*
X780538Y225500D01*
X780130Y227548D01*
X778970Y229285D01*
X777233Y230445D01*
X775185Y230853D01*
X773136Y230445D01*
X771400Y229285D01*
X770239Y227548D01*
X769832Y225500D01*
X769883Y225244D01*
X737666Y193028D01*
X735819Y193793D01*
Y195612D01*
X735547Y196978D01*
X734773Y198135D01*
X697886Y235023D01*
X696728Y235797D01*
X696520Y235838D01*
X695307Y236457D01*
X695079Y238068D01*
X695217Y238760D01*
X694809Y240808D01*
X693892Y242181D01*
X694312Y243505D01*
X694778Y244181D01*
X704950D01*
X706316Y244453D01*
X707473Y245227D01*
X746822Y284576D01*
X748518Y283443D01*
X747822Y281763D01*
X747392Y278500D01*
X747822Y275237D01*
X748998Y272398D01*
X748643Y271680D01*
X747757Y270637D01*
X746492Y270889D01*
X744444Y270481D01*
X742707Y269321D01*
X741547Y267584D01*
X741140Y265536D01*
X741547Y263487D01*
X742707Y261751D01*
X744444Y260590D01*
X746492Y260183D01*
X748541Y260590D01*
X750277Y261751D01*
X751438Y263487D01*
X751845Y265536D01*
X751623Y266651D01*
X753438Y267779D01*
X753696Y267581D01*
X756737Y266322D01*
X760000Y265892D01*
X763263Y266322D01*
X766304Y267581D01*
X768915Y269585D01*
X770919Y272196D01*
X772179Y275237D01*
X772608Y278500D01*
X772179Y281763D01*
X770919Y284804D01*
X768915Y287415D01*
X766304Y289419D01*
X763263Y290678D01*
X760000Y291108D01*
X756737Y290678D01*
X755058Y289982D01*
X753925Y291678D01*
X759249Y297003D01*
X761240Y296807D01*
X761465Y296469D01*
X763202Y295309D01*
X765250Y294901D01*
X767299Y295309D01*
X769035Y296469D01*
X770196Y298206D01*
X770603Y300254D01*
X770196Y302302D01*
X769035Y304039D01*
X767299Y305199D01*
X765250Y305607D01*
X764367Y305431D01*
X762367Y306864D01*
Y308426D01*
X762823Y310237D01*
X764773D01*
Y310237D01*
X772823D01*
Y312674D01*
X775651D01*
X775651Y318673D01*
X777651Y319502D01*
X779820Y317332D01*
X779820Y317332D01*
X781067Y316499D01*
X781340Y316444D01*
Y314566D01*
X790356D01*
Y302346D01*
X789489Y301048D01*
X789082Y299000D01*
X789489Y296951D01*
X790650Y295215D01*
X792386Y294054D01*
X794435Y293647D01*
X796483Y294054D01*
X798220Y295215D01*
X799380Y296951D01*
X799788Y299000D01*
X799380Y301048D01*
X798513Y302346D01*
Y316028D01*
X800200Y317569D01*
X800492Y317621D01*
X800547Y317610D01*
X804672Y313485D01*
Y260000D01*
X804672Y260000D01*
X804982Y258439D01*
X805866Y257116D01*
X808816Y254166D01*
X810139Y253282D01*
X810550Y253200D01*
Y248550D01*
X845550D01*
Y265550D01*
X812828D01*
Y273550D01*
X845550D01*
Y290550D01*
X835032D01*
X833390Y292550D01*
X833403Y292615D01*
X832996Y294664D01*
X831835Y296400D01*
X830099Y297561D01*
X828050Y297968D01*
X826002Y297561D01*
X824265Y296400D01*
X823105Y294664D01*
X822698Y292615D01*
X822711Y292550D01*
X821069Y290550D01*
X812828D01*
Y315174D01*
X812518Y316735D01*
X811634Y318058D01*
X811634Y318058D01*
X806314Y323378D01*
X806010Y324908D01*
X804849Y326645D01*
X803113Y327805D01*
X801064Y328213D01*
X799016Y327805D01*
X797279Y326645D01*
X796119Y324908D01*
X796003Y324325D01*
X795761Y324091D01*
X794165Y323574D01*
X792340Y324644D01*
Y325566D01*
X782458D01*
X780757Y327268D01*
X779509Y328101D01*
X778113Y328379D01*
Y332936D01*
X779961Y333701D01*
X780898Y332764D01*
X780898Y332764D01*
X782102Y331959D01*
Y329982D01*
X793102D01*
X793917Y331404D01*
X795478Y331714D01*
X796801Y332598D01*
X800069Y335866D01*
X800069Y335866D01*
X801995Y335149D01*
X802136Y335054D01*
X803712Y334741D01*
X812407Y326046D01*
X812407Y326046D01*
X813730Y325162D01*
X815000Y324909D01*
Y318930D01*
X835000D01*
X835366Y317082D01*
Y305429D01*
X835150Y305285D01*
X833989Y303548D01*
X833582Y301500D01*
X833989Y299451D01*
X835150Y297715D01*
X836886Y296554D01*
X838935Y296147D01*
X840983Y296554D01*
X842720Y297715D01*
X843880Y299451D01*
X844287Y301500D01*
X843880Y303548D01*
X842720Y305285D01*
X842503Y305429D01*
Y335065D01*
X842232Y336431D01*
X841458Y337589D01*
X829568Y349478D01*
Y353930D01*
X835000D01*
Y373930D01*
X836808Y374392D01*
X839716D01*
X841783Y365783D01*
D02*
G37*
G36*
X498869Y292854D02*
X500085Y291035D01*
X501904Y289819D01*
X504050Y289392D01*
X534896D01*
X536325Y287392D01*
X536147Y286500D01*
X536555Y284452D01*
X537715Y282715D01*
X539452Y281555D01*
X541500Y281147D01*
X543548Y281555D01*
X545285Y282715D01*
X545515Y283058D01*
X547920D01*
X548150Y282715D01*
X549886Y281554D01*
X551935Y281147D01*
X553983Y281554D01*
X555720Y282715D01*
X556880Y284451D01*
X557287Y286500D01*
X557110Y287392D01*
X558538Y289392D01*
X617126D01*
Y280770D01*
X624761D01*
Y279500D01*
X626031D01*
Y266960D01*
X632396D01*
Y267000D01*
X636192D01*
Y264225D01*
X636464Y262860D01*
X637237Y261702D01*
X645773Y253166D01*
X645008Y251319D01*
X555067D01*
X555065Y251318D01*
X550304D01*
X550303Y251319D01*
X546547D01*
X546027Y252183D01*
X545705Y253319D01*
X546676Y254772D01*
X547083Y256820D01*
X547033Y257075D01*
X558388Y268431D01*
X563005D01*
X563150Y268215D01*
X564886Y267054D01*
X566935Y266647D01*
X568983Y267054D01*
X570720Y268215D01*
X571371Y269189D01*
X573710Y269678D01*
X580455Y262933D01*
X581613Y262159D01*
X582978Y261887D01*
X611461D01*
X611605Y261671D01*
X613342Y260511D01*
X615390Y260103D01*
X617439Y260511D01*
X619175Y261671D01*
X620336Y263408D01*
X620743Y265456D01*
X621978Y266960D01*
X623491D01*
Y278230D01*
X617126D01*
Y272040D01*
X615580Y270771D01*
X615390Y270809D01*
X613342Y270401D01*
X611605Y269241D01*
X611461Y269025D01*
X584457D01*
X572571Y280910D01*
X572195Y282798D01*
X571035Y284535D01*
X569298Y285695D01*
X567250Y286103D01*
X565202Y285695D01*
X563465Y284535D01*
X562305Y282798D01*
X561897Y280750D01*
X562305Y278702D01*
X563084Y277536D01*
X562277Y275678D01*
X562176Y275568D01*
X556910D01*
X555545Y275297D01*
X554387Y274523D01*
X541986Y262122D01*
X541730Y262173D01*
X539682Y261765D01*
X537945Y260605D01*
X536785Y258868D01*
X536378Y256820D01*
X536785Y254772D01*
X537756Y253319D01*
X537495Y252189D01*
X537002Y251260D01*
X535929Y251047D01*
X534771Y250273D01*
X533933Y249435D01*
X531388Y249718D01*
X531089Y250165D01*
X529352Y251325D01*
X527304Y251733D01*
X525914Y251456D01*
X524261Y252444D01*
X523914Y252834D01*
Y261380D01*
X513760D01*
X513319Y261727D01*
X512422Y262931D01*
X512316Y263286D01*
X512591Y264668D01*
X512183Y266716D01*
X511023Y268453D01*
X510261Y268962D01*
Y270027D01*
X511421Y271764D01*
X511829Y273812D01*
X511421Y275860D01*
X510261Y277597D01*
X508524Y278757D01*
X506476Y279165D01*
X504428Y278757D01*
X502691Y277597D01*
X501531Y275860D01*
X501123Y273812D01*
X501188Y273485D01*
X498619Y270916D01*
X498224Y270942D01*
X496619Y271568D01*
Y293915D01*
X498619Y294112D01*
X498869Y292854D01*
D02*
G37*
G36*
X676220Y244101D02*
X677030Y242181D01*
X676283Y241062D01*
X675875Y239014D01*
X676063Y238068D01*
X674660Y236068D01*
X627614D01*
X627470Y236285D01*
X625733Y237445D01*
X623685Y237852D01*
X621636Y237445D01*
X619900Y236285D01*
X618739Y234548D01*
X618346Y232570D01*
X618185Y232603D01*
X616136Y232195D01*
X614400Y231035D01*
X613239Y229298D01*
X612832Y227250D01*
X613239Y225201D01*
X614400Y223465D01*
X616136Y222304D01*
X618185Y221897D01*
X620233Y222304D01*
X621970Y223465D01*
X623130Y225201D01*
X623523Y227179D01*
X623685Y227147D01*
X625733Y227554D01*
X627470Y228715D01*
X627614Y228931D01*
X640227D01*
X641868Y226931D01*
X641832Y226750D01*
X642239Y224701D01*
X643400Y222965D01*
X645136Y221804D01*
X647185Y221397D01*
X649233Y221804D01*
X649661Y222090D01*
X649952Y222182D01*
X651866Y221158D01*
Y197554D01*
X651535Y197333D01*
X650375Y195596D01*
X649967Y193548D01*
X650375Y191500D01*
X651535Y189763D01*
X653272Y188603D01*
X655320Y188195D01*
X655895Y188310D01*
X656675Y186426D01*
X656465Y186285D01*
X655305Y184548D01*
X654897Y182500D01*
X655305Y180452D01*
X656465Y178715D01*
X658202Y177555D01*
X660250Y177147D01*
X662298Y177555D01*
X664035Y178715D01*
X665195Y180452D01*
X665603Y182500D01*
X665552Y182755D01*
X689773Y206977D01*
X690547Y208134D01*
X690819Y209500D01*
Y210820D01*
X691035Y210965D01*
X692195Y212702D01*
X692603Y214750D01*
X692195Y216798D01*
X691035Y218535D01*
X689298Y219695D01*
X687250Y220103D01*
X685202Y219695D01*
X683465Y218535D01*
X682305Y216798D01*
X681897Y214750D01*
X682305Y212702D01*
X683465Y210965D01*
X683483Y210780D01*
X661430Y188727D01*
X660888Y188832D01*
X659964Y191048D01*
X660265Y191500D01*
X660673Y193548D01*
X660265Y195596D01*
X659105Y197333D01*
X659003Y197401D01*
Y203055D01*
X661003Y204696D01*
X661250Y204647D01*
X663298Y205055D01*
X665035Y206215D01*
X666195Y207952D01*
X666603Y210000D01*
X666195Y212048D01*
X665035Y213785D01*
X663298Y214945D01*
X661250Y215353D01*
X661003Y215304D01*
X659003Y216945D01*
Y222570D01*
X659220Y222715D01*
X660380Y224451D01*
X660788Y226500D01*
X660702Y226931D01*
X662343Y228931D01*
X693884D01*
X728681Y194134D01*
Y160828D01*
X726681Y159999D01*
X724531Y162149D01*
X724234Y162348D01*
Y164626D01*
X715309D01*
X714910Y164985D01*
X714091Y166626D01*
X714574Y167792D01*
X714831Y169750D01*
X714574Y171708D01*
X713818Y173532D01*
X712616Y175099D01*
X711049Y176301D01*
X709225Y177057D01*
X707267Y177315D01*
X705309Y177057D01*
X703484Y176301D01*
X701918Y175099D01*
X700715Y173532D01*
X699960Y171708D01*
X699702Y169750D01*
X699960Y167792D01*
X700715Y165968D01*
X701918Y164401D01*
X703484Y163199D01*
X703698Y163110D01*
Y152782D01*
X703050Y151050D01*
X692050D01*
Y146013D01*
X690051Y144944D01*
X690048Y144945D01*
X688000Y145353D01*
X685952Y144945D01*
X684215Y143785D01*
X683055Y142048D01*
X682647Y140000D01*
X683055Y137952D01*
X684215Y136215D01*
X685952Y135055D01*
X686146Y135016D01*
X686000Y133103D01*
X683952Y132695D01*
X682215Y131535D01*
X681055Y129798D01*
X680647Y127750D01*
X680682Y127574D01*
X679041Y125574D01*
X665560D01*
X656677Y134457D01*
X656675Y134483D01*
X657403Y136560D01*
X658447Y136725D01*
X659876Y135771D01*
X661924Y135363D01*
X663972Y135771D01*
X665709Y136931D01*
X666869Y138668D01*
X667277Y140716D01*
X666869Y142764D01*
X665709Y144501D01*
X663972Y145661D01*
X661924Y146069D01*
X659876Y145661D01*
X658139Y144501D01*
X657994Y144285D01*
X653012D01*
X649361Y147936D01*
X649537Y148825D01*
X650149Y149977D01*
X651798Y150305D01*
X653535Y151465D01*
X654695Y153202D01*
X655103Y155250D01*
X654695Y157298D01*
X653535Y159035D01*
X651798Y160195D01*
X649750Y160603D01*
X649448Y160543D01*
X647445Y161049D01*
X646285Y162785D01*
X644548Y163945D01*
X642500Y164353D01*
X642169Y164287D01*
X640169Y165928D01*
Y186904D01*
X639897Y188269D01*
X639124Y189427D01*
X635778Y192773D01*
X634620Y193547D01*
X633254Y193818D01*
X630294D01*
X630149Y194035D01*
X628412Y195195D01*
X626364Y195603D01*
X624316Y195195D01*
X622579Y194035D01*
X621419Y192298D01*
X621011Y190250D01*
X621419Y188202D01*
X622579Y186465D01*
X624316Y185305D01*
X625536Y185062D01*
X625313Y183941D01*
X625604Y182476D01*
X624039Y181178D01*
X623983Y181154D01*
X622798Y181945D01*
X620750Y182353D01*
X619819Y182168D01*
X617819Y183578D01*
Y199320D01*
X618035Y199465D01*
X619195Y201202D01*
X619603Y203250D01*
X619195Y205298D01*
X618035Y207035D01*
X616298Y208195D01*
X614250Y208603D01*
X612202Y208195D01*
X610465Y207035D01*
X609305Y205298D01*
X608897Y203250D01*
X607250Y201603D01*
X605202Y201195D01*
X603465Y200035D01*
X602305Y198298D01*
X601897Y196250D01*
X602305Y194202D01*
X603465Y192465D01*
X605202Y191305D01*
X607250Y190897D01*
X608681Y191182D01*
X610681Y190007D01*
Y183675D01*
X608681Y182607D01*
X608548Y182695D01*
X606500Y183103D01*
X604452Y182695D01*
X602715Y181535D01*
X601555Y179798D01*
X601147Y177750D01*
X601555Y175702D01*
X602715Y173965D01*
X602931Y173820D01*
Y145180D01*
X602715Y145035D01*
X601555Y143298D01*
X601147Y141250D01*
X601555Y139202D01*
X602715Y137465D01*
X604452Y136305D01*
X606500Y135897D01*
X608548Y136305D01*
X610285Y137465D01*
X612119Y136610D01*
X612202Y136555D01*
X614250Y136147D01*
X616298Y136555D01*
X618035Y137715D01*
X619195Y139452D01*
X619603Y141500D01*
X619195Y143548D01*
X618035Y145285D01*
X617819Y145430D01*
Y170422D01*
X619819Y171832D01*
X620750Y171647D01*
X622798Y172055D01*
X624535Y173215D01*
X624822Y173644D01*
X626822Y173037D01*
Y155033D01*
X626822Y155032D01*
X627114Y153561D01*
X627948Y152314D01*
X658053Y122209D01*
X657799Y119635D01*
X657650Y119535D01*
X656489Y117798D01*
X656082Y115750D01*
X656489Y113701D01*
X657650Y111965D01*
X659386Y110804D01*
X660995Y110484D01*
X661683Y109938D01*
X662431Y108556D01*
X662159Y107188D01*
X662567Y105140D01*
X663727Y103403D01*
X665464Y102243D01*
X667512Y101835D01*
X669560Y102243D01*
X671297Y103403D01*
X672457Y105140D01*
X672865Y107188D01*
X672457Y109236D01*
X671297Y110973D01*
X669560Y112133D01*
X667952Y112453D01*
X667264Y113000D01*
X666515Y114382D01*
X666787Y115750D01*
X666760Y115886D01*
X668402Y117886D01*
X695230D01*
X695230Y117886D01*
X696701Y118179D01*
X697948Y119012D01*
X701198Y122262D01*
X701198Y122262D01*
X702031Y123509D01*
X702068Y123692D01*
X703702Y124574D01*
X705702Y124574D01*
X713702D01*
Y135328D01*
X724268D01*
Y137473D01*
X724765Y137805D01*
X726681Y139721D01*
X728681Y138892D01*
Y55250D01*
X727250D01*
Y44250D01*
X734250D01*
Y40114D01*
X732786D01*
Y25114D01*
X734250D01*
Y5607D01*
X720858D01*
Y25584D01*
X722858Y27062D01*
X723646Y26905D01*
X725694Y27313D01*
X727431Y28473D01*
X728591Y30210D01*
X728999Y32258D01*
X728591Y34306D01*
X727431Y36043D01*
X725694Y37203D01*
X723646Y37611D01*
X722858Y37454D01*
X720858Y38932D01*
Y85000D01*
X720431Y87146D01*
X719216Y88965D01*
X717396Y90181D01*
X715250Y90608D01*
X652290D01*
X650849Y92607D01*
X651021Y93472D01*
X650613Y95520D01*
X649453Y97257D01*
X647716Y98417D01*
X645668Y98825D01*
X643620Y98417D01*
X641883Y97257D01*
X640723Y95520D01*
X640315Y93472D01*
X640487Y92607D01*
X639046Y90608D01*
X592092D01*
X590651Y92607D01*
X590823Y93472D01*
X590415Y95520D01*
X589255Y97257D01*
X587518Y98417D01*
X585470Y98825D01*
X583422Y98417D01*
X581685Y97257D01*
X580525Y95520D01*
X580117Y93472D01*
X580289Y92607D01*
X578848Y90608D01*
X560736D01*
X559971Y92455D01*
X573958Y106442D01*
X574732Y107600D01*
X575003Y108966D01*
Y136207D01*
X596958Y158161D01*
X597732Y159319D01*
X598003Y160685D01*
Y231570D01*
X598220Y231715D01*
X599380Y233451D01*
X599787Y235500D01*
X599380Y237548D01*
X598220Y239285D01*
X596483Y240445D01*
X594435Y240853D01*
X592386Y240445D01*
X591772Y240035D01*
X590035Y239035D01*
X588298Y240195D01*
X586250Y240603D01*
X584202Y240195D01*
X582465Y239035D01*
X582203Y238642D01*
X579797D01*
X579535Y239035D01*
X577798Y240195D01*
X575750Y240603D01*
X573702Y240195D01*
X571965Y239035D01*
X570805Y237298D01*
X570397Y235250D01*
X570805Y233202D01*
X571965Y231465D01*
X573539Y230414D01*
X573736Y230133D01*
X574133Y228180D01*
X574005Y228051D01*
X573231Y226894D01*
X572959Y225528D01*
Y207974D01*
X571961Y207440D01*
X570959Y207179D01*
X569451Y208186D01*
X567403Y208594D01*
X567147Y208543D01*
X563518Y212172D01*
X562361Y212945D01*
X561898Y213037D01*
Y222148D01*
X553202D01*
Y232576D01*
X542202D01*
Y222148D01*
X532898D01*
Y197148D01*
X557606D01*
X557925Y196760D01*
X558332Y194711D01*
X558783Y194036D01*
X557714Y192036D01*
X531099D01*
X529734Y191765D01*
X528576Y190991D01*
X519213Y181628D01*
X516638Y181881D01*
X516535Y182035D01*
X514798Y183195D01*
X512750Y183603D01*
X510702Y183195D01*
X508965Y182035D01*
X507805Y180298D01*
X507781Y180180D01*
X507773Y180146D01*
X506750Y178353D01*
X504702Y177945D01*
X502965Y176785D01*
X501805Y175048D01*
X501397Y173000D01*
X501805Y170952D01*
X502965Y169215D01*
X503568Y168812D01*
X503946Y166321D01*
X503189Y165378D01*
X486131D01*
Y178438D01*
X486036Y178914D01*
X486549Y181055D01*
X488285Y182215D01*
X489445Y183952D01*
X489853Y186000D01*
X489445Y188048D01*
X488285Y189785D01*
Y190068D01*
X489737Y191931D01*
X495750D01*
X497467Y190483D01*
X498627Y188747D01*
X500364Y187587D01*
X502412Y187179D01*
X504460Y187587D01*
X506197Y188747D01*
X506233Y188801D01*
X510382D01*
X511747Y189073D01*
X512905Y189847D01*
X529458Y206400D01*
X530232Y207557D01*
X530503Y208923D01*
Y235912D01*
X538773Y244181D01*
X550302D01*
X550303Y244181D01*
X555066D01*
X555068Y244181D01*
X660051D01*
X660053Y244181D01*
X664816D01*
X664818Y244181D01*
X676144D01*
X676220Y244101D01*
D02*
G37*
G36*
X14520Y239065D02*
X6520D01*
X9688Y253440D01*
X14520D01*
Y239065D01*
D02*
G37*
G36*
X590866Y229615D02*
Y212038D01*
X588866Y210480D01*
X588250Y210603D01*
X586202Y210195D01*
X584465Y209035D01*
X583305Y207298D01*
X582897Y205250D01*
X583305Y203202D01*
X584465Y201465D01*
X584681Y201320D01*
Y168430D01*
X584465Y168285D01*
X583305Y166548D01*
X582897Y164500D01*
X583305Y162452D01*
X584465Y160715D01*
X585739Y159864D01*
X586345Y157642D01*
X568911Y140208D01*
X568138Y139050D01*
X567866Y137685D01*
Y110444D01*
X552491Y95068D01*
X524486D01*
X523416Y97068D01*
X523548Y97265D01*
X523955Y99314D01*
X523548Y101362D01*
X522388Y103099D01*
X520651Y104259D01*
X519329Y104522D01*
X519526Y106522D01*
X524030D01*
X525696Y104648D01*
X525721Y104522D01*
X526103Y102599D01*
X527264Y100863D01*
X529000Y99702D01*
X531049Y99295D01*
X533097Y99702D01*
X534834Y100863D01*
X535994Y102599D01*
X536401Y104648D01*
X535994Y106696D01*
X535948Y106764D01*
Y117522D01*
X525948Y117522D01*
X525948Y119522D01*
Y125792D01*
X526288Y127743D01*
X528336Y128151D01*
X530073Y129311D01*
X531233Y131048D01*
X531641Y133096D01*
X531233Y135144D01*
X530073Y136881D01*
X528336Y138041D01*
X526288Y138449D01*
X524240Y138041D01*
X522503Y136881D01*
X521343Y135144D01*
X520935Y133096D01*
X521343Y131048D01*
X522195Y129772D01*
X521627Y128181D01*
X521309Y127772D01*
X515948D01*
Y115590D01*
X507948D01*
X506583Y115319D01*
X505425Y114545D01*
X503277Y112397D01*
X502504Y111240D01*
X502416Y110800D01*
X496301D01*
Y95800D01*
X494604Y95068D01*
X494364D01*
X494259Y95225D01*
X492522Y96385D01*
X490474Y96793D01*
X488426Y96385D01*
X486689Y95225D01*
X485529Y93488D01*
X485121Y91440D01*
X485529Y89392D01*
X486689Y87655D01*
X488426Y86495D01*
X490474Y86087D01*
X492522Y86495D01*
X494259Y87655D01*
X494444Y87931D01*
X497172D01*
X498628Y85931D01*
X498442Y85000D01*
Y43608D01*
X447658D01*
Y46550D01*
X458550D01*
Y65550D01*
X455619D01*
Y65856D01*
X455347Y67221D01*
X454574Y68379D01*
X452119Y70834D01*
Y73088D01*
X454119Y74205D01*
X455676Y73895D01*
X457150Y74188D01*
X457685Y73750D01*
Y73750D01*
X467685D01*
X469233Y72660D01*
X469388Y71884D01*
X470161Y70726D01*
X474074Y66814D01*
X473550Y65550D01*
X473550D01*
Y46550D01*
X486550D01*
Y65550D01*
X483619D01*
Y65884D01*
X483347Y67250D01*
X482574Y68407D01*
X478745Y72236D01*
X477685Y73750D01*
X477685D01*
X477685Y73750D01*
Y75998D01*
X478775Y76726D01*
X480708Y78659D01*
X481482Y79817D01*
X481753Y81183D01*
Y95214D01*
X484152Y97613D01*
X484632Y97517D01*
X486680Y97925D01*
X488417Y99085D01*
X489577Y100822D01*
X489985Y102870D01*
X489899Y103300D01*
X491541Y105300D01*
X493300D01*
Y120300D01*
X487369D01*
Y122634D01*
X487097Y124000D01*
X486434Y124993D01*
X486630Y126793D01*
X486630Y126793D01*
X488468Y127656D01*
X488868Y127388D01*
X490917Y126981D01*
X492965Y127388D01*
X494702Y128549D01*
X495862Y130285D01*
X496269Y132334D01*
X495962Y133877D01*
X497085Y135877D01*
X497131D01*
X498496Y136149D01*
X498702Y136286D01*
X499305Y136452D01*
X500465Y134715D01*
X502202Y133555D01*
X504250Y133147D01*
X506298Y133555D01*
X508035Y134715D01*
X509195Y136452D01*
X509603Y138500D01*
X509195Y140548D01*
X508975Y140878D01*
X510044Y142878D01*
X526302D01*
Y165378D01*
X515670D01*
X514904Y167226D01*
X532578Y184899D01*
X571534D01*
X572900Y185171D01*
X574058Y185944D01*
X579051Y190938D01*
X579825Y192096D01*
X580096Y193461D01*
Y224050D01*
X585995Y229948D01*
X586250Y229897D01*
X588298Y230305D01*
X588866Y230684D01*
X590866Y229615D01*
D02*
G37*
G36*
X14520Y126440D02*
X9770D01*
X6520Y141190D01*
X14520D01*
Y126440D01*
D02*
G37*
G36*
X305961Y96121D02*
X305965Y93785D01*
X304805Y92048D01*
X304397Y90000D01*
X304805Y87952D01*
X305775Y86500D01*
X305451Y85362D01*
X304932Y84500D01*
X295718D01*
X294656Y85209D01*
X292608Y85617D01*
X290560Y85209D01*
X288823Y84049D01*
X287663Y82312D01*
X287255Y80264D01*
X287663Y78216D01*
X288823Y76479D01*
X290560Y75319D01*
X292608Y74911D01*
X293435Y75076D01*
X295435Y74500D01*
Y74500D01*
X297366Y74334D01*
Y69000D01*
X297638Y67634D01*
X298028Y67050D01*
X297443Y65050D01*
X292300D01*
Y53457D01*
X290442Y53088D01*
X288705Y51927D01*
X287545Y50191D01*
X287138Y48142D01*
X286110Y46890D01*
X284030D01*
X282889Y48280D01*
X282482Y50328D01*
X281321Y52065D01*
X279585Y53225D01*
X277536Y53633D01*
X275488Y53225D01*
X273751Y52065D01*
X272591Y50328D01*
X272250Y48615D01*
X271660Y47733D01*
X271493Y46890D01*
X269497D01*
Y74848D01*
X273352D01*
Y85871D01*
X275352Y86969D01*
X276948Y86651D01*
X278997Y87059D01*
X280294Y87926D01*
X281488D01*
X281488Y87926D01*
X283049Y88236D01*
X284372Y89120D01*
X288548Y93296D01*
X288548Y93297D01*
X289432Y94620D01*
X289579Y95358D01*
X290664D01*
Y96780D01*
X305450D01*
X305961Y96121D01*
D02*
G37*
G36*
X468584Y110977D02*
X469130Y110122D01*
X469116Y110050D01*
Y97622D01*
X467685Y96250D01*
X457685D01*
Y86240D01*
X455978Y84541D01*
X455676Y84601D01*
X454119Y84291D01*
X452119Y85407D01*
Y100500D01*
X453935D01*
Y110500D01*
X455307Y111931D01*
X467510D01*
X468584Y110977D01*
D02*
G37*
G36*
X342013Y87584D02*
X341989Y87548D01*
X341582Y85500D01*
X341989Y83451D01*
X343150Y81715D01*
X343708Y81342D01*
X344821Y80332D01*
X344388Y78865D01*
X344116Y77500D01*
Y42750D01*
X344388Y41384D01*
X345161Y40226D01*
X352383Y33005D01*
X352332Y32750D01*
X352739Y30701D01*
X353900Y28965D01*
X355636Y27804D01*
X357685Y27397D01*
X359733Y27804D01*
X361470Y28965D01*
X362630Y30701D01*
X363038Y32750D01*
X362630Y34798D01*
X361470Y36535D01*
X359733Y37695D01*
X357685Y38103D01*
X357429Y38052D01*
X351253Y44228D01*
Y76021D01*
X360816Y85584D01*
X401163D01*
X401642Y85000D01*
Y63012D01*
X399642Y61569D01*
X398780Y61741D01*
X396732Y61333D01*
X394995Y60173D01*
X394850Y59957D01*
X386690D01*
Y61700D01*
X379442D01*
X377859Y63700D01*
X377971Y64262D01*
X377563Y66310D01*
X376403Y68047D01*
X374666Y69207D01*
X372618Y69615D01*
X370570Y69207D01*
X368833Y68047D01*
X367673Y66310D01*
X367265Y64262D01*
X367295Y64111D01*
X366781Y63342D01*
X366509Y61976D01*
Y61700D01*
X364690D01*
Y61642D01*
X362690Y60680D01*
X361712Y61333D01*
X359664Y61741D01*
X357616Y61333D01*
X355879Y60173D01*
X354719Y58436D01*
X354311Y56388D01*
X354719Y54340D01*
X355879Y52603D01*
X357616Y51443D01*
X359664Y51035D01*
X361712Y51443D01*
X362690Y52096D01*
X364690Y51134D01*
Y50700D01*
X364765D01*
X365840Y48737D01*
X365140Y47760D01*
X365140Y47760D01*
X365140Y47760D01*
Y27260D01*
X386140D01*
Y47760D01*
X386140D01*
X385753Y49658D01*
X386296Y50700D01*
X386690D01*
Y52819D01*
X394850D01*
X394995Y52603D01*
X396732Y51443D01*
X398780Y51035D01*
X399642Y51207D01*
X401642Y49764D01*
Y23760D01*
X385140D01*
Y5607D01*
X366140D01*
Y23760D01*
X349140D01*
Y22783D01*
X347264Y22091D01*
X346226Y23306D01*
X342575Y26424D01*
X338482Y28932D01*
X334047Y30770D01*
X329379Y31890D01*
X328137Y31988D01*
X326929Y34089D01*
X327171Y35306D01*
X326763Y37354D01*
X325997Y38502D01*
X326324Y38829D01*
X327097Y39987D01*
X327209Y40550D01*
X333300D01*
Y55550D01*
X314300D01*
Y47650D01*
X312300Y46666D01*
X310577Y47009D01*
X308528Y46601D01*
X307369Y45827D01*
X305523Y46575D01*
X305369Y46712D01*
Y50050D01*
X311300D01*
Y65050D01*
X305369D01*
Y68134D01*
X305097Y69500D01*
X304503Y70389D01*
Y74500D01*
X306435D01*
Y83496D01*
X306778Y83919D01*
X308250Y84946D01*
X309750Y84647D01*
X310005Y84698D01*
X310427Y84277D01*
X311584Y83503D01*
X311800Y83460D01*
Y81800D01*
X322800D01*
X324319Y80638D01*
X324831Y79872D01*
X328698Y76005D01*
X328647Y75750D01*
X329055Y73702D01*
X330215Y71965D01*
X331952Y70805D01*
X334000Y70397D01*
X336048Y70805D01*
X337785Y71965D01*
X338945Y73702D01*
X339353Y75750D01*
X338945Y77798D01*
X337785Y79535D01*
X336048Y80695D01*
X334000Y81103D01*
X333745Y81052D01*
X331664Y83132D01*
X332300Y84084D01*
X332707Y86132D01*
X332407Y87644D01*
X333331Y89166D01*
X333767Y89584D01*
X340944D01*
X342013Y87584D01*
D02*
G37*
G36*
X268089Y101709D02*
X263405Y97025D01*
X262631Y95868D01*
X262360Y94502D01*
Y93848D01*
X258352D01*
Y74848D01*
X262360D01*
Y71848D01*
X248852D01*
Y71072D01*
X248523Y70690D01*
X246887Y69704D01*
X244935Y70195D01*
Y71750D01*
X234935D01*
X233503Y73122D01*
Y93207D01*
X244006Y103709D01*
X267261D01*
X268089Y101709D01*
D02*
G37*
G36*
X226366Y93241D02*
Y71750D01*
X224935D01*
Y60750D01*
X223419Y59582D01*
X223357Y59558D01*
X221550Y60558D01*
Y62050D01*
X217709D01*
X216080Y64050D01*
X216173Y64516D01*
X215765Y66564D01*
X215185Y67433D01*
X215837Y69566D01*
X215923Y69654D01*
X217585Y70765D01*
X218746Y72502D01*
X219153Y74550D01*
X218746Y76598D01*
X217585Y78335D01*
X217369Y78480D01*
Y87072D01*
X224366Y94069D01*
X226366Y93241D01*
D02*
G37*
G36*
X82051Y42844D02*
X81621Y40193D01*
X75132Y36033D01*
X76101Y34523D01*
X74698Y33005D01*
X73185Y33814D01*
X70235Y36235D01*
X67814Y39185D01*
X66015Y42550D01*
X64907Y46202D01*
X64666Y48656D01*
X66609Y49331D01*
X67038Y48662D01*
X73526Y52821D01*
X75305Y53368D01*
X82051Y42844D01*
D02*
G37*
G36*
X247549Y59825D02*
X248706Y59051D01*
X248852Y59022D01*
Y52848D01*
X262360D01*
Y46890D01*
X259902D01*
Y31890D01*
X265374D01*
X265393Y31867D01*
X266094Y29890D01*
X263405Y27201D01*
X262631Y26044D01*
X262360Y24678D01*
Y20890D01*
X259902D01*
Y16959D01*
X248946D01*
X227343Y38562D01*
Y50550D01*
X230553D01*
X232195Y48550D01*
X232137Y48260D01*
X232545Y46212D01*
X233705Y44475D01*
X235442Y43315D01*
X236497Y43105D01*
X236920Y40981D01*
X235991Y40361D01*
X234831Y38624D01*
X234423Y36576D01*
X234831Y34528D01*
X235991Y32791D01*
X237728Y31631D01*
X239776Y31223D01*
X241824Y31631D01*
X243561Y32791D01*
X244721Y34528D01*
X245129Y36576D01*
X244721Y38624D01*
X243561Y40361D01*
X241824Y41521D01*
X240769Y41731D01*
X240346Y43854D01*
X241275Y44475D01*
X242435Y46212D01*
X242843Y48260D01*
X242775Y48599D01*
X243347Y49455D01*
X243565Y50550D01*
X245050D01*
Y59494D01*
X247050Y60323D01*
X247549Y59825D01*
D02*
G37*
G36*
X121092Y75040D02*
Y60040D01*
X133092D01*
Y71971D01*
X140092D01*
Y60040D01*
X152092D01*
Y63971D01*
X154328D01*
X154457Y63779D01*
X155408Y63143D01*
X156234Y62525D01*
X156935Y60892D01*
Y51000D01*
X158628D01*
X158638Y50950D01*
X159411Y49792D01*
X161477Y47727D01*
X162634Y46953D01*
X164000Y46681D01*
X167250D01*
Y30500D01*
X182250D01*
Y49500D01*
X183458Y51000D01*
X188435Y51000D01*
X190435Y51000D01*
X197571D01*
X198434Y51000D01*
X199481Y51026D01*
X200287Y50694D01*
X201039Y48719D01*
X200550Y47760D01*
X200550D01*
Y27260D01*
X221550D01*
Y31648D01*
X223398Y32413D01*
X230204Y25608D01*
X229438Y23760D01*
X220550D01*
Y5607D01*
X201550D01*
Y23760D01*
X184550D01*
Y5607D01*
X134608D01*
Y21167D01*
X136456Y21932D01*
X142911Y15477D01*
X144069Y14703D01*
X145434Y14431D01*
X157750D01*
Y8500D01*
X172750D01*
Y27500D01*
X157750D01*
Y21569D01*
X146913D01*
X138332Y30149D01*
X138685Y31000D01*
X138685D01*
Y41000D01*
X129185D01*
X127685Y41000D01*
X127185Y42793D01*
Y51000D01*
X127185Y51000D01*
X127019Y52578D01*
X126954Y52904D01*
X126954Y52904D01*
X126941Y52971D01*
X126611Y54626D01*
X125451Y56363D01*
X123714Y57523D01*
X121666Y57931D01*
X119618Y57523D01*
X117881Y56363D01*
X116721Y54626D01*
X116394Y52983D01*
X116381Y52919D01*
X116381Y52918D01*
X116313Y52578D01*
X116185Y51000D01*
X116185Y51000D01*
Y44660D01*
X114337Y43894D01*
X112003Y46228D01*
Y69271D01*
X118703Y75971D01*
X119478D01*
X121092Y75040D01*
D02*
G37*
%LPC*%
G36*
X393935Y310352D02*
X391886Y309945D01*
X390150Y308785D01*
X388989Y307048D01*
X388582Y305000D01*
X388989Y302951D01*
X390150Y301215D01*
X391886Y300054D01*
X393935Y299647D01*
X395983Y300054D01*
X397720Y301215D01*
X398880Y302951D01*
X399287Y305000D01*
X398880Y307048D01*
X397720Y308785D01*
X395983Y309945D01*
X393935Y310352D01*
D02*
G37*
G36*
X374054Y323212D02*
X359054D01*
Y311212D01*
X360977D01*
X362476Y310130D01*
X362786Y308569D01*
X363671Y307246D01*
X366435Y304482D01*
X366739Y302951D01*
X367900Y301215D01*
X369636Y300054D01*
X371685Y299647D01*
X373733Y300054D01*
X375470Y301215D01*
X376630Y302951D01*
X377038Y305000D01*
X376630Y307048D01*
X375470Y308785D01*
X374632Y309345D01*
X374054Y311212D01*
X374054Y311212D01*
X374054Y311212D01*
Y323212D01*
D02*
G37*
G36*
X413258Y263853D02*
X411210Y263445D01*
X409473Y262285D01*
X408313Y260548D01*
X407905Y258500D01*
X408313Y256451D01*
X409473Y254715D01*
X409866Y254452D01*
Y249940D01*
X409730Y249883D01*
X408163Y248681D01*
X406961Y247114D01*
X406205Y245290D01*
X405947Y243332D01*
X406205Y241374D01*
X406961Y239550D01*
X408163Y237983D01*
X409730Y236781D01*
X411554Y236025D01*
X413512Y235767D01*
X415470Y236025D01*
X417294Y236781D01*
X418861Y237983D01*
X420063Y239550D01*
X420819Y241374D01*
X421077Y243332D01*
X420819Y245290D01*
X420063Y247114D01*
X418861Y248681D01*
X417294Y249883D01*
X417003Y250004D01*
Y254688D01*
X417043Y254715D01*
X418203Y256451D01*
X418611Y258500D01*
X418203Y260548D01*
X417043Y262285D01*
X415306Y263445D01*
X413258Y263853D01*
D02*
G37*
G36*
X75627Y253256D02*
X73578Y252849D01*
X71842Y251689D01*
X70681Y249952D01*
X70274Y247904D01*
X70681Y245855D01*
X71842Y244119D01*
X73578Y242958D01*
X75627Y242551D01*
X77675Y242958D01*
X79412Y244119D01*
X80572Y245855D01*
X80979Y247904D01*
X80572Y249952D01*
X79412Y251689D01*
X77675Y252849D01*
X75627Y253256D01*
D02*
G37*
G36*
X128000Y240353D02*
X125952Y239945D01*
X124215Y238785D01*
X123055Y237048D01*
X122647Y235000D01*
X123055Y232952D01*
X124215Y231215D01*
X125952Y230055D01*
X128000Y229647D01*
X130048Y230055D01*
X131785Y231215D01*
X132945Y232952D01*
X133353Y235000D01*
X132945Y237048D01*
X131785Y238785D01*
X130048Y239945D01*
X128000Y240353D01*
D02*
G37*
G36*
X104302Y234804D02*
X93302D01*
Y223804D01*
X95234D01*
Y223382D01*
X95506Y222016D01*
X96279Y220859D01*
X97988Y219149D01*
X98896Y217532D01*
X98896D01*
X98896Y217532D01*
Y206532D01*
X100328D01*
Y202550D01*
X97800D01*
Y184550D01*
X100232D01*
Y182344D01*
X94707Y176819D01*
X75500D01*
X74134Y176547D01*
X72977Y175773D01*
X64533Y167329D01*
X63759Y166172D01*
X63487Y164806D01*
Y161664D01*
X63271Y161519D01*
X62111Y159782D01*
X61703Y157734D01*
X62111Y155686D01*
X63271Y153949D01*
X65008Y152789D01*
X67056Y152381D01*
X67998Y151608D01*
Y124212D01*
X79998D01*
Y124212D01*
X80698D01*
Y124212D01*
X91376D01*
X93358Y124172D01*
X94682Y124172D01*
X98128D01*
Y139462D01*
Y154752D01*
X94682D01*
X93358Y154752D01*
X92267Y154730D01*
X90267Y156244D01*
Y156380D01*
X89995Y157745D01*
X89222Y158903D01*
X87090Y161035D01*
X87141Y161290D01*
X86733Y163338D01*
X85573Y165075D01*
X83836Y166235D01*
X81788Y166643D01*
X79740Y166235D01*
X78003Y165075D01*
X77525Y165413D01*
X77470Y165497D01*
X76362Y166237D01*
X75916Y168121D01*
X77264Y169681D01*
X96185D01*
X97551Y169953D01*
X98708Y170727D01*
X106324Y178342D01*
X107097Y179500D01*
X107369Y180865D01*
Y184550D01*
X109800D01*
Y202550D01*
X107465D01*
Y206532D01*
X108896D01*
Y211466D01*
X110897Y213107D01*
X110998Y213087D01*
X113046Y213495D01*
X114783Y214655D01*
X115943Y216392D01*
X116351Y218440D01*
X115943Y220488D01*
X114783Y222225D01*
X113046Y223385D01*
X110998Y223793D01*
X108950Y223385D01*
X107445Y222380D01*
X107213Y222225D01*
X105773Y222299D01*
X104302Y223804D01*
Y234804D01*
D02*
G37*
G36*
X100668Y154752D02*
Y140732D01*
X105438D01*
Y154752D01*
X100668D01*
D02*
G37*
G36*
X105438Y138192D02*
X100668D01*
Y124172D01*
X105438D01*
Y138192D01*
D02*
G37*
G36*
X281967Y278221D02*
Y270542D01*
X289646D01*
X289503Y271631D01*
X288592Y273830D01*
X287143Y275718D01*
X285256Y277167D01*
X283057Y278077D01*
X281967Y278221D01*
D02*
G37*
G36*
X176377Y353394D02*
X165377D01*
Y343394D01*
X176377D01*
Y343394D01*
X176759Y343552D01*
X177872Y342438D01*
X177108Y340594D01*
X171376D01*
Y329799D01*
X170164Y329557D01*
X168427Y328397D01*
X167267Y326660D01*
X166859Y324612D01*
X166910Y324357D01*
X164027Y321474D01*
X163253Y320316D01*
X162982Y318950D01*
Y302395D01*
X151027Y290440D01*
X150253Y289282D01*
X149982Y287916D01*
Y286050D01*
X148050D01*
Y270050D01*
X156535D01*
X157868Y268050D01*
X157650Y266954D01*
X158057Y264905D01*
X159218Y263169D01*
X160954Y262008D01*
X163003Y261601D01*
X165051Y262008D01*
X166788Y263169D01*
X167948Y264905D01*
X168329Y266819D01*
X169315Y267433D01*
X170257Y267647D01*
X172427Y265476D01*
X173585Y264703D01*
X174951Y264431D01*
X228435D01*
X229800Y264703D01*
X230958Y265476D01*
X237958Y272476D01*
X238732Y273634D01*
X239003Y275000D01*
Y289750D01*
X238732Y291115D01*
X237958Y292273D01*
X236158Y294073D01*
X235000Y294847D01*
X234300Y294986D01*
Y297050D01*
X232369D01*
Y304700D01*
X232097Y306065D01*
X231324Y307223D01*
X195173Y343374D01*
Y353140D01*
X184173D01*
Y349237D01*
X182325Y348472D01*
X179880Y350917D01*
X178722Y351691D01*
X177356Y351962D01*
X176377D01*
Y353394D01*
D02*
G37*
G36*
X289646Y268002D02*
X281967D01*
Y260323D01*
X283057Y260466D01*
X285256Y261377D01*
X287143Y262826D01*
X288592Y264714D01*
X289503Y266913D01*
X289646Y268002D01*
D02*
G37*
G36*
X261698Y278348D02*
X259349Y278039D01*
X257161Y277132D01*
X255281Y275690D01*
X253839Y273810D01*
X252932Y271621D01*
X252623Y269272D01*
X252932Y266923D01*
X253839Y264734D01*
X255281Y262854D01*
X257161Y261412D01*
X259349Y260506D01*
X261698Y260196D01*
X264047Y260506D01*
X266236Y261412D01*
X268116Y262854D01*
X269558Y264734D01*
X270094Y266027D01*
X272259D01*
X272803Y264714D01*
X274251Y262826D01*
X276139Y261377D01*
X278338Y260466D01*
X279427Y260323D01*
Y269272D01*
Y278221D01*
X278338Y278077D01*
X276139Y277167D01*
X274251Y275718D01*
X272803Y273830D01*
X272259Y272517D01*
X270094D01*
X269558Y273810D01*
X268116Y275690D01*
X266236Y277132D01*
X264047Y278039D01*
X261698Y278348D01*
D02*
G37*
G36*
X234685Y252103D02*
X232636Y251695D01*
X230900Y250535D01*
X229739Y248798D01*
X229332Y246750D01*
X229739Y244701D01*
X230900Y242965D01*
X232636Y241804D01*
X234685Y241397D01*
X236733Y241804D01*
X238470Y242965D01*
X239630Y244701D01*
X240037Y246750D01*
X239630Y248798D01*
X238470Y250535D01*
X236733Y251695D01*
X234685Y252103D01*
D02*
G37*
G36*
X204238Y248304D02*
X201497Y247943D01*
X198943Y246885D01*
X196749Y245201D01*
X195066Y243008D01*
X194008Y240453D01*
X193647Y237712D01*
X194008Y234971D01*
X195066Y232416D01*
X196749Y230223D01*
X198943Y228539D01*
X201497Y227481D01*
X204238Y227120D01*
X206980Y227481D01*
X209534Y228539D01*
X211728Y230223D01*
X213411Y232416D01*
X214469Y234971D01*
X214830Y237712D01*
X214469Y240453D01*
X213411Y243008D01*
X211728Y245201D01*
X209534Y246885D01*
X206980Y247943D01*
X204238Y248304D01*
D02*
G37*
G36*
X176238D02*
X173497Y247943D01*
X170943Y246885D01*
X168749Y245201D01*
X167066Y243008D01*
X166008Y240453D01*
X165647Y237712D01*
X166008Y234971D01*
X167066Y232416D01*
X168749Y230223D01*
X170943Y228539D01*
X173497Y227481D01*
X176238Y227120D01*
X178980Y227481D01*
X181534Y228539D01*
X183728Y230223D01*
X185411Y232416D01*
X186469Y234971D01*
X186830Y237712D01*
X186469Y240453D01*
X185411Y243008D01*
X183728Y245201D01*
X181534Y246885D01*
X178980Y247943D01*
X176238Y248304D01*
D02*
G37*
G36*
X274040Y243101D02*
X271169Y242723D01*
X268494Y241615D01*
X266197Y239853D01*
X264435Y237556D01*
X263327Y234881D01*
X262949Y232010D01*
X263327Y229139D01*
X264435Y226465D01*
X266197Y224167D01*
X268494Y222405D01*
X271169Y221297D01*
X274040Y220919D01*
X276911Y221297D01*
X279585Y222405D01*
X281883Y224167D01*
X283645Y226465D01*
X284753Y229139D01*
X285131Y232010D01*
X284753Y234881D01*
X283645Y237556D01*
X281883Y239853D01*
X279585Y241615D01*
X276911Y242723D01*
X274040Y243101D01*
D02*
G37*
G36*
X205508Y222777D02*
Y213582D01*
X214703D01*
X214508Y215064D01*
X213446Y217628D01*
X211756Y219830D01*
X209554Y221520D01*
X206990Y222582D01*
X205508Y222777D01*
D02*
G37*
G36*
X202968Y222777D02*
X201487Y222582D01*
X198922Y221520D01*
X196721Y219830D01*
X195031Y217628D01*
X193969Y215064D01*
X193774Y213582D01*
X202968D01*
Y222777D01*
D02*
G37*
G36*
Y211042D02*
X193774D01*
X193969Y209560D01*
X195031Y206996D01*
X196721Y204794D01*
X198922Y203104D01*
X201487Y202042D01*
X202968Y201847D01*
Y211042D01*
D02*
G37*
G36*
X214703D02*
X205508D01*
Y201847D01*
X206990Y202042D01*
X209554Y203104D01*
X211756Y204794D01*
X213446Y206996D01*
X214508Y209560D01*
X214703Y211042D01*
D02*
G37*
G36*
X236685Y209102D02*
X234636Y208695D01*
X232900Y207535D01*
X231739Y205798D01*
X231332Y203750D01*
X231739Y201701D01*
X232900Y199965D01*
X234636Y198804D01*
X236685Y198397D01*
X238733Y198804D01*
X240470Y199965D01*
X241630Y201701D01*
X242038Y203750D01*
X241630Y205798D01*
X240470Y207535D01*
X238733Y208695D01*
X236685Y209102D01*
D02*
G37*
G36*
X176238Y222904D02*
X173497Y222543D01*
X170943Y221485D01*
X168749Y219801D01*
X167066Y217608D01*
X166008Y215053D01*
X165647Y212312D01*
X166008Y209571D01*
X167066Y207016D01*
X168749Y204823D01*
X169025Y204611D01*
X168526Y202473D01*
X168386Y202445D01*
X166650Y201285D01*
X165489Y199548D01*
X165082Y197500D01*
X165489Y195451D01*
X166650Y193715D01*
X168386Y192554D01*
X170435Y192147D01*
X172483Y192554D01*
X174220Y193715D01*
X175380Y195451D01*
X175788Y197500D01*
X175380Y199548D01*
X175184Y199842D01*
X176238Y201720D01*
X178980Y202081D01*
X181534Y203139D01*
X183728Y204823D01*
X185411Y207016D01*
X186469Y209571D01*
X186830Y212312D01*
X186469Y215053D01*
X185411Y217608D01*
X183728Y219801D01*
X181534Y221485D01*
X178980Y222543D01*
X176238Y222904D01*
D02*
G37*
G36*
X204238Y178304D02*
X201497Y177943D01*
X198943Y176885D01*
X196749Y175201D01*
X195066Y173008D01*
X194008Y170453D01*
X193647Y167712D01*
X194008Y164971D01*
X195066Y162416D01*
X196749Y160223D01*
X198943Y158539D01*
X201497Y157481D01*
X204238Y157120D01*
X206980Y157481D01*
X209534Y158539D01*
X211728Y160223D01*
X213411Y162416D01*
X214469Y164971D01*
X214830Y167712D01*
X214469Y170453D01*
X213411Y173008D01*
X211728Y175201D01*
X209534Y176885D01*
X206980Y177943D01*
X204238Y178304D01*
D02*
G37*
G36*
X176238D02*
X173497Y177943D01*
X170943Y176885D01*
X168749Y175201D01*
X167066Y173008D01*
X166008Y170453D01*
X165647Y167712D01*
X166008Y164971D01*
X167066Y162416D01*
X168749Y160223D01*
X170943Y158539D01*
X173497Y157481D01*
X176238Y157120D01*
X178980Y157481D01*
X181534Y158539D01*
X183728Y160223D01*
X185411Y162416D01*
X186469Y164971D01*
X186830Y167712D01*
X186469Y170453D01*
X185411Y173008D01*
X183728Y175201D01*
X181534Y176885D01*
X178980Y177943D01*
X176238Y178304D01*
D02*
G37*
G36*
X383800Y172403D02*
X381752Y171995D01*
X380015Y170835D01*
X378855Y169098D01*
X378448Y167050D01*
X378855Y165002D01*
X380015Y163265D01*
X380232Y163120D01*
Y159452D01*
X371749D01*
Y144452D01*
X395848D01*
Y159452D01*
X387369D01*
Y163120D01*
X387585Y163265D01*
X388746Y165002D01*
X389153Y167050D01*
X388746Y169098D01*
X387585Y170835D01*
X385849Y171995D01*
X383800Y172403D01*
D02*
G37*
G36*
X205508Y152777D02*
Y143582D01*
X214703D01*
X214508Y145064D01*
X213446Y147628D01*
X211756Y149830D01*
X209554Y151519D01*
X206990Y152582D01*
X205508Y152777D01*
D02*
G37*
G36*
X202968Y152777D02*
X201487Y152582D01*
X198922Y151519D01*
X196721Y149830D01*
X195031Y147628D01*
X193969Y145064D01*
X193774Y143582D01*
X202968D01*
Y152777D01*
D02*
G37*
G36*
X274040Y159101D02*
X271169Y158723D01*
X268494Y157615D01*
X266197Y155853D01*
X264435Y153555D01*
X263327Y150881D01*
X262949Y148010D01*
X263327Y145139D01*
X264435Y142465D01*
X266197Y140167D01*
X268494Y138405D01*
X271169Y137297D01*
X274040Y136919D01*
X276911Y137297D01*
X279585Y138405D01*
X281883Y140167D01*
X283645Y142465D01*
X284753Y145139D01*
X285131Y148010D01*
X284753Y150881D01*
X283645Y153555D01*
X281883Y155853D01*
X279585Y157615D01*
X276911Y158723D01*
X274040Y159101D01*
D02*
G37*
G36*
X202968Y141042D02*
X193774D01*
X193969Y139560D01*
X195031Y136996D01*
X196721Y134794D01*
X198922Y133104D01*
X201487Y132042D01*
X202968Y131847D01*
Y141042D01*
D02*
G37*
G36*
X176238Y152904D02*
X173497Y152543D01*
X170943Y151485D01*
X168749Y149801D01*
X167066Y147608D01*
X166008Y145053D01*
X165647Y142312D01*
X166008Y139571D01*
X166204Y139096D01*
X164951Y136896D01*
X164322Y136771D01*
X162585Y135611D01*
X161425Y133874D01*
X161017Y131826D01*
X161425Y129778D01*
X162585Y128041D01*
X164322Y126881D01*
X166370Y126473D01*
X168418Y126881D01*
X170155Y128041D01*
X171315Y129778D01*
X171507Y130741D01*
X173425Y132033D01*
X173654Y132061D01*
X176238Y131720D01*
X178980Y132081D01*
X181534Y133139D01*
X183728Y134823D01*
X185411Y137016D01*
X186469Y139571D01*
X186830Y142312D01*
X186469Y145053D01*
X185411Y147608D01*
X183728Y149801D01*
X181534Y151485D01*
X178980Y152543D01*
X176238Y152904D01*
D02*
G37*
G36*
X214703Y141042D02*
X205508D01*
Y131847D01*
X206990Y132042D01*
X209554Y133104D01*
X209888Y133361D01*
X212092Y132531D01*
X212253Y131724D01*
X213413Y129987D01*
X215150Y128827D01*
X217198Y128419D01*
X219247Y128827D01*
X220984Y129987D01*
X222144Y131724D01*
X222551Y133772D01*
X222144Y135820D01*
X220984Y137557D01*
X219247Y138717D01*
X217198Y139125D01*
X216356Y138957D01*
X216231Y138998D01*
X214645Y140602D01*
X214703Y141042D01*
D02*
G37*
G36*
X303685Y133103D02*
X301636Y132695D01*
X299900Y131535D01*
X298739Y129798D01*
X298332Y127750D01*
X298739Y125701D01*
X299900Y123965D01*
X301636Y122804D01*
X303685Y122397D01*
X303940Y122448D01*
X311911Y114477D01*
X313069Y113703D01*
X314434Y113431D01*
X331544D01*
X339819Y105157D01*
X339768Y104902D01*
X340175Y102853D01*
X341336Y101117D01*
X343072Y99956D01*
X345121Y99549D01*
X347169Y99956D01*
X348906Y101117D01*
X350066Y102853D01*
X350474Y104902D01*
X350066Y106950D01*
X348906Y108687D01*
X347169Y109847D01*
X345121Y110254D01*
X344865Y110204D01*
X335546Y119523D01*
X334388Y120297D01*
X333022Y120569D01*
X315913D01*
X308987Y127494D01*
X309037Y127750D01*
X308630Y129798D01*
X307470Y131535D01*
X305733Y132695D01*
X303685Y133103D01*
D02*
G37*
%LPD*%
G36*
X225232Y303221D02*
Y297050D01*
X223300D01*
Y287180D01*
X223291Y287157D01*
X221556Y285739D01*
X221300Y285694D01*
X220500Y285853D01*
X218452Y285445D01*
X216715Y284285D01*
X215555Y282548D01*
X215147Y280500D01*
X215269Y279890D01*
X214043Y278207D01*
X212747Y278067D01*
X211050Y279539D01*
X211050Y288800D01*
X212657Y289750D01*
X213935D01*
Y290218D01*
X215481Y291487D01*
X215935Y291397D01*
X217983Y291804D01*
X219720Y292965D01*
X220880Y294701D01*
X221287Y296750D01*
X220880Y298798D01*
X219720Y300535D01*
X217983Y301695D01*
X215935Y302103D01*
X215481Y302012D01*
X213935Y303281D01*
Y303750D01*
X199935D01*
Y290752D01*
X199935Y289750D01*
X200051Y287798D01*
Y287593D01*
X199924Y287568D01*
X198601Y286684D01*
X198601Y286684D01*
X196917Y285000D01*
X195386Y284695D01*
X193650Y283535D01*
X192489Y281798D01*
X192082Y279750D01*
X192489Y277701D01*
X193650Y275965D01*
X195386Y274804D01*
X197435Y274397D01*
X197560Y274422D01*
X199068Y272977D01*
X198584Y271568D01*
X178050D01*
Y276294D01*
X180050Y277363D01*
X180886Y276804D01*
X182935Y276397D01*
X184983Y276804D01*
X186720Y277965D01*
X187880Y279701D01*
X188185Y281232D01*
X193819Y286866D01*
X194703Y288189D01*
X195013Y289750D01*
Y295750D01*
X196435D01*
Y306750D01*
X185435D01*
Y295750D01*
X186856D01*
Y291439D01*
X182417Y286999D01*
X180886Y286695D01*
X180022Y286118D01*
X178050Y286050D01*
X178050Y286050D01*
X178050Y286050D01*
X159559D01*
X158731Y288050D01*
X168731Y298050D01*
X178050D01*
Y314050D01*
X177842D01*
X177014Y316050D01*
X188900Y327936D01*
X189673Y329094D01*
X189773Y329594D01*
X191376D01*
Y334464D01*
X193224Y335229D01*
X225232Y303221D01*
D02*
G37*
%LPC*%
G36*
X789700Y291108D02*
X786437Y290678D01*
X783396Y289419D01*
X780785Y287415D01*
X778782Y284804D01*
X777522Y281763D01*
X777092Y278500D01*
X777522Y275237D01*
X778782Y272196D01*
X780785Y269585D01*
X783396Y267581D01*
X786437Y266322D01*
X789700Y265892D01*
X792963Y266322D01*
X796004Y267581D01*
X798615Y269585D01*
X800619Y272196D01*
X801879Y275237D01*
X802308Y278500D01*
X801879Y281763D01*
X800619Y284804D01*
X798615Y287415D01*
X796004Y289419D01*
X792963Y290678D01*
X789700Y291108D01*
D02*
G37*
G36*
Y252108D02*
X786437Y251678D01*
X783396Y250419D01*
X780785Y248415D01*
X778782Y245804D01*
X777522Y242763D01*
X777092Y239500D01*
X777522Y236237D01*
X778782Y233196D01*
X780785Y230585D01*
X783396Y228581D01*
X786437Y227322D01*
X789700Y226892D01*
X792963Y227322D01*
X796004Y228581D01*
X798615Y230585D01*
X800619Y233196D01*
X801879Y236237D01*
X802308Y239500D01*
X801879Y242763D01*
X800619Y245804D01*
X798615Y248415D01*
X796004Y250419D01*
X792963Y251678D01*
X789700Y252108D01*
D02*
G37*
G36*
X760000D02*
X756737Y251678D01*
X753696Y250419D01*
X751085Y248415D01*
X749082Y245804D01*
X747822Y242763D01*
X747392Y239500D01*
X747822Y236237D01*
X749082Y233196D01*
X751085Y230585D01*
X753696Y228581D01*
X756737Y227322D01*
X760000Y226892D01*
X763263Y227322D01*
X766304Y228581D01*
X768915Y230585D01*
X770919Y233196D01*
X772179Y236237D01*
X772608Y239500D01*
X772179Y242763D01*
X770919Y245804D01*
X768915Y248415D01*
X766304Y250419D01*
X763263Y251678D01*
X760000Y252108D01*
D02*
G37*
G36*
X738500Y233353D02*
X736452Y232945D01*
X734715Y231785D01*
X733555Y230048D01*
X733147Y228000D01*
X733555Y225952D01*
X734715Y224215D01*
X736452Y223055D01*
X738500Y222647D01*
X740548Y223055D01*
X742285Y224215D01*
X743445Y225952D01*
X743853Y228000D01*
X743445Y230048D01*
X742285Y231785D01*
X740548Y232945D01*
X738500Y233353D01*
D02*
G37*
G36*
X605500Y282853D02*
X603452Y282445D01*
X601715Y281285D01*
X600555Y279548D01*
X600147Y277500D01*
X600555Y275452D01*
X601715Y273715D01*
X603452Y272555D01*
X605500Y272147D01*
X607548Y272555D01*
X609285Y273715D01*
X610445Y275452D01*
X610853Y277500D01*
X610445Y279548D01*
X609285Y281285D01*
X607548Y282445D01*
X605500Y282853D01*
D02*
G37*
G36*
X594614Y137941D02*
X592566Y137533D01*
X591396Y136752D01*
X589470Y136035D01*
X587733Y137195D01*
X585685Y137603D01*
X583636Y137195D01*
X581900Y136035D01*
X580739Y134298D01*
X580332Y132250D01*
X580739Y130201D01*
X581900Y128465D01*
X583636Y127304D01*
X585685Y126897D01*
X587733Y127304D01*
X588903Y128086D01*
X590829Y128803D01*
X592566Y127643D01*
X594614Y127235D01*
X596662Y127643D01*
X598399Y128803D01*
X599559Y130540D01*
X599967Y132588D01*
X599559Y134636D01*
X598399Y136373D01*
X596662Y137533D01*
X594614Y137941D01*
D02*
G37*
G36*
X625029Y139465D02*
X622980Y139057D01*
X621244Y137897D01*
X620083Y136160D01*
X619676Y134112D01*
X620083Y132063D01*
X621244Y130327D01*
X622980Y129166D01*
X625029Y128759D01*
X627077Y129166D01*
X628384Y130039D01*
X628931Y129221D01*
X630667Y128061D01*
X632716Y127653D01*
X634764Y128061D01*
X636501Y129221D01*
X637661Y130958D01*
X638068Y133006D01*
X637661Y135055D01*
X636501Y136791D01*
X634764Y137951D01*
X632716Y138359D01*
X630667Y137951D01*
X629361Y137078D01*
X628814Y137897D01*
X627077Y139057D01*
X625029Y139465D01*
D02*
G37*
G36*
X561898Y182148D02*
X532898D01*
Y172400D01*
X532783Y172323D01*
X530369Y169909D01*
X529595Y168752D01*
X529323Y167386D01*
Y154432D01*
X529595Y153066D01*
X530369Y151909D01*
X533417Y148861D01*
X534172Y148356D01*
Y145884D01*
X545172D01*
Y156884D01*
X547062Y157149D01*
X559916D01*
X560055Y156452D01*
X561215Y154715D01*
X562952Y153555D01*
X565000Y153147D01*
X567048Y153555D01*
X568785Y154715D01*
X569945Y156452D01*
X570353Y158500D01*
X569945Y160548D01*
X571136Y162366D01*
X571285Y162465D01*
X572445Y164202D01*
X572853Y166250D01*
X572445Y168298D01*
X571285Y170035D01*
X569548Y171195D01*
X567500Y171603D01*
X567245Y171552D01*
X566473Y172323D01*
X565316Y173097D01*
X563950Y173369D01*
X561898D01*
Y182148D01*
D02*
G37*
%LPD*%
D11*
X636600Y155649D02*
X651534Y140716D01*
X636600Y155649D02*
Y186904D01*
X651534Y140716D02*
X661924D01*
X633254Y190250D02*
X636600Y186904D01*
X142250Y264912D02*
X152146Y255016D01*
X166550Y300916D02*
Y318950D01*
X153550Y287916D02*
X166550Y300916D01*
Y318950D02*
X172212Y324612D01*
X489050Y226130D02*
Y292200D01*
X476274Y304976D02*
X489050Y292200D01*
X473059Y304976D02*
X476274D01*
X493050Y261076D02*
Y294700D01*
X486253Y301497D02*
X493050Y294700D01*
X486253Y301497D02*
Y304848D01*
X614250Y141500D02*
X614338D01*
X614361Y141478D01*
X722008Y159626D02*
X725750Y155884D01*
Y143836D02*
Y155884D01*
X722242Y140328D02*
X725750Y143836D01*
X697550Y141800D02*
Y145550D01*
X695750Y140000D02*
X697550Y141800D01*
X688000Y140000D02*
X695750D01*
X697550Y145550D02*
X707267D01*
X626364Y190250D02*
X633254D01*
X614250Y142367D02*
Y203250D01*
X606500Y141250D02*
Y177750D01*
X594435Y160685D02*
Y235500D01*
X588250Y164500D02*
Y205250D01*
X563950Y169800D02*
X567500Y166250D01*
X614250Y142367D02*
X614750Y141867D01*
X571435Y137685D02*
X594435Y160685D01*
X655320Y193548D02*
X655435Y193663D01*
Y226500D01*
X553969Y91500D02*
X571435Y108966D01*
X490534Y91500D02*
X553969D01*
X571435Y108966D02*
Y137685D01*
X531049Y104648D02*
Y111894D01*
X507948Y112022D02*
X520948D01*
X505800Y109874D02*
X507948Y112022D01*
X505800Y103300D02*
Y109874D01*
X535306Y169800D02*
X563950D01*
X614361Y141478D02*
X614750Y141867D01*
X560995Y209648D02*
X567403Y203241D01*
X547398Y209648D02*
X560995D01*
X531099Y188468D02*
X571534D01*
X351190Y177761D02*
Y188122D01*
Y177761D02*
X351250Y177701D01*
X350900Y177352D02*
X351250Y177701D01*
X135750Y247684D02*
X144435Y239000D01*
X135750Y247684D02*
Y269500D01*
X142185Y320500D02*
X142250Y320434D01*
Y264912D02*
Y320434D01*
X478185Y96692D02*
X484497Y103005D01*
X478185Y81183D02*
Y96692D01*
X242528Y107278D02*
X318426D01*
X229935Y94685D02*
X242528Y107278D01*
X229935Y66250D02*
Y94685D01*
X213800Y88550D02*
X230750Y105500D01*
X213800Y74550D02*
Y88550D01*
X838935Y301500D02*
Y335065D01*
X826000Y348000D02*
X838935Y335065D01*
X826000Y348000D02*
Y362930D01*
X825000Y363930D02*
X826000Y362930D01*
X490917Y132334D02*
Y139446D01*
X497131D01*
X503620Y246380D02*
X506250D01*
X501050Y248950D02*
X503620Y246380D01*
X501050Y248950D02*
Y268300D01*
X496050Y305050D02*
Y311450D01*
X494050Y313450D02*
X496050Y311450D01*
X494050Y313450D02*
Y324050D01*
X117186Y317585D02*
X120101Y320500D01*
X117186Y309694D02*
Y317585D01*
X312950Y86800D02*
X317300D01*
X309750Y90000D02*
X312950Y86800D01*
X73750Y202750D02*
X73750D01*
X73750D02*
X73750Y202750D01*
X73750Y202750D01*
X61685D02*
X73750D01*
X75500Y173250D02*
X96185D01*
X67056Y164806D02*
X75500Y173250D01*
X67056Y157734D02*
Y164806D01*
X96185Y173250D02*
X103800Y180865D01*
X86698Y139462D02*
Y156380D01*
X81788Y161290D02*
X86698Y156380D01*
X73685Y161712D02*
Y163252D01*
Y140439D02*
Y161712D01*
X221072Y56550D02*
X223774Y53848D01*
X216050Y56550D02*
X221072D01*
X216050Y37510D02*
X216050Y37510D01*
X216050Y37510D02*
Y56550D01*
X205050Y50200D02*
X206050Y49200D01*
X205050Y50200D02*
Y56550D01*
Y61540D01*
X370000Y50292D02*
Y56388D01*
Y50292D02*
X370640Y49652D01*
X354750Y138500D02*
X361000D01*
X350898Y134648D02*
X354750Y138500D01*
X350898Y126552D02*
Y134648D01*
X366750Y108484D02*
Y132750D01*
Y108484D02*
X367446Y107788D01*
X366250Y106750D02*
X366408D01*
X367446Y107788D01*
X498440Y140755D02*
Y140822D01*
X501868Y144250D01*
X501935D02*
X502052Y144367D01*
X501868Y144250D02*
X501935D01*
X502052Y144367D02*
Y154128D01*
X116500Y108500D02*
Y123500D01*
X112962Y104962D02*
X116500Y108500D01*
X99398Y104962D02*
X112962D01*
X220550Y280550D02*
X228800D01*
X220500Y280500D02*
X220550Y280550D01*
X704950Y247750D02*
X758798Y301598D01*
X744220Y301464D02*
X746685Y299000D01*
X410972Y103571D02*
Y146472D01*
X400554Y93153D02*
X410972Y103571D01*
Y146472D02*
X431000Y166500D01*
X332551Y93153D02*
X400554D01*
X318426Y107278D02*
X332551Y93153D01*
X402211Y89152D02*
X414972Y101914D01*
X359338Y89152D02*
X402211D01*
X347685Y77500D02*
X359338Y89152D01*
X250072Y62348D02*
X256352D01*
X246170Y66250D02*
X250072Y62348D01*
X239935Y66250D02*
X246170D01*
X223774Y37084D02*
Y53848D01*
Y37084D02*
X247468Y13390D01*
X304706Y316644D02*
X322769D01*
X301368Y313306D02*
X304706Y316644D01*
X294486Y313306D02*
X301368D01*
X171935Y66525D02*
X178816Y73406D01*
X146092Y81068D02*
Y93540D01*
X144564Y79540D02*
X146092Y81068D01*
X117225Y79540D02*
X144564D01*
X327406Y213868D02*
X368808D01*
X322769Y209231D02*
X327406Y213868D01*
X322769Y204470D02*
Y209231D01*
X71962Y299514D02*
X78689D01*
X97448Y328588D02*
Y340735D01*
X97282Y328422D02*
X97448Y328588D01*
X208026Y64516D02*
X210820D01*
X205050Y61540D02*
X208026Y64516D01*
X171935Y56500D02*
Y66525D01*
X158218Y67540D02*
X158242Y67564D01*
X146092Y67540D02*
X158218D01*
X193386Y56548D02*
Y69701D01*
X196550Y72865D01*
X193386Y56548D02*
X193435Y56500D01*
X476052Y226128D02*
Y248102D01*
X465559Y258595D02*
X476052Y248102D01*
X465559Y258595D02*
Y278892D01*
X493050Y261076D02*
X495300Y258826D01*
X576528Y193461D02*
Y225528D01*
X744220Y314960D02*
X746060Y316800D01*
X744220Y301464D02*
Y314960D01*
X746060Y316800D02*
X748796D01*
X497131Y139446D02*
X498440Y140755D01*
X176376Y328776D02*
Y335094D01*
X172212Y324612D02*
X176376Y328776D01*
X172550Y316633D02*
X186376Y330459D01*
Y335094D01*
X153550Y278050D02*
Y287916D01*
X269118Y27868D02*
X281478D01*
X265928Y24678D02*
X269118Y27868D01*
X281478D02*
X284928Y24418D01*
X718734Y159626D02*
X722008D01*
X718768Y140328D02*
X722242D01*
X508552Y165921D02*
X531099Y188468D01*
X508552Y154128D02*
Y165921D01*
X532892Y167386D02*
X535306Y169800D01*
X532892Y154432D02*
Y167386D01*
Y154432D02*
X535940Y151384D01*
X539672D01*
X476252Y79250D02*
X478185Y81183D01*
X472685Y79250D02*
X476252D01*
X484497Y103005D02*
X484632Y102870D01*
X484761Y102999D02*
X485458D01*
X484632Y102870D02*
X484761Y102999D01*
X490474Y91440D02*
X490534Y91500D01*
X326644Y148082D02*
Y164846D01*
X324812Y146250D02*
X326644Y148082D01*
X321250Y146250D02*
X324812D01*
X414972Y101914D02*
Y142037D01*
X439435Y166500D01*
X327354Y82395D02*
X334000Y75750D01*
X327354Y82395D02*
Y86132D01*
X146092Y67540D02*
Y74100D01*
X121666Y112014D02*
X124528Y114876D01*
X121666Y95504D02*
Y112014D01*
Y95504D02*
X123630Y93540D01*
X127092D01*
X124528Y114876D02*
X127100D01*
X247468Y13390D02*
X265902D01*
X321818Y35306D02*
Y39370D01*
X323800Y41352D01*
Y48050D01*
X237490Y48260D02*
X240050Y50820D01*
X216050Y37510D02*
Y49530D01*
X272284Y100858D02*
X275664D01*
X265928Y94502D02*
X272284Y100858D01*
X265928Y36990D02*
Y94502D01*
X452050Y56050D02*
Y65856D01*
X448550Y69356D02*
X452050Y65856D01*
X448550Y69356D02*
Y104884D01*
X469550Y226130D02*
Y248508D01*
X450559Y267499D02*
X469550Y248508D01*
X450559Y267499D02*
Y278892D01*
X372364Y64262D02*
X372618D01*
X381000Y50038D02*
Y56388D01*
X381078D02*
X398780D01*
X370078Y61976D02*
X372364Y64262D01*
X370078Y56388D02*
Y61976D01*
X370640Y37510D02*
Y49652D01*
X270764Y347472D02*
X271157D01*
X279565Y355880D01*
X206050Y37510D02*
Y49200D01*
X380640Y49678D02*
X381000Y50038D01*
X380640Y37510D02*
Y49678D01*
X144435Y138500D02*
Y239000D01*
X771001Y354695D02*
Y358394D01*
X763798Y347492D02*
X771001Y354695D01*
X763798Y342302D02*
Y347492D01*
X547702Y209951D02*
Y227076D01*
X758798Y301598D02*
Y316802D01*
X664817Y247750D02*
X704950D01*
X413258Y258500D02*
X413435Y258323D01*
Y243332D02*
Y258323D01*
X347685Y42750D02*
X357685Y32750D01*
X347685Y42750D02*
Y77500D01*
X303211Y34036D02*
Y38039D01*
X301800Y39450D02*
X303211Y38039D01*
X301800Y39450D02*
Y57550D01*
X284902Y39390D02*
X301860D01*
X300935Y69000D02*
Y79500D01*
Y69000D02*
X301800Y68134D01*
Y57550D02*
Y68134D01*
X174550Y89050D02*
Y96450D01*
X169250Y101750D02*
X174550Y96450D01*
X129176Y101750D02*
X169250D01*
X567250Y280750D02*
X567684D01*
X371000Y346500D02*
Y352500D01*
X366554Y342054D02*
X371000Y346500D01*
X366554Y336212D02*
Y342054D01*
X381000Y343750D02*
Y352500D01*
X664816Y247750D02*
X664817Y247750D01*
X660053Y247750D02*
X664816D01*
X660250Y182500D02*
X687250Y209500D01*
X660053Y247750D02*
X660053Y247750D01*
X555067Y247750D02*
X660053D01*
X555066Y247750D02*
X555067Y247750D01*
X550303Y247750D02*
X555066D01*
X550303Y247750D02*
X550303Y247750D01*
X537295Y247750D02*
X550303D01*
X526935Y237390D02*
X537295Y247750D01*
X321944Y336212D02*
X340554D01*
X302022Y356134D02*
X321944Y336212D01*
X294428Y356134D02*
X302022D01*
X61685Y202750D02*
X62684Y201750D01*
X576528Y225528D02*
X586250Y235250D01*
X571534Y188468D02*
X576528Y193461D01*
X292698Y159102D02*
X305550Y146250D01*
X311250D01*
X321250Y228000D02*
Y237000D01*
X586250Y235250D02*
Y235432D01*
X585435Y236247D02*
X586250Y235432D01*
X333022Y117000D02*
X345121Y104902D01*
X314434Y117000D02*
X333022D01*
X303685Y127750D02*
X314434Y117000D01*
X228800Y291550D02*
Y304700D01*
X189673Y343827D02*
X228800Y304700D01*
X189673Y343827D02*
Y348140D01*
X145434Y18000D02*
X165250D01*
X133185Y30250D02*
Y36000D01*
Y30250D02*
X145434Y18000D01*
X164000Y50250D02*
X172250D01*
X161935Y52315D02*
X164000Y50250D01*
X161935Y52315D02*
Y56500D01*
X174750Y40000D02*
Y47750D01*
X172250Y50250D02*
X174750Y47750D01*
X90676Y277050D02*
X98227Y269500D01*
X103435D01*
X334645Y58192D02*
X337044Y55793D01*
X103800Y180865D02*
Y193550D01*
X87248Y142512D02*
X87798Y141962D01*
X303986Y335306D02*
X313741D01*
X127092Y99666D02*
X129176Y101750D01*
X66840Y304636D02*
X71962Y299514D01*
X473059Y304976D02*
X473137Y305054D01*
X490917Y139446D02*
X495552Y144081D01*
X21520Y202690D02*
X21580Y202750D01*
X51685D01*
X314198Y189992D02*
X314698Y190492D01*
X750010Y357056D02*
Y357404D01*
Y352344D02*
Y357056D01*
X103896Y194666D02*
X104406Y194156D01*
X84300Y277050D02*
X90676D01*
X469552Y139446D02*
Y154128D01*
X750010Y352344D02*
X753798Y348556D01*
Y342302D02*
Y348556D01*
X713500Y140328D02*
X718768D01*
X708702Y135530D02*
X713500Y140328D01*
X708702Y130074D02*
Y135530D01*
X265928Y13390D02*
Y24678D01*
X475434Y112800D02*
X483800D01*
X476052Y123578D02*
Y154128D01*
X737916Y358166D02*
X738300Y358550D01*
X127092Y93540D02*
Y99666D01*
X383801Y194624D02*
Y202752D01*
X326339Y58192D02*
X334645D01*
X323800Y60730D02*
X326339Y58192D01*
X323800Y60730D02*
Y67050D01*
X284928Y13390D02*
Y24418D01*
X476300Y226376D02*
X477302Y227378D01*
X515050Y226126D02*
X515052Y226128D01*
X508550Y226130D02*
X508552Y226128D01*
X103802Y212126D02*
X103896Y212032D01*
Y194666D02*
Y212032D01*
X127092Y67540D02*
Y73842D01*
X227300Y274050D02*
X228800Y275550D01*
X205550Y274050D02*
X227300D01*
X383801Y151952D02*
Y167050D01*
X383800Y167050D02*
X383801Y167050D01*
X366554Y336212D02*
X375216D01*
X377378Y334050D01*
X388301D01*
X520948Y112022D02*
Y122272D01*
X66698Y313742D02*
X70041Y317084D01*
X117186Y330534D02*
Y337694D01*
Y330534D02*
X120086Y327634D01*
X155891D01*
X530948Y112022D02*
X531062Y111908D01*
X144653Y75540D02*
X146092Y74100D01*
X127092Y73842D02*
X128790Y75540D01*
X144653D01*
X294174Y355880D02*
X294428Y356134D01*
X292698Y167652D02*
Y168772D01*
X289550Y170800D02*
X292698Y167652D01*
X172550Y270400D02*
Y278050D01*
X88928Y346550D02*
X97358Y341147D01*
X97448Y340735D01*
X88948Y33011D02*
X102059Y41416D01*
X350722Y228328D02*
X350898Y228152D01*
X350722Y228328D02*
Y239548D01*
X340554Y336212D02*
X347056D01*
X349612Y338768D01*
Y352578D01*
X65624Y310193D02*
X70041Y317084D01*
X65624Y310193D02*
X66840Y304636D01*
X748796Y316800D02*
X748798Y316802D01*
X284902Y39390D02*
X285552Y40040D01*
X117014Y309522D02*
X117186Y309694D01*
X292698Y159102D02*
Y167652D01*
X172550Y306050D02*
Y316633D01*
X322769Y316644D02*
X339986D01*
X340554Y317212D01*
X292948Y211272D02*
X293051Y211374D01*
X495552Y144081D02*
Y154128D01*
X462186Y132080D02*
X469552Y139446D01*
X449007Y132080D02*
X462186D01*
X531049Y111894D02*
X531062Y111908D01*
X489050Y226130D02*
X489052Y226128D01*
X730439Y344972D02*
Y357124D01*
X738313D01*
X750010Y357404D02*
X758633D01*
X98802Y223382D02*
Y229304D01*
Y223382D02*
X103802Y218382D01*
Y212126D02*
Y218382D01*
X228800Y275550D02*
Y280550D01*
X383685Y101268D02*
Y132500D01*
Y101268D02*
X383801Y101152D01*
X120101Y320500D02*
X142185D01*
X117185Y36000D02*
X121685D01*
X108435Y44750D02*
Y70750D01*
Y44750D02*
X117185Y36000D01*
X121685D02*
X133185D01*
X196550Y72865D02*
Y79550D01*
X171935Y56500D02*
X183435D01*
X230050Y56050D02*
Y66134D01*
X229935Y66250D02*
X230050Y66134D01*
X228800Y291550D02*
X233634D01*
X235435Y289750D01*
Y275000D02*
Y289750D01*
X172550Y270400D02*
X174951Y268000D01*
X228435D01*
X235435Y275000D01*
X84300Y287050D02*
X90235D01*
X112707Y309522D01*
X117014D01*
X108435Y70750D02*
X117225Y79540D01*
X482552Y123882D02*
Y154128D01*
Y123882D02*
X483800Y122634D01*
Y112800D02*
Y122634D01*
X208185Y358170D02*
X208215Y358140D01*
X208185Y358170D02*
Y365250D01*
X279565Y355880D02*
X284174D01*
X447935Y115500D02*
X467974D01*
X476052Y123578D01*
X472685Y110050D02*
X475434Y112800D01*
X472685Y90750D02*
Y110050D01*
Y73250D02*
Y79250D01*
Y73250D02*
X480050Y65884D01*
Y56050D02*
Y65884D01*
X740860Y334550D02*
X743550D01*
X730439Y344972D02*
X740860Y334550D01*
X86698Y88920D02*
Y104962D01*
Y88920D02*
X91524Y84094D01*
X99398D01*
X466050Y316200D02*
Y324050D01*
Y316200D02*
X473137Y309113D01*
Y305054D02*
Y309113D01*
X293051Y211374D02*
Y227801D01*
X302250Y237000D01*
X311250D01*
X732250Y49750D02*
Y50574D01*
X730948Y49272D02*
X732250Y50574D01*
X521552Y226128D02*
Y236448D01*
X486050Y305050D02*
X486253Y304848D01*
X508550Y226130D02*
Y238200D01*
X515050Y214800D02*
Y226126D01*
X170877Y348394D02*
X177356D01*
X186376Y339374D01*
Y335094D02*
Y339374D01*
X687250Y209500D02*
Y214750D01*
X707267Y145550D02*
Y169750D01*
Y145550D02*
X710550D01*
X714626Y149626D02*
X718734D01*
X710550Y145550D02*
X714626Y149626D01*
X350722Y239548D02*
X379196D01*
X405185Y213559D01*
Y107000D02*
Y213559D01*
X482552Y213566D02*
Y226128D01*
X495750Y195500D02*
X515050Y214800D01*
X484685Y195500D02*
X495750D01*
X466521Y187960D02*
Y188354D01*
X466852Y188685D01*
X467252Y189084D01*
X495552Y217385D02*
Y226128D01*
X467252Y189084D02*
X495552Y217385D01*
X466598Y197612D02*
X482552Y213566D01*
X467252Y188690D02*
Y189084D01*
X466521Y187960D02*
X467252Y188690D01*
X477500Y183500D02*
X482562Y178438D01*
X477500Y183500D02*
Y190250D01*
X482562Y152400D02*
Y178438D01*
X372364Y183188D02*
X383801Y194624D01*
X372364Y182372D02*
Y183188D01*
X541730Y256820D02*
X556910Y272000D01*
X566935D01*
X567684Y280750D02*
X582978Y265456D01*
X615390D01*
X280066Y183522D02*
X303410D01*
X309880Y189992D01*
X314198D01*
X314698Y190492D02*
Y200398D01*
X318770Y204470D01*
X322769D01*
X321250Y228000D02*
X321310Y228060D01*
Y228854D01*
X639761Y264225D02*
Y279400D01*
Y264225D02*
X650486Y253500D01*
X662435D01*
X517750Y246500D02*
X517870Y246380D01*
X506476Y273726D02*
Y273812D01*
X501050Y268300D02*
X506476Y273726D01*
X507746Y239004D02*
Y246286D01*
Y239004D02*
X508550Y238200D01*
X518414Y239586D02*
Y246380D01*
Y239586D02*
X521552Y236448D01*
X518414Y246380D02*
X526376D01*
X73998Y139462D02*
X74330Y139794D01*
X66802Y157746D02*
X66814Y157734D01*
X67056D01*
X73685Y140439D02*
X74330Y139794D01*
X66802Y157746D02*
X66923Y157867D01*
X736854Y187169D02*
X775185Y225500D01*
X736854Y77978D02*
Y187169D01*
Y77978D02*
X756098Y58734D01*
Y49090D02*
Y58734D01*
X623595Y232500D02*
X695362D01*
X732250Y195612D01*
Y50574D02*
Y195612D01*
X496316Y207010D02*
X502052Y212746D01*
Y226128D01*
X526935Y208923D02*
Y237390D01*
X501021Y192532D02*
X502412D01*
X502574Y192370D01*
X510382D02*
X526935Y208923D01*
X502574Y192370D02*
X510382D01*
X144435Y138500D02*
X148314Y134620D01*
X240050Y50820D02*
Y56050D01*
D14*
X752791Y305816D02*
X753045D01*
X766184Y309066D02*
X786840D01*
X763798Y311452D02*
X766184Y309066D01*
X763798Y311452D02*
Y316802D01*
X753798Y306569D02*
Y316802D01*
X753045Y305816D02*
X753798Y306569D01*
X786840Y294594D02*
X786935Y294500D01*
X786840Y294594D02*
Y309066D01*
X737436Y329552D02*
X746048D01*
X736281Y328396D02*
X737436Y329552D01*
X736281Y327914D02*
Y328396D01*
D16*
X630666Y155032D02*
X663968Y121730D01*
X630666Y155032D02*
Y183941D01*
X663968Y121730D02*
X695230D01*
X698480Y124980D01*
Y129852D01*
X631633Y185034D02*
X631696Y184971D01*
X769051Y324550D02*
X778038D01*
X782538Y320050D01*
X786840D01*
X768798Y342302D02*
X776796D01*
X783616Y335482D01*
X787602D01*
X698480Y129852D02*
X698702Y130074D01*
D20*
X420559Y278892D02*
D03*
X435559D02*
D03*
X450559D02*
D03*
X465559D02*
D03*
X480559D02*
D03*
X684761Y279500D02*
D03*
X669761D02*
D03*
X654761D02*
D03*
X639761D02*
D03*
X624761D02*
D03*
D21*
X547398Y169648D02*
D03*
Y209648D02*
D03*
D22*
X314643Y189992D02*
D03*
X330643D02*
D03*
D23*
X550672Y151384D02*
D03*
X539672D02*
D03*
X536702Y227076D02*
D03*
X547702D02*
D03*
X87802Y229304D02*
D03*
X98802D02*
D03*
X782001Y358394D02*
D03*
X771001D02*
D03*
X370190Y56200D02*
D03*
X381190D02*
D03*
X205050Y56550D02*
D03*
X216050D02*
D03*
X114800Y279800D02*
D03*
X125800D02*
D03*
X158000Y358750D02*
D03*
X147000D02*
D03*
D24*
X787602Y346482D02*
D03*
Y335482D02*
D03*
X190935Y312250D02*
D03*
Y301250D02*
D03*
X786840Y309066D02*
D03*
Y320066D02*
D03*
X228800Y291550D02*
D03*
Y280550D02*
D03*
X445464Y197638D02*
D03*
Y186638D02*
D03*
X697550Y156550D02*
D03*
Y145550D02*
D03*
D25*
X206935Y296750D02*
D03*
Y312750D02*
D03*
X819750Y31470D02*
D03*
X818500Y346430D02*
D03*
D26*
X88928Y346550D02*
D03*
X70041Y317084D02*
D03*
D27*
X84957Y328309D02*
D03*
D28*
X84976Y51252D02*
D03*
D29*
X88948Y33011D02*
D03*
X70060Y62477D02*
D03*
D30*
X828050Y282050D02*
D03*
Y257050D02*
D03*
X21520Y177690D02*
D03*
Y202690D02*
D03*
D31*
X255448Y211272D02*
D03*
X292948D02*
D03*
X255198Y168772D02*
D03*
X292698D02*
D03*
D32*
X826250Y13970D02*
D03*
Y48970D02*
D03*
X825000Y363930D02*
D03*
Y328930D02*
D03*
D33*
X280066Y196388D02*
D03*
X268066D02*
D03*
Y183388D02*
D03*
X280066D02*
D03*
D34*
X274066Y196388D02*
D03*
Y183388D02*
D03*
D35*
X73998Y139462D02*
D03*
X86698D02*
D03*
X99398D02*
D03*
X73998Y104962D02*
D03*
X86698D02*
D03*
X99398D02*
D03*
D37*
X742286Y13614D02*
D03*
Y32614D02*
D03*
X764286Y23114D02*
D03*
X505800Y122300D02*
D03*
Y103300D02*
D03*
X483800Y112800D02*
D03*
X323800Y67050D02*
D03*
Y48050D02*
D03*
X301800Y57550D02*
D03*
X196550Y98550D02*
D03*
Y79550D02*
D03*
X174550Y89050D02*
D03*
D38*
X332769Y204470D02*
D03*
X322769D02*
D03*
X93896Y212032D02*
D03*
X103896D02*
D03*
X321250Y237000D02*
D03*
X311250D02*
D03*
X321250Y146250D02*
D03*
X311250D02*
D03*
X61685Y202750D02*
D03*
X51685D02*
D03*
X766098Y49090D02*
D03*
X756098D02*
D03*
X732250Y49750D02*
D03*
X742250D02*
D03*
X186376Y335094D02*
D03*
X176376D02*
D03*
X472685Y79250D02*
D03*
X462685D02*
D03*
X472685Y90750D02*
D03*
X462685D02*
D03*
X530948Y112022D02*
D03*
X520948D02*
D03*
X530948Y122272D02*
D03*
X520948D02*
D03*
X473137Y305054D02*
D03*
X463137D02*
D03*
X496050Y305050D02*
D03*
X486050D02*
D03*
X127100Y114876D02*
D03*
X137100D02*
D03*
X303211Y34036D02*
D03*
X313211D02*
D03*
X275664Y100858D02*
D03*
X285664D02*
D03*
X230050Y56050D02*
D03*
X240050D02*
D03*
X229935Y66250D02*
D03*
X239935D02*
D03*
X171935Y56500D02*
D03*
X161935D02*
D03*
X183435D02*
D03*
X193435D02*
D03*
X294174Y355880D02*
D03*
X284174D02*
D03*
X708702Y130074D02*
D03*
X698702D02*
D03*
X359612Y352578D02*
D03*
X349612D02*
D03*
X347550Y302050D02*
D03*
X337550D02*
D03*
X371000Y352500D02*
D03*
X381000D02*
D03*
D39*
X103800Y193550D02*
D03*
X84800D02*
D03*
D40*
X780482Y44170D02*
D03*
Y54170D02*
D03*
X518414Y246380D02*
D03*
Y256380D02*
D03*
X507746Y246286D02*
D03*
Y256286D02*
D03*
X170877Y358394D02*
D03*
Y348394D02*
D03*
X750010Y357056D02*
D03*
Y367056D02*
D03*
X738313Y357124D02*
D03*
Y367124D02*
D03*
X205550Y273800D02*
D03*
Y283800D02*
D03*
X189673Y358140D02*
D03*
Y348140D02*
D03*
X448435Y105500D02*
D03*
Y115500D02*
D03*
X317300Y86800D02*
D03*
Y96800D02*
D03*
X121685Y36000D02*
D03*
Y46000D02*
D03*
X133185D02*
D03*
Y36000D02*
D03*
X300935Y89500D02*
D03*
Y79500D02*
D03*
X155891Y337660D02*
D03*
Y327660D02*
D03*
X84300Y287050D02*
D03*
Y277050D02*
D03*
X322769Y316644D02*
D03*
Y326644D02*
D03*
X208215Y358140D02*
D03*
Y348140D02*
D03*
X718734Y159626D02*
D03*
Y149626D02*
D03*
X718768Y130328D02*
D03*
Y140328D02*
D03*
X388301Y334010D02*
D03*
Y324010D02*
D03*
D41*
X153550Y278050D02*
D03*
X163050D02*
D03*
X172550D02*
D03*
Y306050D02*
D03*
X153550D02*
D03*
X117186Y309694D02*
D03*
X126686D02*
D03*
X136186D02*
D03*
Y337694D02*
D03*
X117186D02*
D03*
D42*
X758798Y342302D02*
D03*
X753798D02*
D03*
X748798D02*
D03*
X763798D02*
D03*
X768798D02*
D03*
X758798Y316802D02*
D03*
X763798D02*
D03*
X768798D02*
D03*
X753798D02*
D03*
X748798D02*
D03*
D43*
X771548Y329552D02*
D03*
Y334552D02*
D03*
Y324552D02*
D03*
X746048D02*
D03*
Y334552D02*
D03*
Y329552D02*
D03*
D44*
X146092Y93540D02*
D03*
X136592D02*
D03*
X127092D02*
D03*
X136592Y67540D02*
D03*
X127092D02*
D03*
X146092D02*
D03*
X284902Y13390D02*
D03*
X265902D02*
D03*
X275402D02*
D03*
X265902Y39390D02*
D03*
X275402D02*
D03*
X284902D02*
D03*
D45*
X340554Y336212D02*
D03*
Y326712D02*
D03*
Y317212D02*
D03*
X366554Y326712D02*
D03*
Y317212D02*
D03*
Y336212D02*
D03*
D46*
X463052Y226128D02*
D03*
X469552D02*
D03*
X476052D02*
D03*
X482552D02*
D03*
X489052D02*
D03*
X495552D02*
D03*
X521552D02*
D03*
X515052D02*
D03*
X508552D02*
D03*
X502052D02*
D03*
Y154128D02*
D03*
X508552D02*
D03*
X515052D02*
D03*
X521552D02*
D03*
X495552D02*
D03*
X489052D02*
D03*
X482552D02*
D03*
X476052D02*
D03*
X469552D02*
D03*
X463052D02*
D03*
D47*
X494050Y56050D02*
D03*
X480050D02*
D03*
X466050D02*
D03*
X452050D02*
D03*
X494050Y324050D02*
D03*
X480050D02*
D03*
X466050D02*
D03*
X452050D02*
D03*
D48*
X413512Y243332D02*
D03*
X152146Y255016D02*
D03*
X413512Y189738D02*
D03*
X789198Y19522D02*
D03*
X94690Y315240D02*
D03*
X707267Y169750D02*
D03*
X413512Y216662D02*
D03*
Y162814D02*
D03*
X153685Y154750D02*
D03*
D49*
X275352Y62348D02*
D03*
X256352D02*
D03*
X265852Y84348D02*
D03*
X155750Y40000D02*
D03*
X174750D02*
D03*
X165250Y18000D02*
D03*
X284986Y335306D02*
D03*
X303986D02*
D03*
X294486Y313306D02*
D03*
D50*
X370640Y37510D02*
D03*
X380640D02*
D03*
X206050D02*
D03*
X216050D02*
D03*
X252800Y342800D02*
D03*
X242800D02*
D03*
D51*
X357640Y12260D02*
D03*
X393640D02*
D03*
X193050D02*
D03*
X229050D02*
D03*
X265800Y368050D02*
D03*
X229800D02*
D03*
D92*
X383798Y101152D02*
D03*
X350898Y126552D02*
D03*
X383798Y151952D02*
D03*
X350898Y177352D02*
D03*
X383798Y202752D02*
D03*
X350898Y228152D02*
D03*
X383798Y253552D02*
D03*
X350898Y278952D02*
D03*
D93*
X153550Y306050D02*
Y313134D01*
X198936Y107750D02*
X199436Y107250D01*
X207500D01*
X196550Y105364D02*
X198936Y107750D01*
X549000Y104750D02*
Y114636D01*
X541364Y122272D02*
X549000Y114636D01*
X333250Y222000D02*
Y265850D01*
X333248Y265852D02*
X333250Y265850D01*
X692950Y156550D02*
X697550D01*
X688340Y161160D02*
X692950Y156550D01*
X781239Y358394D02*
X782128Y359283D01*
X738607Y345948D02*
X742182Y342372D01*
X437668Y197638D02*
X445464D01*
X505300Y119050D02*
Y122300D01*
X158014Y351486D02*
Y358750D01*
X330612Y190022D02*
X341280D01*
X275428Y10990D02*
Y22042D01*
X136685Y67216D02*
X136800Y67332D01*
X804185Y340000D02*
Y340036D01*
X125851Y279750D02*
X136189D01*
X125851Y279750D02*
X125851Y279750D01*
X273948Y168772D02*
X273949Y168773D01*
X255198Y168772D02*
X273948D01*
X191801Y154750D02*
X204238Y142312D01*
X153685Y154750D02*
X191801D01*
X393854Y324010D02*
X398220Y328376D01*
X388301Y324010D02*
X393854D01*
X217250Y305750D02*
Y309000D01*
X213500Y312750D02*
X217250Y309000D01*
X206935Y312750D02*
X213500D01*
X185000Y312250D02*
X190935D01*
X182750Y310000D02*
X185000Y312250D01*
X182750Y306750D02*
Y310000D01*
X285664Y96180D02*
Y100858D01*
X281488Y92004D02*
X285664Y96180D01*
X276948Y92004D02*
X281488D01*
X192500Y373000D02*
X201500Y364000D01*
X152435Y373000D02*
X192500D01*
X147014Y367579D02*
X152435Y373000D01*
X337550Y270154D02*
Y302050D01*
X333248Y265852D02*
X337550Y270154D01*
X313156Y96800D02*
X317300D01*
X309098Y100858D02*
X313156Y96800D01*
X284680Y100858D02*
X309098D01*
X426466Y229616D02*
X430530D01*
X413512Y216662D02*
X426466Y229616D01*
X437694Y197612D02*
X437896D01*
X437668Y197638D02*
X437694Y197612D01*
X437642Y186436D02*
Y186634D01*
X437638Y186638D02*
X437642Y186634D01*
X437638Y186638D02*
X445464D01*
X413512Y189738D02*
X421386Y197612D01*
X455676Y79248D02*
X462683D01*
X462685Y79250D01*
Y90750D01*
X333248Y146558D02*
Y179070D01*
X327595Y140905D02*
X333248Y146558D01*
X327595Y128270D02*
Y140905D01*
X121666Y46518D02*
Y52578D01*
Y46518D02*
X121935Y46250D01*
X413435Y175691D02*
X420116Y182372D01*
X413435Y164000D02*
Y175691D01*
X196550Y98550D02*
Y105364D01*
X242800Y328446D02*
X247440Y323806D01*
X242800Y328446D02*
Y342800D01*
X261974D02*
X270002Y334772D01*
X252800Y342800D02*
X261974D01*
X242800D02*
Y364974D01*
X242824Y364998D01*
X284935Y335358D02*
Y347000D01*
X782001Y358394D02*
X785557D01*
X781239D02*
X782001D01*
X550672Y151384D02*
X560070D01*
X536702Y236793D02*
X537399Y237490D01*
X536702Y227076D02*
Y236793D01*
X350900Y280950D02*
X352678Y279172D01*
X742184Y13716D02*
X742286Y13614D01*
X723646Y13716D02*
X742184D01*
X739186Y32640D02*
X742250Y35704D01*
X716280Y119888D02*
X718768Y122376D01*
Y130328D01*
X73998Y86698D02*
Y107462D01*
X73914Y86614D02*
X73998Y86698D01*
X147014Y355105D02*
Y367579D01*
X801064Y322860D02*
X808750Y315174D01*
Y260000D02*
Y315174D01*
Y260000D02*
X811700Y257050D01*
X828050D01*
X730500Y367000D02*
X737748D01*
X737998Y367250D01*
X730500Y367000D02*
Y367599D01*
X737998Y367250D02*
X738219Y367030D01*
X730500Y367599D02*
X730559Y367658D01*
X201500Y351000D02*
Y364000D01*
Y351000D02*
X204360Y348140D01*
X208215D01*
X750010Y367056D02*
X765306D01*
X155750Y40000D02*
Y50750D01*
X154000Y52500D02*
X155750Y50750D01*
X452050Y314615D02*
Y324050D01*
X450435Y313000D02*
X452050Y314615D01*
X359612Y352578D02*
Y357357D01*
X354202Y362767D02*
X359612Y357357D01*
X87802Y236117D02*
X95935Y244250D01*
X99435D01*
X109235Y279800D02*
X114800D01*
X105935Y276500D02*
X109235Y279800D01*
X99685Y276500D02*
X105935D01*
X146185Y49500D02*
Y54250D01*
X359612Y291364D02*
X374598Y276378D01*
X480050Y315706D02*
X482802Y312954D01*
X782128Y362193D02*
X791435Y371500D01*
X284935Y335358D02*
X284986Y335306D01*
X137095Y115378D02*
X137349Y115124D01*
X366554Y310130D02*
X371685Y305000D01*
X366554Y310130D02*
Y317212D01*
X366342Y326500D02*
X366554Y326712D01*
X353435Y326500D02*
X366342D01*
X463137Y299202D02*
Y305054D01*
X459935Y296000D02*
X463137Y299202D01*
X456185Y296000D02*
X459935D01*
X502048Y154128D02*
X502050Y154126D01*
X74611Y193548D02*
X83750D01*
X83776Y193574D01*
X84300Y193050D01*
X499185Y132000D02*
X502685D01*
X498935Y132250D02*
X499185Y132000D01*
X502685D02*
X505800Y128884D01*
X206935Y296750D02*
X215935D01*
X330612Y196565D02*
X332769Y198722D01*
X330612Y190022D02*
Y196565D01*
X459489Y226128D02*
X463052D01*
X445710Y212349D02*
X459489Y226128D01*
X445710Y199712D02*
Y212349D01*
X383800Y263906D02*
Y266120D01*
X379919Y270002D02*
X383800Y266120D01*
Y263906D02*
X383801Y263906D01*
Y255550D02*
Y263906D01*
X361570Y278952D02*
X371791Y268732D01*
X350898Y278952D02*
X361570D01*
X153550Y306050D02*
X154621Y304980D01*
X137095Y115378D02*
Y179832D01*
X137100Y114876D02*
X137349Y115124D01*
X254697Y212024D02*
X255459Y212786D01*
X254697Y212024D02*
X255448Y211272D01*
X337506Y302006D02*
X337550Y302050D01*
X313300Y33050D02*
Y38932D01*
X310577Y41656D02*
X313300Y38932D01*
X738219Y367030D02*
X738313Y367124D01*
X275428Y46172D02*
X277536Y48280D01*
X275428Y36990D02*
Y46172D01*
X276548Y48280D02*
X277536D01*
X276290Y48022D02*
X276548Y48280D01*
X275428Y22042D02*
X275504Y22118D01*
X505300Y122300D02*
X505800D01*
X775462Y44170D02*
X780482D01*
X770543Y49090D02*
X775462Y44170D01*
X766098Y49090D02*
X770543D01*
X504050Y123550D02*
X505300Y122300D01*
Y119050D02*
X505550Y119300D01*
X480050Y315706D02*
Y324050D01*
X780482Y54170D02*
X809430D01*
X814631Y48970D01*
X826250D01*
X780482Y29232D02*
Y44170D01*
X476052Y226128D02*
X476300Y226376D01*
X21300Y177470D02*
X21520Y177690D01*
X136592Y67540D02*
X136800Y67332D01*
X84300Y193050D02*
X84800Y193550D01*
X808130Y13970D02*
X826250D01*
X808050Y14050D02*
X808130Y13970D01*
X136592Y93540D02*
X137100Y94048D01*
X347550Y296314D02*
X347550Y302050D01*
X347550Y296314D02*
X352500Y291364D01*
X761588Y19778D02*
X764950Y23140D01*
X774390D01*
X780482Y29232D01*
X136592Y93540D02*
X136600Y93532D01*
Y85370D02*
Y93532D01*
X163050Y265964D02*
Y278050D01*
X47954Y183414D02*
X48138D01*
X21520Y177690D02*
X42414D01*
X48138Y183414D01*
X70060Y62477D02*
X70168Y62972D01*
X352500Y291364D02*
X359612D01*
X398220Y328376D02*
Y333528D01*
X815291Y328930D02*
X825000D01*
X791682Y320050D02*
X794460Y317272D01*
X786840Y320050D02*
X791682D01*
X742182Y342372D02*
X748687D01*
X332769Y198722D02*
Y204470D01*
X322837Y326712D02*
X340554D01*
X322769Y326644D02*
X322837Y326712D01*
X313749Y326644D02*
X322769D01*
X247440Y323806D02*
X310911D01*
X313749Y326644D01*
X530948Y122272D02*
X541364D01*
X136186Y337694D02*
Y344277D01*
X147014Y355105D01*
X738607Y345948D02*
X738821D01*
X785557Y358394D02*
X787602Y356348D01*
Y346482D02*
Y356348D01*
X70168Y62972D02*
X83550Y71550D01*
X255435Y212810D02*
X255459Y212786D01*
X255435Y212810D02*
Y224500D01*
X85935Y218250D02*
X91435D01*
X93896Y215788D01*
Y212032D02*
Y215788D01*
X197435Y279750D02*
X201485Y283800D01*
X205550D01*
X182935Y281750D02*
X190935Y289750D01*
Y301250D01*
X125800Y279800D02*
X125851Y279750D01*
X505800Y122300D02*
Y128884D01*
X782128Y359283D02*
Y362193D01*
X121685Y46000D02*
X121935Y46250D01*
X136685Y56000D02*
Y67216D01*
X133185Y46000D02*
X142685D01*
X146185Y49500D01*
X87802Y229304D02*
Y236117D01*
X290685Y89500D02*
X300935D01*
X288935Y87750D02*
X290685Y89500D01*
X794435Y317246D02*
X794460Y317272D01*
X794435Y299000D02*
Y317246D01*
X155891Y337660D02*
Y341794D01*
X153185Y344500D02*
X155891Y341794D01*
X170877Y358394D02*
Y365692D01*
X170935Y365750D01*
X189673Y358140D02*
X189685Y358152D01*
Y365500D01*
X149685Y317000D02*
X153550Y313134D01*
X125800Y279800D02*
Y283865D01*
X136186Y294251D01*
Y309694D01*
X494050Y56050D02*
X494185Y56184D01*
Y75500D01*
X787602Y335482D02*
X793917D01*
X797185Y338750D02*
Y352000D01*
X793917Y335482D02*
X797185Y338750D01*
X804185Y340036D02*
X815291Y328930D01*
X137100Y107584D02*
Y114876D01*
X828050Y282050D02*
Y292615D01*
X742250Y35704D02*
Y49750D01*
X208469Y340031D02*
Y348140D01*
Y340031D02*
X246494Y302006D01*
X337506D01*
X160172Y350500D02*
X160209Y350537D01*
X159000Y350500D02*
X160172D01*
X158014Y351486D02*
X159000Y350500D01*
X124206Y299720D02*
X126686Y302200D01*
Y309694D01*
X445710Y186716D02*
X449554D01*
X463052Y173218D01*
Y154128D02*
Y173218D01*
X280066Y196522D02*
X295476D01*
X301498Y190500D01*
X507746Y256286D02*
X518320D01*
X518414Y256380D01*
X507238Y256794D02*
Y264668D01*
Y256794D02*
X507746Y256286D01*
X286766Y68604D02*
Y71120D01*
X275352Y62348D02*
X280511D01*
X286766Y68604D01*
X99398Y139462D02*
Y155536D01*
X87630Y167304D02*
X99398Y155536D01*
D94*
X26520Y156440D02*
D03*
Y223940D02*
D03*
D95*
X30520Y133815D02*
D03*
D96*
X30520Y246315D02*
D03*
D97*
X480559Y278892D02*
D03*
X465559D02*
D03*
X450559D02*
D03*
X435559D02*
D03*
X420559D02*
D03*
X624761Y279500D02*
D03*
X639761D02*
D03*
X654761D02*
D03*
X669761D02*
D03*
X684761D02*
D03*
D98*
X176238Y142312D02*
D03*
X204238D02*
D03*
X176238Y167712D02*
D03*
X204238D02*
D03*
Y237712D02*
D03*
X176238D02*
D03*
X204238Y212312D02*
D03*
X176238D02*
D03*
D99*
X789700Y278500D02*
D03*
X760000D02*
D03*
X789700Y239500D02*
D03*
X760000D02*
D03*
D100*
X274040Y232010D02*
D03*
Y148010D02*
D03*
D101*
X280697Y269272D02*
D03*
X261698D02*
D03*
D102*
X791948Y127572D02*
D03*
Y83572D02*
D03*
D103*
X643000Y168250D02*
D03*
X642500Y159000D02*
D03*
X614250Y141500D02*
D03*
X688000Y140000D02*
D03*
X686000Y127750D02*
D03*
X649750Y155250D02*
D03*
X636000Y196250D02*
D03*
X621000Y153750D02*
D03*
X626364Y190250D02*
D03*
X630666Y183941D02*
D03*
X620750Y177000D02*
D03*
X606500Y177750D02*
D03*
X600500Y165750D02*
D03*
X588250Y164500D02*
D03*
X582463Y197259D02*
D03*
X567500Y166250D02*
D03*
X655320Y193548D02*
D03*
X667512Y107188D02*
D03*
X207500Y107250D02*
D03*
X661250Y210000D02*
D03*
X684250Y253750D02*
D03*
X128000Y235000D02*
D03*
X531049Y104648D02*
D03*
X606500Y141250D02*
D03*
X565000Y158500D02*
D03*
X614250Y203250D02*
D03*
X607250Y196250D02*
D03*
X588250Y205250D02*
D03*
X567403Y203241D02*
D03*
X563278Y196760D02*
D03*
X570778Y196010D02*
D03*
X333250Y222000D02*
D03*
X351190Y188122D02*
D03*
X721614Y224536D02*
D03*
X738500Y228000D02*
D03*
X735750Y209000D02*
D03*
X723750Y170000D02*
D03*
X804185Y340000D02*
D03*
X135750Y269500D02*
D03*
X136189Y279750D02*
D03*
X740286Y294764D02*
D03*
X647185Y226750D02*
D03*
X459250Y106000D02*
D03*
X230750Y105500D02*
D03*
X253000Y90500D02*
D03*
X273949Y168773D02*
D03*
X166370Y131826D02*
D03*
X309750Y90000D02*
D03*
X73750Y202750D02*
D03*
X81788Y161290D02*
D03*
X73685Y161712D02*
D03*
X87630Y167304D02*
D03*
X217250Y305750D02*
D03*
X182750Y306750D02*
D03*
X366750Y132750D02*
D03*
X361000Y138500D02*
D03*
X366250Y106750D02*
D03*
X340000Y139750D02*
D03*
X504250Y138500D02*
D03*
X116500Y123500D02*
D03*
X111500Y129500D02*
D03*
X220500Y280500D02*
D03*
X215935Y296750D02*
D03*
X746492Y265536D02*
D03*
X746685Y299000D02*
D03*
X178816Y73406D02*
D03*
X526288Y133096D02*
D03*
X426974Y219964D02*
D03*
X430530Y229616D02*
D03*
X368808Y213868D02*
D03*
X437896Y197612D02*
D03*
X437642Y186436D02*
D03*
X78689Y299514D02*
D03*
X97282Y328422D02*
D03*
X210820Y64516D02*
D03*
X158242Y67564D02*
D03*
X627685Y198000D02*
D03*
X421386Y197612D02*
D03*
X172212Y324612D02*
D03*
X455676Y79248D02*
D03*
X484632Y102870D02*
D03*
X490474Y91440D02*
D03*
X326644Y164846D02*
D03*
X333248Y179070D02*
D03*
X121666Y52578D02*
D03*
X239776Y36576D02*
D03*
X321818Y35306D02*
D03*
X237490Y48260D02*
D03*
X372618Y64262D02*
D03*
X359664Y56388D02*
D03*
X398780Y38100D02*
D03*
Y56388D02*
D03*
X270764Y347472D02*
D03*
X270002Y334772D02*
D03*
X242824Y364998D02*
D03*
X284935Y347000D02*
D03*
X110998Y218440D02*
D03*
X645668Y93472D02*
D03*
X585470D02*
D03*
X236685Y203750D02*
D03*
X688340Y161160D02*
D03*
X560070Y151384D02*
D03*
X342138Y262636D02*
D03*
X594614Y132588D02*
D03*
X625029Y134112D02*
D03*
X632716Y133006D02*
D03*
X602169Y134620D02*
D03*
X148314Y134620D02*
D03*
X144435Y239000D02*
D03*
X723646Y13716D02*
D03*
Y32258D02*
D03*
X689864Y238760D02*
D03*
X681228Y239014D02*
D03*
X752791Y305816D02*
D03*
X688086Y93472D02*
D03*
X723646Y86868D02*
D03*
X716534Y93472D02*
D03*
X716280Y119888D02*
D03*
X615442Y93472D02*
D03*
X73914Y86614D02*
D03*
X413258Y258500D02*
D03*
X716250Y189000D02*
D03*
X398935Y81750D02*
D03*
X356000Y106750D02*
D03*
X796750Y31500D02*
D03*
X334000Y75750D02*
D03*
X567250Y280750D02*
D03*
X605500Y277500D02*
D03*
X597154Y140970D02*
D03*
X549000Y104750D02*
D03*
X381000Y343750D02*
D03*
X730500Y367000D02*
D03*
X765306Y367056D02*
D03*
X586250Y235250D02*
D03*
X575750D02*
D03*
X603000Y235500D02*
D03*
X660250Y182500D02*
D03*
X154000Y52500D02*
D03*
X450435Y313000D02*
D03*
X354202Y362767D02*
D03*
X99435Y244250D02*
D03*
X99685Y276500D02*
D03*
X103435Y269500D02*
D03*
X76935Y239750D02*
D03*
X357685Y32750D02*
D03*
X585685Y132250D02*
D03*
X655435Y226500D02*
D03*
X742250Y252500D02*
D03*
X313741Y335306D02*
D03*
X143435Y128500D02*
D03*
X163185Y237500D02*
D03*
X157685Y203500D02*
D03*
X170435Y197500D02*
D03*
X392513Y289078D02*
D03*
X393935Y305000D02*
D03*
X353435Y326500D02*
D03*
X615390Y265456D02*
D03*
X566935Y272000D02*
D03*
X456185Y296000D02*
D03*
X303685Y127750D02*
D03*
X346935Y85500D02*
D03*
X74611Y193548D02*
D03*
X498935Y132250D02*
D03*
X490917Y132334D02*
D03*
X439435Y166500D02*
D03*
X379919Y270002D02*
D03*
X371791Y268732D02*
D03*
X327595Y128270D02*
D03*
X441935Y93250D02*
D03*
X137095Y179832D02*
D03*
X163003Y266954D02*
D03*
X355789Y265176D02*
D03*
X335215Y104648D02*
D03*
X310577Y41656D02*
D03*
X541730Y256820D02*
D03*
X277536Y48280D02*
D03*
X275504Y22118D02*
D03*
X146185Y54250D02*
D03*
X270000Y316750D02*
D03*
X71322Y41428D02*
D03*
X71576Y337592D02*
D03*
X219198Y145022D02*
D03*
X312863Y309118D02*
D03*
X374598Y276378D02*
D03*
X350722Y239548D02*
D03*
X808130Y13970D02*
D03*
X383800Y167050D02*
D03*
X213800Y74550D02*
D03*
X223550Y79550D02*
D03*
X482802Y312954D02*
D03*
X552685Y253500D02*
D03*
X136600Y85370D02*
D03*
X391935Y371500D02*
D03*
X398935Y349750D02*
D03*
X139381Y368300D02*
D03*
X67935Y266750D02*
D03*
X52935Y129250D02*
D03*
X823685Y226750D02*
D03*
X774889Y215900D02*
D03*
X840185Y358250D02*
D03*
X118685Y203500D02*
D03*
X103185Y251000D02*
D03*
X217185Y218000D02*
D03*
X217935Y237500D02*
D03*
X244000Y141750D02*
D03*
X114185Y58250D02*
D03*
X254250Y150000D02*
D03*
X808935Y239250D02*
D03*
X799935Y371250D02*
D03*
X217198Y133772D02*
D03*
X67685Y288250D02*
D03*
X47954Y183414D02*
D03*
X816935Y269500D02*
D03*
X398220Y333528D02*
D03*
X327354Y86132D02*
D03*
X808430Y326416D02*
D03*
X801064Y322860D02*
D03*
X765250Y300254D02*
D03*
X59436Y156718D02*
D03*
X55185Y250500D02*
D03*
X337044Y55793D02*
D03*
X428935Y106250D02*
D03*
X398969Y69342D02*
D03*
X398780Y47752D02*
D03*
X345121Y104902D02*
D03*
X375250Y169750D02*
D03*
X247935Y186500D02*
D03*
X242000Y240250D02*
D03*
X309185Y134000D02*
D03*
X309815Y285242D02*
D03*
X325935Y291000D02*
D03*
X103185Y285250D02*
D03*
X136935Y203750D02*
D03*
X99935Y66500D02*
D03*
X253185Y279250D02*
D03*
X845685Y238250D02*
D03*
X146493Y336042D02*
D03*
X75627Y247904D02*
D03*
X288685Y235000D02*
D03*
X449007Y132080D02*
D03*
X518603Y99314D02*
D03*
X429957Y132588D02*
D03*
X313625Y226568D02*
D03*
X537399Y237490D02*
D03*
X738821Y345948D02*
D03*
X730439Y357124D02*
D03*
X758633Y357378D02*
D03*
X83550Y71550D02*
D03*
X102185Y41500D02*
D03*
X255435Y224500D02*
D03*
X85935Y218250D02*
D03*
X197435Y279750D02*
D03*
X182935Y281750D02*
D03*
X366000Y144250D02*
D03*
X551935Y286500D02*
D03*
X383685Y132500D02*
D03*
X570185Y93250D02*
D03*
X356185Y302750D02*
D03*
X142185Y320500D02*
D03*
X791435Y371500D02*
D03*
X117435Y87750D02*
D03*
X136685Y56000D02*
D03*
X234685Y246750D02*
D03*
X371685Y305000D02*
D03*
X276948Y92004D02*
D03*
X288935Y87750D02*
D03*
X405185Y107000D02*
D03*
X594435Y235500D02*
D03*
X838935Y301500D02*
D03*
X845935Y315000D02*
D03*
X775185Y225500D02*
D03*
X513685Y187250D02*
D03*
X129185Y179750D02*
D03*
X61000Y167000D02*
D03*
X794435Y299000D02*
D03*
X786935Y294500D02*
D03*
X418435Y93250D02*
D03*
X137685Y8750D02*
D03*
X169672Y262890D02*
D03*
X363185Y258500D02*
D03*
X388112Y239014D02*
D03*
X217685Y209750D02*
D03*
X153185Y344500D02*
D03*
X208185Y365250D02*
D03*
X170935Y365750D02*
D03*
X189685Y365500D02*
D03*
X149685Y317000D02*
D03*
X623685Y232500D02*
D03*
X618185Y227250D02*
D03*
X662435Y253500D02*
D03*
X463739Y68834D02*
D03*
X494185Y75500D02*
D03*
X661435Y115750D02*
D03*
X109685Y33250D02*
D03*
X797185Y352000D02*
D03*
X137100Y107584D02*
D03*
X736281Y327914D02*
D03*
X732217Y334518D02*
D03*
X828050Y292615D02*
D03*
X99398Y84094D02*
D03*
X541500Y286500D02*
D03*
X484500Y186000D02*
D03*
X512750Y178250D02*
D03*
X506750Y173000D02*
D03*
X326000Y262750D02*
D03*
X507238Y264668D02*
D03*
X431000Y166500D02*
D03*
X159000Y350500D02*
D03*
X687250Y214750D02*
D03*
X661924Y140716D02*
D03*
X755396Y193548D02*
D03*
X124206Y299720D02*
D03*
X484685Y195500D02*
D03*
X477500Y190250D02*
D03*
X466598Y197612D02*
D03*
X467252Y189084D02*
D03*
X471424Y182372D02*
D03*
X420116D02*
D03*
X372364D02*
D03*
X341280Y190022D02*
D03*
X310685Y165500D02*
D03*
X313944Y212090D02*
D03*
X301498Y190500D02*
D03*
X321310Y228854D02*
D03*
X527304Y246380D02*
D03*
X506476Y273812D02*
D03*
Y281940D02*
D03*
X495300Y258826D02*
D03*
X257302Y40894D02*
D03*
X286258Y55118D02*
D03*
X286766Y71120D02*
D03*
X292608Y80264D02*
D03*
X67056Y157734D02*
D03*
X292490Y48142D02*
D03*
X714250Y205250D02*
D03*
X496316Y207010D02*
D03*
X508000Y198120D02*
D03*
X502412Y192532D02*
D03*
M02*
