G04*
G04 #@! TF.GenerationSoftware,Altium Limited,Altium Designer,18.0.9 (584)*
G04*
G04 Layer_Color=32896*
%FSLAX44Y44*%
%MOMM*%
G71*
G01*
G75*
%ADD10C,0.1000*%
%ADD11C,0.2000*%
%ADD14C,0.2500*%
%ADD15C,0.4000*%
%ADD16C,0.2540*%
%ADD93C,0.3000*%
%ADD132C,0.1500*%
%ADD133C,0.0000*%
%ADD134R,0.7000X0.2000*%
%ADD135R,0.4128X1.3000*%
G36*
X271000Y136500D02*
X274250Y135500D01*
X276250Y134000D01*
X279000Y131250D01*
Y123750D01*
X274000Y118750D01*
X266750D01*
X262000Y123500D01*
Y131250D01*
X267250Y136500D01*
X271000D01*
D02*
G37*
G36*
X271500Y262000D02*
X274750Y261000D01*
X276750Y259500D01*
X279500Y256750D01*
Y249250D01*
X274500Y244250D01*
X267250D01*
X262500Y249000D01*
Y256750D01*
X267750Y262000D01*
X271500D01*
D02*
G37*
D10*
X169156Y158610D02*
G03*
X169201Y151723I7022J-3398D01*
G01*
X182890Y151235D02*
G03*
X182998Y159000I-6711J3977D01*
G01*
X182890Y221235D02*
G03*
X182998Y229000I-6711J3977D01*
G01*
X169156Y228610D02*
G03*
X169201Y221723I7022J-3398D01*
G01*
X414500Y261750D02*
X420750D01*
Y265750D02*
X421268Y263818D01*
X434982D02*
X435500Y265750D01*
X420750Y261750D02*
Y265750D01*
X435500Y262000D02*
Y265750D01*
Y262000D02*
X441750D01*
X747028Y260720D02*
Y296280D01*
X802418Y260720D02*
Y296280D01*
X876078Y260720D02*
Y296026D01*
X875824Y296280D02*
X876078Y296026D01*
X708438Y296280D02*
X875824D01*
X708438Y260720D02*
X876078D01*
X708438D02*
Y296280D01*
X747028Y221720D02*
Y257280D01*
X802418Y221720D02*
Y257280D01*
X876078Y221720D02*
Y257026D01*
X875824Y257280D02*
X876078Y257026D01*
X708438Y257280D02*
X875824D01*
X708438Y221720D02*
X876078D01*
X708438D02*
Y257280D01*
X610778Y94528D02*
Y99528D01*
X619468Y94808D02*
Y99808D01*
X518550Y193050D02*
X523550D01*
X588500Y268000D02*
Y273000D01*
X704750Y192500D02*
X709750D01*
X693250D02*
X698250D01*
X104258Y256600D02*
Y264100D01*
X684184Y94782D02*
Y99782D01*
X145348Y108340D02*
X152848D01*
X732000Y205750D02*
X739500D01*
X825685Y20500D02*
X830685D01*
X709750Y196000D02*
Y201000D01*
X736250Y158400D02*
X743250D01*
X736250Y147400D02*
X743250D01*
Y158400D01*
X736250Y147400D02*
Y158400D01*
X718116Y97342D02*
X734070D01*
X718068Y114840D02*
X734023D01*
X318888Y268030D02*
Y275530D01*
X379230Y281828D02*
X386730D01*
X492546Y290562D02*
X497546D01*
X457001Y264748D02*
X458001Y265748D01*
X460000D01*
X461000Y264748D01*
Y260750D01*
X460000Y259750D01*
X458001D01*
X457001Y260750D01*
Y262749D01*
X459001D01*
X455002Y259750D02*
Y265748D01*
X451003Y259750D01*
Y265748D01*
X449004D02*
Y259750D01*
X446005D01*
X445005Y260750D01*
Y264748D01*
X446005Y265748D01*
X449004D01*
X411250Y265248D02*
Y261249D01*
X409251Y259250D01*
X407251Y261249D01*
Y265248D01*
X401253Y264248D02*
X402253Y265248D01*
X404252D01*
X405252Y264248D01*
Y260250D01*
X404252Y259250D01*
X402253D01*
X401253Y260250D01*
X395255Y264248D02*
X396255Y265248D01*
X398254D01*
X399254Y264248D01*
Y260250D01*
X398254Y259250D01*
X396255D01*
X395255Y260250D01*
X699164Y268478D02*
X695165D01*
X693166Y270477D01*
X695165Y272477D01*
X699164D01*
X698164Y278475D02*
X699164Y277475D01*
Y275476D01*
X698164Y274476D01*
X694166D01*
X693166Y275476D01*
Y277475D01*
X694166Y278475D01*
X698164Y284473D02*
X699164Y283473D01*
Y281474D01*
X698164Y280474D01*
X694166D01*
X693166Y281474D01*
Y283473D01*
X694166Y284473D01*
X615998Y272499D02*
X616998Y271499D01*
Y269500D01*
X615998Y268500D01*
X612000D01*
X611000Y269500D01*
Y271499D01*
X612000Y272499D01*
X613999D01*
Y270499D01*
X611000Y274498D02*
X616998D01*
X611000Y278497D01*
X616998D01*
Y280496D02*
X611000D01*
Y283495D01*
X612000Y284495D01*
X615998D01*
X616998Y283495D01*
Y280496D01*
X848001Y292748D02*
X852000D01*
Y286750D01*
X848001D01*
X852000Y289749D02*
X850001D01*
X846002Y292748D02*
X842003Y286750D01*
Y292748D02*
X846002Y286750D01*
X840004Y292748D02*
X836005D01*
X838005D01*
Y286750D01*
X831007D02*
Y292748D01*
X834006Y289749D01*
X830007D01*
X847501Y253998D02*
X851500D01*
Y248000D01*
X847501D01*
X851500Y250999D02*
X849501D01*
X845502Y253998D02*
X841503Y248000D01*
Y253998D02*
X845502Y248000D01*
X839504Y253998D02*
X835505D01*
X837505D01*
Y248000D01*
X829507D02*
X833506D01*
X829507Y251999D01*
Y252998D01*
X830507Y253998D01*
X832506D01*
X833506Y252998D01*
X578169Y99232D02*
X579169Y100232D01*
X581168D01*
X582168Y99232D01*
Y95234D01*
X581168Y94234D01*
X579169D01*
X578169Y95234D01*
X576170Y94234D02*
X574171D01*
X575170D01*
Y100232D01*
X576170Y99232D01*
X651829Y99994D02*
X652829Y100994D01*
X654828D01*
X655828Y99994D01*
Y95996D01*
X654828Y94996D01*
X652829D01*
X651829Y95996D01*
X645831Y94996D02*
X649830D01*
X645831Y98995D01*
Y99994D01*
X646831Y100994D01*
X648830D01*
X649830Y99994D01*
X507933Y181748D02*
X508933Y180749D01*
Y178749D01*
X507933Y177750D01*
X503934D01*
X502935Y178749D01*
Y180749D01*
X503934Y181748D01*
X507933Y183748D02*
X508933Y184747D01*
Y186747D01*
X507933Y187746D01*
X506933D01*
X505934Y186747D01*
Y185747D01*
Y186747D01*
X504934Y187746D01*
X503934D01*
X502935Y186747D01*
Y184747D01*
X503934Y183748D01*
X599168Y281165D02*
X600001Y281998D01*
X601667D01*
X602500Y281165D01*
Y277833D01*
X601667Y277000D01*
X600001D01*
X599168Y277833D01*
X595002Y277000D02*
Y281998D01*
X597502Y279499D01*
X594169D01*
X709222Y163670D02*
X710222Y162671D01*
Y160671D01*
X709222Y159672D01*
X705223D01*
X704224Y160671D01*
Y162671D01*
X705223Y163670D01*
Y165670D02*
X704224Y166669D01*
Y168669D01*
X705223Y169668D01*
X709222D01*
X710222Y168669D01*
Y166669D01*
X709222Y165670D01*
X708223D01*
X707223Y166669D01*
Y169668D01*
X697446Y158413D02*
X698446Y157413D01*
Y155414D01*
X697446Y154414D01*
X693448D01*
X692448Y155414D01*
Y157413D01*
X693448Y158413D01*
X692448Y160412D02*
Y162411D01*
Y161412D01*
X698446D01*
X697446Y160412D01*
Y165410D02*
X698446Y166410D01*
Y168409D01*
X697446Y169409D01*
X693448D01*
X692448Y168409D01*
Y166410D01*
X693448Y165410D01*
X697446D01*
X121731Y273222D02*
X122731Y274222D01*
X124730D01*
X125730Y273222D01*
Y269224D01*
X124730Y268224D01*
X122731D01*
X121731Y269224D01*
X119732Y268224D02*
X117733D01*
X118732D01*
Y274222D01*
X119732Y273222D01*
X114734Y268224D02*
X112734D01*
X113734D01*
Y274222D01*
X114734Y273222D01*
X698311Y101518D02*
X699311Y102518D01*
X701310D01*
X702310Y101518D01*
Y97520D01*
X701310Y96520D01*
X699311D01*
X698311Y97520D01*
X696312Y96520D02*
X694313D01*
X695312D01*
Y102518D01*
X696312Y101518D01*
X687315Y96520D02*
X691314D01*
X687315Y100519D01*
Y101518D01*
X688315Y102518D01*
X690314D01*
X691314Y101518D01*
X151302Y66483D02*
X152302Y65483D01*
Y63484D01*
X151302Y62484D01*
X147304D01*
X146304Y63484D01*
Y65483D01*
X147304Y66483D01*
X146304Y68482D02*
Y70481D01*
Y69482D01*
X152302D01*
X151302Y68482D01*
Y73480D02*
X152302Y74480D01*
Y76480D01*
X151302Y77479D01*
X150303D01*
X149303Y76480D01*
Y75480D01*
Y76480D01*
X148303Y77479D01*
X147304D01*
X146304Y76480D01*
Y74480D01*
X147304Y73480D01*
X726934Y180373D02*
X727934Y179373D01*
Y177374D01*
X726934Y176374D01*
X722936D01*
X721936Y177374D01*
Y179373D01*
X722936Y180373D01*
X721936Y182372D02*
Y184371D01*
Y183372D01*
X727934D01*
X726934Y182372D01*
X721936Y190369D02*
X727934D01*
X724935Y187370D01*
Y191369D01*
X839433Y28498D02*
X840433Y27499D01*
Y25499D01*
X839433Y24500D01*
X835434D01*
X834435Y25499D01*
Y27499D01*
X835434Y28498D01*
X834435Y30498D02*
Y32497D01*
Y31497D01*
X840433D01*
X839433Y30498D01*
X835434Y35496D02*
X834435Y36496D01*
Y38495D01*
X835434Y39495D01*
X839433D01*
X840433Y38495D01*
Y36496D01*
X839433Y35496D01*
X838433D01*
X837434Y36496D01*
Y39495D01*
X723835Y200332D02*
X724751Y201248D01*
X726584D01*
X727500Y200332D01*
Y196666D01*
X726584Y195750D01*
X724751D01*
X723835Y196666D01*
X722002Y200332D02*
X721085Y201248D01*
X719253D01*
X718336Y200332D01*
Y199415D01*
X719253Y198499D01*
X720169D01*
X719253D01*
X718336Y197583D01*
Y196666D01*
X719253Y195750D01*
X721085D01*
X722002Y196666D01*
X716504Y200332D02*
X715587Y201248D01*
X713755D01*
X712838Y200332D01*
Y196666D01*
X713755Y195750D01*
X715587D01*
X716504Y196666D01*
Y200332D01*
X742852Y117856D02*
X736854D01*
Y120855D01*
X737854Y121855D01*
X741852D01*
X742852Y120855D01*
Y117856D01*
X736854Y123854D02*
Y125853D01*
Y124854D01*
X742852D01*
X741852Y123854D01*
X736854Y128852D02*
Y130852D01*
Y129852D01*
X742852D01*
X741852Y128852D01*
X758092Y170623D02*
Y166624D01*
X755093D01*
Y168623D01*
Y166624D01*
X752094D01*
Y172622D02*
Y174621D01*
Y173622D01*
X758092D01*
X757092Y172622D01*
X611334Y292998D02*
X613167D01*
X612251D01*
Y288416D01*
X613167Y287500D01*
X614084D01*
X615000Y288416D01*
X605836Y287500D02*
X609502D01*
X605836Y291166D01*
Y292082D01*
X606753Y292998D01*
X608585D01*
X609502Y292082D01*
X711748Y124000D02*
X705750D01*
Y127999D01*
Y129998D02*
Y131997D01*
Y130998D01*
X711748D01*
X710748Y129998D01*
X741978Y67532D02*
X735980D01*
Y71531D01*
Y77529D02*
Y73530D01*
X739979Y77529D01*
X740978D01*
X741978Y76529D01*
Y74530D01*
X740978Y73530D01*
X38184Y211998D02*
X42183D01*
X43183Y210999D01*
Y208999D01*
X42183Y208000D01*
X38184D01*
X37185Y208999D01*
Y210999D01*
X39184Y209999D02*
X37185Y211998D01*
Y210999D02*
X38184Y211998D01*
X37185Y213998D02*
Y215997D01*
Y214997D01*
X43183D01*
X42183Y213998D01*
X824186Y347749D02*
Y351748D01*
X825186Y352748D01*
X827185D01*
X828185Y351748D01*
Y347749D01*
X827185Y346750D01*
X825186D01*
X826185Y348749D02*
X824186Y346750D01*
X825186D02*
X824186Y347749D01*
X818188Y346750D02*
X822187D01*
X818188Y350748D01*
Y351748D01*
X819188Y352748D01*
X821187D01*
X822187Y351748D01*
X92628Y154366D02*
X96627D01*
X97627Y153367D01*
Y151367D01*
X96627Y150368D01*
X92628D01*
X91629Y151367D01*
Y153367D01*
X93628Y152367D02*
X91629Y154366D01*
Y153367D02*
X92628Y154366D01*
X91629Y159365D02*
X97627D01*
X94628Y156366D01*
Y160364D01*
X72435Y253000D02*
X78433D01*
Y255999D01*
X77433Y256998D01*
X75434D01*
X74434Y255999D01*
Y253000D01*
Y254999D02*
X72435Y256998D01*
Y258998D02*
Y260997D01*
Y259997D01*
X78433D01*
X77433Y258998D01*
X48435Y234750D02*
Y240748D01*
X45436D01*
X44436Y239748D01*
Y237749D01*
X45436Y236749D01*
X48435D01*
X46435D02*
X44436Y234750D01*
X42437Y239748D02*
X41437Y240748D01*
X39438D01*
X38438Y239748D01*
Y238748D01*
X39438Y237749D01*
X40437D01*
X39438D01*
X38438Y236749D01*
Y235749D01*
X39438Y234750D01*
X41437D01*
X42437Y235749D01*
X780935Y330250D02*
Y336248D01*
X777936D01*
X776936Y335248D01*
Y333249D01*
X777936Y332249D01*
X780935D01*
X778935D02*
X776936Y330250D01*
X771938D02*
Y336248D01*
X774937Y333249D01*
X770938D01*
X781435Y309500D02*
Y315498D01*
X778436D01*
X777436Y314498D01*
Y312499D01*
X778436Y311499D01*
X781435D01*
X779435D02*
X777436Y309500D01*
X771438Y315498D02*
X773437Y314498D01*
X775437Y312499D01*
Y310499D01*
X774437Y309500D01*
X772438D01*
X771438Y310499D01*
Y311499D01*
X772438Y312499D01*
X775437D01*
X721000Y321500D02*
X726498D01*
Y324249D01*
X725582Y325165D01*
X723749D01*
X722833Y324249D01*
Y321500D01*
Y323333D02*
X721000Y325165D01*
X725582Y326998D02*
X726498Y327915D01*
Y329747D01*
X725582Y330664D01*
X724666D01*
X723749Y329747D01*
X722833Y330664D01*
X721916D01*
X721000Y329747D01*
Y327915D01*
X721916Y326998D01*
X722833D01*
X723749Y327915D01*
X724666Y326998D01*
X725582D01*
X723749Y327915D02*
Y329747D01*
X505154Y223800D02*
Y229798D01*
X502155D01*
X501156Y228798D01*
Y226799D01*
X502155Y225799D01*
X505154D01*
X503155D02*
X501156Y223800D01*
X499156D02*
X497157D01*
X498157D01*
Y229798D01*
X499156Y228798D01*
X494158D02*
X493158Y229798D01*
X491159D01*
X490159Y228798D01*
Y224800D01*
X491159Y223800D01*
X493158D01*
X494158Y224800D01*
Y228798D01*
X504900Y213132D02*
Y219130D01*
X501901D01*
X500902Y218130D01*
Y216131D01*
X501901Y215131D01*
X504900D01*
X502901D02*
X500902Y213132D01*
X498902D02*
X496903D01*
X497903D01*
Y219130D01*
X498902Y218130D01*
X493904Y213132D02*
X491905D01*
X492904D01*
Y219130D01*
X493904Y218130D01*
X504952Y198882D02*
Y204880D01*
X501953D01*
X500953Y203880D01*
Y201881D01*
X501953Y200881D01*
X504952D01*
X502953D02*
X500953Y198882D01*
X498954D02*
X496955D01*
X497954D01*
Y204880D01*
X498954Y203880D01*
X489957Y198882D02*
X493956D01*
X489957Y202881D01*
Y203880D01*
X490956Y204880D01*
X492956D01*
X493956Y203880D01*
X501435Y138750D02*
Y144748D01*
X498436D01*
X497436Y143748D01*
Y141749D01*
X498436Y140749D01*
X501435D01*
X499435D02*
X497436Y138750D01*
X495437D02*
X493437D01*
X494437D01*
Y144748D01*
X495437Y143748D01*
X486440Y144748D02*
X488439Y143748D01*
X490438Y141749D01*
Y139749D01*
X489439Y138750D01*
X487439D01*
X486440Y139749D01*
Y140749D01*
X487439Y141749D01*
X490438D01*
X506576Y148564D02*
Y154562D01*
X503577D01*
X502578Y153562D01*
Y151563D01*
X503577Y150563D01*
X506576D01*
X504577D02*
X502578Y148564D01*
X500578D02*
X498579D01*
X499579D01*
Y154562D01*
X500578Y153562D01*
X495580Y154562D02*
X491581D01*
Y153562D01*
X495580Y149564D01*
Y148564D01*
X506576Y158474D02*
Y164472D01*
X503577D01*
X502578Y163472D01*
Y161473D01*
X503577Y160473D01*
X506576D01*
X504577D02*
X502578Y158474D01*
X500578D02*
X498579D01*
X499579D01*
Y164472D01*
X500578Y163472D01*
X495580D02*
X494580Y164472D01*
X492581D01*
X491581Y163472D01*
Y162473D01*
X492581Y161473D01*
X491581Y160473D01*
Y159474D01*
X492581Y158474D01*
X494580D01*
X495580Y159474D01*
Y160473D01*
X494580Y161473D01*
X495580Y162473D01*
Y163472D01*
X494580Y161473D02*
X492581D01*
X123685Y247000D02*
Y252998D01*
X120686D01*
X119686Y251998D01*
Y249999D01*
X120686Y248999D01*
X123685D01*
X121685D02*
X119686Y247000D01*
X117687D02*
X115687D01*
X116687D01*
Y252998D01*
X117687Y251998D01*
X112688Y247999D02*
X111689Y247000D01*
X109689D01*
X108690Y247999D01*
Y251998D01*
X109689Y252998D01*
X111689D01*
X112688Y251998D01*
Y250998D01*
X111689Y249999D01*
X108690D01*
X558185Y268000D02*
X563183D01*
Y270499D01*
X562350Y271332D01*
X560684D01*
X559851Y270499D01*
Y268000D01*
Y269666D02*
X558185Y271332D01*
Y276330D02*
Y272998D01*
X561517Y276330D01*
X562350D01*
X563183Y275497D01*
Y273831D01*
X562350Y272998D01*
X558185Y280496D02*
X563183D01*
X560684Y277996D01*
Y281329D01*
X530500Y267250D02*
X535498D01*
Y269749D01*
X534665Y270582D01*
X532999D01*
X532166Y269749D01*
Y267250D01*
Y268916D02*
X530500Y270582D01*
Y275581D02*
Y272248D01*
X533832Y275581D01*
X534665D01*
X535498Y274748D01*
Y273081D01*
X534665Y272248D01*
X535498Y280579D02*
Y277247D01*
X532999D01*
X533832Y278913D01*
Y279746D01*
X532999Y280579D01*
X531333D01*
X530500Y279746D01*
Y278080D01*
X531333Y277247D01*
X104685Y223750D02*
Y229748D01*
X101686D01*
X100686Y228748D01*
Y226749D01*
X101686Y225749D01*
X104685D01*
X102685D02*
X100686Y223750D01*
X94688D02*
X98687D01*
X94688Y227748D01*
Y228748D01*
X95688Y229748D01*
X97687D01*
X98687Y228748D01*
X88690Y229748D02*
X90689Y228748D01*
X92689Y226749D01*
Y224749D01*
X91689Y223750D01*
X89690D01*
X88690Y224749D01*
Y225749D01*
X89690Y226749D01*
X92689D01*
X133185Y207500D02*
X139183D01*
Y210499D01*
X138183Y211498D01*
X136184D01*
X135184Y210499D01*
Y207500D01*
Y209499D02*
X133185Y211498D01*
Y217496D02*
Y213498D01*
X137183Y217496D01*
X138183D01*
X139183Y216497D01*
Y214497D01*
X138183Y213498D01*
X139183Y219496D02*
Y223494D01*
X138183D01*
X134184Y219496D01*
X133185D01*
X528500Y253250D02*
Y259248D01*
X525501D01*
X524501Y258248D01*
Y256249D01*
X525501Y255249D01*
X528500D01*
X526501D02*
X524501Y253250D01*
X518503D02*
X522502D01*
X518503Y257249D01*
Y258248D01*
X519503Y259248D01*
X521502D01*
X522502Y258248D01*
X516504D02*
X515504Y259248D01*
X513505D01*
X512505Y258248D01*
Y257249D01*
X513505Y256249D01*
X512505Y255249D01*
Y254250D01*
X513505Y253250D01*
X515504D01*
X516504Y254250D01*
Y255249D01*
X515504Y256249D01*
X516504Y257249D01*
Y258248D01*
X515504Y256249D02*
X513505D01*
X528250Y282500D02*
Y288498D01*
X525251D01*
X524251Y287498D01*
Y285499D01*
X525251Y284499D01*
X528250D01*
X526251D02*
X524251Y282500D01*
X518253D02*
X522252D01*
X518253Y286499D01*
Y287498D01*
X519253Y288498D01*
X521252D01*
X522252Y287498D01*
X516254Y283500D02*
X515254Y282500D01*
X513255D01*
X512255Y283500D01*
Y287498D01*
X513255Y288498D01*
X515254D01*
X516254Y287498D01*
Y286499D01*
X515254Y285499D01*
X512255D01*
X526542Y108966D02*
Y114964D01*
X523543D01*
X522543Y113964D01*
Y111965D01*
X523543Y110965D01*
X526542D01*
X524543D02*
X522543Y108966D01*
X520544Y113964D02*
X519544Y114964D01*
X517545D01*
X516545Y113964D01*
Y112965D01*
X517545Y111965D01*
X518545D01*
X517545D01*
X516545Y110965D01*
Y109966D01*
X517545Y108966D01*
X519544D01*
X520544Y109966D01*
X514546Y113964D02*
X513546Y114964D01*
X511547D01*
X510547Y113964D01*
Y109966D01*
X511547Y108966D01*
X513546D01*
X514546Y109966D01*
Y113964D01*
X200250Y96500D02*
Y102498D01*
X197251D01*
X196251Y101498D01*
Y99499D01*
X197251Y98499D01*
X200250D01*
X198251D02*
X196251Y96500D01*
X194252Y101498D02*
X193252Y102498D01*
X191253D01*
X190253Y101498D01*
Y100499D01*
X191253Y99499D01*
X192253D01*
X191253D01*
X190253Y98499D01*
Y97500D01*
X191253Y96500D01*
X193252D01*
X194252Y97500D01*
X188254Y96500D02*
X186255D01*
X187254D01*
Y102498D01*
X188254Y101498D01*
X580500Y270750D02*
X585498D01*
Y273249D01*
X584665Y274082D01*
X582999D01*
X582166Y273249D01*
Y270750D01*
Y272416D02*
X580500Y274082D01*
X584665Y275748D02*
X585498Y276581D01*
Y278248D01*
X584665Y279081D01*
X583832D01*
X582999Y278248D01*
Y277414D01*
Y278248D01*
X582166Y279081D01*
X581333D01*
X580500Y278248D01*
Y276581D01*
X581333Y275748D01*
X580500Y284079D02*
Y280747D01*
X583832Y284079D01*
X584665D01*
X585498Y283246D01*
Y281580D01*
X584665Y280747D01*
X693500Y114000D02*
X699498D01*
Y116999D01*
X698498Y117999D01*
X696499D01*
X695499Y116999D01*
Y114000D01*
Y115999D02*
X693500Y117999D01*
X698498Y119998D02*
X699498Y120998D01*
Y122997D01*
X698498Y123997D01*
X697499D01*
X696499Y122997D01*
Y121997D01*
Y122997D01*
X695499Y123997D01*
X694500D01*
X693500Y122997D01*
Y120998D01*
X694500Y119998D01*
X698498Y125996D02*
X699498Y126996D01*
Y128995D01*
X698498Y129995D01*
X697499D01*
X696499Y128995D01*
Y127996D01*
Y128995D01*
X695499Y129995D01*
X694500D01*
X693500Y128995D01*
Y126996D01*
X694500Y125996D01*
X179750Y96500D02*
Y102498D01*
X176751D01*
X175751Y101498D01*
Y99499D01*
X176751Y98499D01*
X179750D01*
X177751D02*
X175751Y96500D01*
X173752Y101498D02*
X172752Y102498D01*
X170753D01*
X169753Y101498D01*
Y100499D01*
X170753Y99499D01*
X171752D01*
X170753D01*
X169753Y98499D01*
Y97500D01*
X170753Y96500D01*
X172752D01*
X173752Y97500D01*
X164755Y96500D02*
Y102498D01*
X167754Y99499D01*
X163755D01*
X180000Y76750D02*
Y82748D01*
X177001D01*
X176001Y81748D01*
Y79749D01*
X177001Y78749D01*
X180000D01*
X178001D02*
X176001Y76750D01*
X174002Y81748D02*
X173002Y82748D01*
X171003D01*
X170003Y81748D01*
Y80749D01*
X171003Y79749D01*
X172003D01*
X171003D01*
X170003Y78749D01*
Y77750D01*
X171003Y76750D01*
X173002D01*
X174002Y77750D01*
X164005Y82748D02*
X168004D01*
Y79749D01*
X166005Y80749D01*
X165005D01*
X164005Y79749D01*
Y77750D01*
X165005Y76750D01*
X167004D01*
X168004Y77750D01*
X700000Y211000D02*
X705998D01*
Y213999D01*
X704998Y214999D01*
X702999D01*
X701999Y213999D01*
Y211000D01*
Y212999D02*
X700000Y214999D01*
X704998Y216998D02*
X705998Y217998D01*
Y219997D01*
X704998Y220997D01*
X703999D01*
X702999Y219997D01*
Y218997D01*
Y219997D01*
X701999Y220997D01*
X701000D01*
X700000Y219997D01*
Y217998D01*
X701000Y216998D01*
X705998Y226995D02*
X704998Y224995D01*
X702999Y222996D01*
X701000D01*
X700000Y223996D01*
Y225995D01*
X701000Y226995D01*
X701999D01*
X702999Y225995D01*
Y222996D01*
X740500Y305250D02*
X745998D01*
Y307999D01*
X745082Y308916D01*
X743249D01*
X742333Y307999D01*
Y305250D01*
Y307083D02*
X740500Y308916D01*
X745082Y310748D02*
X745998Y311665D01*
Y313497D01*
X745082Y314414D01*
X744165D01*
X743249Y313497D01*
Y312581D01*
Y313497D01*
X742333Y314414D01*
X741416D01*
X740500Y313497D01*
Y311665D01*
X741416Y310748D01*
X745998Y316246D02*
Y319912D01*
X745082D01*
X741416Y316246D01*
X740500D01*
X137185Y156500D02*
X143183D01*
Y159499D01*
X142183Y160498D01*
X140184D01*
X139184Y159499D01*
Y156500D01*
Y158499D02*
X137185Y160498D01*
X142183Y162498D02*
X143183Y163497D01*
Y165497D01*
X142183Y166496D01*
X141183D01*
X140184Y165497D01*
Y164497D01*
Y165497D01*
X139184Y166496D01*
X138184D01*
X137185Y165497D01*
Y163497D01*
X138184Y162498D01*
X142183Y168496D02*
X143183Y169496D01*
Y171495D01*
X142183Y172495D01*
X141183D01*
X140184Y171495D01*
X139184Y172495D01*
X138184D01*
X137185Y171495D01*
Y169496D01*
X138184Y168496D01*
X139184D01*
X140184Y169496D01*
X141183Y168496D01*
X142183D01*
X140184Y169496D02*
Y171495D01*
X720852Y120396D02*
X726850D01*
Y123395D01*
X725850Y124395D01*
X723851D01*
X722851Y123395D01*
Y120396D01*
Y122395D02*
X720852Y124395D01*
Y129393D02*
X726850D01*
X723851Y126394D01*
Y130393D01*
X725850Y132392D02*
X726850Y133392D01*
Y135391D01*
X725850Y136391D01*
X721852D01*
X720852Y135391D01*
Y133392D01*
X721852Y132392D01*
X725850D01*
X800500Y25000D02*
X806498D01*
Y27999D01*
X805498Y28999D01*
X803499D01*
X802499Y27999D01*
Y25000D01*
Y26999D02*
X800500Y28999D01*
Y33997D02*
X806498D01*
X803499Y30998D01*
Y34997D01*
X800500Y39995D02*
X806498D01*
X803499Y36996D01*
Y40995D01*
X546100Y252886D02*
Y247888D01*
X545100Y246888D01*
X543101D01*
X542101Y247888D01*
Y252886D01*
X540102Y246888D02*
X538103D01*
X539102D01*
Y252886D01*
X540102Y251886D01*
X233500Y275748D02*
Y270750D01*
X232500Y269750D01*
X230501D01*
X229501Y270750D01*
Y275748D01*
X223503Y269750D02*
X227502D01*
X223503Y273749D01*
Y274748D01*
X224503Y275748D01*
X226502D01*
X227502Y274748D01*
X245058Y185602D02*
Y180604D01*
X244059Y179604D01*
X242059D01*
X241060Y180604D01*
Y185602D01*
X239060Y184602D02*
X238061Y185602D01*
X236061D01*
X235062Y184602D01*
Y183603D01*
X236061Y182603D01*
X237061D01*
X236061D01*
X235062Y181603D01*
Y180604D01*
X236061Y179604D01*
X238061D01*
X239060Y180604D01*
X275017Y368964D02*
Y363965D01*
X274017Y362966D01*
X272018D01*
X271018Y363965D01*
Y368964D01*
X265020D02*
X269019D01*
Y365965D01*
X267019Y366964D01*
X266020D01*
X265020Y365965D01*
Y363965D01*
X266020Y362966D01*
X268019D01*
X269019Y363965D01*
X799846Y155096D02*
Y150098D01*
X798846Y149098D01*
X796847D01*
X795847Y150098D01*
Y155096D01*
X793848Y154096D02*
X792848Y155096D01*
X790849D01*
X789849Y154096D01*
Y153097D01*
X790849Y152097D01*
X789849Y151097D01*
Y150098D01*
X790849Y149098D01*
X792848D01*
X793848Y150098D01*
Y151097D01*
X792848Y152097D01*
X793848Y153097D01*
Y154096D01*
X792848Y152097D02*
X790849D01*
X711248Y105750D02*
X706250D01*
X705250Y106750D01*
Y108749D01*
X706250Y109749D01*
X711248D01*
X706250Y111748D02*
X705250Y112748D01*
Y114747D01*
X706250Y115747D01*
X710248D01*
X711248Y114747D01*
Y112748D01*
X710248Y111748D01*
X709249D01*
X708249Y112748D01*
Y115747D01*
X471936Y246748D02*
X472936Y247748D01*
X474935D01*
X475935Y246748D01*
Y245748D01*
X474935Y244749D01*
X472936D01*
X471936Y243749D01*
Y242749D01*
X472936Y241750D01*
X474935D01*
X475935Y242749D01*
X469937Y247748D02*
Y241750D01*
X467937Y243749D01*
X465938Y241750D01*
Y247748D01*
X463939Y241750D02*
X461939D01*
X462939D01*
Y247748D01*
X463939Y246748D01*
X301654Y334010D02*
X296656D01*
X295656Y335010D01*
Y337009D01*
X296656Y338009D01*
X301654D01*
X295656Y340008D02*
Y342007D01*
Y341008D01*
X301654D01*
X300654Y340008D01*
Y345006D02*
X301654Y346006D01*
Y348005D01*
X300654Y349005D01*
X299655D01*
X298655Y348005D01*
X297655Y349005D01*
X296656D01*
X295656Y348005D01*
Y346006D01*
X296656Y345006D01*
X297655D01*
X298655Y346006D01*
X299655Y345006D01*
X300654D01*
X298655Y346006D02*
Y348005D01*
X236433Y29000D02*
X231434D01*
X230435Y29999D01*
Y31999D01*
X231434Y32998D01*
X236433D01*
X230435Y34998D02*
Y36997D01*
Y35997D01*
X236433D01*
X235433Y34998D01*
X230435Y42995D02*
X236433D01*
X233434Y39996D01*
Y43995D01*
X385435Y107748D02*
Y102749D01*
X384435Y101750D01*
X382436D01*
X381436Y102749D01*
Y107748D01*
X379437Y101750D02*
X377437D01*
X378437D01*
Y107748D01*
X379437Y106748D01*
X374438D02*
X373439Y107748D01*
X371439D01*
X370440Y106748D01*
Y105748D01*
X371439Y104749D01*
X372439D01*
X371439D01*
X370440Y103749D01*
Y102749D01*
X371439Y101750D01*
X373439D01*
X374438Y102749D01*
X743204Y212344D02*
Y218342D01*
X740205D01*
X739205Y217342D01*
Y215343D01*
X740205Y214343D01*
X743204D01*
X741205D02*
X739205Y212344D01*
X737206Y218342D02*
X733207D01*
Y217342D01*
X737206Y213344D01*
Y212344D01*
X727209Y218342D02*
X731208D01*
Y215343D01*
X729209Y216343D01*
X728209D01*
X727209Y215343D01*
Y213344D01*
X728209Y212344D01*
X730208D01*
X731208Y213344D01*
X357935Y20500D02*
Y25998D01*
X355186D01*
X354269Y25082D01*
Y23249D01*
X355186Y22332D01*
X357935D01*
X356102D02*
X354269Y20500D01*
X352436Y25998D02*
X348771D01*
Y25082D01*
X352436Y21416D01*
Y20500D01*
X346938Y25082D02*
X346022Y25998D01*
X344189D01*
X343273Y25082D01*
Y24165D01*
X344189Y23249D01*
X345106D01*
X344189D01*
X343273Y22332D01*
Y21416D01*
X344189Y20500D01*
X346022D01*
X346938Y21416D01*
X355935Y49250D02*
Y55248D01*
X352936D01*
X351936Y54248D01*
Y52249D01*
X352936Y51249D01*
X355935D01*
X353935D02*
X351936Y49250D01*
X349937Y55248D02*
X345938D01*
Y54248D01*
X349937Y50249D01*
Y49250D01*
X339940D02*
X343939D01*
X339940Y53248D01*
Y54248D01*
X340940Y55248D01*
X342939D01*
X343939Y54248D01*
X232866Y53874D02*
Y59872D01*
X229867D01*
X228868Y58872D01*
Y56873D01*
X229867Y55873D01*
X232866D01*
X230867D02*
X228868Y53874D01*
X222870Y59872D02*
X224869Y58872D01*
X226868Y56873D01*
Y54874D01*
X225869Y53874D01*
X223869D01*
X222870Y54874D01*
Y55873D01*
X223869Y56873D01*
X226868D01*
X220870Y54874D02*
X219871Y53874D01*
X217871D01*
X216872Y54874D01*
Y58872D01*
X217871Y59872D01*
X219871D01*
X220870Y58872D01*
Y57873D01*
X219871Y56873D01*
X216872D01*
X272685Y63250D02*
Y69248D01*
X269686D01*
X268686Y68248D01*
Y66249D01*
X269686Y65249D01*
X272685D01*
X270685D02*
X268686Y63250D01*
X262688Y69248D02*
X264687Y68248D01*
X266687Y66249D01*
Y64249D01*
X265687Y63250D01*
X263688D01*
X262688Y64249D01*
Y65249D01*
X263688Y66249D01*
X266687D01*
X260689Y68248D02*
X259689Y69248D01*
X257690D01*
X256690Y68248D01*
Y67248D01*
X257690Y66249D01*
X256690Y65249D01*
Y64249D01*
X257690Y63250D01*
X259689D01*
X260689Y64249D01*
Y65249D01*
X259689Y66249D01*
X260689Y67248D01*
Y68248D01*
X259689Y66249D02*
X257690D01*
X317000Y107500D02*
Y113498D01*
X314001D01*
X313001Y112498D01*
Y110499D01*
X314001Y109499D01*
X317000D01*
X315001D02*
X313001Y107500D01*
X307003Y113498D02*
X309003Y112498D01*
X311002Y110499D01*
Y108500D01*
X310002Y107500D01*
X308003D01*
X307003Y108500D01*
Y109499D01*
X308003Y110499D01*
X311002D01*
X301005Y113498D02*
X305004D01*
Y110499D01*
X303004Y111499D01*
X302005D01*
X301005Y110499D01*
Y108500D01*
X302005Y107500D01*
X304004D01*
X305004Y108500D01*
X291750Y28000D02*
X297748D01*
Y30999D01*
X296748Y31999D01*
X294749D01*
X293749Y30999D01*
Y28000D01*
Y29999D02*
X291750Y31999D01*
X297748Y37997D02*
X296748Y35997D01*
X294749Y33998D01*
X292750D01*
X291750Y34998D01*
Y36997D01*
X292750Y37997D01*
X293749D01*
X294749Y36997D01*
Y33998D01*
X291750Y43995D02*
Y39996D01*
X295749Y43995D01*
X296748D01*
X297748Y42995D01*
Y40996D01*
X296748Y39996D01*
X237685Y16500D02*
Y22498D01*
X234686D01*
X233686Y21498D01*
Y19499D01*
X234686Y18499D01*
X237685D01*
X235685D02*
X233686Y16500D01*
X227688Y22498D02*
X231687D01*
Y19499D01*
X229687Y20498D01*
X228688D01*
X227688Y19499D01*
Y17499D01*
X228688Y16500D01*
X230687D01*
X231687Y17499D01*
X225689Y22498D02*
X221690D01*
Y21498D01*
X225689Y17499D01*
Y16500D01*
X297185Y9000D02*
Y14998D01*
X294186D01*
X293186Y13998D01*
Y11999D01*
X294186Y10999D01*
X297185D01*
X295185D02*
X293186Y9000D01*
X287188Y14998D02*
X291187D01*
Y11999D01*
X289187Y12998D01*
X288188D01*
X287188Y11999D01*
Y9999D01*
X288188Y9000D01*
X290187D01*
X291187Y9999D01*
X281190Y14998D02*
X283189Y13998D01*
X285189Y11999D01*
Y9999D01*
X284189Y9000D01*
X282190D01*
X281190Y9999D01*
Y10999D01*
X282190Y11999D01*
X285189D01*
X338000Y82750D02*
X343998D01*
Y85749D01*
X342998Y86749D01*
X340999D01*
X339999Y85749D01*
Y82750D01*
Y84749D02*
X338000Y86749D01*
X343998Y92747D02*
Y88748D01*
X340999D01*
X341999Y90747D01*
Y91747D01*
X340999Y92747D01*
X339000D01*
X338000Y91747D01*
Y89748D01*
X339000Y88748D01*
X338000Y97745D02*
X343998D01*
X340999Y94746D01*
Y98745D01*
X291251Y114000D02*
Y117998D01*
X292251Y118998D01*
X294250D01*
X295250Y117998D01*
Y114000D01*
X294250Y113000D01*
X292251D01*
X293251Y114999D02*
X291251Y113000D01*
X292251D02*
X291251Y114000D01*
X289252Y113000D02*
X287253D01*
X288252D01*
Y118998D01*
X289252Y117998D01*
X280255Y113000D02*
X284254D01*
X280255Y116999D01*
Y117998D01*
X281255Y118998D01*
X283254D01*
X284254Y117998D01*
X249001Y109500D02*
Y113498D01*
X250001Y114498D01*
X252000D01*
X253000Y113498D01*
Y109500D01*
X252000Y108500D01*
X250001D01*
X251001Y110499D02*
X249001Y108500D01*
X250001D02*
X249001Y109500D01*
X247002Y108500D02*
X245003D01*
X246002D01*
Y114498D01*
X247002Y113498D01*
X242004D02*
X241004Y114498D01*
X239005D01*
X238005Y113498D01*
Y109500D01*
X239005Y108500D01*
X241004D01*
X242004Y109500D01*
Y113498D01*
X319186Y86749D02*
Y90748D01*
X320186Y91748D01*
X322185D01*
X323185Y90748D01*
Y86749D01*
X322185Y85750D01*
X320186D01*
X321185Y87749D02*
X319186Y85750D01*
X320186D02*
X319186Y86749D01*
X317187D02*
X316187Y85750D01*
X314188D01*
X313188Y86749D01*
Y90748D01*
X314188Y91748D01*
X316187D01*
X317187Y90748D01*
Y89748D01*
X316187Y88749D01*
X313188D01*
X378186Y50249D02*
Y54248D01*
X379186Y55248D01*
X381185D01*
X382185Y54248D01*
Y50249D01*
X381185Y49250D01*
X379186D01*
X380185Y51249D02*
X378186Y49250D01*
X379186D02*
X378186Y50249D01*
X376187Y54248D02*
X375187Y55248D01*
X373188D01*
X372188Y54248D01*
Y53248D01*
X373188Y52249D01*
X372188Y51249D01*
Y50249D01*
X373188Y49250D01*
X375187D01*
X376187Y50249D01*
Y51249D01*
X375187Y52249D01*
X376187Y53248D01*
Y54248D01*
X375187Y52249D02*
X373188D01*
X734750Y293248D02*
Y287250D01*
X731751D01*
X730751Y288250D01*
Y292248D01*
X731751Y293248D01*
X734750D01*
X728752Y287250D02*
X726753D01*
X727752D01*
Y293248D01*
X728752Y292248D01*
X723754D02*
X722754Y293248D01*
X720754D01*
X719755Y292248D01*
Y288250D01*
X720754Y287250D01*
X722754D01*
X723754Y288250D01*
Y292248D01*
X732250Y254498D02*
Y248500D01*
X729251D01*
X728251Y249500D01*
Y253498D01*
X729251Y254498D01*
X732250D01*
X726252Y249500D02*
X725252Y248500D01*
X723253D01*
X722253Y249500D01*
Y253498D01*
X723253Y254498D01*
X725252D01*
X726252Y253498D01*
Y252499D01*
X725252Y251499D01*
X722253D01*
X384933Y316998D02*
X385933Y315999D01*
Y313999D01*
X384933Y313000D01*
X380934D01*
X379935Y313999D01*
Y315999D01*
X380934Y316998D01*
X379935Y322996D02*
Y318998D01*
X383933Y322996D01*
X384933D01*
X385933Y321997D01*
Y319997D01*
X384933Y318998D01*
Y324996D02*
X385933Y325995D01*
Y327995D01*
X384933Y328994D01*
X383933D01*
X382934Y327995D01*
X381934Y328994D01*
X380934D01*
X379935Y327995D01*
Y325995D01*
X380934Y324996D01*
X381934D01*
X382934Y325995D01*
X383933Y324996D01*
X384933D01*
X382934Y325995D02*
Y327995D01*
X362523Y273222D02*
X363523Y274222D01*
X365522D01*
X366522Y273222D01*
Y269224D01*
X365522Y268224D01*
X363523D01*
X362523Y269224D01*
X356525Y268224D02*
X360524D01*
X356525Y272223D01*
Y273222D01*
X357525Y274222D01*
X359524D01*
X360524Y273222D01*
X354526Y274222D02*
X350527D01*
Y273222D01*
X354526Y269224D01*
Y268224D01*
X408251Y289998D02*
X410251D01*
X409251D01*
Y285000D01*
X410251Y284000D01*
X411250D01*
X412250Y285000D01*
X402253Y289998D02*
X406252D01*
Y286999D01*
X404253Y287999D01*
X403253D01*
X402253Y286999D01*
Y285000D01*
X403253Y284000D01*
X405252D01*
X406252Y285000D01*
X496998Y297749D02*
X497998Y296749D01*
Y294750D01*
X496998Y293750D01*
X493000D01*
X492000Y294750D01*
Y296749D01*
X493000Y297749D01*
X496998Y299748D02*
X497998Y300748D01*
Y302747D01*
X496998Y303747D01*
X495999D01*
X494999Y302747D01*
Y301747D01*
Y302747D01*
X493999Y303747D01*
X493000D01*
X492000Y302747D01*
Y300748D01*
X493000Y299748D01*
X492000Y305746D02*
Y307745D01*
Y306746D01*
X497998D01*
X496998Y305746D01*
D11*
X758142Y192866D02*
G03*
X755142Y195866I-3000J0D01*
G01*
D02*
G03*
X752142Y192866I0J-3000D01*
G01*
X755042Y199866D02*
G03*
X758042Y202866I-0J3000D01*
G01*
X752142D02*
G03*
X755142Y199866I3000J0D01*
G01*
X711070Y101092D02*
G03*
X711070Y101092I-1000J0D01*
G01*
X747142Y192966D02*
Y202666D01*
Y202866D02*
X752142D01*
X758042D02*
X763042D01*
X763142Y192966D02*
Y202666D01*
X758142Y192866D02*
X763142D01*
X747142D02*
X752142D01*
X76174Y199424D02*
Y209674D01*
X47674Y199424D02*
Y209674D01*
X808550Y326800D02*
Y337050D01*
X837050Y326800D02*
Y337050D01*
X102301Y155550D02*
Y165800D01*
X130800Y155550D02*
Y165800D01*
X680960Y109808D02*
Y123005D01*
X668261Y109808D02*
X680960D01*
X534211Y110058D02*
Y122757D01*
Y110058D02*
X547408D01*
X534211Y256808D02*
X546910D01*
X534211Y243611D02*
Y256808D01*
X680710Y243859D02*
Y256558D01*
X667513D02*
X680710D01*
X845449Y51322D02*
Y159572D01*
X783448Y51322D02*
X804949D01*
X783198Y159572D02*
X804698D01*
X838448Y51322D02*
X845449D01*
X838448Y159572D02*
X845449D01*
X371402Y65564D02*
X378902D01*
X371402Y98064D02*
X378902D01*
X241050Y33300D02*
Y40800D01*
X273550Y33300D02*
Y40800D01*
X306050Y280550D02*
Y292550D01*
Y335550D02*
Y347550D01*
Y280550D02*
X342800D01*
X306050Y347550D02*
X342800D01*
X391300Y15550D02*
Y25800D01*
X362800Y15550D02*
Y25800D01*
X297800Y65800D02*
Y76050D01*
X326300Y65800D02*
Y76050D01*
X222050Y76300D02*
X232300D01*
X222050Y104800D02*
X232300D01*
X291058Y79558D02*
Y89808D01*
X262558Y79558D02*
Y89808D01*
D14*
X352402Y72314D02*
G03*
X352402Y72314I-1000J0D01*
G01*
X267801Y13300D02*
G03*
X267801Y13300I-1000J0D01*
G01*
D15*
X674210Y248558D02*
G03*
X674210Y248558I-1500J0D01*
G01*
X370050Y337050D02*
G03*
X370050Y337050I-1500J0D01*
G01*
X390860Y230302D02*
G03*
X390860Y230302I-2061J0D01*
G01*
D16*
X187638Y187962D02*
X193988D01*
X187638Y123462D02*
X193988D01*
X150428Y115212D02*
Y195212D01*
X229928Y114962D02*
Y195212D01*
X187638Y187962D02*
Y195212D01*
X150428D02*
X187638D01*
X150428Y115212D02*
X187638D01*
Y123462D01*
X193988Y195212D02*
X229928D01*
X193988Y187962D02*
Y195212D01*
Y114962D02*
Y123462D01*
Y114962D02*
X229928D01*
X193988Y184962D02*
X229928D01*
X193988D02*
Y193462D01*
Y257962D02*
Y265212D01*
X229928D01*
X187638Y185212D02*
Y193462D01*
X150428Y185212D02*
X187638D01*
X150428Y265212D02*
X187638D01*
Y257962D02*
Y265212D01*
X229928Y184962D02*
Y265212D01*
X150428Y185212D02*
Y265212D01*
X187638Y193462D02*
X193988D01*
X187638Y257962D02*
X193988D01*
X259051Y352800D02*
Y375551D01*
X236300D02*
X259051D01*
X109050Y352800D02*
Y375551D01*
X131801D01*
X109050Y285551D02*
X131801D01*
X109050D02*
Y308302D01*
X259051Y285551D02*
Y308302D01*
X236300Y285551D02*
X259051D01*
X456048Y125052D02*
Y139552D01*
X420048Y125052D02*
Y139552D01*
X456048Y240052D02*
Y255052D01*
X420048Y240052D02*
Y255052D01*
X456048D01*
X420048Y125052D02*
X456048D01*
Y181302D02*
Y199302D01*
X420048Y181302D02*
Y199302D01*
D93*
X690210Y231058D02*
G03*
X690210Y231058I-1500J0D01*
G01*
D132*
X254000Y127500D02*
G03*
X254000Y127500I-9000J0D01*
G01*
X279500D02*
G03*
X279500Y127500I-9000J0D01*
G01*
X280000Y253000D02*
G03*
X280000Y253000I-9000J0D01*
G01*
X254500D02*
G03*
X254500Y253000I-9000J0D01*
G01*
D133*
X712724Y267120D02*
X743204D01*
Y290068D02*
X743250Y290000D01*
X751500Y227750D02*
X752000D01*
X738000Y250980D02*
X738250D01*
D134*
X739750Y134902D02*
D03*
X739745Y149900D02*
D03*
D135*
X703802Y278500D02*
D03*
X704310Y239500D02*
D03*
M02*
