M48
;Layer_Color=9474304
;FILE_FORMAT=4:4
METRIC,LZ
;TYPE=NON_PLATED
T5F00S00C0.4500
T6F00S00C0.9000
T7F00S00C1.6992
T8F00S00C2.0000
%
T05
X00439359Y00127038
X00445948Y00127731
X00452537Y00128423
X00459125Y00129116
X00465714Y00129808
X00894467Y00127038
X00901055Y00127731
X00907644Y00128423
X00914233Y00129116
X00920822Y00129808
X01349574Y00127038
X01356163Y00127731
X01362752Y00128423
X0136934Y00129116
X01375929Y00129808
X01804682Y00127038
X0181127Y00127731
X01817859Y00128423
X01824448Y00129116
X01831036Y00129808
X01868823Y0017875
Y00185375
Y00192
Y00198625
Y0020525
X01783823Y00291
Y00297625
Y0030425
Y00310875
Y003175
X01576823Y003965
Y00403125
Y0040975
Y00416375
Y00423
X01491823Y0020425
Y00197625
Y00191
Y00184375
Y0017775
X01413716Y0017875
Y00185375
Y00192
Y00198625
Y0020525
X01328716Y00291
Y00297625
Y0030425
Y00310875
Y003175
X01121715Y003965
Y00403125
Y0040975
Y00416375
Y00423
X01036715Y0020425
Y00197625
Y00191
Y00184375
Y0017775
X00958607Y0017875
Y00185375
Y00192
Y00198625
Y0020525
X00873607Y00291
Y00297625
Y0030425
Y00310875
Y003175
X00666608Y003965
Y00403125
Y0040975
Y00416375
Y00423
X00581608Y0020425
Y00197625
Y00191
Y00184375
Y0017775
X005035Y0017875
Y00185375
Y00192
Y00198625
Y0020525
X004185Y00291
Y00297625
Y0030425
Y00310875
Y003175
X002115Y003965
Y00403125
Y0040975
Y00416375
Y00423
X001265Y0020425
Y00197625
Y00191
Y00184375
Y0017775
Y00817
Y00823625
Y0083025
Y00836875
Y008435
X005035Y0084325
Y00836625
Y0083
Y00823375
Y0081675
X00581608Y00817
Y00823625
Y0083025
Y00836875
Y008435
X005035Y0060725
Y00600625
Y00594
Y00587375
Y0058075
X00958607
Y00587375
Y00594
Y00600625
Y0060725
Y0081675
Y00823375
Y0083
Y00836625
Y0084325
X01036715Y008435
Y00836875
Y0083025
Y00823625
Y00817
X01413716Y0081675
Y00823375
Y0083
Y00836625
Y0084325
X01491823Y008435
Y00836875
Y0083025
Y00823625
Y00817
X01413716Y0060725
Y00600625
Y00594
Y00587375
Y0058075
X01868823
Y00587375
Y00594
Y00600625
Y0060725
Y0081675
Y00823375
Y0083
Y00836625
Y0084325
X01748073Y0094275
Y00949375
Y00956
Y00962625
Y0096925
X01781323Y0100675
X01787948
X01794573
X01801198
X01807823
X01809924Y01090956
X01814999Y01086697
X01820074Y01082439
X01825149Y01078181
X01830224Y01073922
X01743572Y0112875
X01736947
X01730322
X01723697
X01717072
X01643572
X01636947
X01630322
X01623697
X01617072
X01551472Y01091587
X01546397Y01087328
X01541322Y0108307
X01536247Y01078811
X01531172Y01074553
X01551823Y0100675
X01558448
X01565073
X01571698
X01578323
X01612573Y0096925
Y00962625
Y00956
Y00949375
Y0094275
X01292966
Y00949375
Y00956
Y00962625
Y0096925
X01326216Y0100675
X01332841
X01339465
X01346091
X01352715
X01354816Y01090956
X01359892Y01086697
X01364966Y01082439
X01370042Y01078181
X01375117Y01073922
X01288465Y0112875
X01281839
X01275214
X01268589
X01261964
X01188465
X0118184
X01175215
X0116859
X01161965
X01096365Y01091587
X0109129Y01087328
X01086215Y0108307
X0108114Y01078811
X01076064Y01074553
X01096715Y0100675
X01103341
X01109966
X0111659
X01123215
X01157466Y0096925
Y00962625
Y00956
Y00949375
Y0094275
X00897607Y0100675
X00890983
X00884358
X00877732
X00899708Y01090956
X00904783Y01086697
X00909858Y01082439
X00914933Y01078181
X00920008Y01073922
X00871107Y0100675
X00837858Y0096925
Y00962625
Y00956
Y00949375
Y0094275
X00702357
Y00949375
Y00956
Y00962625
Y0096925
X00668108Y0100675
X00661482
X00654857
X00648232
X00641608
X00641257Y01091587
X00636181Y01087328
X00631106Y0108307
X00626031Y01078811
X00620956Y01074553
X00706857Y0112875
X00713482
X00720107
X00726732
X00733357
X00806857
X00813482
X00820106
X00826731
X00833356
X00464901Y01073922
X00459826Y01078181
X00454751Y01082439
X00449676Y01086697
X00444601Y01090956
X004425Y0100675
X00435875
X0042925
X00422625
X00416
X0038275Y0096925
Y00962625
Y00956
Y00949375
Y0094275
X0024725
Y00949375
Y00956
Y00962625
Y0096925
X00213Y0100675
X00206375
X0019975
X00193125
X001865
X00186149Y01091587
X00181074Y01087328
X00175999Y0108307
X00170924Y01078811
X00165849Y01074553
X00251749Y0112875
X00258374
X00264999
X00271624
X00278249
X00351749
X00358374
X00364999
X00371624
X00378249
T06
X01573895Y00188302
X01617895
X01162788
X01118788
X0070768
X0066368
X00252573
X00208573
T07
X00273011Y0070621
X00357011
X00728118
X00812118
X01183226
X01267226
X01638333
X01722333
T08
X01729823Y0019055
Y0022025
X01768823
Y0019055
X01313716
Y0022025
X01274716
Y0019055
X00858608
Y0022025
X00819608
Y0019055
X00403501
Y0022025
X00364501
Y0019055
M30
