M48
;Layer_Color=9474304
;FILE_FORMAT=4:4
METRIC,LZ
;TYPE=PLATED
T1F00S00C0.3000
T2F00S00C0.4995
T3F00S00C0.7000
T4F00S00C0.8000
%
T01
X00363251Y00134565
X00426501Y00141315
X0044Y00134315
X00483251Y00140065
X00818358Y00134565
X00881608Y00141315
X00895108Y00134315
X00938358Y00140065
X01273465Y00134565
X01336715Y00141315
X01350215Y00134315
X01393465Y00140065
X01728573Y00134565
X01791823Y00141315
X01805323Y00134315
X01848573Y00140065
X01842323Y00183065
X01830323Y00176065
X01816739Y0017182
X01813183Y00179186
X01789323Y00185815
X01784823Y00193315
X01790577Y00215
X01796139Y00227459
X01789323Y00233565
X01785088Y00239964
X01755859Y00233758
X01742823Y00238
X01718323Y0024175
X01714859Y00258636
X01695573Y00266
X01679323Y00264
X01699323Y002445
X01683871Y00224854
X01706223Y00205361
X01715823Y00205065
X01729573Y00171315
X01717073Y00156565
X01759823Y00163315
X01782939Y001522
X01861573Y00180315
X01861823Y00188815
X01857379Y00214944
X01847701Y00221617
X01847447Y00249811
X01857323Y0024975
X01836271Y00241429
X01824841Y00248033
X01818237Y00243969
X01769823Y00295489
Y00310489
Y00325489
Y00340489
Y00355489
X01767823Y0037475
X01755779Y0036486
X01717573Y00362065
X01722823Y00356565
X01725823Y0037725
X01725823Y00385815
X01725573Y00394
Y004045
X01693564Y00412847
X01686333Y00409472
X01687083Y00416973
X01687583Y00397787
X01695573Y00392
X01693573Y00366
X01686573Y00373
X01668073Y0037375
X01667323Y003595
X01674264Y00349584
X01680573Y00353886
X01688323Y00352565
X01686573Y0034425
X01683871Y0032493
X01672823Y0032
X01700323Y00319
X01716823Y00324815
X01717073Y00333065
X01743823Y00317815
X01744073Y00296
X01729337Y00299022
X01729083Y00290386
X01705073Y00293
X01727813Y00442851
X01736703Y00452946
X01747143Y0043852
X01743823Y00427565
X01762323Y00413315
X01771073Y00413
X01776823Y00428315
X01776823Y0043875
X01772263Y00473774
X01764135
X01754991Y00473012
X01749149Y0048495
X01769215Y00499691
Y00514691
Y00529691
Y00544691
X01786323Y00524065
X01803323Y00529815
X01803277Y00497448
X01685823Y00495565
X01676323Y0049575
X01680573Y0050275
X01679408Y00512999
X01687935Y00513652
X01672695Y00508826
X01676759Y00542608
X01687935Y00542354
X01697333Y00483934
X01688443Y0047225
X01682855Y00477838
X01677573Y00466565
X01668573Y004675
X01663323Y004735
X01628823Y00476
X01622573Y00481315
X01622657Y00489333
X01593193Y00495618
X01581763Y00489776
X01565823Y00486065
X01559157Y00516511
X01569571Y00524574
X01583573Y00538315
X01596323Y00521
X01622403Y00531243
X01656823Y00540815
X01623419Y00453962
X01594971Y00449201
X01589637Y00461647
X01595073Y0043125
X01583573Y00410065
X01583795Y0039478
Y00364808
Y00334582
X01597511Y00312738
X01606073Y00318815
X01631039Y00318326
X01645573Y003305
X01649323Y0033775
X01658573Y0033725
X01644073Y0035925
X01631823Y00366
X01631573Y0037375
X01631293Y00383096
X01622911Y00385636
X01622573Y00394565
X01624943Y00378081
X01624435Y00355221
X01623329Y00347534
X01618073Y0029425
X01630323Y0029225
X01651483Y0029191
X01660323Y002565
X01610211Y0026397
X01583795Y00263716
X01577191Y00256604
X01583795Y00292164
X01522581Y00256604
X01504039
X01504293Y0017212
X01521823Y001835
X01406465Y00180315
X01406715Y00188815
X01387215Y00183065
X01375215Y00176065
X01361632Y0017182
X01358076Y00179186
X01334215Y00185815
X01329715Y00193315
X0133547Y00215
X01341031Y00227459
X01334215Y00233565
X0132998Y00239964
X01300752Y00233758
X01287716Y00238
X01288966Y00296
X0127423Y00299022
X01273976Y00290386
X01288715Y00317815
X01314716Y00310489
Y00325489
Y00340489
Y00355489
X01312716Y0037475
X01300672Y0036486
X01270716Y0037725
X01270715Y00385815
X01270466Y00394
Y004045
X01272705Y00442851
X01281596Y00452946
X01292036Y0043852
X01288715Y00427565
X01307215Y00413315
X01315966Y00413
X01321715Y00428315
X01321716Y0043875
X01317156Y00473774
X01309028
X01299884Y00473012
X01294042Y0048495
X01314107Y00499691
Y00514691
Y00529691
Y00544691
X01331215Y00524065
X01348215Y00529815
X0134817Y00497448
X01314716Y00295489
X01363129Y00243969
X01369733Y00248033
X01381163Y00241429
X01392339Y00249811
X01402216Y0024975
X01402272Y00214944
X01392593Y00221617
X01327831Y001522
X01304715Y00163315
X01274465Y00171315
X01656073Y0037975
X01654823Y00392
X01656573Y0041275
X01648823Y0041525
X01641707Y0042018
X01238457Y00412847
X01231225Y00409472
X01231975Y00416973
X01232475Y00397787
X01240466Y00392
X01238466Y00366
X01231466Y00373
X01212966Y0037375
X01212216Y003595
X01219157Y00349584
X01225466Y00353886
X01233215Y00352565
X01231466Y0034425
X01228764Y0032493
X01217716Y0032
X01245216Y00319
X01261715Y00324815
X01261965Y00333065
X01267715Y00356565
X01262465Y00362065
X01188966Y0035925
X01176716Y00366
X01176466Y0037375
X01176186Y00383096
X01167804Y00385636
X01167465Y00394565
X01169835Y00378081
X01169327Y00355221
X01168222Y00347534
X01194216Y0033775
X01203466Y0033725
X01190466Y003305
X01175932Y00318326
X01150965Y00318815
X01142404Y00312738
X01128688Y00292164
Y00263716
X01122084Y00256604
X01155104Y0026397
X01162966Y0029425
X01175216Y0029225
X01196376Y0029191
X01205216Y002565
X01224216Y00264
X01240466Y00266
X01244216Y002445
X01263216Y0024175
X01259752Y00258636
X01249966Y00293
X01251115Y00205361
X01260715Y00205065
X01261965Y00156565
X01228764Y00224854
X01200966Y0037975
X01199716Y00392
X01201466Y0041275
X01193716Y0041525
X011866Y0042018
X01168312Y00453962
X01173716Y00476
X01167465Y00481315
X01167549Y00489333
X01138086Y00495618
X01126656Y00489776
X01110715Y00486065
X01104049Y00516511
X01114464Y00524574
X01128465Y00538315
X01141216Y00521
X01167295Y00531243
X01201715Y00540815
X01221652Y00542608
X01232828Y00542354
Y00513652
X012243Y00512999
X01217588Y00508826
X01225466Y0050275
X01221216Y0049575
X01230715Y00495565
X01227748Y00477838
X01233336Y0047225
X01222465Y00466565
X01213466Y004675
X01208216Y004735
X01242226Y00483934
X01134529Y00461647
X01139863Y00449201
X01139966Y0043125
X01128465Y00410065
X01128688Y0039478
Y00364808
Y00334582
X01067474Y00256604
X01048932
X01049186Y0017212
X01066716Y001835
X00951358Y00180315
X00951608Y00188815
X00932108Y00183065
X00920108Y00176065
X00906524Y0017182
X00902968Y00179186
X00879108Y00185815
X00874608Y00193315
X00880362Y00215
X00885924Y00227459
X00879108Y00233565
X00874873Y00239964
X00908022Y00243969
X00914626Y00248033
X00926056Y00241429
X00937232Y00249811
X00947108Y0024975
X00947164Y00214944
X00937486Y00221617
X00872724Y001522
X00893062Y00497448
X00893108Y00529815
X00876108Y00524065
X00859Y00529691
Y00514691
Y00499691
X00862048Y00473774
X0085392
X00844776Y00473012
X00838934Y0048495
X00826488Y00452946
X00817598Y00442851
X00836928Y0043852
X00833608Y00427565
X00852108Y00413315
X00860858Y00413
X00866608Y00428315
X00866608Y0043875
X00857608Y0037475
X00859608Y00355489
Y00340489
Y00325489
Y00310489
Y00295489
X00833858Y00296
X00819122Y00299022
X00818868Y00290386
X00794858Y00293
X00790108Y00319
X00806608Y00324815
X00806858Y00333065
X00812608Y00356565
X00807358Y00362065
X00815608Y0037725
X00815608Y00385815
X00815358Y00394
Y004045
X00783349Y00412847
X00776118Y00409472
X00776868Y00416973
X00777368Y00397787
X00785358Y00392
X00783358Y00366
X00776358Y00373
X00757858Y0037375
X00757108Y003595
X00764049Y00349584
X00770358Y00353886
X00778108Y00352565
X00776358Y0034425
X00773656Y0032493
X00762608Y0032
X00748358Y0033725
X00739108Y0033775
X00735358Y003305
X00720824Y00318326
X00695858Y00318815
X00687296Y00312738
X0067358Y00292164
Y00263716
X00666976Y00256604
X00699996Y0026397
X00707858Y0029425
X00720108Y0029225
X00741268Y0029191
X00750108Y002565
X00769108Y00264
X00785358Y00266
X00789108Y002445
X00808108Y0024175
X00804644Y00258636
X00832608Y00238
X00845644Y00233758
X00805608Y00205065
X00796008Y00205361
X00773656Y00224854
X00819358Y00171315
X00806858Y00156565
X00849608Y00163315
X00833608Y00317815
X00845564Y0036486
X00745858Y0037975
X00744608Y00392
X00746358Y0041275
X00738608Y0041525
X00731492Y0042018
X00712358Y00394565
X00712696Y00385636
X00714728Y00378081
X00721358Y0037375
X00721608Y00366
X00721078Y00383096
X0071422Y00355221
X00713114Y00347534
X00733858Y0035925
X0067358Y00364808
Y0039478
X00673358Y00410065
X00684858Y0043125
X00684756Y00449201
X00679422Y00461647
X00671548Y00489776
X00682978Y00495618
X00686108Y00521
X00673358Y00538315
X00659356Y00524574
X00648942Y00516511
X00655608Y00486065
X00712442Y00489333
X00712358Y00481315
X00718608Y00476
X00713204Y00453962
X00758358Y004675
X00767358Y00466565
X00778228Y0047225
X0077264Y00477838
X00787118Y00483934
X00775608Y00495565
X00766108Y0049575
X00770358Y0050275
X00769193Y00512999
X0077772Y00513652
X0076248Y00508826
X00766544Y00542608
X0077772Y00542354
X00746608Y00540815
X00712188Y00531243
X00753108Y004735
X00859Y00544691
X0067358Y00334582
X00612366Y00256604
X00593824
X00594078Y0017212
X00611608Y001835
X0049625Y00180315
X00496501Y00188815
X00477001Y00183065
X00482379Y00221617
X00492057Y00214944
X00492001Y0024975
X00482124Y00249811
X00470948Y00241429
X00459519Y00248033
X00452915Y00243969
X00419765Y00239964
X00424001Y00233565
X00430816Y00227459
X00425255Y00215
X00419501Y00193315
X00424001Y00185815
X00447861Y00179186
X00451417Y0017182
X00465Y00176065
X00417616Y001522
X00394501Y00163315
X0036425Y00171315
X0035175Y00156565
X003505Y00205065
X003409Y00205361
X00318549Y00224854
X00334001Y002445
X00353001Y0024175
X00349537Y00258636
X00330251Y00266
X00314001Y00264
X00295001Y002565
X00286161Y0029191
X00265001Y0029225
X00252751Y0029425
X00218473Y00292164
Y00263716
X00211869Y00256604
X00244889Y0026397
X00240751Y00318815
X00232189Y00312738
X00218473Y00334582
Y00364808
Y0039478
X00218251Y00410065
X00229751Y0043125
X00229648Y00449201
X00224314Y00461647
X00216441Y00489776
X00227871Y00495618
X00231001Y00521
X00218251Y00538315
X00204249Y00524574
X00193834Y00516511
X00200501Y00486065
X00257334Y00489333
X0025725Y00481315
X00263501Y00476
X00258097Y00453962
X00276385Y0042018
X00283501Y0041525
X00291251Y0041275
X00289501Y00392
X00290751Y0037975
X00302751Y0037375
X00302001Y003595
X00308942Y00349584
X00315251Y00353886
X00323Y00352565
X00321251Y0034425
X00318549Y0032493
X00307501Y0032
X00335001Y00319
X00351501Y00324815
X0035175Y00333065
X003575Y00356565
X00352251Y00362065
X00360501Y0037725
X003605Y00385815
X00360251Y00394
Y004045
X00328242Y00412847
X0032101Y00409472
X0032176Y00416973
X0032226Y00397787
X00330251Y00392
X00328251Y00366
X00321251Y00373
X00266251Y0037375
X00266501Y00366
X00265971Y00383096
X00257589Y00385636
X0025725Y00394565
X0025962Y00378081
X00259112Y00355221
X00258007Y00347534
X00278751Y0035925
X00284001Y0033775
X00293251Y0033725
X00280251Y003305
X00265717Y00318326
X00339751Y00293
X00363761Y00290386
X00364015Y00299022
X00378751Y00296
X00378501Y00317815
X00404501Y00310489
Y00325489
Y00340489
Y00355489
X00402501Y0037475
X00390457Y0036486
X00397001Y00413315
X00405751Y00413
X00411501Y00428315
X00411501Y0043875
X00381821Y0043852
X00378501Y00427565
X00362491Y00442851
X00371381Y00452946
X00389669Y00473012
X00398813Y00473774
X00406941
X00403893Y00499691
Y00514691
Y00529691
Y00544691
X00421001Y00524065
X00438Y00529815
X00437955Y00497448
X00383827Y0048495
X00332011Y00483934
X00323121Y0047225
X00317533Y00477838
X0031225Y00466565
X00303251Y004675
X00298001Y004735
X00311001Y0049575
X003205Y00495565
X00315251Y0050275
X00314085Y00512999
X00322613Y00513652
X00307373Y00508826
X00311437Y00542608
X00322613Y00542354
X002915Y00540815
X0025708Y00531243
X00157259Y00256604
X00138717
X00138971Y0017212
X00156501Y001835
X00377501Y00238
X00390537Y00233758
X00404501Y00295489
X00403893Y00559691
X00383501Y00566992
X00364015Y00592138
X00364549Y00629528
X00390177Y00624461
X00383501Y00617065
X00393732Y00608459
X00395003Y00600331
X00401379Y00605652
X00414079Y00587737
X0043Y00586315
Y00608565
X00427751Y00624065
X00451501Y00626815
X00468751Y0059925
X00458529Y0058203
X00460307Y00666509
X00434118Y00667387
X00410243Y00670435
X00416001Y00654315
X00387751Y0065425
X00387637Y00638112
X00347001Y00647
X00353855Y0065894
X00351568Y00666625
X00337091Y00666306
X00315501Y00678752
X00290501Y00669565
X00289847Y00653606
X00304071Y00647002
X00315023Y0063897
X00313123Y0062906
X00307373Y00607886
X00294751Y00605
X00292051Y0059645
X002575Y00596565
X00257751Y006135
X00263501Y0061925
X00269251Y0061425
X00264751Y0064025
X0025327Y00652655
X00259Y00671065
X0025275Y00676565
X00215001Y006705
X00211133Y00652896
X00200751Y0064625
X00210501Y00633315
X00229902Y00635129
X00229648Y00645035
X00231751Y0062425
Y00614
X00232001Y00575065
X0023125Y00551315
X00218251Y00561815
X00206751Y00581315
X00194342Y00581281
X00181389Y0058147
X00172753
X00163101
X00157751Y00622565
X00181389Y00620586
X00189263Y00607632
X00180794Y00643206
X00160307Y00658432
X00166656Y00669673
X00173143Y0068776
X00180119Y00693992
X00173281Y00702714
X00165895Y00722948
X00161577Y00740474
X00173261Y0074276
X00189517Y0076943
X00199551Y0076645
X00204551Y007567
X00230501Y007495
X00232251Y0077275
X00258773Y00763052
X00270023Y00761052
X00266751Y0073625
X00275001Y00726
X00293774Y00706301
X003115Y00732315
X0032875Y00743565
X00334751Y00762565
X00343Y00763065
X003625Y00762315
X0037175Y00745565
X00365251Y0073825
X00349501Y00724815
X0036Y00691565
X0040425Y00727065
X00405501Y0075975
X0042175Y00764315
X00430751Y00763
X00431751Y007975
X0040675Y00797315
X00404751Y00782815
X00387891Y00810578
X00391954Y00817247
X003625Y00817065
X00364001Y00835815
X00360001Y0085225
X00343441Y00869252
X00328501Y00861565
X0032875Y00843315
X00328501Y00822565
X003225Y00809815
X00304832Y00843155
X0030475Y00851065
X00292305Y0089262
X00286291Y00898462
X00286713Y00906565
X00282735Y00913194
X00281719Y00920814
X00292001Y0091925
X00308415Y00932296
X00318549Y00905639
X00327751Y009065
X00343251Y00894315
X00364751Y00903315
X00372905Y00904623
X003755Y00925065
X0039175Y00912315
X00413251Y00912565
X00424515Y00901561
X00410251Y00877065
X00401501Y00880565
X00394501Y00876815
X00376001Y00877065
X0036925Y00880815
X00394501Y008445
X00404751Y00844061
X00424721Y00856044
X004455Y00838065
X00442001Y00830565
X00461043Y00833757
X00469501Y00827065
X00449613Y00808038
X00453423Y00882968
X00462593Y00908674
X00459773Y00710248
X00472473Y00709486
X00472001Y00695315
X00441751Y0071025
X00338869Y00611442
X00344965Y00553276
X00354617Y0054972
X00322613Y00558864
X00307373Y00560134
X00291501Y0054925
X00257589Y00550293
X0021275Y00691315
X00205265Y00687642
X00196121Y00693484
X00217005Y00703302
X00215501Y0072725
X00147119Y00704746
X00198407Y00801434
X00192565Y00822008
X00177501Y0082625
X00179251Y00834065
X00181Y00843565
X00177579Y00858584
X00183251Y00866065
X001915Y00880315
X00209095Y00880852
X0021275Y00862815
X00210371Y0084365
X00232585Y0084315
X002535Y00836815
X00259621Y00831936
X00256827Y0081388
X00254501Y0086875
X00248501Y0086375
X00254251Y00927315
X00211615Y00906336
X00196551Y008967
X00166429Y00908928
X001665Y00878065
X00158251Y00870565
X0013375Y00842565
X00493301Y00840869
X00490751Y00809315
X004905Y00790565
X00490251Y00772065
X00489999Y00737426
X00475501Y0082125
X00588858Y00842565
X00636108Y00843565
X00634358Y00834065
X00632608Y0082625
X00647672Y00822008
X00653514Y00801434
X00654658Y0076645
X00644624Y0076943
X00659658Y007567
X00685608Y007495
X00687358Y0077275
X0071388Y00763052
X0072513Y00761052
X00721858Y0073625
X00730108Y00726
X00748881Y00706301
X00745608Y00669565
X00744954Y00653606
X00759178Y00647002
X0077013Y0063897
X0076823Y0062906
X0076248Y00607886
X00749858Y00605
X00747158Y0059645
X00712608Y00596565
X00712858Y006135
X00718608Y0061925
X00724358Y0061425
X00719858Y0064025
X00708378Y00652655
X00714108Y00671065
X00707858Y00676565
X00670108Y006705
X0066624Y00652896
X00655858Y0064625
X00665608Y00633315
X0068501Y00635129
X00684756Y00645035
X00686858Y0062425
Y00614
X00687108Y00575065
X00686358Y00551315
X00673358Y00561815
X00661858Y00581315
X0064945Y00581281
X00636496Y0058147
X0062786
X00618208
X00612858Y00622565
X00636496Y00620586
X0064437Y00607632
X00635902Y00643206
X00615414Y00658432
X00621764Y00669673
X00628251Y0068776
X00635226Y00693992
X00628388Y00702714
X00621002Y00722948
X00616684Y00740474
X00628368Y0074276
X00670608Y0072725
X00672112Y00703302
X00667858Y00691315
X00660372Y00687642
X00651228Y00693484
X00602226Y00704746
X00613358Y00870565
X00621608Y00878065
X00646608Y00880315
X00664202Y00880852
X00667858Y00862815
X00665478Y0084365
X00687692Y0084315
X00708608Y00836815
X00714728Y00831936
X00711934Y0081388
X00709608Y0086875
X00703608Y0086375
X00638358Y00866065
X00632686Y00858584
X00651658Y008967
X00666722Y00906336
X00621536Y00908928
X00709358Y00927315
X00736826Y00920814
X00737842Y00913194
X0074182Y00906565
X00741398Y00898462
X00747413Y0089262
X00747108Y0091925
X00763522Y00932296
X00773656Y00905639
X00782858Y009065
X00798358Y00894315
X00798548Y00869252
X00783608Y00861565
X00783858Y00843315
X00783608Y00822565
X00777608Y00809815
X00817608Y00817065
X00819108Y00835815
X00815108Y0085225
X00824358Y00880815
X00831108Y00877065
X00849608Y00876815
X00856608Y00880565
X00865358Y00877065
X00868358Y00912565
X00846858Y00912315
X00828012Y00904623
X00819858Y00903315
X00830608Y00925065
X00849608Y008445
X00859858Y00844061
X00847062Y00817247
X00842998Y00810578
X00861858Y00797315
X00859858Y00782815
X00860608Y0075975
X00859358Y00727065
X00820358Y0073825
X00826858Y00745565
X00817608Y00762315
X00798108Y00763065
X00789858Y00762565
X00783858Y00743565
X00766608Y00732315
X00804608Y00724815
X00815108Y00691565
X00806676Y00666625
X00808962Y0065894
X00802108Y00647
X00792198Y00666306
X00770608Y00678752
X00793976Y00611442
X00819656Y00629528
X00845284Y00624461
X00838608Y00617065
X0084884Y00608459
X0085011Y00600331
X00856486Y00605652
X00869186Y00587737
X00859Y00559691
X00838608Y00566992
X00819122Y00592138
X00809724Y0054972
X00800072Y00553276
X0077772Y00558864
X0076248Y00560134
X00746608Y0054925
X00712696Y00550293
X00842744Y00638112
X00842858Y0065425
X00871108Y00654315
X0086535Y00670435
X0075994Y00843155
X00759858Y00851065
X00487768Y00626048
X00496501Y00588315
X00474751Y00581315
X00885108Y00586315
Y00608565
X00882858Y00624065
X00906608Y00626815
X00942876Y00626048
X00923858Y0059925
X00929858Y00581315
X00913636Y0058203
X00951608Y00588315
X00915414Y00666509
X00889226Y00667387
X00896858Y0071025
X0091488Y00710248
X0092758Y00709486
X00927108Y00695315
X00945106Y00737426
X00945358Y00772065
X00945608Y00790565
X00945858Y00809315
X00930608Y0082125
X00924608Y00827065
X0091615Y00833757
X00900608Y00838065
X00897108Y00830565
X0090472Y00808038
X00886858Y007975
X00885858Y00763
X00876858Y00764315
X00879828Y00856044
X00879623Y00901561
X009177Y00908674
X0090853Y00882968
X00948408Y00840869
X01043965Y00842565
X01091215Y00843565
X01089465Y00834065
X01087716Y0082625
X0110278Y00822008
X01108622Y00801434
X01109766Y0076645
X01099732Y0076943
X01114766Y007567
X01140716Y007495
X01142466Y0077275
X01168988Y00763052
X01180238Y00761052
X01176966Y0073625
X01185216Y00726
X01203988Y00706301
X01200715Y00669565
X01200062Y00653606
X01214286Y00647002
X01225238Y0063897
X01223338Y0062906
X01217588Y00607886
X01204966Y00605
X01202266Y0059645
X01167715Y00596565
X01167966Y006135
X01173716Y0061925
X01179466Y0061425
X01174966Y0064025
X01163485Y00652655
X01169215Y00671065
X01162965Y00676565
X01125216Y006705
X01121348Y00652896
X01110966Y0064625
X01120715Y00633315
X01140117Y00635129
X01139863Y00645035
X01141966Y0062425
Y00614
X01142215Y00575065
X01141465Y00551315
X01128465Y00561815
X01116965Y00581315
X01104557Y00581281
X01091604Y0058147
X01082968
X01073316
X01067965Y00622565
X01091604Y00620586
X01099478Y00607632
X01091009Y00643206
X01070522Y00658432
X01076871Y00669673
X01083358Y0068776
X01090334Y00693992
X01083496Y00702714
X0107611Y00722948
X01071792Y00740474
X01083476Y0074276
X01125716Y0072725
X0112722Y00703302
X01122965Y00691315
X0111548Y00687642
X01106336Y00693484
X01057334Y00704746
X01068465Y00870565
X01076715Y00878065
X01101715Y00880315
X0111931Y00880852
X01122965Y00862815
X01120586Y0084365
X011428Y0084315
X01163715Y00836815
X01169836Y00831936
X01167042Y0081388
X01164716Y0086875
X01158716Y0086375
X01093465Y00866065
X01087794Y00858584
X01106766Y008967
X0112183Y00906336
X01076644Y00908928
X01164465Y00927315
X01191934Y00920814
X0119295Y00913194
X01196928Y00906565
X01196506Y00898462
X0120252Y0089262
X01202216Y0091925
X0121863Y00932296
X01228763Y00905639
X01237966Y009065
X01253465Y00894315
X01253656Y00869252
X01238715Y00861565
X01238965Y00843315
X01238715Y00822565
X01232715Y00809815
X01215047Y00843155
X01214965Y00851065
X01244965Y00762565
X01253215Y00763065
X01238965Y00743565
X01221715Y00732315
X01259715Y00724815
X01261783Y00666625
X0126407Y0065894
X01257216Y00647
X01247306Y00666306
X01225716Y00678752
X01249084Y00611442
X0125518Y00553276
X01264832Y0054972
X01232828Y00558864
X01217588Y00560134
X01201716Y0054925
X01167803Y00550293
X01293715Y00566992
X01314107Y00559691
X01324294Y00587737
X01340215Y00586315
Y00608565
X01337965Y00624065
X01361715Y00626815
X01397983Y00626048
X01378966Y0059925
X01384965Y00581315
X01368744Y0058203
X01406715Y00588315
X01311594Y00605652
X01303947Y00608459
X01305217Y00600331
X01293715Y00617065
X01300391Y00624461
X01297852Y00638112
X01297966Y0065425
X01326215Y00654315
X01320457Y00670435
X01344333Y00667387
X01370522Y00666509
X01382215Y00695315
X01382688Y00709486
X01369988Y00710248
X01351966Y0071025
X01314465Y00727065
X01315716Y0075975
X01331965Y00764315
X01340966Y00763
X01341966Y007975
X01316965Y00797315
X01314965Y00782815
X01298106Y00810578
X01302169Y00817247
X01272715Y00817065
X01274215Y00835815
X01270216Y0085225
X01279465Y00880815
X01286215Y00877065
X01304715Y00876815
X01311715Y00880565
X01320465Y00877065
X01334936Y00856044
X01314966Y00844061
X01304716Y008445
X01355715Y00838065
X01352215Y00830565
X01371257Y00833757
X01379715Y00827065
X01385716Y0082125
X01400965Y00809315
X01400715Y00790565
X01400465Y00772065
X01400214Y00737426
X01403515Y00840869
X01359828Y00808038
X01363638Y00882968
X01372808Y00908674
X0133473Y00901561
X01323465Y00912565
X01301965Y00912315
X01283119Y00904623
X01274965Y00903315
X01285715Y00925065
X01272715Y00762315
X01281965Y00745565
X01275466Y0073825
X01270215Y00691565
X01274764Y00629528
X0127423Y00592138
X01528423Y0058147
X01538075
X01546711
X01559665Y00581281
X01572073Y00581315
X01583573Y00561815
X01596573Y00551315
X01597323Y00575065
X01597073Y00614
Y0062425
X01595225Y00635129
X01594971Y00645035
X01576455Y00652896
X01566073Y0064625
X01575823Y00633315
X01546116Y00643206
X01546711Y00620586
X01554585Y00607632
X01523073Y00622565
X01525629Y00658432
X01531979Y00669673
X01538466Y0068776
X01545441Y00693992
X01538603Y00702714
X01531217Y00722948
X01526899Y00740474
X01538583Y0074276
X01554839Y0076943
X01564873Y0076645
X01569873Y007567
X01595823Y007495
X01597573Y0077275
X01624095Y00763052
X01635345Y00761052
X01632073Y0073625
X01640323Y00726
X01659096Y00706301
X01655823Y00669565
X01655169Y00653606
X01618593Y00652655
X01630073Y0064025
X01628823Y0061925
X01634573Y0061425
X01623073Y006135
X01622823Y00596565
X01657373Y0059645
X01660073Y00605
X01656823Y0054925
X01622911Y00550293
X01624323Y00671065
X01618073Y00676565
X01580323Y006705
X01578073Y00691315
X01570587Y00687642
X01561443Y00693484
X01582327Y00703302
X01580823Y0072725
X01512441Y00704746
X01563729Y00801434
X01557887Y00822008
X01542823Y0082625
X01544573Y00834065
X01546323Y00843565
X01542901Y00858584
X01548573Y00866065
X01556823Y00880315
X01574417Y00880852
X01578073Y00862815
X01575693Y0084365
X01597907Y0084315
X01618823Y00836815
X01624943Y00831936
X01622149Y0081388
X01619823Y0086875
X01613823Y0086375
X01619573Y00927315
X01647041Y00920814
X01648057Y00913194
X01652035Y00906565
X01651613Y00898462
X01657628Y0089262
X01657323Y0091925
X01576937Y00906336
X01561873Y008967
X01531751Y00908928
X01531823Y00878065
X01523573Y00870565
X01499073Y00842565
X01670155Y00843155
X01670073Y00851065
X01694073Y00843315
X01693823Y00861565
X01708763Y00869252
X01708573Y00894315
X01693073Y009065
X01683871Y00905639
X01673737Y00932296
X01740823Y00925065
X01738227Y00904623
X01730073Y00903315
X01734573Y00880815
X01741323Y00877065
X01759823Y00876815
X01766823Y00880565
X01775573Y00877065
X01790043Y00856044
X01770073Y00844061
X01759823Y008445
X01757277Y00817247
X01753213Y00810578
X01727823Y00817065
X01729323Y00835815
X01725323Y0085225
X01693823Y00822565
X01687823Y00809815
X01700073Y00762565
X01708323Y00763065
X01727823Y00762315
X01737073Y00745565
X01730573Y0073825
X01714823Y00724815
X01694073Y00743565
X01676823Y00732315
X01680823Y00678752
X01702413Y00666306
X01716891Y00666625
X01719177Y0065894
X01712323Y00647
X01729871Y00629528
X01755499Y00624461
X01748823Y00617065
X01759055Y00608459
X01760325Y00600331
X01766701Y00605652
X01779401Y00587737
X01795323Y00586315
Y00608565
X01793073Y00624065
X01816823Y00626815
X01853091Y00626048
X01834073Y0059925
X01840073Y00581315
X01823851Y0058203
X01861823Y00588315
X01825629Y00666509
X01799441Y00667387
X01775565Y00670435
X01781323Y00654315
X01753073Y0065425
X01752959Y00638112
X01729337Y00592138
X01704191Y00611442
X01672695Y00607886
X01678445Y0062906
X01680345Y0063897
X01669393Y00647002
X01672695Y00560134
X01687935Y00558864
X01710287Y00553276
X01719939Y0054972
X01748823Y00566992
X01769215Y00559691
X01769573Y00727065
X01770823Y0075975
X01787073Y00764315
X01796073Y00763
X01797073Y007975
X01772073Y00797315
X01770073Y00782815
X01814935Y00808038
X01807323Y00830565
X01810823Y00838065
X01826365Y00833757
X01834823Y00827065
X01840823Y0082125
X01856073Y00809315
X01855823Y00790565
X01855573Y00772065
X01855321Y00737426
X01837795Y00709486
X01825095Y00710248
X01807073Y0071025
X01837323Y00695315
X01725323Y00691565
X01757073Y00912315
X01778573Y00912565
X01789837Y00901561
X01827915Y00908674
X01818745Y00882968
X01858623Y00840869
X01847996Y01013501
X01840247Y0101375
X01832748Y010295
X01814997Y0103325
X01807263Y01032495
X01806248Y010135
X01777748Y0102975
X01769761Y01029745
X01761748Y0104775
X01780998Y0106425
X01795247Y0106425
X01810747Y0107875
X01787248Y01094
X01764498Y0109675
X01722248Y0110225
X01721799Y0111212
X01736998Y01076
X01720748Y0105675
X01726998Y0103825
X01731248Y010145
X01700748Y01015
X01707248Y01028
X01670748Y010265
X01669748Y0103825
X01675998Y0107025
X01820997Y01047
X01851895Y01043253
X01641498Y0105
X01631498Y010405
X01627747Y0102375
X01611998Y0101775
X01589248Y0102725
X01579498Y01027
X01573248Y0104
X01587248Y01041
X01592998Y0104725
X01600748Y0107375
X01594997Y0109945
X01572748Y0109625
X01573002Y01066247
X01556998Y010725
X01534248Y01068
X01541248Y010575
X01557497Y0102725
X01521747Y010195
X01499748Y010145
X01508748Y0104325
X01396895Y01043253
X01377748Y010295
X01359998Y0103325
X01352264Y01032495
X01351248Y010135
X01385248Y0101375
X01392997Y01013501
X01365998Y01047
X01355748Y0107875
X01340248Y0106425
X01325998Y0106425
X01306748Y0104775
X01314762Y01029745
X01322748Y0102975
X01271998Y0103825
X01276248Y010145
X01281998Y01076
X01309498Y0109675
X01332248Y01094
X01626504Y01102249
X01625498Y011105
X01641005Y01109249
X01646248Y0110325
X01635498Y011015
X01267248Y0110225
X012668Y0111212
X01265748Y0105675
X01252248Y01028
X01245748Y01015
X01215748Y010265
X01214748Y0103825
X01220998Y0107025
X01186498Y0105
X01176498Y010405
X01172748Y0102375
X01156998Y0101775
X01134248Y0102725
X01124498Y01027
X01118248Y0104
X01132248Y01041
X01137998Y0104725
X01145748Y0107375
X01139998Y0109945
X01117748Y0109625
X01118002Y01066247
X01101998Y010725
X01079248Y01068
X01086248Y010575
X01102498Y0102725
X01066748Y010195
X01044748Y010145
X01053748Y0104325
X00941896Y01043253
X00922749Y010295
X00904998Y0103325
X00897265Y01032495
X00896249Y010135
X00930248Y0101375
X00937997Y01013501
X00910998Y01047
X00900748Y0107875
X00885248Y0106425
X00877249Y01094
X01171505Y01102249
X01170498Y011105
X01186006Y01109249
X01191248Y0110325
X01180498Y011015
X00854499Y0109675
X00812249Y0110225
X00811801Y0111212
X00826999Y01076
X00810749Y0105675
X00816999Y0103825
X00821249Y010145
X00790749Y01015
X00797249Y01028
X00760749Y010265
X00759749Y0103825
X00765999Y0107025
X00731499Y0105
X00721499Y010405
X00717748Y0102375
X00701999Y0101775
X00679249Y0102725
X00669499Y01027
X00663249Y0104
X00677249Y01041
X00682999Y0104725
X00690749Y0107375
X00684999Y0109945
X00662749Y0109625
X00663003Y01066247
X00646999Y010725
X00624249Y01068
X00631249Y010575
X00647498Y0102725
X00611748Y010195
X00589749Y010145
X00598749Y0104325
X00486897Y01043253
X00482998Y01013501
X00475249Y0101375
X00716506Y01102249
X00715499Y011105
X00731007Y01109249
X00736249Y0110325
X00725499Y011015
X00851749Y0104775
X00859763Y01029745
X00867749Y0102975
X00870999Y0106425
X00455999Y01047
X00449999Y0103325
X00442266Y01032495
X0044125Y010135
X0046775Y010295
X0041275Y0102975
X00404764Y01029745
X0039675Y0104775
X00416Y0106425
X00430249Y0106425
X00445749Y0107875
X0042225Y01094
X003995Y0109675
X0035725Y0110225
X00356802Y0111212
X00372Y01076
X0035575Y0105675
X00362Y0103825
X0036625Y010145
X0033575Y01015
X0034225Y01028
X0030575Y010265
X0030475Y0103825
X00311Y0107025
X002765Y0105
X002665Y010405
X00262749Y0102375
X00247Y0101775
X0022425Y0102725
X002145Y01027
X0020825Y0104
X0022225Y01041
X00228Y0104725
X0023575Y0107375
X0023Y0109945
X0020775Y0109625
X00208004Y01066247
X00192Y010725
X0016925Y01068
X0017625Y010575
X00192499Y0102725
X00156749Y010195
X0013475Y010145
X0014375Y0104325
X00261507Y01102249
X002605Y011105
X00276007Y01109249
X0028125Y0110325
X002705Y011015
T02
X00394273Y00699553
Y00718552
X0084938
Y00699553
X01304488
Y00718552
X01759595
Y00699553
T03
X01605867Y0103075
X01618567
Y0104345
Y0105615
X01605867
Y0104345
X01163568
Y0105615
X01150868
Y0104345
Y0103075
X01163568
X00708569
Y0104345
Y0105615
X00695869
Y0104345
Y0103075
X0025357
Y0104345
Y0105615
X0024087
Y0104345
Y0103075
T04
X00267313Y00776012
X00292713
Y00804012
X00267313
X00337313
X00362713
Y00776012
X00337313
X0072242
X0074782
Y00804012
X0072242
X0079242
X0081782
Y00776012
X0079242
X01177528
X01202928
Y00804012
X01177528
X01247528
Y00776012
X01272928
Y00804012
X01632635
X01658035
Y00776012
X01632635
X01702635
X01728035
Y00804012
X01702635
M30
