M48
;Layer_Color=9474304
;FILE_FORMAT=4:4
METRIC,LZ
;TYPE=PLATED
T1F00S00C0.3000
T2F00S00C0.4995
T3F00S00C0.8000
%
T01
X00071322Y00041428
X00102185Y000415
X00109685Y0003325
X00114185Y0005825
X00121666Y00052578
X00136685Y00056
X00146185Y0005425
X00154Y000525
X00158242Y00067564
X00178816Y00073406
X002138Y0007455
X0021082Y00064516
X0022355Y0007955
X0023075Y001055
X002075Y0010725
X00217198Y00133772
X00219198Y00145022
X00244Y0014175
X00253Y000905
X00276948Y00092004
X00288935Y0008775
X00292608Y00080264
X00286766Y0007112
X00286258Y00055118
X0029249Y00048142
X00277536Y0004828
X00257302Y00040894
X00239776Y00036576
X0023749Y0004826
X00275504Y00022118
X00310577Y00041656
X0030975Y0009
X00303685Y0012775
X00309185Y00134
X0016637Y00131826
X00148314Y0013462
X00143435Y001285
X001371Y00107584
X001366Y0008537
X00117435Y0008775
X00099398Y00084094
X00099935Y000665
X0008355Y0007155
X00073914Y00086614
X00052935Y0012925
X001115Y001295
X001165Y001235
X00137685Y0000875
X00321818Y00035306
X00337044Y00055793
X00334Y0007575
X00327354Y00086132
X00346935Y000855
X00345121Y00104902
X00335215Y00104648
X00356Y0010675
X0036625
X0036675Y0013275
X00361Y001385
X00366Y0014425
X00383685Y001325
X00429957Y00132588
X00449007Y0013208
X0045925Y00106
X00484632Y0010287
X00490474Y0009144
X00494185Y000755
X00463739Y00068834
X00455676Y00079248
X00441935Y0009325
X00418435
X00428935Y0010625
X00405185Y00107
X00398935Y0008175
X00398969Y00069342
X0039878Y00056388
Y00047752
Y000381
X00357685Y0003275
X00359664Y00056388
X00372618Y00064262
X0034Y0013975
X00327595Y0012827
X00490917Y00132334
X00498935Y0013225
X0050425Y001385
X00526288Y00133096
X00531049Y00104648
X00518603Y00099314
X00549Y0010475
X00570185Y0009325
X0058547Y00093472
X00615442
X00645668
X00667512Y00107188
X00661435Y0011575
X00661924Y00140716
X00688Y0014
X00686Y0012775
X00688086Y00093472
X00632716Y00133006
X00625029Y00134112
X0061425Y001415
X006065Y0014125
X00597154Y0014097
X00594614Y00132588
X00585685Y0013225
X00602169Y0013462
X0071628Y00119888
X00716534Y00093472
X00723646Y00086868
Y00032258
Y00013716
X0080813Y0001397
X0079675Y000315
X00755396Y00193548
X0073575Y00209
X007385Y00228
X00721614Y00224536
X0071425Y0020525
X0071625Y00189
X0072375Y0017
X00774889Y002159
X00775185Y002255
X00808935Y0023925
X00823685Y0022675
X00845685Y0023825
X00816935Y002695
X0082805Y00292615
X00838935Y003015
X00845935Y00315
X0080843Y00326416
X00801064Y0032286
X00804185Y0034
X00797185Y00352
X00799935Y0037125
X00791435Y003715
X00765306Y00367056
X00758633Y00357378
X00730439Y00357124
X007305Y00367
X00738821Y00345948
X00732217Y00334518
X00736281Y00327914
X00740286Y00294764
X00746685Y00299
X00752791Y00305816
X0076525Y00300254
X00786935Y002945
X00794435Y00299
X00746492Y00265536
X0074225Y002525
X00840185Y0035825
X00684761Y002795
X00669761
X00654761
X00639761
X00624761
X006055Y002775
X0061539Y00265456
X00618185Y0022725
X00623685Y002325
X00603Y002355
X00594435Y002355
X0058625Y0023525
X0057575
X00567403Y00203241
X00570778Y0019601
X00563278Y0019676
X00582463Y00197259
X0058825Y0020525
X0061425Y0020325
X0060725Y0019625
X006065Y0017775
X0062075Y00177
X00630666Y00183941
X00626364Y0019025
X00627685Y00198
X00636Y0019625
X0065532Y00193548
X0066025Y001825
X0066125Y0021
X00655435Y002265
X00647185Y0022675
X00662435Y002535
X0068425Y0025375
X00681228Y00239014
X00689864Y0023876
X0068725Y0021475
X0068834Y0016116
X0064975Y0015525
X006425Y00159
X00643Y0016825
X00621Y0015375
X006005Y0016575
X0058825Y001645
X005675Y0016625
X00565Y001585
X0056007Y00151384
X0051275Y0017825
X00513685Y0018725
X00508Y0019812
X00502412Y00192532
X00496316Y0020701
X00484685Y001955
X004845Y00186
X004775Y0019025
X00467252Y00189084
X00466598Y00197612
X00471424Y00182372
X00437642Y00186436
X00437896Y00197612
X00421386
X00420116Y00182372
X00431Y001665
X00439435Y001665
X003838Y0016705
X0037525Y0016975
X00372364Y00182372
X0035119Y00188122
X0034128Y00190022
X00333248Y0017907
X00326644Y00164846
X0033325Y00222
X0032131Y00228854
X00326Y0026275
X00342138Y00262636
X00355789Y00265176
X00363185Y002585
X00371791Y00268732
X00379919Y00270002
X00374598Y00276378
X00392513Y00289078
X00393935Y00305
X00371685
X00356185Y0030275
X00353435Y003265
X00354202Y00362767
X00381Y0034375
X00398935Y0034975
X0039822Y00333528
X00391935Y003715
X00450435Y00313
X00456185Y00296
X00450559Y00278892
X00465559
X00480559
X00506476Y0028194
Y00273812
X00507238Y00264668
X004953Y00258826
X00527304Y0024638
X00537399Y0023749
X0054173Y0025682
X00552685Y002535
X00566935Y00272
X0056725Y0028075
X00551935Y002865
X005415Y002865
X00482802Y00312954
X00435559Y00278892
X00420559
X00413258Y002585
X00388112Y00239014
X00350722Y00239548
X00368808Y00213868
X00426974Y00219964
X0043053Y00229616
X0050675Y00173
X00325935Y00291
X00309815Y00285242
X00312863Y00309118
X00313741Y00335306
X00284935Y00347
X00270764Y00347472
X00270002Y00334772
X0027Y0031675
X00253185Y0027925
X002205Y002805
X00215935Y0029675
X0021725Y0030575
X0018275Y0030675
X00182935Y0028175
X00197435Y0027975
X00169672Y0026289
X00163003Y00266954
X00163185Y002375
X00144435Y00239
X00128Y00235
X00110998Y0021844
X00118685Y002035
X00136935Y0020375
X00157685Y002035
X00170435Y001975
X00137095Y00179832
X00129185Y0017975
X0008763Y00167304
X00081788Y0016129
X00073685Y00161712
X00067056Y00157734
X00059436Y00156718
X00061Y00167
X00047954Y00183414
X00074611Y00193548
X0007375Y0020275
X00085935Y0021825
X00076935Y0023975
X00075627Y00247904
X00055185Y002505
X00067935Y0026675
X00067685Y0028825
X00078689Y00299514
X00103185Y0028525
X00099685Y002765
X00103435Y002695
X00103185Y00251
X00099435Y0024425
X0013575Y002695
X00136189Y0027975
X00124206Y0029972
X00142185Y003205
X00149685Y00317
X00146493Y00336042
X00153185Y003445
X00159Y003505
X00170935Y0036575
X00189685Y003655
X00208185Y0036525
X00242824Y00364998
X00139381Y003683
X00172212Y00324612
X00097282Y00328422
X00071576Y00337592
X00217935Y002375
X00217185Y00218
X00217685Y0020975
X00236685Y0020375
X00247935Y001865
X0025425Y0015
X00273949Y00168773
X00310685Y001655
X00301498Y001905
X00313944Y0021209
X00313625Y00226568
X00288685Y00235
X00255435Y002245
X00242Y0024025
X00234685Y0024675
T02
X00261698Y00269272
X00280697
T03
X00176238Y00142312
X00204238
Y00167712
X00176238
Y00212312
Y00237712
X00204238
Y00212312
M30
