G04*
G04 #@! TF.GenerationSoftware,Altium Limited,Altium Designer,18.0.9 (584)*
G04*
G04 Layer_Color=32896*
%FSLAX44Y44*%
%MOMM*%
G71*
G01*
G75*
%ADD44C,0.2000*%
%ADD45C,0.2540*%
%ADD46C,0.3000*%
%ADD47C,0.2500*%
%ADD80C,0.1000*%
%ADD82C,0.4000*%
%ADD87C,0.1500*%
%ADD152C,0.0000*%
%ADD153R,0.2000X0.7000*%
%ADD154R,1.3000X0.4128*%
G36*
X1626823Y713000D02*
Y709250D01*
X1625823Y706000D01*
X1624323Y704000D01*
X1621573Y701250D01*
X1614073D01*
X1609073Y706250D01*
Y713500D01*
X1613823Y718250D01*
X1621573D01*
X1626823Y713000D01*
D02*
G37*
G36*
X1171716D02*
Y709250D01*
X1170716Y706000D01*
X1169216Y704000D01*
X1166466Y701250D01*
X1158966D01*
X1153966Y706250D01*
Y713500D01*
X1158716Y718250D01*
X1166466D01*
X1171716Y713000D01*
D02*
G37*
G36*
X716608D02*
Y709250D01*
X715608Y706000D01*
X714108Y704000D01*
X711358Y701250D01*
X703858D01*
X698858Y706250D01*
Y713500D01*
X703608Y718250D01*
X711358D01*
X716608Y713000D01*
D02*
G37*
G36*
X261501D02*
Y709250D01*
X260501Y706000D01*
X259001Y704000D01*
X256251Y701250D01*
X248751D01*
X243751Y706250D01*
Y713500D01*
X248501Y718250D01*
X256251D01*
X261501Y713000D01*
D02*
G37*
G36*
X1752323Y712500D02*
Y708750D01*
X1751323Y705500D01*
X1749823Y703500D01*
X1747073Y700750D01*
X1739573D01*
X1734573Y705750D01*
Y713000D01*
X1739323Y717750D01*
X1747073D01*
X1752323Y712500D01*
D02*
G37*
G36*
X1297216D02*
Y708750D01*
X1296216Y705500D01*
X1294716Y703500D01*
X1291966Y700750D01*
X1284466D01*
X1279466Y705750D01*
Y713000D01*
X1284216Y717750D01*
X1291966D01*
X1297216Y712500D01*
D02*
G37*
G36*
X842108D02*
Y708750D01*
X841108Y705500D01*
X839608Y703500D01*
X836858Y700750D01*
X829358D01*
X824358Y705750D01*
Y713000D01*
X829108Y717750D01*
X836858D01*
X842108Y712500D01*
D02*
G37*
G36*
X387001D02*
Y708750D01*
X386001Y705500D01*
X384501Y703500D01*
X381751Y700750D01*
X374251D01*
X369251Y705750D01*
Y713000D01*
X374001Y717750D01*
X381751D01*
X387001Y712500D01*
D02*
G37*
D44*
X317867Y222108D02*
G03*
X320867Y225108I0J3000D01*
G01*
D02*
G03*
X317867Y228108I-3000J-0D01*
G01*
X324867Y225208D02*
G03*
X327867Y222208I3000J0D01*
G01*
Y228108D02*
G03*
X324867Y225108I0J-3000D01*
G01*
X226093Y269180D02*
G03*
X226093Y269180I0J1000D01*
G01*
X317967Y233108D02*
X327667D01*
X327867D02*
Y228108D01*
Y222208D02*
Y217208D01*
X317967Y217108D02*
X327667D01*
X317867Y222108D02*
Y217108D01*
Y233108D02*
Y228108D01*
X324425Y904076D02*
X334675D01*
X324425Y932576D02*
X334675D01*
X451801Y171700D02*
X462051D01*
X451801Y143200D02*
X462051D01*
X280551Y877950D02*
X290801D01*
X280551Y849450D02*
X290801D01*
X234809Y299289D02*
X248006D01*
X234809Y311989D02*
Y299289D01*
X235059Y446040D02*
X247758D01*
X235059D02*
Y432842D01*
X381809Y446040D02*
Y433340D01*
X368611Y446040D02*
X381809D01*
X368859Y299540D02*
X381559D01*
Y312737D02*
Y299540D01*
X176323Y134802D02*
X284573D01*
X176323Y196802D02*
Y175302D01*
X284573Y197052D02*
Y175552D01*
X176323Y141802D02*
Y134802D01*
X284573Y141802D02*
Y134802D01*
X190565Y608848D02*
Y601348D01*
X223065Y608848D02*
Y601348D01*
X158301Y739200D02*
X165801D01*
X158301Y706700D02*
X165801D01*
X405551Y674200D02*
X417551D01*
X460551D02*
X472551D01*
X405551D02*
Y637450D01*
X472551Y674200D02*
Y637450D01*
X140551Y588950D02*
X150801D01*
X140551Y617450D02*
X150801D01*
X190801Y682450D02*
X201051D01*
X190801Y653950D02*
X201051D01*
X201301Y758200D02*
Y747950D01*
X229801Y758200D02*
Y747950D01*
X204559Y689192D02*
X214809D01*
X204559Y717692D02*
X214809D01*
X772974Y222108D02*
G03*
X775974Y225108I0J3000D01*
G01*
D02*
G03*
X772974Y228108I-3000J-0D01*
G01*
X779974Y225208D02*
G03*
X782974Y222208I3000J0D01*
G01*
Y228108D02*
G03*
X779974Y225108I0J-3000D01*
G01*
X681200Y269180D02*
G03*
X681200Y269180I0J1000D01*
G01*
X773074Y233108D02*
X782774D01*
X782974D02*
Y228108D01*
Y222208D02*
Y217208D01*
X773074Y217108D02*
X782774D01*
X772974Y222108D02*
Y217108D01*
Y233108D02*
Y228108D01*
X779532Y904076D02*
X789782D01*
X779532Y932576D02*
X789782D01*
X906908Y171700D02*
X917158D01*
X906908Y143200D02*
X917158D01*
X735658Y877950D02*
X745908D01*
X735658Y849450D02*
X745908D01*
X689916Y299289D02*
X703113D01*
X689916Y311989D02*
Y299289D01*
X690166Y446040D02*
X702865D01*
X690166D02*
Y432842D01*
X836916Y446040D02*
Y433340D01*
X823719Y446040D02*
X836916D01*
X823967Y299540D02*
X836666D01*
Y312737D02*
Y299540D01*
X631430Y134802D02*
X739680D01*
X631430Y196802D02*
Y175302D01*
X739680Y197052D02*
Y175552D01*
X631430Y141802D02*
Y134802D01*
X739680Y141802D02*
Y134802D01*
X645672Y608848D02*
Y601348D01*
X678172Y608848D02*
Y601348D01*
X613408Y739200D02*
X620908D01*
X613408Y706700D02*
X620908D01*
X860658Y674200D02*
X872658D01*
X915658D02*
X927658D01*
X860658D02*
Y637450D01*
X927658Y674200D02*
Y637450D01*
X595658Y588950D02*
X605908D01*
X595658Y617450D02*
X605908D01*
X645908Y682450D02*
X656158D01*
X645908Y653950D02*
X656158D01*
X656408Y758200D02*
Y747950D01*
X684908Y758200D02*
Y747950D01*
X659666Y689192D02*
X669916D01*
X659666Y717692D02*
X669916D01*
X1228082Y222108D02*
G03*
X1231082Y225108I0J3000D01*
G01*
D02*
G03*
X1228082Y228108I-3000J-0D01*
G01*
X1235082Y225208D02*
G03*
X1238082Y222208I3000J0D01*
G01*
Y228108D02*
G03*
X1235082Y225108I0J-3000D01*
G01*
X1136308Y269180D02*
G03*
X1136308Y269180I0J1000D01*
G01*
X1228182Y233108D02*
X1237882D01*
X1238082D02*
Y228108D01*
Y222208D02*
Y217208D01*
X1228182Y217108D02*
X1237882D01*
X1228082Y222108D02*
Y217108D01*
Y233108D02*
Y228108D01*
X1234640Y904076D02*
X1244890D01*
X1234640Y932576D02*
X1244890D01*
X1362016Y171700D02*
X1372266D01*
X1362016Y143200D02*
X1372266D01*
X1190766Y877950D02*
X1201016D01*
X1190766Y849450D02*
X1201016D01*
X1145024Y299289D02*
X1158221D01*
X1145024Y311989D02*
Y299289D01*
X1145274Y446040D02*
X1157973D01*
X1145274D02*
Y432842D01*
X1292024Y446040D02*
Y433340D01*
X1278826Y446040D02*
X1292024D01*
X1279074Y299540D02*
X1291774D01*
Y312737D02*
Y299540D01*
X1086538Y134802D02*
X1194788D01*
X1086538Y196802D02*
Y175302D01*
X1194788Y197052D02*
Y175552D01*
X1086538Y141802D02*
Y134802D01*
X1194788Y141802D02*
Y134802D01*
X1100780Y608848D02*
Y601348D01*
X1133280Y608848D02*
Y601348D01*
X1068516Y739200D02*
X1076016D01*
X1068516Y706700D02*
X1076016D01*
X1315766Y674200D02*
X1327766D01*
X1370766D02*
X1382766D01*
X1315766D02*
Y637450D01*
X1382766Y674200D02*
Y637450D01*
X1050766Y588950D02*
X1061016D01*
X1050766Y617450D02*
X1061016D01*
X1101016Y682450D02*
X1111266D01*
X1101016Y653950D02*
X1111266D01*
X1111516Y758200D02*
Y747950D01*
X1140016Y758200D02*
Y747950D01*
X1114774Y689192D02*
X1125024D01*
X1114774Y717692D02*
X1125024D01*
X1683189Y222108D02*
G03*
X1686189Y225108I0J3000D01*
G01*
D02*
G03*
X1683189Y228108I-3000J-0D01*
G01*
X1690189Y225208D02*
G03*
X1693189Y222208I3000J0D01*
G01*
Y228108D02*
G03*
X1690189Y225108I0J-3000D01*
G01*
X1591415Y269180D02*
G03*
X1591415Y269180I0J1000D01*
G01*
X1683289Y233108D02*
X1692989D01*
X1693189D02*
Y228108D01*
Y222208D02*
Y217208D01*
X1683289Y217108D02*
X1692989D01*
X1683189Y222108D02*
Y217108D01*
Y233108D02*
Y228108D01*
X1689747Y904076D02*
X1699997D01*
X1689747Y932576D02*
X1699997D01*
X1817123Y171700D02*
X1827373D01*
X1817123Y143200D02*
X1827373D01*
X1645873Y877950D02*
X1656123D01*
X1645873Y849450D02*
X1656123D01*
X1600131Y299289D02*
X1613328D01*
X1600131Y311989D02*
Y299289D01*
X1600381Y446040D02*
X1613080D01*
X1600381D02*
Y432842D01*
X1747131Y446040D02*
Y433340D01*
X1733934Y446040D02*
X1747131D01*
X1734182Y299540D02*
X1746881D01*
Y312737D02*
Y299540D01*
X1541645Y134802D02*
X1649895D01*
X1541645Y196802D02*
Y175302D01*
X1649895Y197052D02*
Y175552D01*
X1541645Y141802D02*
Y134802D01*
X1649895Y141802D02*
Y134802D01*
X1555887Y608848D02*
Y601348D01*
X1588387Y608848D02*
Y601348D01*
X1523623Y739200D02*
X1531123D01*
X1523623Y706700D02*
X1531123D01*
X1770873Y674200D02*
X1782873D01*
X1825873D02*
X1837873D01*
X1770873D02*
Y637450D01*
X1837873Y674200D02*
Y637450D01*
X1505873Y588950D02*
X1516123D01*
X1505873Y617450D02*
X1516123D01*
X1556123Y682450D02*
X1566373D01*
X1556123Y653950D02*
X1566373D01*
X1566623Y758200D02*
Y747950D01*
X1595123Y758200D02*
Y747950D01*
X1569881Y689192D02*
X1580131D01*
X1569881Y717692D02*
X1580131D01*
D45*
X312963Y792612D02*
Y786262D01*
X248463Y792612D02*
Y786262D01*
X240213Y829822D02*
X320213D01*
X239963Y750322D02*
X320213D01*
X312963Y792612D02*
X320213D01*
Y829822D02*
Y792612D01*
X240213Y829822D02*
Y792612D01*
X248463D01*
X320213Y786262D02*
Y750322D01*
X312963Y786262D02*
X320213D01*
X239963D02*
X248463D01*
X239963D02*
Y750322D01*
X309963Y786262D02*
Y750322D01*
Y786262D02*
X318463D01*
X382963D02*
X390213D01*
Y750322D01*
X310213Y792612D02*
X318463D01*
X310213Y829822D02*
Y792612D01*
X390213Y829822D02*
Y792612D01*
X382963D02*
X390213D01*
X309963Y750322D02*
X390213D01*
X310213Y829822D02*
X390213D01*
X318463Y792612D02*
Y786262D01*
X382963Y792612D02*
Y786262D01*
X477801Y721199D02*
X500552D01*
Y743950D02*
Y721199D01*
X477801Y871200D02*
X500552D01*
Y848449D01*
X410552Y871200D02*
Y848449D01*
Y871200D02*
X433303D01*
X410552Y721199D02*
X433303D01*
X410552Y743950D02*
Y721199D01*
X250053Y524202D02*
X264553D01*
X250053Y560201D02*
X264553D01*
X365053Y524202D02*
X380053D01*
X365053Y560201D02*
X380053D01*
Y524202D01*
X250053Y560201D02*
Y524202D01*
X306303D02*
X324303D01*
X306303Y560201D02*
X324303D01*
X768070Y792612D02*
Y786262D01*
X703570Y792612D02*
Y786262D01*
X695320Y829822D02*
X775320D01*
X695070Y750322D02*
X775320D01*
X768070Y792612D02*
X775320D01*
Y829822D02*
Y792612D01*
X695320Y829822D02*
Y792612D01*
X703570D01*
X775320Y786262D02*
Y750322D01*
X768070Y786262D02*
X775320D01*
X695070D02*
X703570D01*
X695070D02*
Y750322D01*
X765070Y786262D02*
Y750322D01*
Y786262D02*
X773570D01*
X838070D02*
X845320D01*
Y750322D01*
X765320Y792612D02*
X773570D01*
X765320Y829822D02*
Y792612D01*
X845320Y829822D02*
Y792612D01*
X838070D02*
X845320D01*
X765070Y750322D02*
X845320D01*
X765320Y829822D02*
X845320D01*
X773570Y792612D02*
Y786262D01*
X838070Y792612D02*
Y786262D01*
X932909Y721199D02*
X955659D01*
Y743950D02*
Y721199D01*
X932909Y871200D02*
X955659D01*
Y848449D01*
X865660Y871200D02*
Y848449D01*
Y871200D02*
X888410D01*
X865660Y721199D02*
X888410D01*
X865660Y743950D02*
Y721199D01*
X705160Y524202D02*
X719660D01*
X705160Y560201D02*
X719660D01*
X820160Y524202D02*
X835160D01*
X820160Y560201D02*
X835160D01*
Y524202D01*
X705160Y560201D02*
Y524202D01*
X761410D02*
X779410D01*
X761410Y560201D02*
X779410D01*
X1223178Y792612D02*
Y786262D01*
X1158678Y792612D02*
Y786262D01*
X1150428Y829822D02*
X1230428D01*
X1150178Y750322D02*
X1230428D01*
X1223178Y792612D02*
X1230428D01*
Y829822D02*
Y792612D01*
X1150428Y829822D02*
Y792612D01*
X1158678D01*
X1230428Y786262D02*
Y750322D01*
X1223178Y786262D02*
X1230428D01*
X1150178D02*
X1158678D01*
X1150178D02*
Y750322D01*
X1220178Y786262D02*
Y750322D01*
Y786262D02*
X1228678D01*
X1293178D02*
X1300428D01*
Y750322D01*
X1220428Y792612D02*
X1228678D01*
X1220428Y829822D02*
Y792612D01*
X1300428Y829822D02*
Y792612D01*
X1293178D02*
X1300428D01*
X1220178Y750322D02*
X1300428D01*
X1220428Y829822D02*
X1300428D01*
X1228678Y792612D02*
Y786262D01*
X1293178Y792612D02*
Y786262D01*
X1388016Y721199D02*
X1410767D01*
Y743950D02*
Y721199D01*
X1388016Y871200D02*
X1410767D01*
Y848449D01*
X1320767Y871200D02*
Y848449D01*
Y871200D02*
X1343518D01*
X1320767Y721199D02*
X1343518D01*
X1320767Y743950D02*
Y721199D01*
X1160268Y524202D02*
X1174768D01*
X1160268Y560201D02*
X1174768D01*
X1275268Y524202D02*
X1290268D01*
X1275268Y560201D02*
X1290268D01*
Y524202D01*
X1160268Y560201D02*
Y524202D01*
X1216518D02*
X1234518D01*
X1216518Y560201D02*
X1234518D01*
X1678285Y792612D02*
Y786262D01*
X1613785Y792612D02*
Y786262D01*
X1605535Y829822D02*
X1685535D01*
X1605285Y750322D02*
X1685535D01*
X1678285Y792612D02*
X1685535D01*
Y829822D02*
Y792612D01*
X1605535Y829822D02*
Y792612D01*
X1613785D01*
X1685535Y786262D02*
Y750322D01*
X1678285Y786262D02*
X1685535D01*
X1605285D02*
X1613785D01*
X1605285D02*
Y750322D01*
X1675285Y786262D02*
Y750322D01*
Y786262D02*
X1683785D01*
X1748285D02*
X1755535D01*
Y750322D01*
X1675535Y792612D02*
X1683785D01*
X1675535Y829822D02*
Y792612D01*
X1755535Y829822D02*
Y792612D01*
X1748285D02*
X1755535D01*
X1675285Y750322D02*
X1755535D01*
X1675535Y829822D02*
X1755535D01*
X1683785Y792612D02*
Y786262D01*
X1748285Y792612D02*
Y786262D01*
X1843123Y721199D02*
X1865874D01*
Y743950D02*
Y721199D01*
X1843123Y871200D02*
X1865874D01*
Y848449D01*
X1775875Y871200D02*
Y848449D01*
Y871200D02*
X1798625D01*
X1775875Y721199D02*
X1798625D01*
X1775875Y743950D02*
Y721199D01*
X1615375Y524202D02*
X1629875D01*
X1615375Y560201D02*
X1629875D01*
X1730375Y524202D02*
X1745375D01*
X1730375Y560201D02*
X1745375D01*
Y524202D01*
X1615375Y560201D02*
Y524202D01*
X1671625D02*
X1689625D01*
X1671625Y560201D02*
X1689625D01*
D46*
X356059Y290040D02*
G03*
X356059Y290040I0J1500D01*
G01*
X811166D02*
G03*
X811166Y290040I0J1500D01*
G01*
X1266274D02*
G03*
X1266274Y290040I0J1500D01*
G01*
X1721381D02*
G03*
X1721381Y290040I0J1500D01*
G01*
D47*
X197315Y627848D02*
G03*
X197315Y627848I0J1000D01*
G01*
X138301Y712450D02*
G03*
X138301Y712450I0J1000D01*
G01*
X652422Y627848D02*
G03*
X652422Y627848I0J1000D01*
G01*
X593408Y712450D02*
G03*
X593408Y712450I0J1000D01*
G01*
X1107530Y627848D02*
G03*
X1107530Y627848I0J1000D01*
G01*
X1048516Y712450D02*
G03*
X1048516Y712450I0J1000D01*
G01*
X1562637Y627848D02*
G03*
X1562637Y627848I0J1000D01*
G01*
X1503623Y712450D02*
G03*
X1503623Y712450I0J1000D01*
G01*
D80*
X283610Y811094D02*
G03*
X276724Y811049I-3398J-7022D01*
G01*
X276236Y797361D02*
G03*
X284001Y797252I3977J6711D01*
G01*
X346236Y797361D02*
G03*
X354001Y797252I3977J6711D01*
G01*
X353610Y811094D02*
G03*
X346724Y811049I-3398J-7022D01*
G01*
X386751Y565750D02*
Y559500D01*
X390751D02*
X388819Y558982D01*
Y545268D02*
X390751Y544750D01*
X386751Y559500D02*
X390751D01*
X387001Y544750D02*
X390751D01*
X387001D02*
Y538500D01*
X385721Y233222D02*
X421281D01*
X385721Y177832D02*
X421281D01*
X385721Y104172D02*
X421027D01*
X421281Y104426D02*
X421027Y104172D01*
X421281Y271812D02*
Y104426D01*
X385721Y271812D02*
Y104172D01*
Y271812D02*
X421281D01*
X346721Y233222D02*
X382281D01*
X346721Y177832D02*
X382281D01*
X346721Y104172D02*
X382027D01*
X382281Y104426D02*
X382027Y104172D01*
X382281Y271812D02*
Y104426D01*
X346721Y271812D02*
Y104172D01*
Y271812D02*
X382281D01*
X219529Y369472D02*
X224529D01*
X219809Y360782D02*
X224809D01*
X318051Y461700D02*
Y456700D01*
X393001Y391750D02*
X398001D01*
X317501Y275500D02*
Y270500D01*
Y287000D02*
Y282000D01*
X381601Y875992D02*
X389101D01*
X219783Y296066D02*
X224783D01*
X233341Y834902D02*
Y827402D01*
X330751Y248250D02*
Y240750D01*
X145500Y154565D02*
Y149565D01*
X321001Y270500D02*
X326001D01*
X283401Y244000D02*
Y237000D01*
X272401Y244000D02*
Y237000D01*
X283401D01*
X272401Y244000D02*
X283401D01*
X222343Y262134D02*
Y246180D01*
X239841Y262182D02*
Y246227D01*
X393031Y661362D02*
X400531D01*
X406829Y601020D02*
Y593520D01*
X415563Y487704D02*
Y482704D01*
X389749Y523249D02*
X390749Y522249D01*
Y520250D01*
X389749Y519250D01*
X385751D01*
X384751Y520250D01*
Y522249D01*
X385751Y523249D01*
X387750D01*
Y521249D01*
X384751Y525248D02*
X390749D01*
X384751Y529247D01*
X390749D01*
Y531246D02*
X384751D01*
Y534245D01*
X385751Y535245D01*
X389749D01*
X390749Y534245D01*
Y531246D01*
X390249Y569000D02*
X386250D01*
X384251Y570999D01*
X386250Y572999D01*
X390249D01*
X389249Y578997D02*
X390249Y577997D01*
Y575998D01*
X389249Y574998D01*
X385251D01*
X384251Y575998D01*
Y577997D01*
X385251Y578997D01*
X389249Y584995D02*
X390249Y583995D01*
Y581996D01*
X389249Y580996D01*
X385251D01*
X384251Y581996D01*
Y583995D01*
X385251Y584995D01*
X393479Y281086D02*
Y285085D01*
X395478Y287084D01*
X397477Y285085D01*
Y281086D01*
X403475Y282086D02*
X402476Y281086D01*
X400476D01*
X399477Y282086D01*
Y286084D01*
X400476Y287084D01*
X402476D01*
X403475Y286084D01*
X409474Y282086D02*
X408474Y281086D01*
X406475D01*
X405475Y282086D01*
Y286084D01*
X406475Y287084D01*
X408474D01*
X409474Y286084D01*
X397500Y364252D02*
X396500Y363252D01*
X394501D01*
X393501Y364252D01*
Y368250D01*
X394501Y369250D01*
X396500D01*
X397500Y368250D01*
Y366251D01*
X395500D01*
X399499Y369250D02*
Y363252D01*
X403498Y369250D01*
Y363252D01*
X405497D02*
Y369250D01*
X408496D01*
X409496Y368250D01*
Y364252D01*
X408496Y363252D01*
X405497D01*
X417749Y132249D02*
Y128250D01*
X411751D01*
Y132249D01*
X414750Y128250D02*
Y130249D01*
X417749Y134248D02*
X411751Y138247D01*
X417749D02*
X411751Y134248D01*
X417749Y140246D02*
Y144245D01*
Y142246D01*
X411751D01*
Y149243D02*
X417749D01*
X414750Y146244D01*
Y150243D01*
X378999Y132749D02*
Y128750D01*
X373001D01*
Y132749D01*
X376000Y128750D02*
Y130749D01*
X378999Y134748D02*
X373001Y138747D01*
X378999D02*
X373001Y134748D01*
X378999Y140746D02*
Y144745D01*
Y142746D01*
X373001D01*
Y150743D02*
Y146744D01*
X377000Y150743D01*
X377999D01*
X378999Y149743D01*
Y147744D01*
X377999Y146744D01*
X224233Y402081D02*
X225233Y401081D01*
Y399082D01*
X224233Y398082D01*
X220235D01*
X219235Y399082D01*
Y401081D01*
X220235Y402081D01*
X219235Y404080D02*
Y406079D01*
Y405080D01*
X225233D01*
X224233Y404080D01*
X224995Y328421D02*
X225995Y327421D01*
Y325422D01*
X224995Y324422D01*
X220996D01*
X219997Y325422D01*
Y327421D01*
X220996Y328421D01*
X219997Y334419D02*
Y330420D01*
X223995Y334419D01*
X224995D01*
X225995Y333419D01*
Y331420D01*
X224995Y330420D01*
X306749Y472317D02*
X305749Y471317D01*
X303750D01*
X302750Y472317D01*
Y476316D01*
X303750Y477315D01*
X305749D01*
X306749Y476316D01*
X308748Y472317D02*
X309748Y471317D01*
X311748D01*
X312747Y472317D01*
Y473317D01*
X311748Y474316D01*
X310748D01*
X311748D01*
X312747Y475316D01*
Y476316D01*
X311748Y477315D01*
X309748D01*
X308748Y476316D01*
X406166Y381082D02*
X406999Y380249D01*
Y378583D01*
X406166Y377750D01*
X402834D01*
X402001Y378583D01*
Y380249D01*
X402834Y381082D01*
X402001Y385248D02*
X406999D01*
X404500Y382748D01*
Y386081D01*
X288671Y271028D02*
X287671Y270028D01*
X285672D01*
X284672Y271028D01*
Y275026D01*
X285672Y276026D01*
X287671D01*
X288671Y275026D01*
X290671D02*
X291670Y276026D01*
X293669D01*
X294669Y275026D01*
Y271028D01*
X293669Y270028D01*
X291670D01*
X290671Y271028D01*
Y272027D01*
X291670Y273027D01*
X294669D01*
X283414Y282804D02*
X282414Y281804D01*
X280415D01*
X279415Y282804D01*
Y286802D01*
X280415Y287802D01*
X282414D01*
X283414Y286802D01*
X285413Y287802D02*
X287412D01*
X286413D01*
Y281804D01*
X285413Y282804D01*
X290411D02*
X291411Y281804D01*
X293410D01*
X294410Y282804D01*
Y286802D01*
X293410Y287802D01*
X291411D01*
X290411Y286802D01*
Y282804D01*
X398223Y858519D02*
X399223Y857519D01*
Y855520D01*
X398223Y854520D01*
X394225D01*
X393225Y855520D01*
Y857519D01*
X394225Y858519D01*
X393225Y860518D02*
Y862517D01*
Y861518D01*
X399223D01*
X398223Y860518D01*
X393225Y865516D02*
Y867516D01*
Y866516D01*
X399223D01*
X398223Y865516D01*
X226519Y281939D02*
X227519Y280939D01*
Y278940D01*
X226519Y277940D01*
X222521D01*
X221521Y278940D01*
Y280939D01*
X222521Y281939D01*
X221521Y283938D02*
Y285937D01*
Y284938D01*
X227519D01*
X226519Y283938D01*
X221521Y292935D02*
Y288936D01*
X225520Y292935D01*
X226519D01*
X227519Y291936D01*
Y289936D01*
X226519Y288936D01*
X191483Y828948D02*
X190484Y827948D01*
X188484D01*
X187485Y828948D01*
Y832946D01*
X188484Y833946D01*
X190484D01*
X191483Y832946D01*
X193483Y833946D02*
X195482D01*
X194482D01*
Y827948D01*
X193483Y828948D01*
X198481D02*
X199481Y827948D01*
X201480D01*
X202480Y828948D01*
Y829947D01*
X201480Y830947D01*
X200481D01*
X201480D01*
X202480Y831947D01*
Y832946D01*
X201480Y833946D01*
X199481D01*
X198481Y832946D01*
X305373Y253316D02*
X304374Y252316D01*
X302374D01*
X301375Y253316D01*
Y257314D01*
X302374Y258314D01*
X304374D01*
X305373Y257314D01*
X307373Y258314D02*
X309372D01*
X308372D01*
Y252316D01*
X307373Y253316D01*
X315370Y258314D02*
Y252316D01*
X312371Y255315D01*
X316370D01*
X153499Y140817D02*
X152500Y139817D01*
X150500D01*
X149501Y140817D01*
Y144816D01*
X150500Y145815D01*
X152500D01*
X153499Y144816D01*
X155499Y145815D02*
X157498D01*
X156498D01*
Y139817D01*
X155499Y140817D01*
X160497Y144816D02*
X161497Y145815D01*
X163496D01*
X164496Y144816D01*
Y140817D01*
X163496Y139817D01*
X161497D01*
X160497Y140817D01*
Y141817D01*
X161497Y142816D01*
X164496D01*
X325333Y256416D02*
X326249Y255499D01*
Y253666D01*
X325333Y252750D01*
X321667D01*
X320751Y253666D01*
Y255499D01*
X321667Y256416D01*
X325333Y258248D02*
X326249Y259165D01*
Y260997D01*
X325333Y261914D01*
X324416D01*
X323500Y260997D01*
Y260081D01*
Y260997D01*
X322584Y261914D01*
X321667D01*
X320751Y260997D01*
Y259165D01*
X321667Y258248D01*
X325333Y263746D02*
X326249Y264663D01*
Y266495D01*
X325333Y267412D01*
X321667D01*
X320751Y266495D01*
Y264663D01*
X321667Y263746D01*
X325333D01*
X242857Y237398D02*
Y243396D01*
X245856D01*
X246856Y242396D01*
Y238398D01*
X245856Y237398D01*
X242857D01*
X248855Y243396D02*
X250854D01*
X249855D01*
Y237398D01*
X248855Y238398D01*
X253853Y243396D02*
X255853D01*
X254853D01*
Y237398D01*
X253853Y238398D01*
X295623Y222158D02*
X291625D01*
Y225157D01*
X293624D01*
X291625D01*
Y228156D01*
X297623D02*
X299622D01*
X298622D01*
Y222158D01*
X297623Y223158D01*
X417999Y368915D02*
Y367083D01*
Y367999D01*
X413417D01*
X412501Y367083D01*
Y366166D01*
X413417Y365250D01*
X412501Y374414D02*
Y370748D01*
X416166Y374414D01*
X417083D01*
X417999Y373497D01*
Y371665D01*
X417083Y370748D01*
X249001Y268502D02*
Y274500D01*
X252999D01*
X254999D02*
X256998D01*
X255998D01*
Y268502D01*
X254999Y269502D01*
X192533Y238272D02*
Y244270D01*
X196532D01*
X202530D02*
X198531D01*
X202530Y240271D01*
Y239272D01*
X201530Y238272D01*
X199531D01*
X198531Y239272D01*
X336999Y942066D02*
Y938067D01*
X335999Y937067D01*
X334000D01*
X333000Y938067D01*
Y942066D01*
X334000Y943065D01*
X335999D01*
X335000Y941066D02*
X336999Y943065D01*
X335999D02*
X336999Y942066D01*
X338998Y943065D02*
X340998D01*
X339998D01*
Y937067D01*
X338998Y938067D01*
X472750Y156064D02*
X476749D01*
X477748Y155064D01*
Y153065D01*
X476749Y152065D01*
X472750D01*
X471750Y153065D01*
Y155064D01*
X473750Y154065D02*
X471750Y156064D01*
Y155064D02*
X472750Y156064D01*
X471750Y162062D02*
Y158063D01*
X475749Y162062D01*
X476749D01*
X477748Y161062D01*
Y159063D01*
X476749Y158063D01*
X279367Y887622D02*
Y883623D01*
X278368Y882623D01*
X276368D01*
X275368Y883623D01*
Y887622D01*
X276368Y888621D01*
X278368D01*
X277368Y886622D02*
X279367Y888621D01*
X278368D02*
X279367Y887622D01*
X284366Y888621D02*
Y882623D01*
X281367Y885622D01*
X285365D01*
X378000Y907815D02*
Y901817D01*
X380999D01*
X381999Y902817D01*
Y904816D01*
X380999Y905816D01*
X378000D01*
X380000D02*
X381999Y907815D01*
X383998D02*
X385998D01*
X384998D01*
Y901817D01*
X383998Y902817D01*
X359751Y931815D02*
X365748D01*
Y934814D01*
X364749Y935814D01*
X362749D01*
X361750Y934814D01*
Y931815D01*
Y933815D02*
X359751Y935814D01*
X364749Y937813D02*
X365748Y938813D01*
Y940812D01*
X364749Y941812D01*
X363749D01*
X362749Y940812D01*
Y939813D01*
Y940812D01*
X361750Y941812D01*
X360750D01*
X359751Y940812D01*
Y938813D01*
X360750Y937813D01*
X455251Y199315D02*
X461249D01*
Y202314D01*
X460249Y203314D01*
X458250D01*
X457250Y202314D01*
Y199315D01*
Y201315D02*
X455251Y203314D01*
Y208312D02*
X461249D01*
X458250Y205313D01*
Y209312D01*
X434501Y198815D02*
X440499D01*
Y201814D01*
X439499Y202814D01*
X437500D01*
X436500Y201814D01*
Y198815D01*
Y200815D02*
X434501Y202814D01*
X440499Y208812D02*
X439499Y206813D01*
X437500Y204813D01*
X435500D01*
X434501Y205813D01*
Y207812D01*
X435500Y208812D01*
X436500D01*
X437500Y207812D01*
Y204813D01*
X446501Y259250D02*
Y253752D01*
X449250D01*
X450166Y254668D01*
Y256501D01*
X449250Y257417D01*
X446501D01*
X448334D02*
X450166Y259250D01*
X451999Y254668D02*
X452915Y253752D01*
X454748D01*
X455664Y254668D01*
Y255585D01*
X454748Y256501D01*
X455664Y257417D01*
Y258334D01*
X454748Y259250D01*
X452915D01*
X451999Y258334D01*
Y257417D01*
X452915Y256501D01*
X451999Y255585D01*
Y254668D01*
X452915Y256501D02*
X454748D01*
X348801Y475096D02*
X354799D01*
Y478095D01*
X353799Y479094D01*
X351800D01*
X350800Y478095D01*
Y475096D01*
Y477095D02*
X348801Y479094D01*
Y481094D02*
Y483093D01*
Y482093D01*
X354799D01*
X353799Y481094D01*
Y486092D02*
X354799Y487092D01*
Y489091D01*
X353799Y490091D01*
X349800D01*
X348801Y489091D01*
Y487092D01*
X349800Y486092D01*
X353799D01*
X338133Y475350D02*
X344131D01*
Y478349D01*
X343131Y479348D01*
X341132D01*
X340132Y478349D01*
Y475350D01*
Y477349D02*
X338133Y479348D01*
Y481348D02*
Y483347D01*
Y482347D01*
X344131D01*
X343131Y481348D01*
X338133Y486346D02*
Y488345D01*
Y487346D01*
X344131D01*
X343131Y486346D01*
X323883Y475298D02*
X329881D01*
Y478297D01*
X328881Y479297D01*
X326882D01*
X325882Y478297D01*
Y475298D01*
Y477297D02*
X323883Y479297D01*
Y481296D02*
Y483295D01*
Y482296D01*
X329881D01*
X328881Y481296D01*
X323883Y490293D02*
Y486294D01*
X327882Y490293D01*
X328881D01*
X329881Y489294D01*
Y487294D01*
X328881Y486294D01*
X263750Y478815D02*
X269748D01*
Y481814D01*
X268749Y482814D01*
X266749D01*
X265750Y481814D01*
Y478815D01*
Y480815D02*
X263750Y482814D01*
Y484813D02*
Y486813D01*
Y485813D01*
X269748D01*
X268749Y484813D01*
X269748Y493810D02*
X268749Y491811D01*
X266749Y489812D01*
X264750D01*
X263750Y490811D01*
Y492811D01*
X264750Y493810D01*
X265750D01*
X266749Y492811D01*
Y489812D01*
X273565Y473674D02*
X279563D01*
Y476673D01*
X278563Y477672D01*
X276564D01*
X275564Y476673D01*
Y473674D01*
Y475673D02*
X273565Y477672D01*
Y479672D02*
Y481671D01*
Y480671D01*
X279563D01*
X278563Y479672D01*
X279563Y484670D02*
Y488669D01*
X278563D01*
X274564Y484670D01*
X273565D01*
X283475Y473674D02*
X289473D01*
Y476673D01*
X288473Y477672D01*
X286474D01*
X285474Y476673D01*
Y473674D01*
Y475673D02*
X283475Y477672D01*
Y479672D02*
Y481671D01*
Y480671D01*
X289473D01*
X288473Y479672D01*
Y484670D02*
X289473Y485670D01*
Y487669D01*
X288473Y488669D01*
X287474D01*
X286474Y487669D01*
X285474Y488669D01*
X284474D01*
X283475Y487669D01*
Y485670D01*
X284474Y484670D01*
X285474D01*
X286474Y485670D01*
X287474Y484670D01*
X288473D01*
X286474Y485670D02*
Y487669D01*
X372001Y856565D02*
X377999D01*
Y859564D01*
X376999Y860564D01*
X375000D01*
X374000Y859564D01*
Y856565D01*
Y858565D02*
X372001Y860564D01*
Y862563D02*
Y864563D01*
Y863563D01*
X377999D01*
X376999Y862563D01*
X373000Y867562D02*
X372001Y868561D01*
Y870561D01*
X373000Y871560D01*
X376999D01*
X377999Y870561D01*
Y868561D01*
X376999Y867562D01*
X375999D01*
X375000Y868561D01*
Y871560D01*
X393000Y422065D02*
Y417067D01*
X395500D01*
X396333Y417900D01*
Y419566D01*
X395500Y420399D01*
X393000D01*
X394667D02*
X396333Y422065D01*
X401331D02*
X397999D01*
X401331Y418733D01*
Y417900D01*
X400498Y417067D01*
X398832D01*
X397999Y417900D01*
X405496Y422065D02*
Y417067D01*
X402997Y419566D01*
X406329D01*
X392251Y449750D02*
Y444752D01*
X394750D01*
X395583Y445585D01*
Y447251D01*
X394750Y448084D01*
X392251D01*
X393917D02*
X395583Y449750D01*
X400581D02*
X397249D01*
X400581Y446418D01*
Y445585D01*
X399748Y444752D01*
X398082D01*
X397249Y445585D01*
X405580Y444752D02*
X402248D01*
Y447251D01*
X403914Y446418D01*
X404747D01*
X405580Y447251D01*
Y448917D01*
X404747Y449750D01*
X403081D01*
X402248Y448917D01*
X348750Y875565D02*
X354748D01*
Y878564D01*
X353749Y879564D01*
X351749D01*
X350750Y878564D01*
Y875565D01*
Y877565D02*
X348750Y879564D01*
Y885562D02*
Y881563D01*
X352749Y885562D01*
X353749D01*
X354748Y884562D01*
Y882563D01*
X353749Y881563D01*
X354748Y891560D02*
X353749Y889561D01*
X351749Y887561D01*
X349750D01*
X348750Y888561D01*
Y890560D01*
X349750Y891560D01*
X350750D01*
X351749Y890560D01*
Y887561D01*
X332500Y847065D02*
Y841067D01*
X335499D01*
X336499Y842067D01*
Y844066D01*
X335499Y845066D01*
X332500D01*
X334500D02*
X336499Y847065D01*
X342497D02*
X338498D01*
X342497Y843067D01*
Y842067D01*
X341498Y841067D01*
X339498D01*
X338498Y842067D01*
X344497Y841067D02*
X348495D01*
Y842067D01*
X344497Y846066D01*
Y847065D01*
X378251Y451750D02*
X384249D01*
Y454749D01*
X383249Y455749D01*
X381250D01*
X380250Y454749D01*
Y451750D01*
Y453749D02*
X378251Y455749D01*
Y461747D02*
Y457748D01*
X382249Y461747D01*
X383249D01*
X384249Y460747D01*
Y458748D01*
X383249Y457748D01*
Y463746D02*
X384249Y464746D01*
Y466745D01*
X383249Y467745D01*
X382249D01*
X381250Y466745D01*
X380250Y467745D01*
X379250D01*
X378251Y466745D01*
Y464746D01*
X379250Y463746D01*
X380250D01*
X381250Y464746D01*
X382249Y463746D01*
X383249D01*
X381250Y464746D02*
Y466745D01*
X407501Y452000D02*
X413499D01*
Y454999D01*
X412499Y455999D01*
X410500D01*
X409500Y454999D01*
Y452000D01*
Y453999D02*
X407501Y455999D01*
Y461997D02*
Y457998D01*
X411499Y461997D01*
X412499D01*
X413499Y460997D01*
Y458998D01*
X412499Y457998D01*
X408501Y463996D02*
X407501Y464996D01*
Y466995D01*
X408501Y467995D01*
X412499D01*
X413499Y466995D01*
Y464996D01*
X412499Y463996D01*
X411499D01*
X410500Y464996D01*
Y467995D01*
X233967Y453708D02*
X239965D01*
Y456707D01*
X238965Y457707D01*
X236966D01*
X235966Y456707D01*
Y453708D01*
Y455707D02*
X233967Y457707D01*
X238965Y459706D02*
X239965Y460706D01*
Y462705D01*
X238965Y463705D01*
X237966D01*
X236966Y462705D01*
Y461705D01*
Y462705D01*
X235966Y463705D01*
X234967D01*
X233967Y462705D01*
Y460706D01*
X234967Y459706D01*
X238965Y465704D02*
X239965Y466704D01*
Y468703D01*
X238965Y469703D01*
X234967D01*
X233967Y468703D01*
Y466704D01*
X234967Y465704D01*
X238965D01*
X221501Y780000D02*
X227499D01*
Y782999D01*
X226499Y783999D01*
X224500D01*
X223500Y782999D01*
Y780000D01*
Y781999D02*
X221501Y783999D01*
X226499Y785998D02*
X227499Y786998D01*
Y788997D01*
X226499Y789997D01*
X225499D01*
X224500Y788997D01*
Y787997D01*
Y788997D01*
X223500Y789997D01*
X222500D01*
X221501Y788997D01*
Y786998D01*
X222500Y785998D01*
X221501Y791996D02*
Y793996D01*
Y792996D01*
X227499D01*
X226499Y791996D01*
X395751Y399750D02*
Y394752D01*
X398250D01*
X399083Y395585D01*
Y397251D01*
X398250Y398084D01*
X395751D01*
X397417D02*
X399083Y399750D01*
X400749Y395585D02*
X401582Y394752D01*
X403248D01*
X404081Y395585D01*
Y396418D01*
X403248Y397251D01*
X402415D01*
X403248D01*
X404081Y398084D01*
Y398917D01*
X403248Y399750D01*
X401582D01*
X400749Y398917D01*
X409080Y399750D02*
X405747D01*
X409080Y396418D01*
Y395585D01*
X408247Y394752D01*
X406581D01*
X405747Y395585D01*
X239001Y286750D02*
Y280752D01*
X242000D01*
X242999Y281752D01*
Y283751D01*
X242000Y284751D01*
X239001D01*
X241000D02*
X242999Y286750D01*
X244999Y281752D02*
X245998Y280752D01*
X247998D01*
X248997Y281752D01*
Y282751D01*
X247998Y283751D01*
X246998D01*
X247998D01*
X248997Y284751D01*
Y285750D01*
X247998Y286750D01*
X245998D01*
X244999Y285750D01*
X250997Y281752D02*
X251997Y280752D01*
X253996D01*
X254996Y281752D01*
Y282751D01*
X253996Y283751D01*
X252996D01*
X253996D01*
X254996Y284751D01*
Y285750D01*
X253996Y286750D01*
X251997D01*
X250997Y285750D01*
X221501Y800500D02*
X227499D01*
Y803499D01*
X226499Y804499D01*
X224500D01*
X223500Y803499D01*
Y800500D01*
Y802499D02*
X221501Y804499D01*
X226499Y806498D02*
X227499Y807498D01*
Y809497D01*
X226499Y810497D01*
X225499D01*
X224500Y809497D01*
Y808497D01*
Y809497D01*
X223500Y810497D01*
X222500D01*
X221501Y809497D01*
Y807498D01*
X222500Y806498D01*
X221501Y815495D02*
X227499D01*
X224500Y812496D01*
Y816495D01*
X201751Y800250D02*
X207749D01*
Y803249D01*
X206749Y804249D01*
X204750D01*
X203750Y803249D01*
Y800250D01*
Y802249D02*
X201751Y804249D01*
X206749Y806248D02*
X207749Y807248D01*
Y809247D01*
X206749Y810247D01*
X205749D01*
X204750Y809247D01*
Y808247D01*
Y809247D01*
X203750Y810247D01*
X202750D01*
X201751Y809247D01*
Y807248D01*
X202750Y806248D01*
X207749Y816245D02*
Y812246D01*
X204750D01*
X205749Y814246D01*
Y815245D01*
X204750Y816245D01*
X202750D01*
X201751Y815245D01*
Y813246D01*
X202750Y812246D01*
X336001Y280250D02*
Y274252D01*
X339000D01*
X340000Y275252D01*
Y277251D01*
X339000Y278251D01*
X336001D01*
X338000D02*
X340000Y280250D01*
X341999Y275252D02*
X342999Y274252D01*
X344998D01*
X345998Y275252D01*
Y276251D01*
X344998Y277251D01*
X343998D01*
X344998D01*
X345998Y278251D01*
Y279250D01*
X344998Y280250D01*
X342999D01*
X341999Y279250D01*
X351996Y274252D02*
X349996Y275252D01*
X347997Y277251D01*
Y279250D01*
X348997Y280250D01*
X350996D01*
X351996Y279250D01*
Y278251D01*
X350996Y277251D01*
X347997D01*
X430251Y239750D02*
Y234252D01*
X433000D01*
X433916Y235168D01*
Y237001D01*
X433000Y237917D01*
X430251D01*
X432084D02*
X433916Y239750D01*
X435749Y235168D02*
X436665Y234252D01*
X438498D01*
X439414Y235168D01*
Y236084D01*
X438498Y237001D01*
X437582D01*
X438498D01*
X439414Y237917D01*
Y238834D01*
X438498Y239750D01*
X436665D01*
X435749Y238834D01*
X441247Y234252D02*
X444913D01*
Y235168D01*
X441247Y238834D01*
Y239750D01*
X281500Y843065D02*
Y837067D01*
X284499D01*
X285499Y838067D01*
Y840066D01*
X284499Y841066D01*
X281500D01*
X283500D02*
X285499Y843065D01*
X287498Y838067D02*
X288498Y837067D01*
X290498D01*
X291497Y838067D01*
Y839067D01*
X290498Y840066D01*
X289498D01*
X290498D01*
X291497Y841066D01*
Y842066D01*
X290498Y843065D01*
X288498D01*
X287498Y842066D01*
X293497Y838067D02*
X294496Y837067D01*
X296496D01*
X297495Y838067D01*
Y839067D01*
X296496Y840066D01*
X297495Y841066D01*
Y842066D01*
X296496Y843065D01*
X294496D01*
X293497Y842066D01*
Y841066D01*
X294496Y840066D01*
X293497Y839067D01*
Y838067D01*
X294496Y840066D02*
X296496D01*
X245397Y259398D02*
Y253400D01*
X248396D01*
X249396Y254400D01*
Y256399D01*
X248396Y257399D01*
X245397D01*
X247396D02*
X249396Y259398D01*
X254394D02*
Y253400D01*
X251395Y256399D01*
X255394D01*
X257393Y254400D02*
X258393Y253400D01*
X260392D01*
X261392Y254400D01*
Y258398D01*
X260392Y259398D01*
X258393D01*
X257393Y258398D01*
Y254400D01*
X150001Y179750D02*
Y173752D01*
X153000D01*
X154000Y174752D01*
Y176751D01*
X153000Y177751D01*
X150001D01*
X152000D02*
X154000Y179750D01*
X158998D02*
Y173752D01*
X155999Y176751D01*
X159998D01*
X164996Y179750D02*
Y173752D01*
X161997Y176751D01*
X165996D01*
X377887Y434150D02*
X372888D01*
X371889Y435150D01*
Y437149D01*
X372888Y438149D01*
X377887D01*
X371889Y440148D02*
Y442147D01*
Y441148D01*
X377887D01*
X376887Y440148D01*
X400749Y746750D02*
X395751D01*
X394751Y747750D01*
Y749749D01*
X395751Y750749D01*
X400749D01*
X394751Y756747D02*
Y752748D01*
X398750Y756747D01*
X399749D01*
X400749Y755747D01*
Y753748D01*
X399749Y752748D01*
X310603Y735192D02*
X305604D01*
X304605Y736191D01*
Y738191D01*
X305604Y739190D01*
X310603D01*
X309603Y741190D02*
X310603Y742189D01*
Y744189D01*
X309603Y745188D01*
X308603D01*
X307604Y744189D01*
Y743189D01*
Y744189D01*
X306604Y745188D01*
X305604D01*
X304605Y744189D01*
Y742189D01*
X305604Y741190D01*
X493965Y705233D02*
X488966D01*
X487966Y706233D01*
Y708232D01*
X488966Y709232D01*
X493965D01*
Y715230D02*
Y711231D01*
X490965D01*
X491965Y713231D01*
Y714230D01*
X490965Y715230D01*
X488966D01*
X487966Y714230D01*
Y712231D01*
X488966Y711231D01*
X280097Y180404D02*
X275098D01*
X274099Y181404D01*
Y183403D01*
X275098Y184403D01*
X280097D01*
X279097Y186402D02*
X280097Y187402D01*
Y189401D01*
X279097Y190401D01*
X278097D01*
X277098Y189401D01*
X276098Y190401D01*
X275098D01*
X274099Y189401D01*
Y187402D01*
X275098Y186402D01*
X276098D01*
X277098Y187402D01*
X278097Y186402D01*
X279097D01*
X277098Y187402D02*
Y189401D01*
X230751Y269002D02*
Y274000D01*
X231750Y275000D01*
X233750D01*
X234750Y274000D01*
Y269002D01*
X236749Y274000D02*
X237749Y275000D01*
X239748D01*
X240748Y274000D01*
Y270002D01*
X239748Y269002D01*
X237749D01*
X236749Y270002D01*
Y271001D01*
X237749Y272001D01*
X240748D01*
X371749Y508314D02*
X372749Y507314D01*
Y505315D01*
X371749Y504315D01*
X370749D01*
X369749Y505315D01*
Y507314D01*
X368750Y508314D01*
X367750D01*
X366750Y507314D01*
Y505315D01*
X367750Y504315D01*
X372749Y510313D02*
X366750D01*
X368750Y512313D01*
X366750Y514312D01*
X372749D01*
X366750Y516311D02*
Y518311D01*
Y517311D01*
X372749D01*
X371749Y516311D01*
X459011Y678596D02*
Y683594D01*
X460010Y684594D01*
X462010D01*
X463009Y683594D01*
Y678596D01*
X465009Y684594D02*
X467008D01*
X466008D01*
Y678596D01*
X465009Y679596D01*
X470007D02*
X471007Y678596D01*
X473006D01*
X474006Y679596D01*
Y680595D01*
X473006Y681595D01*
X474006Y682595D01*
Y683594D01*
X473006Y684594D01*
X471007D01*
X470007Y683594D01*
Y682595D01*
X471007Y681595D01*
X470007Y680595D01*
Y679596D01*
X471007Y681595D02*
X473006D01*
X154001Y743817D02*
Y748816D01*
X155000Y749815D01*
X157000D01*
X157999Y748816D01*
Y743817D01*
X159999Y749815D02*
X161998D01*
X160998D01*
Y743817D01*
X159999Y744817D01*
X167996Y749815D02*
Y743817D01*
X164997Y746816D01*
X168996D01*
X232749Y594815D02*
X227750D01*
X226751Y595815D01*
Y597814D01*
X227750Y598814D01*
X232749D01*
X226751Y600813D02*
Y602813D01*
Y601813D01*
X232749D01*
X231749Y600813D01*
Y605812D02*
X232749Y606811D01*
Y608811D01*
X231749Y609810D01*
X230749D01*
X229750Y608811D01*
Y607811D01*
Y608811D01*
X228750Y609810D01*
X227750D01*
X226751Y608811D01*
Y606811D01*
X227750Y605812D01*
X337345Y237046D02*
X343343D01*
Y240045D01*
X342343Y241045D01*
X340344D01*
X339344Y240045D01*
Y237046D01*
Y239045D02*
X337345Y241045D01*
X343343Y243044D02*
Y247043D01*
X342343D01*
X338344Y243044D01*
X337345D01*
X343343Y253041D02*
Y249042D01*
X340344D01*
X341343Y251042D01*
Y252041D01*
X340344Y253041D01*
X338344D01*
X337345Y252041D01*
Y250042D01*
X338344Y249042D01*
X145500Y622315D02*
X150999D01*
Y625064D01*
X150082Y625981D01*
X148250D01*
X147333Y625064D01*
Y622315D01*
Y624148D02*
X145500Y625981D01*
X150999Y627813D02*
Y631479D01*
X150082D01*
X146417Y627813D01*
X145500D01*
X150082Y633312D02*
X150999Y634228D01*
Y636061D01*
X150082Y636977D01*
X149166D01*
X148250Y636061D01*
Y635144D01*
Y636061D01*
X147333Y636977D01*
X146417D01*
X145500Y636061D01*
Y634228D01*
X146417Y633312D01*
X174251Y624315D02*
X180249D01*
Y627314D01*
X179249Y628314D01*
X177250D01*
X176250Y627314D01*
Y624315D01*
Y626315D02*
X174251Y628314D01*
X180249Y630313D02*
Y634312D01*
X179249D01*
X175250Y630313D01*
X174251D01*
Y640310D02*
Y636311D01*
X178249Y640310D01*
X179249D01*
X180249Y639310D01*
Y637311D01*
X179249Y636311D01*
X178875Y747384D02*
X184873D01*
Y750383D01*
X183873Y751382D01*
X181874D01*
X180874Y750383D01*
Y747384D01*
Y749383D02*
X178875Y751382D01*
X184873Y757380D02*
X183873Y755381D01*
X181874Y753382D01*
X179874D01*
X178875Y754381D01*
Y756381D01*
X179874Y757380D01*
X180874D01*
X181874Y756381D01*
Y753382D01*
X179874Y759380D02*
X178875Y760379D01*
Y762379D01*
X179874Y763378D01*
X183873D01*
X184873Y762379D01*
Y760379D01*
X183873Y759380D01*
X182873D01*
X181874Y760379D01*
Y763378D01*
X188251Y707565D02*
X194249D01*
Y710564D01*
X193249Y711564D01*
X191250D01*
X190250Y710564D01*
Y707565D01*
Y709565D02*
X188251Y711564D01*
X194249Y717562D02*
X193249Y715563D01*
X191250Y713563D01*
X189250D01*
X188251Y714563D01*
Y716562D01*
X189250Y717562D01*
X190250D01*
X191250Y716562D01*
Y713563D01*
X193249Y719561D02*
X194249Y720561D01*
Y722560D01*
X193249Y723560D01*
X192249D01*
X191250Y722560D01*
X190250Y723560D01*
X189250D01*
X188251Y722560D01*
Y720561D01*
X189250Y719561D01*
X190250D01*
X191250Y720561D01*
X192249Y719561D01*
X193249D01*
X191250Y720561D02*
Y722560D01*
X232501Y663250D02*
X238499D01*
Y666249D01*
X237499Y667249D01*
X235500D01*
X234500Y666249D01*
Y663250D01*
Y665249D02*
X232501Y667249D01*
X238499Y673247D02*
X237499Y671247D01*
X235500Y669248D01*
X233500D01*
X232501Y670248D01*
Y672247D01*
X233500Y673247D01*
X234500D01*
X235500Y672247D01*
Y669248D01*
X238499Y679245D02*
Y675246D01*
X235500D01*
X236500Y677245D01*
Y678245D01*
X235500Y679245D01*
X233500D01*
X232501Y678245D01*
Y676246D01*
X233500Y675246D01*
X153001Y688500D02*
Y682502D01*
X156000D01*
X157000Y683502D01*
Y685501D01*
X156000Y686501D01*
X153001D01*
X155000D02*
X157000Y688500D01*
X162997Y682502D02*
X160998Y683502D01*
X158999Y685501D01*
Y687500D01*
X159999Y688500D01*
X161998D01*
X162997Y687500D01*
Y686501D01*
X161998Y685501D01*
X158999D01*
X168996Y688500D02*
X164997D01*
X168996Y684501D01*
Y683502D01*
X167996Y682502D01*
X165997D01*
X164997Y683502D01*
X141501Y742565D02*
X147499D01*
Y745564D01*
X146499Y746564D01*
X144500D01*
X143500Y745564D01*
Y742565D01*
Y744565D02*
X141501Y746564D01*
X147499Y752562D02*
Y748563D01*
X144500D01*
X145499Y750563D01*
Y751562D01*
X144500Y752562D01*
X142500D01*
X141501Y751562D01*
Y749563D01*
X142500Y748563D01*
X147499Y754561D02*
Y758560D01*
X146499D01*
X142500Y754561D01*
X141501D01*
X134001Y683065D02*
X139999D01*
Y686064D01*
X138999Y687064D01*
X137000D01*
X136000Y686064D01*
Y683065D01*
Y685065D02*
X134001Y687064D01*
X139999Y693062D02*
Y689063D01*
X137000D01*
X137999Y691063D01*
Y692062D01*
X137000Y693062D01*
X135000D01*
X134001Y692062D01*
Y690063D01*
X135000Y689063D01*
X139999Y699060D02*
X138999Y697061D01*
X137000Y695061D01*
X135000D01*
X134001Y696061D01*
Y698060D01*
X135000Y699060D01*
X136000D01*
X137000Y698060D01*
Y695061D01*
X207751Y642250D02*
Y636252D01*
X210750D01*
X211749Y637252D01*
Y639251D01*
X210750Y640251D01*
X207751D01*
X209750D02*
X211749Y642250D01*
X217747Y636252D02*
X213749D01*
Y639251D01*
X215748Y638251D01*
X216748D01*
X217747Y639251D01*
Y641250D01*
X216748Y642250D01*
X214748D01*
X213749Y641250D01*
X222746Y642250D02*
Y636252D01*
X219747Y639251D01*
X223746D01*
X239000Y688999D02*
X242999D01*
X243999Y687999D01*
Y686000D01*
X242999Y685000D01*
X239000D01*
X238001Y686000D01*
Y687999D01*
X240000Y686999D02*
X238001Y688999D01*
Y687999D02*
X239000Y688999D01*
X238001Y690998D02*
Y692997D01*
Y691998D01*
X243999D01*
X242999Y690998D01*
X238001Y699995D02*
Y695996D01*
X241999Y699995D01*
X242999D01*
X243999Y698996D01*
Y696996D01*
X242999Y695996D01*
X234501Y731249D02*
X238499D01*
X239499Y730249D01*
Y728250D01*
X238499Y727250D01*
X234501D01*
X233501Y728250D01*
Y730249D01*
X235500Y729249D02*
X233501Y731249D01*
Y730249D02*
X234501Y731249D01*
X233501Y733248D02*
Y735247D01*
Y734248D01*
X239499D01*
X238499Y733248D01*
Y738246D02*
X239499Y739246D01*
Y741245D01*
X238499Y742245D01*
X234501D01*
X233501Y741245D01*
Y739246D01*
X234501Y738246D01*
X238499D01*
X211750Y661064D02*
X215749D01*
X216749Y660064D01*
Y658065D01*
X215749Y657065D01*
X211750D01*
X210751Y658065D01*
Y660064D01*
X212750Y659065D02*
X210751Y661064D01*
Y660064D02*
X211750Y661064D01*
Y663063D02*
X210751Y664063D01*
Y666062D01*
X211750Y667062D01*
X215749D01*
X216749Y666062D01*
Y664063D01*
X215749Y663063D01*
X214749D01*
X213750Y664063D01*
Y667062D01*
X175250Y602064D02*
X179249D01*
X180249Y601064D01*
Y599065D01*
X179249Y598065D01*
X175250D01*
X174251Y599065D01*
Y601064D01*
X176250Y600065D02*
X174251Y602064D01*
Y601064D02*
X175250Y602064D01*
X179249Y604063D02*
X180249Y605063D01*
Y607062D01*
X179249Y608062D01*
X178249D01*
X177250Y607062D01*
X176250Y608062D01*
X175250D01*
X174251Y607062D01*
Y605063D01*
X175250Y604063D01*
X176250D01*
X177250Y605063D01*
X178249Y604063D01*
X179249D01*
X177250Y605063D02*
Y607062D01*
X418249Y245500D02*
X412251D01*
Y248499D01*
X413251Y249499D01*
X417249D01*
X418249Y248499D01*
Y245500D01*
X412251Y251498D02*
Y253497D01*
Y252498D01*
X418249D01*
X417249Y251498D01*
Y256496D02*
X418249Y257496D01*
Y259496D01*
X417249Y260495D01*
X413251D01*
X412251Y259496D01*
Y257496D01*
X413251Y256496D01*
X417249D01*
X379499Y248000D02*
X373501D01*
Y250999D01*
X374501Y251999D01*
X378499D01*
X379499Y250999D01*
Y248000D01*
X374501Y253998D02*
X373501Y254998D01*
Y256997D01*
X374501Y257997D01*
X378499D01*
X379499Y256997D01*
Y254998D01*
X378499Y253998D01*
X377500D01*
X376500Y254998D01*
Y257997D01*
X441999Y595317D02*
X440999Y594317D01*
X439000D01*
X438000Y595317D01*
Y599316D01*
X439000Y600315D01*
X440999D01*
X441999Y599316D01*
X447997Y600315D02*
X443999D01*
X447997Y596317D01*
Y595317D01*
X446998Y594317D01*
X444998D01*
X443999Y595317D01*
X449997D02*
X450996Y594317D01*
X452996D01*
X453995Y595317D01*
Y596317D01*
X452996Y597316D01*
X453995Y598316D01*
Y599316D01*
X452996Y600315D01*
X450996D01*
X449997Y599316D01*
Y598316D01*
X450996Y597316D01*
X449997Y596317D01*
Y595317D01*
X450996Y597316D02*
X452996D01*
X398223Y617727D02*
X399223Y616727D01*
Y614728D01*
X398223Y613728D01*
X394225D01*
X393225Y614728D01*
Y616727D01*
X394225Y617727D01*
X393225Y623725D02*
Y619726D01*
X397224Y623725D01*
X398223D01*
X399223Y622725D01*
Y620726D01*
X398223Y619726D01*
X399223Y625724D02*
Y629723D01*
X398223D01*
X394225Y625724D01*
X393225D01*
X414999Y571999D02*
Y569999D01*
Y570999D01*
X410000D01*
X409001Y569999D01*
Y569000D01*
X410000Y568000D01*
X414999Y577997D02*
Y573998D01*
X412000D01*
X412999Y575997D01*
Y576997D01*
X412000Y577997D01*
X410000D01*
X409001Y576997D01*
Y574998D01*
X410000Y573998D01*
X422749Y483252D02*
X421750Y482252D01*
X419751D01*
X418751Y483252D01*
Y487250D01*
X419751Y488250D01*
X421750D01*
X422749Y487250D01*
X424749Y483252D02*
X425748Y482252D01*
X427748D01*
X428748Y483252D01*
Y484251D01*
X427748Y485251D01*
X426748D01*
X427748D01*
X428748Y486251D01*
Y487250D01*
X427748Y488250D01*
X425748D01*
X424749Y487250D01*
X430747Y488250D02*
X432746D01*
X431747D01*
Y482252D01*
X430747Y483252D01*
X738718Y811094D02*
G03*
X731832Y811049I-3398J-7022D01*
G01*
X731343Y797361D02*
G03*
X739109Y797252I3977J6711D01*
G01*
X801343Y797361D02*
G03*
X809109Y797252I3977J6711D01*
G01*
X808718Y811094D02*
G03*
X801832Y811049I-3398J-7022D01*
G01*
X841858Y565750D02*
Y559500D01*
X845858D02*
X843926Y558982D01*
Y545268D02*
X845858Y544750D01*
X841858Y559500D02*
X845858D01*
X842108Y544750D02*
X845858D01*
X842108D02*
Y538500D01*
X840828Y233222D02*
X876388D01*
X840828Y177832D02*
X876388D01*
X840828Y104172D02*
X876134D01*
X876388Y104426D02*
X876134Y104172D01*
X876388Y271812D02*
Y104426D01*
X840828Y271812D02*
Y104172D01*
Y271812D02*
X876388D01*
X801828Y233222D02*
X837388D01*
X801828Y177832D02*
X837388D01*
X801828Y104172D02*
X837134D01*
X837388Y104426D02*
X837134Y104172D01*
X837388Y271812D02*
Y104426D01*
X801828Y271812D02*
Y104172D01*
Y271812D02*
X837388D01*
X674636Y369472D02*
X679636D01*
X674916Y360782D02*
X679916D01*
X773158Y461700D02*
Y456700D01*
X848108Y391750D02*
X853108D01*
X772608Y275500D02*
Y270500D01*
Y287000D02*
Y282000D01*
X836708Y875992D02*
X844208D01*
X674890Y296066D02*
X679890D01*
X688448Y834902D02*
Y827402D01*
X785858Y248250D02*
Y240750D01*
X600608Y154565D02*
Y149565D01*
X776108Y270500D02*
X781108D01*
X738508Y244000D02*
Y237000D01*
X727508Y244000D02*
Y237000D01*
X738508D01*
X727508Y244000D02*
X738508D01*
X677450Y262134D02*
Y246180D01*
X694949Y262182D02*
Y246227D01*
X848138Y661362D02*
X855638D01*
X861936Y601020D02*
Y593520D01*
X870670Y487704D02*
Y482704D01*
X844857Y523249D02*
X845856Y522249D01*
Y520250D01*
X844857Y519250D01*
X840858D01*
X839858Y520250D01*
Y522249D01*
X840858Y523249D01*
X842857D01*
Y521249D01*
X839858Y525248D02*
X845856D01*
X839858Y529247D01*
X845856D01*
Y531246D02*
X839858D01*
Y534245D01*
X840858Y535245D01*
X844857D01*
X845856Y534245D01*
Y531246D01*
X845356Y569000D02*
X841358D01*
X839358Y570999D01*
X841358Y572999D01*
X845356D01*
X844357Y578997D02*
X845356Y577997D01*
Y575998D01*
X844357Y574998D01*
X840358D01*
X839358Y575998D01*
Y577997D01*
X840358Y578997D01*
X844357Y584995D02*
X845356Y583995D01*
Y581996D01*
X844357Y580996D01*
X840358D01*
X839358Y581996D01*
Y583995D01*
X840358Y584995D01*
X848586Y281086D02*
Y285085D01*
X850586Y287084D01*
X852585Y285085D01*
Y281086D01*
X858583Y282086D02*
X857583Y281086D01*
X855584D01*
X854584Y282086D01*
Y286084D01*
X855584Y287084D01*
X857583D01*
X858583Y286084D01*
X864581Y282086D02*
X863581Y281086D01*
X861582D01*
X860582Y282086D01*
Y286084D01*
X861582Y287084D01*
X863581D01*
X864581Y286084D01*
X852607Y364252D02*
X851607Y363252D01*
X849608D01*
X848608Y364252D01*
Y368250D01*
X849608Y369250D01*
X851607D01*
X852607Y368250D01*
Y366251D01*
X850608D01*
X854606Y369250D02*
Y363252D01*
X858605Y369250D01*
Y363252D01*
X860604D02*
Y369250D01*
X863603D01*
X864603Y368250D01*
Y364252D01*
X863603Y363252D01*
X860604D01*
X872856Y132249D02*
Y128250D01*
X866858D01*
Y132249D01*
X869857Y128250D02*
Y130249D01*
X872856Y134248D02*
X866858Y138247D01*
X872856D02*
X866858Y134248D01*
X872856Y140246D02*
Y144245D01*
Y142246D01*
X866858D01*
Y149243D02*
X872856D01*
X869857Y146244D01*
Y150243D01*
X834106Y132749D02*
Y128750D01*
X828108D01*
Y132749D01*
X831107Y128750D02*
Y130749D01*
X834106Y134748D02*
X828108Y138747D01*
X834106D02*
X828108Y134748D01*
X834106Y140746D02*
Y144745D01*
Y142746D01*
X828108D01*
Y150743D02*
Y146744D01*
X832107Y150743D01*
X833107D01*
X834106Y149743D01*
Y147744D01*
X833107Y146744D01*
X679341Y402081D02*
X680340Y401081D01*
Y399082D01*
X679341Y398082D01*
X675342D01*
X674342Y399082D01*
Y401081D01*
X675342Y402081D01*
X674342Y404080D02*
Y406079D01*
Y405080D01*
X680340D01*
X679341Y404080D01*
X680103Y328421D02*
X681102Y327421D01*
Y325422D01*
X680103Y324422D01*
X676104D01*
X675104Y325422D01*
Y327421D01*
X676104Y328421D01*
X675104Y334419D02*
Y330420D01*
X679103Y334419D01*
X680103D01*
X681102Y333419D01*
Y331420D01*
X680103Y330420D01*
X761857Y472317D02*
X760857Y471317D01*
X758858D01*
X757858Y472317D01*
Y476316D01*
X758858Y477315D01*
X760857D01*
X761857Y476316D01*
X763856Y472317D02*
X764856Y471317D01*
X766855D01*
X767855Y472317D01*
Y473317D01*
X766855Y474316D01*
X765855D01*
X766855D01*
X767855Y475316D01*
Y476316D01*
X766855Y477315D01*
X764856D01*
X763856Y476316D01*
X861274Y381082D02*
X862107Y380249D01*
Y378583D01*
X861274Y377750D01*
X857941D01*
X857108Y378583D01*
Y380249D01*
X857941Y381082D01*
X857108Y385248D02*
X862107D01*
X859607Y382748D01*
Y386081D01*
X743779Y271028D02*
X742779Y270028D01*
X740779D01*
X739780Y271028D01*
Y275026D01*
X740779Y276026D01*
X742779D01*
X743779Y275026D01*
X745778D02*
X746778Y276026D01*
X748777D01*
X749777Y275026D01*
Y271028D01*
X748777Y270028D01*
X746778D01*
X745778Y271028D01*
Y272027D01*
X746778Y273027D01*
X749777D01*
X738521Y282804D02*
X737521Y281804D01*
X735522D01*
X734522Y282804D01*
Y286802D01*
X735522Y287802D01*
X737521D01*
X738521Y286802D01*
X740520Y287802D02*
X742520D01*
X741520D01*
Y281804D01*
X740520Y282804D01*
X745519D02*
X746518Y281804D01*
X748518D01*
X749517Y282804D01*
Y286802D01*
X748518Y287802D01*
X746518D01*
X745519Y286802D01*
Y282804D01*
X853331Y858519D02*
X854330Y857519D01*
Y855520D01*
X853331Y854520D01*
X849332D01*
X848332Y855520D01*
Y857519D01*
X849332Y858519D01*
X848332Y860518D02*
Y862517D01*
Y861518D01*
X854330D01*
X853331Y860518D01*
X848332Y865516D02*
Y867516D01*
Y866516D01*
X854330D01*
X853331Y865516D01*
X681627Y281939D02*
X682626Y280939D01*
Y278940D01*
X681627Y277940D01*
X677628D01*
X676628Y278940D01*
Y280939D01*
X677628Y281939D01*
X676628Y283938D02*
Y285937D01*
Y284938D01*
X682626D01*
X681627Y283938D01*
X676628Y292935D02*
Y288936D01*
X680627Y292935D01*
X681627D01*
X682626Y291936D01*
Y289936D01*
X681627Y288936D01*
X646591Y828948D02*
X645591Y827948D01*
X643592D01*
X642592Y828948D01*
Y832946D01*
X643592Y833946D01*
X645591D01*
X646591Y832946D01*
X648590Y833946D02*
X650590D01*
X649590D01*
Y827948D01*
X648590Y828948D01*
X653589D02*
X654588Y827948D01*
X656588D01*
X657587Y828948D01*
Y829947D01*
X656588Y830947D01*
X655588D01*
X656588D01*
X657587Y831947D01*
Y832946D01*
X656588Y833946D01*
X654588D01*
X653589Y832946D01*
X760481Y253316D02*
X759481Y252316D01*
X757482D01*
X756482Y253316D01*
Y257314D01*
X757482Y258314D01*
X759481D01*
X760481Y257314D01*
X762480Y258314D02*
X764480D01*
X763480D01*
Y252316D01*
X762480Y253316D01*
X770478Y258314D02*
Y252316D01*
X767479Y255315D01*
X771477D01*
X608607Y140817D02*
X607607Y139817D01*
X605608D01*
X604608Y140817D01*
Y144816D01*
X605608Y145815D01*
X607607D01*
X608607Y144816D01*
X610606Y145815D02*
X612605D01*
X611606D01*
Y139817D01*
X610606Y140817D01*
X615604Y144816D02*
X616604Y145815D01*
X618603D01*
X619603Y144816D01*
Y140817D01*
X618603Y139817D01*
X616604D01*
X615604Y140817D01*
Y141817D01*
X616604Y142816D01*
X619603D01*
X780440Y256416D02*
X781357Y255499D01*
Y253666D01*
X780440Y252750D01*
X776775D01*
X775858Y253666D01*
Y255499D01*
X776775Y256416D01*
X780440Y258248D02*
X781357Y259165D01*
Y260997D01*
X780440Y261914D01*
X779524D01*
X778607Y260997D01*
Y260081D01*
Y260997D01*
X777691Y261914D01*
X776775D01*
X775858Y260997D01*
Y259165D01*
X776775Y258248D01*
X780440Y263746D02*
X781357Y264663D01*
Y266495D01*
X780440Y267412D01*
X776775D01*
X775858Y266495D01*
Y264663D01*
X776775Y263746D01*
X780440D01*
X697964Y237398D02*
Y243396D01*
X700963D01*
X701963Y242396D01*
Y238398D01*
X700963Y237398D01*
X697964D01*
X703962Y243396D02*
X705962D01*
X704962D01*
Y237398D01*
X703962Y238398D01*
X708961Y243396D02*
X710960D01*
X709960D01*
Y237398D01*
X708961Y238398D01*
X750731Y222158D02*
X746732D01*
Y225157D01*
X748732D01*
X746732D01*
Y228156D01*
X752730D02*
X754730D01*
X753730D01*
Y222158D01*
X752730Y223158D01*
X873107Y368915D02*
Y367083D01*
Y367999D01*
X868525D01*
X867608Y367083D01*
Y366166D01*
X868525Y365250D01*
X867608Y374414D02*
Y370748D01*
X871274Y374414D01*
X872190D01*
X873107Y373497D01*
Y371665D01*
X872190Y370748D01*
X704108Y268502D02*
Y274500D01*
X708107D01*
X710106D02*
X712106D01*
X711106D01*
Y268502D01*
X710106Y269502D01*
X647640Y238272D02*
Y244270D01*
X651639D01*
X657637D02*
X653638D01*
X657637Y240271D01*
Y239272D01*
X656637Y238272D01*
X654638D01*
X653638Y239272D01*
X792107Y942066D02*
Y938067D01*
X791107Y937067D01*
X789108D01*
X788108Y938067D01*
Y942066D01*
X789108Y943065D01*
X791107D01*
X790107Y941066D02*
X792107Y943065D01*
X791107D02*
X792107Y942066D01*
X794106Y943065D02*
X796105D01*
X795106D01*
Y937067D01*
X794106Y938067D01*
X927858Y156064D02*
X931856D01*
X932856Y155064D01*
Y153065D01*
X931856Y152065D01*
X927858D01*
X926858Y153065D01*
Y155064D01*
X928857Y154065D02*
X926858Y156064D01*
Y155064D02*
X927858Y156064D01*
X926858Y162062D02*
Y158063D01*
X930857Y162062D01*
X931856D01*
X932856Y161062D01*
Y159063D01*
X931856Y158063D01*
X734475Y887622D02*
Y883623D01*
X733475Y882623D01*
X731476D01*
X730476Y883623D01*
Y887622D01*
X731476Y888621D01*
X733475D01*
X732475Y886622D02*
X734475Y888621D01*
X733475D02*
X734475Y887622D01*
X739473Y888621D02*
Y882623D01*
X736474Y885622D01*
X740473D01*
X833108Y907815D02*
Y901817D01*
X836107D01*
X837107Y902817D01*
Y904816D01*
X836107Y905816D01*
X833108D01*
X835107D02*
X837107Y907815D01*
X839106D02*
X841105D01*
X840106D01*
Y901817D01*
X839106Y902817D01*
X814858Y931815D02*
X820856D01*
Y934814D01*
X819856Y935814D01*
X817857D01*
X816857Y934814D01*
Y931815D01*
Y933815D02*
X814858Y935814D01*
X819856Y937813D02*
X820856Y938813D01*
Y940812D01*
X819856Y941812D01*
X818857D01*
X817857Y940812D01*
Y939813D01*
Y940812D01*
X816857Y941812D01*
X815858D01*
X814858Y940812D01*
Y938813D01*
X815858Y937813D01*
X910358Y199315D02*
X916356D01*
Y202314D01*
X915356Y203314D01*
X913357D01*
X912357Y202314D01*
Y199315D01*
Y201315D02*
X910358Y203314D01*
Y208312D02*
X916356D01*
X913357Y205313D01*
Y209312D01*
X889608Y198815D02*
X895606D01*
Y201814D01*
X894606Y202814D01*
X892607D01*
X891607Y201814D01*
Y198815D01*
Y200815D02*
X889608Y202814D01*
X895606Y208812D02*
X894606Y206813D01*
X892607Y204813D01*
X890608D01*
X889608Y205813D01*
Y207812D01*
X890608Y208812D01*
X891607D01*
X892607Y207812D01*
Y204813D01*
X901608Y259250D02*
Y253752D01*
X904357D01*
X905274Y254668D01*
Y256501D01*
X904357Y257417D01*
X901608D01*
X903441D02*
X905274Y259250D01*
X907106Y254668D02*
X908023Y253752D01*
X909856D01*
X910772Y254668D01*
Y255585D01*
X909856Y256501D01*
X910772Y257417D01*
Y258334D01*
X909856Y259250D01*
X908023D01*
X907106Y258334D01*
Y257417D01*
X908023Y256501D01*
X907106Y255585D01*
Y254668D01*
X908023Y256501D02*
X909856D01*
X803908Y475096D02*
X809906D01*
Y478095D01*
X808907Y479094D01*
X806907D01*
X805908Y478095D01*
Y475096D01*
Y477095D02*
X803908Y479094D01*
Y481094D02*
Y483093D01*
Y482093D01*
X809906D01*
X808907Y481094D01*
Y486092D02*
X809906Y487092D01*
Y489091D01*
X808907Y490091D01*
X804908D01*
X803908Y489091D01*
Y487092D01*
X804908Y486092D01*
X808907D01*
X793240Y475350D02*
X799238D01*
Y478349D01*
X798239Y479348D01*
X796239D01*
X795240Y478349D01*
Y475350D01*
Y477349D02*
X793240Y479348D01*
Y481348D02*
Y483347D01*
Y482347D01*
X799238D01*
X798239Y481348D01*
X793240Y486346D02*
Y488345D01*
Y487346D01*
X799238D01*
X798239Y486346D01*
X778990Y475298D02*
X784988D01*
Y478297D01*
X783989Y479297D01*
X781989D01*
X780990Y478297D01*
Y475298D01*
Y477297D02*
X778990Y479297D01*
Y481296D02*
Y483295D01*
Y482296D01*
X784988D01*
X783989Y481296D01*
X778990Y490293D02*
Y486294D01*
X782989Y490293D01*
X783989D01*
X784988Y489294D01*
Y487294D01*
X783989Y486294D01*
X718858Y478815D02*
X724856D01*
Y481814D01*
X723856Y482814D01*
X721857D01*
X720857Y481814D01*
Y478815D01*
Y480815D02*
X718858Y482814D01*
Y484813D02*
Y486813D01*
Y485813D01*
X724856D01*
X723856Y484813D01*
X724856Y493810D02*
X723856Y491811D01*
X721857Y489812D01*
X719858D01*
X718858Y490811D01*
Y492811D01*
X719858Y493810D01*
X720857D01*
X721857Y492811D01*
Y489812D01*
X728672Y473674D02*
X734670D01*
Y476673D01*
X733671Y477672D01*
X731671D01*
X730672Y476673D01*
Y473674D01*
Y475673D02*
X728672Y477672D01*
Y479672D02*
Y481671D01*
Y480671D01*
X734670D01*
X733671Y479672D01*
X734670Y484670D02*
Y488669D01*
X733671D01*
X729672Y484670D01*
X728672D01*
X738582Y473674D02*
X744580D01*
Y476673D01*
X743581Y477672D01*
X741581D01*
X740582Y476673D01*
Y473674D01*
Y475673D02*
X738582Y477672D01*
Y479672D02*
Y481671D01*
Y480671D01*
X744580D01*
X743581Y479672D01*
Y484670D02*
X744580Y485670D01*
Y487669D01*
X743581Y488669D01*
X742581D01*
X741581Y487669D01*
X740582Y488669D01*
X739582D01*
X738582Y487669D01*
Y485670D01*
X739582Y484670D01*
X740582D01*
X741581Y485670D01*
X742581Y484670D01*
X743581D01*
X741581Y485670D02*
Y487669D01*
X827108Y856565D02*
X833106D01*
Y859564D01*
X832106Y860564D01*
X830107D01*
X829107Y859564D01*
Y856565D01*
Y858565D02*
X827108Y860564D01*
Y862563D02*
Y864563D01*
Y863563D01*
X833106D01*
X832106Y862563D01*
X828108Y867562D02*
X827108Y868561D01*
Y870561D01*
X828108Y871560D01*
X832106D01*
X833106Y870561D01*
Y868561D01*
X832106Y867562D01*
X831107D01*
X830107Y868561D01*
Y871560D01*
X848108Y422065D02*
Y417067D01*
X850607D01*
X851440Y417900D01*
Y419566D01*
X850607Y420399D01*
X848108D01*
X849774D02*
X851440Y422065D01*
X856439D02*
X853106D01*
X856439Y418733D01*
Y417900D01*
X855605Y417067D01*
X853939D01*
X853106Y417900D01*
X860604Y422065D02*
Y417067D01*
X858105Y419566D01*
X861437D01*
X847358Y449750D02*
Y444752D01*
X849857D01*
X850691Y445585D01*
Y447251D01*
X849857Y448084D01*
X847358D01*
X849024D02*
X850691Y449750D01*
X855689D02*
X852357D01*
X855689Y446418D01*
Y445585D01*
X854856Y444752D01*
X853190D01*
X852357Y445585D01*
X860687Y444752D02*
X857355D01*
Y447251D01*
X859021Y446418D01*
X859854D01*
X860687Y447251D01*
Y448917D01*
X859854Y449750D01*
X858188D01*
X857355Y448917D01*
X803858Y875565D02*
X809856D01*
Y878564D01*
X808856Y879564D01*
X806857D01*
X805857Y878564D01*
Y875565D01*
Y877565D02*
X803858Y879564D01*
Y885562D02*
Y881563D01*
X807857Y885562D01*
X808856D01*
X809856Y884562D01*
Y882563D01*
X808856Y881563D01*
X809856Y891560D02*
X808856Y889561D01*
X806857Y887561D01*
X804858D01*
X803858Y888561D01*
Y890560D01*
X804858Y891560D01*
X805857D01*
X806857Y890560D01*
Y887561D01*
X787608Y847065D02*
Y841067D01*
X790607D01*
X791607Y842067D01*
Y844066D01*
X790607Y845066D01*
X787608D01*
X789607D02*
X791607Y847065D01*
X797605D02*
X793606D01*
X797605Y843067D01*
Y842067D01*
X796605Y841067D01*
X794606D01*
X793606Y842067D01*
X799604Y841067D02*
X803603D01*
Y842067D01*
X799604Y846066D01*
Y847065D01*
X833358Y451750D02*
X839356D01*
Y454749D01*
X838357Y455749D01*
X836357D01*
X835358Y454749D01*
Y451750D01*
Y453749D02*
X833358Y455749D01*
Y461747D02*
Y457748D01*
X837357Y461747D01*
X838357D01*
X839356Y460747D01*
Y458748D01*
X838357Y457748D01*
Y463746D02*
X839356Y464746D01*
Y466745D01*
X838357Y467745D01*
X837357D01*
X836357Y466745D01*
X835358Y467745D01*
X834358D01*
X833358Y466745D01*
Y464746D01*
X834358Y463746D01*
X835358D01*
X836357Y464746D01*
X837357Y463746D01*
X838357D01*
X836357Y464746D02*
Y466745D01*
X862608Y452000D02*
X868606D01*
Y454999D01*
X867607Y455999D01*
X865607D01*
X864608Y454999D01*
Y452000D01*
Y453999D02*
X862608Y455999D01*
Y461997D02*
Y457998D01*
X866607Y461997D01*
X867607D01*
X868606Y460997D01*
Y458998D01*
X867607Y457998D01*
X863608Y463996D02*
X862608Y464996D01*
Y466995D01*
X863608Y467995D01*
X867607D01*
X868606Y466995D01*
Y464996D01*
X867607Y463996D01*
X866607D01*
X865607Y464996D01*
Y467995D01*
X689074Y453708D02*
X695072D01*
Y456707D01*
X694073Y457707D01*
X692073D01*
X691074Y456707D01*
Y453708D01*
Y455707D02*
X689074Y457707D01*
X694073Y459706D02*
X695072Y460706D01*
Y462705D01*
X694073Y463705D01*
X693073D01*
X692073Y462705D01*
Y461705D01*
Y462705D01*
X691074Y463705D01*
X690074D01*
X689074Y462705D01*
Y460706D01*
X690074Y459706D01*
X694073Y465704D02*
X695072Y466704D01*
Y468703D01*
X694073Y469703D01*
X690074D01*
X689074Y468703D01*
Y466704D01*
X690074Y465704D01*
X694073D01*
X676608Y780000D02*
X682606D01*
Y782999D01*
X681607Y783999D01*
X679607D01*
X678608Y782999D01*
Y780000D01*
Y781999D02*
X676608Y783999D01*
X681607Y785998D02*
X682606Y786998D01*
Y788997D01*
X681607Y789997D01*
X680607D01*
X679607Y788997D01*
Y787997D01*
Y788997D01*
X678608Y789997D01*
X677608D01*
X676608Y788997D01*
Y786998D01*
X677608Y785998D01*
X676608Y791996D02*
Y793996D01*
Y792996D01*
X682606D01*
X681607Y791996D01*
X850858Y399750D02*
Y394752D01*
X853357D01*
X854191Y395585D01*
Y397251D01*
X853357Y398084D01*
X850858D01*
X852524D02*
X854191Y399750D01*
X855857Y395585D02*
X856690Y394752D01*
X858356D01*
X859189Y395585D01*
Y396418D01*
X858356Y397251D01*
X857523D01*
X858356D01*
X859189Y398084D01*
Y398917D01*
X858356Y399750D01*
X856690D01*
X855857Y398917D01*
X864187Y399750D02*
X860855D01*
X864187Y396418D01*
Y395585D01*
X863354Y394752D01*
X861688D01*
X860855Y395585D01*
X694108Y286750D02*
Y280752D01*
X697107D01*
X698107Y281752D01*
Y283751D01*
X697107Y284751D01*
X694108D01*
X696108D02*
X698107Y286750D01*
X700106Y281752D02*
X701106Y280752D01*
X703105D01*
X704105Y281752D01*
Y282751D01*
X703105Y283751D01*
X702106D01*
X703105D01*
X704105Y284751D01*
Y285750D01*
X703105Y286750D01*
X701106D01*
X700106Y285750D01*
X706104Y281752D02*
X707104Y280752D01*
X709103D01*
X710103Y281752D01*
Y282751D01*
X709103Y283751D01*
X708104D01*
X709103D01*
X710103Y284751D01*
Y285750D01*
X709103Y286750D01*
X707104D01*
X706104Y285750D01*
X676608Y800500D02*
X682606D01*
Y803499D01*
X681607Y804499D01*
X679607D01*
X678608Y803499D01*
Y800500D01*
Y802499D02*
X676608Y804499D01*
X681607Y806498D02*
X682606Y807498D01*
Y809497D01*
X681607Y810497D01*
X680607D01*
X679607Y809497D01*
Y808497D01*
Y809497D01*
X678608Y810497D01*
X677608D01*
X676608Y809497D01*
Y807498D01*
X677608Y806498D01*
X676608Y815495D02*
X682606D01*
X679607Y812496D01*
Y816495D01*
X656858Y800250D02*
X662856D01*
Y803249D01*
X661857Y804249D01*
X659857D01*
X658858Y803249D01*
Y800250D01*
Y802249D02*
X656858Y804249D01*
X661857Y806248D02*
X662856Y807248D01*
Y809247D01*
X661857Y810247D01*
X660857D01*
X659857Y809247D01*
Y808247D01*
Y809247D01*
X658858Y810247D01*
X657858D01*
X656858Y809247D01*
Y807248D01*
X657858Y806248D01*
X662856Y816245D02*
Y812246D01*
X659857D01*
X660857Y814246D01*
Y815245D01*
X659857Y816245D01*
X657858D01*
X656858Y815245D01*
Y813246D01*
X657858Y812246D01*
X791108Y280250D02*
Y274252D01*
X794107D01*
X795107Y275252D01*
Y277251D01*
X794107Y278251D01*
X791108D01*
X793108D02*
X795107Y280250D01*
X797106Y275252D02*
X798106Y274252D01*
X800105D01*
X801105Y275252D01*
Y276251D01*
X800105Y277251D01*
X799106D01*
X800105D01*
X801105Y278251D01*
Y279250D01*
X800105Y280250D01*
X798106D01*
X797106Y279250D01*
X807103Y274252D02*
X805104Y275252D01*
X803104Y277251D01*
Y279250D01*
X804104Y280250D01*
X806103D01*
X807103Y279250D01*
Y278251D01*
X806103Y277251D01*
X803104D01*
X885358Y239750D02*
Y234252D01*
X888107D01*
X889024Y235168D01*
Y237001D01*
X888107Y237917D01*
X885358D01*
X887191D02*
X889024Y239750D01*
X890856Y235168D02*
X891773Y234252D01*
X893606D01*
X894522Y235168D01*
Y236084D01*
X893606Y237001D01*
X892689D01*
X893606D01*
X894522Y237917D01*
Y238834D01*
X893606Y239750D01*
X891773D01*
X890856Y238834D01*
X896355Y234252D02*
X900020D01*
Y235168D01*
X896355Y238834D01*
Y239750D01*
X736608Y843065D02*
Y837067D01*
X739607D01*
X740607Y838067D01*
Y840066D01*
X739607Y841066D01*
X736608D01*
X738607D02*
X740607Y843065D01*
X742606Y838067D02*
X743606Y837067D01*
X745605D01*
X746605Y838067D01*
Y839067D01*
X745605Y840066D01*
X744605D01*
X745605D01*
X746605Y841066D01*
Y842066D01*
X745605Y843065D01*
X743606D01*
X742606Y842066D01*
X748604Y838067D02*
X749604Y837067D01*
X751603D01*
X752603Y838067D01*
Y839067D01*
X751603Y840066D01*
X752603Y841066D01*
Y842066D01*
X751603Y843065D01*
X749604D01*
X748604Y842066D01*
Y841066D01*
X749604Y840066D01*
X748604Y839067D01*
Y838067D01*
X749604Y840066D02*
X751603D01*
X700504Y259398D02*
Y253400D01*
X703503D01*
X704503Y254400D01*
Y256399D01*
X703503Y257399D01*
X700504D01*
X702504D02*
X704503Y259398D01*
X709501D02*
Y253400D01*
X706502Y256399D01*
X710501D01*
X712500Y254400D02*
X713500Y253400D01*
X715499D01*
X716499Y254400D01*
Y258398D01*
X715499Y259398D01*
X713500D01*
X712500Y258398D01*
Y254400D01*
X605108Y179750D02*
Y173752D01*
X608107D01*
X609107Y174752D01*
Y176751D01*
X608107Y177751D01*
X605108D01*
X607108D02*
X609107Y179750D01*
X614105D02*
Y173752D01*
X611106Y176751D01*
X615105D01*
X620103Y179750D02*
Y173752D01*
X617104Y176751D01*
X621103D01*
X832994Y434150D02*
X827996D01*
X826996Y435150D01*
Y437149D01*
X827996Y438149D01*
X832994D01*
X826996Y440148D02*
Y442147D01*
Y441148D01*
X832994D01*
X831995Y440148D01*
X855856Y746750D02*
X850858D01*
X849858Y747750D01*
Y749749D01*
X850858Y750749D01*
X855856D01*
X849858Y756747D02*
Y752748D01*
X853857Y756747D01*
X854857D01*
X855856Y755747D01*
Y753748D01*
X854857Y752748D01*
X765710Y735192D02*
X760712D01*
X759712Y736191D01*
Y738191D01*
X760712Y739190D01*
X765710D01*
X764711Y741190D02*
X765710Y742189D01*
Y744189D01*
X764711Y745188D01*
X763711D01*
X762711Y744189D01*
Y743189D01*
Y744189D01*
X761712Y745188D01*
X760712D01*
X759712Y744189D01*
Y742189D01*
X760712Y741190D01*
X949072Y705233D02*
X944074D01*
X943074Y706233D01*
Y708232D01*
X944074Y709232D01*
X949072D01*
Y715230D02*
Y711231D01*
X946073D01*
X947073Y713231D01*
Y714230D01*
X946073Y715230D01*
X944074D01*
X943074Y714230D01*
Y712231D01*
X944074Y711231D01*
X735204Y180404D02*
X730206D01*
X729206Y181404D01*
Y183403D01*
X730206Y184403D01*
X735204D01*
X734205Y186402D02*
X735204Y187402D01*
Y189401D01*
X734205Y190401D01*
X733205D01*
X732205Y189401D01*
X731206Y190401D01*
X730206D01*
X729206Y189401D01*
Y187402D01*
X730206Y186402D01*
X731206D01*
X732205Y187402D01*
X733205Y186402D01*
X734205D01*
X732205Y187402D02*
Y189401D01*
X685858Y269002D02*
Y274000D01*
X686858Y275000D01*
X688857D01*
X689857Y274000D01*
Y269002D01*
X691856Y274000D02*
X692856Y275000D01*
X694855D01*
X695855Y274000D01*
Y270002D01*
X694855Y269002D01*
X692856D01*
X691856Y270002D01*
Y271001D01*
X692856Y272001D01*
X695855D01*
X826856Y508314D02*
X827856Y507314D01*
Y505315D01*
X826856Y504315D01*
X825857D01*
X824857Y505315D01*
Y507314D01*
X823857Y508314D01*
X822858D01*
X821858Y507314D01*
Y505315D01*
X822858Y504315D01*
X827856Y510313D02*
X821858D01*
X823857Y512313D01*
X821858Y514312D01*
X827856D01*
X821858Y516311D02*
Y518311D01*
Y517311D01*
X827856D01*
X826856Y516311D01*
X914118Y678596D02*
Y683594D01*
X915118Y684594D01*
X917117D01*
X918117Y683594D01*
Y678596D01*
X920116Y684594D02*
X922116D01*
X921116D01*
Y678596D01*
X920116Y679596D01*
X925115D02*
X926114Y678596D01*
X928114D01*
X929113Y679596D01*
Y680595D01*
X928114Y681595D01*
X929113Y682595D01*
Y683594D01*
X928114Y684594D01*
X926114D01*
X925115Y683594D01*
Y682595D01*
X926114Y681595D01*
X925115Y680595D01*
Y679596D01*
X926114Y681595D02*
X928114D01*
X609108Y743817D02*
Y748816D01*
X610108Y749815D01*
X612107D01*
X613107Y748816D01*
Y743817D01*
X615106Y749815D02*
X617105D01*
X616106D01*
Y743817D01*
X615106Y744817D01*
X623103Y749815D02*
Y743817D01*
X620104Y746816D01*
X624103D01*
X687856Y594815D02*
X682858D01*
X681858Y595815D01*
Y597814D01*
X682858Y598814D01*
X687856D01*
X681858Y600813D02*
Y602813D01*
Y601813D01*
X687856D01*
X686856Y600813D01*
Y605812D02*
X687856Y606811D01*
Y608811D01*
X686856Y609810D01*
X685857D01*
X684857Y608811D01*
Y607811D01*
Y608811D01*
X683857Y609810D01*
X682858D01*
X681858Y608811D01*
Y606811D01*
X682858Y605812D01*
X792452Y237046D02*
X798450D01*
Y240045D01*
X797451Y241045D01*
X795451D01*
X794452Y240045D01*
Y237046D01*
Y239045D02*
X792452Y241045D01*
X798450Y243044D02*
Y247043D01*
X797451D01*
X793452Y243044D01*
X792452D01*
X798450Y253041D02*
Y249042D01*
X795451D01*
X796451Y251042D01*
Y252041D01*
X795451Y253041D01*
X793452D01*
X792452Y252041D01*
Y250042D01*
X793452Y249042D01*
X600608Y622315D02*
X606106D01*
Y625064D01*
X605190Y625981D01*
X603357D01*
X602441Y625064D01*
Y622315D01*
Y624148D02*
X600608Y625981D01*
X606106Y627813D02*
Y631479D01*
X605190D01*
X601524Y627813D01*
X600608D01*
X605190Y633312D02*
X606106Y634228D01*
Y636061D01*
X605190Y636977D01*
X604273D01*
X603357Y636061D01*
Y635144D01*
Y636061D01*
X602441Y636977D01*
X601524D01*
X600608Y636061D01*
Y634228D01*
X601524Y633312D01*
X629358Y624315D02*
X635356D01*
Y627314D01*
X634356Y628314D01*
X632357D01*
X631357Y627314D01*
Y624315D01*
Y626315D02*
X629358Y628314D01*
X635356Y630313D02*
Y634312D01*
X634356D01*
X630358Y630313D01*
X629358D01*
Y640310D02*
Y636311D01*
X633357Y640310D01*
X634356D01*
X635356Y639310D01*
Y637311D01*
X634356Y636311D01*
X633982Y747384D02*
X639980D01*
Y750383D01*
X638981Y751382D01*
X636981D01*
X635982Y750383D01*
Y747384D01*
Y749383D02*
X633982Y751382D01*
X639980Y757380D02*
X638981Y755381D01*
X636981Y753382D01*
X634982D01*
X633982Y754381D01*
Y756381D01*
X634982Y757380D01*
X635982D01*
X636981Y756381D01*
Y753382D01*
X634982Y759380D02*
X633982Y760379D01*
Y762379D01*
X634982Y763378D01*
X638981D01*
X639980Y762379D01*
Y760379D01*
X638981Y759380D01*
X637981D01*
X636981Y760379D01*
Y763378D01*
X643358Y707565D02*
X649356D01*
Y710564D01*
X648356Y711564D01*
X646357D01*
X645357Y710564D01*
Y707565D01*
Y709565D02*
X643358Y711564D01*
X649356Y717562D02*
X648356Y715563D01*
X646357Y713563D01*
X644358D01*
X643358Y714563D01*
Y716562D01*
X644358Y717562D01*
X645357D01*
X646357Y716562D01*
Y713563D01*
X648356Y719561D02*
X649356Y720561D01*
Y722560D01*
X648356Y723560D01*
X647357D01*
X646357Y722560D01*
X645357Y723560D01*
X644358D01*
X643358Y722560D01*
Y720561D01*
X644358Y719561D01*
X645357D01*
X646357Y720561D01*
X647357Y719561D01*
X648356D01*
X646357Y720561D02*
Y722560D01*
X687608Y663250D02*
X693606D01*
Y666249D01*
X692607Y667249D01*
X690607D01*
X689608Y666249D01*
Y663250D01*
Y665249D02*
X687608Y667249D01*
X693606Y673247D02*
X692607Y671247D01*
X690607Y669248D01*
X688608D01*
X687608Y670248D01*
Y672247D01*
X688608Y673247D01*
X689608D01*
X690607Y672247D01*
Y669248D01*
X693606Y679245D02*
Y675246D01*
X690607D01*
X691607Y677245D01*
Y678245D01*
X690607Y679245D01*
X688608D01*
X687608Y678245D01*
Y676246D01*
X688608Y675246D01*
X608108Y688500D02*
Y682502D01*
X611107D01*
X612107Y683502D01*
Y685501D01*
X611107Y686501D01*
X608108D01*
X610108D02*
X612107Y688500D01*
X618105Y682502D02*
X616106Y683502D01*
X614106Y685501D01*
Y687500D01*
X615106Y688500D01*
X617105D01*
X618105Y687500D01*
Y686501D01*
X617105Y685501D01*
X614106D01*
X624103Y688500D02*
X620104D01*
X624103Y684501D01*
Y683502D01*
X623103Y682502D01*
X621104D01*
X620104Y683502D01*
X596608Y742565D02*
X602606D01*
Y745564D01*
X601606Y746564D01*
X599607D01*
X598607Y745564D01*
Y742565D01*
Y744565D02*
X596608Y746564D01*
X602606Y752562D02*
Y748563D01*
X599607D01*
X600607Y750563D01*
Y751562D01*
X599607Y752562D01*
X597608D01*
X596608Y751562D01*
Y749563D01*
X597608Y748563D01*
X602606Y754561D02*
Y758560D01*
X601606D01*
X597608Y754561D01*
X596608D01*
X589108Y683065D02*
X595106D01*
Y686064D01*
X594106Y687064D01*
X592107D01*
X591107Y686064D01*
Y683065D01*
Y685065D02*
X589108Y687064D01*
X595106Y693062D02*
Y689063D01*
X592107D01*
X593107Y691063D01*
Y692062D01*
X592107Y693062D01*
X590108D01*
X589108Y692062D01*
Y690063D01*
X590108Y689063D01*
X595106Y699060D02*
X594106Y697061D01*
X592107Y695061D01*
X590108D01*
X589108Y696061D01*
Y698060D01*
X590108Y699060D01*
X591107D01*
X592107Y698060D01*
Y695061D01*
X662858Y642250D02*
Y636252D01*
X665857D01*
X666857Y637252D01*
Y639251D01*
X665857Y640251D01*
X662858D01*
X664858D02*
X666857Y642250D01*
X672855Y636252D02*
X668856D01*
Y639251D01*
X670856Y638251D01*
X671855D01*
X672855Y639251D01*
Y641250D01*
X671855Y642250D01*
X669856D01*
X668856Y641250D01*
X677853Y642250D02*
Y636252D01*
X674854Y639251D01*
X678853D01*
X694108Y688999D02*
X698107D01*
X699106Y687999D01*
Y686000D01*
X698107Y685000D01*
X694108D01*
X693108Y686000D01*
Y687999D01*
X695108Y686999D02*
X693108Y688999D01*
Y687999D02*
X694108Y688999D01*
X693108Y690998D02*
Y692997D01*
Y691998D01*
X699106D01*
X698107Y690998D01*
X693108Y699995D02*
Y695996D01*
X697107Y699995D01*
X698107D01*
X699106Y698996D01*
Y696996D01*
X698107Y695996D01*
X689608Y731249D02*
X693607D01*
X694606Y730249D01*
Y728250D01*
X693607Y727250D01*
X689608D01*
X688608Y728250D01*
Y730249D01*
X690608Y729249D02*
X688608Y731249D01*
Y730249D02*
X689608Y731249D01*
X688608Y733248D02*
Y735247D01*
Y734248D01*
X694606D01*
X693607Y733248D01*
Y738246D02*
X694606Y739246D01*
Y741245D01*
X693607Y742245D01*
X689608D01*
X688608Y741245D01*
Y739246D01*
X689608Y738246D01*
X693607D01*
X666858Y661064D02*
X670856D01*
X671856Y660064D01*
Y658065D01*
X670856Y657065D01*
X666858D01*
X665858Y658065D01*
Y660064D01*
X667857Y659065D02*
X665858Y661064D01*
Y660064D02*
X666858Y661064D01*
Y663063D02*
X665858Y664063D01*
Y666062D01*
X666858Y667062D01*
X670856D01*
X671856Y666062D01*
Y664063D01*
X670856Y663063D01*
X669857D01*
X668857Y664063D01*
Y667062D01*
X630358Y602064D02*
X634356D01*
X635356Y601064D01*
Y599065D01*
X634356Y598065D01*
X630358D01*
X629358Y599065D01*
Y601064D01*
X631357Y600065D02*
X629358Y602064D01*
Y601064D02*
X630358Y602064D01*
X634356Y604063D02*
X635356Y605063D01*
Y607062D01*
X634356Y608062D01*
X633357D01*
X632357Y607062D01*
X631357Y608062D01*
X630358D01*
X629358Y607062D01*
Y605063D01*
X630358Y604063D01*
X631357D01*
X632357Y605063D01*
X633357Y604063D01*
X634356D01*
X632357Y605063D02*
Y607062D01*
X873356Y245500D02*
X867358D01*
Y248499D01*
X868358Y249499D01*
X872357D01*
X873356Y248499D01*
Y245500D01*
X867358Y251498D02*
Y253497D01*
Y252498D01*
X873356D01*
X872357Y251498D01*
Y256496D02*
X873356Y257496D01*
Y259496D01*
X872357Y260495D01*
X868358D01*
X867358Y259496D01*
Y257496D01*
X868358Y256496D01*
X872357D01*
X834606Y248000D02*
X828608D01*
Y250999D01*
X829608Y251999D01*
X833607D01*
X834606Y250999D01*
Y248000D01*
X829608Y253998D02*
X828608Y254998D01*
Y256997D01*
X829608Y257997D01*
X833607D01*
X834606Y256997D01*
Y254998D01*
X833607Y253998D01*
X832607D01*
X831607Y254998D01*
Y257997D01*
X897107Y595317D02*
X896107Y594317D01*
X894108D01*
X893108Y595317D01*
Y599316D01*
X894108Y600315D01*
X896107D01*
X897107Y599316D01*
X903105Y600315D02*
X899106D01*
X903105Y596317D01*
Y595317D01*
X902105Y594317D01*
X900106D01*
X899106Y595317D01*
X905104D02*
X906104Y594317D01*
X908103D01*
X909103Y595317D01*
Y596317D01*
X908103Y597316D01*
X909103Y598316D01*
Y599316D01*
X908103Y600315D01*
X906104D01*
X905104Y599316D01*
Y598316D01*
X906104Y597316D01*
X905104Y596317D01*
Y595317D01*
X906104Y597316D02*
X908103D01*
X853331Y617727D02*
X854330Y616727D01*
Y614728D01*
X853331Y613728D01*
X849332D01*
X848332Y614728D01*
Y616727D01*
X849332Y617727D01*
X848332Y623725D02*
Y619726D01*
X852331Y623725D01*
X853331D01*
X854330Y622725D01*
Y620726D01*
X853331Y619726D01*
X854330Y625724D02*
Y629723D01*
X853331D01*
X849332Y625724D01*
X848332D01*
X870106Y571999D02*
Y569999D01*
Y570999D01*
X865108D01*
X864108Y569999D01*
Y569000D01*
X865108Y568000D01*
X870106Y577997D02*
Y573998D01*
X867107D01*
X868107Y575997D01*
Y576997D01*
X867107Y577997D01*
X865108D01*
X864108Y576997D01*
Y574998D01*
X865108Y573998D01*
X877857Y483252D02*
X876857Y482252D01*
X874858D01*
X873858Y483252D01*
Y487250D01*
X874858Y488250D01*
X876857D01*
X877857Y487250D01*
X879856Y483252D02*
X880856Y482252D01*
X882855D01*
X883855Y483252D01*
Y484251D01*
X882855Y485251D01*
X881856D01*
X882855D01*
X883855Y486251D01*
Y487250D01*
X882855Y488250D01*
X880856D01*
X879856Y487250D01*
X885854Y488250D02*
X887854D01*
X886854D01*
Y482252D01*
X885854Y483252D01*
X1193826Y811094D02*
G03*
X1186939Y811049I-3398J-7022D01*
G01*
X1186451Y797361D02*
G03*
X1194216Y797252I3977J6711D01*
G01*
X1256451Y797361D02*
G03*
X1264216Y797252I3977J6711D01*
G01*
X1263826Y811094D02*
G03*
X1256939Y811049I-3398J-7022D01*
G01*
X1296966Y565750D02*
Y559500D01*
X1300966D02*
X1299034Y558982D01*
Y545268D02*
X1300966Y544750D01*
X1296966Y559500D02*
X1300966D01*
X1297216Y544750D02*
X1300966D01*
X1297216D02*
Y538500D01*
X1295936Y233222D02*
X1331496D01*
X1295936Y177832D02*
X1331496D01*
X1295936Y104172D02*
X1331242D01*
X1331496Y104426D02*
X1331242Y104172D01*
X1331496Y271812D02*
Y104426D01*
X1295936Y271812D02*
Y104172D01*
Y271812D02*
X1331496D01*
X1256936Y233222D02*
X1292496D01*
X1256936Y177832D02*
X1292496D01*
X1256936Y104172D02*
X1292242D01*
X1292496Y104426D02*
X1292242Y104172D01*
X1292496Y271812D02*
Y104426D01*
X1256936Y271812D02*
Y104172D01*
Y271812D02*
X1292496D01*
X1129744Y369472D02*
X1134744D01*
X1130024Y360782D02*
X1135024D01*
X1228266Y461700D02*
Y456700D01*
X1303216Y391750D02*
X1308216D01*
X1227716Y275500D02*
Y270500D01*
Y287000D02*
Y282000D01*
X1291816Y875992D02*
X1299316D01*
X1129998Y296066D02*
X1134998D01*
X1143556Y834902D02*
Y827402D01*
X1240966Y248250D02*
Y240750D01*
X1055715Y154565D02*
Y149565D01*
X1231216Y270500D02*
X1236216D01*
X1193616Y244000D02*
Y237000D01*
X1182616Y244000D02*
Y237000D01*
X1193616D01*
X1182616Y244000D02*
X1193616D01*
X1132558Y262134D02*
Y246180D01*
X1150056Y262182D02*
Y246227D01*
X1303246Y661362D02*
X1310746D01*
X1317044Y601020D02*
Y593520D01*
X1325778Y487704D02*
Y482704D01*
X1299964Y523249D02*
X1300964Y522249D01*
Y520250D01*
X1299964Y519250D01*
X1295965D01*
X1294966Y520250D01*
Y522249D01*
X1295965Y523249D01*
X1297965D01*
Y521249D01*
X1294966Y525248D02*
X1300964D01*
X1294966Y529247D01*
X1300964D01*
Y531246D02*
X1294966D01*
Y534245D01*
X1295965Y535245D01*
X1299964D01*
X1300964Y534245D01*
Y531246D01*
X1300464Y569000D02*
X1296465D01*
X1294466Y570999D01*
X1296465Y572999D01*
X1300464D01*
X1299464Y578997D02*
X1300464Y577997D01*
Y575998D01*
X1299464Y574998D01*
X1295465D01*
X1294466Y575998D01*
Y577997D01*
X1295465Y578997D01*
X1299464Y584995D02*
X1300464Y583995D01*
Y581996D01*
X1299464Y580996D01*
X1295465D01*
X1294466Y581996D01*
Y583995D01*
X1295465Y584995D01*
X1303694Y281086D02*
Y285085D01*
X1305693Y287084D01*
X1307692Y285085D01*
Y281086D01*
X1313690Y282086D02*
X1312691Y281086D01*
X1310692D01*
X1309692Y282086D01*
Y286084D01*
X1310692Y287084D01*
X1312691D01*
X1313690Y286084D01*
X1319689Y282086D02*
X1318689Y281086D01*
X1316689D01*
X1315690Y282086D01*
Y286084D01*
X1316689Y287084D01*
X1318689D01*
X1319689Y286084D01*
X1307714Y364252D02*
X1306715Y363252D01*
X1304715D01*
X1303716Y364252D01*
Y368250D01*
X1304715Y369250D01*
X1306715D01*
X1307714Y368250D01*
Y366251D01*
X1305715D01*
X1309714Y369250D02*
Y363252D01*
X1313712Y369250D01*
Y363252D01*
X1315712D02*
Y369250D01*
X1318711D01*
X1319711Y368250D01*
Y364252D01*
X1318711Y363252D01*
X1315712D01*
X1327964Y132249D02*
Y128250D01*
X1321966D01*
Y132249D01*
X1324965Y128250D02*
Y130249D01*
X1327964Y134248D02*
X1321966Y138247D01*
X1327964D02*
X1321966Y134248D01*
X1327964Y140246D02*
Y144245D01*
Y142246D01*
X1321966D01*
Y149243D02*
X1327964D01*
X1324965Y146244D01*
Y150243D01*
X1289214Y132749D02*
Y128750D01*
X1283216D01*
Y132749D01*
X1286215Y128750D02*
Y130749D01*
X1289214Y134748D02*
X1283216Y138747D01*
X1289214D02*
X1283216Y134748D01*
X1289214Y140746D02*
Y144745D01*
Y142746D01*
X1283216D01*
Y150743D02*
Y146744D01*
X1287214Y150743D01*
X1288214D01*
X1289214Y149743D01*
Y147744D01*
X1288214Y146744D01*
X1134448Y402081D02*
X1135448Y401081D01*
Y399082D01*
X1134448Y398082D01*
X1130449D01*
X1129450Y399082D01*
Y401081D01*
X1130449Y402081D01*
X1129450Y404080D02*
Y406079D01*
Y405080D01*
X1135448D01*
X1134448Y404080D01*
X1135210Y328421D02*
X1136210Y327421D01*
Y325422D01*
X1135210Y324422D01*
X1131211D01*
X1130212Y325422D01*
Y327421D01*
X1131211Y328421D01*
X1130212Y334419D02*
Y330420D01*
X1134210Y334419D01*
X1135210D01*
X1136210Y333419D01*
Y331420D01*
X1135210Y330420D01*
X1216964Y472317D02*
X1215964Y471317D01*
X1213965D01*
X1212965Y472317D01*
Y476316D01*
X1213965Y477315D01*
X1215964D01*
X1216964Y476316D01*
X1218963Y472317D02*
X1219963Y471317D01*
X1221963D01*
X1222962Y472317D01*
Y473317D01*
X1221963Y474316D01*
X1220963D01*
X1221963D01*
X1222962Y475316D01*
Y476316D01*
X1221963Y477315D01*
X1219963D01*
X1218963Y476316D01*
X1316381Y381082D02*
X1317214Y380249D01*
Y378583D01*
X1316381Y377750D01*
X1313049D01*
X1312216Y378583D01*
Y380249D01*
X1313049Y381082D01*
X1312216Y385248D02*
X1317214D01*
X1314715Y382748D01*
Y386081D01*
X1198886Y271028D02*
X1197886Y270028D01*
X1195887D01*
X1194887Y271028D01*
Y275026D01*
X1195887Y276026D01*
X1197886D01*
X1198886Y275026D01*
X1200885D02*
X1201885Y276026D01*
X1203884D01*
X1204884Y275026D01*
Y271028D01*
X1203884Y270028D01*
X1201885D01*
X1200885Y271028D01*
Y272027D01*
X1201885Y273027D01*
X1204884D01*
X1193628Y282804D02*
X1192629Y281804D01*
X1190629D01*
X1189630Y282804D01*
Y286802D01*
X1190629Y287802D01*
X1192629D01*
X1193628Y286802D01*
X1195628Y287802D02*
X1197627D01*
X1196628D01*
Y281804D01*
X1195628Y282804D01*
X1200626D02*
X1201626Y281804D01*
X1203625D01*
X1204625Y282804D01*
Y286802D01*
X1203625Y287802D01*
X1201626D01*
X1200626Y286802D01*
Y282804D01*
X1308438Y858519D02*
X1309438Y857519D01*
Y855520D01*
X1308438Y854520D01*
X1304439D01*
X1303440Y855520D01*
Y857519D01*
X1304439Y858519D01*
X1303440Y860518D02*
Y862517D01*
Y861518D01*
X1309438D01*
X1308438Y860518D01*
X1303440Y865516D02*
Y867516D01*
Y866516D01*
X1309438D01*
X1308438Y865516D01*
X1136734Y281939D02*
X1137734Y280939D01*
Y278940D01*
X1136734Y277940D01*
X1132735D01*
X1131736Y278940D01*
Y280939D01*
X1132735Y281939D01*
X1131736Y283938D02*
Y285937D01*
Y284938D01*
X1137734D01*
X1136734Y283938D01*
X1131736Y292935D02*
Y288936D01*
X1135734Y292935D01*
X1136734D01*
X1137734Y291936D01*
Y289936D01*
X1136734Y288936D01*
X1101698Y828948D02*
X1100699Y827948D01*
X1098699D01*
X1097700Y828948D01*
Y832946D01*
X1098699Y833946D01*
X1100699D01*
X1101698Y832946D01*
X1103698Y833946D02*
X1105697D01*
X1104697D01*
Y827948D01*
X1103698Y828948D01*
X1108696D02*
X1109696Y827948D01*
X1111695D01*
X1112695Y828948D01*
Y829947D01*
X1111695Y830947D01*
X1110695D01*
X1111695D01*
X1112695Y831947D01*
Y832946D01*
X1111695Y833946D01*
X1109696D01*
X1108696Y832946D01*
X1215588Y253316D02*
X1214589Y252316D01*
X1212589D01*
X1211590Y253316D01*
Y257314D01*
X1212589Y258314D01*
X1214589D01*
X1215588Y257314D01*
X1217588Y258314D02*
X1219587D01*
X1218587D01*
Y252316D01*
X1217588Y253316D01*
X1225585Y258314D02*
Y252316D01*
X1222586Y255315D01*
X1226585D01*
X1063714Y140817D02*
X1062714Y139817D01*
X1060715D01*
X1059715Y140817D01*
Y144816D01*
X1060715Y145815D01*
X1062714D01*
X1063714Y144816D01*
X1065714Y145815D02*
X1067713D01*
X1066713D01*
Y139817D01*
X1065714Y140817D01*
X1070712Y144816D02*
X1071712Y145815D01*
X1073711D01*
X1074711Y144816D01*
Y140817D01*
X1073711Y139817D01*
X1071712D01*
X1070712Y140817D01*
Y141817D01*
X1071712Y142816D01*
X1074711D01*
X1235548Y256416D02*
X1236464Y255499D01*
Y253666D01*
X1235548Y252750D01*
X1231882D01*
X1230966Y253666D01*
Y255499D01*
X1231882Y256416D01*
X1235548Y258248D02*
X1236464Y259165D01*
Y260997D01*
X1235548Y261914D01*
X1234631D01*
X1233715Y260997D01*
Y260081D01*
Y260997D01*
X1232798Y261914D01*
X1231882D01*
X1230966Y260997D01*
Y259165D01*
X1231882Y258248D01*
X1235548Y263746D02*
X1236464Y264663D01*
Y266495D01*
X1235548Y267412D01*
X1231882D01*
X1230966Y266495D01*
Y264663D01*
X1231882Y263746D01*
X1235548D01*
X1153072Y237398D02*
Y243396D01*
X1156071D01*
X1157070Y242396D01*
Y238398D01*
X1156071Y237398D01*
X1153072D01*
X1159070Y243396D02*
X1161069D01*
X1160070D01*
Y237398D01*
X1159070Y238398D01*
X1164068Y243396D02*
X1166068D01*
X1165068D01*
Y237398D01*
X1164068Y238398D01*
X1205838Y222158D02*
X1201840D01*
Y225157D01*
X1203839D01*
X1201840D01*
Y228156D01*
X1207838D02*
X1209837D01*
X1208838D01*
Y222158D01*
X1207838Y223158D01*
X1328214Y368915D02*
Y367083D01*
Y367999D01*
X1323632D01*
X1322716Y367083D01*
Y366166D01*
X1323632Y365250D01*
X1322716Y374414D02*
Y370748D01*
X1326381Y374414D01*
X1327298D01*
X1328214Y373497D01*
Y371665D01*
X1327298Y370748D01*
X1159216Y268502D02*
Y274500D01*
X1163214D01*
X1165214D02*
X1167213D01*
X1166214D01*
Y268502D01*
X1165214Y269502D01*
X1102748Y238272D02*
Y244270D01*
X1106747D01*
X1112745D02*
X1108746D01*
X1112745Y240271D01*
Y239272D01*
X1111745Y238272D01*
X1109745D01*
X1108746Y239272D01*
X1247214Y942066D02*
Y938067D01*
X1246214Y937067D01*
X1244215D01*
X1243215Y938067D01*
Y942066D01*
X1244215Y943065D01*
X1246214D01*
X1245215Y941066D02*
X1247214Y943065D01*
X1246214D02*
X1247214Y942066D01*
X1249213Y943065D02*
X1251213D01*
X1250213D01*
Y937067D01*
X1249213Y938067D01*
X1382965Y156064D02*
X1386964D01*
X1387964Y155064D01*
Y153065D01*
X1386964Y152065D01*
X1382965D01*
X1381965Y153065D01*
Y155064D01*
X1383965Y154065D02*
X1381965Y156064D01*
Y155064D02*
X1382965Y156064D01*
X1381965Y162062D02*
Y158063D01*
X1385964Y162062D01*
X1386964D01*
X1387964Y161062D01*
Y159063D01*
X1386964Y158063D01*
X1189582Y887622D02*
Y883623D01*
X1188583Y882623D01*
X1186583D01*
X1185583Y883623D01*
Y887622D01*
X1186583Y888621D01*
X1188583D01*
X1187583Y886622D02*
X1189582Y888621D01*
X1188583D02*
X1189582Y887622D01*
X1194581Y888621D02*
Y882623D01*
X1191581Y885622D01*
X1195580D01*
X1288215Y907815D02*
Y901817D01*
X1291214D01*
X1292214Y902817D01*
Y904816D01*
X1291214Y905816D01*
X1288215D01*
X1290215D02*
X1292214Y907815D01*
X1294214D02*
X1296213D01*
X1295213D01*
Y901817D01*
X1294214Y902817D01*
X1269965Y931815D02*
X1275964D01*
Y934814D01*
X1274964Y935814D01*
X1272964D01*
X1271965Y934814D01*
Y931815D01*
Y933815D02*
X1269965Y935814D01*
X1274964Y937813D02*
X1275964Y938813D01*
Y940812D01*
X1274964Y941812D01*
X1273964D01*
X1272964Y940812D01*
Y939813D01*
Y940812D01*
X1271965Y941812D01*
X1270965D01*
X1269965Y940812D01*
Y938813D01*
X1270965Y937813D01*
X1365465Y199315D02*
X1371463D01*
Y202314D01*
X1370464Y203314D01*
X1368465D01*
X1367465Y202314D01*
Y199315D01*
Y201315D02*
X1365465Y203314D01*
Y208312D02*
X1371463D01*
X1368465Y205313D01*
Y209312D01*
X1344715Y198815D02*
X1350714D01*
Y201814D01*
X1349714Y202814D01*
X1347714D01*
X1346715Y201814D01*
Y198815D01*
Y200815D02*
X1344715Y202814D01*
X1350714Y208812D02*
X1349714Y206813D01*
X1347714Y204813D01*
X1345715D01*
X1344715Y205813D01*
Y207812D01*
X1345715Y208812D01*
X1346715D01*
X1347714Y207812D01*
Y204813D01*
X1356716Y259250D02*
Y253752D01*
X1359465D01*
X1360381Y254668D01*
Y256501D01*
X1359465Y257417D01*
X1356716D01*
X1358548D02*
X1360381Y259250D01*
X1362214Y254668D02*
X1363130Y253752D01*
X1364963D01*
X1365879Y254668D01*
Y255585D01*
X1364963Y256501D01*
X1365879Y257417D01*
Y258334D01*
X1364963Y259250D01*
X1363130D01*
X1362214Y258334D01*
Y257417D01*
X1363130Y256501D01*
X1362214Y255585D01*
Y254668D01*
X1363130Y256501D02*
X1364963D01*
X1259016Y475096D02*
X1265014D01*
Y478095D01*
X1264014Y479094D01*
X1262015D01*
X1261015Y478095D01*
Y475096D01*
Y477095D02*
X1259016Y479094D01*
Y481094D02*
Y483093D01*
Y482093D01*
X1265014D01*
X1264014Y481094D01*
Y486092D02*
X1265014Y487092D01*
Y489091D01*
X1264014Y490091D01*
X1260015D01*
X1259016Y489091D01*
Y487092D01*
X1260015Y486092D01*
X1264014D01*
X1248348Y475350D02*
X1254346D01*
Y478349D01*
X1253346Y479348D01*
X1251347D01*
X1250347Y478349D01*
Y475350D01*
Y477349D02*
X1248348Y479348D01*
Y481348D02*
Y483347D01*
Y482347D01*
X1254346D01*
X1253346Y481348D01*
X1248348Y486346D02*
Y488345D01*
Y487346D01*
X1254346D01*
X1253346Y486346D01*
X1234098Y475298D02*
X1240096D01*
Y478297D01*
X1239096Y479297D01*
X1237097D01*
X1236097Y478297D01*
Y475298D01*
Y477297D02*
X1234098Y479297D01*
Y481296D02*
Y483295D01*
Y482296D01*
X1240096D01*
X1239096Y481296D01*
X1234098Y490293D02*
Y486294D01*
X1238096Y490293D01*
X1239096D01*
X1240096Y489294D01*
Y487294D01*
X1239096Y486294D01*
X1173965Y478815D02*
X1179964D01*
Y481814D01*
X1178964Y482814D01*
X1176964D01*
X1175965Y481814D01*
Y478815D01*
Y480815D02*
X1173965Y482814D01*
Y484813D02*
Y486813D01*
Y485813D01*
X1179964D01*
X1178964Y484813D01*
X1179964Y493810D02*
X1178964Y491811D01*
X1176964Y489812D01*
X1174965D01*
X1173965Y490811D01*
Y492811D01*
X1174965Y493810D01*
X1175965D01*
X1176964Y492811D01*
Y489812D01*
X1183780Y473674D02*
X1189778D01*
Y476673D01*
X1188778Y477672D01*
X1186779D01*
X1185779Y476673D01*
Y473674D01*
Y475673D02*
X1183780Y477672D01*
Y479672D02*
Y481671D01*
Y480671D01*
X1189778D01*
X1188778Y479672D01*
X1189778Y484670D02*
Y488669D01*
X1188778D01*
X1184779Y484670D01*
X1183780D01*
X1193690Y473674D02*
X1199688D01*
Y476673D01*
X1198688Y477672D01*
X1196689D01*
X1195689Y476673D01*
Y473674D01*
Y475673D02*
X1193690Y477672D01*
Y479672D02*
Y481671D01*
Y480671D01*
X1199688D01*
X1198688Y479672D01*
Y484670D02*
X1199688Y485670D01*
Y487669D01*
X1198688Y488669D01*
X1197688D01*
X1196689Y487669D01*
X1195689Y488669D01*
X1194689D01*
X1193690Y487669D01*
Y485670D01*
X1194689Y484670D01*
X1195689D01*
X1196689Y485670D01*
X1197688Y484670D01*
X1198688D01*
X1196689Y485670D02*
Y487669D01*
X1282215Y856565D02*
X1288214D01*
Y859564D01*
X1287214Y860564D01*
X1285214D01*
X1284215Y859564D01*
Y856565D01*
Y858565D02*
X1282215Y860564D01*
Y862563D02*
Y864563D01*
Y863563D01*
X1288214D01*
X1287214Y862563D01*
X1283215Y867562D02*
X1282215Y868561D01*
Y870561D01*
X1283215Y871560D01*
X1287214D01*
X1288214Y870561D01*
Y868561D01*
X1287214Y867562D01*
X1286214D01*
X1285214Y868561D01*
Y871560D01*
X1303215Y422065D02*
Y417067D01*
X1305715D01*
X1306548Y417900D01*
Y419566D01*
X1305715Y420399D01*
X1303215D01*
X1304881D02*
X1306548Y422065D01*
X1311546D02*
X1308214D01*
X1311546Y418733D01*
Y417900D01*
X1310713Y417067D01*
X1309047D01*
X1308214Y417900D01*
X1315711Y422065D02*
Y417067D01*
X1313212Y419566D01*
X1316544D01*
X1302466Y449750D02*
Y444752D01*
X1304965D01*
X1305798Y445585D01*
Y447251D01*
X1304965Y448084D01*
X1302466D01*
X1304132D02*
X1305798Y449750D01*
X1310796D02*
X1307464D01*
X1310796Y446418D01*
Y445585D01*
X1309963Y444752D01*
X1308297D01*
X1307464Y445585D01*
X1315795Y444752D02*
X1312462D01*
Y447251D01*
X1314129Y446418D01*
X1314962D01*
X1315795Y447251D01*
Y448917D01*
X1314962Y449750D01*
X1313295D01*
X1312462Y448917D01*
X1258965Y875565D02*
X1264964D01*
Y878564D01*
X1263964Y879564D01*
X1261964D01*
X1260965Y878564D01*
Y875565D01*
Y877565D02*
X1258965Y879564D01*
Y885562D02*
Y881563D01*
X1262964Y885562D01*
X1263964D01*
X1264964Y884562D01*
Y882563D01*
X1263964Y881563D01*
X1264964Y891560D02*
X1263964Y889561D01*
X1261964Y887561D01*
X1259965D01*
X1258965Y888561D01*
Y890560D01*
X1259965Y891560D01*
X1260965D01*
X1261964Y890560D01*
Y887561D01*
X1242715Y847065D02*
Y841067D01*
X1245714D01*
X1246714Y842067D01*
Y844066D01*
X1245714Y845066D01*
X1242715D01*
X1244715D02*
X1246714Y847065D01*
X1252712D02*
X1248714D01*
X1252712Y843067D01*
Y842067D01*
X1251712Y841067D01*
X1249713D01*
X1248714Y842067D01*
X1254712Y841067D02*
X1258710D01*
Y842067D01*
X1254712Y846066D01*
Y847065D01*
X1288466Y451750D02*
X1294464D01*
Y454749D01*
X1293464Y455749D01*
X1291465D01*
X1290465Y454749D01*
Y451750D01*
Y453749D02*
X1288466Y455749D01*
Y461747D02*
Y457748D01*
X1292464Y461747D01*
X1293464D01*
X1294464Y460747D01*
Y458748D01*
X1293464Y457748D01*
Y463746D02*
X1294464Y464746D01*
Y466745D01*
X1293464Y467745D01*
X1292464D01*
X1291465Y466745D01*
X1290465Y467745D01*
X1289465D01*
X1288466Y466745D01*
Y464746D01*
X1289465Y463746D01*
X1290465D01*
X1291465Y464746D01*
X1292464Y463746D01*
X1293464D01*
X1291465Y464746D02*
Y466745D01*
X1317716Y452000D02*
X1323714D01*
Y454999D01*
X1322714Y455999D01*
X1320715D01*
X1319715Y454999D01*
Y452000D01*
Y453999D02*
X1317716Y455999D01*
Y461997D02*
Y457998D01*
X1321714Y461997D01*
X1322714D01*
X1323714Y460997D01*
Y458998D01*
X1322714Y457998D01*
X1318715Y463996D02*
X1317716Y464996D01*
Y466995D01*
X1318715Y467995D01*
X1322714D01*
X1323714Y466995D01*
Y464996D01*
X1322714Y463996D01*
X1321714D01*
X1320715Y464996D01*
Y467995D01*
X1144182Y453708D02*
X1150180D01*
Y456707D01*
X1149180Y457707D01*
X1147181D01*
X1146181Y456707D01*
Y453708D01*
Y455707D02*
X1144182Y457707D01*
X1149180Y459706D02*
X1150180Y460706D01*
Y462705D01*
X1149180Y463705D01*
X1148180D01*
X1147181Y462705D01*
Y461705D01*
Y462705D01*
X1146181Y463705D01*
X1145181D01*
X1144182Y462705D01*
Y460706D01*
X1145181Y459706D01*
X1149180Y465704D02*
X1150180Y466704D01*
Y468703D01*
X1149180Y469703D01*
X1145181D01*
X1144182Y468703D01*
Y466704D01*
X1145181Y465704D01*
X1149180D01*
X1131716Y780000D02*
X1137714D01*
Y782999D01*
X1136714Y783999D01*
X1134715D01*
X1133715Y782999D01*
Y780000D01*
Y781999D02*
X1131716Y783999D01*
X1136714Y785998D02*
X1137714Y786998D01*
Y788997D01*
X1136714Y789997D01*
X1135714D01*
X1134715Y788997D01*
Y787997D01*
Y788997D01*
X1133715Y789997D01*
X1132715D01*
X1131716Y788997D01*
Y786998D01*
X1132715Y785998D01*
X1131716Y791996D02*
Y793996D01*
Y792996D01*
X1137714D01*
X1136714Y791996D01*
X1305966Y399750D02*
Y394752D01*
X1308465D01*
X1309298Y395585D01*
Y397251D01*
X1308465Y398084D01*
X1305966D01*
X1307632D02*
X1309298Y399750D01*
X1310964Y395585D02*
X1311797Y394752D01*
X1313463D01*
X1314296Y395585D01*
Y396418D01*
X1313463Y397251D01*
X1312630D01*
X1313463D01*
X1314296Y398084D01*
Y398917D01*
X1313463Y399750D01*
X1311797D01*
X1310964Y398917D01*
X1319295Y399750D02*
X1315963D01*
X1319295Y396418D01*
Y395585D01*
X1318462Y394752D01*
X1316796D01*
X1315963Y395585D01*
X1149216Y286750D02*
Y280752D01*
X1152215D01*
X1153214Y281752D01*
Y283751D01*
X1152215Y284751D01*
X1149216D01*
X1151215D02*
X1153214Y286750D01*
X1155214Y281752D02*
X1156214Y280752D01*
X1158213D01*
X1159212Y281752D01*
Y282751D01*
X1158213Y283751D01*
X1157213D01*
X1158213D01*
X1159212Y284751D01*
Y285750D01*
X1158213Y286750D01*
X1156214D01*
X1155214Y285750D01*
X1161212Y281752D02*
X1162212Y280752D01*
X1164211D01*
X1165210Y281752D01*
Y282751D01*
X1164211Y283751D01*
X1163211D01*
X1164211D01*
X1165210Y284751D01*
Y285750D01*
X1164211Y286750D01*
X1162212D01*
X1161212Y285750D01*
X1131716Y800500D02*
X1137714D01*
Y803499D01*
X1136714Y804499D01*
X1134715D01*
X1133715Y803499D01*
Y800500D01*
Y802499D02*
X1131716Y804499D01*
X1136714Y806498D02*
X1137714Y807498D01*
Y809497D01*
X1136714Y810497D01*
X1135714D01*
X1134715Y809497D01*
Y808497D01*
Y809497D01*
X1133715Y810497D01*
X1132715D01*
X1131716Y809497D01*
Y807498D01*
X1132715Y806498D01*
X1131716Y815495D02*
X1137714D01*
X1134715Y812496D01*
Y816495D01*
X1111966Y800250D02*
X1117964D01*
Y803249D01*
X1116964Y804249D01*
X1114965D01*
X1113965Y803249D01*
Y800250D01*
Y802249D02*
X1111966Y804249D01*
X1116964Y806248D02*
X1117964Y807248D01*
Y809247D01*
X1116964Y810247D01*
X1115964D01*
X1114965Y809247D01*
Y808247D01*
Y809247D01*
X1113965Y810247D01*
X1112965D01*
X1111966Y809247D01*
Y807248D01*
X1112965Y806248D01*
X1117964Y816245D02*
Y812246D01*
X1114965D01*
X1115964Y814246D01*
Y815245D01*
X1114965Y816245D01*
X1112965D01*
X1111966Y815245D01*
Y813246D01*
X1112965Y812246D01*
X1246216Y280250D02*
Y274252D01*
X1249215D01*
X1250214Y275252D01*
Y277251D01*
X1249215Y278251D01*
X1246216D01*
X1248215D02*
X1250214Y280250D01*
X1252214Y275252D02*
X1253214Y274252D01*
X1255213D01*
X1256212Y275252D01*
Y276251D01*
X1255213Y277251D01*
X1254213D01*
X1255213D01*
X1256212Y278251D01*
Y279250D01*
X1255213Y280250D01*
X1253214D01*
X1252214Y279250D01*
X1262211Y274252D02*
X1260211Y275252D01*
X1258212Y277251D01*
Y279250D01*
X1259212Y280250D01*
X1261211D01*
X1262211Y279250D01*
Y278251D01*
X1261211Y277251D01*
X1258212D01*
X1340466Y239750D02*
Y234252D01*
X1343215D01*
X1344131Y235168D01*
Y237001D01*
X1343215Y237917D01*
X1340466D01*
X1342298D02*
X1344131Y239750D01*
X1345964Y235168D02*
X1346880Y234252D01*
X1348713D01*
X1349629Y235168D01*
Y236084D01*
X1348713Y237001D01*
X1347797D01*
X1348713D01*
X1349629Y237917D01*
Y238834D01*
X1348713Y239750D01*
X1346880D01*
X1345964Y238834D01*
X1351462Y234252D02*
X1355128D01*
Y235168D01*
X1351462Y238834D01*
Y239750D01*
X1191715Y843065D02*
Y837067D01*
X1194715D01*
X1195714Y838067D01*
Y840066D01*
X1194715Y841066D01*
X1191715D01*
X1193715D02*
X1195714Y843065D01*
X1197713Y838067D02*
X1198713Y837067D01*
X1200713D01*
X1201712Y838067D01*
Y839067D01*
X1200713Y840066D01*
X1199713D01*
X1200713D01*
X1201712Y841066D01*
Y842066D01*
X1200713Y843065D01*
X1198713D01*
X1197713Y842066D01*
X1203711Y838067D02*
X1204711Y837067D01*
X1206711D01*
X1207710Y838067D01*
Y839067D01*
X1206711Y840066D01*
X1207710Y841066D01*
Y842066D01*
X1206711Y843065D01*
X1204711D01*
X1203711Y842066D01*
Y841066D01*
X1204711Y840066D01*
X1203711Y839067D01*
Y838067D01*
X1204711Y840066D02*
X1206711D01*
X1155612Y259398D02*
Y253400D01*
X1158611D01*
X1159610Y254400D01*
Y256399D01*
X1158611Y257399D01*
X1155612D01*
X1157611D02*
X1159610Y259398D01*
X1164609D02*
Y253400D01*
X1161610Y256399D01*
X1165609D01*
X1167608Y254400D02*
X1168607Y253400D01*
X1170607D01*
X1171607Y254400D01*
Y258398D01*
X1170607Y259398D01*
X1168607D01*
X1167608Y258398D01*
Y254400D01*
X1060216Y179750D02*
Y173752D01*
X1063215D01*
X1064214Y174752D01*
Y176751D01*
X1063215Y177751D01*
X1060216D01*
X1062215D02*
X1064214Y179750D01*
X1069213D02*
Y173752D01*
X1066214Y176751D01*
X1070212D01*
X1075211Y179750D02*
Y173752D01*
X1072212Y176751D01*
X1076210D01*
X1288102Y434150D02*
X1283103D01*
X1282104Y435150D01*
Y437149D01*
X1283103Y438149D01*
X1288102D01*
X1282104Y440148D02*
Y442147D01*
Y441148D01*
X1288102D01*
X1287102Y440148D01*
X1310964Y746750D02*
X1305965D01*
X1304966Y747750D01*
Y749749D01*
X1305965Y750749D01*
X1310964D01*
X1304966Y756747D02*
Y752748D01*
X1308964Y756747D01*
X1309964D01*
X1310964Y755747D01*
Y753748D01*
X1309964Y752748D01*
X1220818Y735192D02*
X1215819D01*
X1214820Y736191D01*
Y738191D01*
X1215819Y739190D01*
X1220818D01*
X1219818Y741190D02*
X1220818Y742189D01*
Y744189D01*
X1219818Y745188D01*
X1218818D01*
X1217819Y744189D01*
Y743189D01*
Y744189D01*
X1216819Y745188D01*
X1215819D01*
X1214820Y744189D01*
Y742189D01*
X1215819Y741190D01*
X1404180Y705233D02*
X1399181D01*
X1398181Y706233D01*
Y708232D01*
X1399181Y709232D01*
X1404180D01*
Y715230D02*
Y711231D01*
X1401181D01*
X1402180Y713231D01*
Y714230D01*
X1401181Y715230D01*
X1399181D01*
X1398181Y714230D01*
Y712231D01*
X1399181Y711231D01*
X1190312Y180404D02*
X1185313D01*
X1184314Y181404D01*
Y183403D01*
X1185313Y184403D01*
X1190312D01*
X1189312Y186402D02*
X1190312Y187402D01*
Y189401D01*
X1189312Y190401D01*
X1188312D01*
X1187313Y189401D01*
X1186313Y190401D01*
X1185313D01*
X1184314Y189401D01*
Y187402D01*
X1185313Y186402D01*
X1186313D01*
X1187313Y187402D01*
X1188312Y186402D01*
X1189312D01*
X1187313Y187402D02*
Y189401D01*
X1140966Y269002D02*
Y274000D01*
X1141965Y275000D01*
X1143965D01*
X1144964Y274000D01*
Y269002D01*
X1146964Y274000D02*
X1147963Y275000D01*
X1149963D01*
X1150963Y274000D01*
Y270002D01*
X1149963Y269002D01*
X1147963D01*
X1146964Y270002D01*
Y271001D01*
X1147963Y272001D01*
X1150963D01*
X1281964Y508314D02*
X1282964Y507314D01*
Y505315D01*
X1281964Y504315D01*
X1280964D01*
X1279965Y505315D01*
Y507314D01*
X1278965Y508314D01*
X1277965D01*
X1276965Y507314D01*
Y505315D01*
X1277965Y504315D01*
X1282964Y510313D02*
X1276965D01*
X1278965Y512313D01*
X1276965Y514312D01*
X1282964D01*
X1276965Y516311D02*
Y518311D01*
Y517311D01*
X1282964D01*
X1281964Y516311D01*
X1369226Y678596D02*
Y683594D01*
X1370225Y684594D01*
X1372225D01*
X1373224Y683594D01*
Y678596D01*
X1375224Y684594D02*
X1377223D01*
X1376223D01*
Y678596D01*
X1375224Y679596D01*
X1380222D02*
X1381222Y678596D01*
X1383221D01*
X1384221Y679596D01*
Y680595D01*
X1383221Y681595D01*
X1384221Y682595D01*
Y683594D01*
X1383221Y684594D01*
X1381222D01*
X1380222Y683594D01*
Y682595D01*
X1381222Y681595D01*
X1380222Y680595D01*
Y679596D01*
X1381222Y681595D02*
X1383221D01*
X1064215Y743817D02*
Y748816D01*
X1065215Y749815D01*
X1067215D01*
X1068214Y748816D01*
Y743817D01*
X1070213Y749815D02*
X1072213D01*
X1071213D01*
Y743817D01*
X1070213Y744817D01*
X1078211Y749815D02*
Y743817D01*
X1075212Y746816D01*
X1079211D01*
X1142963Y594815D02*
X1137965D01*
X1136965Y595815D01*
Y597814D01*
X1137965Y598814D01*
X1142963D01*
X1136965Y600813D02*
Y602813D01*
Y601813D01*
X1142963D01*
X1141964Y600813D01*
Y605812D02*
X1142963Y606811D01*
Y608811D01*
X1141964Y609810D01*
X1140964D01*
X1139965Y608811D01*
Y607811D01*
Y608811D01*
X1138965Y609810D01*
X1137965D01*
X1136965Y608811D01*
Y606811D01*
X1137965Y605812D01*
X1247560Y237046D02*
X1253558D01*
Y240045D01*
X1252558Y241045D01*
X1250559D01*
X1249559Y240045D01*
Y237046D01*
Y239045D02*
X1247560Y241045D01*
X1253558Y243044D02*
Y247043D01*
X1252558D01*
X1248559Y243044D01*
X1247560D01*
X1253558Y253041D02*
Y249042D01*
X1250559D01*
X1251558Y251042D01*
Y252041D01*
X1250559Y253041D01*
X1248559D01*
X1247560Y252041D01*
Y250042D01*
X1248559Y249042D01*
X1055715Y622315D02*
X1061214D01*
Y625064D01*
X1060297Y625981D01*
X1058465D01*
X1057548Y625064D01*
Y622315D01*
Y624148D02*
X1055715Y625981D01*
X1061214Y627813D02*
Y631479D01*
X1060297D01*
X1056632Y627813D01*
X1055715D01*
X1060297Y633312D02*
X1061214Y634228D01*
Y636061D01*
X1060297Y636977D01*
X1059381D01*
X1058465Y636061D01*
Y635144D01*
Y636061D01*
X1057548Y636977D01*
X1056632D01*
X1055715Y636061D01*
Y634228D01*
X1056632Y633312D01*
X1084465Y624315D02*
X1090463D01*
Y627314D01*
X1089464Y628314D01*
X1087464D01*
X1086465Y627314D01*
Y624315D01*
Y626315D02*
X1084465Y628314D01*
X1090463Y630313D02*
Y634312D01*
X1089464D01*
X1085465Y630313D01*
X1084465D01*
Y640310D02*
Y636311D01*
X1088464Y640310D01*
X1089464D01*
X1090463Y639310D01*
Y637311D01*
X1089464Y636311D01*
X1089090Y747384D02*
X1095088D01*
Y750383D01*
X1094088Y751382D01*
X1092089D01*
X1091089Y750383D01*
Y747384D01*
Y749383D02*
X1089090Y751382D01*
X1095088Y757380D02*
X1094088Y755381D01*
X1092089Y753382D01*
X1090089D01*
X1089090Y754381D01*
Y756381D01*
X1090089Y757380D01*
X1091089D01*
X1092089Y756381D01*
Y753382D01*
X1090089Y759380D02*
X1089090Y760379D01*
Y762379D01*
X1090089Y763378D01*
X1094088D01*
X1095088Y762379D01*
Y760379D01*
X1094088Y759380D01*
X1093088D01*
X1092089Y760379D01*
Y763378D01*
X1098465Y707565D02*
X1104464D01*
Y710564D01*
X1103464Y711564D01*
X1101464D01*
X1100465Y710564D01*
Y707565D01*
Y709565D02*
X1098465Y711564D01*
X1104464Y717562D02*
X1103464Y715563D01*
X1101464Y713563D01*
X1099465D01*
X1098465Y714563D01*
Y716562D01*
X1099465Y717562D01*
X1100465D01*
X1101464Y716562D01*
Y713563D01*
X1103464Y719561D02*
X1104464Y720561D01*
Y722560D01*
X1103464Y723560D01*
X1102464D01*
X1101464Y722560D01*
X1100465Y723560D01*
X1099465D01*
X1098465Y722560D01*
Y720561D01*
X1099465Y719561D01*
X1100465D01*
X1101464Y720561D01*
X1102464Y719561D01*
X1103464D01*
X1101464Y720561D02*
Y722560D01*
X1142716Y663250D02*
X1148714D01*
Y666249D01*
X1147714Y667249D01*
X1145715D01*
X1144715Y666249D01*
Y663250D01*
Y665249D02*
X1142716Y667249D01*
X1148714Y673247D02*
X1147714Y671247D01*
X1145715Y669248D01*
X1143715D01*
X1142716Y670248D01*
Y672247D01*
X1143715Y673247D01*
X1144715D01*
X1145715Y672247D01*
Y669248D01*
X1148714Y679245D02*
Y675246D01*
X1145715D01*
X1146714Y677245D01*
Y678245D01*
X1145715Y679245D01*
X1143715D01*
X1142716Y678245D01*
Y676246D01*
X1143715Y675246D01*
X1063216Y688500D02*
Y682502D01*
X1066215D01*
X1067214Y683502D01*
Y685501D01*
X1066215Y686501D01*
X1063216D01*
X1065215D02*
X1067214Y688500D01*
X1073213Y682502D02*
X1071213Y683502D01*
X1069214Y685501D01*
Y687500D01*
X1070213Y688500D01*
X1072213D01*
X1073213Y687500D01*
Y686501D01*
X1072213Y685501D01*
X1069214D01*
X1079211Y688500D02*
X1075212D01*
X1079211Y684501D01*
Y683502D01*
X1078211Y682502D01*
X1076211D01*
X1075212Y683502D01*
X1051715Y742565D02*
X1057713D01*
Y745564D01*
X1056714Y746564D01*
X1054715D01*
X1053715Y745564D01*
Y742565D01*
Y744565D02*
X1051715Y746564D01*
X1057713Y752562D02*
Y748563D01*
X1054715D01*
X1055714Y750563D01*
Y751562D01*
X1054715Y752562D01*
X1052715D01*
X1051715Y751562D01*
Y749563D01*
X1052715Y748563D01*
X1057713Y754561D02*
Y758560D01*
X1056714D01*
X1052715Y754561D01*
X1051715D01*
X1044215Y683065D02*
X1050213D01*
Y686064D01*
X1049214Y687064D01*
X1047215D01*
X1046215Y686064D01*
Y683065D01*
Y685065D02*
X1044215Y687064D01*
X1050213Y693062D02*
Y689063D01*
X1047215D01*
X1048214Y691063D01*
Y692062D01*
X1047215Y693062D01*
X1045215D01*
X1044215Y692062D01*
Y690063D01*
X1045215Y689063D01*
X1050213Y699060D02*
X1049214Y697061D01*
X1047215Y695061D01*
X1045215D01*
X1044215Y696061D01*
Y698060D01*
X1045215Y699060D01*
X1046215D01*
X1047215Y698060D01*
Y695061D01*
X1117966Y642250D02*
Y636252D01*
X1120965D01*
X1121964Y637252D01*
Y639251D01*
X1120965Y640251D01*
X1117966D01*
X1119965D02*
X1121964Y642250D01*
X1127962Y636252D02*
X1123964D01*
Y639251D01*
X1125963Y638251D01*
X1126963D01*
X1127962Y639251D01*
Y641250D01*
X1126963Y642250D01*
X1124964D01*
X1123964Y641250D01*
X1132961Y642250D02*
Y636252D01*
X1129962Y639251D01*
X1133960D01*
X1149215Y688999D02*
X1153214D01*
X1154214Y687999D01*
Y686000D01*
X1153214Y685000D01*
X1149215D01*
X1148216Y686000D01*
Y687999D01*
X1150215Y686999D02*
X1148216Y688999D01*
Y687999D02*
X1149215Y688999D01*
X1148216Y690998D02*
Y692997D01*
Y691998D01*
X1154214D01*
X1153214Y690998D01*
X1148216Y699995D02*
Y695996D01*
X1152214Y699995D01*
X1153214D01*
X1154214Y698996D01*
Y696996D01*
X1153214Y695996D01*
X1144715Y731249D02*
X1148714D01*
X1149714Y730249D01*
Y728250D01*
X1148714Y727250D01*
X1144715D01*
X1143716Y728250D01*
Y730249D01*
X1145715Y729249D02*
X1143716Y731249D01*
Y730249D02*
X1144715Y731249D01*
X1143716Y733248D02*
Y735247D01*
Y734248D01*
X1149714D01*
X1148714Y733248D01*
Y738246D02*
X1149714Y739246D01*
Y741245D01*
X1148714Y742245D01*
X1144715D01*
X1143716Y741245D01*
Y739246D01*
X1144715Y738246D01*
X1148714D01*
X1121965Y661064D02*
X1125964D01*
X1126964Y660064D01*
Y658065D01*
X1125964Y657065D01*
X1121965D01*
X1120965Y658065D01*
Y660064D01*
X1122965Y659065D02*
X1120965Y661064D01*
Y660064D02*
X1121965Y661064D01*
Y663063D02*
X1120965Y664063D01*
Y666062D01*
X1121965Y667062D01*
X1125964D01*
X1126964Y666062D01*
Y664063D01*
X1125964Y663063D01*
X1124964D01*
X1123964Y664063D01*
Y667062D01*
X1085465Y602064D02*
X1089464D01*
X1090463Y601064D01*
Y599065D01*
X1089464Y598065D01*
X1085465D01*
X1084465Y599065D01*
Y601064D01*
X1086465Y600065D02*
X1084465Y602064D01*
Y601064D02*
X1085465Y602064D01*
X1089464Y604063D02*
X1090463Y605063D01*
Y607062D01*
X1089464Y608062D01*
X1088464D01*
X1087464Y607062D01*
X1086465Y608062D01*
X1085465D01*
X1084465Y607062D01*
Y605063D01*
X1085465Y604063D01*
X1086465D01*
X1087464Y605063D01*
X1088464Y604063D01*
X1089464D01*
X1087464Y605063D02*
Y607062D01*
X1328464Y245500D02*
X1322466D01*
Y248499D01*
X1323465Y249499D01*
X1327464D01*
X1328464Y248499D01*
Y245500D01*
X1322466Y251498D02*
Y253497D01*
Y252498D01*
X1328464D01*
X1327464Y251498D01*
Y256496D02*
X1328464Y257496D01*
Y259496D01*
X1327464Y260495D01*
X1323465D01*
X1322466Y259496D01*
Y257496D01*
X1323465Y256496D01*
X1327464D01*
X1289714Y248000D02*
X1283716D01*
Y250999D01*
X1284715Y251999D01*
X1288714D01*
X1289714Y250999D01*
Y248000D01*
X1284715Y253998D02*
X1283716Y254998D01*
Y256997D01*
X1284715Y257997D01*
X1288714D01*
X1289714Y256997D01*
Y254998D01*
X1288714Y253998D01*
X1287714D01*
X1286715Y254998D01*
Y257997D01*
X1352214Y595317D02*
X1351214Y594317D01*
X1349215D01*
X1348215Y595317D01*
Y599316D01*
X1349215Y600315D01*
X1351214D01*
X1352214Y599316D01*
X1358212Y600315D02*
X1354214D01*
X1358212Y596317D01*
Y595317D01*
X1357213Y594317D01*
X1355213D01*
X1354214Y595317D01*
X1360212D02*
X1361211Y594317D01*
X1363211D01*
X1364210Y595317D01*
Y596317D01*
X1363211Y597316D01*
X1364210Y598316D01*
Y599316D01*
X1363211Y600315D01*
X1361211D01*
X1360212Y599316D01*
Y598316D01*
X1361211Y597316D01*
X1360212Y596317D01*
Y595317D01*
X1361211Y597316D02*
X1363211D01*
X1308438Y617727D02*
X1309438Y616727D01*
Y614728D01*
X1308438Y613728D01*
X1304439D01*
X1303440Y614728D01*
Y616727D01*
X1304439Y617727D01*
X1303440Y623725D02*
Y619726D01*
X1307438Y623725D01*
X1308438D01*
X1309438Y622725D01*
Y620726D01*
X1308438Y619726D01*
X1309438Y625724D02*
Y629723D01*
X1308438D01*
X1304439Y625724D01*
X1303440D01*
X1325214Y571999D02*
Y569999D01*
Y570999D01*
X1320215D01*
X1319216Y569999D01*
Y569000D01*
X1320215Y568000D01*
X1325214Y577997D02*
Y573998D01*
X1322215D01*
X1323214Y575997D01*
Y576997D01*
X1322215Y577997D01*
X1320215D01*
X1319216Y576997D01*
Y574998D01*
X1320215Y573998D01*
X1332964Y483252D02*
X1331965Y482252D01*
X1329965D01*
X1328966Y483252D01*
Y487250D01*
X1329965Y488250D01*
X1331965D01*
X1332964Y487250D01*
X1334964Y483252D02*
X1335963Y482252D01*
X1337963D01*
X1338963Y483252D01*
Y484251D01*
X1337963Y485251D01*
X1336963D01*
X1337963D01*
X1338963Y486251D01*
Y487250D01*
X1337963Y488250D01*
X1335963D01*
X1334964Y487250D01*
X1340962Y488250D02*
X1342961D01*
X1341962D01*
Y482252D01*
X1340962Y483252D01*
X1648933Y811094D02*
G03*
X1642046Y811049I-3398J-7022D01*
G01*
X1641558Y797361D02*
G03*
X1649324Y797252I3977J6711D01*
G01*
X1711558Y797361D02*
G03*
X1719324Y797252I3977J6711D01*
G01*
X1718933Y811094D02*
G03*
X1712047Y811049I-3398J-7022D01*
G01*
X1752073Y565750D02*
Y559500D01*
X1756073D02*
X1754141Y558982D01*
Y545268D02*
X1756073Y544750D01*
X1752073Y559500D02*
X1756073D01*
X1752323Y544750D02*
X1756073D01*
X1752323D02*
Y538500D01*
X1751043Y233222D02*
X1786603D01*
X1751043Y177832D02*
X1786603D01*
X1751043Y104172D02*
X1786349D01*
X1786603Y104426D02*
X1786349Y104172D01*
X1786603Y271812D02*
Y104426D01*
X1751043Y271812D02*
Y104172D01*
Y271812D02*
X1786603D01*
X1712043Y233222D02*
X1747603D01*
X1712043Y177832D02*
X1747603D01*
X1712043Y104172D02*
X1747349D01*
X1747603Y104426D02*
X1747349Y104172D01*
X1747603Y271812D02*
Y104426D01*
X1712043Y271812D02*
Y104172D01*
Y271812D02*
X1747603D01*
X1584851Y369472D02*
X1589851D01*
X1585131Y360782D02*
X1590131D01*
X1683373Y461700D02*
Y456700D01*
X1758323Y391750D02*
X1763323D01*
X1682823Y275500D02*
Y270500D01*
Y287000D02*
Y282000D01*
X1746923Y875992D02*
X1754423D01*
X1585105Y296066D02*
X1590105D01*
X1598663Y834902D02*
Y827402D01*
X1696073Y248250D02*
Y240750D01*
X1510823Y154565D02*
Y149565D01*
X1686323Y270500D02*
X1691323D01*
X1648723Y244000D02*
Y237000D01*
X1637723Y244000D02*
Y237000D01*
X1648723D01*
X1637723Y244000D02*
X1648723D01*
X1587665Y262134D02*
Y246180D01*
X1605164Y262182D02*
Y246227D01*
X1758353Y661362D02*
X1765853D01*
X1772151Y601020D02*
Y593520D01*
X1780885Y487704D02*
Y482704D01*
X1755072Y523249D02*
X1756071Y522249D01*
Y520250D01*
X1755072Y519250D01*
X1751073D01*
X1750073Y520250D01*
Y522249D01*
X1751073Y523249D01*
X1753072D01*
Y521249D01*
X1750073Y525248D02*
X1756071D01*
X1750073Y529247D01*
X1756071D01*
Y531246D02*
X1750073D01*
Y534245D01*
X1751073Y535245D01*
X1755072D01*
X1756071Y534245D01*
Y531246D01*
X1755571Y569000D02*
X1751573D01*
X1749573Y570999D01*
X1751573Y572999D01*
X1755571D01*
X1754572Y578997D02*
X1755571Y577997D01*
Y575998D01*
X1754572Y574998D01*
X1750573D01*
X1749573Y575998D01*
Y577997D01*
X1750573Y578997D01*
X1754572Y584995D02*
X1755571Y583995D01*
Y581996D01*
X1754572Y580996D01*
X1750573D01*
X1749573Y581996D01*
Y583995D01*
X1750573Y584995D01*
X1758801Y281086D02*
Y285085D01*
X1760801Y287084D01*
X1762800Y285085D01*
Y281086D01*
X1768798Y282086D02*
X1767798Y281086D01*
X1765799D01*
X1764799Y282086D01*
Y286084D01*
X1765799Y287084D01*
X1767798D01*
X1768798Y286084D01*
X1774796Y282086D02*
X1773796Y281086D01*
X1771797D01*
X1770797Y282086D01*
Y286084D01*
X1771797Y287084D01*
X1773796D01*
X1774796Y286084D01*
X1762822Y364252D02*
X1761822Y363252D01*
X1759823D01*
X1758823Y364252D01*
Y368250D01*
X1759823Y369250D01*
X1761822D01*
X1762822Y368250D01*
Y366251D01*
X1760823D01*
X1764821Y369250D02*
Y363252D01*
X1768820Y369250D01*
Y363252D01*
X1770819D02*
Y369250D01*
X1773818D01*
X1774818Y368250D01*
Y364252D01*
X1773818Y363252D01*
X1770819D01*
X1783071Y132249D02*
Y128250D01*
X1777073D01*
Y132249D01*
X1780072Y128250D02*
Y130249D01*
X1783071Y134248D02*
X1777073Y138247D01*
X1783071D02*
X1777073Y134248D01*
X1783071Y140246D02*
Y144245D01*
Y142246D01*
X1777073D01*
Y149243D02*
X1783071D01*
X1780072Y146244D01*
Y150243D01*
X1744321Y132749D02*
Y128750D01*
X1738323D01*
Y132749D01*
X1741322Y128750D02*
Y130749D01*
X1744321Y134748D02*
X1738323Y138747D01*
X1744321D02*
X1738323Y134748D01*
X1744321Y140746D02*
Y144745D01*
Y142746D01*
X1738323D01*
Y150743D02*
Y146744D01*
X1742322Y150743D01*
X1743322D01*
X1744321Y149743D01*
Y147744D01*
X1743322Y146744D01*
X1589556Y402081D02*
X1590555Y401081D01*
Y399082D01*
X1589556Y398082D01*
X1585557D01*
X1584557Y399082D01*
Y401081D01*
X1585557Y402081D01*
X1584557Y404080D02*
Y406079D01*
Y405080D01*
X1590555D01*
X1589556Y404080D01*
X1590318Y328421D02*
X1591317Y327421D01*
Y325422D01*
X1590318Y324422D01*
X1586319D01*
X1585319Y325422D01*
Y327421D01*
X1586319Y328421D01*
X1585319Y334419D02*
Y330420D01*
X1589318Y334419D01*
X1590318D01*
X1591317Y333419D01*
Y331420D01*
X1590318Y330420D01*
X1672072Y472317D02*
X1671072Y471317D01*
X1669073D01*
X1668073Y472317D01*
Y476316D01*
X1669073Y477315D01*
X1671072D01*
X1672072Y476316D01*
X1674071Y472317D02*
X1675071Y471317D01*
X1677070D01*
X1678070Y472317D01*
Y473317D01*
X1677070Y474316D01*
X1676070D01*
X1677070D01*
X1678070Y475316D01*
Y476316D01*
X1677070Y477315D01*
X1675071D01*
X1674071Y476316D01*
X1771488Y381082D02*
X1772322Y380249D01*
Y378583D01*
X1771488Y377750D01*
X1768156D01*
X1767323Y378583D01*
Y380249D01*
X1768156Y381082D01*
X1767323Y385248D02*
X1772322D01*
X1769822Y382748D01*
Y386081D01*
X1653994Y271028D02*
X1652994Y270028D01*
X1650995D01*
X1649995Y271028D01*
Y275026D01*
X1650995Y276026D01*
X1652994D01*
X1653994Y275026D01*
X1655993D02*
X1656992Y276026D01*
X1658992D01*
X1659992Y275026D01*
Y271028D01*
X1658992Y270028D01*
X1656992D01*
X1655993Y271028D01*
Y272027D01*
X1656992Y273027D01*
X1659992D01*
X1648736Y282804D02*
X1647736Y281804D01*
X1645737D01*
X1644737Y282804D01*
Y286802D01*
X1645737Y287802D01*
X1647736D01*
X1648736Y286802D01*
X1650735Y287802D02*
X1652735D01*
X1651735D01*
Y281804D01*
X1650735Y282804D01*
X1655734D02*
X1656733Y281804D01*
X1658733D01*
X1659732Y282804D01*
Y286802D01*
X1658733Y287802D01*
X1656733D01*
X1655734Y286802D01*
Y282804D01*
X1763546Y858519D02*
X1764545Y857519D01*
Y855520D01*
X1763546Y854520D01*
X1759547D01*
X1758547Y855520D01*
Y857519D01*
X1759547Y858519D01*
X1758547Y860518D02*
Y862517D01*
Y861518D01*
X1764545D01*
X1763546Y860518D01*
X1758547Y865516D02*
Y867516D01*
Y866516D01*
X1764545D01*
X1763546Y865516D01*
X1591842Y281939D02*
X1592841Y280939D01*
Y278940D01*
X1591842Y277940D01*
X1587843D01*
X1586843Y278940D01*
Y280939D01*
X1587843Y281939D01*
X1586843Y283938D02*
Y285937D01*
Y284938D01*
X1592841D01*
X1591842Y283938D01*
X1586843Y292935D02*
Y288936D01*
X1590842Y292935D01*
X1591842D01*
X1592841Y291936D01*
Y289936D01*
X1591842Y288936D01*
X1556806Y828948D02*
X1555806Y827948D01*
X1553807D01*
X1552807Y828948D01*
Y832946D01*
X1553807Y833946D01*
X1555806D01*
X1556806Y832946D01*
X1558805Y833946D02*
X1560805D01*
X1559805D01*
Y827948D01*
X1558805Y828948D01*
X1563804D02*
X1564803Y827948D01*
X1566803D01*
X1567802Y828948D01*
Y829947D01*
X1566803Y830947D01*
X1565803D01*
X1566803D01*
X1567802Y831947D01*
Y832946D01*
X1566803Y833946D01*
X1564803D01*
X1563804Y832946D01*
X1670696Y253316D02*
X1669696Y252316D01*
X1667697D01*
X1666697Y253316D01*
Y257314D01*
X1667697Y258314D01*
X1669696D01*
X1670696Y257314D01*
X1672695Y258314D02*
X1674695D01*
X1673695D01*
Y252316D01*
X1672695Y253316D01*
X1680693Y258314D02*
Y252316D01*
X1677694Y255315D01*
X1681692D01*
X1518822Y140817D02*
X1517822Y139817D01*
X1515823D01*
X1514823Y140817D01*
Y144816D01*
X1515823Y145815D01*
X1517822D01*
X1518822Y144816D01*
X1520821Y145815D02*
X1522820D01*
X1521821D01*
Y139817D01*
X1520821Y140817D01*
X1525819Y144816D02*
X1526819Y145815D01*
X1528818D01*
X1529818Y144816D01*
Y140817D01*
X1528818Y139817D01*
X1526819D01*
X1525819Y140817D01*
Y141817D01*
X1526819Y142816D01*
X1529818D01*
X1690655Y256416D02*
X1691571Y255499D01*
Y253666D01*
X1690655Y252750D01*
X1686990D01*
X1686073Y253666D01*
Y255499D01*
X1686990Y256416D01*
X1690655Y258248D02*
X1691571Y259165D01*
Y260997D01*
X1690655Y261914D01*
X1689739D01*
X1688822Y260997D01*
Y260081D01*
Y260997D01*
X1687906Y261914D01*
X1686990D01*
X1686073Y260997D01*
Y259165D01*
X1686990Y258248D01*
X1690655Y263746D02*
X1691571Y264663D01*
Y266495D01*
X1690655Y267412D01*
X1686990D01*
X1686073Y266495D01*
Y264663D01*
X1686990Y263746D01*
X1690655D01*
X1608179Y237398D02*
Y243396D01*
X1611178D01*
X1612178Y242396D01*
Y238398D01*
X1611178Y237398D01*
X1608179D01*
X1614177Y243396D02*
X1616177D01*
X1615177D01*
Y237398D01*
X1614177Y238398D01*
X1619176Y243396D02*
X1621175D01*
X1620175D01*
Y237398D01*
X1619176Y238398D01*
X1660946Y222158D02*
X1656947D01*
Y225157D01*
X1658947D01*
X1656947D01*
Y228156D01*
X1662945D02*
X1664945D01*
X1663945D01*
Y222158D01*
X1662945Y223158D01*
X1783321Y368915D02*
Y367083D01*
Y367999D01*
X1778740D01*
X1777823Y367083D01*
Y366166D01*
X1778740Y365250D01*
X1777823Y374414D02*
Y370748D01*
X1781489Y374414D01*
X1782405D01*
X1783321Y373497D01*
Y371665D01*
X1782405Y370748D01*
X1614323Y268502D02*
Y274500D01*
X1618322D01*
X1620321D02*
X1622321D01*
X1621321D01*
Y268502D01*
X1620321Y269502D01*
X1557855Y238272D02*
Y244270D01*
X1561854D01*
X1567852D02*
X1563853D01*
X1567852Y240271D01*
Y239272D01*
X1566852Y238272D01*
X1564853D01*
X1563853Y239272D01*
X1702322Y942066D02*
Y938067D01*
X1701322Y937067D01*
X1699323D01*
X1698323Y938067D01*
Y942066D01*
X1699323Y943065D01*
X1701322D01*
X1700322Y941066D02*
X1702322Y943065D01*
X1701322D02*
X1702322Y942066D01*
X1704321Y943065D02*
X1706320D01*
X1705321D01*
Y937067D01*
X1704321Y938067D01*
X1838073Y156064D02*
X1842071D01*
X1843071Y155064D01*
Y153065D01*
X1842071Y152065D01*
X1838073D01*
X1837073Y153065D01*
Y155064D01*
X1839072Y154065D02*
X1837073Y156064D01*
Y155064D02*
X1838073Y156064D01*
X1837073Y162062D02*
Y158063D01*
X1841072Y162062D01*
X1842071D01*
X1843071Y161062D01*
Y159063D01*
X1842071Y158063D01*
X1644690Y887622D02*
Y883623D01*
X1643690Y882623D01*
X1641691D01*
X1640691Y883623D01*
Y887622D01*
X1641691Y888621D01*
X1643690D01*
X1642690Y886622D02*
X1644690Y888621D01*
X1643690D02*
X1644690Y887622D01*
X1649688Y888621D02*
Y882623D01*
X1646689Y885622D01*
X1650688D01*
X1743323Y907815D02*
Y901817D01*
X1746322D01*
X1747322Y902817D01*
Y904816D01*
X1746322Y905816D01*
X1743323D01*
X1745322D02*
X1747322Y907815D01*
X1749321D02*
X1751320D01*
X1750321D01*
Y901817D01*
X1749321Y902817D01*
X1725073Y931815D02*
X1731071D01*
Y934814D01*
X1730071Y935814D01*
X1728072D01*
X1727072Y934814D01*
Y931815D01*
Y933815D02*
X1725073Y935814D01*
X1730071Y937813D02*
X1731071Y938813D01*
Y940812D01*
X1730071Y941812D01*
X1729072D01*
X1728072Y940812D01*
Y939813D01*
Y940812D01*
X1727072Y941812D01*
X1726073D01*
X1725073Y940812D01*
Y938813D01*
X1726073Y937813D01*
X1820573Y199315D02*
X1826571D01*
Y202314D01*
X1825571Y203314D01*
X1823572D01*
X1822572Y202314D01*
Y199315D01*
Y201315D02*
X1820573Y203314D01*
Y208312D02*
X1826571D01*
X1823572Y205313D01*
Y209312D01*
X1799823Y198815D02*
X1805821D01*
Y201814D01*
X1804821Y202814D01*
X1802822D01*
X1801822Y201814D01*
Y198815D01*
Y200815D02*
X1799823Y202814D01*
X1805821Y208812D02*
X1804821Y206813D01*
X1802822Y204813D01*
X1800823D01*
X1799823Y205813D01*
Y207812D01*
X1800823Y208812D01*
X1801822D01*
X1802822Y207812D01*
Y204813D01*
X1811823Y259250D02*
Y253752D01*
X1814572D01*
X1815489Y254668D01*
Y256501D01*
X1814572Y257417D01*
X1811823D01*
X1813656D02*
X1815489Y259250D01*
X1817321Y254668D02*
X1818238Y253752D01*
X1820070D01*
X1820987Y254668D01*
Y255585D01*
X1820070Y256501D01*
X1820987Y257417D01*
Y258334D01*
X1820070Y259250D01*
X1818238D01*
X1817321Y258334D01*
Y257417D01*
X1818238Y256501D01*
X1817321Y255585D01*
Y254668D01*
X1818238Y256501D02*
X1820070D01*
X1714123Y475096D02*
X1720121D01*
Y478095D01*
X1719122Y479094D01*
X1717122D01*
X1716123Y478095D01*
Y475096D01*
Y477095D02*
X1714123Y479094D01*
Y481094D02*
Y483093D01*
Y482093D01*
X1720121D01*
X1719122Y481094D01*
Y486092D02*
X1720121Y487092D01*
Y489091D01*
X1719122Y490091D01*
X1715123D01*
X1714123Y489091D01*
Y487092D01*
X1715123Y486092D01*
X1719122D01*
X1703455Y475350D02*
X1709453D01*
Y478349D01*
X1708454Y479348D01*
X1706454D01*
X1705455Y478349D01*
Y475350D01*
Y477349D02*
X1703455Y479348D01*
Y481348D02*
Y483347D01*
Y482347D01*
X1709453D01*
X1708454Y481348D01*
X1703455Y486346D02*
Y488345D01*
Y487346D01*
X1709453D01*
X1708454Y486346D01*
X1689205Y475298D02*
X1695203D01*
Y478297D01*
X1694204Y479297D01*
X1692204D01*
X1691205Y478297D01*
Y475298D01*
Y477297D02*
X1689205Y479297D01*
Y481296D02*
Y483295D01*
Y482296D01*
X1695203D01*
X1694204Y481296D01*
X1689205Y490293D02*
Y486294D01*
X1693204Y490293D01*
X1694204D01*
X1695203Y489294D01*
Y487294D01*
X1694204Y486294D01*
X1629073Y478815D02*
X1635071D01*
Y481814D01*
X1634071Y482814D01*
X1632072D01*
X1631072Y481814D01*
Y478815D01*
Y480815D02*
X1629073Y482814D01*
Y484813D02*
Y486813D01*
Y485813D01*
X1635071D01*
X1634071Y484813D01*
X1635071Y493810D02*
X1634071Y491811D01*
X1632072Y489812D01*
X1630073D01*
X1629073Y490811D01*
Y492811D01*
X1630073Y493810D01*
X1631072D01*
X1632072Y492811D01*
Y489812D01*
X1638887Y473674D02*
X1644885D01*
Y476673D01*
X1643886Y477672D01*
X1641886D01*
X1640887Y476673D01*
Y473674D01*
Y475673D02*
X1638887Y477672D01*
Y479672D02*
Y481671D01*
Y480671D01*
X1644885D01*
X1643886Y479672D01*
X1644885Y484670D02*
Y488669D01*
X1643886D01*
X1639887Y484670D01*
X1638887D01*
X1648797Y473674D02*
X1654795D01*
Y476673D01*
X1653795Y477672D01*
X1651796D01*
X1650797Y476673D01*
Y473674D01*
Y475673D02*
X1648797Y477672D01*
Y479672D02*
Y481671D01*
Y480671D01*
X1654795D01*
X1653795Y479672D01*
Y484670D02*
X1654795Y485670D01*
Y487669D01*
X1653795Y488669D01*
X1652796D01*
X1651796Y487669D01*
X1650797Y488669D01*
X1649797D01*
X1648797Y487669D01*
Y485670D01*
X1649797Y484670D01*
X1650797D01*
X1651796Y485670D01*
X1652796Y484670D01*
X1653795D01*
X1651796Y485670D02*
Y487669D01*
X1737323Y856565D02*
X1743321D01*
Y859564D01*
X1742321Y860564D01*
X1740322D01*
X1739322Y859564D01*
Y856565D01*
Y858565D02*
X1737323Y860564D01*
Y862563D02*
Y864563D01*
Y863563D01*
X1743321D01*
X1742321Y862563D01*
X1738323Y867562D02*
X1737323Y868561D01*
Y870561D01*
X1738323Y871560D01*
X1742321D01*
X1743321Y870561D01*
Y868561D01*
X1742321Y867562D01*
X1741322D01*
X1740322Y868561D01*
Y871560D01*
X1758323Y422065D02*
Y417067D01*
X1760822D01*
X1761655Y417900D01*
Y419566D01*
X1760822Y420399D01*
X1758323D01*
X1759989D02*
X1761655Y422065D01*
X1766653D02*
X1763321D01*
X1766653Y418733D01*
Y417900D01*
X1765820Y417067D01*
X1764154D01*
X1763321Y417900D01*
X1770819Y422065D02*
Y417067D01*
X1768320Y419566D01*
X1771652D01*
X1757573Y449750D02*
Y444752D01*
X1760072D01*
X1760905Y445585D01*
Y447251D01*
X1760072Y448084D01*
X1757573D01*
X1759239D02*
X1760905Y449750D01*
X1765904D02*
X1762572D01*
X1765904Y446418D01*
Y445585D01*
X1765071Y444752D01*
X1763405D01*
X1762572Y445585D01*
X1770902Y444752D02*
X1767570D01*
Y447251D01*
X1769236Y446418D01*
X1770069D01*
X1770902Y447251D01*
Y448917D01*
X1770069Y449750D01*
X1768403D01*
X1767570Y448917D01*
X1714073Y875565D02*
X1720071D01*
Y878564D01*
X1719071Y879564D01*
X1717072D01*
X1716072Y878564D01*
Y875565D01*
Y877565D02*
X1714073Y879564D01*
Y885562D02*
Y881563D01*
X1718072Y885562D01*
X1719071D01*
X1720071Y884562D01*
Y882563D01*
X1719071Y881563D01*
X1720071Y891560D02*
X1719071Y889561D01*
X1717072Y887561D01*
X1715073D01*
X1714073Y888561D01*
Y890560D01*
X1715073Y891560D01*
X1716072D01*
X1717072Y890560D01*
Y887561D01*
X1697823Y847065D02*
Y841067D01*
X1700822D01*
X1701822Y842067D01*
Y844066D01*
X1700822Y845066D01*
X1697823D01*
X1699822D02*
X1701822Y847065D01*
X1707820D02*
X1703821D01*
X1707820Y843067D01*
Y842067D01*
X1706820Y841067D01*
X1704821D01*
X1703821Y842067D01*
X1709819Y841067D02*
X1713818D01*
Y842067D01*
X1709819Y846066D01*
Y847065D01*
X1743573Y451750D02*
X1749571D01*
Y454749D01*
X1748572Y455749D01*
X1746572D01*
X1745573Y454749D01*
Y451750D01*
Y453749D02*
X1743573Y455749D01*
Y461747D02*
Y457748D01*
X1747572Y461747D01*
X1748572D01*
X1749571Y460747D01*
Y458748D01*
X1748572Y457748D01*
Y463746D02*
X1749571Y464746D01*
Y466745D01*
X1748572Y467745D01*
X1747572D01*
X1746572Y466745D01*
X1745573Y467745D01*
X1744573D01*
X1743573Y466745D01*
Y464746D01*
X1744573Y463746D01*
X1745573D01*
X1746572Y464746D01*
X1747572Y463746D01*
X1748572D01*
X1746572Y464746D02*
Y466745D01*
X1772823Y452000D02*
X1778821D01*
Y454999D01*
X1777822Y455999D01*
X1775822D01*
X1774823Y454999D01*
Y452000D01*
Y453999D02*
X1772823Y455999D01*
Y461997D02*
Y457998D01*
X1776822Y461997D01*
X1777822D01*
X1778821Y460997D01*
Y458998D01*
X1777822Y457998D01*
X1773823Y463996D02*
X1772823Y464996D01*
Y466995D01*
X1773823Y467995D01*
X1777822D01*
X1778821Y466995D01*
Y464996D01*
X1777822Y463996D01*
X1776822D01*
X1775822Y464996D01*
Y467995D01*
X1599289Y453708D02*
X1605287D01*
Y456707D01*
X1604288Y457707D01*
X1602288D01*
X1601289Y456707D01*
Y453708D01*
Y455707D02*
X1599289Y457707D01*
X1604288Y459706D02*
X1605287Y460706D01*
Y462705D01*
X1604288Y463705D01*
X1603288D01*
X1602288Y462705D01*
Y461705D01*
Y462705D01*
X1601289Y463705D01*
X1600289D01*
X1599289Y462705D01*
Y460706D01*
X1600289Y459706D01*
X1604288Y465704D02*
X1605287Y466704D01*
Y468703D01*
X1604288Y469703D01*
X1600289D01*
X1599289Y468703D01*
Y466704D01*
X1600289Y465704D01*
X1604288D01*
X1586823Y780000D02*
X1592821D01*
Y782999D01*
X1591822Y783999D01*
X1589822D01*
X1588823Y782999D01*
Y780000D01*
Y781999D02*
X1586823Y783999D01*
X1591822Y785998D02*
X1592821Y786998D01*
Y788997D01*
X1591822Y789997D01*
X1590822D01*
X1589822Y788997D01*
Y787997D01*
Y788997D01*
X1588823Y789997D01*
X1587823D01*
X1586823Y788997D01*
Y786998D01*
X1587823Y785998D01*
X1586823Y791996D02*
Y793996D01*
Y792996D01*
X1592821D01*
X1591822Y791996D01*
X1761073Y399750D02*
Y394752D01*
X1763572D01*
X1764406Y395585D01*
Y397251D01*
X1763572Y398084D01*
X1761073D01*
X1762739D02*
X1764406Y399750D01*
X1766072Y395585D02*
X1766905Y394752D01*
X1768571D01*
X1769404Y395585D01*
Y396418D01*
X1768571Y397251D01*
X1767738D01*
X1768571D01*
X1769404Y398084D01*
Y398917D01*
X1768571Y399750D01*
X1766905D01*
X1766072Y398917D01*
X1774402Y399750D02*
X1771070D01*
X1774402Y396418D01*
Y395585D01*
X1773569Y394752D01*
X1771903D01*
X1771070Y395585D01*
X1604323Y286750D02*
Y280752D01*
X1607322D01*
X1608322Y281752D01*
Y283751D01*
X1607322Y284751D01*
X1604323D01*
X1606323D02*
X1608322Y286750D01*
X1610321Y281752D02*
X1611321Y280752D01*
X1613320D01*
X1614320Y281752D01*
Y282751D01*
X1613320Y283751D01*
X1612321D01*
X1613320D01*
X1614320Y284751D01*
Y285750D01*
X1613320Y286750D01*
X1611321D01*
X1610321Y285750D01*
X1616319Y281752D02*
X1617319Y280752D01*
X1619318D01*
X1620318Y281752D01*
Y282751D01*
X1619318Y283751D01*
X1618319D01*
X1619318D01*
X1620318Y284751D01*
Y285750D01*
X1619318Y286750D01*
X1617319D01*
X1616319Y285750D01*
X1586823Y800500D02*
X1592821D01*
Y803499D01*
X1591822Y804499D01*
X1589822D01*
X1588823Y803499D01*
Y800500D01*
Y802499D02*
X1586823Y804499D01*
X1591822Y806498D02*
X1592821Y807498D01*
Y809497D01*
X1591822Y810497D01*
X1590822D01*
X1589822Y809497D01*
Y808497D01*
Y809497D01*
X1588823Y810497D01*
X1587823D01*
X1586823Y809497D01*
Y807498D01*
X1587823Y806498D01*
X1586823Y815495D02*
X1592821D01*
X1589822Y812496D01*
Y816495D01*
X1567073Y800250D02*
X1573071D01*
Y803249D01*
X1572072Y804249D01*
X1570072D01*
X1569073Y803249D01*
Y800250D01*
Y802249D02*
X1567073Y804249D01*
X1572072Y806248D02*
X1573071Y807248D01*
Y809247D01*
X1572072Y810247D01*
X1571072D01*
X1570072Y809247D01*
Y808247D01*
Y809247D01*
X1569073Y810247D01*
X1568073D01*
X1567073Y809247D01*
Y807248D01*
X1568073Y806248D01*
X1573071Y816245D02*
Y812246D01*
X1570072D01*
X1571072Y814246D01*
Y815245D01*
X1570072Y816245D01*
X1568073D01*
X1567073Y815245D01*
Y813246D01*
X1568073Y812246D01*
X1701323Y280250D02*
Y274252D01*
X1704322D01*
X1705322Y275252D01*
Y277251D01*
X1704322Y278251D01*
X1701323D01*
X1703323D02*
X1705322Y280250D01*
X1707321Y275252D02*
X1708321Y274252D01*
X1710320D01*
X1711320Y275252D01*
Y276251D01*
X1710320Y277251D01*
X1709321D01*
X1710320D01*
X1711320Y278251D01*
Y279250D01*
X1710320Y280250D01*
X1708321D01*
X1707321Y279250D01*
X1717318Y274252D02*
X1715319Y275252D01*
X1713319Y277251D01*
Y279250D01*
X1714319Y280250D01*
X1716318D01*
X1717318Y279250D01*
Y278251D01*
X1716318Y277251D01*
X1713319D01*
X1795573Y239750D02*
Y234252D01*
X1798322D01*
X1799239Y235168D01*
Y237001D01*
X1798322Y237917D01*
X1795573D01*
X1797406D02*
X1799239Y239750D01*
X1801071Y235168D02*
X1801988Y234252D01*
X1803820D01*
X1804737Y235168D01*
Y236084D01*
X1803820Y237001D01*
X1802904D01*
X1803820D01*
X1804737Y237917D01*
Y238834D01*
X1803820Y239750D01*
X1801988D01*
X1801071Y238834D01*
X1806570Y234252D02*
X1810235D01*
Y235168D01*
X1806570Y238834D01*
Y239750D01*
X1646823Y843065D02*
Y837067D01*
X1649822D01*
X1650822Y838067D01*
Y840066D01*
X1649822Y841066D01*
X1646823D01*
X1648822D02*
X1650822Y843065D01*
X1652821Y838067D02*
X1653821Y837067D01*
X1655820D01*
X1656820Y838067D01*
Y839067D01*
X1655820Y840066D01*
X1654820D01*
X1655820D01*
X1656820Y841066D01*
Y842066D01*
X1655820Y843065D01*
X1653821D01*
X1652821Y842066D01*
X1658819Y838067D02*
X1659819Y837067D01*
X1661818D01*
X1662818Y838067D01*
Y839067D01*
X1661818Y840066D01*
X1662818Y841066D01*
Y842066D01*
X1661818Y843065D01*
X1659819D01*
X1658819Y842066D01*
Y841066D01*
X1659819Y840066D01*
X1658819Y839067D01*
Y838067D01*
X1659819Y840066D02*
X1661818D01*
X1610719Y259398D02*
Y253400D01*
X1613718D01*
X1614718Y254400D01*
Y256399D01*
X1613718Y257399D01*
X1610719D01*
X1612719D02*
X1614718Y259398D01*
X1619716D02*
Y253400D01*
X1616717Y256399D01*
X1620716D01*
X1622715Y254400D02*
X1623715Y253400D01*
X1625714D01*
X1626714Y254400D01*
Y258398D01*
X1625714Y259398D01*
X1623715D01*
X1622715Y258398D01*
Y254400D01*
X1515323Y179750D02*
Y173752D01*
X1518322D01*
X1519322Y174752D01*
Y176751D01*
X1518322Y177751D01*
X1515323D01*
X1517323D02*
X1519322Y179750D01*
X1524320D02*
Y173752D01*
X1521321Y176751D01*
X1525320D01*
X1530318Y179750D02*
Y173752D01*
X1527319Y176751D01*
X1531318D01*
X1743209Y434150D02*
X1738211D01*
X1737211Y435150D01*
Y437149D01*
X1738211Y438149D01*
X1743209D01*
X1737211Y440148D02*
Y442147D01*
Y441148D01*
X1743209D01*
X1742210Y440148D01*
X1766071Y746750D02*
X1761073D01*
X1760073Y747750D01*
Y749749D01*
X1761073Y750749D01*
X1766071D01*
X1760073Y756747D02*
Y752748D01*
X1764072Y756747D01*
X1765072D01*
X1766071Y755747D01*
Y753748D01*
X1765072Y752748D01*
X1675925Y735192D02*
X1670927D01*
X1669927Y736191D01*
Y738191D01*
X1670927Y739190D01*
X1675925D01*
X1674926Y741190D02*
X1675925Y742189D01*
Y744189D01*
X1674926Y745188D01*
X1673926D01*
X1672926Y744189D01*
Y743189D01*
Y744189D01*
X1671927Y745188D01*
X1670927D01*
X1669927Y744189D01*
Y742189D01*
X1670927Y741190D01*
X1859287Y705233D02*
X1854289D01*
X1853289Y706233D01*
Y708232D01*
X1854289Y709232D01*
X1859287D01*
Y715230D02*
Y711231D01*
X1856288D01*
X1857288Y713231D01*
Y714230D01*
X1856288Y715230D01*
X1854289D01*
X1853289Y714230D01*
Y712231D01*
X1854289Y711231D01*
X1645419Y180404D02*
X1640421D01*
X1639421Y181404D01*
Y183403D01*
X1640421Y184403D01*
X1645419D01*
X1644420Y186402D02*
X1645419Y187402D01*
Y189401D01*
X1644420Y190401D01*
X1643420D01*
X1642420Y189401D01*
X1641421Y190401D01*
X1640421D01*
X1639421Y189401D01*
Y187402D01*
X1640421Y186402D01*
X1641421D01*
X1642420Y187402D01*
X1643420Y186402D01*
X1644420D01*
X1642420Y187402D02*
Y189401D01*
X1596073Y269002D02*
Y274000D01*
X1597073Y275000D01*
X1599072D01*
X1600072Y274000D01*
Y269002D01*
X1602071Y274000D02*
X1603071Y275000D01*
X1605070D01*
X1606070Y274000D01*
Y270002D01*
X1605070Y269002D01*
X1603071D01*
X1602071Y270002D01*
Y271001D01*
X1603071Y272001D01*
X1606070D01*
X1737071Y508314D02*
X1738071Y507314D01*
Y505315D01*
X1737071Y504315D01*
X1736072D01*
X1735072Y505315D01*
Y507314D01*
X1734072Y508314D01*
X1733073D01*
X1732073Y507314D01*
Y505315D01*
X1733073Y504315D01*
X1738071Y510313D02*
X1732073D01*
X1734072Y512313D01*
X1732073Y514312D01*
X1738071D01*
X1732073Y516311D02*
Y518311D01*
Y517311D01*
X1738071D01*
X1737071Y516311D01*
X1824333Y678596D02*
Y683594D01*
X1825333Y684594D01*
X1827332D01*
X1828332Y683594D01*
Y678596D01*
X1830331Y684594D02*
X1832331D01*
X1831331D01*
Y678596D01*
X1830331Y679596D01*
X1835330D02*
X1836329Y678596D01*
X1838329D01*
X1839328Y679596D01*
Y680595D01*
X1838329Y681595D01*
X1839328Y682595D01*
Y683594D01*
X1838329Y684594D01*
X1836329D01*
X1835330Y683594D01*
Y682595D01*
X1836329Y681595D01*
X1835330Y680595D01*
Y679596D01*
X1836329Y681595D02*
X1838329D01*
X1519323Y743817D02*
Y748816D01*
X1520323Y749815D01*
X1522322D01*
X1523322Y748816D01*
Y743817D01*
X1525321Y749815D02*
X1527320D01*
X1526321D01*
Y743817D01*
X1525321Y744817D01*
X1533318Y749815D02*
Y743817D01*
X1530319Y746816D01*
X1534318D01*
X1598071Y594815D02*
X1593073D01*
X1592073Y595815D01*
Y597814D01*
X1593073Y598814D01*
X1598071D01*
X1592073Y600813D02*
Y602813D01*
Y601813D01*
X1598071D01*
X1597071Y600813D01*
Y605812D02*
X1598071Y606811D01*
Y608811D01*
X1597071Y609810D01*
X1596072D01*
X1595072Y608811D01*
Y607811D01*
Y608811D01*
X1594072Y609810D01*
X1593073D01*
X1592073Y608811D01*
Y606811D01*
X1593073Y605812D01*
X1702667Y237046D02*
X1708665D01*
Y240045D01*
X1707666Y241045D01*
X1705666D01*
X1704667Y240045D01*
Y237046D01*
Y239045D02*
X1702667Y241045D01*
X1708665Y243044D02*
Y247043D01*
X1707666D01*
X1703667Y243044D01*
X1702667D01*
X1708665Y253041D02*
Y249042D01*
X1705666D01*
X1706666Y251042D01*
Y252041D01*
X1705666Y253041D01*
X1703667D01*
X1702667Y252041D01*
Y250042D01*
X1703667Y249042D01*
X1510823Y622315D02*
X1516321D01*
Y625064D01*
X1515405Y625981D01*
X1513572D01*
X1512656Y625064D01*
Y622315D01*
Y624148D02*
X1510823Y625981D01*
X1516321Y627813D02*
Y631479D01*
X1515405D01*
X1511739Y627813D01*
X1510823D01*
X1515405Y633312D02*
X1516321Y634228D01*
Y636061D01*
X1515405Y636977D01*
X1514488D01*
X1513572Y636061D01*
Y635144D01*
Y636061D01*
X1512656Y636977D01*
X1511739D01*
X1510823Y636061D01*
Y634228D01*
X1511739Y633312D01*
X1539573Y624315D02*
X1545571D01*
Y627314D01*
X1544571Y628314D01*
X1542572D01*
X1541572Y627314D01*
Y624315D01*
Y626315D02*
X1539573Y628314D01*
X1545571Y630313D02*
Y634312D01*
X1544571D01*
X1540573Y630313D01*
X1539573D01*
Y640310D02*
Y636311D01*
X1543572Y640310D01*
X1544571D01*
X1545571Y639310D01*
Y637311D01*
X1544571Y636311D01*
X1544197Y747384D02*
X1550195D01*
Y750383D01*
X1549196Y751382D01*
X1547196D01*
X1546197Y750383D01*
Y747384D01*
Y749383D02*
X1544197Y751382D01*
X1550195Y757380D02*
X1549196Y755381D01*
X1547196Y753382D01*
X1545197D01*
X1544197Y754381D01*
Y756381D01*
X1545197Y757380D01*
X1546197D01*
X1547196Y756381D01*
Y753382D01*
X1545197Y759380D02*
X1544197Y760379D01*
Y762379D01*
X1545197Y763378D01*
X1549196D01*
X1550195Y762379D01*
Y760379D01*
X1549196Y759380D01*
X1548196D01*
X1547196Y760379D01*
Y763378D01*
X1553573Y707565D02*
X1559571D01*
Y710564D01*
X1558571Y711564D01*
X1556572D01*
X1555572Y710564D01*
Y707565D01*
Y709565D02*
X1553573Y711564D01*
X1559571Y717562D02*
X1558571Y715563D01*
X1556572Y713563D01*
X1554573D01*
X1553573Y714563D01*
Y716562D01*
X1554573Y717562D01*
X1555572D01*
X1556572Y716562D01*
Y713563D01*
X1558571Y719561D02*
X1559571Y720561D01*
Y722560D01*
X1558571Y723560D01*
X1557572D01*
X1556572Y722560D01*
X1555572Y723560D01*
X1554573D01*
X1553573Y722560D01*
Y720561D01*
X1554573Y719561D01*
X1555572D01*
X1556572Y720561D01*
X1557572Y719561D01*
X1558571D01*
X1556572Y720561D02*
Y722560D01*
X1597823Y663250D02*
X1603821D01*
Y666249D01*
X1602822Y667249D01*
X1600822D01*
X1599823Y666249D01*
Y663250D01*
Y665249D02*
X1597823Y667249D01*
X1603821Y673247D02*
X1602822Y671247D01*
X1600822Y669248D01*
X1598823D01*
X1597823Y670248D01*
Y672247D01*
X1598823Y673247D01*
X1599823D01*
X1600822Y672247D01*
Y669248D01*
X1603821Y679245D02*
Y675246D01*
X1600822D01*
X1601822Y677245D01*
Y678245D01*
X1600822Y679245D01*
X1598823D01*
X1597823Y678245D01*
Y676246D01*
X1598823Y675246D01*
X1518323Y688500D02*
Y682502D01*
X1521322D01*
X1522322Y683502D01*
Y685501D01*
X1521322Y686501D01*
X1518323D01*
X1520323D02*
X1522322Y688500D01*
X1528320Y682502D02*
X1526321Y683502D01*
X1524321Y685501D01*
Y687500D01*
X1525321Y688500D01*
X1527320D01*
X1528320Y687500D01*
Y686501D01*
X1527320Y685501D01*
X1524321D01*
X1534318Y688500D02*
X1530319D01*
X1534318Y684501D01*
Y683502D01*
X1533318Y682502D01*
X1531319D01*
X1530319Y683502D01*
X1506823Y742565D02*
X1512821D01*
Y745564D01*
X1511821Y746564D01*
X1509822D01*
X1508822Y745564D01*
Y742565D01*
Y744565D02*
X1506823Y746564D01*
X1512821Y752562D02*
Y748563D01*
X1509822D01*
X1510822Y750563D01*
Y751562D01*
X1509822Y752562D01*
X1507823D01*
X1506823Y751562D01*
Y749563D01*
X1507823Y748563D01*
X1512821Y754561D02*
Y758560D01*
X1511821D01*
X1507823Y754561D01*
X1506823D01*
X1499323Y683065D02*
X1505321D01*
Y686064D01*
X1504321Y687064D01*
X1502322D01*
X1501322Y686064D01*
Y683065D01*
Y685065D02*
X1499323Y687064D01*
X1505321Y693062D02*
Y689063D01*
X1502322D01*
X1503322Y691063D01*
Y692062D01*
X1502322Y693062D01*
X1500323D01*
X1499323Y692062D01*
Y690063D01*
X1500323Y689063D01*
X1505321Y699060D02*
X1504321Y697061D01*
X1502322Y695061D01*
X1500323D01*
X1499323Y696061D01*
Y698060D01*
X1500323Y699060D01*
X1501322D01*
X1502322Y698060D01*
Y695061D01*
X1573073Y642250D02*
Y636252D01*
X1576072D01*
X1577072Y637252D01*
Y639251D01*
X1576072Y640251D01*
X1573073D01*
X1575073D02*
X1577072Y642250D01*
X1583070Y636252D02*
X1579071D01*
Y639251D01*
X1581071Y638251D01*
X1582070D01*
X1583070Y639251D01*
Y641250D01*
X1582070Y642250D01*
X1580071D01*
X1579071Y641250D01*
X1588068Y642250D02*
Y636252D01*
X1585069Y639251D01*
X1589068D01*
X1604323Y688999D02*
X1608322D01*
X1609321Y687999D01*
Y686000D01*
X1608322Y685000D01*
X1604323D01*
X1603323Y686000D01*
Y687999D01*
X1605323Y686999D02*
X1603323Y688999D01*
Y687999D02*
X1604323Y688999D01*
X1603323Y690998D02*
Y692997D01*
Y691998D01*
X1609321D01*
X1608322Y690998D01*
X1603323Y699995D02*
Y695996D01*
X1607322Y699995D01*
X1608322D01*
X1609321Y698996D01*
Y696996D01*
X1608322Y695996D01*
X1599823Y731249D02*
X1603822D01*
X1604821Y730249D01*
Y728250D01*
X1603822Y727250D01*
X1599823D01*
X1598823Y728250D01*
Y730249D01*
X1600823Y729249D02*
X1598823Y731249D01*
Y730249D02*
X1599823Y731249D01*
X1598823Y733248D02*
Y735247D01*
Y734248D01*
X1604821D01*
X1603822Y733248D01*
Y738246D02*
X1604821Y739246D01*
Y741245D01*
X1603822Y742245D01*
X1599823D01*
X1598823Y741245D01*
Y739246D01*
X1599823Y738246D01*
X1603822D01*
X1577073Y661064D02*
X1581071D01*
X1582071Y660064D01*
Y658065D01*
X1581071Y657065D01*
X1577073D01*
X1576073Y658065D01*
Y660064D01*
X1578072Y659065D02*
X1576073Y661064D01*
Y660064D02*
X1577073Y661064D01*
Y663063D02*
X1576073Y664063D01*
Y666062D01*
X1577073Y667062D01*
X1581071D01*
X1582071Y666062D01*
Y664063D01*
X1581071Y663063D01*
X1580072D01*
X1579072Y664063D01*
Y667062D01*
X1540573Y602064D02*
X1544571D01*
X1545571Y601064D01*
Y599065D01*
X1544571Y598065D01*
X1540573D01*
X1539573Y599065D01*
Y601064D01*
X1541572Y600065D02*
X1539573Y602064D01*
Y601064D02*
X1540573Y602064D01*
X1544571Y604063D02*
X1545571Y605063D01*
Y607062D01*
X1544571Y608062D01*
X1543572D01*
X1542572Y607062D01*
X1541572Y608062D01*
X1540573D01*
X1539573Y607062D01*
Y605063D01*
X1540573Y604063D01*
X1541572D01*
X1542572Y605063D01*
X1543572Y604063D01*
X1544571D01*
X1542572Y605063D02*
Y607062D01*
X1783571Y245500D02*
X1777573D01*
Y248499D01*
X1778573Y249499D01*
X1782572D01*
X1783571Y248499D01*
Y245500D01*
X1777573Y251498D02*
Y253497D01*
Y252498D01*
X1783571D01*
X1782572Y251498D01*
Y256496D02*
X1783571Y257496D01*
Y259496D01*
X1782572Y260495D01*
X1778573D01*
X1777573Y259496D01*
Y257496D01*
X1778573Y256496D01*
X1782572D01*
X1744821Y248000D02*
X1738823D01*
Y250999D01*
X1739823Y251999D01*
X1743822D01*
X1744821Y250999D01*
Y248000D01*
X1739823Y253998D02*
X1738823Y254998D01*
Y256997D01*
X1739823Y257997D01*
X1743822D01*
X1744821Y256997D01*
Y254998D01*
X1743822Y253998D01*
X1742822D01*
X1741822Y254998D01*
Y257997D01*
X1807322Y595317D02*
X1806322Y594317D01*
X1804323D01*
X1803323Y595317D01*
Y599316D01*
X1804323Y600315D01*
X1806322D01*
X1807322Y599316D01*
X1813320Y600315D02*
X1809321D01*
X1813320Y596317D01*
Y595317D01*
X1812320Y594317D01*
X1810321D01*
X1809321Y595317D01*
X1815319D02*
X1816319Y594317D01*
X1818318D01*
X1819318Y595317D01*
Y596317D01*
X1818318Y597316D01*
X1819318Y598316D01*
Y599316D01*
X1818318Y600315D01*
X1816319D01*
X1815319Y599316D01*
Y598316D01*
X1816319Y597316D01*
X1815319Y596317D01*
Y595317D01*
X1816319Y597316D02*
X1818318D01*
X1763546Y617727D02*
X1764545Y616727D01*
Y614728D01*
X1763546Y613728D01*
X1759547D01*
X1758547Y614728D01*
Y616727D01*
X1759547Y617727D01*
X1758547Y623725D02*
Y619726D01*
X1762546Y623725D01*
X1763546D01*
X1764545Y622725D01*
Y620726D01*
X1763546Y619726D01*
X1764545Y625724D02*
Y629723D01*
X1763546D01*
X1759547Y625724D01*
X1758547D01*
X1780321Y571999D02*
Y569999D01*
Y570999D01*
X1775323D01*
X1774323Y569999D01*
Y569000D01*
X1775323Y568000D01*
X1780321Y577997D02*
Y573998D01*
X1777322D01*
X1778322Y575997D01*
Y576997D01*
X1777322Y577997D01*
X1775323D01*
X1774323Y576997D01*
Y574998D01*
X1775323Y573998D01*
X1788072Y483252D02*
X1787072Y482252D01*
X1785073D01*
X1784073Y483252D01*
Y487250D01*
X1785073Y488250D01*
X1787072D01*
X1788072Y487250D01*
X1790071Y483252D02*
X1791071Y482252D01*
X1793070D01*
X1794070Y483252D01*
Y484251D01*
X1793070Y485251D01*
X1792071D01*
X1793070D01*
X1794070Y486251D01*
Y487250D01*
X1793070Y488250D01*
X1791071D01*
X1790071Y487250D01*
X1796069Y488250D02*
X1798069D01*
X1797069D01*
Y482252D01*
X1796069Y483252D01*
X366248Y1081832D02*
Y1078500D01*
X361250D01*
Y1081832D01*
X363749Y1078500D02*
Y1080166D01*
X361250Y1083498D02*
X364582D01*
Y1085997D01*
X363749Y1086831D01*
X361250D01*
Y1090996D02*
Y1089330D01*
X362083Y1088497D01*
X363749D01*
X364582Y1089330D01*
Y1090996D01*
X363749Y1091829D01*
X362916D01*
Y1088497D01*
X361250Y1101826D02*
Y1098493D01*
X364582Y1101826D01*
X365415D01*
X366248Y1100993D01*
Y1099326D01*
X365415Y1098493D01*
Y1103492D02*
X366248Y1104325D01*
Y1105991D01*
X365415Y1106824D01*
X362083D01*
X361250Y1105991D01*
Y1104325D01*
X362083Y1103492D01*
X365415D01*
X361250Y1108490D02*
Y1110156D01*
Y1109323D01*
X366248D01*
X365415Y1108490D01*
Y1112655D02*
X366248Y1113489D01*
Y1115155D01*
X365415Y1115988D01*
X364582D01*
X363749Y1115155D01*
X362916Y1115988D01*
X362083D01*
X361250Y1115155D01*
Y1113489D01*
X362083Y1112655D01*
X362916D01*
X363749Y1113489D01*
X364582Y1112655D01*
X365415D01*
X363749Y1113489D02*
Y1115155D01*
X374248Y1078750D02*
Y1080416D01*
Y1079583D01*
X369250D01*
Y1078750D01*
Y1080416D01*
Y1082915D02*
X374248D01*
Y1085415D01*
X373415Y1086248D01*
X371749D01*
X370916Y1085415D01*
Y1082915D01*
Y1084581D02*
X369250Y1086248D01*
X368417Y1087914D02*
Y1091246D01*
X374248Y1092912D02*
X370916D01*
X369250Y1094578D01*
X370916Y1096244D01*
X374248D01*
X373415Y1097910D02*
X374248Y1098744D01*
Y1100410D01*
X373415Y1101243D01*
X372582D01*
X371749Y1100410D01*
Y1099576D01*
Y1100410D01*
X370916Y1101243D01*
X370083D01*
X369250Y1100410D01*
Y1098744D01*
X370083Y1097910D01*
X378000Y1079250D02*
X382998D01*
X381332Y1080916D01*
X382998Y1082582D01*
X378000D01*
X382998Y1084248D02*
Y1085915D01*
Y1085081D01*
X378000D01*
Y1084248D01*
Y1085915D01*
Y1088414D02*
X382998D01*
X378000Y1091746D01*
X382998D01*
X377167Y1093412D02*
Y1096744D01*
X378000Y1098410D02*
X382998D01*
X381332Y1100077D01*
X382998Y1101743D01*
X378000D01*
X382998Y1105908D02*
Y1104242D01*
X382165Y1103409D01*
X378833D01*
X378000Y1104242D01*
Y1105908D01*
X378833Y1106741D01*
X382165D01*
X382998Y1105908D01*
Y1108407D02*
X378000D01*
X379666Y1110073D01*
X378000Y1111739D01*
X382998D01*
X377167Y1113406D02*
Y1116738D01*
X382998Y1118404D02*
Y1120070D01*
Y1119237D01*
X378000D01*
Y1118404D01*
Y1120070D01*
Y1122569D02*
X382998D01*
Y1125068D01*
X382165Y1125901D01*
X380499D01*
X379666Y1125068D01*
Y1122569D01*
Y1124235D02*
X378000Y1125901D01*
X821248Y1081832D02*
Y1078500D01*
X816249D01*
Y1081832D01*
X818748Y1078500D02*
Y1080166D01*
X816249Y1083498D02*
X819581D01*
Y1085997D01*
X818748Y1086831D01*
X816249D01*
Y1090996D02*
Y1089330D01*
X817082Y1088497D01*
X818748D01*
X819581Y1089330D01*
Y1090996D01*
X818748Y1091829D01*
X817915D01*
Y1088497D01*
X816249Y1101826D02*
Y1098493D01*
X819581Y1101826D01*
X820415D01*
X821248Y1100993D01*
Y1099326D01*
X820415Y1098493D01*
Y1103492D02*
X821248Y1104325D01*
Y1105991D01*
X820415Y1106824D01*
X817082D01*
X816249Y1105991D01*
Y1104325D01*
X817082Y1103492D01*
X820415D01*
X816249Y1108490D02*
Y1110156D01*
Y1109323D01*
X821248D01*
X820415Y1108490D01*
Y1112655D02*
X821248Y1113489D01*
Y1115155D01*
X820415Y1115988D01*
X819581D01*
X818748Y1115155D01*
X817915Y1115988D01*
X817082D01*
X816249Y1115155D01*
Y1113489D01*
X817082Y1112655D01*
X817915D01*
X818748Y1113489D01*
X819581Y1112655D01*
X820415D01*
X818748Y1113489D02*
Y1115155D01*
X829248Y1078750D02*
Y1080416D01*
Y1079583D01*
X824249D01*
Y1078750D01*
Y1080416D01*
Y1082915D02*
X829248D01*
Y1085415D01*
X828415Y1086248D01*
X826748D01*
X825915Y1085415D01*
Y1082915D01*
Y1084581D02*
X824249Y1086248D01*
X823416Y1087914D02*
Y1091246D01*
X829248Y1092912D02*
X825915D01*
X824249Y1094578D01*
X825915Y1096244D01*
X829248D01*
X828415Y1097910D02*
X829248Y1098744D01*
Y1100410D01*
X828415Y1101243D01*
X827581D01*
X826748Y1100410D01*
Y1099576D01*
Y1100410D01*
X825915Y1101243D01*
X825082D01*
X824249Y1100410D01*
Y1098744D01*
X825082Y1097910D01*
X832999Y1079250D02*
X837998D01*
X836331Y1080916D01*
X837998Y1082582D01*
X832999D01*
X837998Y1084248D02*
Y1085915D01*
Y1085081D01*
X832999D01*
Y1084248D01*
Y1085915D01*
Y1088414D02*
X837998D01*
X832999Y1091746D01*
X837998D01*
X832166Y1093412D02*
Y1096744D01*
X832999Y1098410D02*
X837998D01*
X836331Y1100077D01*
X837998Y1101743D01*
X832999D01*
X837998Y1105908D02*
Y1104242D01*
X837165Y1103409D01*
X833832D01*
X832999Y1104242D01*
Y1105908D01*
X833832Y1106741D01*
X837165D01*
X837998Y1105908D01*
Y1108407D02*
X832999D01*
X834665Y1110073D01*
X832999Y1111739D01*
X837998D01*
X832166Y1113406D02*
Y1116738D01*
X837998Y1118404D02*
Y1120070D01*
Y1119237D01*
X832999D01*
Y1118404D01*
Y1120070D01*
Y1122569D02*
X837998D01*
Y1125068D01*
X837165Y1125901D01*
X835498D01*
X834665Y1125068D01*
Y1122569D01*
Y1124235D02*
X832999Y1125901D01*
X1276247Y1081832D02*
Y1078500D01*
X1271248D01*
Y1081832D01*
X1273748Y1078500D02*
Y1080166D01*
X1271248Y1083498D02*
X1274581D01*
Y1085997D01*
X1273748Y1086831D01*
X1271248D01*
Y1090996D02*
Y1089330D01*
X1272082Y1088497D01*
X1273748D01*
X1274581Y1089330D01*
Y1090996D01*
X1273748Y1091829D01*
X1272915D01*
Y1088497D01*
X1271248Y1101826D02*
Y1098493D01*
X1274581Y1101826D01*
X1275414D01*
X1276247Y1100993D01*
Y1099326D01*
X1275414Y1098493D01*
Y1103492D02*
X1276247Y1104325D01*
Y1105991D01*
X1275414Y1106824D01*
X1272082D01*
X1271248Y1105991D01*
Y1104325D01*
X1272082Y1103492D01*
X1275414D01*
X1271248Y1108490D02*
Y1110156D01*
Y1109323D01*
X1276247D01*
X1275414Y1108490D01*
Y1112655D02*
X1276247Y1113489D01*
Y1115155D01*
X1275414Y1115988D01*
X1274581D01*
X1273748Y1115155D01*
X1272915Y1115988D01*
X1272082D01*
X1271248Y1115155D01*
Y1113489D01*
X1272082Y1112655D01*
X1272915D01*
X1273748Y1113489D01*
X1274581Y1112655D01*
X1275414D01*
X1273748Y1113489D02*
Y1115155D01*
X1284247Y1078750D02*
Y1080416D01*
Y1079583D01*
X1279248D01*
Y1078750D01*
Y1080416D01*
Y1082915D02*
X1284247D01*
Y1085415D01*
X1283414Y1086248D01*
X1281748D01*
X1280914Y1085415D01*
Y1082915D01*
Y1084581D02*
X1279248Y1086248D01*
X1278415Y1087914D02*
Y1091246D01*
X1284247Y1092912D02*
X1280914D01*
X1279248Y1094578D01*
X1280914Y1096244D01*
X1284247D01*
X1283414Y1097910D02*
X1284247Y1098744D01*
Y1100410D01*
X1283414Y1101243D01*
X1282581D01*
X1281748Y1100410D01*
Y1099576D01*
Y1100410D01*
X1280914Y1101243D01*
X1280081D01*
X1279248Y1100410D01*
Y1098744D01*
X1280081Y1097910D01*
X1287998Y1079250D02*
X1292997D01*
X1291331Y1080916D01*
X1292997Y1082582D01*
X1287998D01*
X1292997Y1084248D02*
Y1085915D01*
Y1085081D01*
X1287998D01*
Y1084248D01*
Y1085915D01*
Y1088414D02*
X1292997D01*
X1287998Y1091746D01*
X1292997D01*
X1287165Y1093412D02*
Y1096744D01*
X1287998Y1098410D02*
X1292997D01*
X1291331Y1100077D01*
X1292997Y1101743D01*
X1287998D01*
X1292997Y1105908D02*
Y1104242D01*
X1292164Y1103409D01*
X1288831D01*
X1287998Y1104242D01*
Y1105908D01*
X1288831Y1106741D01*
X1292164D01*
X1292997Y1105908D01*
Y1108407D02*
X1287998D01*
X1289664Y1110073D01*
X1287998Y1111739D01*
X1292997D01*
X1287165Y1113406D02*
Y1116738D01*
X1292997Y1118404D02*
Y1120070D01*
Y1119237D01*
X1287998D01*
Y1118404D01*
Y1120070D01*
Y1122569D02*
X1292997D01*
Y1125068D01*
X1292164Y1125901D01*
X1290498D01*
X1289664Y1125068D01*
Y1122569D01*
Y1124235D02*
X1287998Y1125901D01*
X1731246Y1081832D02*
Y1078500D01*
X1726248D01*
Y1081832D01*
X1728747Y1078500D02*
Y1080166D01*
X1726248Y1083498D02*
X1729580D01*
Y1085997D01*
X1728747Y1086831D01*
X1726248D01*
Y1090996D02*
Y1089330D01*
X1727081Y1088497D01*
X1728747D01*
X1729580Y1089330D01*
Y1090996D01*
X1728747Y1091829D01*
X1727914D01*
Y1088497D01*
X1726248Y1101826D02*
Y1098493D01*
X1729580Y1101826D01*
X1730413D01*
X1731246Y1100993D01*
Y1099326D01*
X1730413Y1098493D01*
Y1103492D02*
X1731246Y1104325D01*
Y1105991D01*
X1730413Y1106824D01*
X1727081D01*
X1726248Y1105991D01*
Y1104325D01*
X1727081Y1103492D01*
X1730413D01*
X1726248Y1108490D02*
Y1110156D01*
Y1109323D01*
X1731246D01*
X1730413Y1108490D01*
Y1112655D02*
X1731246Y1113489D01*
Y1115155D01*
X1730413Y1115988D01*
X1729580D01*
X1728747Y1115155D01*
X1727914Y1115988D01*
X1727081D01*
X1726248Y1115155D01*
Y1113489D01*
X1727081Y1112655D01*
X1727914D01*
X1728747Y1113489D01*
X1729580Y1112655D01*
X1730413D01*
X1728747Y1113489D02*
Y1115155D01*
X1739246Y1078750D02*
Y1080416D01*
Y1079583D01*
X1734248D01*
Y1078750D01*
Y1080416D01*
Y1082915D02*
X1739246D01*
Y1085415D01*
X1738413Y1086248D01*
X1736747D01*
X1735914Y1085415D01*
Y1082915D01*
Y1084581D02*
X1734248Y1086248D01*
X1733414Y1087914D02*
Y1091246D01*
X1739246Y1092912D02*
X1735914D01*
X1734248Y1094578D01*
X1735914Y1096244D01*
X1739246D01*
X1738413Y1097910D02*
X1739246Y1098744D01*
Y1100410D01*
X1738413Y1101243D01*
X1737580D01*
X1736747Y1100410D01*
Y1099576D01*
Y1100410D01*
X1735914Y1101243D01*
X1735081D01*
X1734248Y1100410D01*
Y1098744D01*
X1735081Y1097910D01*
X1742998Y1079250D02*
X1747996D01*
X1746330Y1080916D01*
X1747996Y1082582D01*
X1742998D01*
X1747996Y1084248D02*
Y1085915D01*
Y1085081D01*
X1742998D01*
Y1084248D01*
Y1085915D01*
Y1088414D02*
X1747996D01*
X1742998Y1091746D01*
X1747996D01*
X1742164Y1093412D02*
Y1096744D01*
X1742998Y1098410D02*
X1747996D01*
X1746330Y1100077D01*
X1747996Y1101743D01*
X1742998D01*
X1747996Y1105908D02*
Y1104242D01*
X1747163Y1103409D01*
X1743831D01*
X1742998Y1104242D01*
Y1105908D01*
X1743831Y1106741D01*
X1747163D01*
X1747996Y1105908D01*
Y1108407D02*
X1742998D01*
X1744664Y1110073D01*
X1742998Y1111739D01*
X1747996D01*
X1742164Y1113406D02*
Y1116738D01*
X1747996Y1118404D02*
Y1120070D01*
Y1119237D01*
X1742998D01*
Y1118404D01*
Y1120070D01*
Y1122569D02*
X1747996D01*
Y1125068D01*
X1747163Y1125901D01*
X1745497D01*
X1744664Y1125068D01*
Y1122569D01*
Y1124235D02*
X1742998Y1125901D01*
D82*
X373559Y306040D02*
G03*
X373559Y306040I0J1500D01*
G01*
X462051Y610200D02*
G03*
X462051Y610200I0J1500D01*
G01*
X355303Y589390D02*
G03*
X355303Y589390I0J2061D01*
G01*
X828666Y306040D02*
G03*
X828666Y306040I0J1500D01*
G01*
X917158Y610200D02*
G03*
X917158Y610200I0J1500D01*
G01*
X810410Y589390D02*
G03*
X810410Y589390I0J2061D01*
G01*
X1283774Y306040D02*
G03*
X1283774Y306040I0J1500D01*
G01*
X1372266Y610200D02*
G03*
X1372266Y610200I0J1500D01*
G01*
X1265518Y589390D02*
G03*
X1265518Y589390I0J2061D01*
G01*
X1738881Y306040D02*
G03*
X1738881Y306040I0J1500D01*
G01*
X1827373Y610200D02*
G03*
X1827373Y610200I0J1500D01*
G01*
X1720625Y589390D02*
G03*
X1720625Y589390I0J2061D01*
G01*
D87*
X252501Y726250D02*
G03*
X252501Y726250I0J9000D01*
G01*
Y700750D02*
G03*
X252501Y700750I0J9000D01*
G01*
X378001Y700250D02*
G03*
X378001Y700250I0J9000D01*
G01*
Y725750D02*
G03*
X378001Y725750I0J9000D01*
G01*
X707608Y726250D02*
G03*
X707608Y726250I0J9000D01*
G01*
Y700750D02*
G03*
X707608Y700750I0J9000D01*
G01*
X833108Y700250D02*
G03*
X833108Y700250I0J9000D01*
G01*
Y725750D02*
G03*
X833108Y725750I0J9000D01*
G01*
X1162716Y726250D02*
G03*
X1162716Y726250I0J9000D01*
G01*
Y700750D02*
G03*
X1162716Y700750I0J9000D01*
G01*
X1288216Y700250D02*
G03*
X1288216Y700250I0J9000D01*
G01*
Y725750D02*
G03*
X1288216Y725750I0J9000D01*
G01*
X1617823Y726250D02*
G03*
X1617823Y726250I0J9000D01*
G01*
Y700750D02*
G03*
X1617823Y700750I0J9000D01*
G01*
X1743323Y700250D02*
G03*
X1743323Y700250I0J9000D01*
G01*
Y725750D02*
G03*
X1743323Y725750I0J9000D01*
G01*
D152*
X392121Y267526D02*
Y237046D01*
X415069D02*
X415001Y237000D01*
X352751Y228750D02*
Y228250D01*
X375981Y242250D02*
Y242000D01*
X847228Y267526D02*
Y237046D01*
X870176D02*
X870108Y237000D01*
X807858Y228750D02*
Y228250D01*
X831088Y242250D02*
Y242000D01*
X1302336Y267526D02*
Y237046D01*
X1325284D02*
X1325216Y237000D01*
X1262966Y228750D02*
Y228250D01*
X1286196Y242250D02*
Y242000D01*
X1757443Y267526D02*
Y237046D01*
X1780391D02*
X1780323Y237000D01*
X1718073Y228750D02*
Y228250D01*
X1741303Y242250D02*
Y242000D01*
D153*
X259903Y240500D02*
D03*
X274900Y240505D02*
D03*
X715010Y240500D02*
D03*
X730008Y240505D02*
D03*
X1170118Y240500D02*
D03*
X1185115Y240505D02*
D03*
X1625225Y240500D02*
D03*
X1640223Y240505D02*
D03*
D154*
X403501Y276448D02*
D03*
X364501Y275940D02*
D03*
X858608Y276448D02*
D03*
X819608Y275940D02*
D03*
X1313716Y276448D02*
D03*
X1274716Y275940D02*
D03*
X1768823Y276448D02*
D03*
X1729823Y275940D02*
D03*
M02*
