G04*
G04 #@! TF.GenerationSoftware,Altium Limited,Altium Designer,18.0.9 (584)*
G04*
G04 Layer_Color=16711935*
%FSLAX44Y44*%
%MOMM*%
G71*
G01*
G75*
%ADD89C,2.6000*%
%ADD90R,2.2032X1.2222*%
%ADD92R,1.1032X1.1032*%
%ADD93R,0.8032X0.8032*%
%ADD94R,0.8032X0.8032*%
%ADD95R,1.1032X1.1032*%
%ADD108R,1.2032X1.6032*%
%ADD109R,0.8032X0.7032*%
%ADD111R,0.7032X0.8032*%
%ADD115R,1.2032X0.9032*%
%ADD116R,0.9032X1.2032*%
%ADD120C,1.6000*%
%ADD121R,1.6032X1.2032*%
%ADD129C,0.2032*%
%ADD130C,0.9032*%
%ADD131C,1.8034*%
%ADD132C,2.2032*%
%ADD133C,1.9024*%
%ADD134C,1.5028*%
%ADD135C,0.8032*%
%ADD136C,1.2532*%
%ADD137R,1.2532X1.2532*%
%ADD138R,0.8332X1.0332*%
%ADD139R,1.2032X1.9032*%
%ADD140R,0.8032X1.0032*%
%ADD141R,1.1032X1.2032*%
%ADD142R,0.5032X1.7032*%
%ADD143R,1.7032X0.5032*%
%ADD144R,3.2032X3.2032*%
%ADD145R,2.2032X2.7032*%
%ADD146R,0.7032X2.5032*%
%ADD147R,0.5032X1.0532*%
%ADD148R,3.4532X2.1032*%
%ADD149R,1.1532X2.1032*%
%ADD150R,1.3032X1.4532*%
%ADD151R,1.4032X2.7032*%
D89*
X70000Y70000D02*
D03*
X1925430D02*
D03*
X70000Y1185250D02*
D03*
D90*
X403893Y499691D02*
D03*
Y514691D02*
D03*
Y529691D02*
D03*
Y544691D02*
D03*
Y559691D02*
D03*
X404501Y355489D02*
D03*
Y340489D02*
D03*
Y325489D02*
D03*
Y310489D02*
D03*
Y295489D02*
D03*
X859000Y499691D02*
D03*
Y514691D02*
D03*
Y529691D02*
D03*
Y544691D02*
D03*
Y559691D02*
D03*
X859608Y355489D02*
D03*
Y340489D02*
D03*
Y325489D02*
D03*
Y310489D02*
D03*
Y295489D02*
D03*
X1314107Y499691D02*
D03*
Y514691D02*
D03*
Y529691D02*
D03*
Y544691D02*
D03*
Y559691D02*
D03*
X1314716Y355489D02*
D03*
Y340489D02*
D03*
Y325489D02*
D03*
Y310489D02*
D03*
Y295489D02*
D03*
X1769215Y499691D02*
D03*
Y514691D02*
D03*
Y529691D02*
D03*
Y544691D02*
D03*
Y559691D02*
D03*
X1769823Y355489D02*
D03*
Y340489D02*
D03*
Y325489D02*
D03*
Y310489D02*
D03*
Y295489D02*
D03*
D92*
X385351Y852742D02*
D03*
Y868742D02*
D03*
X396781Y638112D02*
D03*
Y654112D02*
D03*
X840458Y852742D02*
D03*
Y868742D02*
D03*
X851888Y638112D02*
D03*
Y654112D02*
D03*
X1295566Y852742D02*
D03*
Y868742D02*
D03*
X1306996Y638112D02*
D03*
Y654112D02*
D03*
X1750673Y852742D02*
D03*
Y868742D02*
D03*
X1762103Y638112D02*
D03*
Y654112D02*
D03*
D93*
X222029Y375222D02*
D03*
Y386222D02*
D03*
X222309Y355032D02*
D03*
Y344032D02*
D03*
X395501Y386000D02*
D03*
Y375000D02*
D03*
X222283Y301816D02*
D03*
Y312816D02*
D03*
X323501Y276250D02*
D03*
Y287250D02*
D03*
X677136Y375222D02*
D03*
Y386222D02*
D03*
X677416Y355032D02*
D03*
Y344032D02*
D03*
X850608Y386000D02*
D03*
Y375000D02*
D03*
X677390Y301816D02*
D03*
Y312816D02*
D03*
X778608Y276250D02*
D03*
Y287250D02*
D03*
X1132244Y375222D02*
D03*
Y386222D02*
D03*
X1132524Y355032D02*
D03*
Y344032D02*
D03*
X1305716Y386000D02*
D03*
Y375000D02*
D03*
X1132498Y301816D02*
D03*
Y312816D02*
D03*
X1233716Y276250D02*
D03*
Y287250D02*
D03*
X1587351Y375222D02*
D03*
Y386222D02*
D03*
X1587631Y355032D02*
D03*
Y344032D02*
D03*
X1760823Y386000D02*
D03*
Y375000D02*
D03*
X1587605Y301816D02*
D03*
Y312816D02*
D03*
X1688823Y276250D02*
D03*
Y287250D02*
D03*
D94*
X312301Y459200D02*
D03*
X301301D02*
D03*
X311751Y273000D02*
D03*
X300751D02*
D03*
X311751Y284500D02*
D03*
X300751D02*
D03*
X151250Y152065D02*
D03*
X162250D02*
D03*
X409813Y485204D02*
D03*
X398813D02*
D03*
X767408Y459200D02*
D03*
X756408D02*
D03*
X766858Y273000D02*
D03*
X755858D02*
D03*
X766858Y284500D02*
D03*
X755858D02*
D03*
X606358Y152065D02*
D03*
X617358D02*
D03*
X864920Y485204D02*
D03*
X853920D02*
D03*
X1222516Y459200D02*
D03*
X1211516D02*
D03*
X1221966Y273000D02*
D03*
X1210966D02*
D03*
X1221966Y284500D02*
D03*
X1210966D02*
D03*
X1061465Y152065D02*
D03*
X1072465D02*
D03*
X1320028Y485204D02*
D03*
X1309028D02*
D03*
X1677623Y459200D02*
D03*
X1666623D02*
D03*
X1677073Y273000D02*
D03*
X1666073D02*
D03*
X1677073Y284500D02*
D03*
X1666073D02*
D03*
X1516573Y152065D02*
D03*
X1527573D02*
D03*
X1775135Y485204D02*
D03*
X1764135D02*
D03*
D95*
X210091Y831152D02*
D03*
X226091D02*
D03*
X307501Y244500D02*
D03*
X323501D02*
D03*
X430079Y597270D02*
D03*
X414079D02*
D03*
X665198Y831152D02*
D03*
X681198D02*
D03*
X762608Y244500D02*
D03*
X778608D02*
D03*
X885186Y597270D02*
D03*
X869186D02*
D03*
X1120306Y831152D02*
D03*
X1136306D02*
D03*
X1217716Y244500D02*
D03*
X1233716D02*
D03*
X1340294Y597270D02*
D03*
X1324294D02*
D03*
X1575413Y831152D02*
D03*
X1591413D02*
D03*
X1672823Y244500D02*
D03*
X1688823D02*
D03*
X1795401Y597270D02*
D03*
X1779401D02*
D03*
D108*
X206051Y735700D02*
D03*
X225051D02*
D03*
X215551Y757700D02*
D03*
X661158Y735700D02*
D03*
X680158D02*
D03*
X670658Y757700D02*
D03*
X1116266Y735700D02*
D03*
X1135266D02*
D03*
X1125766Y757700D02*
D03*
X1571373Y735700D02*
D03*
X1590373D02*
D03*
X1580873Y757700D02*
D03*
D109*
X233501Y803250D02*
D03*
Y813250D02*
D03*
X362771Y916200D02*
D03*
Y926200D02*
D03*
X458051Y183950D02*
D03*
Y193950D02*
D03*
X437301Y193200D02*
D03*
Y183200D02*
D03*
X351595Y468492D02*
D03*
Y458492D02*
D03*
X340927Y468586D02*
D03*
Y458586D02*
D03*
X330513Y468492D02*
D03*
Y458492D02*
D03*
X267023Y467052D02*
D03*
Y457052D02*
D03*
X276773Y467302D02*
D03*
Y457302D02*
D03*
X286023Y467302D02*
D03*
Y457302D02*
D03*
X366301Y859200D02*
D03*
Y869200D02*
D03*
X351551Y859200D02*
D03*
Y869200D02*
D03*
X390251Y464750D02*
D03*
Y454750D02*
D03*
X401251Y464750D02*
D03*
Y454750D02*
D03*
X245651Y456662D02*
D03*
Y466662D02*
D03*
X233501Y781500D02*
D03*
Y791500D02*
D03*
X214251Y803250D02*
D03*
Y813250D02*
D03*
X145801Y694950D02*
D03*
Y684950D02*
D03*
X135301Y754200D02*
D03*
Y744200D02*
D03*
X225551Y676700D02*
D03*
Y666700D02*
D03*
X191301Y738950D02*
D03*
Y728950D02*
D03*
Y749700D02*
D03*
Y759700D02*
D03*
X168181Y629795D02*
D03*
Y639795D02*
D03*
X157513Y629795D02*
D03*
Y639795D02*
D03*
X340901Y258542D02*
D03*
Y268542D02*
D03*
X688608Y803250D02*
D03*
Y813250D02*
D03*
X817878Y916200D02*
D03*
Y926200D02*
D03*
X913158Y183950D02*
D03*
Y193950D02*
D03*
X892408Y193200D02*
D03*
Y183200D02*
D03*
X806702Y468492D02*
D03*
Y458492D02*
D03*
X796034Y468586D02*
D03*
Y458586D02*
D03*
X785620Y468492D02*
D03*
Y458492D02*
D03*
X722130Y467052D02*
D03*
Y457052D02*
D03*
X731880Y467302D02*
D03*
Y457302D02*
D03*
X741130Y467302D02*
D03*
Y457302D02*
D03*
X821408Y859200D02*
D03*
Y869200D02*
D03*
X806658Y859200D02*
D03*
Y869200D02*
D03*
X845358Y464750D02*
D03*
Y454750D02*
D03*
X856358Y464750D02*
D03*
Y454750D02*
D03*
X700758Y456662D02*
D03*
Y466662D02*
D03*
X688608Y781500D02*
D03*
Y791500D02*
D03*
X669358Y803250D02*
D03*
Y813250D02*
D03*
X600908Y694950D02*
D03*
Y684950D02*
D03*
X590408Y754200D02*
D03*
Y744200D02*
D03*
X680658Y676700D02*
D03*
Y666700D02*
D03*
X646408Y738950D02*
D03*
Y728950D02*
D03*
Y749700D02*
D03*
Y759700D02*
D03*
X623288Y629795D02*
D03*
Y639795D02*
D03*
X612620Y629795D02*
D03*
Y639795D02*
D03*
X796008Y258542D02*
D03*
Y268542D02*
D03*
X1143716Y803250D02*
D03*
Y813250D02*
D03*
X1272986Y916200D02*
D03*
Y926200D02*
D03*
X1368266Y183950D02*
D03*
Y193950D02*
D03*
X1347516Y193200D02*
D03*
Y183200D02*
D03*
X1261810Y468492D02*
D03*
Y458492D02*
D03*
X1251142Y468586D02*
D03*
Y458586D02*
D03*
X1240728Y468492D02*
D03*
Y458492D02*
D03*
X1177238Y467052D02*
D03*
Y457052D02*
D03*
X1186988Y467302D02*
D03*
Y457302D02*
D03*
X1196238Y467302D02*
D03*
Y457302D02*
D03*
X1276516Y859200D02*
D03*
Y869200D02*
D03*
X1261766Y859200D02*
D03*
Y869200D02*
D03*
X1300466Y464750D02*
D03*
Y454750D02*
D03*
X1311466Y464750D02*
D03*
Y454750D02*
D03*
X1155866Y456662D02*
D03*
Y466662D02*
D03*
X1143716Y781500D02*
D03*
Y791500D02*
D03*
X1124466Y803250D02*
D03*
Y813250D02*
D03*
X1056016Y694950D02*
D03*
Y684950D02*
D03*
X1045516Y754200D02*
D03*
Y744200D02*
D03*
X1135766Y676700D02*
D03*
Y666700D02*
D03*
X1101516Y738950D02*
D03*
Y728950D02*
D03*
Y749700D02*
D03*
Y759700D02*
D03*
X1078395Y629795D02*
D03*
Y639795D02*
D03*
X1067727Y629795D02*
D03*
Y639795D02*
D03*
X1251116Y258542D02*
D03*
Y268542D02*
D03*
X1598823Y803250D02*
D03*
Y813250D02*
D03*
X1728093Y916200D02*
D03*
Y926200D02*
D03*
X1823373Y183950D02*
D03*
Y193950D02*
D03*
X1802623Y193200D02*
D03*
Y183200D02*
D03*
X1716917Y468492D02*
D03*
Y458492D02*
D03*
X1706249Y468586D02*
D03*
Y458586D02*
D03*
X1695835Y468492D02*
D03*
Y458492D02*
D03*
X1632345Y467052D02*
D03*
Y457052D02*
D03*
X1642095Y467302D02*
D03*
Y457302D02*
D03*
X1651345Y467302D02*
D03*
Y457302D02*
D03*
X1731623Y859200D02*
D03*
Y869200D02*
D03*
X1716873Y859200D02*
D03*
Y869200D02*
D03*
X1755573Y464750D02*
D03*
Y454750D02*
D03*
X1766573Y464750D02*
D03*
Y454750D02*
D03*
X1610973Y456662D02*
D03*
Y466662D02*
D03*
X1598823Y781500D02*
D03*
Y791500D02*
D03*
X1579573Y803250D02*
D03*
Y813250D02*
D03*
X1511123Y694950D02*
D03*
Y684950D02*
D03*
X1500623Y754200D02*
D03*
Y744200D02*
D03*
X1590873Y676700D02*
D03*
Y666700D02*
D03*
X1556623Y738950D02*
D03*
Y728950D02*
D03*
Y749700D02*
D03*
Y759700D02*
D03*
X1533503Y629795D02*
D03*
Y639795D02*
D03*
X1522835Y629795D02*
D03*
Y639795D02*
D03*
X1706223Y258542D02*
D03*
Y268542D02*
D03*
D111*
X376801Y895950D02*
D03*
X386801D02*
D03*
X430751Y256315D02*
D03*
X440751D02*
D03*
X404173Y428360D02*
D03*
X394173D02*
D03*
X404173Y438774D02*
D03*
X394173D02*
D03*
X364051Y844200D02*
D03*
X354051D02*
D03*
X397001Y405500D02*
D03*
X407001D02*
D03*
X260751Y283750D02*
D03*
X270751D02*
D03*
X349001Y285750D02*
D03*
X339001D02*
D03*
X440751Y246315D02*
D03*
X430751D02*
D03*
X275743Y840348D02*
D03*
X265743D02*
D03*
X152205Y166486D02*
D03*
X162205D02*
D03*
X192501Y638250D02*
D03*
X202501D02*
D03*
X168051Y694950D02*
D03*
X158051D02*
D03*
X831908Y895950D02*
D03*
X841908D02*
D03*
X885858Y256315D02*
D03*
X895858D02*
D03*
X859280Y428360D02*
D03*
X849280D02*
D03*
X859280Y438774D02*
D03*
X849280D02*
D03*
X819158Y844200D02*
D03*
X809158D02*
D03*
X852108Y405500D02*
D03*
X862108D02*
D03*
X715858Y283750D02*
D03*
X725858D02*
D03*
X804108Y285750D02*
D03*
X794108D02*
D03*
X895858Y246315D02*
D03*
X885858D02*
D03*
X730850Y840348D02*
D03*
X720850D02*
D03*
X607312Y166486D02*
D03*
X617312D02*
D03*
X647608Y638250D02*
D03*
X657608D02*
D03*
X623158Y694950D02*
D03*
X613158D02*
D03*
X1287016Y895950D02*
D03*
X1297016D02*
D03*
X1340965Y256315D02*
D03*
X1350965D02*
D03*
X1314388Y428360D02*
D03*
X1304388D02*
D03*
X1314388Y438774D02*
D03*
X1304388D02*
D03*
X1274266Y844200D02*
D03*
X1264266D02*
D03*
X1307216Y405500D02*
D03*
X1317216D02*
D03*
X1170966Y283750D02*
D03*
X1180966D02*
D03*
X1259216Y285750D02*
D03*
X1249216D02*
D03*
X1350965Y246315D02*
D03*
X1340965D02*
D03*
X1185958Y840348D02*
D03*
X1175958D02*
D03*
X1062420Y166486D02*
D03*
X1072420D02*
D03*
X1102716Y638250D02*
D03*
X1112716D02*
D03*
X1078266Y694950D02*
D03*
X1068266D02*
D03*
X1742123Y895950D02*
D03*
X1752123D02*
D03*
X1796073Y256315D02*
D03*
X1806073D02*
D03*
X1769495Y428360D02*
D03*
X1759495D02*
D03*
X1769495Y438774D02*
D03*
X1759495D02*
D03*
X1729373Y844200D02*
D03*
X1719373D02*
D03*
X1762323Y405500D02*
D03*
X1772323D02*
D03*
X1626073Y283750D02*
D03*
X1636073D02*
D03*
X1714323Y285750D02*
D03*
X1704323D02*
D03*
X1806073Y246315D02*
D03*
X1796073D02*
D03*
X1641065Y840348D02*
D03*
X1631065D02*
D03*
X1517527Y166486D02*
D03*
X1527527D02*
D03*
X1557823Y638250D02*
D03*
X1567823D02*
D03*
X1533373Y694950D02*
D03*
X1523373D02*
D03*
D115*
X175051Y713450D02*
D03*
Y732450D02*
D03*
Y722950D02*
D03*
X149051Y732450D02*
D03*
Y722950D02*
D03*
Y713450D02*
D03*
X630158D02*
D03*
Y732450D02*
D03*
Y722950D02*
D03*
X604158Y732450D02*
D03*
Y722950D02*
D03*
Y713450D02*
D03*
X1085266D02*
D03*
Y732450D02*
D03*
Y722950D02*
D03*
X1059266Y732450D02*
D03*
Y722950D02*
D03*
Y713450D02*
D03*
X1540373D02*
D03*
Y732450D02*
D03*
Y722950D02*
D03*
X1514373Y732450D02*
D03*
Y722950D02*
D03*
Y713450D02*
D03*
D116*
X197315Y618098D02*
D03*
X206815D02*
D03*
X216315D02*
D03*
X206815Y592098D02*
D03*
X216315D02*
D03*
X197315D02*
D03*
X652422Y618098D02*
D03*
X661922D02*
D03*
X671422D02*
D03*
X661922Y592098D02*
D03*
X671422D02*
D03*
X652422D02*
D03*
X1107530Y618098D02*
D03*
X1117030D02*
D03*
X1126530D02*
D03*
X1117030Y592098D02*
D03*
X1126530D02*
D03*
X1107530D02*
D03*
X1562637Y618098D02*
D03*
X1572137D02*
D03*
X1581637D02*
D03*
X1572137Y592098D02*
D03*
X1581637D02*
D03*
X1562637D02*
D03*
D120*
X144523Y191052D02*
D03*
X436431Y896228D02*
D03*
X599630Y191052D02*
D03*
X891538Y896228D02*
D03*
X1054738Y191052D02*
D03*
X1346646Y896228D02*
D03*
X1509845Y191052D02*
D03*
X1801753Y896228D02*
D03*
D121*
X346925Y908826D02*
D03*
Y927826D02*
D03*
X324925Y918326D02*
D03*
X439551Y166950D02*
D03*
Y147950D02*
D03*
X461551Y157450D02*
D03*
X268301Y873200D02*
D03*
Y854200D02*
D03*
X290301Y863700D02*
D03*
X163051Y593699D02*
D03*
Y612700D02*
D03*
X141051Y603200D02*
D03*
X178551Y677700D02*
D03*
Y658700D02*
D03*
X200551Y668200D02*
D03*
X227059Y693941D02*
D03*
Y712942D02*
D03*
X205059Y703442D02*
D03*
X802032Y908826D02*
D03*
Y927826D02*
D03*
X780032Y918326D02*
D03*
X894658Y166950D02*
D03*
Y147950D02*
D03*
X916658Y157450D02*
D03*
X723408Y873200D02*
D03*
Y854200D02*
D03*
X745408Y863700D02*
D03*
X618158Y593699D02*
D03*
Y612700D02*
D03*
X596158Y603200D02*
D03*
X633658Y677700D02*
D03*
Y658700D02*
D03*
X655658Y668200D02*
D03*
X682166Y693941D02*
D03*
Y712942D02*
D03*
X660166Y703442D02*
D03*
X1257140Y908826D02*
D03*
Y927826D02*
D03*
X1235140Y918326D02*
D03*
X1349766Y166950D02*
D03*
Y147950D02*
D03*
X1371766Y157450D02*
D03*
X1178516Y873200D02*
D03*
Y854200D02*
D03*
X1200516Y863700D02*
D03*
X1073266Y593699D02*
D03*
Y612700D02*
D03*
X1051266Y603200D02*
D03*
X1088766Y677700D02*
D03*
Y658700D02*
D03*
X1110766Y668200D02*
D03*
X1137274Y693941D02*
D03*
Y712942D02*
D03*
X1115274Y703442D02*
D03*
X1712247Y908826D02*
D03*
Y927826D02*
D03*
X1690247Y918326D02*
D03*
X1804873Y166950D02*
D03*
Y147950D02*
D03*
X1826873Y157450D02*
D03*
X1633623Y873200D02*
D03*
Y854200D02*
D03*
X1655623Y863700D02*
D03*
X1528373Y593699D02*
D03*
Y612700D02*
D03*
X1506373Y603200D02*
D03*
X1543873Y677700D02*
D03*
Y658700D02*
D03*
X1565873Y668200D02*
D03*
X1592381Y693941D02*
D03*
Y712942D02*
D03*
X1570381Y703442D02*
D03*
D129*
X465714Y129808D02*
D03*
X459125Y129116D02*
D03*
X445948Y127731D02*
D03*
X452537Y128423D02*
D03*
X439359Y127038D02*
D03*
X503500Y205250D02*
D03*
Y198625D02*
D03*
Y185375D02*
D03*
Y192000D02*
D03*
Y178750D02*
D03*
Y607250D02*
D03*
Y600625D02*
D03*
Y587375D02*
D03*
Y594000D02*
D03*
Y580750D02*
D03*
Y843250D02*
D03*
Y836625D02*
D03*
Y823375D02*
D03*
Y830000D02*
D03*
Y816750D02*
D03*
X806857Y1128750D02*
D03*
X813482D02*
D03*
X826731D02*
D03*
X820106D02*
D03*
X833356D02*
D03*
X706857D02*
D03*
X713482D02*
D03*
X726732D02*
D03*
X720107D02*
D03*
X733357D02*
D03*
X620956Y1074553D02*
D03*
X626031Y1078811D02*
D03*
X636181Y1087328D02*
D03*
X631106Y1083070D02*
D03*
X641257Y1091587D02*
D03*
X899708Y1090956D02*
D03*
X904783Y1086697D02*
D03*
X914933Y1078181D02*
D03*
X909858Y1082439D02*
D03*
X920008Y1073922D02*
D03*
X897607Y1006750D02*
D03*
X890983D02*
D03*
X877732D02*
D03*
X884358D02*
D03*
X871107D02*
D03*
X668108D02*
D03*
X661482D02*
D03*
X648232D02*
D03*
X654857D02*
D03*
X641608D02*
D03*
X837858Y969250D02*
D03*
Y962625D02*
D03*
Y949375D02*
D03*
Y956000D02*
D03*
Y942750D02*
D03*
X702357D02*
D03*
Y949375D02*
D03*
Y962625D02*
D03*
Y956000D02*
D03*
Y969250D02*
D03*
X666608Y396500D02*
D03*
Y403125D02*
D03*
Y416375D02*
D03*
Y409750D02*
D03*
Y423000D02*
D03*
X873607Y317500D02*
D03*
Y310875D02*
D03*
Y297625D02*
D03*
Y304250D02*
D03*
Y291000D02*
D03*
X581608Y177750D02*
D03*
Y184375D02*
D03*
Y197625D02*
D03*
Y191000D02*
D03*
Y204250D02*
D03*
Y817000D02*
D03*
Y823625D02*
D03*
Y836875D02*
D03*
Y830250D02*
D03*
Y843500D02*
D03*
X126500Y817000D02*
D03*
Y823625D02*
D03*
Y836875D02*
D03*
Y830250D02*
D03*
Y843500D02*
D03*
Y177750D02*
D03*
Y184375D02*
D03*
Y197625D02*
D03*
Y191000D02*
D03*
Y204250D02*
D03*
X418500Y317500D02*
D03*
Y310875D02*
D03*
Y297625D02*
D03*
Y304250D02*
D03*
Y291000D02*
D03*
X211500Y396500D02*
D03*
Y403125D02*
D03*
Y416375D02*
D03*
Y409750D02*
D03*
Y423000D02*
D03*
X247250Y942750D02*
D03*
Y949375D02*
D03*
Y962625D02*
D03*
Y956000D02*
D03*
Y969250D02*
D03*
X382750D02*
D03*
Y962625D02*
D03*
Y949375D02*
D03*
Y956000D02*
D03*
Y942750D02*
D03*
X213000Y1006750D02*
D03*
X206375D02*
D03*
X193125D02*
D03*
X199750D02*
D03*
X186500D02*
D03*
X442500D02*
D03*
X435875D02*
D03*
X422625D02*
D03*
X429250D02*
D03*
X416000D02*
D03*
X444601Y1090956D02*
D03*
X449676Y1086697D02*
D03*
X459826Y1078181D02*
D03*
X454751Y1082439D02*
D03*
X464901Y1073922D02*
D03*
X165849Y1074553D02*
D03*
X170924Y1078811D02*
D03*
X181074Y1087328D02*
D03*
X175999Y1083070D02*
D03*
X186149Y1091587D02*
D03*
X251749Y1128750D02*
D03*
X258374D02*
D03*
X271624D02*
D03*
X264999D02*
D03*
X278249D02*
D03*
X351749D02*
D03*
X358374D02*
D03*
X371624D02*
D03*
X364999D02*
D03*
X378249D02*
D03*
X958607Y607250D02*
D03*
Y600625D02*
D03*
Y587375D02*
D03*
Y594000D02*
D03*
Y580750D02*
D03*
Y843250D02*
D03*
Y836625D02*
D03*
Y823375D02*
D03*
Y830000D02*
D03*
Y816750D02*
D03*
Y205250D02*
D03*
Y198625D02*
D03*
Y185375D02*
D03*
Y192000D02*
D03*
Y178750D02*
D03*
X1413716Y205250D02*
D03*
Y198625D02*
D03*
Y185375D02*
D03*
Y192000D02*
D03*
Y178750D02*
D03*
Y843250D02*
D03*
Y836625D02*
D03*
Y823375D02*
D03*
Y830000D02*
D03*
Y816750D02*
D03*
Y607250D02*
D03*
Y600625D02*
D03*
Y587375D02*
D03*
Y594000D02*
D03*
Y580750D02*
D03*
X1261964Y1128750D02*
D03*
X1268589D02*
D03*
X1281839D02*
D03*
X1275214D02*
D03*
X1288465D02*
D03*
X1161965D02*
D03*
X1168590D02*
D03*
X1181840D02*
D03*
X1175215D02*
D03*
X1188465D02*
D03*
X1076064Y1074553D02*
D03*
X1081140Y1078811D02*
D03*
X1091290Y1087328D02*
D03*
X1086215Y1083070D02*
D03*
X1096365Y1091587D02*
D03*
X1354816Y1090956D02*
D03*
X1359892Y1086697D02*
D03*
X1370042Y1078181D02*
D03*
X1364966Y1082439D02*
D03*
X1375117Y1073922D02*
D03*
X1352715Y1006750D02*
D03*
X1346091D02*
D03*
X1332841D02*
D03*
X1339465D02*
D03*
X1326216D02*
D03*
X1123215D02*
D03*
X1116590D02*
D03*
X1103341D02*
D03*
X1109966D02*
D03*
X1096715D02*
D03*
X1292966Y969250D02*
D03*
Y962625D02*
D03*
Y949375D02*
D03*
Y956000D02*
D03*
Y942750D02*
D03*
X1157466D02*
D03*
Y949375D02*
D03*
Y962625D02*
D03*
Y956000D02*
D03*
Y969250D02*
D03*
X1121715Y396500D02*
D03*
Y403125D02*
D03*
Y416375D02*
D03*
Y409750D02*
D03*
Y423000D02*
D03*
X1328716Y317500D02*
D03*
Y310875D02*
D03*
Y297625D02*
D03*
Y304250D02*
D03*
Y291000D02*
D03*
X1036715Y177750D02*
D03*
Y184375D02*
D03*
Y197625D02*
D03*
Y191000D02*
D03*
Y204250D02*
D03*
Y817000D02*
D03*
Y823625D02*
D03*
Y836875D02*
D03*
Y830250D02*
D03*
Y843500D02*
D03*
X1868823Y205250D02*
D03*
Y198625D02*
D03*
Y185375D02*
D03*
Y192000D02*
D03*
Y178750D02*
D03*
Y843250D02*
D03*
Y836625D02*
D03*
Y823375D02*
D03*
Y830000D02*
D03*
Y816750D02*
D03*
Y607250D02*
D03*
Y600625D02*
D03*
Y587375D02*
D03*
Y594000D02*
D03*
Y580750D02*
D03*
X1717072Y1128750D02*
D03*
X1723697D02*
D03*
X1736947D02*
D03*
X1730322D02*
D03*
X1743572D02*
D03*
X1617072D02*
D03*
X1623697D02*
D03*
X1636947D02*
D03*
X1630322D02*
D03*
X1643572D02*
D03*
X1531172Y1074553D02*
D03*
X1536247Y1078811D02*
D03*
X1546397Y1087328D02*
D03*
X1541322Y1083070D02*
D03*
X1551472Y1091587D02*
D03*
X1809924Y1090956D02*
D03*
X1814999Y1086697D02*
D03*
X1825149Y1078181D02*
D03*
X1820074Y1082439D02*
D03*
X1830224Y1073922D02*
D03*
X1807823Y1006750D02*
D03*
X1801198D02*
D03*
X1787948D02*
D03*
X1794573D02*
D03*
X1781323D02*
D03*
X1578323D02*
D03*
X1571698D02*
D03*
X1558448D02*
D03*
X1565073D02*
D03*
X1551823D02*
D03*
X1748073Y969250D02*
D03*
Y962625D02*
D03*
Y949375D02*
D03*
Y956000D02*
D03*
Y942750D02*
D03*
X1612573D02*
D03*
Y949375D02*
D03*
Y962625D02*
D03*
Y956000D02*
D03*
Y969250D02*
D03*
X1576823Y396500D02*
D03*
Y403125D02*
D03*
Y416375D02*
D03*
Y409750D02*
D03*
Y423000D02*
D03*
X1783823Y317500D02*
D03*
Y310875D02*
D03*
Y297625D02*
D03*
Y304250D02*
D03*
Y291000D02*
D03*
X1491823Y177750D02*
D03*
Y184375D02*
D03*
Y197625D02*
D03*
Y191000D02*
D03*
Y204250D02*
D03*
Y817000D02*
D03*
Y823625D02*
D03*
Y836875D02*
D03*
Y830250D02*
D03*
Y843500D02*
D03*
X920822Y129808D02*
D03*
X914233Y129116D02*
D03*
X901055Y127731D02*
D03*
X907644Y128423D02*
D03*
X894467Y127038D02*
D03*
X1375929Y129808D02*
D03*
X1369340Y129116D02*
D03*
X1356163Y127731D02*
D03*
X1362752Y128423D02*
D03*
X1349574Y127038D02*
D03*
X1831036Y129808D02*
D03*
X1824448Y129116D02*
D03*
X1811270Y127731D02*
D03*
X1817859Y128423D02*
D03*
X1804682Y127038D02*
D03*
D130*
X403893Y499691D02*
D03*
Y514691D02*
D03*
Y529691D02*
D03*
Y544691D02*
D03*
Y559691D02*
D03*
X404501Y355489D02*
D03*
Y340489D02*
D03*
Y325489D02*
D03*
Y310489D02*
D03*
Y295489D02*
D03*
X859000Y499691D02*
D03*
Y514691D02*
D03*
Y529691D02*
D03*
Y544691D02*
D03*
Y559691D02*
D03*
X859608Y355489D02*
D03*
Y340489D02*
D03*
Y325489D02*
D03*
Y310489D02*
D03*
Y295489D02*
D03*
X1314107Y499691D02*
D03*
Y514691D02*
D03*
Y529691D02*
D03*
Y544691D02*
D03*
Y559691D02*
D03*
X1314716Y355489D02*
D03*
Y340489D02*
D03*
Y325489D02*
D03*
Y310489D02*
D03*
Y295489D02*
D03*
X1769215Y499691D02*
D03*
Y514691D02*
D03*
Y529691D02*
D03*
Y544691D02*
D03*
Y559691D02*
D03*
X1769823Y355489D02*
D03*
Y340489D02*
D03*
Y325489D02*
D03*
Y310489D02*
D03*
Y295489D02*
D03*
D131*
X267313Y804012D02*
D03*
Y776012D02*
D03*
X292713Y804012D02*
D03*
Y776012D02*
D03*
X362713D02*
D03*
Y804012D02*
D03*
X337313Y776012D02*
D03*
Y804012D02*
D03*
X722420D02*
D03*
Y776012D02*
D03*
X747820Y804012D02*
D03*
Y776012D02*
D03*
X817820D02*
D03*
Y804012D02*
D03*
X792420Y776012D02*
D03*
Y804012D02*
D03*
X1177528D02*
D03*
Y776012D02*
D03*
X1202928Y804012D02*
D03*
Y776012D02*
D03*
X1272928D02*
D03*
Y804012D02*
D03*
X1247528Y776012D02*
D03*
Y804012D02*
D03*
X1632635D02*
D03*
Y776012D02*
D03*
X1658035Y804012D02*
D03*
Y776012D02*
D03*
X1728035D02*
D03*
Y804012D02*
D03*
X1702635Y776012D02*
D03*
Y804012D02*
D03*
D132*
X403501Y190550D02*
D03*
Y220250D02*
D03*
X364501Y190550D02*
D03*
Y220250D02*
D03*
X858608Y190550D02*
D03*
Y220250D02*
D03*
X819608Y190550D02*
D03*
Y220250D02*
D03*
X1313716Y190550D02*
D03*
Y220250D02*
D03*
X1274716Y190550D02*
D03*
Y220250D02*
D03*
X1768823Y190550D02*
D03*
Y220250D02*
D03*
X1729823Y190550D02*
D03*
Y220250D02*
D03*
D133*
X357011Y706210D02*
D03*
X273011D02*
D03*
X812118D02*
D03*
X728118D02*
D03*
X1267226D02*
D03*
X1183226D02*
D03*
X1722333D02*
D03*
X1638333D02*
D03*
D134*
X394273Y699553D02*
D03*
Y718552D02*
D03*
X849380Y699553D02*
D03*
Y718552D02*
D03*
X1304488Y699553D02*
D03*
Y718552D02*
D03*
X1759595Y699553D02*
D03*
Y718552D02*
D03*
D135*
X252573Y188302D02*
D03*
X208573D02*
D03*
X707680D02*
D03*
X663680D02*
D03*
X1162788D02*
D03*
X1118788D02*
D03*
X1617895D02*
D03*
X1573895D02*
D03*
D136*
X253570Y1056150D02*
D03*
Y1043450D02*
D03*
Y1030750D02*
D03*
X240870Y1043450D02*
D03*
Y1030750D02*
D03*
X708569Y1056150D02*
D03*
Y1043450D02*
D03*
Y1030750D02*
D03*
X695869Y1043450D02*
D03*
Y1030750D02*
D03*
X1163568Y1056150D02*
D03*
Y1043450D02*
D03*
Y1030750D02*
D03*
X1150868Y1043450D02*
D03*
Y1030750D02*
D03*
X1618567Y1056150D02*
D03*
Y1043450D02*
D03*
Y1030750D02*
D03*
X1605867Y1043450D02*
D03*
Y1030750D02*
D03*
D137*
X240870Y1056150D02*
D03*
X695869D02*
D03*
X1150868D02*
D03*
X1605867D02*
D03*
D138*
X266751Y240500D02*
D03*
X289051D02*
D03*
X721858D02*
D03*
X744158D02*
D03*
X1176966D02*
D03*
X1199266D02*
D03*
X1632073D02*
D03*
X1654373D02*
D03*
D139*
X307867Y225108D02*
D03*
X337867D02*
D03*
X762974D02*
D03*
X792974D02*
D03*
X1218082D02*
D03*
X1248082D02*
D03*
X1673189D02*
D03*
X1703189D02*
D03*
D140*
X277001Y271250D02*
D03*
X263001D02*
D03*
X204533Y251270D02*
D03*
X190533D02*
D03*
X732108Y271250D02*
D03*
X718108D02*
D03*
X659640Y251270D02*
D03*
X645640D02*
D03*
X1187216Y271250D02*
D03*
X1173216D02*
D03*
X1114748Y251270D02*
D03*
X1100748D02*
D03*
X1642323Y271250D02*
D03*
X1628323D02*
D03*
X1569855Y251270D02*
D03*
X1555855D02*
D03*
D141*
X285751Y256500D02*
D03*
X268751D02*
D03*
X740858D02*
D03*
X723858D02*
D03*
X1195966D02*
D03*
X1178966D02*
D03*
X1651073D02*
D03*
X1634073D02*
D03*
D142*
X355809Y305790D02*
D03*
X350809D02*
D03*
X340809D02*
D03*
X345809D02*
D03*
X325809D02*
D03*
X320809D02*
D03*
X330809D02*
D03*
X335809D02*
D03*
X295809D02*
D03*
X290809D02*
D03*
X280809D02*
D03*
X285809D02*
D03*
X305809D02*
D03*
X300809D02*
D03*
X310809D02*
D03*
X315809D02*
D03*
X265809D02*
D03*
X260809D02*
D03*
X270809D02*
D03*
X275809D02*
D03*
Y439790D02*
D03*
X270809D02*
D03*
X260809D02*
D03*
X265809D02*
D03*
X315809D02*
D03*
X310809D02*
D03*
X300809D02*
D03*
X305809D02*
D03*
X285809D02*
D03*
X280809D02*
D03*
X290809D02*
D03*
X295809D02*
D03*
X335809D02*
D03*
X330809D02*
D03*
X320809D02*
D03*
X325809D02*
D03*
X345809D02*
D03*
X340809D02*
D03*
X350809D02*
D03*
X355809D02*
D03*
X810916Y305790D02*
D03*
X805916D02*
D03*
X795916D02*
D03*
X800916D02*
D03*
X780916D02*
D03*
X775916D02*
D03*
X785916D02*
D03*
X790916D02*
D03*
X750916D02*
D03*
X745916D02*
D03*
X735916D02*
D03*
X740916D02*
D03*
X760916D02*
D03*
X755916D02*
D03*
X765916D02*
D03*
X770916D02*
D03*
X720916D02*
D03*
X715916D02*
D03*
X725916D02*
D03*
X730916D02*
D03*
Y439790D02*
D03*
X725916D02*
D03*
X715916D02*
D03*
X720916D02*
D03*
X770916D02*
D03*
X765916D02*
D03*
X755916D02*
D03*
X760916D02*
D03*
X740916D02*
D03*
X735916D02*
D03*
X745916D02*
D03*
X750916D02*
D03*
X790916D02*
D03*
X785916D02*
D03*
X775916D02*
D03*
X780916D02*
D03*
X800916D02*
D03*
X795916D02*
D03*
X805916D02*
D03*
X810916D02*
D03*
X1266024Y305790D02*
D03*
X1261024D02*
D03*
X1251024D02*
D03*
X1256024D02*
D03*
X1236024D02*
D03*
X1231024D02*
D03*
X1241024D02*
D03*
X1246024D02*
D03*
X1206024D02*
D03*
X1201024D02*
D03*
X1191024D02*
D03*
X1196024D02*
D03*
X1216024D02*
D03*
X1211024D02*
D03*
X1221024D02*
D03*
X1226024D02*
D03*
X1176024D02*
D03*
X1171024D02*
D03*
X1181024D02*
D03*
X1186024D02*
D03*
Y439790D02*
D03*
X1181024D02*
D03*
X1171024D02*
D03*
X1176024D02*
D03*
X1226024D02*
D03*
X1221024D02*
D03*
X1211024D02*
D03*
X1216024D02*
D03*
X1196024D02*
D03*
X1191024D02*
D03*
X1201024D02*
D03*
X1206024D02*
D03*
X1246024D02*
D03*
X1241024D02*
D03*
X1231024D02*
D03*
X1236024D02*
D03*
X1256024D02*
D03*
X1251024D02*
D03*
X1261024D02*
D03*
X1266024D02*
D03*
X1721131Y305790D02*
D03*
X1716131D02*
D03*
X1706131D02*
D03*
X1711131D02*
D03*
X1691131D02*
D03*
X1686131D02*
D03*
X1696131D02*
D03*
X1701131D02*
D03*
X1661131D02*
D03*
X1656131D02*
D03*
X1646131D02*
D03*
X1651131D02*
D03*
X1671131D02*
D03*
X1666131D02*
D03*
X1676131D02*
D03*
X1681131D02*
D03*
X1631131D02*
D03*
X1626131D02*
D03*
X1636131D02*
D03*
X1641131D02*
D03*
Y439790D02*
D03*
X1636131D02*
D03*
X1626131D02*
D03*
X1631131D02*
D03*
X1681131D02*
D03*
X1676131D02*
D03*
X1666131D02*
D03*
X1671131D02*
D03*
X1651131D02*
D03*
X1646131D02*
D03*
X1656131D02*
D03*
X1661131D02*
D03*
X1701131D02*
D03*
X1696131D02*
D03*
X1686131D02*
D03*
X1691131D02*
D03*
X1711131D02*
D03*
X1706131D02*
D03*
X1716131D02*
D03*
X1721131D02*
D03*
D143*
X375309Y405289D02*
D03*
Y410289D02*
D03*
Y420289D02*
D03*
Y415289D02*
D03*
Y365289D02*
D03*
Y370289D02*
D03*
Y380289D02*
D03*
Y375289D02*
D03*
Y395289D02*
D03*
Y400289D02*
D03*
Y390289D02*
D03*
Y385289D02*
D03*
Y345289D02*
D03*
Y350289D02*
D03*
Y360289D02*
D03*
Y355289D02*
D03*
Y335290D02*
D03*
Y340289D02*
D03*
Y330290D02*
D03*
Y325290D02*
D03*
X241309Y405289D02*
D03*
Y410289D02*
D03*
Y420289D02*
D03*
Y415289D02*
D03*
Y365289D02*
D03*
Y370289D02*
D03*
Y380289D02*
D03*
Y375289D02*
D03*
Y395289D02*
D03*
Y400289D02*
D03*
Y390289D02*
D03*
Y385289D02*
D03*
Y345289D02*
D03*
Y350289D02*
D03*
Y360289D02*
D03*
Y355289D02*
D03*
Y335290D02*
D03*
Y340289D02*
D03*
Y330290D02*
D03*
Y325290D02*
D03*
X830416Y405289D02*
D03*
Y410289D02*
D03*
Y420289D02*
D03*
Y415289D02*
D03*
Y365289D02*
D03*
Y370289D02*
D03*
Y380289D02*
D03*
Y375289D02*
D03*
Y395289D02*
D03*
Y400289D02*
D03*
Y390289D02*
D03*
Y385289D02*
D03*
Y345289D02*
D03*
Y350289D02*
D03*
Y360289D02*
D03*
Y355289D02*
D03*
Y335290D02*
D03*
Y340289D02*
D03*
Y330290D02*
D03*
Y325290D02*
D03*
X696416Y405289D02*
D03*
Y410289D02*
D03*
Y420289D02*
D03*
Y415289D02*
D03*
Y365289D02*
D03*
Y370289D02*
D03*
Y380289D02*
D03*
Y375289D02*
D03*
Y395289D02*
D03*
Y400289D02*
D03*
Y390289D02*
D03*
Y385289D02*
D03*
Y345289D02*
D03*
Y350289D02*
D03*
Y360289D02*
D03*
Y355289D02*
D03*
Y335290D02*
D03*
Y340289D02*
D03*
Y330290D02*
D03*
Y325290D02*
D03*
X1285524Y405289D02*
D03*
Y410289D02*
D03*
Y420289D02*
D03*
Y415289D02*
D03*
Y365289D02*
D03*
Y370289D02*
D03*
Y380289D02*
D03*
Y375289D02*
D03*
Y395289D02*
D03*
Y400289D02*
D03*
Y390289D02*
D03*
Y385289D02*
D03*
Y345289D02*
D03*
Y350289D02*
D03*
Y360289D02*
D03*
Y355289D02*
D03*
Y335290D02*
D03*
Y340289D02*
D03*
Y330290D02*
D03*
Y325290D02*
D03*
X1151524Y405289D02*
D03*
Y410289D02*
D03*
Y420289D02*
D03*
Y415289D02*
D03*
Y365289D02*
D03*
Y370289D02*
D03*
Y380289D02*
D03*
Y375289D02*
D03*
Y395289D02*
D03*
Y400289D02*
D03*
Y390289D02*
D03*
Y385289D02*
D03*
Y345289D02*
D03*
Y350289D02*
D03*
Y360289D02*
D03*
Y355289D02*
D03*
Y335290D02*
D03*
Y340289D02*
D03*
Y330290D02*
D03*
Y325290D02*
D03*
X1740631Y405289D02*
D03*
Y410289D02*
D03*
Y420289D02*
D03*
Y415289D02*
D03*
Y365289D02*
D03*
Y370289D02*
D03*
Y380289D02*
D03*
Y375289D02*
D03*
Y395289D02*
D03*
Y400289D02*
D03*
Y390289D02*
D03*
Y385289D02*
D03*
Y345289D02*
D03*
Y350289D02*
D03*
Y360289D02*
D03*
Y355289D02*
D03*
Y335290D02*
D03*
Y340289D02*
D03*
Y330290D02*
D03*
Y325290D02*
D03*
X1606631Y405289D02*
D03*
Y410289D02*
D03*
Y420289D02*
D03*
Y415289D02*
D03*
Y365289D02*
D03*
Y370289D02*
D03*
Y380289D02*
D03*
Y375289D02*
D03*
Y395289D02*
D03*
Y400289D02*
D03*
Y390289D02*
D03*
Y385289D02*
D03*
Y345289D02*
D03*
Y350289D02*
D03*
Y360289D02*
D03*
Y355289D02*
D03*
Y335290D02*
D03*
Y340289D02*
D03*
Y330290D02*
D03*
Y325290D02*
D03*
D144*
X455551Y731200D02*
D03*
X455551Y861200D02*
D03*
X910658Y731200D02*
D03*
X910658Y861200D02*
D03*
X1365766Y731200D02*
D03*
X1365766Y861200D02*
D03*
X1820873Y731200D02*
D03*
X1820873Y861200D02*
D03*
D145*
X186073Y158802D02*
D03*
Y213802D02*
D03*
X275073Y158802D02*
D03*
Y213802D02*
D03*
X641180Y158802D02*
D03*
Y213802D02*
D03*
X730180Y158802D02*
D03*
Y213802D02*
D03*
X1096288Y158802D02*
D03*
Y213802D02*
D03*
X1185288Y158802D02*
D03*
Y213802D02*
D03*
X1551395Y158802D02*
D03*
Y213802D02*
D03*
X1640395Y158802D02*
D03*
Y213802D02*
D03*
D146*
X230573Y214802D02*
D03*
X222573D02*
D03*
X214573D02*
D03*
X238573D02*
D03*
X246573D02*
D03*
X685680D02*
D03*
X677680D02*
D03*
X669680D02*
D03*
X693680D02*
D03*
X701680D02*
D03*
X1140788D02*
D03*
X1132788D02*
D03*
X1124788D02*
D03*
X1148788D02*
D03*
X1156788D02*
D03*
X1595895D02*
D03*
X1587895D02*
D03*
X1579895D02*
D03*
X1603895D02*
D03*
X1611895D02*
D03*
D147*
X226093Y246930D02*
D03*
X231093D02*
D03*
X236093D02*
D03*
Y261430D02*
D03*
X231093D02*
D03*
X226093D02*
D03*
X681200Y246930D02*
D03*
X686200D02*
D03*
X691200D02*
D03*
Y261430D02*
D03*
X686200D02*
D03*
X681200D02*
D03*
X1136308Y246930D02*
D03*
X1141308D02*
D03*
X1146308D02*
D03*
Y261430D02*
D03*
X1141308D02*
D03*
X1136308D02*
D03*
X1591415Y246930D02*
D03*
X1596415D02*
D03*
X1601415D02*
D03*
Y261430D02*
D03*
X1596415D02*
D03*
X1591415D02*
D03*
D148*
X439051Y685950D02*
D03*
X894158D02*
D03*
X1349266D02*
D03*
X1804373D02*
D03*
D149*
X416051Y627950D02*
D03*
X439051D02*
D03*
X462051D02*
D03*
X871158D02*
D03*
X894158D02*
D03*
X917158D02*
D03*
X1326266D02*
D03*
X1349266D02*
D03*
X1372266D02*
D03*
X1781373D02*
D03*
X1804373D02*
D03*
X1827373D02*
D03*
D150*
X403551Y265200D02*
D03*
Y241700D02*
D03*
X364551Y265200D02*
D03*
Y241700D02*
D03*
X858658Y265200D02*
D03*
Y241700D02*
D03*
X819658Y265200D02*
D03*
Y241700D02*
D03*
X1313766Y265200D02*
D03*
Y241700D02*
D03*
X1274766Y265200D02*
D03*
Y241700D02*
D03*
X1768873Y265200D02*
D03*
Y241700D02*
D03*
X1729873Y265200D02*
D03*
Y241700D02*
D03*
D151*
X355053Y514702D02*
D03*
X335053D02*
D03*
X275053D02*
D03*
X295053D02*
D03*
Y569702D02*
D03*
X275053D02*
D03*
X335053D02*
D03*
X355053D02*
D03*
X810160Y514702D02*
D03*
X790160D02*
D03*
X730160D02*
D03*
X750160D02*
D03*
Y569702D02*
D03*
X730160D02*
D03*
X790160D02*
D03*
X810160D02*
D03*
X1265268Y514702D02*
D03*
X1245268D02*
D03*
X1185268D02*
D03*
X1205268D02*
D03*
Y569702D02*
D03*
X1185268D02*
D03*
X1245268D02*
D03*
X1265268D02*
D03*
X1720375Y514702D02*
D03*
X1700375D02*
D03*
X1640375D02*
D03*
X1660375D02*
D03*
Y569702D02*
D03*
X1640375D02*
D03*
X1700375D02*
D03*
X1720375D02*
D03*
M02*
