G04*
G04 #@! TF.GenerationSoftware,Altium Limited,Altium Designer,18.0.9 (584)*
G04*
G04 Layer_Color=16711935*
%FSLAX44Y44*%
%MOMM*%
G71*
G01*
G75*
%ADD80C,0.1000*%
%ADD155C,2.5000*%
D80*
X0Y0D02*
Y1255250D01*
X1995430D01*
Y0D02*
Y1255250D01*
X0Y0D02*
X1995430D01*
X175000Y921250D02*
G03*
X150807Y902550I0J-25000D01*
G01*
D02*
G03*
X150000Y896250I24193J-6300D01*
G01*
X480001D02*
G03*
X478732Y904113I-25000J0D01*
G01*
D02*
G03*
X455001Y921250I-23731J-7863D01*
G01*
X339001Y183634D02*
G03*
X291001Y183505I-24000J0D01*
G01*
X125000Y630714D02*
G03*
X125000Y680602I1673J24944D01*
G01*
X505001D02*
G03*
X505001Y630714I-1673J-24944D01*
G01*
X384301Y974948D02*
G03*
X360001Y980250I-69300J-259265D01*
G01*
X125000Y136112D02*
G03*
X215000Y125000I90000J358887D01*
G01*
X415001D02*
G03*
X505001Y136112I0J370000D01*
G01*
X270001Y980250D02*
G03*
X245700Y974948I45000J-264567D01*
G01*
X339001Y125000D02*
X415001D01*
X339001Y183634D02*
Y125000D01*
X215000D02*
X291001D01*
Y183505D02*
Y125000D01*
X245751Y974760D02*
Y921250D01*
X175000D02*
X245751D01*
X150000Y896250D02*
Y879644D01*
Y851250D01*
X125000D02*
X150000D01*
X125000D02*
Y680594D01*
X480001Y851250D02*
X505001D01*
X480001Y879132D02*
Y851250D01*
Y896250D02*
Y879132D01*
X384251Y921250D02*
X455001D01*
X384251Y974760D02*
Y921250D01*
X505001Y851250D02*
Y680594D01*
X125000Y630721D02*
Y573000D01*
X505001Y630721D02*
Y573000D01*
X125000D02*
X210000D01*
Y538200D01*
X163001D02*
X210000D01*
X163001D02*
Y476200D01*
X210000D01*
Y265000D01*
X125000D02*
X210000D01*
X420001D02*
X505001D01*
X420001Y476200D02*
Y265000D01*
Y476200D02*
X467001D01*
Y538200D02*
Y476200D01*
X420001Y538200D02*
X467001D01*
X420001Y573000D02*
Y538200D01*
Y573000D02*
X505001D01*
X270001Y980250D02*
X360001D01*
X505001Y265000D02*
Y136112D01*
X125000Y265000D02*
Y136112D01*
X630108Y921250D02*
G03*
X605915Y902550I0J-25000D01*
G01*
D02*
G03*
X605108Y896250I24193J-6300D01*
G01*
X935108D02*
G03*
X933839Y904113I-25000J0D01*
G01*
D02*
G03*
X910108Y921250I-23731J-7863D01*
G01*
X794108Y183634D02*
G03*
X746108Y183505I-24000J0D01*
G01*
X580107Y630714D02*
G03*
X580107Y680602I1673J24944D01*
G01*
X960109D02*
G03*
X960109Y630714I-1673J-24944D01*
G01*
X839408Y974948D02*
G03*
X815108Y980250I-69300J-259265D01*
G01*
X580108Y136112D02*
G03*
X670108Y125000I90000J358887D01*
G01*
X870108D02*
G03*
X960108Y136112I0J370000D01*
G01*
X725108Y980250D02*
G03*
X700808Y974948I45000J-264567D01*
G01*
X794108Y125000D02*
X870108D01*
X794108Y183634D02*
Y125000D01*
X670108D02*
X746108D01*
Y183505D02*
Y125000D01*
X700858Y974760D02*
Y921250D01*
X630108D02*
X700858D01*
X605108Y896250D02*
Y879644D01*
Y851250D01*
X580108D02*
X605108D01*
X580108D02*
Y680594D01*
X935108Y851250D02*
X960108D01*
X935108Y879132D02*
Y851250D01*
Y896250D02*
Y879132D01*
X839358Y921250D02*
X910108D01*
X839358Y974760D02*
Y921250D01*
X960108Y851250D02*
Y680594D01*
X580108Y630721D02*
Y573000D01*
X960108Y630721D02*
Y573000D01*
X580108D02*
X665108D01*
Y538200D01*
X618108D02*
X665108D01*
X618108D02*
Y476200D01*
X665108D01*
Y265000D01*
X580108D02*
X665108D01*
X875108D02*
X960108D01*
X875108Y476200D02*
Y265000D01*
Y476200D02*
X922108D01*
Y538200D02*
Y476200D01*
X875108Y538200D02*
X922108D01*
X875108Y573000D02*
Y538200D01*
Y573000D02*
X960108D01*
X725108Y980250D02*
X815108D01*
X960108Y265000D02*
Y136112D01*
X580108Y265000D02*
Y136112D01*
X1085216Y921250D02*
G03*
X1061022Y902550I0J-25000D01*
G01*
D02*
G03*
X1060215Y896250I24193J-6300D01*
G01*
X1390216D02*
G03*
X1388947Y904113I-25000J0D01*
G01*
D02*
G03*
X1365216Y921250I-23731J-7863D01*
G01*
X1249215Y183634D02*
G03*
X1201216Y183505I-24000J0D01*
G01*
X1035215Y630714D02*
G03*
X1035215Y680602I1673J24944D01*
G01*
X1415216D02*
G03*
X1415216Y630714I-1673J-24944D01*
G01*
X1294516Y974948D02*
G03*
X1270216Y980250I-69300J-259265D01*
G01*
X1035215Y136112D02*
G03*
X1125216Y125000I90000J358887D01*
G01*
X1325216D02*
G03*
X1415216Y136112I0J370000D01*
G01*
X1180216Y980250D02*
G03*
X1155915Y974948I45000J-264567D01*
G01*
X1249215Y125000D02*
X1325216D01*
X1249215Y183634D02*
Y125000D01*
X1125216D02*
X1201216D01*
Y183505D02*
Y125000D01*
X1155965Y974760D02*
Y921250D01*
X1085216D02*
X1155965D01*
X1060215Y896250D02*
Y879644D01*
Y851250D01*
X1035215D02*
X1060215D01*
X1035215D02*
Y680594D01*
X1390216Y851250D02*
X1415216D01*
X1390216Y879132D02*
Y851250D01*
Y896250D02*
Y879132D01*
X1294465Y921250D02*
X1365216D01*
X1294465Y974760D02*
Y921250D01*
X1415216Y851250D02*
Y680594D01*
X1035215Y630721D02*
Y573000D01*
X1415216Y630721D02*
Y573000D01*
X1035215D02*
X1120216D01*
Y538200D01*
X1073216D02*
X1120216D01*
X1073216D02*
Y476200D01*
X1120216D01*
Y265000D01*
X1035215D02*
X1120216D01*
X1330216D02*
X1415216D01*
X1330216Y476200D02*
Y265000D01*
Y476200D02*
X1377216D01*
Y538200D02*
Y476200D01*
X1330216Y538200D02*
X1377216D01*
X1330216Y573000D02*
Y538200D01*
Y573000D02*
X1415216D01*
X1180216Y980250D02*
X1270216D01*
X1415216Y265000D02*
Y136112D01*
X1035215Y265000D02*
Y136112D01*
X1540323Y921250D02*
G03*
X1516130Y902550I0J-25000D01*
G01*
D02*
G03*
X1515323Y896250I24193J-6300D01*
G01*
X1845323D02*
G03*
X1844055Y904113I-25000J0D01*
G01*
D02*
G03*
X1820323Y921250I-23731J-7863D01*
G01*
X1704323Y183634D02*
G03*
X1656323Y183505I-24000J0D01*
G01*
X1490322Y630714D02*
G03*
X1490322Y680602I1673J24944D01*
G01*
X1870324D02*
G03*
X1870324Y630714I-1673J-24944D01*
G01*
X1749623Y974948D02*
G03*
X1725323Y980250I-69300J-259265D01*
G01*
X1490323Y136112D02*
G03*
X1580323Y125000I90000J358887D01*
G01*
X1780323D02*
G03*
X1870323Y136112I0J370000D01*
G01*
X1635323Y980250D02*
G03*
X1611023Y974948I45000J-264567D01*
G01*
X1704323Y125000D02*
X1780323D01*
X1704323Y183634D02*
Y125000D01*
X1580323D02*
X1656323D01*
Y183505D02*
Y125000D01*
X1611073Y974760D02*
Y921250D01*
X1540323D02*
X1611073D01*
X1515323Y896250D02*
Y879644D01*
Y851250D01*
X1490323D02*
X1515323D01*
X1490323D02*
Y680594D01*
X1845323Y851250D02*
X1870323D01*
X1845323Y879132D02*
Y851250D01*
Y896250D02*
Y879132D01*
X1749573Y921250D02*
X1820323D01*
X1749573Y974760D02*
Y921250D01*
X1870323Y851250D02*
Y680594D01*
X1490323Y630721D02*
Y573000D01*
X1870323Y630721D02*
Y573000D01*
X1490323D02*
X1575323D01*
Y538200D01*
X1528323D02*
X1575323D01*
X1528323D02*
Y476200D01*
X1575323D01*
Y265000D01*
X1490323D02*
X1575323D01*
X1785323D02*
X1870323D01*
X1785323Y476200D02*
Y265000D01*
Y476200D02*
X1832323D01*
Y538200D02*
Y476200D01*
X1785323Y538200D02*
X1832323D01*
X1785323Y573000D02*
Y538200D01*
Y573000D02*
X1870323D01*
X1635323Y980250D02*
X1725323D01*
X1870323Y265000D02*
Y136112D01*
X1490323Y265000D02*
Y136112D01*
X435296Y1100722D02*
G03*
X406371Y1111250I-28925J-34472D01*
G01*
X504999Y1021250D02*
G03*
X488925Y1055722I-45000J0D01*
G01*
X141074Y1055722D02*
G03*
X125000Y1021250I28925J-34472D01*
G01*
X223629Y1111250D02*
G03*
X194703Y1100722I0J-45000D01*
G01*
X290000Y1085450D02*
X340000D01*
Y1125250D02*
Y1085450D01*
X345000Y1130250D02*
X340000Y1125250D01*
X345000Y1130250D02*
X385000D01*
Y1111250D01*
X406371D01*
X435296Y1100722D02*
X488925Y1055722D01*
X504999Y1021250D02*
Y1005250D01*
X125000D02*
X504999D01*
X125000Y1021250D02*
Y1005250D01*
X194703Y1100722D02*
X141074Y1055722D01*
X223629Y1111250D02*
X245000D01*
Y1130250D02*
Y1111250D01*
Y1130250D02*
X285000D01*
X290000Y1125250D01*
Y1085450D01*
X890295Y1100722D02*
G03*
X861370Y1111250I-28925J-34472D01*
G01*
X959998Y1021250D02*
G03*
X943924Y1055722I-45000J0D01*
G01*
X596074Y1055722D02*
G03*
X579999Y1021250I28925J-34472D01*
G01*
X678628Y1111250D02*
G03*
X649703Y1100722I0J-45000D01*
G01*
X744999Y1085450D02*
X794999D01*
Y1125250D02*
Y1085450D01*
X799999Y1130250D02*
X794999Y1125250D01*
X799999Y1130250D02*
X839999D01*
Y1111250D01*
X861370D01*
X890295Y1100722D02*
X943924Y1055722D01*
X959998Y1021250D02*
Y1005250D01*
X579999D02*
X959998D01*
X579999Y1021250D02*
Y1005250D01*
X649703Y1100722D02*
X596074Y1055722D01*
X678628Y1111250D02*
X699999D01*
Y1130250D02*
Y1111250D01*
Y1130250D02*
X739999D01*
X744999Y1125250D01*
Y1085450D01*
X1345294Y1100722D02*
G03*
X1316369Y1111250I-28925J-34472D01*
G01*
X1414998Y1021250D02*
G03*
X1398923Y1055722I-45000J0D01*
G01*
X1051073Y1055722D02*
G03*
X1034998Y1021250I28925J-34472D01*
G01*
X1133627Y1111250D02*
G03*
X1104702Y1100722I0J-45000D01*
G01*
X1199998Y1085450D02*
X1249998D01*
Y1125250D02*
Y1085450D01*
X1254998Y1130250D02*
X1249998Y1125250D01*
X1254998Y1130250D02*
X1294998D01*
Y1111250D01*
X1316369D01*
X1345294Y1100722D02*
X1398923Y1055722D01*
X1414998Y1021250D02*
Y1005250D01*
X1034998D02*
X1414998D01*
X1034998Y1021250D02*
Y1005250D01*
X1104702Y1100722D02*
X1051073Y1055722D01*
X1133627Y1111250D02*
X1154998D01*
Y1130250D02*
Y1111250D01*
Y1130250D02*
X1194998D01*
X1199998Y1125250D01*
Y1085450D01*
X1800293Y1100722D02*
G03*
X1771368Y1111250I-28925J-34472D01*
G01*
X1869997Y1021250D02*
G03*
X1853922Y1055722I-45000J0D01*
G01*
X1506072Y1055722D02*
G03*
X1489998Y1021250I28925J-34472D01*
G01*
X1588626Y1111250D02*
G03*
X1559701Y1100722I0J-45000D01*
G01*
X1654997Y1085450D02*
X1704997D01*
Y1125250D02*
Y1085450D01*
X1709997Y1130250D02*
X1704997Y1125250D01*
X1709997Y1130250D02*
X1749997D01*
Y1111250D01*
X1771368D01*
X1800293Y1100722D02*
X1853922Y1055722D01*
X1869997Y1021250D02*
Y1005250D01*
X1489998D02*
X1869997D01*
X1489998Y1021250D02*
Y1005250D01*
X1559701Y1100722D02*
X1506072Y1055722D01*
X1588626Y1111250D02*
X1609997D01*
Y1130250D02*
Y1111250D01*
Y1130250D02*
X1649997D01*
X1654997Y1125250D01*
Y1085450D01*
D155*
X242472Y987024D02*
G03*
X233250Y973828I3228J-12076D01*
G01*
X175000Y933750D02*
G03*
X138710Y905700I0J-37500D01*
G01*
D02*
G03*
X137500Y896250I36290J-9450D01*
G01*
X267904Y992573D02*
G03*
X242472Y987024I47096J-276890D01*
G01*
D02*
G03*
X233250Y973828I3228J-12076D01*
G01*
X270001Y992750D02*
G03*
X267904Y992573I0J-12500D01*
G01*
X362097D02*
G03*
X360001Y992750I-2096J-12323D01*
G01*
X125000Y863750D02*
G03*
X112500Y851250I0J-12500D01*
G01*
Y680711D02*
G03*
X112527Y679781I12500J-110D01*
G01*
D02*
G03*
X112527Y679778I12473J820D01*
G01*
D02*
G03*
X112527Y679774I12473J824D01*
G01*
X112500Y680711D02*
G03*
X112527Y679781I12500J-110D01*
G01*
X125000Y863750D02*
G03*
X112500Y851250I0J-12500D01*
G01*
X112527Y679781D02*
G03*
X112527Y679778I12474J813D01*
G01*
D02*
G03*
X112527Y679774I12474J816D01*
G01*
D02*
G03*
X125000Y668094I12473J820D01*
G01*
X112527Y631541D02*
G03*
X112527Y631537I12473J-827D01*
G01*
D02*
G03*
X112527Y631534I12473J-824D01*
G01*
D02*
G03*
X112500Y630604I12473J-820D01*
G01*
X126140Y643169D02*
G03*
X112527Y631541I-1139J-12448D01*
G01*
D02*
G03*
X112527Y631537I12473J-820D01*
G01*
D02*
G03*
X112527Y631534I12474J-816D01*
G01*
X112527Y679774D02*
G03*
X125000Y668094I12473J820D01*
G01*
X126140Y643169D02*
G03*
X112527Y631541I-1139J-12448D01*
G01*
X125000Y668094D02*
G03*
X126140Y668146I0J12500D01*
G01*
X125000Y668094D02*
G03*
X126140Y668146I0J12500D01*
G01*
X126673Y643158D02*
G03*
X126140Y668146I0J12500D01*
G01*
X387529Y987024D02*
G03*
X362097Y992573I-72528J-271341D01*
G01*
X396751Y973828D02*
G03*
X387529Y987024I-12450J1120D01*
G01*
X396751Y973828D02*
G03*
X387529Y987024I-12450J1120D01*
G01*
X490598Y908044D02*
G03*
X455001Y933750I-35597J-11794D01*
G01*
X492501Y896250D02*
G03*
X490598Y908044I-37500J0D01*
G01*
X492501Y896225D02*
G03*
X492501Y896250I-12500J25D01*
G01*
X492501Y896225D02*
G03*
X492501Y896250I-12500J25D01*
G01*
X503861Y668146D02*
G03*
X503328Y643158I-534J-12488D01*
G01*
X503861Y668146D02*
G03*
X505001Y668094I1139J12448D01*
G01*
X503328Y643158D02*
G03*
X503861Y643169I0J12500D01*
G01*
X505001Y643221D02*
G03*
X503861Y643169I0J-12500D01*
G01*
X517501Y851250D02*
G03*
X505001Y863750I-12500J0D01*
G01*
X503861Y668146D02*
G03*
X505001Y668094I1139J12448D01*
G01*
X517501Y851250D02*
G03*
X505001Y863750I-12500J0D01*
G01*
X505107Y668094D02*
G03*
X517501Y682225I0J12500D01*
G01*
X505054Y668094D02*
G03*
X505107Y668094I53J12500D01*
G01*
X505001D02*
G03*
X505054Y668094I0J12500D01*
G01*
Y643221D02*
G03*
X505001Y643221I-53J-12500D01*
G01*
D02*
G03*
X503861Y643169I0J-12500D01*
G01*
X517501Y629091D02*
G03*
X505107Y643221I-12393J1630D01*
G01*
D02*
G03*
X505054Y643221I0J-12500D01*
G01*
X505107Y668094D02*
G03*
X517501Y682225I0J12500D01*
G01*
Y629091D02*
G03*
X505107Y643221I-12393J1630D01*
G01*
X112527Y631534D02*
G03*
X112500Y630604I12473J-820D01*
G01*
X126140Y643169D02*
G03*
X126673Y643158I534J12488D01*
G01*
X112500Y573000D02*
G03*
X125000Y560500I12500J0D01*
G01*
X112500Y573000D02*
G03*
X125000Y560500I12500J0D01*
G01*
X163001Y550700D02*
G03*
X150500Y538200I0J-12500D01*
G01*
Y476200D02*
G03*
X163001Y463700I12500J0D01*
G01*
X150500Y476200D02*
G03*
X163001Y463700I12500J0D01*
G01*
Y550700D02*
G03*
X150500Y538200I0J-12500D01*
G01*
X125000Y277500D02*
G03*
X112500Y265000I0J-12500D01*
G01*
X125000Y277500D02*
G03*
X112500Y265000I0J-12500D01*
G01*
Y136112D02*
G03*
X121960Y123988I12500J0D01*
G01*
X112500Y136112D02*
G03*
X121960Y123988I12500J0D01*
G01*
D02*
G03*
X215000Y112499I93041J371012D01*
G01*
X303501Y183505D02*
G03*
X303501Y183590I-12500J0D01*
G01*
X291001Y112499D02*
G03*
X303501Y125000I0J12500D01*
G01*
X291001Y112499D02*
G03*
X303501Y125000I0J12500D01*
G01*
X505001Y560500D02*
G03*
X517501Y573000I0J12500D01*
G01*
X479501Y538200D02*
G03*
X467001Y550700I-12500J0D01*
G01*
X479501Y538200D02*
G03*
X467001Y550700I-12500J0D01*
G01*
X505001Y560500D02*
G03*
X517501Y573000I0J12500D01*
G01*
X467001Y463700D02*
G03*
X479501Y476200I0J12500D01*
G01*
X467001Y463700D02*
G03*
X479501Y476200I0J12500D01*
G01*
X326500Y183634D02*
G03*
X303501Y183590I-11500J0D01*
G01*
D02*
G03*
X303501Y183572I11500J44D01*
G01*
X303501Y183505D02*
G03*
X303501Y183572I-12500J0D01*
G01*
X326500Y125000D02*
G03*
X339001Y112499I12500J0D01*
G01*
X326500Y125000D02*
G03*
X339001Y112499I12500J0D01*
G01*
X517501Y265000D02*
G03*
X505001Y277500I-12500J0D01*
G01*
X517501Y265000D02*
G03*
X505001Y277500I-12500J0D01*
G01*
X415001Y112499D02*
G03*
X508041Y123988I0J382500D01*
G01*
D02*
G03*
X517501Y136112I-3041J12125D01*
G01*
X508041Y123988D02*
G03*
X517501Y136112I-3041J12125D01*
G01*
X504999Y992750D02*
G03*
X517499Y1005250I0J12500D01*
G01*
X504999Y992750D02*
G03*
X517499Y1005250I0J12500D01*
G01*
Y1021250D02*
G03*
X496959Y1065298I-57500J0D01*
G01*
X112499Y1005250D02*
G03*
X125000Y992750I12500J0D01*
G01*
X112499Y1005250D02*
G03*
X125000Y992750I12500J0D01*
G01*
X133039Y1065298D02*
G03*
X112499Y1021250I36960J-44048D01*
G01*
X443330Y1110298D02*
G03*
X406370Y1123750I-36960J-44048D01*
G01*
X397499Y1130250D02*
G03*
X384999Y1142750I-12500J0D01*
G01*
X397499Y1130250D02*
G03*
X384999Y1142750I-12500J0D01*
G01*
X344999D02*
G03*
X336160Y1139089I0J-12500D01*
G01*
X331160Y1134089D02*
G03*
X327499Y1125250I8839J-8839D01*
G01*
X331170Y1134098D02*
G03*
X327499Y1125250I8830J-8848D01*
G01*
X344999Y1142750D02*
G03*
X336150Y1139079I0J-12500D01*
G01*
X223653Y1123750D02*
G03*
X223628Y1123750I-25J-12500D01*
G01*
X186668Y1110298D02*
G03*
X186645Y1110279I8035J-9576D01*
G01*
X223628Y1123750D02*
G03*
X186668Y1110298I0J-57500D01*
G01*
D02*
G03*
X186645Y1110279I8035J-9576D01*
G01*
X302499Y1125250D02*
G03*
X298838Y1134089I-12500J0D01*
G01*
X302499Y1125250D02*
G03*
X298838Y1134089I-12500J0D01*
G01*
X293838Y1139089D02*
G03*
X284999Y1142750I-8839J-8839D01*
G01*
X293838Y1139089D02*
G03*
X284999Y1142750I-8839J-8839D01*
G01*
X223653Y1123750D02*
G03*
X223628Y1123750I-25J-12500D01*
G01*
X244999Y1142750D02*
G03*
X232499Y1130250I0J-12500D01*
G01*
X244999Y1142750D02*
G03*
X232499Y1130250I0J-12500D01*
G01*
X700107Y1142750D02*
G03*
X687606Y1130250I0J-12500D01*
G01*
X700107Y1142750D02*
G03*
X687606Y1130250I0J-12500D01*
G01*
X678761Y1123750D02*
G03*
X678736Y1123750I-25J-12500D01*
G01*
X748946Y1139089D02*
G03*
X740107Y1142750I-8839J-8839D01*
G01*
X748946Y1139089D02*
G03*
X740107Y1142750I-8839J-8839D01*
G01*
X757607Y1125250D02*
G03*
X753946Y1134089I-12500J0D01*
G01*
X757607Y1125250D02*
G03*
X753946Y1134089I-12500J0D01*
G01*
X641775Y1110298D02*
G03*
X641752Y1110279I8035J-9576D01*
G01*
X678736Y1123750D02*
G03*
X641775Y1110298I0J-57500D01*
G01*
D02*
G03*
X641752Y1110279I8035J-9576D01*
G01*
X678761Y1123750D02*
G03*
X678736Y1123750I-25J-12500D01*
G01*
X800107Y1142750D02*
G03*
X791258Y1139079I0J-12500D01*
G01*
X786277Y1134098D02*
G03*
X782606Y1125250I8830J-8848D01*
G01*
X786267Y1134089D02*
G03*
X782606Y1125250I8839J-8839D01*
G01*
X800107Y1142750D02*
G03*
X791267Y1139089I0J-12500D01*
G01*
X852607Y1130250D02*
G03*
X840106Y1142750I-12500J0D01*
G01*
X852607Y1130250D02*
G03*
X840106Y1142750I-12500J0D01*
G01*
X898438Y1110298D02*
G03*
X861477Y1123750I-36960J-44048D01*
G01*
X588146Y1065298D02*
G03*
X567607Y1021250I36960J-44048D01*
G01*
Y1005250D02*
G03*
X580107Y992750I12500J0D01*
G01*
X567607Y1005250D02*
G03*
X580107Y992750I12500J0D01*
G01*
X972606Y1021250D02*
G03*
X952067Y1065298I-57500J0D01*
G01*
X960106Y992750D02*
G03*
X972606Y1005250I0J12500D01*
G01*
X960106Y992750D02*
G03*
X972606Y1005250I0J12500D01*
G01*
X963149Y123988D02*
G03*
X972608Y136112I-3041J12125D01*
G01*
X963149Y123988D02*
G03*
X972608Y136112I-3041J12125D01*
G01*
X870108Y112499D02*
G03*
X963149Y123988I0J382500D01*
G01*
X972608Y265000D02*
G03*
X960108Y277500I-12500J0D01*
G01*
X972608Y265000D02*
G03*
X960108Y277500I-12500J0D01*
G01*
X781608Y125000D02*
G03*
X794108Y112499I12500J0D01*
G01*
X781608Y125000D02*
G03*
X794108Y112499I12500J0D01*
G01*
X758609Y183505D02*
G03*
X758608Y183572I-12500J0D01*
G01*
X758608Y183590D02*
G03*
X758608Y183572I11500J44D01*
G01*
X781608Y183634D02*
G03*
X758608Y183590I-11500J0D01*
G01*
X922108Y463700D02*
G03*
X934609Y476200I0J12500D01*
G01*
X922108Y463700D02*
G03*
X934609Y476200I0J12500D01*
G01*
X960108Y560500D02*
G03*
X972608Y573000I0J12500D01*
G01*
X934609Y538200D02*
G03*
X922108Y550700I-12500J0D01*
G01*
X934609Y538200D02*
G03*
X922108Y550700I-12500J0D01*
G01*
X960108Y560500D02*
G03*
X972608Y573000I0J12500D01*
G01*
X746108Y112499D02*
G03*
X758609Y125000I0J12500D01*
G01*
X746108Y112499D02*
G03*
X758609Y125000I0J12500D01*
G01*
Y183505D02*
G03*
X758608Y183590I-12500J0D01*
G01*
X577067Y123988D02*
G03*
X670108Y112499I93041J371012D01*
G01*
X567608Y136112D02*
G03*
X577067Y123988I12500J0D01*
G01*
X567608Y136112D02*
G03*
X577067Y123988I12500J0D01*
G01*
X580108Y277500D02*
G03*
X567608Y265000I0J-12500D01*
G01*
X580108Y277500D02*
G03*
X567608Y265000I0J-12500D01*
G01*
X618108Y550700D02*
G03*
X605608Y538200I0J-12500D01*
G01*
Y476200D02*
G03*
X618108Y463700I12500J0D01*
G01*
X605608Y476200D02*
G03*
X618108Y463700I12500J0D01*
G01*
Y550700D02*
G03*
X605608Y538200I0J-12500D01*
G01*
X567608Y573000D02*
G03*
X580108Y560500I12500J0D01*
G01*
X567608Y573000D02*
G03*
X580108Y560500I12500J0D01*
G01*
X581247Y643169D02*
G03*
X581781Y643158I534J12488D01*
G01*
X567634Y631534D02*
G03*
X567608Y630604I12473J-820D01*
G01*
X972608Y629091D02*
G03*
X960215Y643221I-12393J1630D01*
G01*
Y668094D02*
G03*
X972608Y682225I0J12500D01*
G01*
X960215Y643221D02*
G03*
X960162Y643221I0J-12500D01*
G01*
X972608Y629091D02*
G03*
X960215Y643221I-12393J1630D01*
G01*
X960108D02*
G03*
X958969Y643169I0J-12500D01*
G01*
X960162Y643221D02*
G03*
X960108Y643221I-53J-12500D01*
G01*
Y668094D02*
G03*
X960162Y668094I0J12500D01*
G01*
D02*
G03*
X960215Y668094I53J12500D01*
G01*
D02*
G03*
X972608Y682225I0J12500D01*
G01*
Y851250D02*
G03*
X960108Y863750I-12500J0D01*
G01*
X958969Y668146D02*
G03*
X960108Y668094I1139J12448D01*
G01*
X972608Y851250D02*
G03*
X960108Y863750I-12500J0D01*
G01*
Y643221D02*
G03*
X958969Y643169I0J-12500D01*
G01*
X958435Y643158D02*
G03*
X958969Y643169I0J12500D01*
G01*
Y668146D02*
G03*
X960108Y668094I1139J12448D01*
G01*
X958969Y668146D02*
G03*
X958435Y643158I-534J-12488D01*
G01*
X947608Y896225D02*
G03*
X947608Y896250I-12500J25D01*
G01*
X947608Y896225D02*
G03*
X947608Y896250I-12500J25D01*
G01*
D02*
G03*
X945705Y908044I-37500J0D01*
G01*
D02*
G03*
X910108Y933750I-35597J-11794D01*
G01*
X851858Y973828D02*
G03*
X842636Y987024I-12450J1120D01*
G01*
X851858Y973828D02*
G03*
X842636Y987024I-12450J1120D01*
G01*
D02*
G03*
X817204Y992573I-72528J-271341D01*
G01*
X581781Y643158D02*
G03*
X581247Y668146I0J12500D01*
G01*
X580108Y668094D02*
G03*
X581247Y668146I0J12500D01*
G01*
X580108Y668094D02*
G03*
X581247Y668146I0J12500D01*
G01*
Y643169D02*
G03*
X567635Y631541I-1139J-12448D01*
G01*
Y679774D02*
G03*
X580108Y668094I12473J820D01*
G01*
X567634Y631537D02*
G03*
X567634Y631534I12474J-816D01*
G01*
X567635Y631541D02*
G03*
X567634Y631537I12473J-820D01*
G01*
X581247Y643169D02*
G03*
X567635Y631541I-1139J-12448D01*
G01*
X567634Y631534D02*
G03*
X567608Y630604I12473J-820D01*
G01*
X567634Y631537D02*
G03*
X567634Y631534I12473J-824D01*
G01*
X567635Y631541D02*
G03*
X567634Y631537I12473J-827D01*
G01*
X567635Y679774D02*
G03*
X580108Y668094I12473J820D01*
G01*
X567634Y679778D02*
G03*
X567635Y679774I12474J816D01*
G01*
X567634Y679781D02*
G03*
X567634Y679778I12474J813D01*
G01*
X580108Y863750D02*
G03*
X567608Y851250I0J-12500D01*
G01*
Y680711D02*
G03*
X567634Y679781I12500J-110D01*
G01*
X567634Y679778D02*
G03*
X567635Y679774I12473J824D01*
G01*
X567634Y679781D02*
G03*
X567634Y679778I12473J820D01*
G01*
X567608Y680711D02*
G03*
X567634Y679781I12500J-110D01*
G01*
X580108Y863750D02*
G03*
X567608Y851250I0J-12500D01*
G01*
X817204Y992573D02*
G03*
X815108Y992750I-2096J-12323D01*
G01*
X725108D02*
G03*
X723012Y992573I0J-12500D01*
G01*
X697580Y987024D02*
G03*
X688358Y973828I3228J-12076D01*
G01*
X723012Y992573D02*
G03*
X697580Y987024I47096J-276890D01*
G01*
X593818Y905700D02*
G03*
X592608Y896250I36290J-9450D01*
G01*
X630108Y933750D02*
G03*
X593818Y905700I0J-37500D01*
G01*
X697580Y987024D02*
G03*
X688358Y973828I3228J-12076D01*
G01*
X1152687Y987024D02*
G03*
X1143465Y973828I3228J-12076D01*
G01*
X1085216Y933750D02*
G03*
X1048925Y905700I0J-37500D01*
G01*
D02*
G03*
X1047715Y896250I36290J-9450D01*
G01*
X1178120Y992573D02*
G03*
X1152687Y987024I47096J-276890D01*
G01*
D02*
G03*
X1143465Y973828I3228J-12076D01*
G01*
X1180216Y992750D02*
G03*
X1178119Y992573I0J-12500D01*
G01*
X1272312D02*
G03*
X1270216Y992750I-2096J-12323D01*
G01*
X1035215Y863750D02*
G03*
X1022715Y851250I0J-12500D01*
G01*
Y680711D02*
G03*
X1022742Y679781I12500J-110D01*
G01*
D02*
G03*
X1022742Y679778I12473J820D01*
G01*
D02*
G03*
X1022742Y679774I12473J824D01*
G01*
X1022715Y680711D02*
G03*
X1022742Y679781I12500J-110D01*
G01*
X1035215Y863750D02*
G03*
X1022715Y851250I0J-12500D01*
G01*
X1022742Y679781D02*
G03*
X1022742Y679778I12474J813D01*
G01*
D02*
G03*
X1022742Y679774I12474J816D01*
G01*
D02*
G03*
X1035215Y668094I12473J820D01*
G01*
X1022742Y631541D02*
G03*
X1022742Y631537I12473J-827D01*
G01*
D02*
G03*
X1022742Y631534I12473J-824D01*
G01*
D02*
G03*
X1022715Y630604I12473J-820D01*
G01*
X1036355Y643169D02*
G03*
X1022742Y631541I-1139J-12448D01*
G01*
D02*
G03*
X1022742Y631537I12473J-820D01*
G01*
D02*
G03*
X1022742Y631534I12474J-816D01*
G01*
X1022742Y679774D02*
G03*
X1035215Y668094I12473J820D01*
G01*
X1036355Y643169D02*
G03*
X1022742Y631541I-1139J-12448D01*
G01*
X1035215Y668094D02*
G03*
X1036355Y668146I0J12500D01*
G01*
X1035215Y668094D02*
G03*
X1036355Y668146I0J12500D01*
G01*
X1036889Y643158D02*
G03*
X1036355Y668146I0J12500D01*
G01*
X1297744Y987024D02*
G03*
X1272312Y992573I-72528J-271341D01*
G01*
X1306966Y973828D02*
G03*
X1297744Y987024I-12450J1120D01*
G01*
X1306966Y973828D02*
G03*
X1297744Y987024I-12450J1120D01*
G01*
X1400813Y908044D02*
G03*
X1365216Y933750I-35597J-11794D01*
G01*
X1402716Y896250D02*
G03*
X1400813Y908044I-37500J0D01*
G01*
X1402716Y896225D02*
G03*
X1402716Y896250I-12500J25D01*
G01*
X1402716Y896225D02*
G03*
X1402716Y896250I-12500J25D01*
G01*
X1414076Y668146D02*
G03*
X1413543Y643158I-534J-12488D01*
G01*
X1414076Y668146D02*
G03*
X1415216Y668094I1139J12448D01*
G01*
X1413543Y643158D02*
G03*
X1414076Y643169I0J12500D01*
G01*
X1415216Y643221D02*
G03*
X1414076Y643169I0J-12500D01*
G01*
X1427716Y851250D02*
G03*
X1415216Y863750I-12500J0D01*
G01*
X1414076Y668146D02*
G03*
X1415216Y668094I1139J12448D01*
G01*
X1427716Y851250D02*
G03*
X1415216Y863750I-12500J0D01*
G01*
X1415322Y668094D02*
G03*
X1427716Y682225I0J12500D01*
G01*
X1415269Y668094D02*
G03*
X1415322Y668094I53J12500D01*
G01*
X1415216D02*
G03*
X1415269Y668094I0J12500D01*
G01*
Y643221D02*
G03*
X1415216Y643221I-53J-12500D01*
G01*
D02*
G03*
X1414076Y643169I0J-12500D01*
G01*
X1427716Y629091D02*
G03*
X1415322Y643221I-12393J1630D01*
G01*
D02*
G03*
X1415269Y643221I0J-12500D01*
G01*
X1415322Y668094D02*
G03*
X1427716Y682225I0J12500D01*
G01*
Y629091D02*
G03*
X1415322Y643221I-12393J1630D01*
G01*
X1022742Y631534D02*
G03*
X1022715Y630604I12473J-820D01*
G01*
X1036355Y643169D02*
G03*
X1036889Y643158I534J12488D01*
G01*
X1022715Y573000D02*
G03*
X1035215Y560500I12500J0D01*
G01*
X1022715Y573000D02*
G03*
X1035215Y560500I12500J0D01*
G01*
X1073216Y550700D02*
G03*
X1060715Y538200I0J-12500D01*
G01*
Y476200D02*
G03*
X1073216Y463700I12500J0D01*
G01*
X1060715Y476200D02*
G03*
X1073216Y463700I12500J0D01*
G01*
Y550700D02*
G03*
X1060715Y538200I0J-12500D01*
G01*
X1035215Y277500D02*
G03*
X1022715Y265000I0J-12500D01*
G01*
X1035215Y277500D02*
G03*
X1022715Y265000I0J-12500D01*
G01*
Y136112D02*
G03*
X1032175Y123988I12500J0D01*
G01*
X1022715Y136112D02*
G03*
X1032175Y123988I12500J0D01*
G01*
D02*
G03*
X1125216Y112499I93041J371012D01*
G01*
X1213716Y183505D02*
G03*
X1213716Y183590I-12500J0D01*
G01*
X1201216Y112499D02*
G03*
X1213716Y125000I0J12500D01*
G01*
X1201216Y112499D02*
G03*
X1213716Y125000I0J12500D01*
G01*
X1415216Y560500D02*
G03*
X1427716Y573000I0J12500D01*
G01*
X1389716Y538200D02*
G03*
X1377216Y550700I-12500J0D01*
G01*
X1389716Y538200D02*
G03*
X1377216Y550700I-12500J0D01*
G01*
X1415216Y560500D02*
G03*
X1427716Y573000I0J12500D01*
G01*
X1377216Y463700D02*
G03*
X1389716Y476200I0J12500D01*
G01*
X1377216Y463700D02*
G03*
X1389716Y476200I0J12500D01*
G01*
X1236715Y183634D02*
G03*
X1213716Y183590I-11500J0D01*
G01*
D02*
G03*
X1213716Y183572I11500J44D01*
G01*
X1213716Y183505D02*
G03*
X1213716Y183572I-12500J0D01*
G01*
X1236715Y125000D02*
G03*
X1249215Y112499I12500J0D01*
G01*
X1236715Y125000D02*
G03*
X1249215Y112499I12500J0D01*
G01*
X1427716Y265000D02*
G03*
X1415216Y277500I-12500J0D01*
G01*
X1427716Y265000D02*
G03*
X1415216Y277500I-12500J0D01*
G01*
X1325216Y112499D02*
G03*
X1418256Y123988I0J382500D01*
G01*
D02*
G03*
X1427716Y136112I-3041J12125D01*
G01*
X1418256Y123988D02*
G03*
X1427716Y136112I-3041J12125D01*
G01*
X1415214Y992750D02*
G03*
X1427714Y1005250I0J12500D01*
G01*
X1415214Y992750D02*
G03*
X1427714Y1005250I0J12500D01*
G01*
Y1021250D02*
G03*
X1407174Y1065298I-57500J0D01*
G01*
X1022714Y1005250D02*
G03*
X1035214Y992750I12500J0D01*
G01*
X1022714Y1005250D02*
G03*
X1035214Y992750I12500J0D01*
G01*
X1043254Y1065298D02*
G03*
X1022714Y1021250I36960J-44048D01*
G01*
X1353545Y1110298D02*
G03*
X1316585Y1123750I-36960J-44048D01*
G01*
X1307714Y1130250D02*
G03*
X1295214Y1142750I-12500J0D01*
G01*
X1307714Y1130250D02*
G03*
X1295214Y1142750I-12500J0D01*
G01*
X1255214D02*
G03*
X1246375Y1139089I0J-12500D01*
G01*
X1241375Y1134089D02*
G03*
X1237714Y1125250I8839J-8839D01*
G01*
X1241385Y1134098D02*
G03*
X1237714Y1125250I8830J-8848D01*
G01*
X1255214Y1142750D02*
G03*
X1246365Y1139079I0J-12500D01*
G01*
X1133868Y1123750D02*
G03*
X1133843Y1123750I-25J-12500D01*
G01*
X1096883Y1110298D02*
G03*
X1096860Y1110279I8035J-9576D01*
G01*
X1133843Y1123750D02*
G03*
X1096883Y1110298I0J-57500D01*
G01*
D02*
G03*
X1096860Y1110279I8035J-9576D01*
G01*
X1212714Y1125250D02*
G03*
X1209053Y1134089I-12500J0D01*
G01*
X1212714Y1125250D02*
G03*
X1209053Y1134089I-12500J0D01*
G01*
X1204053Y1139089D02*
G03*
X1195214Y1142750I-8839J-8839D01*
G01*
X1204053Y1139089D02*
G03*
X1195214Y1142750I-8839J-8839D01*
G01*
X1133868Y1123750D02*
G03*
X1133843Y1123750I-25J-12500D01*
G01*
X1155214Y1142750D02*
G03*
X1142714Y1130250I0J-12500D01*
G01*
X1155214Y1142750D02*
G03*
X1142714Y1130250I0J-12500D01*
G01*
X1610322Y1142750D02*
G03*
X1597821Y1130250I0J-12500D01*
G01*
X1610322Y1142750D02*
G03*
X1597821Y1130250I0J-12500D01*
G01*
X1588976Y1123750D02*
G03*
X1588951Y1123750I-25J-12500D01*
G01*
X1659161Y1139089D02*
G03*
X1650322Y1142750I-8839J-8839D01*
G01*
X1659161Y1139089D02*
G03*
X1650322Y1142750I-8839J-8839D01*
G01*
X1667822Y1125250D02*
G03*
X1664161Y1134089I-12500J0D01*
G01*
X1667822Y1125250D02*
G03*
X1664161Y1134089I-12500J0D01*
G01*
X1551990Y1110298D02*
G03*
X1551967Y1110279I8035J-9576D01*
G01*
X1588951Y1123750D02*
G03*
X1551990Y1110298I0J-57500D01*
G01*
D02*
G03*
X1551967Y1110279I8035J-9576D01*
G01*
X1588976Y1123750D02*
G03*
X1588951Y1123750I-25J-12500D01*
G01*
X1710321Y1142750D02*
G03*
X1701473Y1139079I0J-12500D01*
G01*
X1696492Y1134098D02*
G03*
X1692821Y1125250I8830J-8848D01*
G01*
X1696482Y1134089D02*
G03*
X1692821Y1125250I8839J-8839D01*
G01*
X1710321Y1142750D02*
G03*
X1701482Y1139089I0J-12500D01*
G01*
X1762822Y1130250D02*
G03*
X1750321Y1142750I-12500J0D01*
G01*
X1762822Y1130250D02*
G03*
X1750321Y1142750I-12500J0D01*
G01*
X1808653Y1110298D02*
G03*
X1771692Y1123750I-36960J-44048D01*
G01*
X1498361Y1065298D02*
G03*
X1477822Y1021250I36960J-44048D01*
G01*
Y1005250D02*
G03*
X1490322Y992750I12500J0D01*
G01*
X1477822Y1005250D02*
G03*
X1490322Y992750I12500J0D01*
G01*
X1882821Y1021250D02*
G03*
X1862282Y1065298I-57500J0D01*
G01*
X1870321Y992750D02*
G03*
X1882821Y1005250I0J12500D01*
G01*
X1870321Y992750D02*
G03*
X1882821Y1005250I0J12500D01*
G01*
X1873364Y123988D02*
G03*
X1882823Y136112I-3041J12125D01*
G01*
X1873364Y123988D02*
G03*
X1882823Y136112I-3041J12125D01*
G01*
X1780323Y112499D02*
G03*
X1873364Y123988I0J382500D01*
G01*
X1882823Y265000D02*
G03*
X1870323Y277500I-12500J0D01*
G01*
X1882823Y265000D02*
G03*
X1870323Y277500I-12500J0D01*
G01*
X1691823Y125000D02*
G03*
X1704323Y112499I12500J0D01*
G01*
X1691823Y125000D02*
G03*
X1704323Y112499I12500J0D01*
G01*
X1668824Y183505D02*
G03*
X1668823Y183572I-12500J0D01*
G01*
X1668823Y183590D02*
G03*
X1668823Y183572I11500J44D01*
G01*
X1691823Y183634D02*
G03*
X1668823Y183590I-11500J0D01*
G01*
X1832323Y463700D02*
G03*
X1844823Y476200I0J12500D01*
G01*
X1832323Y463700D02*
G03*
X1844823Y476200I0J12500D01*
G01*
X1870323Y560500D02*
G03*
X1882823Y573000I0J12500D01*
G01*
X1844823Y538200D02*
G03*
X1832323Y550700I-12500J0D01*
G01*
X1844823Y538200D02*
G03*
X1832323Y550700I-12500J0D01*
G01*
X1870323Y560500D02*
G03*
X1882823Y573000I0J12500D01*
G01*
X1656323Y112499D02*
G03*
X1668824Y125000I0J12500D01*
G01*
X1656323Y112499D02*
G03*
X1668824Y125000I0J12500D01*
G01*
Y183505D02*
G03*
X1668823Y183590I-12500J0D01*
G01*
X1487282Y123988D02*
G03*
X1580323Y112499I93041J371012D01*
G01*
X1477823Y136112D02*
G03*
X1487282Y123988I12500J0D01*
G01*
X1477823Y136112D02*
G03*
X1487282Y123988I12500J0D01*
G01*
X1490323Y277500D02*
G03*
X1477823Y265000I0J-12500D01*
G01*
X1490323Y277500D02*
G03*
X1477823Y265000I0J-12500D01*
G01*
X1528323Y550700D02*
G03*
X1515823Y538200I0J-12500D01*
G01*
Y476200D02*
G03*
X1528323Y463700I12500J0D01*
G01*
X1515823Y476200D02*
G03*
X1528323Y463700I12500J0D01*
G01*
Y550700D02*
G03*
X1515823Y538200I0J-12500D01*
G01*
X1477823Y573000D02*
G03*
X1490323Y560500I12500J0D01*
G01*
X1477823Y573000D02*
G03*
X1490323Y560500I12500J0D01*
G01*
X1491462Y643169D02*
G03*
X1491996Y643158I534J12488D01*
G01*
X1477849Y631534D02*
G03*
X1477823Y630604I12473J-820D01*
G01*
X1882823Y629091D02*
G03*
X1870430Y643221I-12393J1630D01*
G01*
Y668094D02*
G03*
X1882823Y682225I0J12500D01*
G01*
X1870430Y643221D02*
G03*
X1870376Y643221I0J-12500D01*
G01*
X1882823Y629091D02*
G03*
X1870430Y643221I-12393J1630D01*
G01*
X1870323D02*
G03*
X1869184Y643169I0J-12500D01*
G01*
X1870376Y643221D02*
G03*
X1870323Y643221I-53J-12500D01*
G01*
Y668094D02*
G03*
X1870376Y668094I0J12500D01*
G01*
D02*
G03*
X1870430Y668094I53J12500D01*
G01*
D02*
G03*
X1882823Y682225I0J12500D01*
G01*
Y851250D02*
G03*
X1870323Y863750I-12500J0D01*
G01*
X1869184Y668146D02*
G03*
X1870323Y668094I1139J12448D01*
G01*
X1882823Y851250D02*
G03*
X1870323Y863750I-12500J0D01*
G01*
Y643221D02*
G03*
X1869184Y643169I0J-12500D01*
G01*
X1868650Y643158D02*
G03*
X1869184Y643169I0J12500D01*
G01*
Y668146D02*
G03*
X1870323Y668094I1139J12448D01*
G01*
X1869184Y668146D02*
G03*
X1868650Y643158I-534J-12488D01*
G01*
X1857823Y896225D02*
G03*
X1857823Y896250I-12500J25D01*
G01*
X1857823Y896225D02*
G03*
X1857823Y896250I-12500J25D01*
G01*
D02*
G03*
X1855920Y908044I-37500J0D01*
G01*
D02*
G03*
X1820323Y933750I-35597J-11794D01*
G01*
X1762073Y973828D02*
G03*
X1752851Y987024I-12450J1120D01*
G01*
X1762073Y973828D02*
G03*
X1752851Y987024I-12450J1120D01*
G01*
D02*
G03*
X1727419Y992573I-72528J-271341D01*
G01*
X1491996Y643158D02*
G03*
X1491462Y668146I0J12500D01*
G01*
X1490323Y668094D02*
G03*
X1491462Y668146I0J12500D01*
G01*
X1490323Y668094D02*
G03*
X1491462Y668146I0J12500D01*
G01*
Y643169D02*
G03*
X1477850Y631541I-1139J-12448D01*
G01*
Y679774D02*
G03*
X1490323Y668094I12473J820D01*
G01*
X1477849Y631537D02*
G03*
X1477849Y631534I12474J-816D01*
G01*
X1477850Y631541D02*
G03*
X1477849Y631537I12473J-820D01*
G01*
X1491462Y643169D02*
G03*
X1477850Y631541I-1139J-12448D01*
G01*
X1477849Y631534D02*
G03*
X1477823Y630604I12473J-820D01*
G01*
X1477849Y631537D02*
G03*
X1477849Y631534I12473J-824D01*
G01*
X1477850Y631541D02*
G03*
X1477849Y631537I12473J-827D01*
G01*
X1477850Y679774D02*
G03*
X1490323Y668094I12473J820D01*
G01*
X1477849Y679778D02*
G03*
X1477850Y679774I12474J816D01*
G01*
X1477849Y679781D02*
G03*
X1477849Y679778I12474J813D01*
G01*
X1490323Y863750D02*
G03*
X1477823Y851250I0J-12500D01*
G01*
Y680711D02*
G03*
X1477849Y679781I12500J-110D01*
G01*
X1477849Y679778D02*
G03*
X1477850Y679774I12473J824D01*
G01*
X1477849Y679781D02*
G03*
X1477849Y679778I12473J820D01*
G01*
X1477823Y680711D02*
G03*
X1477849Y679781I12500J-110D01*
G01*
X1490323Y863750D02*
G03*
X1477823Y851250I0J-12500D01*
G01*
X1727419Y992573D02*
G03*
X1725323Y992750I-2096J-12323D01*
G01*
X1635323D02*
G03*
X1633227Y992573I0J-12500D01*
G01*
X1607795Y987024D02*
G03*
X1598573Y973828I3228J-12076D01*
G01*
X1633227Y992573D02*
G03*
X1607795Y987024I47096J-276890D01*
G01*
X1504033Y905700D02*
G03*
X1502823Y896250I36290J-9450D01*
G01*
X1540323Y933750D02*
G03*
X1504033Y905700I0J-37500D01*
G01*
X1607795Y987024D02*
G03*
X1598573Y973828I3228J-12076D01*
G01*
X233250Y933750D02*
Y973828D01*
X175000Y933750D02*
X233250D01*
X270001Y992750D02*
X360001D01*
X137500Y863750D02*
Y896250D01*
X112500Y680711D02*
Y851250D01*
X112527Y679781D02*
X112527Y679774D01*
X125000Y863750D02*
X137500D01*
X396751Y933750D02*
Y973828D01*
Y933750D02*
X455001D01*
X492501Y896225D02*
Y896250D01*
Y863750D02*
Y896225D01*
Y863750D02*
X505001D01*
X517501Y682225D02*
Y851250D01*
X505001Y668094D02*
X505107D01*
X505001Y643221D02*
X505107D01*
X112527Y631534D02*
X112527Y631541D01*
X112500Y573000D02*
Y630604D01*
X150500Y476200D02*
Y538200D01*
X125000Y560500D02*
X197500D01*
Y550700D02*
Y560500D01*
X163001Y550700D02*
X197500D01*
X125000Y277500D02*
X197500D01*
X163001Y463700D02*
X197500D01*
Y277500D02*
Y463700D01*
X112500Y136112D02*
Y265000D01*
X215000Y112499D02*
X291001D01*
X432501Y550700D02*
Y560500D01*
Y550700D02*
X467001D01*
X432501Y463700D02*
X467001D01*
X517501Y573000D02*
Y629091D01*
X432501Y560500D02*
X505001D01*
X432501Y277500D02*
X505001D01*
X479501Y476200D02*
Y538200D01*
X326500Y125000D02*
Y183634D01*
X303501Y125000D02*
Y183505D01*
X339001Y112499D02*
X415001D01*
X432501Y277500D02*
Y463700D01*
X517501Y136112D02*
Y265000D01*
X517499Y1005250D02*
Y1021250D01*
X443330Y1110298D02*
X496959Y1065298D01*
X302499Y1097950D02*
X327499D01*
X125000Y992750D02*
X504999D01*
X112499Y1005250D02*
Y1021250D01*
X186645Y1110279D02*
X186668Y1110298D01*
X133039Y1065298D02*
X186645Y1110279D01*
X397499Y1123750D02*
Y1130250D01*
X302499Y1097950D02*
Y1125250D01*
X327499Y1097950D02*
Y1125250D01*
X397499Y1123750D02*
X406370D01*
X344999Y1142750D02*
X384999D01*
X331160Y1134089D02*
X331170Y1134098D01*
X336150Y1139079D01*
X336160Y1139089D01*
X293838Y1139089D02*
X298838Y1134089D01*
X244999Y1142750D02*
X284999D01*
X223653Y1123750D02*
X232499D01*
X223628D02*
X223653D01*
X232499D02*
Y1130250D01*
X687606Y1123750D02*
Y1130250D01*
X678736Y1123750D02*
X678761D01*
X687606D01*
X700107Y1142750D02*
X740107D01*
X748946Y1139089D02*
X753946Y1134089D01*
X791258Y1139079D02*
X791267Y1139089D01*
X786277Y1134098D02*
X791258Y1139079D01*
X786267Y1134089D02*
X786277Y1134098D01*
X800107Y1142750D02*
X840106D01*
X852607Y1123750D02*
X861477D01*
X782606Y1097950D02*
Y1125250D01*
X757607Y1097950D02*
Y1125250D01*
X852607Y1123750D02*
Y1130250D01*
X588146Y1065298D02*
X641752Y1110279D01*
X641775Y1110298D01*
X567607Y1005250D02*
Y1021250D01*
X580107Y992750D02*
X960106D01*
X757607Y1097950D02*
X782606D01*
X898438Y1110298D02*
X952067Y1065298D01*
X972606Y1005250D02*
Y1021250D01*
X972608Y136112D02*
Y265000D01*
X887608Y277500D02*
Y463700D01*
X794108Y112499D02*
X870108D01*
X758609Y125000D02*
Y183505D01*
X781608Y125000D02*
Y183634D01*
X934609Y476200D02*
Y538200D01*
X887608Y277500D02*
X960108D01*
X887608Y560500D02*
X960108D01*
X972608Y573000D02*
Y629091D01*
X887608Y463700D02*
X922108D01*
X887608Y550700D02*
X922108D01*
X887608D02*
Y560500D01*
X670108Y112499D02*
X746108D01*
X567608Y136112D02*
Y265000D01*
X652608Y277500D02*
Y463700D01*
X618108D02*
X652608D01*
X580108Y277500D02*
X652608D01*
X618108Y550700D02*
X652608D01*
Y560500D01*
X580108D02*
X652608D01*
X605608Y476200D02*
Y538200D01*
X567608Y573000D02*
Y630604D01*
X567634Y631534D02*
X567635Y631541D01*
X960108Y643221D02*
X960215D01*
X960108Y668094D02*
X960215D01*
X972608Y682225D02*
Y851250D01*
X947608Y863750D02*
X960108D01*
X947608D02*
Y896225D01*
Y896250D01*
X851858Y933750D02*
X910108D01*
X851858D02*
Y973828D01*
X580108Y863750D02*
X592608D01*
X567634Y679781D02*
X567635Y679774D01*
X567608Y680711D02*
Y851250D01*
X592608Y863750D02*
Y896250D01*
X725108Y992750D02*
X815108D01*
X630108Y933750D02*
X688358D01*
Y973828D01*
X1143465Y933750D02*
Y973828D01*
X1085216Y933750D02*
X1143465D01*
X1180216Y992750D02*
X1270216D01*
X1047715Y863750D02*
Y896250D01*
X1022715Y680711D02*
Y851250D01*
X1022742Y679781D02*
X1022742Y679774D01*
X1035215Y863750D02*
X1047715D01*
X1306966Y933750D02*
Y973828D01*
Y933750D02*
X1365216D01*
X1402716Y896225D02*
Y896250D01*
Y863750D02*
Y896225D01*
Y863750D02*
X1415216D01*
X1427716Y682225D02*
Y851250D01*
X1415216Y668094D02*
X1415322D01*
X1415216Y643221D02*
X1415322D01*
X1022742Y631534D02*
X1022742Y631541D01*
X1022715Y573000D02*
Y630604D01*
X1060715Y476200D02*
Y538200D01*
X1035215Y560500D02*
X1107715D01*
Y550700D02*
Y560500D01*
X1073216Y550700D02*
X1107715D01*
X1035215Y277500D02*
X1107715D01*
X1073216Y463700D02*
X1107715D01*
Y277500D02*
Y463700D01*
X1022715Y136112D02*
Y265000D01*
X1125216Y112499D02*
X1201216D01*
X1342716Y550700D02*
Y560500D01*
Y550700D02*
X1377216D01*
X1342716Y463700D02*
X1377216D01*
X1427716Y573000D02*
Y629091D01*
X1342716Y560500D02*
X1415216D01*
X1342716Y277500D02*
X1415216D01*
X1389716Y476200D02*
Y538200D01*
X1236715Y125000D02*
Y183634D01*
X1213716Y125000D02*
Y183505D01*
X1249215Y112499D02*
X1325216D01*
X1342716Y277500D02*
Y463700D01*
X1427716Y136112D02*
Y265000D01*
X1427714Y1005250D02*
Y1021250D01*
X1353545Y1110298D02*
X1407174Y1065298D01*
X1212714Y1097950D02*
X1237714D01*
X1035214Y992750D02*
X1415214D01*
X1022714Y1005250D02*
Y1021250D01*
X1096860Y1110279D02*
X1096883Y1110298D01*
X1043254Y1065298D02*
X1096860Y1110279D01*
X1307714Y1123750D02*
Y1130250D01*
X1212714Y1097950D02*
Y1125250D01*
X1237714Y1097950D02*
Y1125250D01*
X1307714Y1123750D02*
X1316585D01*
X1255214Y1142750D02*
X1295214D01*
X1241375Y1134089D02*
X1241385Y1134098D01*
X1246365Y1139079D01*
X1246375Y1139089D01*
X1204053Y1139089D02*
X1209053Y1134089D01*
X1155214Y1142750D02*
X1195214D01*
X1133868Y1123750D02*
X1142714D01*
X1133843D02*
X1133868D01*
X1142714D02*
Y1130250D01*
X1597821Y1123750D02*
Y1130250D01*
X1588951Y1123750D02*
X1588976D01*
X1597821D01*
X1610322Y1142750D02*
X1650322D01*
X1659161Y1139089D02*
X1664161Y1134089D01*
X1701473Y1139079D02*
X1701482Y1139089D01*
X1696492Y1134098D02*
X1701473Y1139079D01*
X1696482Y1134089D02*
X1696492Y1134098D01*
X1710321Y1142750D02*
X1750321D01*
X1762822Y1123750D02*
X1771692D01*
X1692821Y1097950D02*
Y1125250D01*
X1667822Y1097950D02*
Y1125250D01*
X1762822Y1123750D02*
Y1130250D01*
X1498361Y1065298D02*
X1551967Y1110279D01*
X1551990Y1110298D01*
X1477822Y1005250D02*
Y1021250D01*
X1490322Y992750D02*
X1870321D01*
X1667822Y1097950D02*
X1692821D01*
X1808653Y1110298D02*
X1862282Y1065298D01*
X1882821Y1005250D02*
Y1021250D01*
X1882823Y136112D02*
Y265000D01*
X1797823Y277500D02*
Y463700D01*
X1704323Y112499D02*
X1780323D01*
X1668824Y125000D02*
Y183505D01*
X1691823Y125000D02*
Y183634D01*
X1844823Y476200D02*
Y538200D01*
X1797823Y277500D02*
X1870323D01*
X1797823Y560500D02*
X1870323D01*
X1882823Y573000D02*
Y629091D01*
X1797823Y463700D02*
X1832323D01*
X1797823Y550700D02*
X1832323D01*
X1797823D02*
Y560500D01*
X1580323Y112499D02*
X1656323D01*
X1477823Y136112D02*
Y265000D01*
X1562823Y277500D02*
Y463700D01*
X1528323D02*
X1562823D01*
X1490323Y277500D02*
X1562823D01*
X1528323Y550700D02*
X1562823D01*
Y560500D01*
X1490323D02*
X1562823D01*
X1515823Y476200D02*
Y538200D01*
X1477823Y573000D02*
Y630604D01*
X1477849Y631534D02*
X1477850Y631541D01*
X1870323Y643221D02*
X1870430D01*
X1870323Y668094D02*
X1870430D01*
X1882823Y682225D02*
Y851250D01*
X1857823Y863750D02*
X1870323D01*
X1857823D02*
Y896225D01*
Y896250D01*
X1762073Y933750D02*
X1820323D01*
X1762073D02*
Y973828D01*
X1490323Y863750D02*
X1502823D01*
X1477849Y679781D02*
X1477850Y679774D01*
X1477823Y680711D02*
Y851250D01*
X1502823Y863750D02*
Y896250D01*
X1635323Y992750D02*
X1725323D01*
X1540323Y933750D02*
X1598573D01*
Y973828D01*
M02*
