G04*
G04 #@! TF.GenerationSoftware,Altium Limited,Altium Designer,18.0.9 (584)*
G04*
G04 Layer_Color=8421504*
%FSLAX44Y44*%
%MOMM*%
G71*
G01*
G75*
%ADD11C,2.0000*%
%ADD12R,2.0000X1.0190*%
%ADD13R,2.0000X2.4000*%
%ADD14R,0.9000X0.9000*%
%ADD15R,0.6000X0.6000*%
%ADD16R,0.6000X0.6000*%
%ADD17R,0.9000X0.9000*%
%ADD18P,2.1213X4X192.3*%
%ADD19P,1.2728X4X192.3*%
%ADD20P,1.2728X4X257.7*%
%ADD21P,2.1213X4X257.7*%
%ADD22R,1.2000X3.0000*%
%ADD23R,1.5000X1.7500*%
%ADD24R,1.5000X1.5000*%
%ADD25R,0.4000X0.4000*%
%ADD26R,0.4000X0.2000*%
%ADD27R,2.5500X0.7000*%
%ADD29R,1.0000X1.4000*%
%ADD30R,0.6000X0.5000*%
%ADD31R,1.3000X0.7000*%
%ADD32R,0.5000X0.6000*%
%ADD33R,1.1000X0.6000*%
%ADD34R,0.8130X0.3050*%
%ADD35R,0.3050X0.8130*%
%ADD36R,1.0000X0.7000*%
%ADD37R,0.7000X1.0000*%
%ADD38R,1.7500X0.4500*%
%ADD39R,1.4000X0.8000*%
%ADD40C,1.0000*%
%ADD41R,1.4000X1.0000*%
%ADD42R,1.5500X0.6000*%
%ADD43R,1.8000X1.2000*%
G04:AMPARAMS|DCode=51|XSize=1.1mm|YSize=1.4mm|CornerRadius=0mm|HoleSize=0mm|Usage=FLASHONLY|Rotation=165.000|XOffset=0mm|YOffset=0mm|HoleType=Round|Shape=Rectangle|*
%AMROTATEDRECTD51*
4,1,4,0.7124,0.5338,0.3501,-0.8185,-0.7124,-0.5338,-0.3501,0.8185,0.7124,0.5338,0.0*
%
%ADD51ROTATEDRECTD51*%

G04:AMPARAMS|DCode=52|XSize=1.1mm|YSize=1.4mm|CornerRadius=0mm|HoleSize=0mm|Usage=FLASHONLY|Rotation=127.000|XOffset=0mm|YOffset=0mm|HoleType=Round|Shape=Rectangle|*
%AMROTATEDRECTD52*
4,1,4,0.8900,-0.0180,-0.2281,-0.8605,-0.8900,0.0180,0.2281,0.8605,0.8900,-0.0180,0.0*
%
%ADD52ROTATEDRECTD52*%

G04:AMPARAMS|DCode=53|XSize=1.1mm|YSize=1.4mm|CornerRadius=0mm|HoleSize=0mm|Usage=FLASHONLY|Rotation=195.000|XOffset=0mm|YOffset=0mm|HoleType=Round|Shape=Rectangle|*
%AMROTATEDRECTD53*
4,1,4,0.3501,0.8185,0.7124,-0.5338,-0.3501,-0.8185,-0.7124,0.5338,0.3501,0.8185,0.0*
%
%ADD53ROTATEDRECTD53*%

G04:AMPARAMS|DCode=54|XSize=1.1mm|YSize=1.4mm|CornerRadius=0mm|HoleSize=0mm|Usage=FLASHONLY|Rotation=230.000|XOffset=0mm|YOffset=0mm|HoleType=Round|Shape=Rectangle|*
%AMROTATEDRECTD54*
4,1,4,-0.1827,0.8713,0.8898,-0.0286,0.1827,-0.8713,-0.8898,0.0286,-0.1827,0.8713,0.0*
%
%ADD54ROTATEDRECTD54*%

%ADD55R,1.4500X0.4500*%
%ADD88R,1.0000X1.9101*%
D11*
X70000Y70000D02*
D03*
Y1185250D02*
D03*
X1925430Y70000D02*
D03*
D12*
X403893Y559691D02*
D03*
Y544691D02*
D03*
Y529691D02*
D03*
Y514691D02*
D03*
Y499691D02*
D03*
X404501Y295489D02*
D03*
Y310489D02*
D03*
Y325489D02*
D03*
Y340489D02*
D03*
Y355489D02*
D03*
X859000Y559691D02*
D03*
Y544691D02*
D03*
Y529691D02*
D03*
Y514691D02*
D03*
Y499691D02*
D03*
X859608Y295489D02*
D03*
Y310489D02*
D03*
Y325489D02*
D03*
Y340489D02*
D03*
Y355489D02*
D03*
X1314107Y559691D02*
D03*
Y544691D02*
D03*
Y529691D02*
D03*
Y514691D02*
D03*
Y499691D02*
D03*
X1314716Y295489D02*
D03*
Y310489D02*
D03*
Y325489D02*
D03*
Y340489D02*
D03*
Y355489D02*
D03*
X1769215Y559691D02*
D03*
Y544691D02*
D03*
Y529691D02*
D03*
Y514691D02*
D03*
Y499691D02*
D03*
X1769823Y295489D02*
D03*
Y310489D02*
D03*
Y325489D02*
D03*
Y340489D02*
D03*
Y355489D02*
D03*
D13*
X294649Y432852D02*
D03*
X334649D02*
D03*
X749757D02*
D03*
X789757D02*
D03*
X1204864D02*
D03*
X1244864D02*
D03*
X1659972D02*
D03*
X1699972D02*
D03*
D14*
X314993Y665607D02*
D03*
Y649607D02*
D03*
X770100Y665607D02*
D03*
Y649607D02*
D03*
X1225207Y665607D02*
D03*
Y649607D02*
D03*
X1680315Y665607D02*
D03*
Y649607D02*
D03*
D15*
X276385Y429578D02*
D03*
Y440578D02*
D03*
X352077Y443548D02*
D03*
Y432548D02*
D03*
X354305Y892448D02*
D03*
Y881448D02*
D03*
X483395Y198249D02*
D03*
Y209249D02*
D03*
X181201Y610060D02*
D03*
Y599060D02*
D03*
X181551Y775200D02*
D03*
Y764200D02*
D03*
X404801Y865450D02*
D03*
Y854450D02*
D03*
X483751Y822250D02*
D03*
Y833250D02*
D03*
X731492Y429578D02*
D03*
Y440578D02*
D03*
X807184Y443548D02*
D03*
Y432548D02*
D03*
X809412Y892448D02*
D03*
Y881448D02*
D03*
X938502Y198249D02*
D03*
Y209249D02*
D03*
X636308Y610060D02*
D03*
Y599060D02*
D03*
X636658Y775200D02*
D03*
Y764200D02*
D03*
X859908Y865450D02*
D03*
Y854450D02*
D03*
X938858Y822250D02*
D03*
Y833250D02*
D03*
X1186600Y429578D02*
D03*
Y440578D02*
D03*
X1262292Y443548D02*
D03*
Y432548D02*
D03*
X1264520Y892448D02*
D03*
Y881448D02*
D03*
X1393609Y198249D02*
D03*
Y209249D02*
D03*
X1091416Y610060D02*
D03*
Y599060D02*
D03*
X1091766Y775200D02*
D03*
Y764200D02*
D03*
X1315016Y865450D02*
D03*
Y854450D02*
D03*
X1393966Y822250D02*
D03*
Y833250D02*
D03*
X1641707Y429578D02*
D03*
Y440578D02*
D03*
X1717399Y443548D02*
D03*
Y432548D02*
D03*
X1719627Y892448D02*
D03*
Y881448D02*
D03*
X1848717Y198249D02*
D03*
Y209249D02*
D03*
X1546523Y610060D02*
D03*
Y599060D02*
D03*
X1546873Y775200D02*
D03*
Y764200D02*
D03*
X1770123Y865450D02*
D03*
Y854450D02*
D03*
X1849073Y822250D02*
D03*
Y833250D02*
D03*
D16*
X471483Y192648D02*
D03*
X460483D02*
D03*
X437251Y789315D02*
D03*
X426250D02*
D03*
X434067Y193410D02*
D03*
X445067D02*
D03*
X416551Y751450D02*
D03*
X405551D02*
D03*
X322639Y534786D02*
D03*
X311639D02*
D03*
X281551Y282700D02*
D03*
X270551D02*
D03*
X926590Y192648D02*
D03*
X915590D02*
D03*
X892358Y789315D02*
D03*
X881358D02*
D03*
X889174Y193410D02*
D03*
X900174D02*
D03*
X871658Y751450D02*
D03*
X860658D02*
D03*
X777746Y534786D02*
D03*
X766746D02*
D03*
X736658Y282700D02*
D03*
X725658D02*
D03*
X1381698Y192648D02*
D03*
X1370698D02*
D03*
X1347465Y789315D02*
D03*
X1336465D02*
D03*
X1344282Y193410D02*
D03*
X1355282D02*
D03*
X1326766Y751450D02*
D03*
X1315766D02*
D03*
X1232854Y534786D02*
D03*
X1221854D02*
D03*
X1191766Y282700D02*
D03*
X1180766D02*
D03*
X1836805Y192648D02*
D03*
X1825805D02*
D03*
X1802573Y789315D02*
D03*
X1791573D02*
D03*
X1799389Y193410D02*
D03*
X1810389D02*
D03*
X1781873Y751450D02*
D03*
X1770873D02*
D03*
X1687961Y534786D02*
D03*
X1676961D02*
D03*
X1646873Y282700D02*
D03*
X1635873D02*
D03*
D17*
X421750Y773315D02*
D03*
X437751D02*
D03*
X156471Y160500D02*
D03*
X471431Y161750D02*
D03*
X876858Y773315D02*
D03*
X892858D02*
D03*
X611578Y160500D02*
D03*
X926538Y161750D02*
D03*
X1331965Y773315D02*
D03*
X1347965D02*
D03*
X1066686Y160500D02*
D03*
X1381646Y161750D02*
D03*
X1787073Y773315D02*
D03*
X1803073D02*
D03*
X1521793Y160500D02*
D03*
X1836753Y161750D02*
D03*
X302750Y1048000D02*
D03*
X286750D02*
D03*
X408250Y1054200D02*
D03*
X424250D02*
D03*
X297500Y1062250D02*
D03*
X281500D02*
D03*
X295250Y1031250D02*
D03*
X279250D02*
D03*
X408250Y1039950D02*
D03*
X424250D02*
D03*
X757749Y1048000D02*
D03*
X741749D02*
D03*
X863249Y1054200D02*
D03*
X879249D02*
D03*
X752499Y1062250D02*
D03*
X736499D02*
D03*
X750249Y1031250D02*
D03*
X734249D02*
D03*
X863249Y1039950D02*
D03*
X879249D02*
D03*
X1212748Y1048000D02*
D03*
X1196748D02*
D03*
X1318248Y1054200D02*
D03*
X1334248D02*
D03*
X1207498Y1062250D02*
D03*
X1191498D02*
D03*
X1205248Y1031250D02*
D03*
X1189248D02*
D03*
X1318248Y1039950D02*
D03*
X1334248D02*
D03*
X1667748Y1048000D02*
D03*
X1651748D02*
D03*
X1773247Y1054200D02*
D03*
X1789247D02*
D03*
X1662498Y1062250D02*
D03*
X1646498D02*
D03*
X1660248Y1031250D02*
D03*
X1644248D02*
D03*
X1773247Y1039950D02*
D03*
X1789247D02*
D03*
D18*
X471551Y891321D02*
D03*
X442085Y910209D02*
D03*
X926658Y891321D02*
D03*
X897192Y910209D02*
D03*
X1381766Y891321D02*
D03*
X1352300Y910209D02*
D03*
X1836873Y891321D02*
D03*
X1807407Y910209D02*
D03*
D19*
X453310Y895293D02*
D03*
X908418D02*
D03*
X1363525D02*
D03*
X1818632D02*
D03*
D20*
X176253Y895274D02*
D03*
X631360D02*
D03*
X1086468D02*
D03*
X1541575D02*
D03*
D21*
X158012Y891302D02*
D03*
X187478Y910190D02*
D03*
X613119Y891302D02*
D03*
X642586Y910190D02*
D03*
X1068227Y891302D02*
D03*
X1097693Y910190D02*
D03*
X1523334Y891302D02*
D03*
X1552800Y910190D02*
D03*
D22*
X407051Y152200D02*
D03*
X382051D02*
D03*
X302691Y958730D02*
D03*
X327691D02*
D03*
X862158Y152200D02*
D03*
X837158D02*
D03*
X757798Y958730D02*
D03*
X782798D02*
D03*
X1317266Y152200D02*
D03*
X1292266D02*
D03*
X1212906Y958730D02*
D03*
X1237906D02*
D03*
X1772373Y152200D02*
D03*
X1747373D02*
D03*
X1668013Y958730D02*
D03*
X1693013D02*
D03*
D23*
X336273Y724802D02*
D03*
Y687302D02*
D03*
X293773Y725052D02*
D03*
Y687552D02*
D03*
X791380Y724802D02*
D03*
Y687302D02*
D03*
X748880Y725052D02*
D03*
Y687552D02*
D03*
X1246488Y724802D02*
D03*
Y687302D02*
D03*
X1203988Y725052D02*
D03*
Y687552D02*
D03*
X1701595Y724802D02*
D03*
Y687302D02*
D03*
X1659095Y725052D02*
D03*
Y687552D02*
D03*
D24*
X138971Y154000D02*
D03*
X173971D02*
D03*
X488931Y155250D02*
D03*
X453931D02*
D03*
X594078Y154000D02*
D03*
X629078D02*
D03*
X944038Y155250D02*
D03*
X909038D02*
D03*
X1049186Y154000D02*
D03*
X1084186D02*
D03*
X1399146Y155250D02*
D03*
X1364146D02*
D03*
X1504293Y154000D02*
D03*
X1539293D02*
D03*
X1854253Y155250D02*
D03*
X1819253D02*
D03*
D25*
X321389Y700184D02*
D03*
Y712184D02*
D03*
X308389D02*
D03*
Y700184D02*
D03*
X776496D02*
D03*
Y712184D02*
D03*
X763496D02*
D03*
Y700184D02*
D03*
X1231604D02*
D03*
Y712184D02*
D03*
X1218604D02*
D03*
Y700184D02*
D03*
X1686711D02*
D03*
Y712184D02*
D03*
X1673711D02*
D03*
Y700184D02*
D03*
D26*
X321389Y706184D02*
D03*
X308389D02*
D03*
X776496D02*
D03*
X763496D02*
D03*
X1231604D02*
D03*
X1218604D02*
D03*
X1686711D02*
D03*
X1673711D02*
D03*
D27*
X264463Y906252D02*
D03*
Y893552D02*
D03*
Y880852D02*
D03*
X229963Y906252D02*
D03*
Y893552D02*
D03*
Y880852D02*
D03*
X719570Y906252D02*
D03*
Y893552D02*
D03*
Y880852D02*
D03*
X685070Y906252D02*
D03*
Y893552D02*
D03*
Y880852D02*
D03*
X1174678Y906252D02*
D03*
Y893552D02*
D03*
Y880852D02*
D03*
X1140178Y906252D02*
D03*
Y893552D02*
D03*
Y880852D02*
D03*
X1629785Y906252D02*
D03*
Y893552D02*
D03*
Y880852D02*
D03*
X1595285Y906252D02*
D03*
Y893552D02*
D03*
Y880852D02*
D03*
D29*
X138615Y237964D02*
D03*
X157615D02*
D03*
X148115Y215964D02*
D03*
X247301Y474450D02*
D03*
X228301D02*
D03*
X237801Y496450D02*
D03*
X192051Y656450D02*
D03*
X173051D02*
D03*
X182551Y678450D02*
D03*
X223551Y783700D02*
D03*
X204551D02*
D03*
X214051Y805700D02*
D03*
X593722Y237964D02*
D03*
X612722D02*
D03*
X603222Y215964D02*
D03*
X702408Y474450D02*
D03*
X683408D02*
D03*
X692908Y496450D02*
D03*
X647158Y656450D02*
D03*
X628158D02*
D03*
X637658Y678450D02*
D03*
X678658Y783700D02*
D03*
X659658D02*
D03*
X669158Y805700D02*
D03*
X1048830Y237964D02*
D03*
X1067830D02*
D03*
X1058330Y215964D02*
D03*
X1157516Y474450D02*
D03*
X1138516D02*
D03*
X1148016Y496450D02*
D03*
X1102266Y656450D02*
D03*
X1083266D02*
D03*
X1092766Y678450D02*
D03*
X1133766Y783700D02*
D03*
X1114766D02*
D03*
X1124266Y805700D02*
D03*
X1503937Y237964D02*
D03*
X1522937D02*
D03*
X1513437Y215964D02*
D03*
X1612623Y474450D02*
D03*
X1593623D02*
D03*
X1603123Y496450D02*
D03*
X1557373Y656450D02*
D03*
X1538373D02*
D03*
X1547873Y678450D02*
D03*
X1588873Y783700D02*
D03*
X1569873D02*
D03*
X1579373Y805700D02*
D03*
D30*
X329470Y647481D02*
D03*
Y657481D02*
D03*
X337033Y886354D02*
D03*
Y876354D02*
D03*
X362001Y659000D02*
D03*
Y669000D02*
D03*
X271251Y659000D02*
D03*
Y669000D02*
D03*
X327751Y918565D02*
D03*
Y928565D02*
D03*
X174091Y214152D02*
D03*
Y224152D02*
D03*
X174751Y248000D02*
D03*
Y238000D02*
D03*
X460095Y793874D02*
D03*
Y803874D02*
D03*
X204251Y507565D02*
D03*
Y517565D02*
D03*
X215751Y507565D02*
D03*
Y517565D02*
D03*
X237023Y449302D02*
D03*
Y459302D02*
D03*
X247273Y449302D02*
D03*
Y459302D02*
D03*
X430055Y507113D02*
D03*
Y517113D02*
D03*
X430051Y484200D02*
D03*
Y494200D02*
D03*
X239877Y853150D02*
D03*
Y843150D02*
D03*
X159037Y677039D02*
D03*
Y667039D02*
D03*
X225859Y704586D02*
D03*
Y694586D02*
D03*
X181051Y750200D02*
D03*
Y740200D02*
D03*
X191250Y750315D02*
D03*
Y740315D02*
D03*
X181500Y808315D02*
D03*
Y818315D02*
D03*
Y796815D02*
D03*
Y786815D02*
D03*
X480881Y686076D02*
D03*
Y696076D02*
D03*
X255075Y271548D02*
D03*
Y281548D02*
D03*
X477579Y620638D02*
D03*
Y630638D02*
D03*
X427051Y632700D02*
D03*
Y642700D02*
D03*
X477501Y609250D02*
D03*
Y599250D02*
D03*
X784578Y647481D02*
D03*
Y657481D02*
D03*
X792140Y886354D02*
D03*
Y876354D02*
D03*
X817108Y659000D02*
D03*
Y669000D02*
D03*
X726358Y659000D02*
D03*
Y669000D02*
D03*
X782858Y918565D02*
D03*
Y928565D02*
D03*
X629198Y214152D02*
D03*
Y224152D02*
D03*
X629858Y248000D02*
D03*
Y238000D02*
D03*
X915202Y793874D02*
D03*
Y803874D02*
D03*
X659358Y507565D02*
D03*
Y517565D02*
D03*
X670858Y507565D02*
D03*
Y517565D02*
D03*
X692130Y449302D02*
D03*
Y459302D02*
D03*
X702380Y449302D02*
D03*
Y459302D02*
D03*
X885162Y507113D02*
D03*
Y517113D02*
D03*
X885158Y484200D02*
D03*
Y494200D02*
D03*
X694984Y853150D02*
D03*
Y843150D02*
D03*
X614144Y677039D02*
D03*
Y667039D02*
D03*
X680966Y704586D02*
D03*
Y694586D02*
D03*
X636158Y750200D02*
D03*
Y740200D02*
D03*
X646358Y750315D02*
D03*
Y740315D02*
D03*
X636608Y808315D02*
D03*
Y818315D02*
D03*
Y796815D02*
D03*
Y786815D02*
D03*
X935988Y686076D02*
D03*
Y696076D02*
D03*
X710182Y271548D02*
D03*
Y281548D02*
D03*
X932686Y620638D02*
D03*
Y630638D02*
D03*
X882158Y632700D02*
D03*
Y642700D02*
D03*
X932608Y609250D02*
D03*
Y599250D02*
D03*
X1239685Y647481D02*
D03*
Y657481D02*
D03*
X1247248Y886354D02*
D03*
Y876354D02*
D03*
X1272216Y659000D02*
D03*
Y669000D02*
D03*
X1181466Y659000D02*
D03*
Y669000D02*
D03*
X1237965Y918565D02*
D03*
Y928565D02*
D03*
X1084306Y214152D02*
D03*
Y224152D02*
D03*
X1084966Y248000D02*
D03*
Y238000D02*
D03*
X1370310Y793874D02*
D03*
Y803874D02*
D03*
X1114465Y507565D02*
D03*
Y517565D02*
D03*
X1125965Y507565D02*
D03*
Y517565D02*
D03*
X1147238Y449302D02*
D03*
Y459302D02*
D03*
X1157488Y449302D02*
D03*
Y459302D02*
D03*
X1340269Y507113D02*
D03*
Y517113D02*
D03*
X1340266Y484200D02*
D03*
Y494200D02*
D03*
X1150092Y853150D02*
D03*
Y843150D02*
D03*
X1069251Y677039D02*
D03*
Y667039D02*
D03*
X1136074Y704586D02*
D03*
Y694586D02*
D03*
X1091266Y750200D02*
D03*
Y740200D02*
D03*
X1101465Y750315D02*
D03*
Y740315D02*
D03*
X1091715Y808315D02*
D03*
Y818315D02*
D03*
Y796815D02*
D03*
Y786815D02*
D03*
X1391096Y686076D02*
D03*
Y696076D02*
D03*
X1165290Y271548D02*
D03*
Y281548D02*
D03*
X1387794Y620638D02*
D03*
Y630638D02*
D03*
X1337266Y632700D02*
D03*
Y642700D02*
D03*
X1387716Y609250D02*
D03*
Y599250D02*
D03*
X1694793Y647481D02*
D03*
Y657481D02*
D03*
X1702355Y886354D02*
D03*
Y876354D02*
D03*
X1727323Y659000D02*
D03*
Y669000D02*
D03*
X1636573Y659000D02*
D03*
Y669000D02*
D03*
X1693073Y918565D02*
D03*
Y928565D02*
D03*
X1539413Y214152D02*
D03*
Y224152D02*
D03*
X1540073Y248000D02*
D03*
Y238000D02*
D03*
X1825417Y793874D02*
D03*
Y803874D02*
D03*
X1569573Y507565D02*
D03*
Y517565D02*
D03*
X1581073Y507565D02*
D03*
Y517565D02*
D03*
X1602345Y449302D02*
D03*
Y459302D02*
D03*
X1612595Y449302D02*
D03*
Y459302D02*
D03*
X1795377Y507113D02*
D03*
Y517113D02*
D03*
X1795373Y484200D02*
D03*
Y494200D02*
D03*
X1605199Y853150D02*
D03*
Y843150D02*
D03*
X1524359Y677039D02*
D03*
Y667039D02*
D03*
X1591181Y704586D02*
D03*
Y694586D02*
D03*
X1546373Y750200D02*
D03*
Y740200D02*
D03*
X1556573Y750315D02*
D03*
Y740315D02*
D03*
X1546823Y808315D02*
D03*
Y818315D02*
D03*
Y796815D02*
D03*
Y786815D02*
D03*
X1846203Y686076D02*
D03*
Y696076D02*
D03*
X1620397Y271548D02*
D03*
Y281548D02*
D03*
X1842901Y620638D02*
D03*
Y630638D02*
D03*
X1792373Y632700D02*
D03*
Y642700D02*
D03*
X1842823Y609250D02*
D03*
Y599250D02*
D03*
X460250Y1013500D02*
D03*
Y1023500D02*
D03*
X449750Y1015250D02*
D03*
Y1025250D02*
D03*
X431750Y1027000D02*
D03*
Y1017000D02*
D03*
X420500Y1027000D02*
D03*
Y1017000D02*
D03*
X277250Y1092750D02*
D03*
Y1082750D02*
D03*
X386500Y1091500D02*
D03*
Y1081500D02*
D03*
X266500Y1092750D02*
D03*
Y1082750D02*
D03*
X350000Y1092500D02*
D03*
Y1082500D02*
D03*
X915249Y1013500D02*
D03*
Y1023500D02*
D03*
X904749Y1015250D02*
D03*
Y1025250D02*
D03*
X886749Y1027000D02*
D03*
Y1017000D02*
D03*
X875499Y1027000D02*
D03*
Y1017000D02*
D03*
X732249Y1092750D02*
D03*
Y1082750D02*
D03*
X841499Y1091500D02*
D03*
Y1081500D02*
D03*
X721499Y1092750D02*
D03*
Y1082750D02*
D03*
X804999Y1092500D02*
D03*
Y1082500D02*
D03*
X1370248Y1013500D02*
D03*
Y1023500D02*
D03*
X1359748Y1015250D02*
D03*
Y1025250D02*
D03*
X1341748Y1027000D02*
D03*
Y1017000D02*
D03*
X1330498Y1027000D02*
D03*
Y1017000D02*
D03*
X1187248Y1092750D02*
D03*
Y1082750D02*
D03*
X1296498Y1091500D02*
D03*
Y1081500D02*
D03*
X1176498Y1092750D02*
D03*
Y1082750D02*
D03*
X1259998Y1092500D02*
D03*
Y1082500D02*
D03*
X1825248Y1013500D02*
D03*
Y1023500D02*
D03*
X1814748Y1015250D02*
D03*
Y1025250D02*
D03*
X1796748Y1027000D02*
D03*
Y1017000D02*
D03*
X1785498Y1027000D02*
D03*
Y1017000D02*
D03*
X1642248Y1092750D02*
D03*
Y1082750D02*
D03*
X1751498Y1091500D02*
D03*
Y1081500D02*
D03*
X1631498Y1092750D02*
D03*
Y1082750D02*
D03*
X1714998Y1092500D02*
D03*
Y1082500D02*
D03*
D31*
X318551Y876450D02*
D03*
Y895450D02*
D03*
X773658Y876450D02*
D03*
Y895450D02*
D03*
X1228766Y876450D02*
D03*
Y895450D02*
D03*
X1683873Y876450D02*
D03*
Y895450D02*
D03*
D32*
X169171Y199768D02*
D03*
X179171D02*
D03*
X371381Y461836D02*
D03*
X381381D02*
D03*
X371287Y472504D02*
D03*
X381287D02*
D03*
X483395Y809373D02*
D03*
X473395D02*
D03*
X482057Y230240D02*
D03*
X492057D02*
D03*
X482124Y241937D02*
D03*
X492124D02*
D03*
X398801Y774700D02*
D03*
X408801D02*
D03*
X483140Y790577D02*
D03*
X473140D02*
D03*
X230501Y531815D02*
D03*
X240501D02*
D03*
X211801Y662950D02*
D03*
X221801D02*
D03*
X161000Y858565D02*
D03*
X171000D02*
D03*
Y847065D02*
D03*
X161000D02*
D03*
X214501Y679315D02*
D03*
X204501D02*
D03*
X462660Y824359D02*
D03*
X452660D02*
D03*
X412051Y895950D02*
D03*
X402051D02*
D03*
X441645Y657481D02*
D03*
X451645D02*
D03*
X483140Y772035D02*
D03*
X473140D02*
D03*
X284627Y261516D02*
D03*
X274627D02*
D03*
X255329Y261482D02*
D03*
X265329D02*
D03*
X459011Y591949D02*
D03*
X449011D02*
D03*
X624278Y199768D02*
D03*
X634278D02*
D03*
X826488Y461836D02*
D03*
X836488D02*
D03*
X826394Y472504D02*
D03*
X836394D02*
D03*
X938502Y809373D02*
D03*
X928502D02*
D03*
X937164Y230240D02*
D03*
X947164D02*
D03*
X937232Y241937D02*
D03*
X947232D02*
D03*
X853908Y774700D02*
D03*
X863908D02*
D03*
X938248Y790577D02*
D03*
X928248D02*
D03*
X685608Y531815D02*
D03*
X695608D02*
D03*
X666908Y662950D02*
D03*
X676908D02*
D03*
X616108Y858565D02*
D03*
X626108D02*
D03*
Y847065D02*
D03*
X616108D02*
D03*
X669608Y679315D02*
D03*
X659608D02*
D03*
X917768Y824359D02*
D03*
X907768D02*
D03*
X867158Y895950D02*
D03*
X857158D02*
D03*
X896752Y657481D02*
D03*
X906752D02*
D03*
X938248Y772035D02*
D03*
X928248D02*
D03*
X739734Y261516D02*
D03*
X729734D02*
D03*
X710436Y261482D02*
D03*
X720436D02*
D03*
X914118Y591949D02*
D03*
X904118D02*
D03*
X1079386Y199768D02*
D03*
X1089386D02*
D03*
X1281596Y461836D02*
D03*
X1291596D02*
D03*
X1281502Y472504D02*
D03*
X1291502D02*
D03*
X1393609Y809373D02*
D03*
X1383609D02*
D03*
X1392272Y230240D02*
D03*
X1402272D02*
D03*
X1392339Y241937D02*
D03*
X1402339D02*
D03*
X1309016Y774700D02*
D03*
X1319016D02*
D03*
X1393355Y790577D02*
D03*
X1383355D02*
D03*
X1140715Y531815D02*
D03*
X1150715D02*
D03*
X1122016Y662950D02*
D03*
X1132016D02*
D03*
X1071215Y858565D02*
D03*
X1081215D02*
D03*
Y847065D02*
D03*
X1071215D02*
D03*
X1124715Y679315D02*
D03*
X1114715D02*
D03*
X1372875Y824359D02*
D03*
X1362875D02*
D03*
X1322266Y895950D02*
D03*
X1312266D02*
D03*
X1351859Y657481D02*
D03*
X1361859D02*
D03*
X1393355Y772035D02*
D03*
X1383355D02*
D03*
X1194842Y261516D02*
D03*
X1184842D02*
D03*
X1165544Y261482D02*
D03*
X1175544D02*
D03*
X1369225Y591949D02*
D03*
X1359225D02*
D03*
X1534493Y199768D02*
D03*
X1544493D02*
D03*
X1736703Y461836D02*
D03*
X1746703D02*
D03*
X1736609Y472504D02*
D03*
X1746609D02*
D03*
X1848717Y809373D02*
D03*
X1838717D02*
D03*
X1847379Y230240D02*
D03*
X1857379D02*
D03*
X1847447Y241937D02*
D03*
X1857447D02*
D03*
X1764123Y774700D02*
D03*
X1774123D02*
D03*
X1848463Y790577D02*
D03*
X1838463D02*
D03*
X1595823Y531815D02*
D03*
X1605823D02*
D03*
X1577123Y662950D02*
D03*
X1587123D02*
D03*
X1526323Y858565D02*
D03*
X1536323D02*
D03*
Y847065D02*
D03*
X1526323D02*
D03*
X1579823Y679315D02*
D03*
X1569823D02*
D03*
X1827983Y824359D02*
D03*
X1817983D02*
D03*
X1777373Y895950D02*
D03*
X1767373D02*
D03*
X1806967Y657481D02*
D03*
X1816967D02*
D03*
X1848463Y772035D02*
D03*
X1838463D02*
D03*
X1649949Y261516D02*
D03*
X1639949D02*
D03*
X1620651Y261482D02*
D03*
X1630651D02*
D03*
X1824333Y591949D02*
D03*
X1814333D02*
D03*
X409000Y1018000D02*
D03*
X399000D02*
D03*
X365692Y1119994D02*
D03*
X375692D02*
D03*
X375500Y1085000D02*
D03*
X365500D02*
D03*
Y1102000D02*
D03*
X375500D02*
D03*
X446749Y1052750D02*
D03*
X436749D02*
D03*
X449249Y1070250D02*
D03*
X439249D02*
D03*
X216750Y1018750D02*
D03*
X226750D02*
D03*
X373000Y1014500D02*
D03*
X383000D02*
D03*
X328862Y1015092D02*
D03*
X318862D02*
D03*
X291750Y1076250D02*
D03*
X301750D02*
D03*
X292750Y1018250D02*
D03*
X302750D02*
D03*
X271500D02*
D03*
X281500D02*
D03*
X243750Y1096750D02*
D03*
X253750D02*
D03*
X194656Y1018902D02*
D03*
X204656D02*
D03*
X243750Y1079750D02*
D03*
X253750D02*
D03*
X184250Y1057500D02*
D03*
X194250D02*
D03*
X863999Y1018000D02*
D03*
X853999D02*
D03*
X820691Y1119994D02*
D03*
X830691D02*
D03*
X830499Y1085000D02*
D03*
X820499D02*
D03*
Y1102000D02*
D03*
X830499D02*
D03*
X901748Y1052750D02*
D03*
X891748D02*
D03*
X904248Y1070250D02*
D03*
X894248D02*
D03*
X671749Y1018750D02*
D03*
X681749D02*
D03*
X827999Y1014500D02*
D03*
X837999D02*
D03*
X783861Y1015092D02*
D03*
X773861D02*
D03*
X746749Y1076250D02*
D03*
X756749D02*
D03*
X747749Y1018250D02*
D03*
X757749D02*
D03*
X726499D02*
D03*
X736499D02*
D03*
X698749Y1096750D02*
D03*
X708749D02*
D03*
X649655Y1018902D02*
D03*
X659655D02*
D03*
X698749Y1079750D02*
D03*
X708749D02*
D03*
X639249Y1057500D02*
D03*
X649249D02*
D03*
X1318998Y1018000D02*
D03*
X1308998D02*
D03*
X1275690Y1119994D02*
D03*
X1285690D02*
D03*
X1285498Y1085000D02*
D03*
X1275498D02*
D03*
Y1102000D02*
D03*
X1285498D02*
D03*
X1356748Y1052750D02*
D03*
X1346748D02*
D03*
X1359248Y1070250D02*
D03*
X1349248D02*
D03*
X1126748Y1018750D02*
D03*
X1136748D02*
D03*
X1282998Y1014500D02*
D03*
X1292998D02*
D03*
X1238860Y1015092D02*
D03*
X1228860D02*
D03*
X1201748Y1076250D02*
D03*
X1211748D02*
D03*
X1202748Y1018250D02*
D03*
X1212748D02*
D03*
X1181498D02*
D03*
X1191498D02*
D03*
X1153748Y1096750D02*
D03*
X1163748D02*
D03*
X1104654Y1018902D02*
D03*
X1114654D02*
D03*
X1153748Y1079750D02*
D03*
X1163748D02*
D03*
X1094248Y1057500D02*
D03*
X1104248D02*
D03*
X1773998Y1018000D02*
D03*
X1763998D02*
D03*
X1730689Y1119994D02*
D03*
X1740689D02*
D03*
X1740498Y1085000D02*
D03*
X1730498D02*
D03*
Y1102000D02*
D03*
X1740498D02*
D03*
X1811747Y1052750D02*
D03*
X1801747D02*
D03*
X1814247Y1070250D02*
D03*
X1804247D02*
D03*
X1581748Y1018750D02*
D03*
X1591748D02*
D03*
X1737998Y1014500D02*
D03*
X1747998D02*
D03*
X1693859Y1015092D02*
D03*
X1683859D02*
D03*
X1656748Y1076250D02*
D03*
X1666748D02*
D03*
X1657748Y1018250D02*
D03*
X1667748D02*
D03*
X1636498D02*
D03*
X1646498D02*
D03*
X1608748Y1096750D02*
D03*
X1618748D02*
D03*
X1559653Y1018902D02*
D03*
X1569653D02*
D03*
X1608748Y1079750D02*
D03*
X1618748D02*
D03*
X1549248Y1057500D02*
D03*
X1559248D02*
D03*
D33*
X403051Y826700D02*
D03*
Y817200D02*
D03*
Y807700D02*
D03*
X431051D02*
D03*
Y826700D02*
D03*
X434695Y863064D02*
D03*
Y853564D02*
D03*
Y844064D02*
D03*
X462695D02*
D03*
Y863064D02*
D03*
X858158Y826700D02*
D03*
Y817200D02*
D03*
Y807700D02*
D03*
X886158D02*
D03*
Y826700D02*
D03*
X889802Y863064D02*
D03*
Y853564D02*
D03*
Y844064D02*
D03*
X917802D02*
D03*
Y863064D02*
D03*
X1313266Y826700D02*
D03*
Y817200D02*
D03*
Y807700D02*
D03*
X1341266D02*
D03*
Y826700D02*
D03*
X1344910Y863064D02*
D03*
Y853564D02*
D03*
Y844064D02*
D03*
X1372910D02*
D03*
Y863064D02*
D03*
X1768373Y826700D02*
D03*
Y817200D02*
D03*
Y807700D02*
D03*
X1796373D02*
D03*
Y826700D02*
D03*
X1800017Y863064D02*
D03*
Y853564D02*
D03*
Y844064D02*
D03*
X1828017D02*
D03*
Y863064D02*
D03*
D34*
X467303Y221452D02*
D03*
Y226452D02*
D03*
Y231452D02*
D03*
Y216452D02*
D03*
Y211452D02*
D03*
X441803Y221452D02*
D03*
Y216452D02*
D03*
Y211452D02*
D03*
Y226452D02*
D03*
Y231452D02*
D03*
X922410Y221452D02*
D03*
Y226452D02*
D03*
Y231452D02*
D03*
Y216452D02*
D03*
Y211452D02*
D03*
X896910Y221452D02*
D03*
Y216452D02*
D03*
Y211452D02*
D03*
Y226452D02*
D03*
Y231452D02*
D03*
X1377518Y221452D02*
D03*
Y226452D02*
D03*
Y231452D02*
D03*
Y216452D02*
D03*
Y211452D02*
D03*
X1352018Y221452D02*
D03*
Y216452D02*
D03*
Y211452D02*
D03*
Y226452D02*
D03*
Y231452D02*
D03*
X1832625Y221452D02*
D03*
Y226452D02*
D03*
Y231452D02*
D03*
Y216452D02*
D03*
Y211452D02*
D03*
X1807125Y221452D02*
D03*
Y216452D02*
D03*
Y211452D02*
D03*
Y226452D02*
D03*
Y231452D02*
D03*
D35*
X454553Y208702D02*
D03*
X459553D02*
D03*
X449553D02*
D03*
Y234202D02*
D03*
X459553D02*
D03*
X454553D02*
D03*
X909660Y208702D02*
D03*
X914660D02*
D03*
X904660D02*
D03*
Y234202D02*
D03*
X914660D02*
D03*
X909660D02*
D03*
X1364768Y208702D02*
D03*
X1369768D02*
D03*
X1359768D02*
D03*
Y234202D02*
D03*
X1369768D02*
D03*
X1364768D02*
D03*
X1819875Y208702D02*
D03*
X1824875D02*
D03*
X1814875D02*
D03*
Y234202D02*
D03*
X1824875D02*
D03*
X1819875D02*
D03*
D36*
X218541Y834158D02*
D03*
Y843658D02*
D03*
Y853158D02*
D03*
X192541Y843658D02*
D03*
Y853158D02*
D03*
Y834158D02*
D03*
X138391Y695348D02*
D03*
Y714348D02*
D03*
Y704848D02*
D03*
X164391Y714348D02*
D03*
Y704848D02*
D03*
Y695348D02*
D03*
X673648Y834158D02*
D03*
Y843658D02*
D03*
Y853158D02*
D03*
X647648Y843658D02*
D03*
Y853158D02*
D03*
Y834158D02*
D03*
X593498Y695348D02*
D03*
Y714348D02*
D03*
Y704848D02*
D03*
X619498Y714348D02*
D03*
Y704848D02*
D03*
Y695348D02*
D03*
X1128756Y834158D02*
D03*
Y843658D02*
D03*
Y853158D02*
D03*
X1102756Y843658D02*
D03*
Y853158D02*
D03*
Y834158D02*
D03*
X1048606Y695348D02*
D03*
Y714348D02*
D03*
Y704848D02*
D03*
X1074606Y714348D02*
D03*
Y704848D02*
D03*
Y695348D02*
D03*
X1583863Y834158D02*
D03*
Y843658D02*
D03*
Y853158D02*
D03*
X1557863Y843658D02*
D03*
Y853158D02*
D03*
Y834158D02*
D03*
X1503713Y695348D02*
D03*
Y714348D02*
D03*
Y704848D02*
D03*
X1529713Y714348D02*
D03*
Y704848D02*
D03*
Y695348D02*
D03*
D37*
X461213Y639696D02*
D03*
X451713D02*
D03*
X442213D02*
D03*
X451713Y613696D02*
D03*
X442213D02*
D03*
X461213D02*
D03*
X916320Y639696D02*
D03*
X906820D02*
D03*
X897320D02*
D03*
X906820Y613696D02*
D03*
X897320D02*
D03*
X916320D02*
D03*
X1371428Y639696D02*
D03*
X1361928D02*
D03*
X1352428D02*
D03*
X1361928Y613696D02*
D03*
X1352428D02*
D03*
X1371428D02*
D03*
X1826535Y639696D02*
D03*
X1817035D02*
D03*
X1807535D02*
D03*
X1817035Y613696D02*
D03*
X1807535D02*
D03*
X1826535D02*
D03*
D38*
X351129Y517198D02*
D03*
Y510698D02*
D03*
Y504198D02*
D03*
Y497698D02*
D03*
Y491198D02*
D03*
Y484698D02*
D03*
Y458698D02*
D03*
Y465198D02*
D03*
Y471698D02*
D03*
Y478198D02*
D03*
X279129D02*
D03*
Y471698D02*
D03*
Y465198D02*
D03*
Y458698D02*
D03*
Y484698D02*
D03*
Y491198D02*
D03*
Y497698D02*
D03*
Y504198D02*
D03*
Y510698D02*
D03*
Y517198D02*
D03*
X806236D02*
D03*
Y510698D02*
D03*
Y504198D02*
D03*
Y497698D02*
D03*
Y491198D02*
D03*
Y484698D02*
D03*
Y458698D02*
D03*
Y465198D02*
D03*
Y471698D02*
D03*
Y478198D02*
D03*
X734236D02*
D03*
Y471698D02*
D03*
Y465198D02*
D03*
Y458698D02*
D03*
Y484698D02*
D03*
Y491198D02*
D03*
Y497698D02*
D03*
Y504198D02*
D03*
Y510698D02*
D03*
Y517198D02*
D03*
X1261344D02*
D03*
Y510698D02*
D03*
Y504198D02*
D03*
Y497698D02*
D03*
Y491198D02*
D03*
Y484698D02*
D03*
Y458698D02*
D03*
Y465198D02*
D03*
Y471698D02*
D03*
Y478198D02*
D03*
X1189344D02*
D03*
Y471698D02*
D03*
Y465198D02*
D03*
Y458698D02*
D03*
Y484698D02*
D03*
Y491198D02*
D03*
Y497698D02*
D03*
Y504198D02*
D03*
Y510698D02*
D03*
Y517198D02*
D03*
X1716451D02*
D03*
Y510698D02*
D03*
Y504198D02*
D03*
Y497698D02*
D03*
Y491198D02*
D03*
Y484698D02*
D03*
Y458698D02*
D03*
Y465198D02*
D03*
Y471698D02*
D03*
Y478198D02*
D03*
X1644451D02*
D03*
Y471698D02*
D03*
Y465198D02*
D03*
Y458698D02*
D03*
Y484698D02*
D03*
Y491198D02*
D03*
Y497698D02*
D03*
Y504198D02*
D03*
Y510698D02*
D03*
Y517198D02*
D03*
D39*
X181051Y486200D02*
D03*
Y500200D02*
D03*
Y514200D02*
D03*
Y528200D02*
D03*
X449051Y486200D02*
D03*
Y500200D02*
D03*
Y514200D02*
D03*
Y528200D02*
D03*
X636158Y486200D02*
D03*
Y500200D02*
D03*
Y514200D02*
D03*
Y528200D02*
D03*
X904158Y486200D02*
D03*
Y500200D02*
D03*
Y514200D02*
D03*
Y528200D02*
D03*
X1091266Y486200D02*
D03*
Y500200D02*
D03*
Y514200D02*
D03*
Y528200D02*
D03*
X1359266Y486200D02*
D03*
Y500200D02*
D03*
Y514200D02*
D03*
Y528200D02*
D03*
X1546373Y486200D02*
D03*
Y500200D02*
D03*
Y514200D02*
D03*
Y528200D02*
D03*
X1814373Y486200D02*
D03*
Y500200D02*
D03*
Y514200D02*
D03*
Y528200D02*
D03*
D40*
X144523Y191052D02*
D03*
X440241Y885560D02*
D03*
X599630Y191052D02*
D03*
X895348Y885560D02*
D03*
X1054738Y191052D02*
D03*
X1350456Y885560D02*
D03*
X1509845Y191052D02*
D03*
X1805563Y885560D02*
D03*
X459499Y1059500D02*
D03*
X175499Y1021000D02*
D03*
X914498Y1059500D02*
D03*
X630498Y1021000D02*
D03*
X1369498Y1059500D02*
D03*
X1085498Y1021000D02*
D03*
X1824497Y1059500D02*
D03*
X1540497Y1021000D02*
D03*
D41*
X187349Y704898D02*
D03*
Y723898D02*
D03*
X209349Y714398D02*
D03*
X165001Y824500D02*
D03*
Y805500D02*
D03*
X143001Y815000D02*
D03*
X460307Y695264D02*
D03*
Y676264D02*
D03*
X438307Y685764D02*
D03*
X642456Y704898D02*
D03*
Y723898D02*
D03*
X664456Y714398D02*
D03*
X620108Y824500D02*
D03*
Y805500D02*
D03*
X598108Y815000D02*
D03*
X915414Y695264D02*
D03*
Y676264D02*
D03*
X893414Y685764D02*
D03*
X1097564Y704898D02*
D03*
Y723898D02*
D03*
X1119564Y714398D02*
D03*
X1075216Y824500D02*
D03*
Y805500D02*
D03*
X1053216Y815000D02*
D03*
X1370522Y695264D02*
D03*
Y676264D02*
D03*
X1348522Y685764D02*
D03*
X1552671Y704898D02*
D03*
Y723898D02*
D03*
X1574671Y714398D02*
D03*
X1530323Y824500D02*
D03*
Y805500D02*
D03*
X1508323Y815000D02*
D03*
X1825629Y695264D02*
D03*
Y676264D02*
D03*
X1803629Y685764D02*
D03*
D42*
X162511Y609610D02*
D03*
Y599610D02*
D03*
Y774200D02*
D03*
Y764200D02*
D03*
X467801Y727450D02*
D03*
Y737450D02*
D03*
X617618Y609610D02*
D03*
Y599610D02*
D03*
Y774200D02*
D03*
Y764200D02*
D03*
X922908Y727450D02*
D03*
Y737450D02*
D03*
X1072726Y609610D02*
D03*
Y599610D02*
D03*
Y774200D02*
D03*
Y764200D02*
D03*
X1378016Y727450D02*
D03*
Y737450D02*
D03*
X1527833Y609610D02*
D03*
Y599610D02*
D03*
Y774200D02*
D03*
Y764200D02*
D03*
X1833123Y727450D02*
D03*
Y737450D02*
D03*
D43*
X137261Y622610D02*
D03*
Y586610D02*
D03*
Y787200D02*
D03*
Y751200D02*
D03*
X493051Y714450D02*
D03*
Y750450D02*
D03*
X592368Y622610D02*
D03*
Y586610D02*
D03*
Y787200D02*
D03*
Y751200D02*
D03*
X948158Y714450D02*
D03*
Y750450D02*
D03*
X1047476Y622610D02*
D03*
Y586610D02*
D03*
Y787200D02*
D03*
Y751200D02*
D03*
X1403266Y714450D02*
D03*
Y750450D02*
D03*
X1502583Y622610D02*
D03*
Y586610D02*
D03*
Y787200D02*
D03*
Y751200D02*
D03*
X1858373Y714450D02*
D03*
Y750450D02*
D03*
D51*
X427370Y1079390D02*
D03*
X409017Y1084307D02*
D03*
X882369Y1079390D02*
D03*
X864016Y1084307D02*
D03*
X1337368Y1079390D02*
D03*
X1319016Y1084307D02*
D03*
X1792367Y1079390D02*
D03*
X1774015Y1084307D02*
D03*
D52*
X469755Y1042344D02*
D03*
X481190Y1027170D02*
D03*
X924754Y1042344D02*
D03*
X936189Y1027170D02*
D03*
X1379754Y1042344D02*
D03*
X1391188Y1027170D02*
D03*
X1834753Y1042344D02*
D03*
X1846187Y1027170D02*
D03*
D53*
X220870Y1084310D02*
D03*
X202517Y1079392D02*
D03*
X675869Y1084310D02*
D03*
X657516Y1079392D02*
D03*
X1130868Y1084310D02*
D03*
X1112515Y1079392D02*
D03*
X1585867Y1084310D02*
D03*
X1567515Y1079392D02*
D03*
D54*
X147877Y1027785D02*
D03*
X160090Y1042340D02*
D03*
X602876Y1027785D02*
D03*
X615089Y1042340D02*
D03*
X1057875Y1027785D02*
D03*
X1070088Y1042340D02*
D03*
X1512874Y1027785D02*
D03*
X1525087Y1042340D02*
D03*
D55*
X382500Y1028200D02*
D03*
Y1034700D02*
D03*
Y1041200D02*
D03*
Y1047700D02*
D03*
Y1054200D02*
D03*
Y1060700D02*
D03*
Y1067200D02*
D03*
X323500Y1028200D02*
D03*
Y1034700D02*
D03*
Y1041200D02*
D03*
Y1047700D02*
D03*
Y1054200D02*
D03*
Y1060700D02*
D03*
Y1067200D02*
D03*
X837499Y1028200D02*
D03*
Y1034700D02*
D03*
Y1041200D02*
D03*
Y1047700D02*
D03*
Y1054200D02*
D03*
Y1060700D02*
D03*
Y1067200D02*
D03*
X778499Y1028200D02*
D03*
Y1034700D02*
D03*
Y1041200D02*
D03*
Y1047700D02*
D03*
Y1054200D02*
D03*
Y1060700D02*
D03*
Y1067200D02*
D03*
X1292498Y1028200D02*
D03*
Y1034700D02*
D03*
Y1041200D02*
D03*
Y1047700D02*
D03*
Y1054200D02*
D03*
Y1060700D02*
D03*
Y1067200D02*
D03*
X1233498Y1028200D02*
D03*
Y1034700D02*
D03*
Y1041200D02*
D03*
Y1047700D02*
D03*
Y1054200D02*
D03*
Y1060700D02*
D03*
Y1067200D02*
D03*
X1747497Y1028200D02*
D03*
Y1034700D02*
D03*
Y1041200D02*
D03*
Y1047700D02*
D03*
Y1054200D02*
D03*
Y1060700D02*
D03*
Y1067200D02*
D03*
X1688497Y1028200D02*
D03*
Y1034700D02*
D03*
Y1041200D02*
D03*
Y1047700D02*
D03*
Y1054200D02*
D03*
Y1060700D02*
D03*
Y1067200D02*
D03*
D88*
X226153Y596452D02*
D03*
X251553Y629352D02*
D03*
X276953Y596452D02*
D03*
X302353Y629352D02*
D03*
X327753Y596452D02*
D03*
X353153Y629352D02*
D03*
X378553Y596452D02*
D03*
X403953Y629352D02*
D03*
X681260Y596452D02*
D03*
X706660Y629352D02*
D03*
X732060Y596452D02*
D03*
X757460Y629352D02*
D03*
X782860Y596452D02*
D03*
X808260Y629352D02*
D03*
X833660Y596452D02*
D03*
X859060Y629352D02*
D03*
X1136368Y596452D02*
D03*
X1161768Y629352D02*
D03*
X1187168Y596452D02*
D03*
X1212568Y629352D02*
D03*
X1237968Y596452D02*
D03*
X1263368Y629352D02*
D03*
X1288768Y596452D02*
D03*
X1314168Y629352D02*
D03*
X1591475Y596452D02*
D03*
X1616875Y629352D02*
D03*
X1642275Y596452D02*
D03*
X1667675Y629352D02*
D03*
X1693075Y596452D02*
D03*
X1718475Y629352D02*
D03*
X1743875Y596452D02*
D03*
X1769275Y629352D02*
D03*
M02*
