G04*
G04 #@! TF.GenerationSoftware,Altium Limited,Altium Designer,18.0.9 (584)*
G04*
G04 Layer_Color=8388736*
%FSLAX44Y44*%
%MOMM*%
G71*
G01*
G75*
%ADD89C,2.6000*%
%ADD90R,2.2032X1.2222*%
%ADD91R,2.2032X2.6032*%
%ADD92R,1.1032X1.1032*%
%ADD93R,0.8032X0.8032*%
%ADD94R,0.8032X0.8032*%
%ADD95R,1.1032X1.1032*%
%ADD96P,2.4087X4X192.3*%
%ADD97P,1.5602X4X192.3*%
%ADD98P,1.5602X4X257.7*%
%ADD99P,2.4087X4X257.7*%
%ADD100R,1.6000X3.4000*%
%ADD101R,1.7032X1.9532*%
%ADD102R,1.4032X3.2032*%
%ADD103R,1.7032X1.7032*%
%ADD104R,0.6032X0.6032*%
%ADD105R,0.6032X0.4032*%
%ADD106R,2.9496X1.0996*%
%ADD107R,1.4001X2.3102*%
%ADD108R,1.2032X1.6032*%
%ADD109R,0.8032X0.7032*%
%ADD110R,1.5032X0.9032*%
%ADD111R,0.7032X0.8032*%
%ADD112R,1.3032X0.8032*%
%ADD113R,1.0162X0.5082*%
%ADD114R,0.5082X1.0162*%
%ADD115R,1.2032X0.9032*%
%ADD116R,0.9032X1.2032*%
%ADD117R,1.9532X0.6532*%
%ADD118R,1.6032X1.0032*%
%ADD119C,1.2032*%
%ADD120C,1.6000*%
%ADD121R,1.6032X1.2032*%
%ADD122R,1.7532X0.8032*%
%ADD123R,2.0032X1.4032*%
G04:AMPARAMS|DCode=124|XSize=1.3032mm|YSize=1.6032mm|CornerRadius=0mm|HoleSize=0mm|Usage=FLASHONLY|Rotation=165.000|XOffset=0mm|YOffset=0mm|HoleType=Round|Shape=Rectangle|*
%AMROTATEDRECTD124*
4,1,4,0.8369,0.6056,0.4219,-0.9429,-0.8369,-0.6056,-0.4219,0.9429,0.8369,0.6056,0.0*
%
%ADD124ROTATEDRECTD124*%

G04:AMPARAMS|DCode=125|XSize=1.3032mm|YSize=1.6032mm|CornerRadius=0mm|HoleSize=0mm|Usage=FLASHONLY|Rotation=127.000|XOffset=0mm|YOffset=0mm|HoleType=Round|Shape=Rectangle|*
%AMROTATEDRECTD125*
4,1,4,1.0323,-0.0380,-0.2480,-1.0028,-1.0323,0.0380,0.2480,1.0028,1.0323,-0.0380,0.0*
%
%ADD125ROTATEDRECTD125*%

G04:AMPARAMS|DCode=126|XSize=1.3032mm|YSize=1.6032mm|CornerRadius=0mm|HoleSize=0mm|Usage=FLASHONLY|Rotation=195.000|XOffset=0mm|YOffset=0mm|HoleType=Round|Shape=Rectangle|*
%AMROTATEDRECTD126*
4,1,4,0.4219,0.9429,0.8369,-0.6056,-0.4219,-0.9429,-0.8369,0.6056,0.4219,0.9429,0.0*
%
%ADD126ROTATEDRECTD126*%

G04:AMPARAMS|DCode=127|XSize=1.3032mm|YSize=1.6032mm|CornerRadius=0mm|HoleSize=0mm|Usage=FLASHONLY|Rotation=230.000|XOffset=0mm|YOffset=0mm|HoleType=Round|Shape=Rectangle|*
%AMROTATEDRECTD127*
4,1,4,-0.1952,1.0144,1.0329,-0.0161,0.1952,-1.0144,-1.0329,0.0161,-0.1952,1.0144,0.0*
%
%ADD127ROTATEDRECTD127*%

%ADD128R,1.6532X0.6532*%
%ADD129C,0.2032*%
%ADD130C,0.9032*%
%ADD131C,1.8034*%
%ADD132C,2.2032*%
%ADD133C,1.9024*%
%ADD134C,1.5028*%
%ADD135C,0.8032*%
%ADD136C,1.2532*%
%ADD137R,1.2532X1.2532*%
D89*
X70000Y70000D02*
D03*
Y1185250D02*
D03*
X1925430Y70000D02*
D03*
D90*
X403893Y559691D02*
D03*
Y544691D02*
D03*
Y529691D02*
D03*
Y514691D02*
D03*
Y499691D02*
D03*
X404501Y295489D02*
D03*
Y310489D02*
D03*
Y325489D02*
D03*
Y340489D02*
D03*
Y355489D02*
D03*
X859000Y559691D02*
D03*
Y544691D02*
D03*
Y529691D02*
D03*
Y514691D02*
D03*
Y499691D02*
D03*
X859608Y295489D02*
D03*
Y310489D02*
D03*
Y325489D02*
D03*
Y340489D02*
D03*
Y355489D02*
D03*
X1314107Y559691D02*
D03*
Y544691D02*
D03*
Y529691D02*
D03*
Y514691D02*
D03*
Y499691D02*
D03*
X1314716Y295489D02*
D03*
Y310489D02*
D03*
Y325489D02*
D03*
Y340489D02*
D03*
Y355489D02*
D03*
X1769215Y559691D02*
D03*
Y544691D02*
D03*
Y529691D02*
D03*
Y514691D02*
D03*
Y499691D02*
D03*
X1769823Y295489D02*
D03*
Y310489D02*
D03*
Y325489D02*
D03*
Y340489D02*
D03*
Y355489D02*
D03*
D91*
X294649Y432852D02*
D03*
X334649D02*
D03*
X749757D02*
D03*
X789757D02*
D03*
X1204864D02*
D03*
X1244864D02*
D03*
X1659972D02*
D03*
X1699972D02*
D03*
D92*
X314993Y665607D02*
D03*
Y649607D02*
D03*
X770100Y665607D02*
D03*
Y649607D02*
D03*
X1225207Y665607D02*
D03*
Y649607D02*
D03*
X1680315Y665607D02*
D03*
Y649607D02*
D03*
D93*
X276385Y429578D02*
D03*
Y440578D02*
D03*
X352077Y443548D02*
D03*
Y432548D02*
D03*
X354305Y892448D02*
D03*
Y881448D02*
D03*
X483395Y198249D02*
D03*
Y209249D02*
D03*
X181201Y610060D02*
D03*
Y599060D02*
D03*
X181551Y775200D02*
D03*
Y764200D02*
D03*
X404801Y865450D02*
D03*
Y854450D02*
D03*
X483751Y822250D02*
D03*
Y833250D02*
D03*
X731492Y429578D02*
D03*
Y440578D02*
D03*
X807184Y443548D02*
D03*
Y432548D02*
D03*
X809412Y892448D02*
D03*
Y881448D02*
D03*
X938502Y198249D02*
D03*
Y209249D02*
D03*
X636308Y610060D02*
D03*
Y599060D02*
D03*
X636658Y775200D02*
D03*
Y764200D02*
D03*
X859908Y865450D02*
D03*
Y854450D02*
D03*
X938858Y822250D02*
D03*
Y833250D02*
D03*
X1186600Y429578D02*
D03*
Y440578D02*
D03*
X1262292Y443548D02*
D03*
Y432548D02*
D03*
X1264520Y892448D02*
D03*
Y881448D02*
D03*
X1393609Y198249D02*
D03*
Y209249D02*
D03*
X1091416Y610060D02*
D03*
Y599060D02*
D03*
X1091766Y775200D02*
D03*
Y764200D02*
D03*
X1315016Y865450D02*
D03*
Y854450D02*
D03*
X1393966Y822250D02*
D03*
Y833250D02*
D03*
X1641707Y429578D02*
D03*
Y440578D02*
D03*
X1717399Y443548D02*
D03*
Y432548D02*
D03*
X1719627Y892448D02*
D03*
Y881448D02*
D03*
X1848717Y198249D02*
D03*
Y209249D02*
D03*
X1546523Y610060D02*
D03*
Y599060D02*
D03*
X1546873Y775200D02*
D03*
Y764200D02*
D03*
X1770123Y865450D02*
D03*
Y854450D02*
D03*
X1849073Y822250D02*
D03*
Y833250D02*
D03*
D94*
X471483Y192648D02*
D03*
X460483D02*
D03*
X437251Y789315D02*
D03*
X426250D02*
D03*
X434067Y193410D02*
D03*
X445067D02*
D03*
X416551Y751450D02*
D03*
X405551D02*
D03*
X322639Y534786D02*
D03*
X311639D02*
D03*
X281551Y282700D02*
D03*
X270551D02*
D03*
X926590Y192648D02*
D03*
X915590D02*
D03*
X892358Y789315D02*
D03*
X881358D02*
D03*
X889174Y193410D02*
D03*
X900174D02*
D03*
X871658Y751450D02*
D03*
X860658D02*
D03*
X777746Y534786D02*
D03*
X766746D02*
D03*
X736658Y282700D02*
D03*
X725658D02*
D03*
X1381698Y192648D02*
D03*
X1370698D02*
D03*
X1347465Y789315D02*
D03*
X1336465D02*
D03*
X1344282Y193410D02*
D03*
X1355282D02*
D03*
X1326766Y751450D02*
D03*
X1315766D02*
D03*
X1232854Y534786D02*
D03*
X1221854D02*
D03*
X1191766Y282700D02*
D03*
X1180766D02*
D03*
X1836805Y192648D02*
D03*
X1825805D02*
D03*
X1802573Y789315D02*
D03*
X1791573D02*
D03*
X1799389Y193410D02*
D03*
X1810389D02*
D03*
X1781873Y751450D02*
D03*
X1770873D02*
D03*
X1687961Y534786D02*
D03*
X1676961D02*
D03*
X1646873Y282700D02*
D03*
X1635873D02*
D03*
D95*
X421750Y773315D02*
D03*
X437751D02*
D03*
X156471Y160500D02*
D03*
X471431Y161750D02*
D03*
X876858Y773315D02*
D03*
X892858D02*
D03*
X611578Y160500D02*
D03*
X926538Y161750D02*
D03*
X1331965Y773315D02*
D03*
X1347965D02*
D03*
X1066686Y160500D02*
D03*
X1381646Y161750D02*
D03*
X1787073Y773315D02*
D03*
X1803073D02*
D03*
X1521793Y160500D02*
D03*
X1836753Y161750D02*
D03*
X302750Y1048000D02*
D03*
X286750D02*
D03*
X408250Y1054200D02*
D03*
X424250D02*
D03*
X297500Y1062250D02*
D03*
X281500D02*
D03*
X295250Y1031250D02*
D03*
X279250D02*
D03*
X408250Y1039950D02*
D03*
X424250D02*
D03*
X757749Y1048000D02*
D03*
X741749D02*
D03*
X863249Y1054200D02*
D03*
X879249D02*
D03*
X752499Y1062250D02*
D03*
X736499D02*
D03*
X750249Y1031250D02*
D03*
X734249D02*
D03*
X863249Y1039950D02*
D03*
X879249D02*
D03*
X1212748Y1048000D02*
D03*
X1196748D02*
D03*
X1318248Y1054200D02*
D03*
X1334248D02*
D03*
X1207498Y1062250D02*
D03*
X1191498D02*
D03*
X1205248Y1031250D02*
D03*
X1189248D02*
D03*
X1318248Y1039950D02*
D03*
X1334248D02*
D03*
X1667748Y1048000D02*
D03*
X1651748D02*
D03*
X1773247Y1054200D02*
D03*
X1789247D02*
D03*
X1662498Y1062250D02*
D03*
X1646498D02*
D03*
X1660248Y1031250D02*
D03*
X1644248D02*
D03*
X1773247Y1039950D02*
D03*
X1789247D02*
D03*
D96*
X471551Y891321D02*
D03*
X442085Y910209D02*
D03*
X926658Y891321D02*
D03*
X897192Y910209D02*
D03*
X1381766Y891321D02*
D03*
X1352300Y910209D02*
D03*
X1836873Y891321D02*
D03*
X1807407Y910209D02*
D03*
D97*
X453310Y895293D02*
D03*
X908418D02*
D03*
X1363525D02*
D03*
X1818632D02*
D03*
D98*
X176253Y895274D02*
D03*
X631360D02*
D03*
X1086468D02*
D03*
X1541575D02*
D03*
D99*
X158012Y891302D02*
D03*
X187478Y910190D02*
D03*
X613119Y891302D02*
D03*
X642586Y910190D02*
D03*
X1068227Y891302D02*
D03*
X1097693Y910190D02*
D03*
X1523334Y891302D02*
D03*
X1552800Y910190D02*
D03*
D100*
X407051Y152200D02*
D03*
X382051D02*
D03*
X862158D02*
D03*
X837158D02*
D03*
X1317266D02*
D03*
X1292266D02*
D03*
X1772373D02*
D03*
X1747373D02*
D03*
D101*
X336273Y724802D02*
D03*
Y687302D02*
D03*
X293773Y725052D02*
D03*
Y687552D02*
D03*
X791380Y724802D02*
D03*
Y687302D02*
D03*
X748880Y725052D02*
D03*
Y687552D02*
D03*
X1246488Y724802D02*
D03*
Y687302D02*
D03*
X1203988Y725052D02*
D03*
Y687552D02*
D03*
X1701595Y724802D02*
D03*
Y687302D02*
D03*
X1659095Y725052D02*
D03*
Y687552D02*
D03*
D102*
X302691Y958730D02*
D03*
X327691D02*
D03*
X757798D02*
D03*
X782798D02*
D03*
X1212906D02*
D03*
X1237906D02*
D03*
X1668013D02*
D03*
X1693013D02*
D03*
D103*
X138971Y154000D02*
D03*
X173971D02*
D03*
X488931Y155250D02*
D03*
X453931D02*
D03*
X594078Y154000D02*
D03*
X629078D02*
D03*
X944038Y155250D02*
D03*
X909038D02*
D03*
X1049186Y154000D02*
D03*
X1084186D02*
D03*
X1399146Y155250D02*
D03*
X1364146D02*
D03*
X1504293Y154000D02*
D03*
X1539293D02*
D03*
X1854253Y155250D02*
D03*
X1819253D02*
D03*
D104*
X321389Y700184D02*
D03*
Y712184D02*
D03*
X308389D02*
D03*
Y700184D02*
D03*
X776496D02*
D03*
Y712184D02*
D03*
X763496D02*
D03*
Y700184D02*
D03*
X1231604D02*
D03*
Y712184D02*
D03*
X1218604D02*
D03*
Y700184D02*
D03*
X1686711D02*
D03*
Y712184D02*
D03*
X1673711D02*
D03*
Y700184D02*
D03*
D105*
X321389Y706184D02*
D03*
X308389D02*
D03*
X776496D02*
D03*
X763496D02*
D03*
X1231604D02*
D03*
X1218604D02*
D03*
X1686711D02*
D03*
X1673711D02*
D03*
D106*
X264463Y906252D02*
D03*
Y893552D02*
D03*
Y880852D02*
D03*
X229963Y906252D02*
D03*
Y893552D02*
D03*
Y880852D02*
D03*
X719570Y906252D02*
D03*
Y893552D02*
D03*
Y880852D02*
D03*
X685070Y906252D02*
D03*
Y893552D02*
D03*
Y880852D02*
D03*
X1174678Y906252D02*
D03*
Y893552D02*
D03*
Y880852D02*
D03*
X1140178Y906252D02*
D03*
Y893552D02*
D03*
Y880852D02*
D03*
X1629785Y906252D02*
D03*
Y893552D02*
D03*
Y880852D02*
D03*
X1595285Y906252D02*
D03*
Y893552D02*
D03*
Y880852D02*
D03*
D107*
X226153Y596452D02*
D03*
X251553Y629352D02*
D03*
X276953Y596452D02*
D03*
X302353Y629352D02*
D03*
X327753Y596452D02*
D03*
X353153Y629352D02*
D03*
X378553Y596452D02*
D03*
X403953Y629352D02*
D03*
X681260Y596452D02*
D03*
X706660Y629352D02*
D03*
X732060Y596452D02*
D03*
X757460Y629352D02*
D03*
X782860Y596452D02*
D03*
X808260Y629352D02*
D03*
X833660Y596452D02*
D03*
X859060Y629352D02*
D03*
X1136368Y596452D02*
D03*
X1161768Y629352D02*
D03*
X1187168Y596452D02*
D03*
X1212568Y629352D02*
D03*
X1237968Y596452D02*
D03*
X1263368Y629352D02*
D03*
X1288768Y596452D02*
D03*
X1314168Y629352D02*
D03*
X1591475Y596452D02*
D03*
X1616875Y629352D02*
D03*
X1642275Y596452D02*
D03*
X1667675Y629352D02*
D03*
X1693075Y596452D02*
D03*
X1718475Y629352D02*
D03*
X1743875Y596452D02*
D03*
X1769275Y629352D02*
D03*
D108*
X138615Y237964D02*
D03*
X157615D02*
D03*
X148115Y215964D02*
D03*
X247301Y474450D02*
D03*
X228301D02*
D03*
X237801Y496450D02*
D03*
X192051Y656450D02*
D03*
X173051D02*
D03*
X182551Y678450D02*
D03*
X223551Y783700D02*
D03*
X204551D02*
D03*
X214051Y805700D02*
D03*
X593722Y237964D02*
D03*
X612722D02*
D03*
X603222Y215964D02*
D03*
X702408Y474450D02*
D03*
X683408D02*
D03*
X692908Y496450D02*
D03*
X647158Y656450D02*
D03*
X628158D02*
D03*
X637658Y678450D02*
D03*
X678658Y783700D02*
D03*
X659658D02*
D03*
X669158Y805700D02*
D03*
X1048830Y237964D02*
D03*
X1067830D02*
D03*
X1058330Y215964D02*
D03*
X1157516Y474450D02*
D03*
X1138516D02*
D03*
X1148016Y496450D02*
D03*
X1102266Y656450D02*
D03*
X1083266D02*
D03*
X1092766Y678450D02*
D03*
X1133766Y783700D02*
D03*
X1114766D02*
D03*
X1124266Y805700D02*
D03*
X1503937Y237964D02*
D03*
X1522937D02*
D03*
X1513437Y215964D02*
D03*
X1612623Y474450D02*
D03*
X1593623D02*
D03*
X1603123Y496450D02*
D03*
X1557373Y656450D02*
D03*
X1538373D02*
D03*
X1547873Y678450D02*
D03*
X1588873Y783700D02*
D03*
X1569873D02*
D03*
X1579373Y805700D02*
D03*
D109*
X329470Y647481D02*
D03*
Y657481D02*
D03*
X337033Y886354D02*
D03*
Y876354D02*
D03*
X362001Y659000D02*
D03*
Y669000D02*
D03*
X271251Y659000D02*
D03*
Y669000D02*
D03*
X327751Y918565D02*
D03*
Y928565D02*
D03*
X174091Y214152D02*
D03*
Y224152D02*
D03*
X174751Y248000D02*
D03*
Y238000D02*
D03*
X460095Y793874D02*
D03*
Y803874D02*
D03*
X204251Y507565D02*
D03*
Y517565D02*
D03*
X215751Y507565D02*
D03*
Y517565D02*
D03*
X237023Y449302D02*
D03*
Y459302D02*
D03*
X247273Y449302D02*
D03*
Y459302D02*
D03*
X430055Y507113D02*
D03*
Y517113D02*
D03*
X430051Y484200D02*
D03*
Y494200D02*
D03*
X239877Y853150D02*
D03*
Y843150D02*
D03*
X159037Y677039D02*
D03*
Y667039D02*
D03*
X225859Y704586D02*
D03*
Y694586D02*
D03*
X181051Y750200D02*
D03*
Y740200D02*
D03*
X191250Y750315D02*
D03*
Y740315D02*
D03*
X181500Y808315D02*
D03*
Y818315D02*
D03*
Y796815D02*
D03*
Y786815D02*
D03*
X480881Y686076D02*
D03*
Y696076D02*
D03*
X255075Y271548D02*
D03*
Y281548D02*
D03*
X477579Y620638D02*
D03*
Y630638D02*
D03*
X427051Y632700D02*
D03*
Y642700D02*
D03*
X477501Y609250D02*
D03*
Y599250D02*
D03*
X784578Y647481D02*
D03*
Y657481D02*
D03*
X792140Y886354D02*
D03*
Y876354D02*
D03*
X817108Y659000D02*
D03*
Y669000D02*
D03*
X726358Y659000D02*
D03*
Y669000D02*
D03*
X782858Y918565D02*
D03*
Y928565D02*
D03*
X629198Y214152D02*
D03*
Y224152D02*
D03*
X629858Y248000D02*
D03*
Y238000D02*
D03*
X915202Y793874D02*
D03*
Y803874D02*
D03*
X659358Y507565D02*
D03*
Y517565D02*
D03*
X670858Y507565D02*
D03*
Y517565D02*
D03*
X692130Y449302D02*
D03*
Y459302D02*
D03*
X702380Y449302D02*
D03*
Y459302D02*
D03*
X885162Y507113D02*
D03*
Y517113D02*
D03*
X885158Y484200D02*
D03*
Y494200D02*
D03*
X694984Y853150D02*
D03*
Y843150D02*
D03*
X614144Y677039D02*
D03*
Y667039D02*
D03*
X680966Y704586D02*
D03*
Y694586D02*
D03*
X636158Y750200D02*
D03*
Y740200D02*
D03*
X646358Y750315D02*
D03*
Y740315D02*
D03*
X636608Y808315D02*
D03*
Y818315D02*
D03*
Y796815D02*
D03*
Y786815D02*
D03*
X935988Y686076D02*
D03*
Y696076D02*
D03*
X710182Y271548D02*
D03*
Y281548D02*
D03*
X932686Y620638D02*
D03*
Y630638D02*
D03*
X882158Y632700D02*
D03*
Y642700D02*
D03*
X932608Y609250D02*
D03*
Y599250D02*
D03*
X1239685Y647481D02*
D03*
Y657481D02*
D03*
X1247248Y886354D02*
D03*
Y876354D02*
D03*
X1272216Y659000D02*
D03*
Y669000D02*
D03*
X1181466Y659000D02*
D03*
Y669000D02*
D03*
X1237965Y918565D02*
D03*
Y928565D02*
D03*
X1084306Y214152D02*
D03*
Y224152D02*
D03*
X1084966Y248000D02*
D03*
Y238000D02*
D03*
X1370310Y793874D02*
D03*
Y803874D02*
D03*
X1114465Y507565D02*
D03*
Y517565D02*
D03*
X1125965Y507565D02*
D03*
Y517565D02*
D03*
X1147238Y449302D02*
D03*
Y459302D02*
D03*
X1157488Y449302D02*
D03*
Y459302D02*
D03*
X1340269Y507113D02*
D03*
Y517113D02*
D03*
X1340266Y484200D02*
D03*
Y494200D02*
D03*
X1150092Y853150D02*
D03*
Y843150D02*
D03*
X1069251Y677039D02*
D03*
Y667039D02*
D03*
X1136074Y704586D02*
D03*
Y694586D02*
D03*
X1091266Y750200D02*
D03*
Y740200D02*
D03*
X1101465Y750315D02*
D03*
Y740315D02*
D03*
X1091715Y808315D02*
D03*
Y818315D02*
D03*
Y796815D02*
D03*
Y786815D02*
D03*
X1391096Y686076D02*
D03*
Y696076D02*
D03*
X1165290Y271548D02*
D03*
Y281548D02*
D03*
X1387794Y620638D02*
D03*
Y630638D02*
D03*
X1337266Y632700D02*
D03*
Y642700D02*
D03*
X1387716Y609250D02*
D03*
Y599250D02*
D03*
X1694793Y647481D02*
D03*
Y657481D02*
D03*
X1702355Y886354D02*
D03*
Y876354D02*
D03*
X1727323Y659000D02*
D03*
Y669000D02*
D03*
X1636573Y659000D02*
D03*
Y669000D02*
D03*
X1693073Y918565D02*
D03*
Y928565D02*
D03*
X1539413Y214152D02*
D03*
Y224152D02*
D03*
X1540073Y248000D02*
D03*
Y238000D02*
D03*
X1825417Y793874D02*
D03*
Y803874D02*
D03*
X1569573Y507565D02*
D03*
Y517565D02*
D03*
X1581073Y507565D02*
D03*
Y517565D02*
D03*
X1602345Y449302D02*
D03*
Y459302D02*
D03*
X1612595Y449302D02*
D03*
Y459302D02*
D03*
X1795377Y507113D02*
D03*
Y517113D02*
D03*
X1795373Y484200D02*
D03*
Y494200D02*
D03*
X1605199Y853150D02*
D03*
Y843150D02*
D03*
X1524359Y677039D02*
D03*
Y667039D02*
D03*
X1591181Y704586D02*
D03*
Y694586D02*
D03*
X1546373Y750200D02*
D03*
Y740200D02*
D03*
X1556573Y750315D02*
D03*
Y740315D02*
D03*
X1546823Y808315D02*
D03*
Y818315D02*
D03*
Y796815D02*
D03*
Y786815D02*
D03*
X1846203Y686076D02*
D03*
Y696076D02*
D03*
X1620397Y271548D02*
D03*
Y281548D02*
D03*
X1842901Y620638D02*
D03*
Y630638D02*
D03*
X1792373Y632700D02*
D03*
Y642700D02*
D03*
X1842823Y609250D02*
D03*
Y599250D02*
D03*
X460250Y1013500D02*
D03*
Y1023500D02*
D03*
X449750Y1015250D02*
D03*
Y1025250D02*
D03*
X431750Y1027000D02*
D03*
Y1017000D02*
D03*
X420500Y1027000D02*
D03*
Y1017000D02*
D03*
X277250Y1092750D02*
D03*
Y1082750D02*
D03*
X386500Y1091500D02*
D03*
Y1081500D02*
D03*
X266500Y1092750D02*
D03*
Y1082750D02*
D03*
X350000Y1092500D02*
D03*
Y1082500D02*
D03*
X915249Y1013500D02*
D03*
Y1023500D02*
D03*
X904749Y1015250D02*
D03*
Y1025250D02*
D03*
X886749Y1027000D02*
D03*
Y1017000D02*
D03*
X875499Y1027000D02*
D03*
Y1017000D02*
D03*
X732249Y1092750D02*
D03*
Y1082750D02*
D03*
X841499Y1091500D02*
D03*
Y1081500D02*
D03*
X721499Y1092750D02*
D03*
Y1082750D02*
D03*
X804999Y1092500D02*
D03*
Y1082500D02*
D03*
X1370248Y1013500D02*
D03*
Y1023500D02*
D03*
X1359748Y1015250D02*
D03*
Y1025250D02*
D03*
X1341748Y1027000D02*
D03*
Y1017000D02*
D03*
X1330498Y1027000D02*
D03*
Y1017000D02*
D03*
X1187248Y1092750D02*
D03*
Y1082750D02*
D03*
X1296498Y1091500D02*
D03*
Y1081500D02*
D03*
X1176498Y1092750D02*
D03*
Y1082750D02*
D03*
X1259998Y1092500D02*
D03*
Y1082500D02*
D03*
X1825248Y1013500D02*
D03*
Y1023500D02*
D03*
X1814748Y1015250D02*
D03*
Y1025250D02*
D03*
X1796748Y1027000D02*
D03*
Y1017000D02*
D03*
X1785498Y1027000D02*
D03*
Y1017000D02*
D03*
X1642248Y1092750D02*
D03*
Y1082750D02*
D03*
X1751498Y1091500D02*
D03*
Y1081500D02*
D03*
X1631498Y1092750D02*
D03*
Y1082750D02*
D03*
X1714998Y1092500D02*
D03*
Y1082500D02*
D03*
D110*
X318551Y876450D02*
D03*
Y895450D02*
D03*
X773658Y876450D02*
D03*
Y895450D02*
D03*
X1228766Y876450D02*
D03*
Y895450D02*
D03*
X1683873Y876450D02*
D03*
Y895450D02*
D03*
D111*
X169171Y199768D02*
D03*
X179171D02*
D03*
X371381Y461836D02*
D03*
X381381D02*
D03*
X371287Y472504D02*
D03*
X381287D02*
D03*
X483395Y809373D02*
D03*
X473395D02*
D03*
X482057Y230240D02*
D03*
X492057D02*
D03*
X482124Y241937D02*
D03*
X492124D02*
D03*
X398801Y774700D02*
D03*
X408801D02*
D03*
X483140Y790577D02*
D03*
X473140D02*
D03*
X230501Y531815D02*
D03*
X240501D02*
D03*
X211801Y662950D02*
D03*
X221801D02*
D03*
X161000Y858565D02*
D03*
X171000D02*
D03*
Y847065D02*
D03*
X161000D02*
D03*
X214501Y679315D02*
D03*
X204501D02*
D03*
X462660Y824359D02*
D03*
X452660D02*
D03*
X412051Y895950D02*
D03*
X402051D02*
D03*
X441645Y657481D02*
D03*
X451645D02*
D03*
X483140Y772035D02*
D03*
X473140D02*
D03*
X284627Y261516D02*
D03*
X274627D02*
D03*
X255329Y261482D02*
D03*
X265329D02*
D03*
X459011Y591949D02*
D03*
X449011D02*
D03*
X624278Y199768D02*
D03*
X634278D02*
D03*
X826488Y461836D02*
D03*
X836488D02*
D03*
X826394Y472504D02*
D03*
X836394D02*
D03*
X938502Y809373D02*
D03*
X928502D02*
D03*
X937164Y230240D02*
D03*
X947164D02*
D03*
X937232Y241937D02*
D03*
X947232D02*
D03*
X853908Y774700D02*
D03*
X863908D02*
D03*
X938248Y790577D02*
D03*
X928248D02*
D03*
X685608Y531815D02*
D03*
X695608D02*
D03*
X666908Y662950D02*
D03*
X676908D02*
D03*
X616108Y858565D02*
D03*
X626108D02*
D03*
Y847065D02*
D03*
X616108D02*
D03*
X669608Y679315D02*
D03*
X659608D02*
D03*
X917768Y824359D02*
D03*
X907768D02*
D03*
X867158Y895950D02*
D03*
X857158D02*
D03*
X896752Y657481D02*
D03*
X906752D02*
D03*
X938248Y772035D02*
D03*
X928248D02*
D03*
X739734Y261516D02*
D03*
X729734D02*
D03*
X710436Y261482D02*
D03*
X720436D02*
D03*
X914118Y591949D02*
D03*
X904118D02*
D03*
X1079386Y199768D02*
D03*
X1089386D02*
D03*
X1281596Y461836D02*
D03*
X1291596D02*
D03*
X1281502Y472504D02*
D03*
X1291502D02*
D03*
X1393609Y809373D02*
D03*
X1383609D02*
D03*
X1392272Y230240D02*
D03*
X1402272D02*
D03*
X1392339Y241937D02*
D03*
X1402339D02*
D03*
X1309016Y774700D02*
D03*
X1319016D02*
D03*
X1393355Y790577D02*
D03*
X1383355D02*
D03*
X1140715Y531815D02*
D03*
X1150715D02*
D03*
X1122016Y662950D02*
D03*
X1132016D02*
D03*
X1071215Y858565D02*
D03*
X1081215D02*
D03*
Y847065D02*
D03*
X1071215D02*
D03*
X1124715Y679315D02*
D03*
X1114715D02*
D03*
X1372875Y824359D02*
D03*
X1362875D02*
D03*
X1322266Y895950D02*
D03*
X1312266D02*
D03*
X1351859Y657481D02*
D03*
X1361859D02*
D03*
X1393355Y772035D02*
D03*
X1383355D02*
D03*
X1194842Y261516D02*
D03*
X1184842D02*
D03*
X1165544Y261482D02*
D03*
X1175544D02*
D03*
X1369225Y591949D02*
D03*
X1359225D02*
D03*
X1534493Y199768D02*
D03*
X1544493D02*
D03*
X1736703Y461836D02*
D03*
X1746703D02*
D03*
X1736609Y472504D02*
D03*
X1746609D02*
D03*
X1848717Y809373D02*
D03*
X1838717D02*
D03*
X1847379Y230240D02*
D03*
X1857379D02*
D03*
X1847447Y241937D02*
D03*
X1857447D02*
D03*
X1764123Y774700D02*
D03*
X1774123D02*
D03*
X1848463Y790577D02*
D03*
X1838463D02*
D03*
X1595823Y531815D02*
D03*
X1605823D02*
D03*
X1577123Y662950D02*
D03*
X1587123D02*
D03*
X1526323Y858565D02*
D03*
X1536323D02*
D03*
Y847065D02*
D03*
X1526323D02*
D03*
X1579823Y679315D02*
D03*
X1569823D02*
D03*
X1827983Y824359D02*
D03*
X1817983D02*
D03*
X1777373Y895950D02*
D03*
X1767373D02*
D03*
X1806967Y657481D02*
D03*
X1816967D02*
D03*
X1848463Y772035D02*
D03*
X1838463D02*
D03*
X1649949Y261516D02*
D03*
X1639949D02*
D03*
X1620651Y261482D02*
D03*
X1630651D02*
D03*
X1824333Y591949D02*
D03*
X1814333D02*
D03*
X409000Y1018000D02*
D03*
X399000D02*
D03*
X365692Y1119994D02*
D03*
X375692D02*
D03*
X375500Y1085000D02*
D03*
X365500D02*
D03*
Y1102000D02*
D03*
X375500D02*
D03*
X446749Y1052750D02*
D03*
X436749D02*
D03*
X449249Y1070250D02*
D03*
X439249D02*
D03*
X216750Y1018750D02*
D03*
X226750D02*
D03*
X373000Y1014500D02*
D03*
X383000D02*
D03*
X328862Y1015092D02*
D03*
X318862D02*
D03*
X291750Y1076250D02*
D03*
X301750D02*
D03*
X292750Y1018250D02*
D03*
X302750D02*
D03*
X271500D02*
D03*
X281500D02*
D03*
X243750Y1096750D02*
D03*
X253750D02*
D03*
X194656Y1018902D02*
D03*
X204656D02*
D03*
X243750Y1079750D02*
D03*
X253750D02*
D03*
X184250Y1057500D02*
D03*
X194250D02*
D03*
X863999Y1018000D02*
D03*
X853999D02*
D03*
X820691Y1119994D02*
D03*
X830691D02*
D03*
X830499Y1085000D02*
D03*
X820499D02*
D03*
Y1102000D02*
D03*
X830499D02*
D03*
X901748Y1052750D02*
D03*
X891748D02*
D03*
X904248Y1070250D02*
D03*
X894248D02*
D03*
X671749Y1018750D02*
D03*
X681749D02*
D03*
X827999Y1014500D02*
D03*
X837999D02*
D03*
X783861Y1015092D02*
D03*
X773861D02*
D03*
X746749Y1076250D02*
D03*
X756749D02*
D03*
X747749Y1018250D02*
D03*
X757749D02*
D03*
X726499D02*
D03*
X736499D02*
D03*
X698749Y1096750D02*
D03*
X708749D02*
D03*
X649655Y1018902D02*
D03*
X659655D02*
D03*
X698749Y1079750D02*
D03*
X708749D02*
D03*
X639249Y1057500D02*
D03*
X649249D02*
D03*
X1318998Y1018000D02*
D03*
X1308998D02*
D03*
X1275690Y1119994D02*
D03*
X1285690D02*
D03*
X1285498Y1085000D02*
D03*
X1275498D02*
D03*
Y1102000D02*
D03*
X1285498D02*
D03*
X1356748Y1052750D02*
D03*
X1346748D02*
D03*
X1359248Y1070250D02*
D03*
X1349248D02*
D03*
X1126748Y1018750D02*
D03*
X1136748D02*
D03*
X1282998Y1014500D02*
D03*
X1292998D02*
D03*
X1238860Y1015092D02*
D03*
X1228860D02*
D03*
X1201748Y1076250D02*
D03*
X1211748D02*
D03*
X1202748Y1018250D02*
D03*
X1212748D02*
D03*
X1181498D02*
D03*
X1191498D02*
D03*
X1153748Y1096750D02*
D03*
X1163748D02*
D03*
X1104654Y1018902D02*
D03*
X1114654D02*
D03*
X1153748Y1079750D02*
D03*
X1163748D02*
D03*
X1094248Y1057500D02*
D03*
X1104248D02*
D03*
X1773998Y1018000D02*
D03*
X1763998D02*
D03*
X1730689Y1119994D02*
D03*
X1740689D02*
D03*
X1740498Y1085000D02*
D03*
X1730498D02*
D03*
Y1102000D02*
D03*
X1740498D02*
D03*
X1811747Y1052750D02*
D03*
X1801747D02*
D03*
X1814247Y1070250D02*
D03*
X1804247D02*
D03*
X1581748Y1018750D02*
D03*
X1591748D02*
D03*
X1737998Y1014500D02*
D03*
X1747998D02*
D03*
X1693859Y1015092D02*
D03*
X1683859D02*
D03*
X1656748Y1076250D02*
D03*
X1666748D02*
D03*
X1657748Y1018250D02*
D03*
X1667748D02*
D03*
X1636498D02*
D03*
X1646498D02*
D03*
X1608748Y1096750D02*
D03*
X1618748D02*
D03*
X1559653Y1018902D02*
D03*
X1569653D02*
D03*
X1608748Y1079750D02*
D03*
X1618748D02*
D03*
X1549248Y1057500D02*
D03*
X1559248D02*
D03*
D112*
X403051Y826700D02*
D03*
Y817200D02*
D03*
Y807700D02*
D03*
X431051D02*
D03*
Y826700D02*
D03*
X434695Y863064D02*
D03*
Y853564D02*
D03*
Y844064D02*
D03*
X462695D02*
D03*
Y863064D02*
D03*
X858158Y826700D02*
D03*
Y817200D02*
D03*
Y807700D02*
D03*
X886158D02*
D03*
Y826700D02*
D03*
X889802Y863064D02*
D03*
Y853564D02*
D03*
Y844064D02*
D03*
X917802D02*
D03*
Y863064D02*
D03*
X1313266Y826700D02*
D03*
Y817200D02*
D03*
Y807700D02*
D03*
X1341266D02*
D03*
Y826700D02*
D03*
X1344910Y863064D02*
D03*
Y853564D02*
D03*
Y844064D02*
D03*
X1372910D02*
D03*
Y863064D02*
D03*
X1768373Y826700D02*
D03*
Y817200D02*
D03*
Y807700D02*
D03*
X1796373D02*
D03*
Y826700D02*
D03*
X1800017Y863064D02*
D03*
Y853564D02*
D03*
Y844064D02*
D03*
X1828017D02*
D03*
Y863064D02*
D03*
D113*
X467303Y221452D02*
D03*
Y226452D02*
D03*
Y231452D02*
D03*
Y216452D02*
D03*
Y211452D02*
D03*
X441803Y221452D02*
D03*
Y216452D02*
D03*
Y211452D02*
D03*
Y226452D02*
D03*
Y231452D02*
D03*
X922410Y221452D02*
D03*
Y226452D02*
D03*
Y231452D02*
D03*
Y216452D02*
D03*
Y211452D02*
D03*
X896910Y221452D02*
D03*
Y216452D02*
D03*
Y211452D02*
D03*
Y226452D02*
D03*
Y231452D02*
D03*
X1377518Y221452D02*
D03*
Y226452D02*
D03*
Y231452D02*
D03*
Y216452D02*
D03*
Y211452D02*
D03*
X1352018Y221452D02*
D03*
Y216452D02*
D03*
Y211452D02*
D03*
Y226452D02*
D03*
Y231452D02*
D03*
X1832625Y221452D02*
D03*
Y226452D02*
D03*
Y231452D02*
D03*
Y216452D02*
D03*
Y211452D02*
D03*
X1807125Y221452D02*
D03*
Y216452D02*
D03*
Y211452D02*
D03*
Y226452D02*
D03*
Y231452D02*
D03*
D114*
X454553Y208702D02*
D03*
X459553D02*
D03*
X449553D02*
D03*
Y234202D02*
D03*
X459553D02*
D03*
X454553D02*
D03*
X909660Y208702D02*
D03*
X914660D02*
D03*
X904660D02*
D03*
Y234202D02*
D03*
X914660D02*
D03*
X909660D02*
D03*
X1364768Y208702D02*
D03*
X1369768D02*
D03*
X1359768D02*
D03*
Y234202D02*
D03*
X1369768D02*
D03*
X1364768D02*
D03*
X1819875Y208702D02*
D03*
X1824875D02*
D03*
X1814875D02*
D03*
Y234202D02*
D03*
X1824875D02*
D03*
X1819875D02*
D03*
D115*
X218541Y834158D02*
D03*
Y843658D02*
D03*
Y853158D02*
D03*
X192541Y843658D02*
D03*
Y853158D02*
D03*
Y834158D02*
D03*
X138391Y695348D02*
D03*
Y714348D02*
D03*
Y704848D02*
D03*
X164391Y714348D02*
D03*
Y704848D02*
D03*
Y695348D02*
D03*
X673648Y834158D02*
D03*
Y843658D02*
D03*
Y853158D02*
D03*
X647648Y843658D02*
D03*
Y853158D02*
D03*
Y834158D02*
D03*
X593498Y695348D02*
D03*
Y714348D02*
D03*
Y704848D02*
D03*
X619498Y714348D02*
D03*
Y704848D02*
D03*
Y695348D02*
D03*
X1128756Y834158D02*
D03*
Y843658D02*
D03*
Y853158D02*
D03*
X1102756Y843658D02*
D03*
Y853158D02*
D03*
Y834158D02*
D03*
X1048606Y695348D02*
D03*
Y714348D02*
D03*
Y704848D02*
D03*
X1074606Y714348D02*
D03*
Y704848D02*
D03*
Y695348D02*
D03*
X1583863Y834158D02*
D03*
Y843658D02*
D03*
Y853158D02*
D03*
X1557863Y843658D02*
D03*
Y853158D02*
D03*
Y834158D02*
D03*
X1503713Y695348D02*
D03*
Y714348D02*
D03*
Y704848D02*
D03*
X1529713Y714348D02*
D03*
Y704848D02*
D03*
Y695348D02*
D03*
D116*
X461213Y639696D02*
D03*
X451713D02*
D03*
X442213D02*
D03*
X451713Y613696D02*
D03*
X442213D02*
D03*
X461213D02*
D03*
X916320Y639696D02*
D03*
X906820D02*
D03*
X897320D02*
D03*
X906820Y613696D02*
D03*
X897320D02*
D03*
X916320D02*
D03*
X1371428Y639696D02*
D03*
X1361928D02*
D03*
X1352428D02*
D03*
X1361928Y613696D02*
D03*
X1352428D02*
D03*
X1371428D02*
D03*
X1826535Y639696D02*
D03*
X1817035D02*
D03*
X1807535D02*
D03*
X1817035Y613696D02*
D03*
X1807535D02*
D03*
X1826535D02*
D03*
D117*
X351129Y517198D02*
D03*
Y510698D02*
D03*
Y504198D02*
D03*
Y497698D02*
D03*
Y491198D02*
D03*
Y484698D02*
D03*
Y458698D02*
D03*
Y465198D02*
D03*
Y471698D02*
D03*
Y478198D02*
D03*
X279129D02*
D03*
Y471698D02*
D03*
Y465198D02*
D03*
Y458698D02*
D03*
Y484698D02*
D03*
Y491198D02*
D03*
Y497698D02*
D03*
Y504198D02*
D03*
Y510698D02*
D03*
Y517198D02*
D03*
X806236D02*
D03*
Y510698D02*
D03*
Y504198D02*
D03*
Y497698D02*
D03*
Y491198D02*
D03*
Y484698D02*
D03*
Y458698D02*
D03*
Y465198D02*
D03*
Y471698D02*
D03*
Y478198D02*
D03*
X734236D02*
D03*
Y471698D02*
D03*
Y465198D02*
D03*
Y458698D02*
D03*
Y484698D02*
D03*
Y491198D02*
D03*
Y497698D02*
D03*
Y504198D02*
D03*
Y510698D02*
D03*
Y517198D02*
D03*
X1261344D02*
D03*
Y510698D02*
D03*
Y504198D02*
D03*
Y497698D02*
D03*
Y491198D02*
D03*
Y484698D02*
D03*
Y458698D02*
D03*
Y465198D02*
D03*
Y471698D02*
D03*
Y478198D02*
D03*
X1189344D02*
D03*
Y471698D02*
D03*
Y465198D02*
D03*
Y458698D02*
D03*
Y484698D02*
D03*
Y491198D02*
D03*
Y497698D02*
D03*
Y504198D02*
D03*
Y510698D02*
D03*
Y517198D02*
D03*
X1716451D02*
D03*
Y510698D02*
D03*
Y504198D02*
D03*
Y497698D02*
D03*
Y491198D02*
D03*
Y484698D02*
D03*
Y458698D02*
D03*
Y465198D02*
D03*
Y471698D02*
D03*
Y478198D02*
D03*
X1644451D02*
D03*
Y471698D02*
D03*
Y465198D02*
D03*
Y458698D02*
D03*
Y484698D02*
D03*
Y491198D02*
D03*
Y497698D02*
D03*
Y504198D02*
D03*
Y510698D02*
D03*
Y517198D02*
D03*
D118*
X181051Y486200D02*
D03*
Y500200D02*
D03*
Y514200D02*
D03*
Y528200D02*
D03*
X449051Y486200D02*
D03*
Y500200D02*
D03*
Y514200D02*
D03*
Y528200D02*
D03*
X636158Y486200D02*
D03*
Y500200D02*
D03*
Y514200D02*
D03*
Y528200D02*
D03*
X904158Y486200D02*
D03*
Y500200D02*
D03*
Y514200D02*
D03*
Y528200D02*
D03*
X1091266Y486200D02*
D03*
Y500200D02*
D03*
Y514200D02*
D03*
Y528200D02*
D03*
X1359266Y486200D02*
D03*
Y500200D02*
D03*
Y514200D02*
D03*
Y528200D02*
D03*
X1546373Y486200D02*
D03*
Y500200D02*
D03*
Y514200D02*
D03*
Y528200D02*
D03*
X1814373Y486200D02*
D03*
Y500200D02*
D03*
Y514200D02*
D03*
Y528200D02*
D03*
D119*
X368333Y566738D02*
D03*
X380017Y828104D02*
D03*
X314739Y566738D02*
D03*
X294751Y272983D02*
D03*
X341663Y566738D02*
D03*
X287815D02*
D03*
X279750Y826565D02*
D03*
X823440Y566738D02*
D03*
X835124Y828104D02*
D03*
X769846Y566738D02*
D03*
X749858Y272983D02*
D03*
X796770Y566738D02*
D03*
X742922D02*
D03*
X734858Y826565D02*
D03*
X1278548Y566738D02*
D03*
X1290232Y828104D02*
D03*
X1224954Y566738D02*
D03*
X1204966Y272983D02*
D03*
X1251878Y566738D02*
D03*
X1198030D02*
D03*
X1189965Y826565D02*
D03*
X1733655Y566738D02*
D03*
X1745339Y828104D02*
D03*
X1680061Y566738D02*
D03*
X1660073Y272983D02*
D03*
X1706985Y566738D02*
D03*
X1653137D02*
D03*
X1645073Y826565D02*
D03*
X406750Y1068500D02*
D03*
X494499Y1015750D02*
D03*
X194250Y1037750D02*
D03*
X276030Y1118216D02*
D03*
X220250Y1066500D02*
D03*
X214500Y1048250D02*
D03*
X255750Y1118250D02*
D03*
X861749Y1068500D02*
D03*
X949498Y1015750D02*
D03*
X649249Y1037750D02*
D03*
X731029Y1118216D02*
D03*
X675249Y1066500D02*
D03*
X669499Y1048250D02*
D03*
X710749Y1118250D02*
D03*
X1316748Y1068500D02*
D03*
X1404498Y1015750D02*
D03*
X1104248Y1037750D02*
D03*
X1186028Y1118216D02*
D03*
X1130248Y1066500D02*
D03*
X1124498Y1048250D02*
D03*
X1165748Y1118250D02*
D03*
X1771748Y1068500D02*
D03*
X1859497Y1015750D02*
D03*
X1559248Y1037750D02*
D03*
X1641027Y1118216D02*
D03*
X1585248Y1066500D02*
D03*
X1579498Y1048250D02*
D03*
X1620748Y1118250D02*
D03*
D120*
X144523Y191052D02*
D03*
X440241Y885560D02*
D03*
X599630Y191052D02*
D03*
X895348Y885560D02*
D03*
X1054738Y191052D02*
D03*
X1350456Y885560D02*
D03*
X1509845Y191052D02*
D03*
X1805563Y885560D02*
D03*
X459499Y1059500D02*
D03*
X175499Y1021000D02*
D03*
X914498Y1059500D02*
D03*
X630498Y1021000D02*
D03*
X1369498Y1059500D02*
D03*
X1085498Y1021000D02*
D03*
X1824497Y1059500D02*
D03*
X1540497Y1021000D02*
D03*
D121*
X187349Y704898D02*
D03*
Y723898D02*
D03*
X209349Y714398D02*
D03*
X165001Y824500D02*
D03*
Y805500D02*
D03*
X143001Y815000D02*
D03*
X460307Y695264D02*
D03*
Y676264D02*
D03*
X438307Y685764D02*
D03*
X642456Y704898D02*
D03*
Y723898D02*
D03*
X664456Y714398D02*
D03*
X620108Y824500D02*
D03*
Y805500D02*
D03*
X598108Y815000D02*
D03*
X915414Y695264D02*
D03*
Y676264D02*
D03*
X893414Y685764D02*
D03*
X1097564Y704898D02*
D03*
Y723898D02*
D03*
X1119564Y714398D02*
D03*
X1075216Y824500D02*
D03*
Y805500D02*
D03*
X1053216Y815000D02*
D03*
X1370522Y695264D02*
D03*
Y676264D02*
D03*
X1348522Y685764D02*
D03*
X1552671Y704898D02*
D03*
Y723898D02*
D03*
X1574671Y714398D02*
D03*
X1530323Y824500D02*
D03*
Y805500D02*
D03*
X1508323Y815000D02*
D03*
X1825629Y695264D02*
D03*
Y676264D02*
D03*
X1803629Y685764D02*
D03*
D122*
X162511Y609610D02*
D03*
Y599610D02*
D03*
Y774200D02*
D03*
Y764200D02*
D03*
X467801Y727450D02*
D03*
Y737450D02*
D03*
X617618Y609610D02*
D03*
Y599610D02*
D03*
Y774200D02*
D03*
Y764200D02*
D03*
X922908Y727450D02*
D03*
Y737450D02*
D03*
X1072726Y609610D02*
D03*
Y599610D02*
D03*
Y774200D02*
D03*
Y764200D02*
D03*
X1378016Y727450D02*
D03*
Y737450D02*
D03*
X1527833Y609610D02*
D03*
Y599610D02*
D03*
Y774200D02*
D03*
Y764200D02*
D03*
X1833123Y727450D02*
D03*
Y737450D02*
D03*
D123*
X137261Y622610D02*
D03*
Y586610D02*
D03*
Y787200D02*
D03*
Y751200D02*
D03*
X493051Y714450D02*
D03*
Y750450D02*
D03*
X592368Y622610D02*
D03*
Y586610D02*
D03*
Y787200D02*
D03*
Y751200D02*
D03*
X948158Y714450D02*
D03*
Y750450D02*
D03*
X1047476Y622610D02*
D03*
Y586610D02*
D03*
Y787200D02*
D03*
Y751200D02*
D03*
X1403266Y714450D02*
D03*
Y750450D02*
D03*
X1502583Y622610D02*
D03*
Y586610D02*
D03*
Y787200D02*
D03*
Y751200D02*
D03*
X1858373Y714450D02*
D03*
Y750450D02*
D03*
D124*
X427370Y1079390D02*
D03*
X409017Y1084307D02*
D03*
X882369Y1079390D02*
D03*
X864016Y1084307D02*
D03*
X1337368Y1079390D02*
D03*
X1319016Y1084307D02*
D03*
X1792367Y1079390D02*
D03*
X1774015Y1084307D02*
D03*
D125*
X469755Y1042344D02*
D03*
X481190Y1027170D02*
D03*
X924754Y1042344D02*
D03*
X936189Y1027170D02*
D03*
X1379754Y1042344D02*
D03*
X1391188Y1027170D02*
D03*
X1834753Y1042344D02*
D03*
X1846187Y1027170D02*
D03*
D126*
X220870Y1084310D02*
D03*
X202517Y1079392D02*
D03*
X675869Y1084310D02*
D03*
X657516Y1079392D02*
D03*
X1130868Y1084310D02*
D03*
X1112515Y1079392D02*
D03*
X1585867Y1084310D02*
D03*
X1567515Y1079392D02*
D03*
D127*
X147877Y1027785D02*
D03*
X160090Y1042340D02*
D03*
X602876Y1027785D02*
D03*
X615089Y1042340D02*
D03*
X1057875Y1027785D02*
D03*
X1070088Y1042340D02*
D03*
X1512874Y1027785D02*
D03*
X1525087Y1042340D02*
D03*
D128*
X382500Y1028200D02*
D03*
Y1034700D02*
D03*
Y1041200D02*
D03*
Y1047700D02*
D03*
Y1054200D02*
D03*
Y1060700D02*
D03*
Y1067200D02*
D03*
X323500Y1028200D02*
D03*
Y1034700D02*
D03*
Y1041200D02*
D03*
Y1047700D02*
D03*
Y1054200D02*
D03*
Y1060700D02*
D03*
Y1067200D02*
D03*
X837499Y1028200D02*
D03*
Y1034700D02*
D03*
Y1041200D02*
D03*
Y1047700D02*
D03*
Y1054200D02*
D03*
Y1060700D02*
D03*
Y1067200D02*
D03*
X778499Y1028200D02*
D03*
Y1034700D02*
D03*
Y1041200D02*
D03*
Y1047700D02*
D03*
Y1054200D02*
D03*
Y1060700D02*
D03*
Y1067200D02*
D03*
X1292498Y1028200D02*
D03*
Y1034700D02*
D03*
Y1041200D02*
D03*
Y1047700D02*
D03*
Y1054200D02*
D03*
Y1060700D02*
D03*
Y1067200D02*
D03*
X1233498Y1028200D02*
D03*
Y1034700D02*
D03*
Y1041200D02*
D03*
Y1047700D02*
D03*
Y1054200D02*
D03*
Y1060700D02*
D03*
Y1067200D02*
D03*
X1747497Y1028200D02*
D03*
Y1034700D02*
D03*
Y1041200D02*
D03*
Y1047700D02*
D03*
Y1054200D02*
D03*
Y1060700D02*
D03*
Y1067200D02*
D03*
X1688497Y1028200D02*
D03*
Y1034700D02*
D03*
Y1041200D02*
D03*
Y1047700D02*
D03*
Y1054200D02*
D03*
Y1060700D02*
D03*
Y1067200D02*
D03*
D129*
X465714Y129808D02*
D03*
X459125Y129116D02*
D03*
X445948Y127731D02*
D03*
X452537Y128423D02*
D03*
X439359Y127038D02*
D03*
X503500Y205250D02*
D03*
Y198625D02*
D03*
Y185375D02*
D03*
Y192000D02*
D03*
Y178750D02*
D03*
Y607250D02*
D03*
Y600625D02*
D03*
Y587375D02*
D03*
Y594000D02*
D03*
Y580750D02*
D03*
Y843250D02*
D03*
Y836625D02*
D03*
Y823375D02*
D03*
Y830000D02*
D03*
Y816750D02*
D03*
X806857Y1128750D02*
D03*
X813482D02*
D03*
X826731D02*
D03*
X820106D02*
D03*
X833356D02*
D03*
X706857D02*
D03*
X713482D02*
D03*
X726732D02*
D03*
X720107D02*
D03*
X733357D02*
D03*
X620956Y1074553D02*
D03*
X626031Y1078811D02*
D03*
X636181Y1087328D02*
D03*
X631106Y1083070D02*
D03*
X641257Y1091587D02*
D03*
X899708Y1090956D02*
D03*
X904783Y1086697D02*
D03*
X914933Y1078181D02*
D03*
X909858Y1082439D02*
D03*
X920008Y1073922D02*
D03*
X897607Y1006750D02*
D03*
X890983D02*
D03*
X877732D02*
D03*
X884358D02*
D03*
X871107D02*
D03*
X668108D02*
D03*
X661482D02*
D03*
X648232D02*
D03*
X654857D02*
D03*
X641608D02*
D03*
X837858Y969250D02*
D03*
Y962625D02*
D03*
Y949375D02*
D03*
Y956000D02*
D03*
Y942750D02*
D03*
X702357D02*
D03*
Y949375D02*
D03*
Y962625D02*
D03*
Y956000D02*
D03*
Y969250D02*
D03*
X666608Y396500D02*
D03*
Y403125D02*
D03*
Y416375D02*
D03*
Y409750D02*
D03*
Y423000D02*
D03*
X873607Y317500D02*
D03*
Y310875D02*
D03*
Y297625D02*
D03*
Y304250D02*
D03*
Y291000D02*
D03*
X581608Y177750D02*
D03*
Y184375D02*
D03*
Y197625D02*
D03*
Y191000D02*
D03*
Y204250D02*
D03*
Y817000D02*
D03*
Y823625D02*
D03*
Y836875D02*
D03*
Y830250D02*
D03*
Y843500D02*
D03*
X126500Y817000D02*
D03*
Y823625D02*
D03*
Y836875D02*
D03*
Y830250D02*
D03*
Y843500D02*
D03*
Y177750D02*
D03*
Y184375D02*
D03*
Y197625D02*
D03*
Y191000D02*
D03*
Y204250D02*
D03*
X418500Y317500D02*
D03*
Y310875D02*
D03*
Y297625D02*
D03*
Y304250D02*
D03*
Y291000D02*
D03*
X211500Y396500D02*
D03*
Y403125D02*
D03*
Y416375D02*
D03*
Y409750D02*
D03*
Y423000D02*
D03*
X247250Y942750D02*
D03*
Y949375D02*
D03*
Y962625D02*
D03*
Y956000D02*
D03*
Y969250D02*
D03*
X382750D02*
D03*
Y962625D02*
D03*
Y949375D02*
D03*
Y956000D02*
D03*
Y942750D02*
D03*
X213000Y1006750D02*
D03*
X206375D02*
D03*
X193125D02*
D03*
X199750D02*
D03*
X186500D02*
D03*
X442500D02*
D03*
X435875D02*
D03*
X422625D02*
D03*
X429250D02*
D03*
X416000D02*
D03*
X444601Y1090956D02*
D03*
X449676Y1086697D02*
D03*
X459826Y1078181D02*
D03*
X454751Y1082439D02*
D03*
X464901Y1073922D02*
D03*
X165849Y1074553D02*
D03*
X170924Y1078811D02*
D03*
X181074Y1087328D02*
D03*
X175999Y1083070D02*
D03*
X186149Y1091587D02*
D03*
X251749Y1128750D02*
D03*
X258374D02*
D03*
X271624D02*
D03*
X264999D02*
D03*
X278249D02*
D03*
X351749D02*
D03*
X358374D02*
D03*
X371624D02*
D03*
X364999D02*
D03*
X378249D02*
D03*
X958607Y607250D02*
D03*
Y600625D02*
D03*
Y587375D02*
D03*
Y594000D02*
D03*
Y580750D02*
D03*
Y843250D02*
D03*
Y836625D02*
D03*
Y823375D02*
D03*
Y830000D02*
D03*
Y816750D02*
D03*
Y205250D02*
D03*
Y198625D02*
D03*
Y185375D02*
D03*
Y192000D02*
D03*
Y178750D02*
D03*
X1413716Y205250D02*
D03*
Y198625D02*
D03*
Y185375D02*
D03*
Y192000D02*
D03*
Y178750D02*
D03*
Y843250D02*
D03*
Y836625D02*
D03*
Y823375D02*
D03*
Y830000D02*
D03*
Y816750D02*
D03*
Y607250D02*
D03*
Y600625D02*
D03*
Y587375D02*
D03*
Y594000D02*
D03*
Y580750D02*
D03*
X1261964Y1128750D02*
D03*
X1268589D02*
D03*
X1281839D02*
D03*
X1275214D02*
D03*
X1288465D02*
D03*
X1161965D02*
D03*
X1168590D02*
D03*
X1181840D02*
D03*
X1175215D02*
D03*
X1188465D02*
D03*
X1076064Y1074553D02*
D03*
X1081140Y1078811D02*
D03*
X1091290Y1087328D02*
D03*
X1086215Y1083070D02*
D03*
X1096365Y1091587D02*
D03*
X1354816Y1090956D02*
D03*
X1359892Y1086697D02*
D03*
X1370042Y1078181D02*
D03*
X1364966Y1082439D02*
D03*
X1375117Y1073922D02*
D03*
X1352715Y1006750D02*
D03*
X1346091D02*
D03*
X1332841D02*
D03*
X1339465D02*
D03*
X1326216D02*
D03*
X1123215D02*
D03*
X1116590D02*
D03*
X1103341D02*
D03*
X1109966D02*
D03*
X1096715D02*
D03*
X1292966Y969250D02*
D03*
Y962625D02*
D03*
Y949375D02*
D03*
Y956000D02*
D03*
Y942750D02*
D03*
X1157466D02*
D03*
Y949375D02*
D03*
Y962625D02*
D03*
Y956000D02*
D03*
Y969250D02*
D03*
X1121715Y396500D02*
D03*
Y403125D02*
D03*
Y416375D02*
D03*
Y409750D02*
D03*
Y423000D02*
D03*
X1328716Y317500D02*
D03*
Y310875D02*
D03*
Y297625D02*
D03*
Y304250D02*
D03*
Y291000D02*
D03*
X1036715Y177750D02*
D03*
Y184375D02*
D03*
Y197625D02*
D03*
Y191000D02*
D03*
Y204250D02*
D03*
Y817000D02*
D03*
Y823625D02*
D03*
Y836875D02*
D03*
Y830250D02*
D03*
Y843500D02*
D03*
X1868823Y205250D02*
D03*
Y198625D02*
D03*
Y185375D02*
D03*
Y192000D02*
D03*
Y178750D02*
D03*
Y843250D02*
D03*
Y836625D02*
D03*
Y823375D02*
D03*
Y830000D02*
D03*
Y816750D02*
D03*
Y607250D02*
D03*
Y600625D02*
D03*
Y587375D02*
D03*
Y594000D02*
D03*
Y580750D02*
D03*
X1717072Y1128750D02*
D03*
X1723697D02*
D03*
X1736947D02*
D03*
X1730322D02*
D03*
X1743572D02*
D03*
X1617072D02*
D03*
X1623697D02*
D03*
X1636947D02*
D03*
X1630322D02*
D03*
X1643572D02*
D03*
X1531172Y1074553D02*
D03*
X1536247Y1078811D02*
D03*
X1546397Y1087328D02*
D03*
X1541322Y1083070D02*
D03*
X1551472Y1091587D02*
D03*
X1809924Y1090956D02*
D03*
X1814999Y1086697D02*
D03*
X1825149Y1078181D02*
D03*
X1820074Y1082439D02*
D03*
X1830224Y1073922D02*
D03*
X1807823Y1006750D02*
D03*
X1801198D02*
D03*
X1787948D02*
D03*
X1794573D02*
D03*
X1781323D02*
D03*
X1578323D02*
D03*
X1571698D02*
D03*
X1558448D02*
D03*
X1565073D02*
D03*
X1551823D02*
D03*
X1748073Y969250D02*
D03*
Y962625D02*
D03*
Y949375D02*
D03*
Y956000D02*
D03*
Y942750D02*
D03*
X1612573D02*
D03*
Y949375D02*
D03*
Y962625D02*
D03*
Y956000D02*
D03*
Y969250D02*
D03*
X1576823Y396500D02*
D03*
Y403125D02*
D03*
Y416375D02*
D03*
Y409750D02*
D03*
Y423000D02*
D03*
X1783823Y317500D02*
D03*
Y310875D02*
D03*
Y297625D02*
D03*
Y304250D02*
D03*
Y291000D02*
D03*
X1491823Y177750D02*
D03*
Y184375D02*
D03*
Y197625D02*
D03*
Y191000D02*
D03*
Y204250D02*
D03*
Y817000D02*
D03*
Y823625D02*
D03*
Y836875D02*
D03*
Y830250D02*
D03*
Y843500D02*
D03*
X920822Y129808D02*
D03*
X914233Y129116D02*
D03*
X901055Y127731D02*
D03*
X907644Y128423D02*
D03*
X894467Y127038D02*
D03*
X1375929Y129808D02*
D03*
X1369340Y129116D02*
D03*
X1356163Y127731D02*
D03*
X1362752Y128423D02*
D03*
X1349574Y127038D02*
D03*
X1831036Y129808D02*
D03*
X1824448Y129116D02*
D03*
X1811270Y127731D02*
D03*
X1817859Y128423D02*
D03*
X1804682Y127038D02*
D03*
D130*
X403893Y499691D02*
D03*
Y514691D02*
D03*
Y529691D02*
D03*
Y544691D02*
D03*
Y559691D02*
D03*
X404501Y355489D02*
D03*
Y340489D02*
D03*
Y325489D02*
D03*
Y310489D02*
D03*
Y295489D02*
D03*
X859000Y499691D02*
D03*
Y514691D02*
D03*
Y529691D02*
D03*
Y544691D02*
D03*
Y559691D02*
D03*
X859608Y355489D02*
D03*
Y340489D02*
D03*
Y325489D02*
D03*
Y310489D02*
D03*
Y295489D02*
D03*
X1314107Y499691D02*
D03*
Y514691D02*
D03*
Y529691D02*
D03*
Y544691D02*
D03*
Y559691D02*
D03*
X1314716Y355489D02*
D03*
Y340489D02*
D03*
Y325489D02*
D03*
Y310489D02*
D03*
Y295489D02*
D03*
X1769215Y499691D02*
D03*
Y514691D02*
D03*
Y529691D02*
D03*
Y544691D02*
D03*
Y559691D02*
D03*
X1769823Y355489D02*
D03*
Y340489D02*
D03*
Y325489D02*
D03*
Y310489D02*
D03*
Y295489D02*
D03*
D131*
X267313Y804012D02*
D03*
Y776012D02*
D03*
X292713Y804012D02*
D03*
Y776012D02*
D03*
X362713D02*
D03*
Y804012D02*
D03*
X337313Y776012D02*
D03*
Y804012D02*
D03*
X722420D02*
D03*
Y776012D02*
D03*
X747820Y804012D02*
D03*
Y776012D02*
D03*
X817820D02*
D03*
Y804012D02*
D03*
X792420Y776012D02*
D03*
Y804012D02*
D03*
X1177528D02*
D03*
Y776012D02*
D03*
X1202928Y804012D02*
D03*
Y776012D02*
D03*
X1272928D02*
D03*
Y804012D02*
D03*
X1247528Y776012D02*
D03*
Y804012D02*
D03*
X1632635D02*
D03*
Y776012D02*
D03*
X1658035Y804012D02*
D03*
Y776012D02*
D03*
X1728035D02*
D03*
Y804012D02*
D03*
X1702635Y776012D02*
D03*
Y804012D02*
D03*
D132*
X403501Y190550D02*
D03*
Y220250D02*
D03*
X364501Y190550D02*
D03*
Y220250D02*
D03*
X858608Y190550D02*
D03*
Y220250D02*
D03*
X819608Y190550D02*
D03*
Y220250D02*
D03*
X1313716Y190550D02*
D03*
Y220250D02*
D03*
X1274716Y190550D02*
D03*
Y220250D02*
D03*
X1768823Y190550D02*
D03*
Y220250D02*
D03*
X1729823Y190550D02*
D03*
Y220250D02*
D03*
D133*
X357011Y706210D02*
D03*
X273011D02*
D03*
X812118D02*
D03*
X728118D02*
D03*
X1267226D02*
D03*
X1183226D02*
D03*
X1722333D02*
D03*
X1638333D02*
D03*
D134*
X394273Y699553D02*
D03*
Y718552D02*
D03*
X849380Y699553D02*
D03*
Y718552D02*
D03*
X1304488Y699553D02*
D03*
Y718552D02*
D03*
X1759595Y699553D02*
D03*
Y718552D02*
D03*
D135*
X252573Y188302D02*
D03*
X208573D02*
D03*
X707680D02*
D03*
X663680D02*
D03*
X1162788D02*
D03*
X1118788D02*
D03*
X1617895D02*
D03*
X1573895D02*
D03*
D136*
X253570Y1056150D02*
D03*
Y1043450D02*
D03*
Y1030750D02*
D03*
X240870Y1043450D02*
D03*
Y1030750D02*
D03*
X708569Y1056150D02*
D03*
Y1043450D02*
D03*
Y1030750D02*
D03*
X695869Y1043450D02*
D03*
Y1030750D02*
D03*
X1163568Y1056150D02*
D03*
Y1043450D02*
D03*
Y1030750D02*
D03*
X1150868Y1043450D02*
D03*
Y1030750D02*
D03*
X1618567Y1056150D02*
D03*
Y1043450D02*
D03*
Y1030750D02*
D03*
X1605867Y1043450D02*
D03*
Y1030750D02*
D03*
D137*
X240870Y1056150D02*
D03*
X695869D02*
D03*
X1150868D02*
D03*
X1605867D02*
D03*
M02*
