G04*
G04 #@! TF.GenerationSoftware,Altium Limited,Altium Designer,18.0.9 (584)*
G04*
G04 Layer_Color=32896*
%FSLAX44Y44*%
%MOMM*%
G71*
G01*
G75*
%ADD155C,2.5000*%
D155*
X242472Y987024D02*
G03*
X233250Y973828I3228J-12076D01*
G01*
X175000Y933750D02*
G03*
X138710Y905700I0J-37500D01*
G01*
D02*
G03*
X137500Y896250I36290J-9450D01*
G01*
X267904Y992573D02*
G03*
X242472Y987024I47096J-276890D01*
G01*
D02*
G03*
X233250Y973828I3228J-12076D01*
G01*
X270001Y992750D02*
G03*
X267904Y992573I0J-12500D01*
G01*
X362097D02*
G03*
X360001Y992750I-2096J-12323D01*
G01*
X125000Y863750D02*
G03*
X112500Y851250I0J-12500D01*
G01*
Y680711D02*
G03*
X112527Y679781I12500J-110D01*
G01*
D02*
G03*
X112527Y679778I12473J820D01*
G01*
D02*
G03*
X112527Y679774I12473J824D01*
G01*
X112500Y680711D02*
G03*
X112527Y679781I12500J-110D01*
G01*
X125000Y863750D02*
G03*
X112500Y851250I0J-12500D01*
G01*
X112527Y679781D02*
G03*
X112527Y679778I12474J813D01*
G01*
D02*
G03*
X112527Y679774I12474J816D01*
G01*
D02*
G03*
X125000Y668094I12473J820D01*
G01*
X112527Y631541D02*
G03*
X112527Y631537I12473J-827D01*
G01*
D02*
G03*
X112527Y631534I12473J-824D01*
G01*
D02*
G03*
X112500Y630604I12473J-820D01*
G01*
X126140Y643169D02*
G03*
X112527Y631541I-1139J-12448D01*
G01*
D02*
G03*
X112527Y631537I12473J-820D01*
G01*
D02*
G03*
X112527Y631534I12474J-816D01*
G01*
X112527Y679774D02*
G03*
X125000Y668094I12473J820D01*
G01*
X126140Y643169D02*
G03*
X112527Y631541I-1139J-12448D01*
G01*
X125000Y668094D02*
G03*
X126140Y668146I0J12500D01*
G01*
X125000Y668094D02*
G03*
X126140Y668146I0J12500D01*
G01*
X126673Y643158D02*
G03*
X126140Y668146I0J12500D01*
G01*
X387529Y987024D02*
G03*
X362097Y992573I-72528J-271341D01*
G01*
X396751Y973828D02*
G03*
X387529Y987024I-12450J1120D01*
G01*
X396751Y973828D02*
G03*
X387529Y987024I-12450J1120D01*
G01*
X490598Y908044D02*
G03*
X455001Y933750I-35597J-11794D01*
G01*
X492501Y896250D02*
G03*
X490598Y908044I-37500J0D01*
G01*
X492501Y896225D02*
G03*
X492501Y896250I-12500J25D01*
G01*
X492501Y896225D02*
G03*
X492501Y896250I-12500J25D01*
G01*
X503861Y668146D02*
G03*
X503328Y643158I-534J-12488D01*
G01*
X503861Y668146D02*
G03*
X505001Y668094I1139J12448D01*
G01*
X503328Y643158D02*
G03*
X503861Y643169I0J12500D01*
G01*
X505001Y643221D02*
G03*
X503861Y643169I0J-12500D01*
G01*
X517501Y851250D02*
G03*
X505001Y863750I-12500J0D01*
G01*
X503861Y668146D02*
G03*
X505001Y668094I1139J12448D01*
G01*
X517501Y851250D02*
G03*
X505001Y863750I-12500J0D01*
G01*
X505107Y668094D02*
G03*
X517501Y682225I0J12500D01*
G01*
X505054Y668094D02*
G03*
X505107Y668094I53J12500D01*
G01*
X505001D02*
G03*
X505054Y668094I0J12500D01*
G01*
Y643221D02*
G03*
X505001Y643221I-53J-12500D01*
G01*
D02*
G03*
X503861Y643169I0J-12500D01*
G01*
X517501Y629091D02*
G03*
X505107Y643221I-12393J1630D01*
G01*
D02*
G03*
X505054Y643221I0J-12500D01*
G01*
X505107Y668094D02*
G03*
X517501Y682225I0J12500D01*
G01*
Y629091D02*
G03*
X505107Y643221I-12393J1630D01*
G01*
X112527Y631534D02*
G03*
X112500Y630604I12473J-820D01*
G01*
X126140Y643169D02*
G03*
X126673Y643158I534J12488D01*
G01*
X112500Y573000D02*
G03*
X125000Y560500I12500J0D01*
G01*
X112500Y573000D02*
G03*
X125000Y560500I12500J0D01*
G01*
X163001Y550700D02*
G03*
X150500Y538200I0J-12500D01*
G01*
Y476200D02*
G03*
X163001Y463700I12500J0D01*
G01*
X150500Y476200D02*
G03*
X163001Y463700I12500J0D01*
G01*
Y550700D02*
G03*
X150500Y538200I0J-12500D01*
G01*
X125000Y277500D02*
G03*
X112500Y265000I0J-12500D01*
G01*
X125000Y277500D02*
G03*
X112500Y265000I0J-12500D01*
G01*
Y136112D02*
G03*
X121960Y123988I12500J0D01*
G01*
X112500Y136112D02*
G03*
X121960Y123988I12500J0D01*
G01*
D02*
G03*
X215000Y112499I93041J371012D01*
G01*
X303501Y183505D02*
G03*
X303501Y183590I-12500J0D01*
G01*
X291001Y112499D02*
G03*
X303501Y125000I0J12500D01*
G01*
X291001Y112499D02*
G03*
X303501Y125000I0J12500D01*
G01*
X505001Y560500D02*
G03*
X517501Y573000I0J12500D01*
G01*
X479501Y538200D02*
G03*
X467001Y550700I-12500J0D01*
G01*
X479501Y538200D02*
G03*
X467001Y550700I-12500J0D01*
G01*
X505001Y560500D02*
G03*
X517501Y573000I0J12500D01*
G01*
X467001Y463700D02*
G03*
X479501Y476200I0J12500D01*
G01*
X467001Y463700D02*
G03*
X479501Y476200I0J12500D01*
G01*
X326500Y183634D02*
G03*
X303501Y183590I-11500J0D01*
G01*
D02*
G03*
X303501Y183572I11500J44D01*
G01*
X303501Y183505D02*
G03*
X303501Y183572I-12500J0D01*
G01*
X326500Y125000D02*
G03*
X339001Y112499I12500J0D01*
G01*
X326500Y125000D02*
G03*
X339001Y112499I12500J0D01*
G01*
X517501Y265000D02*
G03*
X505001Y277500I-12500J0D01*
G01*
X517501Y265000D02*
G03*
X505001Y277500I-12500J0D01*
G01*
X508041Y123988D02*
G03*
X517501Y136112I-3041J12125D01*
G01*
X508041Y123988D02*
G03*
X517501Y136112I-3041J12125D01*
G01*
X244999Y1142750D02*
G03*
X232499Y1130250I0J-12500D01*
G01*
X244999Y1142750D02*
G03*
X232499Y1130250I0J-12500D01*
G01*
X223653Y1123750D02*
G03*
X223628Y1123750I-25J-12500D01*
G01*
X293838Y1139089D02*
G03*
X284999Y1142750I-8839J-8839D01*
G01*
X293838Y1139089D02*
G03*
X284999Y1142750I-8839J-8839D01*
G01*
X302499Y1125250D02*
G03*
X298838Y1134089I-12500J0D01*
G01*
X302499Y1125250D02*
G03*
X298838Y1134089I-12500J0D01*
G01*
X186668Y1110298D02*
G03*
X186645Y1110279I8035J-9576D01*
G01*
X223628Y1123750D02*
G03*
X186668Y1110298I0J-57500D01*
G01*
D02*
G03*
X186645Y1110279I8035J-9576D01*
G01*
X223653Y1123750D02*
G03*
X223628Y1123750I-25J-12500D01*
G01*
X344999Y1142750D02*
G03*
X336150Y1139079I0J-12500D01*
G01*
X331170Y1134098D02*
G03*
X327499Y1125250I8830J-8848D01*
G01*
X331160Y1134089D02*
G03*
X327499Y1125250I8839J-8839D01*
G01*
X344999Y1142750D02*
G03*
X336160Y1139089I0J-12500D01*
G01*
X397499Y1130250D02*
G03*
X384999Y1142750I-12500J0D01*
G01*
X397499Y1130250D02*
G03*
X384999Y1142750I-12500J0D01*
G01*
X443330Y1110298D02*
G03*
X406370Y1123750I-36960J-44048D01*
G01*
X133039Y1065298D02*
G03*
X112499Y1021250I36960J-44048D01*
G01*
Y1005250D02*
G03*
X125000Y992750I12500J0D01*
G01*
X112499Y1005250D02*
G03*
X125000Y992750I12500J0D01*
G01*
X517499Y1021250D02*
G03*
X496959Y1065298I-57500J0D01*
G01*
X504999Y992750D02*
G03*
X517499Y1005250I0J12500D01*
G01*
X504999Y992750D02*
G03*
X517499Y1005250I0J12500D01*
G01*
X960106Y992750D02*
G03*
X972606Y1005250I0J12500D01*
G01*
X960106Y992750D02*
G03*
X972606Y1005250I0J12500D01*
G01*
Y1021250D02*
G03*
X952067Y1065298I-57500J0D01*
G01*
X567607Y1005250D02*
G03*
X580107Y992750I12500J0D01*
G01*
X567607Y1005250D02*
G03*
X580107Y992750I12500J0D01*
G01*
X588146Y1065298D02*
G03*
X567607Y1021250I36960J-44048D01*
G01*
X898438Y1110298D02*
G03*
X861477Y1123750I-36960J-44048D01*
G01*
X852607Y1130250D02*
G03*
X840106Y1142750I-12500J0D01*
G01*
X852607Y1130250D02*
G03*
X840106Y1142750I-12500J0D01*
G01*
X800107D02*
G03*
X791267Y1139089I0J-12500D01*
G01*
X786267Y1134089D02*
G03*
X782606Y1125250I8839J-8839D01*
G01*
X786277Y1134098D02*
G03*
X782606Y1125250I8830J-8848D01*
G01*
X800107Y1142750D02*
G03*
X791258Y1139079I0J-12500D01*
G01*
X678761Y1123750D02*
G03*
X678736Y1123750I-25J-12500D01*
G01*
X641775Y1110298D02*
G03*
X641752Y1110279I8035J-9576D01*
G01*
X678736Y1123750D02*
G03*
X641775Y1110298I0J-57500D01*
G01*
D02*
G03*
X641752Y1110279I8035J-9576D01*
G01*
X757607Y1125250D02*
G03*
X753946Y1134089I-12500J0D01*
G01*
X757607Y1125250D02*
G03*
X753946Y1134089I-12500J0D01*
G01*
X748946Y1139089D02*
G03*
X740107Y1142750I-8839J-8839D01*
G01*
X748946Y1139089D02*
G03*
X740107Y1142750I-8839J-8839D01*
G01*
X678761Y1123750D02*
G03*
X678736Y1123750I-25J-12500D01*
G01*
X700107Y1142750D02*
G03*
X687606Y1130250I0J-12500D01*
G01*
X700107Y1142750D02*
G03*
X687606Y1130250I0J-12500D01*
G01*
X963149Y123988D02*
G03*
X972608Y136112I-3041J12125D01*
G01*
X963149Y123988D02*
G03*
X972608Y136112I-3041J12125D01*
G01*
Y265000D02*
G03*
X960108Y277500I-12500J0D01*
G01*
X972608Y265000D02*
G03*
X960108Y277500I-12500J0D01*
G01*
X781608Y125000D02*
G03*
X794108Y112499I12500J0D01*
G01*
X781608Y125000D02*
G03*
X794108Y112499I12500J0D01*
G01*
X758609Y183505D02*
G03*
X758608Y183572I-12500J0D01*
G01*
X758608Y183590D02*
G03*
X758608Y183572I11500J44D01*
G01*
X781608Y183634D02*
G03*
X758608Y183590I-11500J0D01*
G01*
X922108Y463700D02*
G03*
X934609Y476200I0J12500D01*
G01*
X922108Y463700D02*
G03*
X934609Y476200I0J12500D01*
G01*
X960108Y560500D02*
G03*
X972608Y573000I0J12500D01*
G01*
X934609Y538200D02*
G03*
X922108Y550700I-12500J0D01*
G01*
X934609Y538200D02*
G03*
X922108Y550700I-12500J0D01*
G01*
X960108Y560500D02*
G03*
X972608Y573000I0J12500D01*
G01*
X746108Y112499D02*
G03*
X758609Y125000I0J12500D01*
G01*
X746108Y112499D02*
G03*
X758609Y125000I0J12500D01*
G01*
Y183505D02*
G03*
X758608Y183590I-12500J0D01*
G01*
X577067Y123988D02*
G03*
X670108Y112499I93041J371012D01*
G01*
X567608Y136112D02*
G03*
X577067Y123988I12500J0D01*
G01*
X567608Y136112D02*
G03*
X577067Y123988I12500J0D01*
G01*
X580108Y277500D02*
G03*
X567608Y265000I0J-12500D01*
G01*
X580108Y277500D02*
G03*
X567608Y265000I0J-12500D01*
G01*
X618108Y550700D02*
G03*
X605608Y538200I0J-12500D01*
G01*
Y476200D02*
G03*
X618108Y463700I12500J0D01*
G01*
X605608Y476200D02*
G03*
X618108Y463700I12500J0D01*
G01*
Y550700D02*
G03*
X605608Y538200I0J-12500D01*
G01*
X567608Y573000D02*
G03*
X580108Y560500I12500J0D01*
G01*
X567608Y573000D02*
G03*
X580108Y560500I12500J0D01*
G01*
X581247Y643169D02*
G03*
X581781Y643158I534J12488D01*
G01*
X567634Y631534D02*
G03*
X567608Y630604I12473J-820D01*
G01*
X972608Y629091D02*
G03*
X960215Y643221I-12393J1630D01*
G01*
Y668094D02*
G03*
X972608Y682225I0J12500D01*
G01*
X960215Y643221D02*
G03*
X960162Y643221I0J-12500D01*
G01*
X972608Y629091D02*
G03*
X960215Y643221I-12393J1630D01*
G01*
X960108D02*
G03*
X958969Y643169I0J-12500D01*
G01*
X960162Y643221D02*
G03*
X960108Y643221I-53J-12500D01*
G01*
Y668094D02*
G03*
X960162Y668094I0J12500D01*
G01*
D02*
G03*
X960215Y668094I53J12500D01*
G01*
D02*
G03*
X972608Y682225I0J12500D01*
G01*
Y851250D02*
G03*
X960108Y863750I-12500J0D01*
G01*
X958969Y668146D02*
G03*
X960108Y668094I1139J12448D01*
G01*
X972608Y851250D02*
G03*
X960108Y863750I-12500J0D01*
G01*
Y643221D02*
G03*
X958969Y643169I0J-12500D01*
G01*
X958435Y643158D02*
G03*
X958969Y643169I0J12500D01*
G01*
Y668146D02*
G03*
X960108Y668094I1139J12448D01*
G01*
X958969Y668146D02*
G03*
X958435Y643158I-534J-12488D01*
G01*
X947608Y896225D02*
G03*
X947608Y896250I-12500J25D01*
G01*
X947608Y896225D02*
G03*
X947608Y896250I-12500J25D01*
G01*
D02*
G03*
X945705Y908044I-37500J0D01*
G01*
D02*
G03*
X910108Y933750I-35597J-11794D01*
G01*
X851858Y973828D02*
G03*
X842636Y987024I-12450J1120D01*
G01*
X851858Y973828D02*
G03*
X842636Y987024I-12450J1120D01*
G01*
D02*
G03*
X817204Y992573I-72528J-271341D01*
G01*
X581781Y643158D02*
G03*
X581247Y668146I0J12500D01*
G01*
X580108Y668094D02*
G03*
X581247Y668146I0J12500D01*
G01*
X580108Y668094D02*
G03*
X581247Y668146I0J12500D01*
G01*
Y643169D02*
G03*
X567635Y631541I-1139J-12448D01*
G01*
Y679774D02*
G03*
X580108Y668094I12473J820D01*
G01*
X567634Y631537D02*
G03*
X567634Y631534I12474J-816D01*
G01*
X567635Y631541D02*
G03*
X567634Y631537I12473J-820D01*
G01*
X581247Y643169D02*
G03*
X567635Y631541I-1139J-12448D01*
G01*
X567634Y631534D02*
G03*
X567608Y630604I12473J-820D01*
G01*
X567634Y631537D02*
G03*
X567634Y631534I12473J-824D01*
G01*
X567635Y631541D02*
G03*
X567634Y631537I12473J-827D01*
G01*
X567635Y679774D02*
G03*
X580108Y668094I12473J820D01*
G01*
X567634Y679778D02*
G03*
X567635Y679774I12474J816D01*
G01*
X567634Y679781D02*
G03*
X567634Y679778I12474J813D01*
G01*
X580108Y863750D02*
G03*
X567608Y851250I0J-12500D01*
G01*
Y680711D02*
G03*
X567634Y679781I12500J-110D01*
G01*
X567634Y679778D02*
G03*
X567635Y679774I12473J824D01*
G01*
X567634Y679781D02*
G03*
X567634Y679778I12473J820D01*
G01*
X567608Y680711D02*
G03*
X567634Y679781I12500J-110D01*
G01*
X580108Y863750D02*
G03*
X567608Y851250I0J-12500D01*
G01*
X817204Y992573D02*
G03*
X815108Y992750I-2096J-12323D01*
G01*
X725108D02*
G03*
X723012Y992573I0J-12500D01*
G01*
X697580Y987024D02*
G03*
X688358Y973828I3228J-12076D01*
G01*
X723012Y992573D02*
G03*
X697580Y987024I47096J-276890D01*
G01*
X593818Y905700D02*
G03*
X592608Y896250I36290J-9450D01*
G01*
X630108Y933750D02*
G03*
X593818Y905700I0J-37500D01*
G01*
X697580Y987024D02*
G03*
X688358Y973828I3228J-12076D01*
G01*
X1152687Y987024D02*
G03*
X1143465Y973828I3228J-12076D01*
G01*
X1085216Y933750D02*
G03*
X1048925Y905700I0J-37500D01*
G01*
D02*
G03*
X1047715Y896250I36290J-9450D01*
G01*
X1178120Y992573D02*
G03*
X1152687Y987024I47096J-276890D01*
G01*
D02*
G03*
X1143465Y973828I3228J-12076D01*
G01*
X1180216Y992750D02*
G03*
X1178119Y992573I0J-12500D01*
G01*
X1272312D02*
G03*
X1270216Y992750I-2096J-12323D01*
G01*
X1035215Y863750D02*
G03*
X1022715Y851250I0J-12500D01*
G01*
Y680711D02*
G03*
X1022742Y679781I12500J-110D01*
G01*
D02*
G03*
X1022742Y679778I12473J820D01*
G01*
D02*
G03*
X1022742Y679774I12473J824D01*
G01*
X1022715Y680711D02*
G03*
X1022742Y679781I12500J-110D01*
G01*
X1035215Y863750D02*
G03*
X1022715Y851250I0J-12500D01*
G01*
X1022742Y679781D02*
G03*
X1022742Y679778I12474J813D01*
G01*
D02*
G03*
X1022742Y679774I12474J816D01*
G01*
D02*
G03*
X1035215Y668094I12473J820D01*
G01*
X1022742Y631541D02*
G03*
X1022742Y631537I12473J-827D01*
G01*
D02*
G03*
X1022742Y631534I12473J-824D01*
G01*
D02*
G03*
X1022715Y630604I12473J-820D01*
G01*
X1036355Y643169D02*
G03*
X1022742Y631541I-1139J-12448D01*
G01*
D02*
G03*
X1022742Y631537I12473J-820D01*
G01*
D02*
G03*
X1022742Y631534I12474J-816D01*
G01*
X1022742Y679774D02*
G03*
X1035215Y668094I12473J820D01*
G01*
X1036355Y643169D02*
G03*
X1022742Y631541I-1139J-12448D01*
G01*
X1035215Y668094D02*
G03*
X1036355Y668146I0J12500D01*
G01*
X1035215Y668094D02*
G03*
X1036355Y668146I0J12500D01*
G01*
X1036889Y643158D02*
G03*
X1036355Y668146I0J12500D01*
G01*
X1297744Y987024D02*
G03*
X1272312Y992573I-72528J-271341D01*
G01*
X1306966Y973828D02*
G03*
X1297744Y987024I-12450J1120D01*
G01*
X1306966Y973828D02*
G03*
X1297744Y987024I-12450J1120D01*
G01*
X1400813Y908044D02*
G03*
X1365216Y933750I-35597J-11794D01*
G01*
X1402716Y896250D02*
G03*
X1400813Y908044I-37500J0D01*
G01*
X1402716Y896225D02*
G03*
X1402716Y896250I-12500J25D01*
G01*
X1402716Y896225D02*
G03*
X1402716Y896250I-12500J25D01*
G01*
X1414076Y668146D02*
G03*
X1413543Y643158I-534J-12488D01*
G01*
X1414076Y668146D02*
G03*
X1415216Y668094I1139J12448D01*
G01*
X1413543Y643158D02*
G03*
X1414076Y643169I0J12500D01*
G01*
X1415216Y643221D02*
G03*
X1414076Y643169I0J-12500D01*
G01*
X1427716Y851250D02*
G03*
X1415216Y863750I-12500J0D01*
G01*
X1414076Y668146D02*
G03*
X1415216Y668094I1139J12448D01*
G01*
X1427716Y851250D02*
G03*
X1415216Y863750I-12500J0D01*
G01*
X1415322Y668094D02*
G03*
X1427716Y682225I0J12500D01*
G01*
X1415269Y668094D02*
G03*
X1415322Y668094I53J12500D01*
G01*
X1415216D02*
G03*
X1415269Y668094I0J12500D01*
G01*
Y643221D02*
G03*
X1415216Y643221I-53J-12500D01*
G01*
D02*
G03*
X1414076Y643169I0J-12500D01*
G01*
X1427716Y629091D02*
G03*
X1415322Y643221I-12393J1630D01*
G01*
D02*
G03*
X1415269Y643221I0J-12500D01*
G01*
X1415322Y668094D02*
G03*
X1427716Y682225I0J12500D01*
G01*
Y629091D02*
G03*
X1415322Y643221I-12393J1630D01*
G01*
X1022742Y631534D02*
G03*
X1022715Y630604I12473J-820D01*
G01*
X1036355Y643169D02*
G03*
X1036889Y643158I534J12488D01*
G01*
X1022715Y573000D02*
G03*
X1035215Y560500I12500J0D01*
G01*
X1022715Y573000D02*
G03*
X1035215Y560500I12500J0D01*
G01*
X1073216Y550700D02*
G03*
X1060715Y538200I0J-12500D01*
G01*
Y476200D02*
G03*
X1073216Y463700I12500J0D01*
G01*
X1060715Y476200D02*
G03*
X1073216Y463700I12500J0D01*
G01*
Y550700D02*
G03*
X1060715Y538200I0J-12500D01*
G01*
X1035215Y277500D02*
G03*
X1022715Y265000I0J-12500D01*
G01*
X1035215Y277500D02*
G03*
X1022715Y265000I0J-12500D01*
G01*
Y136112D02*
G03*
X1032175Y123988I12500J0D01*
G01*
X1022715Y136112D02*
G03*
X1032175Y123988I12500J0D01*
G01*
D02*
G03*
X1125216Y112499I93041J371012D01*
G01*
X1213716Y183505D02*
G03*
X1213716Y183590I-12500J0D01*
G01*
X1201216Y112499D02*
G03*
X1213716Y125000I0J12500D01*
G01*
X1201216Y112499D02*
G03*
X1213716Y125000I0J12500D01*
G01*
X1415216Y560500D02*
G03*
X1427716Y573000I0J12500D01*
G01*
X1389716Y538200D02*
G03*
X1377216Y550700I-12500J0D01*
G01*
X1389716Y538200D02*
G03*
X1377216Y550700I-12500J0D01*
G01*
X1415216Y560500D02*
G03*
X1427716Y573000I0J12500D01*
G01*
X1377216Y463700D02*
G03*
X1389716Y476200I0J12500D01*
G01*
X1377216Y463700D02*
G03*
X1389716Y476200I0J12500D01*
G01*
X1236715Y183634D02*
G03*
X1213716Y183590I-11500J0D01*
G01*
D02*
G03*
X1213716Y183572I11500J44D01*
G01*
X1213716Y183505D02*
G03*
X1213716Y183572I-12500J0D01*
G01*
X1236715Y125000D02*
G03*
X1249215Y112499I12500J0D01*
G01*
X1236715Y125000D02*
G03*
X1249215Y112499I12500J0D01*
G01*
X1427716Y265000D02*
G03*
X1415216Y277500I-12500J0D01*
G01*
X1427716Y265000D02*
G03*
X1415216Y277500I-12500J0D01*
G01*
X1418256Y123988D02*
G03*
X1427716Y136112I-3041J12125D01*
G01*
X1418256Y123988D02*
G03*
X1427716Y136112I-3041J12125D01*
G01*
X1155214Y1142750D02*
G03*
X1142714Y1130250I0J-12500D01*
G01*
X1155214Y1142750D02*
G03*
X1142714Y1130250I0J-12500D01*
G01*
X1133868Y1123750D02*
G03*
X1133843Y1123750I-25J-12500D01*
G01*
X1204053Y1139089D02*
G03*
X1195214Y1142750I-8839J-8839D01*
G01*
X1204053Y1139089D02*
G03*
X1195214Y1142750I-8839J-8839D01*
G01*
X1212714Y1125250D02*
G03*
X1209053Y1134089I-12500J0D01*
G01*
X1212714Y1125250D02*
G03*
X1209053Y1134089I-12500J0D01*
G01*
X1096883Y1110298D02*
G03*
X1096860Y1110279I8035J-9576D01*
G01*
X1133843Y1123750D02*
G03*
X1096883Y1110298I0J-57500D01*
G01*
D02*
G03*
X1096860Y1110279I8035J-9576D01*
G01*
X1133868Y1123750D02*
G03*
X1133843Y1123750I-25J-12500D01*
G01*
X1255214Y1142750D02*
G03*
X1246365Y1139079I0J-12500D01*
G01*
X1241385Y1134098D02*
G03*
X1237714Y1125250I8830J-8848D01*
G01*
X1241375Y1134089D02*
G03*
X1237714Y1125250I8839J-8839D01*
G01*
X1255214Y1142750D02*
G03*
X1246375Y1139089I0J-12500D01*
G01*
X1307714Y1130250D02*
G03*
X1295214Y1142750I-12500J0D01*
G01*
X1307714Y1130250D02*
G03*
X1295214Y1142750I-12500J0D01*
G01*
X1353545Y1110298D02*
G03*
X1316585Y1123750I-36960J-44048D01*
G01*
X1043254Y1065298D02*
G03*
X1022714Y1021250I36960J-44048D01*
G01*
Y1005250D02*
G03*
X1035214Y992750I12500J0D01*
G01*
X1022714Y1005250D02*
G03*
X1035214Y992750I12500J0D01*
G01*
X1427714Y1021250D02*
G03*
X1407174Y1065298I-57500J0D01*
G01*
X1415214Y992750D02*
G03*
X1427714Y1005250I0J12500D01*
G01*
X1415214Y992750D02*
G03*
X1427714Y1005250I0J12500D01*
G01*
X1607795Y987024D02*
G03*
X1598573Y973828I3228J-12076D01*
G01*
X1540323Y933750D02*
G03*
X1504033Y905700I0J-37500D01*
G01*
D02*
G03*
X1502823Y896250I36290J-9450D01*
G01*
X1633227Y992573D02*
G03*
X1607795Y987024I47096J-276890D01*
G01*
D02*
G03*
X1598573Y973828I3228J-12076D01*
G01*
X1635323Y992750D02*
G03*
X1633227Y992573I0J-12500D01*
G01*
X1727419D02*
G03*
X1725323Y992750I-2096J-12323D01*
G01*
X1490323Y863750D02*
G03*
X1477823Y851250I0J-12500D01*
G01*
Y680711D02*
G03*
X1477849Y679781I12500J-110D01*
G01*
D02*
G03*
X1477849Y679778I12473J820D01*
G01*
D02*
G03*
X1477850Y679774I12473J824D01*
G01*
X1477823Y680711D02*
G03*
X1477849Y679781I12500J-110D01*
G01*
X1490323Y863750D02*
G03*
X1477823Y851250I0J-12500D01*
G01*
X1477849Y679781D02*
G03*
X1477849Y679778I12474J813D01*
G01*
D02*
G03*
X1477850Y679774I12474J816D01*
G01*
D02*
G03*
X1490323Y668094I12473J820D01*
G01*
X1477850Y631541D02*
G03*
X1477849Y631537I12473J-827D01*
G01*
D02*
G03*
X1477849Y631534I12473J-824D01*
G01*
D02*
G03*
X1477823Y630604I12473J-820D01*
G01*
X1491462Y643169D02*
G03*
X1477850Y631541I-1139J-12448D01*
G01*
D02*
G03*
X1477849Y631537I12473J-820D01*
G01*
D02*
G03*
X1477849Y631534I12474J-816D01*
G01*
X1477850Y679774D02*
G03*
X1490323Y668094I12473J820D01*
G01*
X1491462Y643169D02*
G03*
X1477850Y631541I-1139J-12448D01*
G01*
X1490323Y668094D02*
G03*
X1491462Y668146I0J12500D01*
G01*
X1490323Y668094D02*
G03*
X1491462Y668146I0J12500D01*
G01*
X1491996Y643158D02*
G03*
X1491462Y668146I0J12500D01*
G01*
X1752851Y987024D02*
G03*
X1727419Y992573I-72528J-271341D01*
G01*
X1762073Y973828D02*
G03*
X1752851Y987024I-12450J1120D01*
G01*
X1762073Y973828D02*
G03*
X1752851Y987024I-12450J1120D01*
G01*
X1855920Y908044D02*
G03*
X1820323Y933750I-35597J-11794D01*
G01*
X1857823Y896250D02*
G03*
X1855920Y908044I-37500J0D01*
G01*
X1857823Y896225D02*
G03*
X1857823Y896250I-12500J25D01*
G01*
X1857823Y896225D02*
G03*
X1857823Y896250I-12500J25D01*
G01*
X1869184Y668146D02*
G03*
X1868650Y643158I-534J-12488D01*
G01*
X1869184Y668146D02*
G03*
X1870323Y668094I1139J12448D01*
G01*
X1868650Y643158D02*
G03*
X1869184Y643169I0J12500D01*
G01*
X1870323Y643221D02*
G03*
X1869184Y643169I0J-12500D01*
G01*
X1882823Y851250D02*
G03*
X1870323Y863750I-12500J0D01*
G01*
X1869184Y668146D02*
G03*
X1870323Y668094I1139J12448D01*
G01*
X1882823Y851250D02*
G03*
X1870323Y863750I-12500J0D01*
G01*
X1870430Y668094D02*
G03*
X1882823Y682225I0J12500D01*
G01*
X1870376Y668094D02*
G03*
X1870430Y668094I53J12500D01*
G01*
X1870323D02*
G03*
X1870376Y668094I0J12500D01*
G01*
Y643221D02*
G03*
X1870323Y643221I-53J-12500D01*
G01*
D02*
G03*
X1869184Y643169I0J-12500D01*
G01*
X1882823Y629091D02*
G03*
X1870430Y643221I-12393J1630D01*
G01*
D02*
G03*
X1870376Y643221I0J-12500D01*
G01*
X1870430Y668094D02*
G03*
X1882823Y682225I0J12500D01*
G01*
Y629091D02*
G03*
X1870430Y643221I-12393J1630D01*
G01*
X1477849Y631534D02*
G03*
X1477823Y630604I12473J-820D01*
G01*
X1491462Y643169D02*
G03*
X1491996Y643158I534J12488D01*
G01*
X1477823Y573000D02*
G03*
X1490323Y560500I12500J0D01*
G01*
X1477823Y573000D02*
G03*
X1490323Y560500I12500J0D01*
G01*
X1528323Y550700D02*
G03*
X1515823Y538200I0J-12500D01*
G01*
Y476200D02*
G03*
X1528323Y463700I12500J0D01*
G01*
X1515823Y476200D02*
G03*
X1528323Y463700I12500J0D01*
G01*
Y550700D02*
G03*
X1515823Y538200I0J-12500D01*
G01*
X1490323Y277500D02*
G03*
X1477823Y265000I0J-12500D01*
G01*
X1490323Y277500D02*
G03*
X1477823Y265000I0J-12500D01*
G01*
Y136112D02*
G03*
X1487282Y123988I12500J0D01*
G01*
X1477823Y136112D02*
G03*
X1487282Y123988I12500J0D01*
G01*
D02*
G03*
X1580323Y112499I93041J371012D01*
G01*
X1668824Y183505D02*
G03*
X1668823Y183590I-12500J0D01*
G01*
X1656323Y112499D02*
G03*
X1668824Y125000I0J12500D01*
G01*
X1656323Y112499D02*
G03*
X1668824Y125000I0J12500D01*
G01*
X1870323Y560500D02*
G03*
X1882823Y573000I0J12500D01*
G01*
X1844823Y538200D02*
G03*
X1832323Y550700I-12500J0D01*
G01*
X1844823Y538200D02*
G03*
X1832323Y550700I-12500J0D01*
G01*
X1870323Y560500D02*
G03*
X1882823Y573000I0J12500D01*
G01*
X1832323Y463700D02*
G03*
X1844823Y476200I0J12500D01*
G01*
X1832323Y463700D02*
G03*
X1844823Y476200I0J12500D01*
G01*
X1691823Y183634D02*
G03*
X1668823Y183590I-11500J0D01*
G01*
D02*
G03*
X1668823Y183572I11500J44D01*
G01*
X1668824Y183505D02*
G03*
X1668823Y183572I-12500J0D01*
G01*
X1691823Y125000D02*
G03*
X1704323Y112499I12500J0D01*
G01*
X1691823Y125000D02*
G03*
X1704323Y112499I12500J0D01*
G01*
X1882823Y265000D02*
G03*
X1870323Y277500I-12500J0D01*
G01*
X1882823Y265000D02*
G03*
X1870323Y277500I-12500J0D01*
G01*
X1873364Y123988D02*
G03*
X1882823Y136112I-3041J12125D01*
G01*
X1873364Y123988D02*
G03*
X1882823Y136112I-3041J12125D01*
G01*
X1610322Y1142750D02*
G03*
X1597821Y1130250I0J-12500D01*
G01*
X1610322Y1142750D02*
G03*
X1597821Y1130250I0J-12500D01*
G01*
X1588976Y1123750D02*
G03*
X1588951Y1123750I-25J-12500D01*
G01*
X1659161Y1139089D02*
G03*
X1650322Y1142750I-8839J-8839D01*
G01*
X1659161Y1139089D02*
G03*
X1650322Y1142750I-8839J-8839D01*
G01*
X1667822Y1125250D02*
G03*
X1664161Y1134089I-12500J0D01*
G01*
X1667822Y1125250D02*
G03*
X1664161Y1134089I-12500J0D01*
G01*
X1551990Y1110298D02*
G03*
X1551967Y1110279I8035J-9576D01*
G01*
X1588951Y1123750D02*
G03*
X1551990Y1110298I0J-57500D01*
G01*
D02*
G03*
X1551967Y1110279I8035J-9576D01*
G01*
X1588976Y1123750D02*
G03*
X1588951Y1123750I-25J-12500D01*
G01*
X1710321Y1142750D02*
G03*
X1701473Y1139079I0J-12500D01*
G01*
X1696492Y1134098D02*
G03*
X1692821Y1125250I8830J-8848D01*
G01*
X1696482Y1134089D02*
G03*
X1692821Y1125250I8839J-8839D01*
G01*
X1710321Y1142750D02*
G03*
X1701482Y1139089I0J-12500D01*
G01*
X1762822Y1130250D02*
G03*
X1750321Y1142750I-12500J0D01*
G01*
X1762822Y1130250D02*
G03*
X1750321Y1142750I-12500J0D01*
G01*
X1808653Y1110298D02*
G03*
X1771692Y1123750I-36960J-44048D01*
G01*
X1498361Y1065298D02*
G03*
X1477822Y1021250I36960J-44048D01*
G01*
Y1005250D02*
G03*
X1490322Y992750I12500J0D01*
G01*
X1477822Y1005250D02*
G03*
X1490322Y992750I12500J0D01*
G01*
X1882821Y1021250D02*
G03*
X1862282Y1065298I-57500J0D01*
G01*
X1870321Y992750D02*
G03*
X1882821Y1005250I0J12500D01*
G01*
X1870321Y992750D02*
G03*
X1882821Y1005250I0J12500D01*
G01*
X470859Y116600D02*
G03*
X508041Y123988I-55859J378400D01*
G01*
X415001Y112499D02*
G03*
X436758Y113119I0J382488D01*
G01*
X870108Y112499D02*
G03*
X891866Y113119I0J382488D01*
G01*
X925967Y116600D02*
G03*
X963149Y123988I-55859J378400D01*
G01*
X1325216Y112499D02*
G03*
X1346973Y113119I0J382488D01*
G01*
X1381074Y116600D02*
G03*
X1418256Y123988I-55859J378400D01*
G01*
X1780323Y112499D02*
G03*
X1802081Y113119I0J382488D01*
G01*
X1836182Y116600D02*
G03*
X1873364Y123988I-55859J378400D01*
G01*
X175000Y933750D02*
X233250D01*
X270001Y992750D02*
X360001D01*
X137500Y863750D02*
Y896250D01*
X112527Y679781D02*
X112527Y679774D01*
X125000Y863750D02*
X137500D01*
X396751Y933750D02*
X455001D01*
X492501Y896225D02*
Y896250D01*
Y863750D02*
Y896225D01*
Y863750D02*
X505001D01*
Y668094D02*
X505107D01*
X505001Y643221D02*
X505107D01*
X112527Y631534D02*
X112527Y631541D01*
X112500Y573000D02*
Y630604D01*
X150500Y476200D02*
Y538200D01*
X125000Y560500D02*
X197500D01*
Y550700D02*
Y560500D01*
X163001Y550700D02*
X197500D01*
X215000Y112499D02*
X291001D01*
X432501Y550700D02*
Y560500D01*
Y550700D02*
X467001D01*
X432501Y463700D02*
X467001D01*
X432501Y560500D02*
X505001D01*
X432501Y277500D02*
X505001D01*
X479501Y476200D02*
Y538200D01*
X326500Y125000D02*
Y183634D01*
X303501Y125000D02*
Y183505D01*
X339001Y112499D02*
X415002D01*
X232499Y1123750D02*
Y1130250D01*
X223628Y1123750D02*
X223653D01*
X232499D01*
X293838Y1139089D02*
X298838Y1134089D01*
X336150Y1139079D02*
X336160Y1139089D01*
X331170Y1134098D02*
X336150Y1139079D01*
X331160Y1134089D02*
X331170Y1134098D01*
X397499Y1123750D02*
X406370D01*
X327499Y1097950D02*
Y1125250D01*
X302499Y1097950D02*
Y1125250D01*
X397499Y1123750D02*
Y1130250D01*
X186645Y1110279D02*
X186668Y1110298D01*
X112499Y1005250D02*
Y1021250D01*
X302499Y1097950D02*
X327499D01*
X517499Y1005250D02*
Y1021250D01*
X163001Y463700D02*
X197500D01*
X125000Y277500D02*
X197500D01*
X197500Y277500D02*
Y387670D01*
Y426750D02*
Y463699D01*
X112500Y136112D02*
Y174000D01*
X112500Y213080D02*
Y265000D01*
X432500Y277501D02*
Y287250D01*
Y326330D02*
Y463699D01*
X517500Y682225D02*
Y813000D01*
X221830Y992750D02*
X412250D01*
X451330D02*
X504999D01*
X125000D02*
X177670D01*
X131245Y1063793D02*
X150086Y1079602D01*
X476773Y1082236D02*
X496959Y1065298D01*
X112500Y680711D02*
Y813250D01*
X517500Y209000D02*
Y264999D01*
Y136113D02*
Y174000D01*
X972607Y136113D02*
Y174000D01*
Y209000D02*
Y264999D01*
X567608Y680711D02*
Y813250D01*
X931880Y1082236D02*
X952067Y1065298D01*
X586353Y1063793D02*
X605193Y1079602D01*
X580107Y992750D02*
X632777D01*
X906438D02*
X960106D01*
X676938D02*
X867357D01*
X972607Y682225D02*
Y813000D01*
X887607Y326330D02*
Y463699D01*
Y277501D02*
Y287250D01*
X567607Y213080D02*
Y265000D01*
X567608Y136112D02*
Y174000D01*
X652607Y426750D02*
Y463699D01*
Y277500D02*
Y387670D01*
X580108Y277500D02*
X652608D01*
X618108Y463700D02*
X652608D01*
X972606Y1005250D02*
Y1021250D01*
X757607Y1097950D02*
X782606D01*
X567607Y1005250D02*
Y1021250D01*
X641752Y1110279D02*
X641775Y1110298D01*
X852607Y1123750D02*
Y1130250D01*
X757607Y1097950D02*
Y1125250D01*
X782606Y1097950D02*
Y1125250D01*
X852607Y1123750D02*
X861477D01*
X786267Y1134089D02*
X786277Y1134098D01*
X791258Y1139079D01*
X791267Y1139089D01*
X748946Y1139089D02*
X753946Y1134089D01*
X678761Y1123750D02*
X687606D01*
X678736D02*
X678761D01*
X687606D02*
Y1130250D01*
X794108Y112499D02*
X870108D01*
X758609Y125000D02*
Y183505D01*
X781608Y125000D02*
Y183634D01*
X934609Y476200D02*
Y538200D01*
X887608Y277500D02*
X960108D01*
X887608Y560500D02*
X960108D01*
X972608Y611000D02*
Y629091D01*
X887608Y463700D02*
X922108D01*
X887608Y550700D02*
X922108D01*
X887608D02*
Y560500D01*
X670108Y112499D02*
X746108D01*
X618108Y550700D02*
X652608D01*
Y560500D01*
X580108D02*
X652608D01*
X605608Y476200D02*
Y538200D01*
X567608Y573000D02*
Y630604D01*
X567634Y631534D02*
X567635Y631541D01*
X960108Y643221D02*
X960215D01*
X960108Y668094D02*
X960215D01*
X947608Y863750D02*
X960108D01*
X947608D02*
Y896225D01*
Y896250D01*
X851858Y933750D02*
X910108D01*
X580108Y863750D02*
X592608D01*
X567634Y679781D02*
X567635Y679774D01*
X592608Y863750D02*
Y896250D01*
X725108Y992750D02*
X815108D01*
X630108Y933750D02*
X688358D01*
X517501Y616081D02*
Y629091D01*
X1085216Y933750D02*
X1143465D01*
X1180216Y992750D02*
X1270216D01*
X1047715Y863750D02*
Y896250D01*
X1022742Y679781D02*
X1022742Y679774D01*
X1035215Y863750D02*
X1047715D01*
X1306966Y933750D02*
X1365216D01*
X1402716Y896225D02*
Y896250D01*
Y863750D02*
Y896225D01*
Y863750D02*
X1415216D01*
Y668094D02*
X1415322D01*
X1415216Y643221D02*
X1415322D01*
X1022742Y631534D02*
X1022742Y631541D01*
X1022715Y573000D02*
Y630604D01*
X1060715Y476200D02*
Y538200D01*
X1035215Y560500D02*
X1107715D01*
Y550700D02*
Y560500D01*
X1073216Y550700D02*
X1107715D01*
X1125216Y112499D02*
X1201216D01*
X1342716Y550700D02*
Y560500D01*
Y550700D02*
X1377216D01*
X1342716Y463700D02*
X1377216D01*
X1427716Y611000D02*
Y629091D01*
X1342716Y560500D02*
X1415216D01*
X1342716Y277500D02*
X1415216D01*
X1389716Y476200D02*
Y538200D01*
X1236715Y125000D02*
Y183634D01*
X1213716Y125000D02*
Y183505D01*
X1249215Y112499D02*
X1325216D01*
X1142714Y1123750D02*
Y1130250D01*
X1133843Y1123750D02*
X1133868D01*
X1142714D01*
X1204053Y1139089D02*
X1209053Y1134089D01*
X1246365Y1139079D02*
X1246375Y1139089D01*
X1241385Y1134098D02*
X1246365Y1139079D01*
X1241375Y1134089D02*
X1241385Y1134098D01*
X1307714Y1123750D02*
X1316585D01*
X1237714Y1097950D02*
Y1125250D01*
X1212714Y1097950D02*
Y1125250D01*
X1307714Y1123750D02*
Y1130250D01*
X1096860Y1110279D02*
X1096883Y1110298D01*
X1022714Y1005250D02*
Y1021250D01*
X1212714Y1097950D02*
X1237714D01*
X1427714Y1005250D02*
Y1021250D01*
X1073216Y463700D02*
X1107715D01*
X1035215Y277500D02*
X1107715D01*
X1107715Y277500D02*
Y387670D01*
Y426750D02*
Y463699D01*
X1022715Y136112D02*
Y174000D01*
X1022715Y213080D02*
Y265000D01*
X1342715Y277501D02*
Y287250D01*
Y326330D02*
Y463699D01*
X1427715Y682225D02*
Y813000D01*
X1132045Y992750D02*
X1322465D01*
X1361545D02*
X1415214D01*
X1035214D02*
X1087885D01*
X1041460Y1063793D02*
X1060301Y1079602D01*
X1386988Y1082236D02*
X1407174Y1065298D01*
X1022715Y680711D02*
Y813250D01*
X1427715Y209000D02*
Y264999D01*
Y136113D02*
Y174000D01*
X1540323Y933750D02*
X1598573D01*
X1635323Y992750D02*
X1725323D01*
X1502823Y863750D02*
Y896250D01*
X1477849Y679781D02*
X1477850Y679774D01*
X1490323Y863750D02*
X1502823D01*
X1762073Y933750D02*
X1820323D01*
X1857823Y896225D02*
Y896250D01*
Y863750D02*
Y896225D01*
Y863750D02*
X1870323D01*
Y668094D02*
X1870430D01*
X1870323Y643221D02*
X1870430D01*
X1477849Y631534D02*
X1477850Y631541D01*
X1477823Y573000D02*
Y630604D01*
X1515823Y476200D02*
Y538200D01*
X1490323Y560500D02*
X1562823D01*
Y550700D02*
Y560500D01*
X1528323Y550700D02*
X1562823D01*
X1580323Y112499D02*
X1656323D01*
X1797823Y550700D02*
Y560500D01*
Y550700D02*
X1832323D01*
X1797823Y463700D02*
X1832323D01*
X1882823Y611000D02*
Y629091D01*
X1797823Y560500D02*
X1870323D01*
X1797823Y277500D02*
X1870323D01*
X1844823Y476200D02*
Y538200D01*
X1691823Y125000D02*
Y183634D01*
X1668824Y125000D02*
Y183505D01*
X1704323Y112499D02*
X1780323D01*
X1597821Y1123750D02*
Y1130250D01*
X1588951Y1123750D02*
X1588976D01*
X1597821D01*
X1659161Y1139089D02*
X1664161Y1134089D01*
X1701473Y1139079D02*
X1701482Y1139089D01*
X1696492Y1134098D02*
X1701473Y1139079D01*
X1696482Y1134089D02*
X1696492Y1134098D01*
X1762822Y1123750D02*
X1771692D01*
X1692821Y1097950D02*
Y1125250D01*
X1667822Y1097950D02*
Y1125250D01*
X1762822Y1123750D02*
Y1130250D01*
X1551967Y1110279D02*
X1551990Y1110298D01*
X1477822Y1005250D02*
Y1021250D01*
X1667822Y1097950D02*
X1692821D01*
X1882821Y1005250D02*
Y1021250D01*
X1528323Y463700D02*
X1562823D01*
X1490323Y277500D02*
X1562823D01*
X1562822Y277500D02*
Y387670D01*
Y426750D02*
Y463699D01*
X1477823Y136112D02*
Y174000D01*
X1477822Y213080D02*
Y265000D01*
X1797822Y277501D02*
Y287250D01*
Y326330D02*
Y463699D01*
X1882822Y682225D02*
Y813000D01*
X1587153Y992750D02*
X1777572D01*
X1816653D02*
X1870321D01*
X1490322D02*
X1542992D01*
X1496568Y1063793D02*
X1515408Y1079602D01*
X1842095Y1082236D02*
X1862282Y1065298D01*
X1477823Y680711D02*
Y813250D01*
X1882822Y209000D02*
Y264999D01*
Y136113D02*
Y174000D01*
X432041Y112192D02*
X437093Y112723D01*
X470907Y116277D02*
X475959Y116808D01*
X517500Y169920D02*
Y175000D01*
Y209000D02*
Y214080D01*
Y571920D02*
Y577000D01*
Y611000D02*
Y616080D01*
Y807920D02*
Y813000D01*
Y847000D02*
Y852080D01*
X837106Y1142750D02*
X842187D01*
X798026D02*
X803107D01*
X737107D02*
X742187D01*
X698027D02*
X703107D01*
X635130Y1104722D02*
X639022Y1107987D01*
X605193Y1079602D02*
X609085Y1082867D01*
X931880Y1082236D02*
X935772Y1078971D01*
X901943Y1107356D02*
X905835Y1104091D01*
X862277Y992750D02*
X867357D01*
X901357D02*
X906438D01*
X632777D02*
X637858D01*
X671858D02*
X676938D01*
X851858Y933920D02*
Y939000D01*
Y973000D02*
Y978080D01*
X688357Y973000D02*
Y978080D01*
Y933920D02*
Y939000D01*
X652607Y426750D02*
Y431830D01*
Y387670D02*
Y392750D01*
X887607Y282170D02*
Y287250D01*
Y321250D02*
Y326330D01*
X567607Y208000D02*
Y213080D01*
Y168920D02*
Y174000D01*
Y847250D02*
Y852330D01*
Y808170D02*
Y813250D01*
X112500Y847250D02*
Y852330D01*
Y808170D02*
Y813250D01*
Y208000D02*
Y213080D01*
Y168920D02*
Y174000D01*
X432500Y282170D02*
Y287250D01*
Y321250D02*
Y326330D01*
X197500Y426750D02*
Y431830D01*
Y387670D02*
Y392750D01*
X233250Y973000D02*
Y978080D01*
Y933920D02*
Y939000D01*
X396750Y933920D02*
Y939000D01*
Y973000D02*
Y978080D01*
X177670Y992750D02*
X182750D01*
X216750D02*
X221830D01*
X407170D02*
X412250D01*
X446250D02*
X451330D01*
X476773Y1082236D02*
X480664Y1078971D01*
X446836Y1107356D02*
X450727Y1104091D01*
X180023Y1104722D02*
X183914Y1107987D01*
X150086Y1079602D02*
X153977Y1082867D01*
X281999Y1142750D02*
X287079D01*
X242919D02*
X247999D01*
X381999D02*
X387079D01*
X342919D02*
X347999D01*
X972607Y571920D02*
Y577000D01*
Y611000D02*
Y616080D01*
Y807920D02*
Y813000D01*
Y847000D02*
Y852080D01*
Y169920D02*
Y175000D01*
Y209000D02*
Y214080D01*
X1427715Y169920D02*
Y175000D01*
Y209000D02*
Y214080D01*
Y807920D02*
Y813000D01*
Y847000D02*
Y852080D01*
Y571920D02*
Y577000D01*
Y611000D02*
Y616080D01*
X1292215Y1142750D02*
X1297295D01*
X1253134D02*
X1258214D01*
X1192215D02*
X1197295D01*
X1153135D02*
X1158215D01*
X1090238Y1104722D02*
X1094130Y1107987D01*
X1060301Y1079602D02*
X1064193Y1082867D01*
X1386988Y1082236D02*
X1390880Y1078971D01*
X1357051Y1107356D02*
X1360943Y1104091D01*
X1317386Y992750D02*
X1322466D01*
X1356465D02*
X1361546D01*
X1087886D02*
X1092965D01*
X1126965D02*
X1132046D01*
X1306965Y933920D02*
Y939000D01*
Y973000D02*
Y978080D01*
X1143465Y973000D02*
Y978080D01*
Y933920D02*
Y939000D01*
X1107716Y426750D02*
Y431830D01*
Y387670D02*
Y392750D01*
X1342715Y282170D02*
Y287250D01*
Y321250D02*
Y326330D01*
X1022716Y208000D02*
Y213080D01*
Y168920D02*
Y174000D01*
Y847250D02*
Y852330D01*
Y808170D02*
Y813250D01*
X1882823Y169920D02*
Y175000D01*
Y209000D02*
Y214080D01*
Y807920D02*
Y813000D01*
Y847000D02*
Y852080D01*
Y571920D02*
Y577000D01*
Y611000D02*
Y616080D01*
X1747322Y1142750D02*
X1752402D01*
X1708242D02*
X1713322D01*
X1647322D02*
X1652402D01*
X1608242D02*
X1613322D01*
X1545346Y1104722D02*
X1549237Y1107987D01*
X1515409Y1079602D02*
X1519300Y1082867D01*
X1842096Y1082236D02*
X1845987Y1078971D01*
X1812159Y1107356D02*
X1816050Y1104091D01*
X1772493Y992750D02*
X1777573D01*
X1811573D02*
X1816653D01*
X1542993D02*
X1548073D01*
X1582073D02*
X1587153D01*
X1762073Y933920D02*
Y939000D01*
Y973000D02*
Y978080D01*
X1598573Y973000D02*
Y978080D01*
Y933920D02*
Y939000D01*
X1562823Y426750D02*
Y431830D01*
Y387670D02*
Y392750D01*
X1797823Y282170D02*
Y287250D01*
Y321250D02*
Y326330D01*
X1477823Y208000D02*
Y213080D01*
Y168920D02*
Y174000D01*
Y847250D02*
Y852330D01*
Y808170D02*
Y813250D01*
X887148Y112192D02*
X892201Y112723D01*
X926014Y116277D02*
X931067Y116808D01*
X1342256Y112192D02*
X1347308Y112723D01*
X1381122Y116277D02*
X1386174Y116808D01*
X1797363Y112192D02*
X1802415Y112723D01*
X1836229Y116277D02*
X1841281Y116808D01*
M02*
