G04*
G04 #@! TF.GenerationSoftware,Altium Limited,Altium Designer,18.0.9 (584)*
G04*
G04 Layer_Color=2752767*
%FSLAX44Y44*%
%MOMM*%
G71*
G01*
G75*
%ADD156C,0.0508*%
%ADD157C,0.0677*%
D156*
X463682Y127776D02*
Y131840D01*
X467746D01*
Y127776D01*
X463682D01*
X457093Y127084D02*
Y131148D01*
X461157D01*
Y127084D01*
X457093D01*
X443916Y125699D02*
Y129763D01*
X447980D01*
Y125699D01*
X443916D01*
X450505Y126391D02*
Y130455D01*
X454569D01*
Y126391D01*
X450505D01*
X437327Y125006D02*
Y129070D01*
X441391D01*
Y125006D01*
X437327D01*
X501468Y203218D02*
Y207282D01*
X505532D01*
Y203218D01*
X501468D01*
Y196593D02*
Y200657D01*
X505532D01*
Y196593D01*
X501468D01*
Y183343D02*
Y187407D01*
X505532D01*
Y183343D01*
X501468D01*
Y189968D02*
Y194032D01*
X505532D01*
Y189968D01*
X501468D01*
Y176718D02*
Y180782D01*
X505532D01*
Y176718D01*
X501468D01*
Y605218D02*
Y609282D01*
X505532D01*
Y605218D01*
X501468D01*
Y598593D02*
Y602657D01*
X505532D01*
Y598593D01*
X501468D01*
Y585343D02*
Y589407D01*
X505532D01*
Y585343D01*
X501468D01*
Y591968D02*
Y596032D01*
X505532D01*
Y591968D01*
X501468D01*
Y578718D02*
Y582782D01*
X505532D01*
Y578718D01*
X501468D01*
Y841218D02*
Y845282D01*
X505532D01*
Y841218D01*
X501468D01*
Y834593D02*
Y838657D01*
X505532D01*
Y834593D01*
X501468D01*
Y821343D02*
Y825407D01*
X505532D01*
Y821343D01*
X501468D01*
Y827968D02*
Y832032D01*
X505532D01*
Y827968D01*
X501468D01*
Y814718D02*
Y818782D01*
X505532D01*
Y814718D01*
X501468D01*
X804825Y1126718D02*
Y1130782D01*
X808888D01*
Y1126718D01*
X804825D01*
X811450D02*
Y1130782D01*
X815514D01*
Y1126718D01*
X811450D01*
X824699D02*
Y1130782D01*
X828764D01*
Y1126718D01*
X824699D01*
X818074D02*
Y1130782D01*
X822138D01*
Y1126718D01*
X818074D01*
X831324D02*
Y1130782D01*
X835388D01*
Y1126718D01*
X831324D01*
X704825D02*
Y1130782D01*
X708889D01*
Y1126718D01*
X704825D01*
X711450D02*
Y1130782D01*
X715514D01*
Y1126718D01*
X711450D01*
X724700D02*
Y1130782D01*
X728764D01*
Y1126718D01*
X724700D01*
X718075D02*
Y1130782D01*
X722139D01*
Y1126718D01*
X718075D01*
X731325D02*
Y1130782D01*
X735389D01*
Y1126718D01*
X731325D01*
X618924Y1072521D02*
Y1076585D01*
X622988D01*
Y1072521D01*
X618924D01*
X623999Y1076779D02*
Y1080843D01*
X628063D01*
Y1076779D01*
X623999D01*
X634150Y1085296D02*
Y1089360D01*
X638214D01*
Y1085296D01*
X634150D01*
X629075Y1081038D02*
Y1085102D01*
X633139D01*
Y1081038D01*
X629075D01*
X639225Y1089555D02*
Y1093619D01*
X643289D01*
Y1089555D01*
X639225D01*
X897676Y1088924D02*
Y1092988D01*
X901740D01*
Y1088924D01*
X897676D01*
X902751Y1084666D02*
Y1088729D01*
X906815D01*
Y1084666D01*
X902751D01*
X912902Y1076149D02*
Y1080213D01*
X916965D01*
Y1076149D01*
X912902D01*
X907826Y1080407D02*
Y1084471D01*
X911890D01*
Y1080407D01*
X907826D01*
X917977Y1071890D02*
Y1075954D01*
X922040D01*
Y1071890D01*
X917977D01*
X895575Y1004718D02*
Y1008782D01*
X899640D01*
Y1004718D01*
X895575D01*
X888951D02*
Y1008782D01*
X893015D01*
Y1004718D01*
X888951D01*
X875701D02*
Y1008782D01*
X879764D01*
Y1004718D01*
X875701D01*
X882326D02*
Y1008782D01*
X886389D01*
Y1004718D01*
X882326D01*
X869075D02*
Y1008782D01*
X873139D01*
Y1004718D01*
X869075D01*
X666076D02*
Y1008782D01*
X670139D01*
Y1004718D01*
X666076D01*
X659451D02*
Y1008782D01*
X663514D01*
Y1004718D01*
X659451D01*
X646200D02*
Y1008782D01*
X650265D01*
Y1004718D01*
X646200D01*
X652825D02*
Y1008782D01*
X656889D01*
Y1004718D01*
X652825D01*
X639576D02*
Y1008782D01*
X643640D01*
Y1004718D01*
X639576D01*
X835826Y967218D02*
Y971282D01*
X839890D01*
Y967218D01*
X835826D01*
Y960593D02*
Y964657D01*
X839890D01*
Y960593D01*
X835826D01*
Y947343D02*
Y951407D01*
X839890D01*
Y947343D01*
X835826D01*
Y953968D02*
Y958032D01*
X839890D01*
Y953968D01*
X835826D01*
Y940718D02*
Y944782D01*
X839890D01*
Y940718D01*
X835826D01*
X700325D02*
Y944782D01*
X704389D01*
Y940718D01*
X700325D01*
Y947343D02*
Y951407D01*
X704389D01*
Y947343D01*
X700325D01*
Y960593D02*
Y964657D01*
X704389D01*
Y960593D01*
X700325D01*
Y953968D02*
Y958032D01*
X704389D01*
Y953968D01*
X700325D01*
Y967218D02*
Y971282D01*
X704389D01*
Y967218D01*
X700325D01*
X664576Y394468D02*
Y398532D01*
X668640D01*
Y394468D01*
X664576D01*
Y401093D02*
Y405157D01*
X668640D01*
Y401093D01*
X664576D01*
Y414343D02*
Y418407D01*
X668640D01*
Y414343D01*
X664576D01*
Y407718D02*
Y411782D01*
X668640D01*
Y407718D01*
X664576D01*
Y420968D02*
Y425032D01*
X668640D01*
Y420968D01*
X664576D01*
X871575Y315468D02*
Y319532D01*
X875639D01*
Y315468D01*
X871575D01*
Y308843D02*
Y312907D01*
X875639D01*
Y308843D01*
X871575D01*
Y295593D02*
Y299657D01*
X875639D01*
Y295593D01*
X871575D01*
Y302218D02*
Y306282D01*
X875639D01*
Y302218D01*
X871575D01*
Y288968D02*
Y293032D01*
X875639D01*
Y288968D01*
X871575D01*
X579576Y175718D02*
Y179782D01*
X583639D01*
Y175718D01*
X579576D01*
Y182343D02*
Y186407D01*
X583639D01*
Y182343D01*
X579576D01*
Y195593D02*
Y199657D01*
X583639D01*
Y195593D01*
X579576D01*
Y188968D02*
Y193032D01*
X583639D01*
Y188968D01*
X579576D01*
Y202218D02*
Y206282D01*
X583639D01*
Y202218D01*
X579576D01*
Y814968D02*
Y819032D01*
X583639D01*
Y814968D01*
X579576D01*
Y821593D02*
Y825657D01*
X583639D01*
Y821593D01*
X579576D01*
Y834843D02*
Y838907D01*
X583639D01*
Y834843D01*
X579576D01*
Y828218D02*
Y832282D01*
X583639D01*
Y828218D01*
X579576D01*
Y841468D02*
Y845532D01*
X583639D01*
Y841468D01*
X579576D01*
X124468Y814968D02*
Y819032D01*
X128532D01*
Y814968D01*
X124468D01*
Y821593D02*
Y825657D01*
X128532D01*
Y821593D01*
X124468D01*
Y834843D02*
Y838907D01*
X128532D01*
Y834843D01*
X124468D01*
Y828218D02*
Y832282D01*
X128532D01*
Y828218D01*
X124468D01*
Y841468D02*
Y845532D01*
X128532D01*
Y841468D01*
X124468D01*
Y175718D02*
Y179782D01*
X128532D01*
Y175718D01*
X124468D01*
Y182343D02*
Y186407D01*
X128532D01*
Y182343D01*
X124468D01*
Y195593D02*
Y199657D01*
X128532D01*
Y195593D01*
X124468D01*
Y188968D02*
Y193032D01*
X128532D01*
Y188968D01*
X124468D01*
Y202218D02*
Y206282D01*
X128532D01*
Y202218D01*
X124468D01*
X416468Y315468D02*
Y319532D01*
X420532D01*
Y315468D01*
X416468D01*
Y308843D02*
Y312907D01*
X420532D01*
Y308843D01*
X416468D01*
Y295593D02*
Y299657D01*
X420532D01*
Y295593D01*
X416468D01*
Y302218D02*
Y306282D01*
X420532D01*
Y302218D01*
X416468D01*
Y288968D02*
Y293032D01*
X420532D01*
Y288968D01*
X416468D01*
X209468Y394468D02*
Y398532D01*
X213532D01*
Y394468D01*
X209468D01*
Y401093D02*
Y405157D01*
X213532D01*
Y401093D01*
X209468D01*
Y414343D02*
Y418407D01*
X213532D01*
Y414343D01*
X209468D01*
Y407718D02*
Y411782D01*
X213532D01*
Y407718D01*
X209468D01*
Y420968D02*
Y425032D01*
X213532D01*
Y420968D01*
X209468D01*
X245218Y940718D02*
Y944782D01*
X249282D01*
Y940718D01*
X245218D01*
Y947343D02*
Y951407D01*
X249282D01*
Y947343D01*
X245218D01*
Y960593D02*
Y964657D01*
X249282D01*
Y960593D01*
X245218D01*
Y953968D02*
Y958032D01*
X249282D01*
Y953968D01*
X245218D01*
Y967218D02*
Y971282D01*
X249282D01*
Y967218D01*
X245218D01*
X380718D02*
Y971282D01*
X384782D01*
Y967218D01*
X380718D01*
Y960593D02*
Y964657D01*
X384782D01*
Y960593D01*
X380718D01*
Y947343D02*
Y951407D01*
X384782D01*
Y947343D01*
X380718D01*
Y953968D02*
Y958032D01*
X384782D01*
Y953968D01*
X380718D01*
Y940718D02*
Y944782D01*
X384782D01*
Y940718D01*
X380718D01*
X210968Y1004718D02*
Y1008782D01*
X215032D01*
Y1004718D01*
X210968D01*
X204343D02*
Y1008782D01*
X208407D01*
Y1004718D01*
X204343D01*
X191093D02*
Y1008782D01*
X195157D01*
Y1004718D01*
X191093D01*
X197718D02*
Y1008782D01*
X201782D01*
Y1004718D01*
X197718D01*
X184468D02*
Y1008782D01*
X188532D01*
Y1004718D01*
X184468D01*
X440468D02*
Y1008782D01*
X444532D01*
Y1004718D01*
X440468D01*
X433843D02*
Y1008782D01*
X437907D01*
Y1004718D01*
X433843D01*
X420593D02*
Y1008782D01*
X424657D01*
Y1004718D01*
X420593D01*
X427218D02*
Y1008782D01*
X431282D01*
Y1004718D01*
X427218D01*
X413968D02*
Y1008782D01*
X418032D01*
Y1004718D01*
X413968D01*
X442569Y1088924D02*
Y1092988D01*
X446633D01*
Y1088924D01*
X442569D01*
X447644Y1084666D02*
Y1088729D01*
X451708D01*
Y1084666D01*
X447644D01*
X457794Y1076149D02*
Y1080213D01*
X461858D01*
Y1076149D01*
X457794D01*
X452719Y1080407D02*
Y1084471D01*
X456783D01*
Y1080407D01*
X452719D01*
X462869Y1071890D02*
Y1075954D01*
X466933D01*
Y1071890D01*
X462869D01*
X163817Y1072521D02*
Y1076585D01*
X167881D01*
Y1072521D01*
X163817D01*
X168892Y1076779D02*
Y1080843D01*
X172956D01*
Y1076779D01*
X168892D01*
X179042Y1085296D02*
Y1089360D01*
X183106D01*
Y1085296D01*
X179042D01*
X173967Y1081038D02*
Y1085102D01*
X178031D01*
Y1081038D01*
X173967D01*
X184117Y1089555D02*
Y1093619D01*
X188181D01*
Y1089555D01*
X184117D01*
X249717Y1126718D02*
Y1130782D01*
X253781D01*
Y1126718D01*
X249717D01*
X256342D02*
Y1130782D01*
X260406D01*
Y1126718D01*
X256342D01*
X269592D02*
Y1130782D01*
X273656D01*
Y1126718D01*
X269592D01*
X262967D02*
Y1130782D01*
X267031D01*
Y1126718D01*
X262967D01*
X276217D02*
Y1130782D01*
X280281D01*
Y1126718D01*
X276217D01*
X349717D02*
Y1130782D01*
X353781D01*
Y1126718D01*
X349717D01*
X356342D02*
Y1130782D01*
X360406D01*
Y1126718D01*
X356342D01*
X369592D02*
Y1130782D01*
X373656D01*
Y1126718D01*
X369592D01*
X362967D02*
Y1130782D01*
X367031D01*
Y1126718D01*
X362967D01*
X376217D02*
Y1130782D01*
X380281D01*
Y1126718D01*
X376217D01*
X956575Y605218D02*
Y609282D01*
X960639D01*
Y605218D01*
X956575D01*
Y598593D02*
Y602657D01*
X960639D01*
Y598593D01*
X956575D01*
Y585343D02*
Y589407D01*
X960639D01*
Y585343D01*
X956575D01*
Y591968D02*
Y596032D01*
X960639D01*
Y591968D01*
X956575D01*
Y578718D02*
Y582782D01*
X960639D01*
Y578718D01*
X956575D01*
Y841218D02*
Y845282D01*
X960639D01*
Y841218D01*
X956575D01*
Y834593D02*
Y838657D01*
X960639D01*
Y834593D01*
X956575D01*
Y821343D02*
Y825407D01*
X960639D01*
Y821343D01*
X956575D01*
Y827968D02*
Y832032D01*
X960639D01*
Y827968D01*
X956575D01*
Y814718D02*
Y818782D01*
X960639D01*
Y814718D01*
X956575D01*
Y203218D02*
Y207282D01*
X960639D01*
Y203218D01*
X956575D01*
Y196593D02*
Y200657D01*
X960639D01*
Y196593D01*
X956575D01*
Y183343D02*
Y187407D01*
X960639D01*
Y183343D01*
X956575D01*
Y189968D02*
Y194032D01*
X960639D01*
Y189968D01*
X956575D01*
Y176718D02*
Y180782D01*
X960639D01*
Y176718D01*
X956575D01*
X1411684Y203218D02*
Y207282D01*
X1415748D01*
Y203218D01*
X1411684D01*
Y196593D02*
Y200657D01*
X1415748D01*
Y196593D01*
X1411684D01*
Y183343D02*
Y187407D01*
X1415748D01*
Y183343D01*
X1411684D01*
Y189968D02*
Y194032D01*
X1415748D01*
Y189968D01*
X1411684D01*
Y176718D02*
Y180782D01*
X1415748D01*
Y176718D01*
X1411684D01*
Y841218D02*
Y845282D01*
X1415748D01*
Y841218D01*
X1411684D01*
Y834593D02*
Y838657D01*
X1415748D01*
Y834593D01*
X1411684D01*
Y821343D02*
Y825407D01*
X1415748D01*
Y821343D01*
X1411684D01*
Y827968D02*
Y832032D01*
X1415748D01*
Y827968D01*
X1411684D01*
Y814718D02*
Y818782D01*
X1415748D01*
Y814718D01*
X1411684D01*
Y605218D02*
Y609282D01*
X1415748D01*
Y605218D01*
X1411684D01*
Y598593D02*
Y602657D01*
X1415748D01*
Y598593D01*
X1411684D01*
Y585343D02*
Y589407D01*
X1415748D01*
Y585343D01*
X1411684D01*
Y591968D02*
Y596032D01*
X1415748D01*
Y591968D01*
X1411684D01*
Y578718D02*
Y582782D01*
X1415748D01*
Y578718D01*
X1411684D01*
X1259932Y1126718D02*
Y1130782D01*
X1263997D01*
Y1126718D01*
X1259932D01*
X1266557D02*
Y1130782D01*
X1270621D01*
Y1126718D01*
X1266557D01*
X1279808D02*
Y1130782D01*
X1283871D01*
Y1126718D01*
X1279808D01*
X1273183D02*
Y1130782D01*
X1277246D01*
Y1126718D01*
X1273183D01*
X1286432D02*
Y1130782D01*
X1290497D01*
Y1126718D01*
X1286432D01*
X1159933D02*
Y1130782D01*
X1163997D01*
Y1126718D01*
X1159933D01*
X1166558D02*
Y1130782D01*
X1170622D01*
Y1126718D01*
X1166558D01*
X1179808D02*
Y1130782D01*
X1183872D01*
Y1126718D01*
X1179808D01*
X1173183D02*
Y1130782D01*
X1177247D01*
Y1126718D01*
X1173183D01*
X1186433D02*
Y1130782D01*
X1190497D01*
Y1126718D01*
X1186433D01*
X1074032Y1072521D02*
Y1076585D01*
X1078096D01*
Y1072521D01*
X1074032D01*
X1079108Y1076779D02*
Y1080843D01*
X1083171D01*
Y1076779D01*
X1079108D01*
X1089258Y1085296D02*
Y1089360D01*
X1093322D01*
Y1085296D01*
X1089258D01*
X1084183Y1081038D02*
Y1085102D01*
X1088247D01*
Y1081038D01*
X1084183D01*
X1094333Y1089555D02*
Y1093619D01*
X1098397D01*
Y1089555D01*
X1094333D01*
X1352784Y1088924D02*
Y1092988D01*
X1356848D01*
Y1088924D01*
X1352784D01*
X1357859Y1084666D02*
Y1088729D01*
X1361924D01*
Y1084666D01*
X1357859D01*
X1368010Y1076149D02*
Y1080213D01*
X1372074D01*
Y1076149D01*
X1368010D01*
X1362935Y1080407D02*
Y1084471D01*
X1366998D01*
Y1080407D01*
X1362935D01*
X1373085Y1071890D02*
Y1075954D01*
X1377149D01*
Y1071890D01*
X1373085D01*
X1350683Y1004718D02*
Y1008782D01*
X1354747D01*
Y1004718D01*
X1350683D01*
X1344059D02*
Y1008782D01*
X1348123D01*
Y1004718D01*
X1344059D01*
X1330809D02*
Y1008782D01*
X1334872D01*
Y1004718D01*
X1330809D01*
X1337433D02*
Y1008782D01*
X1341497D01*
Y1004718D01*
X1337433D01*
X1324184D02*
Y1008782D01*
X1328248D01*
Y1004718D01*
X1324184D01*
X1121183D02*
Y1008782D01*
X1125247D01*
Y1004718D01*
X1121183D01*
X1114558D02*
Y1008782D01*
X1118623D01*
Y1004718D01*
X1114558D01*
X1101309D02*
Y1008782D01*
X1105372D01*
Y1004718D01*
X1101309D01*
X1107934D02*
Y1008782D01*
X1111998D01*
Y1004718D01*
X1107934D01*
X1094684D02*
Y1008782D01*
X1098747D01*
Y1004718D01*
X1094684D01*
X1290934Y967218D02*
Y971282D01*
X1294998D01*
Y967218D01*
X1290934D01*
Y960593D02*
Y964657D01*
X1294998D01*
Y960593D01*
X1290934D01*
Y947343D02*
Y951407D01*
X1294998D01*
Y947343D01*
X1290934D01*
Y953968D02*
Y958032D01*
X1294998D01*
Y953968D01*
X1290934D01*
Y940718D02*
Y944782D01*
X1294998D01*
Y940718D01*
X1290934D01*
X1155434D02*
Y944782D01*
X1159498D01*
Y940718D01*
X1155434D01*
Y947343D02*
Y951407D01*
X1159498D01*
Y947343D01*
X1155434D01*
Y960593D02*
Y964657D01*
X1159498D01*
Y960593D01*
X1155434D01*
Y953968D02*
Y958032D01*
X1159498D01*
Y953968D01*
X1155434D01*
Y967218D02*
Y971282D01*
X1159498D01*
Y967218D01*
X1155434D01*
X1119684Y394468D02*
Y398532D01*
X1123747D01*
Y394468D01*
X1119684D01*
Y401093D02*
Y405157D01*
X1123747D01*
Y401093D01*
X1119684D01*
Y414343D02*
Y418407D01*
X1123747D01*
Y414343D01*
X1119684D01*
Y407718D02*
Y411782D01*
X1123747D01*
Y407718D01*
X1119684D01*
Y420968D02*
Y425032D01*
X1123747D01*
Y420968D01*
X1119684D01*
X1326684Y315468D02*
Y319532D01*
X1330748D01*
Y315468D01*
X1326684D01*
Y308843D02*
Y312907D01*
X1330748D01*
Y308843D01*
X1326684D01*
Y295593D02*
Y299657D01*
X1330748D01*
Y295593D01*
X1326684D01*
Y302218D02*
Y306282D01*
X1330748D01*
Y302218D01*
X1326684D01*
Y288968D02*
Y293032D01*
X1330748D01*
Y288968D01*
X1326684D01*
X1034684Y175718D02*
Y179782D01*
X1038747D01*
Y175718D01*
X1034684D01*
Y182343D02*
Y186407D01*
X1038747D01*
Y182343D01*
X1034684D01*
Y195593D02*
Y199657D01*
X1038747D01*
Y195593D01*
X1034684D01*
Y188968D02*
Y193032D01*
X1038747D01*
Y188968D01*
X1034684D01*
Y202218D02*
Y206282D01*
X1038747D01*
Y202218D01*
X1034684D01*
Y814968D02*
Y819032D01*
X1038747D01*
Y814968D01*
X1034684D01*
Y821593D02*
Y825657D01*
X1038747D01*
Y821593D01*
X1034684D01*
Y834843D02*
Y838907D01*
X1038747D01*
Y834843D01*
X1034684D01*
Y828218D02*
Y832282D01*
X1038747D01*
Y828218D01*
X1034684D01*
Y841468D02*
Y845532D01*
X1038747D01*
Y841468D01*
X1034684D01*
X1866791Y203218D02*
Y207282D01*
X1870855D01*
Y203218D01*
X1866791D01*
Y196593D02*
Y200657D01*
X1870855D01*
Y196593D01*
X1866791D01*
Y183343D02*
Y187407D01*
X1870855D01*
Y183343D01*
X1866791D01*
Y189968D02*
Y194032D01*
X1870855D01*
Y189968D01*
X1866791D01*
Y176718D02*
Y180782D01*
X1870855D01*
Y176718D01*
X1866791D01*
Y841218D02*
Y845282D01*
X1870855D01*
Y841218D01*
X1866791D01*
Y834593D02*
Y838657D01*
X1870855D01*
Y834593D01*
X1866791D01*
Y821343D02*
Y825407D01*
X1870855D01*
Y821343D01*
X1866791D01*
Y827968D02*
Y832032D01*
X1870855D01*
Y827968D01*
X1866791D01*
Y814718D02*
Y818782D01*
X1870855D01*
Y814718D01*
X1866791D01*
Y605218D02*
Y609282D01*
X1870855D01*
Y605218D01*
X1866791D01*
Y598593D02*
Y602657D01*
X1870855D01*
Y598593D01*
X1866791D01*
Y585343D02*
Y589407D01*
X1870855D01*
Y585343D01*
X1866791D01*
Y591968D02*
Y596032D01*
X1870855D01*
Y591968D01*
X1866791D01*
Y578718D02*
Y582782D01*
X1870855D01*
Y578718D01*
X1866791D01*
X1715040Y1126718D02*
Y1130782D01*
X1719104D01*
Y1126718D01*
X1715040D01*
X1721665D02*
Y1130782D01*
X1725729D01*
Y1126718D01*
X1721665D01*
X1734915D02*
Y1130782D01*
X1738979D01*
Y1126718D01*
X1734915D01*
X1728290D02*
Y1130782D01*
X1732354D01*
Y1126718D01*
X1728290D01*
X1741540D02*
Y1130782D01*
X1745604D01*
Y1126718D01*
X1741540D01*
X1615040D02*
Y1130782D01*
X1619104D01*
Y1126718D01*
X1615040D01*
X1621665D02*
Y1130782D01*
X1625729D01*
Y1126718D01*
X1621665D01*
X1634915D02*
Y1130782D01*
X1638979D01*
Y1126718D01*
X1634915D01*
X1628290D02*
Y1130782D01*
X1632354D01*
Y1126718D01*
X1628290D01*
X1641540D02*
Y1130782D01*
X1645604D01*
Y1126718D01*
X1641540D01*
X1529140Y1072521D02*
Y1076585D01*
X1533204D01*
Y1072521D01*
X1529140D01*
X1534215Y1076779D02*
Y1080843D01*
X1538279D01*
Y1076779D01*
X1534215D01*
X1544365Y1085296D02*
Y1089360D01*
X1548429D01*
Y1085296D01*
X1544365D01*
X1539290Y1081038D02*
Y1085102D01*
X1543354D01*
Y1081038D01*
X1539290D01*
X1549440Y1089555D02*
Y1093619D01*
X1553504D01*
Y1089555D01*
X1549440D01*
X1807892Y1088924D02*
Y1092988D01*
X1811956D01*
Y1088924D01*
X1807892D01*
X1812967Y1084666D02*
Y1088729D01*
X1817031D01*
Y1084666D01*
X1812967D01*
X1823117Y1076149D02*
Y1080213D01*
X1827181D01*
Y1076149D01*
X1823117D01*
X1818042Y1080407D02*
Y1084471D01*
X1822106D01*
Y1080407D01*
X1818042D01*
X1828192Y1071890D02*
Y1075954D01*
X1832256D01*
Y1071890D01*
X1828192D01*
X1805791Y1004718D02*
Y1008782D01*
X1809855D01*
Y1004718D01*
X1805791D01*
X1799166D02*
Y1008782D01*
X1803230D01*
Y1004718D01*
X1799166D01*
X1785916D02*
Y1008782D01*
X1789980D01*
Y1004718D01*
X1785916D01*
X1792541D02*
Y1008782D01*
X1796605D01*
Y1004718D01*
X1792541D01*
X1779291D02*
Y1008782D01*
X1783355D01*
Y1004718D01*
X1779291D01*
X1576291D02*
Y1008782D01*
X1580355D01*
Y1004718D01*
X1576291D01*
X1569666D02*
Y1008782D01*
X1573730D01*
Y1004718D01*
X1569666D01*
X1556416D02*
Y1008782D01*
X1560480D01*
Y1004718D01*
X1556416D01*
X1563041D02*
Y1008782D01*
X1567105D01*
Y1004718D01*
X1563041D01*
X1549791D02*
Y1008782D01*
X1553855D01*
Y1004718D01*
X1549791D01*
X1746041Y967218D02*
Y971282D01*
X1750105D01*
Y967218D01*
X1746041D01*
Y960593D02*
Y964657D01*
X1750105D01*
Y960593D01*
X1746041D01*
Y947343D02*
Y951407D01*
X1750105D01*
Y947343D01*
X1746041D01*
Y953968D02*
Y958032D01*
X1750105D01*
Y953968D01*
X1746041D01*
Y940718D02*
Y944782D01*
X1750105D01*
Y940718D01*
X1746041D01*
X1610541D02*
Y944782D01*
X1614605D01*
Y940718D01*
X1610541D01*
Y947343D02*
Y951407D01*
X1614605D01*
Y947343D01*
X1610541D01*
Y960593D02*
Y964657D01*
X1614605D01*
Y960593D01*
X1610541D01*
Y953968D02*
Y958032D01*
X1614605D01*
Y953968D01*
X1610541D01*
Y967218D02*
Y971282D01*
X1614605D01*
Y967218D01*
X1610541D01*
X1574791Y394468D02*
Y398532D01*
X1578855D01*
Y394468D01*
X1574791D01*
Y401093D02*
Y405157D01*
X1578855D01*
Y401093D01*
X1574791D01*
Y414343D02*
Y418407D01*
X1578855D01*
Y414343D01*
X1574791D01*
Y407718D02*
Y411782D01*
X1578855D01*
Y407718D01*
X1574791D01*
Y420968D02*
Y425032D01*
X1578855D01*
Y420968D01*
X1574791D01*
X1781791Y315468D02*
Y319532D01*
X1785855D01*
Y315468D01*
X1781791D01*
Y308843D02*
Y312907D01*
X1785855D01*
Y308843D01*
X1781791D01*
Y295593D02*
Y299657D01*
X1785855D01*
Y295593D01*
X1781791D01*
Y302218D02*
Y306282D01*
X1785855D01*
Y302218D01*
X1781791D01*
Y288968D02*
Y293032D01*
X1785855D01*
Y288968D01*
X1781791D01*
X1489791Y175718D02*
Y179782D01*
X1493855D01*
Y175718D01*
X1489791D01*
Y182343D02*
Y186407D01*
X1493855D01*
Y182343D01*
X1489791D01*
Y195593D02*
Y199657D01*
X1493855D01*
Y195593D01*
X1489791D01*
Y188968D02*
Y193032D01*
X1493855D01*
Y188968D01*
X1489791D01*
Y202218D02*
Y206282D01*
X1493855D01*
Y202218D01*
X1489791D01*
Y814968D02*
Y819032D01*
X1493855D01*
Y814968D01*
X1489791D01*
Y821593D02*
Y825657D01*
X1493855D01*
Y821593D01*
X1489791D01*
Y834843D02*
Y838907D01*
X1493855D01*
Y834843D01*
X1489791D01*
Y828218D02*
Y832282D01*
X1493855D01*
Y828218D01*
X1489791D01*
Y841468D02*
Y845532D01*
X1493855D01*
Y841468D01*
X1489791D01*
X918790Y127776D02*
Y131840D01*
X922853D01*
Y127776D01*
X918790D01*
X912201Y127084D02*
Y131148D01*
X916265D01*
Y127084D01*
X912201D01*
X899023Y125699D02*
Y129763D01*
X903087D01*
Y125699D01*
X899023D01*
X905612Y126391D02*
Y130455D01*
X909676D01*
Y126391D01*
X905612D01*
X892435Y125006D02*
Y129070D01*
X896499D01*
Y125006D01*
X892435D01*
X1373897Y127776D02*
Y131840D01*
X1377961D01*
Y127776D01*
X1373897D01*
X1367308Y127084D02*
Y131148D01*
X1371372D01*
Y127084D01*
X1367308D01*
X1354131Y125699D02*
Y129763D01*
X1358195D01*
Y125699D01*
X1354131D01*
X1360720Y126391D02*
Y130455D01*
X1364784D01*
Y126391D01*
X1360720D01*
X1347542Y125006D02*
Y129070D01*
X1351606D01*
Y125006D01*
X1347542D01*
X1829004Y127776D02*
Y131840D01*
X1833068D01*
Y127776D01*
X1829004D01*
X1822416Y127084D02*
Y131148D01*
X1826480D01*
Y127084D01*
X1822416D01*
X1809238Y125699D02*
Y129763D01*
X1813302D01*
Y125699D01*
X1809238D01*
X1815827Y126391D02*
Y130455D01*
X1819891D01*
Y126391D01*
X1815827D01*
X1802650Y125006D02*
Y129070D01*
X1806714D01*
Y125006D01*
X1802650D01*
X267313Y801980D02*
X265281Y806044D01*
X269345D01*
X267313Y801980D01*
Y773980D02*
X265281Y778044D01*
X269345D01*
X267313Y773980D01*
X292713Y801980D02*
X290681Y806044D01*
X294745D01*
X292713Y801980D01*
Y773980D02*
X290681Y778044D01*
X294745D01*
X292713Y773980D01*
X362713D02*
X360681Y778044D01*
X364745D01*
X362713Y773980D01*
Y801980D02*
X360681Y806044D01*
X364745D01*
X362713Y801980D01*
X337313Y773980D02*
X335281Y778044D01*
X339345D01*
X337313Y773980D01*
Y801980D02*
X335281Y806044D01*
X339345D01*
X337313Y801980D01*
X403501Y188518D02*
X404517Y189534D01*
X405533D01*
X404517Y190550D01*
X405533Y191566D01*
X404517D01*
X403501Y192582D01*
X402485Y191566D01*
X401469D01*
X402485Y190550D01*
X401469Y189534D01*
X402485D01*
X403501Y188518D01*
Y218218D02*
X404517Y219234D01*
X405533D01*
X404517Y220250D01*
X405533Y221266D01*
X404517D01*
X403501Y222282D01*
X402485Y221266D01*
X401469D01*
X402485Y220250D01*
X401469Y219234D01*
X402485D01*
X403501Y218218D01*
X364501Y188518D02*
X365517Y189534D01*
X366533D01*
X365517Y190550D01*
X366533Y191566D01*
X365517D01*
X364501Y192582D01*
X363485Y191566D01*
X362469D01*
X363485Y190550D01*
X362469Y189534D01*
X363485D01*
X364501Y188518D01*
Y218218D02*
X365517Y219234D01*
X366533D01*
X365517Y220250D01*
X366533Y221266D01*
X365517D01*
X364501Y222282D01*
X363485Y221266D01*
X362469D01*
X363485Y220250D01*
X362469Y219234D01*
X363485D01*
X364501Y218218D01*
X354979Y704178D02*
X355995Y706210D01*
X354979Y708242D01*
X357011Y707226D01*
X359043Y708242D01*
X358027Y706210D01*
X359043Y704178D01*
X357011Y705194D01*
X354979Y704178D01*
X270979D02*
X271995Y706210D01*
X270979Y708242D01*
X273011Y707226D01*
X275043Y708242D01*
X274027Y706210D01*
X275043Y704178D01*
X273011Y705194D01*
X270979Y704178D01*
X393257Y698537D02*
Y697521D01*
X395289D01*
Y698537D01*
X396305D01*
Y700569D01*
X395289D01*
Y701585D01*
X393257D01*
Y700569D01*
X392241D01*
Y698537D01*
X393257D01*
Y717536D02*
Y716520D01*
X395289D01*
Y717536D01*
X396305D01*
Y719568D01*
X395289D01*
Y720584D01*
X393257D01*
Y719568D01*
X392241D01*
Y717536D01*
X393257D01*
X250541Y186270D02*
X251557D01*
X252573Y187286D01*
X253589Y186270D01*
X254605D01*
Y187286D01*
X253589Y188302D01*
X254605Y189318D01*
Y190334D01*
X253589D01*
X252573Y189318D01*
X251557Y190334D01*
X250541D01*
Y189318D01*
X251557Y188302D01*
X250541Y187286D01*
Y186270D01*
X206541D02*
X207557D01*
X208573Y187286D01*
X209589Y186270D01*
X210605D01*
Y187286D01*
X209589Y188302D01*
X210605Y189318D01*
Y190334D01*
X209589D01*
X208573Y189318D01*
X207557Y190334D01*
X206541D01*
Y189318D01*
X207557Y188302D01*
X206541Y187286D01*
Y186270D01*
X722420Y801980D02*
X720388Y806044D01*
X724452D01*
X722420Y801980D01*
Y773980D02*
X720388Y778044D01*
X724452D01*
X722420Y773980D01*
X747820Y801980D02*
X745788Y806044D01*
X749852D01*
X747820Y801980D01*
Y773980D02*
X745788Y778044D01*
X749852D01*
X747820Y773980D01*
X817820D02*
X815788Y778044D01*
X819852D01*
X817820Y773980D01*
Y801980D02*
X815788Y806044D01*
X819852D01*
X817820Y801980D01*
X792420Y773980D02*
X790388Y778044D01*
X794452D01*
X792420Y773980D01*
Y801980D02*
X790388Y806044D01*
X794452D01*
X792420Y801980D01*
X858608Y188518D02*
X859624Y189534D01*
X860640D01*
X859624Y190550D01*
X860640Y191566D01*
X859624D01*
X858608Y192582D01*
X857592Y191566D01*
X856576D01*
X857592Y190550D01*
X856576Y189534D01*
X857592D01*
X858608Y188518D01*
Y218218D02*
X859624Y219234D01*
X860640D01*
X859624Y220250D01*
X860640Y221266D01*
X859624D01*
X858608Y222282D01*
X857592Y221266D01*
X856576D01*
X857592Y220250D01*
X856576Y219234D01*
X857592D01*
X858608Y218218D01*
X819608Y188518D02*
X820624Y189534D01*
X821640D01*
X820624Y190550D01*
X821640Y191566D01*
X820624D01*
X819608Y192582D01*
X818592Y191566D01*
X817576D01*
X818592Y190550D01*
X817576Y189534D01*
X818592D01*
X819608Y188518D01*
Y218218D02*
X820624Y219234D01*
X821640D01*
X820624Y220250D01*
X821640Y221266D01*
X820624D01*
X819608Y222282D01*
X818592Y221266D01*
X817576D01*
X818592Y220250D01*
X817576Y219234D01*
X818592D01*
X819608Y218218D01*
X810086Y704178D02*
X811102Y706210D01*
X810086Y708242D01*
X812118Y707226D01*
X814150Y708242D01*
X813134Y706210D01*
X814150Y704178D01*
X812118Y705194D01*
X810086Y704178D01*
X726086D02*
X727102Y706210D01*
X726086Y708242D01*
X728118Y707226D01*
X730150Y708242D01*
X729134Y706210D01*
X730150Y704178D01*
X728118Y705194D01*
X726086Y704178D01*
X848364Y698537D02*
Y697521D01*
X850396D01*
Y698537D01*
X851412D01*
Y700569D01*
X850396D01*
Y701585D01*
X848364D01*
Y700569D01*
X847348D01*
Y698537D01*
X848364D01*
Y717536D02*
Y716520D01*
X850396D01*
Y717536D01*
X851412D01*
Y719568D01*
X850396D01*
Y720584D01*
X848364D01*
Y719568D01*
X847348D01*
Y717536D01*
X848364D01*
X705648Y186270D02*
X706664D01*
X707680Y187286D01*
X708696Y186270D01*
X709712D01*
Y187286D01*
X708696Y188302D01*
X709712Y189318D01*
Y190334D01*
X708696D01*
X707680Y189318D01*
X706664Y190334D01*
X705648D01*
Y189318D01*
X706664Y188302D01*
X705648Y187286D01*
Y186270D01*
X661648D02*
X662664D01*
X663680Y187286D01*
X664696Y186270D01*
X665712D01*
Y187286D01*
X664696Y188302D01*
X665712Y189318D01*
Y190334D01*
X664696D01*
X663680Y189318D01*
X662664Y190334D01*
X661648D01*
Y189318D01*
X662664Y188302D01*
X661648Y187286D01*
Y186270D01*
X1177528Y801980D02*
X1175496Y806044D01*
X1179560D01*
X1177528Y801980D01*
Y773980D02*
X1175496Y778044D01*
X1179560D01*
X1177528Y773980D01*
X1202928Y801980D02*
X1200896Y806044D01*
X1204960D01*
X1202928Y801980D01*
Y773980D02*
X1200896Y778044D01*
X1204960D01*
X1202928Y773980D01*
X1272928D02*
X1270896Y778044D01*
X1274960D01*
X1272928Y773980D01*
Y801980D02*
X1270896Y806044D01*
X1274960D01*
X1272928Y801980D01*
X1247528Y773980D02*
X1245496Y778044D01*
X1249560D01*
X1247528Y773980D01*
Y801980D02*
X1245496Y806044D01*
X1249560D01*
X1247528Y801980D01*
X1313716Y188518D02*
X1314732Y189534D01*
X1315748D01*
X1314732Y190550D01*
X1315748Y191566D01*
X1314732D01*
X1313716Y192582D01*
X1312700Y191566D01*
X1311684D01*
X1312700Y190550D01*
X1311684Y189534D01*
X1312700D01*
X1313716Y188518D01*
Y218218D02*
X1314732Y219234D01*
X1315748D01*
X1314732Y220250D01*
X1315748Y221266D01*
X1314732D01*
X1313716Y222282D01*
X1312700Y221266D01*
X1311684D01*
X1312700Y220250D01*
X1311684Y219234D01*
X1312700D01*
X1313716Y218218D01*
X1274716Y188518D02*
X1275732Y189534D01*
X1276748D01*
X1275732Y190550D01*
X1276748Y191566D01*
X1275732D01*
X1274716Y192582D01*
X1273700Y191566D01*
X1272684D01*
X1273700Y190550D01*
X1272684Y189534D01*
X1273700D01*
X1274716Y188518D01*
Y218218D02*
X1275732Y219234D01*
X1276748D01*
X1275732Y220250D01*
X1276748Y221266D01*
X1275732D01*
X1274716Y222282D01*
X1273700Y221266D01*
X1272684D01*
X1273700Y220250D01*
X1272684Y219234D01*
X1273700D01*
X1274716Y218218D01*
X1265194Y704178D02*
X1266210Y706210D01*
X1265194Y708242D01*
X1267226Y707226D01*
X1269258Y708242D01*
X1268242Y706210D01*
X1269258Y704178D01*
X1267226Y705194D01*
X1265194Y704178D01*
X1181194D02*
X1182210Y706210D01*
X1181194Y708242D01*
X1183226Y707226D01*
X1185258Y708242D01*
X1184242Y706210D01*
X1185258Y704178D01*
X1183226Y705194D01*
X1181194Y704178D01*
X1303472Y698537D02*
Y697521D01*
X1305504D01*
Y698537D01*
X1306520D01*
Y700569D01*
X1305504D01*
Y701585D01*
X1303472D01*
Y700569D01*
X1302456D01*
Y698537D01*
X1303472D01*
Y717536D02*
Y716520D01*
X1305504D01*
Y717536D01*
X1306520D01*
Y719568D01*
X1305504D01*
Y720584D01*
X1303472D01*
Y719568D01*
X1302456D01*
Y717536D01*
X1303472D01*
X1160756Y186270D02*
X1161772D01*
X1162788Y187286D01*
X1163804Y186270D01*
X1164820D01*
Y187286D01*
X1163804Y188302D01*
X1164820Y189318D01*
Y190334D01*
X1163804D01*
X1162788Y189318D01*
X1161772Y190334D01*
X1160756D01*
Y189318D01*
X1161772Y188302D01*
X1160756Y187286D01*
Y186270D01*
X1116756D02*
X1117772D01*
X1118788Y187286D01*
X1119804Y186270D01*
X1120820D01*
Y187286D01*
X1119804Y188302D01*
X1120820Y189318D01*
Y190334D01*
X1119804D01*
X1118788Y189318D01*
X1117772Y190334D01*
X1116756D01*
Y189318D01*
X1117772Y188302D01*
X1116756Y187286D01*
Y186270D01*
X1632635Y801980D02*
X1630603Y806044D01*
X1634667D01*
X1632635Y801980D01*
Y773980D02*
X1630603Y778044D01*
X1634667D01*
X1632635Y773980D01*
X1658035Y801980D02*
X1656003Y806044D01*
X1660067D01*
X1658035Y801980D01*
Y773980D02*
X1656003Y778044D01*
X1660067D01*
X1658035Y773980D01*
X1728035D02*
X1726003Y778044D01*
X1730067D01*
X1728035Y773980D01*
Y801980D02*
X1726003Y806044D01*
X1730067D01*
X1728035Y801980D01*
X1702635Y773980D02*
X1700603Y778044D01*
X1704667D01*
X1702635Y773980D01*
Y801980D02*
X1700603Y806044D01*
X1704667D01*
X1702635Y801980D01*
X1768823Y188518D02*
X1769839Y189534D01*
X1770855D01*
X1769839Y190550D01*
X1770855Y191566D01*
X1769839D01*
X1768823Y192582D01*
X1767807Y191566D01*
X1766791D01*
X1767807Y190550D01*
X1766791Y189534D01*
X1767807D01*
X1768823Y188518D01*
Y218218D02*
X1769839Y219234D01*
X1770855D01*
X1769839Y220250D01*
X1770855Y221266D01*
X1769839D01*
X1768823Y222282D01*
X1767807Y221266D01*
X1766791D01*
X1767807Y220250D01*
X1766791Y219234D01*
X1767807D01*
X1768823Y218218D01*
X1729823Y188518D02*
X1730839Y189534D01*
X1731855D01*
X1730839Y190550D01*
X1731855Y191566D01*
X1730839D01*
X1729823Y192582D01*
X1728807Y191566D01*
X1727791D01*
X1728807Y190550D01*
X1727791Y189534D01*
X1728807D01*
X1729823Y188518D01*
Y218218D02*
X1730839Y219234D01*
X1731855D01*
X1730839Y220250D01*
X1731855Y221266D01*
X1730839D01*
X1729823Y222282D01*
X1728807Y221266D01*
X1727791D01*
X1728807Y220250D01*
X1727791Y219234D01*
X1728807D01*
X1729823Y218218D01*
X1720301Y704178D02*
X1721317Y706210D01*
X1720301Y708242D01*
X1722333Y707226D01*
X1724365Y708242D01*
X1723349Y706210D01*
X1724365Y704178D01*
X1722333Y705194D01*
X1720301Y704178D01*
X1636301D02*
X1637317Y706210D01*
X1636301Y708242D01*
X1638333Y707226D01*
X1640365Y708242D01*
X1639349Y706210D01*
X1640365Y704178D01*
X1638333Y705194D01*
X1636301Y704178D01*
X1758579Y698537D02*
Y697521D01*
X1760611D01*
Y698537D01*
X1761627D01*
Y700569D01*
X1760611D01*
Y701585D01*
X1758579D01*
Y700569D01*
X1757563D01*
Y698537D01*
X1758579D01*
Y717536D02*
Y716520D01*
X1760611D01*
Y717536D01*
X1761627D01*
Y719568D01*
X1760611D01*
Y720584D01*
X1758579D01*
Y719568D01*
X1757563D01*
Y717536D01*
X1758579D01*
X1615863Y186270D02*
X1616879D01*
X1617895Y187286D01*
X1618911Y186270D01*
X1619927D01*
Y187286D01*
X1618911Y188302D01*
X1619927Y189318D01*
Y190334D01*
X1618911D01*
X1617895Y189318D01*
X1616879Y190334D01*
X1615863D01*
Y189318D01*
X1616879Y188302D01*
X1615863Y187286D01*
Y186270D01*
X1571863D02*
X1572879D01*
X1573895Y187286D01*
X1574911Y186270D01*
X1575927D01*
Y187286D01*
X1574911Y188302D01*
X1575927Y189318D01*
Y190334D01*
X1574911D01*
X1573895Y189318D01*
X1572879Y190334D01*
X1571863D01*
Y189318D01*
X1572879Y188302D01*
X1571863Y187286D01*
Y186270D01*
X251538Y1056150D02*
X253570Y1058182D01*
X255602Y1056150D01*
X253570Y1054118D01*
X251538Y1056150D01*
Y1043450D02*
X253570Y1045482D01*
X255602Y1043450D01*
X253570Y1041418D01*
X251538Y1043450D01*
Y1030750D02*
X253570Y1032782D01*
X255602Y1030750D01*
X253570Y1028718D01*
X251538Y1030750D01*
X238838Y1056150D02*
X240870Y1058182D01*
X242902Y1056150D01*
X240870Y1054118D01*
X238838Y1056150D01*
Y1043450D02*
X240870Y1045482D01*
X242902Y1043450D01*
X240870Y1041418D01*
X238838Y1043450D01*
Y1030750D02*
X240870Y1032782D01*
X242902Y1030750D01*
X240870Y1028718D01*
X238838Y1030750D01*
X706537Y1056150D02*
X708569Y1058182D01*
X710601Y1056150D01*
X708569Y1054118D01*
X706537Y1056150D01*
Y1043450D02*
X708569Y1045482D01*
X710601Y1043450D01*
X708569Y1041418D01*
X706537Y1043450D01*
Y1030750D02*
X708569Y1032782D01*
X710601Y1030750D01*
X708569Y1028718D01*
X706537Y1030750D01*
X693837Y1056150D02*
X695869Y1058182D01*
X697901Y1056150D01*
X695869Y1054118D01*
X693837Y1056150D01*
Y1043450D02*
X695869Y1045482D01*
X697901Y1043450D01*
X695869Y1041418D01*
X693837Y1043450D01*
Y1030750D02*
X695869Y1032782D01*
X697901Y1030750D01*
X695869Y1028718D01*
X693837Y1030750D01*
X1161536Y1056150D02*
X1163568Y1058182D01*
X1165600Y1056150D01*
X1163568Y1054118D01*
X1161536Y1056150D01*
Y1043450D02*
X1163568Y1045482D01*
X1165600Y1043450D01*
X1163568Y1041418D01*
X1161536Y1043450D01*
Y1030750D02*
X1163568Y1032782D01*
X1165600Y1030750D01*
X1163568Y1028718D01*
X1161536Y1030750D01*
X1148836Y1056150D02*
X1150868Y1058182D01*
X1152900Y1056150D01*
X1150868Y1054118D01*
X1148836Y1056150D01*
Y1043450D02*
X1150868Y1045482D01*
X1152900Y1043450D01*
X1150868Y1041418D01*
X1148836Y1043450D01*
Y1030750D02*
X1150868Y1032782D01*
X1152900Y1030750D01*
X1150868Y1028718D01*
X1148836Y1030750D01*
X1616535Y1056150D02*
X1618567Y1058182D01*
X1620599Y1056150D01*
X1618567Y1054118D01*
X1616535Y1056150D01*
Y1043450D02*
X1618567Y1045482D01*
X1620599Y1043450D01*
X1618567Y1041418D01*
X1616535Y1043450D01*
Y1030750D02*
X1618567Y1032782D01*
X1620599Y1030750D01*
X1618567Y1028718D01*
X1616535Y1030750D01*
X1603835Y1056150D02*
X1605867Y1058182D01*
X1607899Y1056150D01*
X1605867Y1054118D01*
X1603835Y1056150D01*
Y1043450D02*
X1605867Y1045482D01*
X1607899Y1043450D01*
X1605867Y1041418D01*
X1603835Y1043450D01*
Y1030750D02*
X1605867Y1032782D01*
X1607899Y1030750D01*
X1605867Y1028718D01*
X1603835Y1030750D01*
D157*
X405924Y499691D02*
G03*
X405924Y499691I-2032J0D01*
G01*
Y514691D02*
G03*
X405924Y514691I-2032J0D01*
G01*
Y529691D02*
G03*
X405924Y529691I-2032J0D01*
G01*
Y544691D02*
G03*
X405924Y544691I-2032J0D01*
G01*
Y559691D02*
G03*
X405924Y559691I-2032J0D01*
G01*
X406533Y355489D02*
G03*
X406533Y355489I-2032J0D01*
G01*
Y340489D02*
G03*
X406533Y340489I-2032J0D01*
G01*
Y325489D02*
G03*
X406533Y325489I-2032J0D01*
G01*
Y310489D02*
G03*
X406533Y310489I-2032J0D01*
G01*
Y295489D02*
G03*
X406533Y295489I-2032J0D01*
G01*
X295283Y337250D02*
G03*
X295283Y337250I-2032J0D01*
G01*
X286033Y337750D02*
G03*
X286033Y337750I-2032J0D01*
G01*
X268533Y366000D02*
G03*
X268533Y366000I-2032J0D01*
G01*
X267033Y292250D02*
G03*
X267033Y292250I-2032J0D01*
G01*
X254783Y294250D02*
G03*
X254783Y294250I-2032J0D01*
G01*
X282283Y330500D02*
G03*
X282283Y330500I-2032J0D01*
G01*
X323283Y344250D02*
G03*
X323283Y344250I-2032J0D01*
G01*
X280783Y359250D02*
G03*
X280783Y359250I-2032J0D01*
G01*
X317283Y353886D02*
G03*
X317283Y353886I-2032J0D01*
G01*
X310974Y349584D02*
G03*
X310974Y349584I-2032J0D01*
G01*
X304033Y359500D02*
G03*
X304033Y359500I-2032J0D01*
G01*
X304783Y373750D02*
G03*
X304783Y373750I-2032J0D01*
G01*
X292783Y379750D02*
G03*
X292783Y379750I-2032J0D01*
G01*
X291533Y392000D02*
G03*
X291533Y392000I-2032J0D01*
G01*
X324292Y397787D02*
G03*
X324292Y397787I-2032J0D01*
G01*
X293283Y412750D02*
G03*
X293283Y412750I-2032J0D01*
G01*
X320581Y324930D02*
G03*
X320581Y324930I-2032J0D01*
G01*
X234221Y312738D02*
G03*
X234221Y312738I-2032J0D01*
G01*
X234283Y772750D02*
G03*
X234283Y772750I-2032J0D01*
G01*
X337033Y319000D02*
G03*
X337033Y319000I-2032J0D01*
G01*
X380783Y296000D02*
G03*
X380783Y296000I-2032J0D01*
G01*
X362033Y852250D02*
G03*
X362033Y852250I-2032J0D01*
G01*
X231681Y449201D02*
G03*
X231681Y449201I-2032J0D01*
G01*
X268283Y373750D02*
G03*
X268283Y373750I-2032J0D01*
G01*
X285533Y415250D02*
G03*
X285533Y415250I-2032J0D01*
G01*
X330283Y366000D02*
G03*
X330283Y366000I-2032J0D01*
G01*
X323283Y373000D02*
G03*
X323283Y373000I-2032J0D01*
G01*
X332283Y392000D02*
G03*
X332283Y392000I-2032J0D01*
G01*
X330274Y412847D02*
G03*
X330274Y412847I-2032J0D01*
G01*
X323792Y416973D02*
G03*
X323792Y416973I-2032J0D01*
G01*
X323042Y409472D02*
G03*
X323042Y409472I-2032J0D01*
G01*
X349033Y647000D02*
G03*
X349033Y647000I-2032J0D01*
G01*
X315155Y629060D02*
G03*
X315155Y629060I-2032J0D01*
G01*
X351569Y258636D02*
G03*
X351569Y258636I-2032J0D01*
G01*
X355033Y241750D02*
G03*
X355033Y241750I-2032J0D01*
G01*
X336033Y244500D02*
G03*
X336033Y244500I-2032J0D01*
G01*
X297033Y256500D02*
G03*
X297033Y256500I-2032J0D01*
G01*
X467033Y176065D02*
G03*
X467033Y176065I-2032J0D01*
G01*
X396533Y844500D02*
G03*
X396533Y844500I-2032J0D01*
G01*
X406783Y844061D02*
G03*
X406783Y844061I-2032J0D01*
G01*
X421797Y239964D02*
G03*
X421797Y239964I-2032J0D01*
G01*
X353783Y333065D02*
G03*
X353783Y333065I-2032J0D01*
G01*
X233033Y521000D02*
G03*
X233033Y521000I-2032J0D01*
G01*
X232533Y749500D02*
G03*
X232533Y749500I-2032J0D01*
G01*
X217533Y727250D02*
G03*
X217533Y727250I-2032J0D01*
G01*
X295806Y706301D02*
G03*
X295806Y706301I-2032J0D01*
G01*
X258859Y813880D02*
G03*
X258859Y813880I-2032J0D01*
G01*
X217033Y670500D02*
G03*
X217033Y670500I-2032J0D01*
G01*
X329783Y906500D02*
G03*
X329783Y906500I-2032J0D01*
G01*
X288323Y898462D02*
G03*
X288323Y898462I-2032J0D01*
G01*
X288745Y906565D02*
G03*
X288745Y906565I-2032J0D01*
G01*
X294337Y892620D02*
G03*
X294337Y892620I-2032J0D01*
G01*
X432783Y763000D02*
G03*
X432783Y763000I-2032J0D01*
G01*
X433783Y797500D02*
G03*
X433783Y797500I-2032J0D01*
G01*
X259783Y613500D02*
G03*
X259783Y613500I-2032J0D01*
G01*
X265533Y619250D02*
G03*
X265533Y619250I-2032J0D01*
G01*
X233783Y614000D02*
G03*
X233783Y614000I-2032J0D01*
G01*
X266783Y640250D02*
G03*
X266783Y640250I-2032J0D01*
G01*
X265533Y476000D02*
G03*
X265533Y476000I-2032J0D01*
G01*
X250533Y863750D02*
G03*
X250533Y863750I-2032J0D01*
G01*
X256533Y868750D02*
G03*
X256533Y868750I-2032J0D01*
G01*
X407533Y759750D02*
G03*
X407533Y759750I-2032J0D01*
G01*
X423783Y764315D02*
G03*
X423783Y764315I-2032J0D01*
G01*
X392569Y233758D02*
G03*
X392569Y233758I-2032J0D01*
G01*
X426032Y233565D02*
G03*
X426032Y233565I-2032J0D01*
G01*
X200439Y801434D02*
G03*
X200439Y801434I-2032J0D01*
G01*
X260129Y453962D02*
G03*
X260129Y453962I-2032J0D01*
G01*
X346997Y553276D02*
G03*
X346997Y553276I-2032J0D01*
G01*
X356649Y549720D02*
G03*
X356649Y549720I-2032J0D01*
G01*
X340901Y611442D02*
G03*
X340901Y611442I-2032J0D01*
G01*
X324645Y542354D02*
G03*
X324645Y542354I-2032J0D01*
G01*
X313469Y542608D02*
G03*
X313469Y542608I-2032J0D01*
G01*
X426547Y901561D02*
G03*
X426547Y901561I-2032J0D01*
G01*
X455455Y882968D02*
G03*
X455455Y882968I-2032J0D01*
G01*
X191549Y769430D02*
G03*
X191549Y769430I-2032J0D01*
G01*
X194597Y822008D02*
G03*
X194597Y822008I-2032J0D01*
G01*
X325033Y352565D02*
G03*
X325033Y352565I-2032J0D01*
G01*
X324645Y558864D02*
G03*
X324645Y558864I-2032J0D01*
G01*
X451645Y808038D02*
G03*
X451645Y808038I-2032J0D01*
G01*
X206281Y524574D02*
G03*
X206281Y524574I-2032J0D01*
G01*
X229903Y495618D02*
G03*
X229903Y495618I-2032J0D01*
G01*
X218473Y489776D02*
G03*
X218473Y489776I-2032J0D01*
G01*
X291879Y653606D02*
G03*
X291879Y653606I-2032J0D01*
G01*
X306103Y647002D02*
G03*
X306103Y647002I-2032J0D01*
G01*
X179611Y858584D02*
G03*
X179611Y858584I-2032J0D01*
G01*
X163609Y740474D02*
G03*
X163609Y740474I-2032J0D01*
G01*
X162339Y658432D02*
G03*
X162339Y658432I-2032J0D01*
G01*
X175293Y742760D02*
G03*
X175293Y742760I-2032J0D01*
G01*
X191295Y607632D02*
G03*
X191295Y607632I-2032J0D01*
G01*
X183421Y620586D02*
G03*
X183421Y620586I-2032J0D01*
G01*
X165133Y581470D02*
G03*
X165133Y581470I-2032J0D01*
G01*
X183421D02*
G03*
X183421Y581470I-2032J0D01*
G01*
X474505Y709486D02*
G03*
X474505Y709486I-2032J0D01*
G01*
X461805Y710248D02*
G03*
X461805Y710248I-2032J0D01*
G01*
X492031Y737426D02*
G03*
X492031Y737426I-2032J0D01*
G01*
X474033Y695315D02*
G03*
X474033Y695315I-2032J0D01*
G01*
X345473Y869252D02*
G03*
X345473Y869252I-2032J0D01*
G01*
X220505Y334582D02*
G03*
X220505Y334582I-2032J0D01*
G01*
Y394780D02*
G03*
X220505Y394780I-2032J0D01*
G01*
X330783Y743565D02*
G03*
X330783Y743565I-2032J0D01*
G01*
X288193Y291910D02*
G03*
X288193Y291910I-2032J0D01*
G01*
X278417Y420180D02*
G03*
X278417Y420180I-2032J0D01*
G01*
X389669Y638112D02*
G03*
X389669Y638112I-2032J0D01*
G01*
X259621Y385636D02*
G03*
X259621Y385636I-2032J0D01*
G01*
X261145Y355221D02*
G03*
X261145Y355221I-2032J0D01*
G01*
X260039Y347534D02*
G03*
X260039Y347534I-2032J0D01*
G01*
X261653Y378081D02*
G03*
X261653Y378081I-2032J0D01*
G01*
X261653Y831936D02*
G03*
X261653Y831936I-2032J0D01*
G01*
X366032Y835815D02*
G03*
X366032Y835815I-2032J0D01*
G01*
X140749Y256604D02*
G03*
X140749Y256604I-2032J0D01*
G01*
X159291D02*
G03*
X159291Y256604I-2032J0D01*
G01*
X365793Y290386D02*
G03*
X365793Y290386I-2032J0D01*
G01*
X366047Y299022D02*
G03*
X366047Y299022I-2032J0D01*
G01*
X432849Y227459D02*
G03*
X432849Y227459I-2032J0D01*
G01*
X220505Y292164D02*
G03*
X220505Y292164I-2032J0D01*
G01*
X213901Y256604D02*
G03*
X213901Y256604I-2032J0D01*
G01*
X220505Y263716D02*
G03*
X220505Y263716I-2032J0D01*
G01*
X246921Y263970D02*
G03*
X246921Y263970I-2032J0D01*
G01*
X220505Y364808D02*
G03*
X220505Y364808I-2032J0D01*
G01*
X213647Y906336D02*
G03*
X213647Y906336I-2032J0D01*
G01*
X385532Y566992D02*
G03*
X385532Y566992I-2032J0D01*
G01*
X316033Y264000D02*
G03*
X316033Y264000I-2032J0D01*
G01*
X208783Y581315D02*
G03*
X208783Y581315I-2032J0D01*
G01*
X233783Y624250D02*
G03*
X233783Y624250I-2032J0D01*
G01*
X158533Y183500D02*
G03*
X158533Y183500I-2032J0D01*
G01*
X202783Y646250D02*
G03*
X202783Y646250I-2032J0D01*
G01*
X407783Y413000D02*
G03*
X407783Y413000I-2032J0D01*
G01*
X404533Y374750D02*
G03*
X404533Y374750I-2032J0D01*
G01*
X268003Y383096D02*
G03*
X268003Y383096I-2032J0D01*
G01*
X231783Y431250D02*
G03*
X231783Y431250I-2032J0D01*
G01*
X470783Y599250D02*
G03*
X470783Y599250I-2032J0D01*
G01*
X494033Y249750D02*
G03*
X494033Y249750I-2032J0D01*
G01*
X494089Y214944D02*
G03*
X494089Y214944I-2032J0D01*
G01*
X362283Y394000D02*
G03*
X362283Y394000I-2032J0D01*
G01*
Y404500D02*
G03*
X362283Y404500I-2032J0D01*
G01*
X362533Y377250D02*
G03*
X362533Y377250I-2032J0D01*
G01*
X309533Y320000D02*
G03*
X309533Y320000I-2032J0D01*
G01*
X179533Y826250D02*
G03*
X179533Y826250I-2032J0D01*
G01*
X440033Y529815D02*
G03*
X440033Y529815I-2032J0D01*
G01*
X489800Y626048D02*
G03*
X489800Y626048I-2032J0D01*
G01*
X371283Y880815D02*
G03*
X371283Y880815I-2032J0D01*
G01*
X403532Y880565D02*
G03*
X403532Y880565I-2032J0D01*
G01*
X396533Y876815D02*
G03*
X396533Y876815I-2032J0D01*
G01*
X366782Y903315D02*
G03*
X366782Y903315I-2032J0D01*
G01*
X159782Y622565D02*
G03*
X159782Y622565I-2032J0D01*
G01*
X259282Y394565D02*
G03*
X259282Y394565I-2032J0D01*
G01*
X353532Y324815D02*
G03*
X353532Y324815I-2032J0D01*
G01*
X379533Y238000D02*
G03*
X379533Y238000I-2032J0D01*
G01*
X462339Y666509D02*
G03*
X462339Y666509I-2032J0D01*
G01*
X255532Y836815D02*
G03*
X255532Y836815I-2032J0D01*
G01*
X364533Y817065D02*
G03*
X364533Y817065I-2032J0D01*
G01*
X330532Y822565D02*
G03*
X330532Y822565I-2032J0D01*
G01*
X324533Y809815D02*
G03*
X324533Y809815I-2032J0D01*
G01*
X416111Y587737D02*
G03*
X416111Y587737I-2032J0D01*
G01*
X432033Y586315D02*
G03*
X432033Y586315I-2032J0D01*
G01*
X453532Y626815D02*
G03*
X453532Y626815I-2032J0D01*
G01*
X392489Y364860D02*
G03*
X392489Y364860I-2032J0D01*
G01*
X399033Y413315D02*
G03*
X399033Y413315I-2032J0D01*
G01*
X423032Y524065D02*
G03*
X423032Y524065I-2032J0D01*
G01*
X254783Y676565D02*
G03*
X254783Y676565I-2032J0D01*
G01*
X212533Y633315D02*
G03*
X212533Y633315I-2032J0D01*
G01*
X320580Y905639D02*
G03*
X320580Y905639I-2032J0D01*
G01*
X259282Y481315D02*
G03*
X259282Y481315I-2032J0D01*
G01*
X259366Y489333D02*
G03*
X259366Y489333I-2032J0D01*
G01*
X293533Y540815D02*
G03*
X293533Y540815I-2032J0D01*
G01*
X397034Y600331D02*
G03*
X397034Y600331I-2032J0D01*
G01*
X395765Y608459D02*
G03*
X395765Y608459I-2032J0D01*
G01*
X255303Y652655D02*
G03*
X255303Y652655I-2032J0D01*
G01*
X220282Y538315D02*
G03*
X220282Y538315I-2032J0D01*
G01*
X306864Y843155D02*
G03*
X306864Y843155I-2032J0D01*
G01*
X393987Y817247D02*
G03*
X393987Y817247I-2032J0D01*
G01*
X392209Y624461D02*
G03*
X392209Y624461I-2032J0D01*
G01*
X231681Y645035D02*
G03*
X231681Y645035I-2032J0D01*
G01*
X168689Y669673D02*
G03*
X168689Y669673I-2032J0D01*
G01*
X383853Y438520D02*
G03*
X383853Y438520I-2032J0D01*
G01*
X175313Y702714D02*
G03*
X175313Y702714I-2032J0D01*
G01*
X149151Y704746D02*
G03*
X149151Y704746I-2032J0D01*
G01*
X181283Y834065D02*
G03*
X181283Y834065I-2032J0D01*
G01*
X443783Y710250D02*
G03*
X443783Y710250I-2032J0D01*
G01*
X168461Y908928D02*
G03*
X168461Y908928I-2032J0D01*
G01*
X464625Y908674D02*
G03*
X464625Y908674I-2032J0D01*
G01*
X272055Y761052D02*
G03*
X272055Y761052I-2032J0D01*
G01*
X436151Y667387D02*
G03*
X436151Y667387I-2032J0D01*
G01*
X403411Y605652D02*
G03*
X403411Y605652I-2032J0D01*
G01*
X366581Y629528D02*
G03*
X366581Y629528I-2032J0D01*
G01*
X141003Y172120D02*
G03*
X141003Y172120I-2032J0D01*
G01*
X294083Y596450D02*
G03*
X294083Y596450I-2032J0D01*
G01*
X201583Y766450D02*
G03*
X201583Y766450I-2032J0D01*
G01*
X206583Y756700D02*
G03*
X206583Y756700I-2032J0D01*
G01*
X439987Y497448D02*
G03*
X439987Y497448I-2032J0D01*
G01*
X380532Y427565D02*
G03*
X380532Y427565I-2032J0D01*
G01*
X212403Y843650D02*
G03*
X212403Y843650I-2032J0D01*
G01*
X498532Y588315D02*
G03*
X498532Y588315I-2032J0D01*
G01*
X476782Y581315D02*
G03*
X476782Y581315I-2032J0D01*
G01*
X495332Y840869D02*
G03*
X495332Y840869I-2032J0D01*
G01*
X393783Y912315D02*
G03*
X393783Y912315I-2032J0D01*
G01*
X256283Y927315D02*
G03*
X256283Y927315I-2032J0D01*
G01*
X353783Y156565D02*
G03*
X353783Y156565I-2032J0D01*
G01*
X342933Y205361D02*
G03*
X342933Y205361I-2032J0D01*
G01*
X485283Y140065D02*
G03*
X485283Y140065I-2032J0D01*
G01*
X330532Y861565D02*
G03*
X330532Y861565I-2032J0D01*
G01*
X378032Y877065D02*
G03*
X378032Y877065I-2032J0D01*
G01*
X345033Y763065D02*
G03*
X345033Y763065I-2032J0D01*
G01*
X364533Y762315D02*
G03*
X364533Y762315I-2032J0D01*
G01*
X268783Y736250D02*
G03*
X268783Y736250I-2032J0D01*
G01*
X185282Y866065D02*
G03*
X185282Y866065I-2032J0D01*
G01*
X277033Y726000D02*
G03*
X277033Y726000I-2032J0D01*
G01*
X366283Y171315D02*
G03*
X366283Y171315I-2032J0D01*
G01*
X498283Y180315D02*
G03*
X498283Y180315I-2032J0D01*
G01*
X260805Y763052D02*
G03*
X260805Y763052I-2032J0D01*
G01*
X415283Y912565D02*
G03*
X415283Y912565I-2032J0D01*
G01*
X310447Y932296D02*
G03*
X310447Y932296I-2032J0D01*
G01*
X396533Y163315D02*
G03*
X396533Y163315I-2032J0D01*
G01*
X460561Y582030D02*
G03*
X460561Y582030I-2032J0D01*
G01*
X213165Y652896D02*
G03*
X213165Y652896I-2032J0D01*
G01*
X453449Y171820D02*
G03*
X453449Y171820I-2032J0D01*
G01*
X449893Y179186D02*
G03*
X449893Y179186I-2032J0D01*
G01*
X427287Y215000D02*
G03*
X427287Y215000I-2032J0D01*
G01*
X283751Y920814D02*
G03*
X283751Y920814I-2032J0D01*
G01*
X377533Y925065D02*
G03*
X377533Y925065I-2032J0D01*
G01*
X182826Y643206D02*
G03*
X182826Y643206I-2032J0D01*
G01*
X233283Y551315D02*
G03*
X233283Y551315I-2032J0D01*
G01*
X196374Y581281D02*
G03*
X196374Y581281I-2032J0D01*
G01*
X174785Y581470D02*
G03*
X174785Y581470I-2032J0D01*
G01*
X231935Y635129D02*
G03*
X231935Y635129I-2032J0D01*
G01*
X296783Y605000D02*
G03*
X296783Y605000I-2032J0D01*
G01*
X313533Y732315D02*
G03*
X313533Y732315I-2032J0D01*
G01*
X367283Y738250D02*
G03*
X367283Y738250I-2032J0D01*
G01*
X261033Y671065D02*
G03*
X261033Y671065I-2032J0D01*
G01*
X412275Y670435D02*
G03*
X412275Y670435I-2032J0D01*
G01*
X418032Y654315D02*
G03*
X418032Y654315I-2032J0D01*
G01*
X412282Y877065D02*
G03*
X412282Y877065I-2032J0D01*
G01*
X330783Y843315D02*
G03*
X330783Y843315I-2032J0D01*
G01*
X193533Y880315D02*
G03*
X193533Y880315I-2032J0D01*
G01*
X406283Y727065D02*
G03*
X406283Y727065I-2032J0D01*
G01*
X365283Y134565D02*
G03*
X365283Y134565I-2032J0D01*
G01*
X463074Y833757D02*
G03*
X463074Y833757I-2032J0D01*
G01*
X374936Y904623D02*
G03*
X374936Y904623I-2032J0D01*
G01*
X362033Y691565D02*
G03*
X362033Y691565I-2032J0D01*
G01*
X259112Y531243D02*
G03*
X259112Y531243I-2032J0D01*
G01*
X226346Y461647D02*
G03*
X226346Y461647I-2032J0D01*
G01*
X259620Y550293D02*
G03*
X259620Y550293I-2032J0D01*
G01*
X353601Y666625D02*
G03*
X353601Y666625I-2032J0D01*
G01*
X364523Y442851D02*
G03*
X364523Y442851I-2032J0D01*
G01*
X472980Y241429D02*
G03*
X472980Y241429I-2032J0D01*
G01*
X484156Y249811D02*
G03*
X484156Y249811I-2032J0D01*
G01*
X484411Y221617D02*
G03*
X484411Y221617I-2032J0D01*
G01*
X198583Y896700D02*
G03*
X198583Y896700I-2032J0D01*
G01*
X168533Y878065D02*
G03*
X168533Y878065I-2032J0D01*
G01*
X351533Y724815D02*
G03*
X351533Y724815I-2032J0D01*
G01*
X345283Y894315D02*
G03*
X345283Y894315I-2032J0D01*
G01*
X406782Y782815D02*
G03*
X406782Y782815I-2032J0D01*
G01*
X408783Y797315D02*
G03*
X408783Y797315I-2032J0D01*
G01*
X271283Y614250D02*
G03*
X271283Y614250I-2032J0D01*
G01*
X413532Y428315D02*
G03*
X413532Y428315I-2032J0D01*
G01*
X259533Y596565D02*
G03*
X259533Y596565I-2032J0D01*
G01*
X220282Y410065D02*
G03*
X220282Y410065I-2032J0D01*
G01*
X429782Y624065D02*
G03*
X429782Y624065I-2032J0D01*
G01*
X447533Y838065D02*
G03*
X447533Y838065I-2032J0D01*
G01*
X498532Y188815D02*
G03*
X498532Y188815I-2032J0D01*
G01*
X214783Y862815D02*
G03*
X214783Y862815I-2032J0D01*
G01*
X183032Y843565D02*
G03*
X183032Y843565I-2032J0D01*
G01*
X373783Y745565D02*
G03*
X373783Y745565I-2032J0D01*
G01*
X432033Y608565D02*
G03*
X432033Y608565I-2032J0D01*
G01*
X219037Y703302D02*
G03*
X219037Y703302I-2032J0D01*
G01*
X214783Y691315D02*
G03*
X214783Y691315I-2032J0D01*
G01*
X234032Y575065D02*
G03*
X234032Y575065I-2032J0D01*
G01*
X362533Y385815D02*
G03*
X362533Y385815I-2032J0D01*
G01*
X428532Y141315D02*
G03*
X428532Y141315I-2032J0D01*
G01*
X442033Y134315D02*
G03*
X442033Y134315I-2032J0D01*
G01*
X352533Y205065D02*
G03*
X352533Y205065I-2032J0D01*
G01*
X314282Y466565D02*
G03*
X314282Y466565I-2032J0D01*
G01*
X306782Y851065D02*
G03*
X306782Y851065I-2032J0D01*
G01*
X294033Y919250D02*
G03*
X294033Y919250I-2032J0D01*
G01*
X426032Y185815D02*
G03*
X426032Y185815I-2032J0D01*
G01*
X421533Y193315D02*
G03*
X421533Y193315I-2032J0D01*
G01*
X220282Y561815D02*
G03*
X220282Y561815I-2032J0D01*
G01*
X135782Y842565D02*
G03*
X135782Y842565I-2032J0D01*
G01*
X389923Y810578D02*
G03*
X389923Y810578I-2032J0D01*
G01*
X385532Y617065D02*
G03*
X385532Y617065I-2032J0D01*
G01*
X366047Y592138D02*
G03*
X366047Y592138I-2032J0D01*
G01*
X336782Y762565D02*
G03*
X336782Y762565I-2032J0D01*
G01*
X471533Y827065D02*
G03*
X471533Y827065I-2032J0D01*
G01*
X492282Y772065D02*
G03*
X492282Y772065I-2032J0D01*
G01*
X492783Y809315D02*
G03*
X492783Y809315I-2032J0D01*
G01*
X492533Y790565D02*
G03*
X492533Y790565I-2032J0D01*
G01*
X444033Y830565D02*
G03*
X444033Y830565I-2032J0D01*
G01*
X359533Y356565D02*
G03*
X359533Y356565I-2032J0D01*
G01*
X354282Y362065D02*
G03*
X354282Y362065I-2032J0D01*
G01*
X380532Y317815D02*
G03*
X380532Y317815I-2032J0D01*
G01*
X195867Y516511D02*
G03*
X195867Y516511I-2032J0D01*
G01*
X202533Y486065D02*
G03*
X202533Y486065I-2032J0D01*
G01*
X242782Y318815D02*
G03*
X242782Y318815I-2032J0D01*
G01*
X160282Y870565D02*
G03*
X160282Y870565I-2032J0D01*
G01*
X479033Y183065D02*
G03*
X479033Y183065I-2032J0D01*
G01*
X234617Y843150D02*
G03*
X234617Y843150I-2032J0D01*
G01*
X454947Y243969D02*
G03*
X454947Y243969I-2032J0D01*
G01*
X461550Y248033D02*
G03*
X461550Y248033I-2032J0D01*
G01*
X419648Y152200D02*
G03*
X419648Y152200I-2032J0D01*
G01*
X211127Y880852D02*
G03*
X211127Y880852I-2032J0D01*
G01*
X413533Y438750D02*
G03*
X413533Y438750I-2032J0D01*
G01*
X313033Y495750D02*
G03*
X313033Y495750I-2032J0D01*
G01*
X305283Y467500D02*
G03*
X305283Y467500I-2032J0D01*
G01*
X300033Y473500D02*
G03*
X300033Y473500I-2032J0D01*
G01*
X389783Y654250D02*
G03*
X389783Y654250I-2032J0D01*
G01*
X391701Y473012D02*
G03*
X391701Y473012I-2032J0D01*
G01*
X293533Y549250D02*
G03*
X293533Y549250I-2032J0D01*
G01*
X477533Y821250D02*
G03*
X477533Y821250I-2032J0D01*
G01*
X341783Y293000D02*
G03*
X341783Y293000I-2032J0D01*
G01*
X267749Y318326D02*
G03*
X267749Y318326I-2032J0D01*
G01*
X320581Y224854D02*
G03*
X320581Y224854I-2032J0D01*
G01*
X426753Y856044D02*
G03*
X426753Y856044I-2032J0D01*
G01*
X322533Y495565D02*
G03*
X322533Y495565I-2032J0D01*
G01*
X317283Y502750D02*
G03*
X317283Y502750I-2032J0D01*
G01*
X324645Y513652D02*
G03*
X324645Y513652I-2032J0D01*
G01*
X316117Y512999D02*
G03*
X316117Y512999I-2032J0D01*
G01*
X309405Y508826D02*
G03*
X309405Y508826I-2032J0D01*
G01*
Y560134D02*
G03*
X309405Y560134I-2032J0D01*
G01*
Y607886D02*
G03*
X309405Y607886I-2032J0D01*
G01*
X317055Y638970D02*
G03*
X317055Y638970I-2032J0D01*
G01*
X292533Y669565D02*
G03*
X292533Y669565I-2032J0D01*
G01*
X339123Y666306D02*
G03*
X339123Y666306I-2032J0D01*
G01*
X317533Y678752D02*
G03*
X317533Y678752I-2032J0D01*
G01*
X355887Y658940D02*
G03*
X355887Y658940I-2032J0D01*
G01*
X373413Y452946D02*
G03*
X373413Y452946I-2032J0D01*
G01*
X400845Y473774D02*
G03*
X400845Y473774I-2032J0D01*
G01*
X408973D02*
G03*
X408973Y473774I-2032J0D01*
G01*
X385859Y484950D02*
G03*
X385859Y484950I-2032J0D01*
G01*
X167927Y722948D02*
G03*
X167927Y722948I-2032J0D01*
G01*
X182151Y693992D02*
G03*
X182151Y693992I-2032J0D01*
G01*
X198153Y693484D02*
G03*
X198153Y693484I-2032J0D01*
G01*
X207297Y687642D02*
G03*
X207297Y687642I-2032J0D01*
G01*
X284767Y913194D02*
G03*
X284767Y913194I-2032J0D01*
G01*
X175175Y687760D02*
G03*
X175175Y687760I-2032J0D01*
G01*
X332283Y266000D02*
G03*
X332283Y266000I-2032J0D01*
G01*
X334043Y483934D02*
G03*
X334043Y483934I-2032J0D01*
G01*
X325153Y472250D02*
G03*
X325153Y472250I-2032J0D01*
G01*
X319565Y477838D02*
G03*
X319565Y477838I-2032J0D01*
G01*
X861032Y499691D02*
G03*
X861032Y499691I-2032J0D01*
G01*
Y514691D02*
G03*
X861032Y514691I-2032J0D01*
G01*
Y529691D02*
G03*
X861032Y529691I-2032J0D01*
G01*
Y544691D02*
G03*
X861032Y544691I-2032J0D01*
G01*
Y559691D02*
G03*
X861032Y559691I-2032J0D01*
G01*
X861640Y355489D02*
G03*
X861640Y355489I-2032J0D01*
G01*
Y340489D02*
G03*
X861640Y340489I-2032J0D01*
G01*
Y325489D02*
G03*
X861640Y325489I-2032J0D01*
G01*
Y310489D02*
G03*
X861640Y310489I-2032J0D01*
G01*
Y295489D02*
G03*
X861640Y295489I-2032J0D01*
G01*
X750390Y337250D02*
G03*
X750390Y337250I-2032J0D01*
G01*
X741140Y337750D02*
G03*
X741140Y337750I-2032J0D01*
G01*
X723640Y366000D02*
G03*
X723640Y366000I-2032J0D01*
G01*
X722140Y292250D02*
G03*
X722140Y292250I-2032J0D01*
G01*
X709890Y294250D02*
G03*
X709890Y294250I-2032J0D01*
G01*
X737390Y330500D02*
G03*
X737390Y330500I-2032J0D01*
G01*
X778390Y344250D02*
G03*
X778390Y344250I-2032J0D01*
G01*
X735890Y359250D02*
G03*
X735890Y359250I-2032J0D01*
G01*
X772390Y353886D02*
G03*
X772390Y353886I-2032J0D01*
G01*
X766081Y349584D02*
G03*
X766081Y349584I-2032J0D01*
G01*
X759140Y359500D02*
G03*
X759140Y359500I-2032J0D01*
G01*
X759890Y373750D02*
G03*
X759890Y373750I-2032J0D01*
G01*
X747890Y379750D02*
G03*
X747890Y379750I-2032J0D01*
G01*
X746640Y392000D02*
G03*
X746640Y392000I-2032J0D01*
G01*
X779400Y397787D02*
G03*
X779400Y397787I-2032J0D01*
G01*
X748390Y412750D02*
G03*
X748390Y412750I-2032J0D01*
G01*
X775688Y324930D02*
G03*
X775688Y324930I-2032J0D01*
G01*
X689328Y312738D02*
G03*
X689328Y312738I-2032J0D01*
G01*
X689390Y772750D02*
G03*
X689390Y772750I-2032J0D01*
G01*
X792140Y319000D02*
G03*
X792140Y319000I-2032J0D01*
G01*
X835890Y296000D02*
G03*
X835890Y296000I-2032J0D01*
G01*
X817140Y852250D02*
G03*
X817140Y852250I-2032J0D01*
G01*
X686788Y449201D02*
G03*
X686788Y449201I-2032J0D01*
G01*
X723390Y373750D02*
G03*
X723390Y373750I-2032J0D01*
G01*
X740640Y415250D02*
G03*
X740640Y415250I-2032J0D01*
G01*
X785390Y366000D02*
G03*
X785390Y366000I-2032J0D01*
G01*
X778390Y373000D02*
G03*
X778390Y373000I-2032J0D01*
G01*
X787390Y392000D02*
G03*
X787390Y392000I-2032J0D01*
G01*
X785381Y412847D02*
G03*
X785381Y412847I-2032J0D01*
G01*
X778900Y416973D02*
G03*
X778900Y416973I-2032J0D01*
G01*
X778150Y409472D02*
G03*
X778150Y409472I-2032J0D01*
G01*
X804140Y647000D02*
G03*
X804140Y647000I-2032J0D01*
G01*
X770262Y629060D02*
G03*
X770262Y629060I-2032J0D01*
G01*
X806676Y258636D02*
G03*
X806676Y258636I-2032J0D01*
G01*
X810140Y241750D02*
G03*
X810140Y241750I-2032J0D01*
G01*
X791140Y244500D02*
G03*
X791140Y244500I-2032J0D01*
G01*
X752140Y256500D02*
G03*
X752140Y256500I-2032J0D01*
G01*
X922140Y176065D02*
G03*
X922140Y176065I-2032J0D01*
G01*
X851640Y844500D02*
G03*
X851640Y844500I-2032J0D01*
G01*
X861890Y844061D02*
G03*
X861890Y844061I-2032J0D01*
G01*
X876905Y239964D02*
G03*
X876905Y239964I-2032J0D01*
G01*
X808890Y333065D02*
G03*
X808890Y333065I-2032J0D01*
G01*
X688140Y521000D02*
G03*
X688140Y521000I-2032J0D01*
G01*
X687640Y749500D02*
G03*
X687640Y749500I-2032J0D01*
G01*
X672640Y727250D02*
G03*
X672640Y727250I-2032J0D01*
G01*
X750913Y706301D02*
G03*
X750913Y706301I-2032J0D01*
G01*
X713966Y813880D02*
G03*
X713966Y813880I-2032J0D01*
G01*
X672140Y670500D02*
G03*
X672140Y670500I-2032J0D01*
G01*
X784890Y906500D02*
G03*
X784890Y906500I-2032J0D01*
G01*
X743430Y898462D02*
G03*
X743430Y898462I-2032J0D01*
G01*
X743852Y906565D02*
G03*
X743852Y906565I-2032J0D01*
G01*
X749445Y892620D02*
G03*
X749445Y892620I-2032J0D01*
G01*
X887890Y763000D02*
G03*
X887890Y763000I-2032J0D01*
G01*
X888890Y797500D02*
G03*
X888890Y797500I-2032J0D01*
G01*
X714890Y613500D02*
G03*
X714890Y613500I-2032J0D01*
G01*
X720640Y619250D02*
G03*
X720640Y619250I-2032J0D01*
G01*
X688890Y614000D02*
G03*
X688890Y614000I-2032J0D01*
G01*
X721890Y640250D02*
G03*
X721890Y640250I-2032J0D01*
G01*
X720640Y476000D02*
G03*
X720640Y476000I-2032J0D01*
G01*
X705640Y863750D02*
G03*
X705640Y863750I-2032J0D01*
G01*
X711640Y868750D02*
G03*
X711640Y868750I-2032J0D01*
G01*
X862640Y759750D02*
G03*
X862640Y759750I-2032J0D01*
G01*
X878890Y764315D02*
G03*
X878890Y764315I-2032J0D01*
G01*
X847676Y233758D02*
G03*
X847676Y233758I-2032J0D01*
G01*
X881140Y233565D02*
G03*
X881140Y233565I-2032J0D01*
G01*
X655546Y801434D02*
G03*
X655546Y801434I-2032J0D01*
G01*
X715236Y453962D02*
G03*
X715236Y453962I-2032J0D01*
G01*
X802104Y553276D02*
G03*
X802104Y553276I-2032J0D01*
G01*
X811756Y549720D02*
G03*
X811756Y549720I-2032J0D01*
G01*
X796008Y611442D02*
G03*
X796008Y611442I-2032J0D01*
G01*
X779752Y542354D02*
G03*
X779752Y542354I-2032J0D01*
G01*
X768576Y542608D02*
G03*
X768576Y542608I-2032J0D01*
G01*
X881655Y901561D02*
G03*
X881655Y901561I-2032J0D01*
G01*
X910562Y882968D02*
G03*
X910562Y882968I-2032J0D01*
G01*
X646656Y769430D02*
G03*
X646656Y769430I-2032J0D01*
G01*
X649704Y822008D02*
G03*
X649704Y822008I-2032J0D01*
G01*
X780140Y352565D02*
G03*
X780140Y352565I-2032J0D01*
G01*
X779752Y558864D02*
G03*
X779752Y558864I-2032J0D01*
G01*
X906752Y808038D02*
G03*
X906752Y808038I-2032J0D01*
G01*
X661388Y524574D02*
G03*
X661388Y524574I-2032J0D01*
G01*
X685010Y495618D02*
G03*
X685010Y495618I-2032J0D01*
G01*
X673580Y489776D02*
G03*
X673580Y489776I-2032J0D01*
G01*
X746986Y653606D02*
G03*
X746986Y653606I-2032J0D01*
G01*
X761210Y647002D02*
G03*
X761210Y647002I-2032J0D01*
G01*
X634718Y858584D02*
G03*
X634718Y858584I-2032J0D01*
G01*
X618716Y740474D02*
G03*
X618716Y740474I-2032J0D01*
G01*
X617446Y658432D02*
G03*
X617446Y658432I-2032J0D01*
G01*
X630400Y742760D02*
G03*
X630400Y742760I-2032J0D01*
G01*
X646402Y607632D02*
G03*
X646402Y607632I-2032J0D01*
G01*
X638528Y620586D02*
G03*
X638528Y620586I-2032J0D01*
G01*
X620240Y581470D02*
G03*
X620240Y581470I-2032J0D01*
G01*
X638528D02*
G03*
X638528Y581470I-2032J0D01*
G01*
X929612Y709486D02*
G03*
X929612Y709486I-2032J0D01*
G01*
X916912Y710248D02*
G03*
X916912Y710248I-2032J0D01*
G01*
X947138Y737426D02*
G03*
X947138Y737426I-2032J0D01*
G01*
X929140Y695315D02*
G03*
X929140Y695315I-2032J0D01*
G01*
X800580Y869252D02*
G03*
X800580Y869252I-2032J0D01*
G01*
X675612Y334582D02*
G03*
X675612Y334582I-2032J0D01*
G01*
Y394780D02*
G03*
X675612Y394780I-2032J0D01*
G01*
X785890Y743565D02*
G03*
X785890Y743565I-2032J0D01*
G01*
X743300Y291910D02*
G03*
X743300Y291910I-2032J0D01*
G01*
X733524Y420180D02*
G03*
X733524Y420180I-2032J0D01*
G01*
X844776Y638112D02*
G03*
X844776Y638112I-2032J0D01*
G01*
X714728Y385636D02*
G03*
X714728Y385636I-2032J0D01*
G01*
X716252Y355221D02*
G03*
X716252Y355221I-2032J0D01*
G01*
X715146Y347534D02*
G03*
X715146Y347534I-2032J0D01*
G01*
X716760Y378081D02*
G03*
X716760Y378081I-2032J0D01*
G01*
X716760Y831936D02*
G03*
X716760Y831936I-2032J0D01*
G01*
X821140Y835815D02*
G03*
X821140Y835815I-2032J0D01*
G01*
X595856Y256604D02*
G03*
X595856Y256604I-2032J0D01*
G01*
X614398D02*
G03*
X614398Y256604I-2032J0D01*
G01*
X820900Y290386D02*
G03*
X820900Y290386I-2032J0D01*
G01*
X821154Y299022D02*
G03*
X821154Y299022I-2032J0D01*
G01*
X887956Y227459D02*
G03*
X887956Y227459I-2032J0D01*
G01*
X675612Y292164D02*
G03*
X675612Y292164I-2032J0D01*
G01*
X669008Y256604D02*
G03*
X669008Y256604I-2032J0D01*
G01*
X675612Y263716D02*
G03*
X675612Y263716I-2032J0D01*
G01*
X702028Y263970D02*
G03*
X702028Y263970I-2032J0D01*
G01*
X675612Y364808D02*
G03*
X675612Y364808I-2032J0D01*
G01*
X668754Y906336D02*
G03*
X668754Y906336I-2032J0D01*
G01*
X840640Y566992D02*
G03*
X840640Y566992I-2032J0D01*
G01*
X771140Y264000D02*
G03*
X771140Y264000I-2032J0D01*
G01*
X663890Y581315D02*
G03*
X663890Y581315I-2032J0D01*
G01*
X688890Y624250D02*
G03*
X688890Y624250I-2032J0D01*
G01*
X613640Y183500D02*
G03*
X613640Y183500I-2032J0D01*
G01*
X657890Y646250D02*
G03*
X657890Y646250I-2032J0D01*
G01*
X862890Y413000D02*
G03*
X862890Y413000I-2032J0D01*
G01*
X859640Y374750D02*
G03*
X859640Y374750I-2032J0D01*
G01*
X723110Y383096D02*
G03*
X723110Y383096I-2032J0D01*
G01*
X686890Y431250D02*
G03*
X686890Y431250I-2032J0D01*
G01*
X925890Y599250D02*
G03*
X925890Y599250I-2032J0D01*
G01*
X949140Y249750D02*
G03*
X949140Y249750I-2032J0D01*
G01*
X949196Y214944D02*
G03*
X949196Y214944I-2032J0D01*
G01*
X817390Y394000D02*
G03*
X817390Y394000I-2032J0D01*
G01*
Y404500D02*
G03*
X817390Y404500I-2032J0D01*
G01*
X817640Y377250D02*
G03*
X817640Y377250I-2032J0D01*
G01*
X764640Y320000D02*
G03*
X764640Y320000I-2032J0D01*
G01*
X634640Y826250D02*
G03*
X634640Y826250I-2032J0D01*
G01*
X895140Y529815D02*
G03*
X895140Y529815I-2032J0D01*
G01*
X944908Y626048D02*
G03*
X944908Y626048I-2032J0D01*
G01*
X826390Y880815D02*
G03*
X826390Y880815I-2032J0D01*
G01*
X858640Y880565D02*
G03*
X858640Y880565I-2032J0D01*
G01*
X851640Y876815D02*
G03*
X851640Y876815I-2032J0D01*
G01*
X821890Y903315D02*
G03*
X821890Y903315I-2032J0D01*
G01*
X614890Y622565D02*
G03*
X614890Y622565I-2032J0D01*
G01*
X714390Y394565D02*
G03*
X714390Y394565I-2032J0D01*
G01*
X808640Y324815D02*
G03*
X808640Y324815I-2032J0D01*
G01*
X834640Y238000D02*
G03*
X834640Y238000I-2032J0D01*
G01*
X917446Y666509D02*
G03*
X917446Y666509I-2032J0D01*
G01*
X710640Y836815D02*
G03*
X710640Y836815I-2032J0D01*
G01*
X819640Y817065D02*
G03*
X819640Y817065I-2032J0D01*
G01*
X785640Y822565D02*
G03*
X785640Y822565I-2032J0D01*
G01*
X779640Y809815D02*
G03*
X779640Y809815I-2032J0D01*
G01*
X871218Y587737D02*
G03*
X871218Y587737I-2032J0D01*
G01*
X887140Y586315D02*
G03*
X887140Y586315I-2032J0D01*
G01*
X908640Y626815D02*
G03*
X908640Y626815I-2032J0D01*
G01*
X847596Y364860D02*
G03*
X847596Y364860I-2032J0D01*
G01*
X854140Y413315D02*
G03*
X854140Y413315I-2032J0D01*
G01*
X878140Y524065D02*
G03*
X878140Y524065I-2032J0D01*
G01*
X709890Y676565D02*
G03*
X709890Y676565I-2032J0D01*
G01*
X667640Y633315D02*
G03*
X667640Y633315I-2032J0D01*
G01*
X775688Y905639D02*
G03*
X775688Y905639I-2032J0D01*
G01*
X714390Y481315D02*
G03*
X714390Y481315I-2032J0D01*
G01*
X714474Y489333D02*
G03*
X714474Y489333I-2032J0D01*
G01*
X748640Y540815D02*
G03*
X748640Y540815I-2032J0D01*
G01*
X852142Y600331D02*
G03*
X852142Y600331I-2032J0D01*
G01*
X850872Y608459D02*
G03*
X850872Y608459I-2032J0D01*
G01*
X710410Y652655D02*
G03*
X710410Y652655I-2032J0D01*
G01*
X675390Y538315D02*
G03*
X675390Y538315I-2032J0D01*
G01*
X761972Y843155D02*
G03*
X761972Y843155I-2032J0D01*
G01*
X849094Y817247D02*
G03*
X849094Y817247I-2032J0D01*
G01*
X847316Y624461D02*
G03*
X847316Y624461I-2032J0D01*
G01*
X686788Y645035D02*
G03*
X686788Y645035I-2032J0D01*
G01*
X623796Y669673D02*
G03*
X623796Y669673I-2032J0D01*
G01*
X838960Y438520D02*
G03*
X838960Y438520I-2032J0D01*
G01*
X630420Y702714D02*
G03*
X630420Y702714I-2032J0D01*
G01*
X604258Y704746D02*
G03*
X604258Y704746I-2032J0D01*
G01*
X636390Y834065D02*
G03*
X636390Y834065I-2032J0D01*
G01*
X898890Y710250D02*
G03*
X898890Y710250I-2032J0D01*
G01*
X623568Y908928D02*
G03*
X623568Y908928I-2032J0D01*
G01*
X919732Y908674D02*
G03*
X919732Y908674I-2032J0D01*
G01*
X727162Y761052D02*
G03*
X727162Y761052I-2032J0D01*
G01*
X891258Y667387D02*
G03*
X891258Y667387I-2032J0D01*
G01*
X858518Y605652D02*
G03*
X858518Y605652I-2032J0D01*
G01*
X821688Y629528D02*
G03*
X821688Y629528I-2032J0D01*
G01*
X596110Y172120D02*
G03*
X596110Y172120I-2032J0D01*
G01*
X749190Y596450D02*
G03*
X749190Y596450I-2032J0D01*
G01*
X656690Y766450D02*
G03*
X656690Y766450I-2032J0D01*
G01*
X661690Y756700D02*
G03*
X661690Y756700I-2032J0D01*
G01*
X895094Y497448D02*
G03*
X895094Y497448I-2032J0D01*
G01*
X835640Y427565D02*
G03*
X835640Y427565I-2032J0D01*
G01*
X667510Y843650D02*
G03*
X667510Y843650I-2032J0D01*
G01*
X953640Y588315D02*
G03*
X953640Y588315I-2032J0D01*
G01*
X931890Y581315D02*
G03*
X931890Y581315I-2032J0D01*
G01*
X950440Y840869D02*
G03*
X950440Y840869I-2032J0D01*
G01*
X848890Y912315D02*
G03*
X848890Y912315I-2032J0D01*
G01*
X711390Y927315D02*
G03*
X711390Y927315I-2032J0D01*
G01*
X808890Y156565D02*
G03*
X808890Y156565I-2032J0D01*
G01*
X798040Y205361D02*
G03*
X798040Y205361I-2032J0D01*
G01*
X940390Y140065D02*
G03*
X940390Y140065I-2032J0D01*
G01*
X785640Y861565D02*
G03*
X785640Y861565I-2032J0D01*
G01*
X833140Y877065D02*
G03*
X833140Y877065I-2032J0D01*
G01*
X800140Y763065D02*
G03*
X800140Y763065I-2032J0D01*
G01*
X819640Y762315D02*
G03*
X819640Y762315I-2032J0D01*
G01*
X723890Y736250D02*
G03*
X723890Y736250I-2032J0D01*
G01*
X640390Y866065D02*
G03*
X640390Y866065I-2032J0D01*
G01*
X732140Y726000D02*
G03*
X732140Y726000I-2032J0D01*
G01*
X821390Y171315D02*
G03*
X821390Y171315I-2032J0D01*
G01*
X953390Y180315D02*
G03*
X953390Y180315I-2032J0D01*
G01*
X715912Y763052D02*
G03*
X715912Y763052I-2032J0D01*
G01*
X870390Y912565D02*
G03*
X870390Y912565I-2032J0D01*
G01*
X765554Y932296D02*
G03*
X765554Y932296I-2032J0D01*
G01*
X851640Y163315D02*
G03*
X851640Y163315I-2032J0D01*
G01*
X915668Y582030D02*
G03*
X915668Y582030I-2032J0D01*
G01*
X668272Y652896D02*
G03*
X668272Y652896I-2032J0D01*
G01*
X908556Y171820D02*
G03*
X908556Y171820I-2032J0D01*
G01*
X905000Y179186D02*
G03*
X905000Y179186I-2032J0D01*
G01*
X882394Y215000D02*
G03*
X882394Y215000I-2032J0D01*
G01*
X738858Y920814D02*
G03*
X738858Y920814I-2032J0D01*
G01*
X832640Y925065D02*
G03*
X832640Y925065I-2032J0D01*
G01*
X637934Y643206D02*
G03*
X637934Y643206I-2032J0D01*
G01*
X688390Y551315D02*
G03*
X688390Y551315I-2032J0D01*
G01*
X651482Y581281D02*
G03*
X651482Y581281I-2032J0D01*
G01*
X629892Y581470D02*
G03*
X629892Y581470I-2032J0D01*
G01*
X687042Y635129D02*
G03*
X687042Y635129I-2032J0D01*
G01*
X751890Y605000D02*
G03*
X751890Y605000I-2032J0D01*
G01*
X768640Y732315D02*
G03*
X768640Y732315I-2032J0D01*
G01*
X822390Y738250D02*
G03*
X822390Y738250I-2032J0D01*
G01*
X716140Y671065D02*
G03*
X716140Y671065I-2032J0D01*
G01*
X867382Y670435D02*
G03*
X867382Y670435I-2032J0D01*
G01*
X873140Y654315D02*
G03*
X873140Y654315I-2032J0D01*
G01*
X867390Y877065D02*
G03*
X867390Y877065I-2032J0D01*
G01*
X785890Y843315D02*
G03*
X785890Y843315I-2032J0D01*
G01*
X648640Y880315D02*
G03*
X648640Y880315I-2032J0D01*
G01*
X861390Y727065D02*
G03*
X861390Y727065I-2032J0D01*
G01*
X820390Y134565D02*
G03*
X820390Y134565I-2032J0D01*
G01*
X918182Y833757D02*
G03*
X918182Y833757I-2032J0D01*
G01*
X830044Y904623D02*
G03*
X830044Y904623I-2032J0D01*
G01*
X817140Y691565D02*
G03*
X817140Y691565I-2032J0D01*
G01*
X714220Y531243D02*
G03*
X714220Y531243I-2032J0D01*
G01*
X681454Y461647D02*
G03*
X681454Y461647I-2032J0D01*
G01*
X714728Y550293D02*
G03*
X714728Y550293I-2032J0D01*
G01*
X808708Y666625D02*
G03*
X808708Y666625I-2032J0D01*
G01*
X819630Y442851D02*
G03*
X819630Y442851I-2032J0D01*
G01*
X928088Y241429D02*
G03*
X928088Y241429I-2032J0D01*
G01*
X939264Y249811D02*
G03*
X939264Y249811I-2032J0D01*
G01*
X939518Y221617D02*
G03*
X939518Y221617I-2032J0D01*
G01*
X653690Y896700D02*
G03*
X653690Y896700I-2032J0D01*
G01*
X623640Y878065D02*
G03*
X623640Y878065I-2032J0D01*
G01*
X806640Y724815D02*
G03*
X806640Y724815I-2032J0D01*
G01*
X800390Y894315D02*
G03*
X800390Y894315I-2032J0D01*
G01*
X861890Y782815D02*
G03*
X861890Y782815I-2032J0D01*
G01*
X863890Y797315D02*
G03*
X863890Y797315I-2032J0D01*
G01*
X726390Y614250D02*
G03*
X726390Y614250I-2032J0D01*
G01*
X868640Y428315D02*
G03*
X868640Y428315I-2032J0D01*
G01*
X714640Y596565D02*
G03*
X714640Y596565I-2032J0D01*
G01*
X675390Y410065D02*
G03*
X675390Y410065I-2032J0D01*
G01*
X884890Y624065D02*
G03*
X884890Y624065I-2032J0D01*
G01*
X902640Y838065D02*
G03*
X902640Y838065I-2032J0D01*
G01*
X953640Y188815D02*
G03*
X953640Y188815I-2032J0D01*
G01*
X669890Y862815D02*
G03*
X669890Y862815I-2032J0D01*
G01*
X638140Y843565D02*
G03*
X638140Y843565I-2032J0D01*
G01*
X828890Y745565D02*
G03*
X828890Y745565I-2032J0D01*
G01*
X887140Y608565D02*
G03*
X887140Y608565I-2032J0D01*
G01*
X674144Y703302D02*
G03*
X674144Y703302I-2032J0D01*
G01*
X669890Y691315D02*
G03*
X669890Y691315I-2032J0D01*
G01*
X689140Y575065D02*
G03*
X689140Y575065I-2032J0D01*
G01*
X817640Y385815D02*
G03*
X817640Y385815I-2032J0D01*
G01*
X883640Y141315D02*
G03*
X883640Y141315I-2032J0D01*
G01*
X897140Y134315D02*
G03*
X897140Y134315I-2032J0D01*
G01*
X807640Y205065D02*
G03*
X807640Y205065I-2032J0D01*
G01*
X769390Y466565D02*
G03*
X769390Y466565I-2032J0D01*
G01*
X761890Y851065D02*
G03*
X761890Y851065I-2032J0D01*
G01*
X749140Y919250D02*
G03*
X749140Y919250I-2032J0D01*
G01*
X881140Y185815D02*
G03*
X881140Y185815I-2032J0D01*
G01*
X876640Y193315D02*
G03*
X876640Y193315I-2032J0D01*
G01*
X675390Y561815D02*
G03*
X675390Y561815I-2032J0D01*
G01*
X590890Y842565D02*
G03*
X590890Y842565I-2032J0D01*
G01*
X845030Y810578D02*
G03*
X845030Y810578I-2032J0D01*
G01*
X840640Y617065D02*
G03*
X840640Y617065I-2032J0D01*
G01*
X821154Y592138D02*
G03*
X821154Y592138I-2032J0D01*
G01*
X791890Y762565D02*
G03*
X791890Y762565I-2032J0D01*
G01*
X926640Y827065D02*
G03*
X926640Y827065I-2032J0D01*
G01*
X947390Y772065D02*
G03*
X947390Y772065I-2032J0D01*
G01*
X947890Y809315D02*
G03*
X947890Y809315I-2032J0D01*
G01*
X947640Y790565D02*
G03*
X947640Y790565I-2032J0D01*
G01*
X899140Y830565D02*
G03*
X899140Y830565I-2032J0D01*
G01*
X814640Y356565D02*
G03*
X814640Y356565I-2032J0D01*
G01*
X809390Y362065D02*
G03*
X809390Y362065I-2032J0D01*
G01*
X835640Y317815D02*
G03*
X835640Y317815I-2032J0D01*
G01*
X650974Y516511D02*
G03*
X650974Y516511I-2032J0D01*
G01*
X657640Y486065D02*
G03*
X657640Y486065I-2032J0D01*
G01*
X697890Y318815D02*
G03*
X697890Y318815I-2032J0D01*
G01*
X615390Y870565D02*
G03*
X615390Y870565I-2032J0D01*
G01*
X934140Y183065D02*
G03*
X934140Y183065I-2032J0D01*
G01*
X689724Y843150D02*
G03*
X689724Y843150I-2032J0D01*
G01*
X910054Y243969D02*
G03*
X910054Y243969I-2032J0D01*
G01*
X916658Y248033D02*
G03*
X916658Y248033I-2032J0D01*
G01*
X874756Y152200D02*
G03*
X874756Y152200I-2032J0D01*
G01*
X666234Y880852D02*
G03*
X666234Y880852I-2032J0D01*
G01*
X868640Y438750D02*
G03*
X868640Y438750I-2032J0D01*
G01*
X768140Y495750D02*
G03*
X768140Y495750I-2032J0D01*
G01*
X760390Y467500D02*
G03*
X760390Y467500I-2032J0D01*
G01*
X755140Y473500D02*
G03*
X755140Y473500I-2032J0D01*
G01*
X844890Y654250D02*
G03*
X844890Y654250I-2032J0D01*
G01*
X846808Y473012D02*
G03*
X846808Y473012I-2032J0D01*
G01*
X748640Y549250D02*
G03*
X748640Y549250I-2032J0D01*
G01*
X932640Y821250D02*
G03*
X932640Y821250I-2032J0D01*
G01*
X796890Y293000D02*
G03*
X796890Y293000I-2032J0D01*
G01*
X722856Y318326D02*
G03*
X722856Y318326I-2032J0D01*
G01*
X775688Y224854D02*
G03*
X775688Y224854I-2032J0D01*
G01*
X881860Y856044D02*
G03*
X881860Y856044I-2032J0D01*
G01*
X777640Y495565D02*
G03*
X777640Y495565I-2032J0D01*
G01*
X772390Y502750D02*
G03*
X772390Y502750I-2032J0D01*
G01*
X779752Y513652D02*
G03*
X779752Y513652I-2032J0D01*
G01*
X771225Y512999D02*
G03*
X771225Y512999I-2032J0D01*
G01*
X764512Y508826D02*
G03*
X764512Y508826I-2032J0D01*
G01*
Y560134D02*
G03*
X764512Y560134I-2032J0D01*
G01*
Y607886D02*
G03*
X764512Y607886I-2032J0D01*
G01*
X772162Y638970D02*
G03*
X772162Y638970I-2032J0D01*
G01*
X747640Y669565D02*
G03*
X747640Y669565I-2032J0D01*
G01*
X794230Y666306D02*
G03*
X794230Y666306I-2032J0D01*
G01*
X772640Y678752D02*
G03*
X772640Y678752I-2032J0D01*
G01*
X810994Y658940D02*
G03*
X810994Y658940I-2032J0D01*
G01*
X828520Y452946D02*
G03*
X828520Y452946I-2032J0D01*
G01*
X855952Y473774D02*
G03*
X855952Y473774I-2032J0D01*
G01*
X864080D02*
G03*
X864080Y473774I-2032J0D01*
G01*
X840966Y484950D02*
G03*
X840966Y484950I-2032J0D01*
G01*
X623034Y722948D02*
G03*
X623034Y722948I-2032J0D01*
G01*
X637258Y693992D02*
G03*
X637258Y693992I-2032J0D01*
G01*
X653260Y693484D02*
G03*
X653260Y693484I-2032J0D01*
G01*
X662404Y687642D02*
G03*
X662404Y687642I-2032J0D01*
G01*
X739874Y913194D02*
G03*
X739874Y913194I-2032J0D01*
G01*
X630283Y687760D02*
G03*
X630283Y687760I-2032J0D01*
G01*
X787390Y266000D02*
G03*
X787390Y266000I-2032J0D01*
G01*
X789150Y483934D02*
G03*
X789150Y483934I-2032J0D01*
G01*
X780260Y472250D02*
G03*
X780260Y472250I-2032J0D01*
G01*
X774672Y477838D02*
G03*
X774672Y477838I-2032J0D01*
G01*
X1316139Y499691D02*
G03*
X1316139Y499691I-2032J0D01*
G01*
Y514691D02*
G03*
X1316139Y514691I-2032J0D01*
G01*
Y529691D02*
G03*
X1316139Y529691I-2032J0D01*
G01*
Y544691D02*
G03*
X1316139Y544691I-2032J0D01*
G01*
Y559691D02*
G03*
X1316139Y559691I-2032J0D01*
G01*
X1316748Y355489D02*
G03*
X1316748Y355489I-2032J0D01*
G01*
Y340489D02*
G03*
X1316748Y340489I-2032J0D01*
G01*
Y325489D02*
G03*
X1316748Y325489I-2032J0D01*
G01*
Y310489D02*
G03*
X1316748Y310489I-2032J0D01*
G01*
Y295489D02*
G03*
X1316748Y295489I-2032J0D01*
G01*
X1205498Y337250D02*
G03*
X1205498Y337250I-2032J0D01*
G01*
X1196248Y337750D02*
G03*
X1196248Y337750I-2032J0D01*
G01*
X1178748Y366000D02*
G03*
X1178748Y366000I-2032J0D01*
G01*
X1177248Y292250D02*
G03*
X1177248Y292250I-2032J0D01*
G01*
X1164998Y294250D02*
G03*
X1164998Y294250I-2032J0D01*
G01*
X1192498Y330500D02*
G03*
X1192498Y330500I-2032J0D01*
G01*
X1233498Y344250D02*
G03*
X1233498Y344250I-2032J0D01*
G01*
X1190998Y359250D02*
G03*
X1190998Y359250I-2032J0D01*
G01*
X1227498Y353886D02*
G03*
X1227498Y353886I-2032J0D01*
G01*
X1221189Y349584D02*
G03*
X1221189Y349584I-2032J0D01*
G01*
X1214248Y359500D02*
G03*
X1214248Y359500I-2032J0D01*
G01*
X1214998Y373750D02*
G03*
X1214998Y373750I-2032J0D01*
G01*
X1202998Y379750D02*
G03*
X1202998Y379750I-2032J0D01*
G01*
X1201748Y392000D02*
G03*
X1201748Y392000I-2032J0D01*
G01*
X1234507Y397787D02*
G03*
X1234507Y397787I-2032J0D01*
G01*
X1203498Y412750D02*
G03*
X1203498Y412750I-2032J0D01*
G01*
X1230796Y324930D02*
G03*
X1230796Y324930I-2032J0D01*
G01*
X1144436Y312738D02*
G03*
X1144436Y312738I-2032J0D01*
G01*
X1144498Y772750D02*
G03*
X1144498Y772750I-2032J0D01*
G01*
X1247248Y319000D02*
G03*
X1247248Y319000I-2032J0D01*
G01*
X1290998Y296000D02*
G03*
X1290998Y296000I-2032J0D01*
G01*
X1272248Y852250D02*
G03*
X1272248Y852250I-2032J0D01*
G01*
X1141895Y449201D02*
G03*
X1141895Y449201I-2032J0D01*
G01*
X1178498Y373750D02*
G03*
X1178498Y373750I-2032J0D01*
G01*
X1195748Y415250D02*
G03*
X1195748Y415250I-2032J0D01*
G01*
X1240498Y366000D02*
G03*
X1240498Y366000I-2032J0D01*
G01*
X1233498Y373000D02*
G03*
X1233498Y373000I-2032J0D01*
G01*
X1242498Y392000D02*
G03*
X1242498Y392000I-2032J0D01*
G01*
X1240489Y412847D02*
G03*
X1240489Y412847I-2032J0D01*
G01*
X1234007Y416973D02*
G03*
X1234007Y416973I-2032J0D01*
G01*
X1233257Y409472D02*
G03*
X1233257Y409472I-2032J0D01*
G01*
X1259248Y647000D02*
G03*
X1259248Y647000I-2032J0D01*
G01*
X1225370Y629060D02*
G03*
X1225370Y629060I-2032J0D01*
G01*
X1261784Y258636D02*
G03*
X1261784Y258636I-2032J0D01*
G01*
X1265248Y241750D02*
G03*
X1265248Y241750I-2032J0D01*
G01*
X1246248Y244500D02*
G03*
X1246248Y244500I-2032J0D01*
G01*
X1207248Y256500D02*
G03*
X1207248Y256500I-2032J0D01*
G01*
X1377247Y176065D02*
G03*
X1377247Y176065I-2032J0D01*
G01*
X1306748Y844500D02*
G03*
X1306748Y844500I-2032J0D01*
G01*
X1316998Y844061D02*
G03*
X1316998Y844061I-2032J0D01*
G01*
X1332012Y239964D02*
G03*
X1332012Y239964I-2032J0D01*
G01*
X1263997Y333065D02*
G03*
X1263997Y333065I-2032J0D01*
G01*
X1143248Y521000D02*
G03*
X1143248Y521000I-2032J0D01*
G01*
X1142748Y749500D02*
G03*
X1142748Y749500I-2032J0D01*
G01*
X1127748Y727250D02*
G03*
X1127748Y727250I-2032J0D01*
G01*
X1206021Y706301D02*
G03*
X1206021Y706301I-2032J0D01*
G01*
X1169074Y813880D02*
G03*
X1169074Y813880I-2032J0D01*
G01*
X1127248Y670500D02*
G03*
X1127248Y670500I-2032J0D01*
G01*
X1239998Y906500D02*
G03*
X1239998Y906500I-2032J0D01*
G01*
X1198538Y898462D02*
G03*
X1198538Y898462I-2032J0D01*
G01*
X1198960Y906565D02*
G03*
X1198960Y906565I-2032J0D01*
G01*
X1204552Y892620D02*
G03*
X1204552Y892620I-2032J0D01*
G01*
X1342998Y763000D02*
G03*
X1342998Y763000I-2032J0D01*
G01*
X1343998Y797500D02*
G03*
X1343998Y797500I-2032J0D01*
G01*
X1169998Y613500D02*
G03*
X1169998Y613500I-2032J0D01*
G01*
X1175748Y619250D02*
G03*
X1175748Y619250I-2032J0D01*
G01*
X1143998Y614000D02*
G03*
X1143998Y614000I-2032J0D01*
G01*
X1176998Y640250D02*
G03*
X1176998Y640250I-2032J0D01*
G01*
X1175748Y476000D02*
G03*
X1175748Y476000I-2032J0D01*
G01*
X1160748Y863750D02*
G03*
X1160748Y863750I-2032J0D01*
G01*
X1166748Y868750D02*
G03*
X1166748Y868750I-2032J0D01*
G01*
X1317748Y759750D02*
G03*
X1317748Y759750I-2032J0D01*
G01*
X1333997Y764315D02*
G03*
X1333997Y764315I-2032J0D01*
G01*
X1302784Y233758D02*
G03*
X1302784Y233758I-2032J0D01*
G01*
X1336247Y233565D02*
G03*
X1336247Y233565I-2032J0D01*
G01*
X1110654Y801434D02*
G03*
X1110654Y801434I-2032J0D01*
G01*
X1170344Y453962D02*
G03*
X1170344Y453962I-2032J0D01*
G01*
X1257212Y553276D02*
G03*
X1257212Y553276I-2032J0D01*
G01*
X1266864Y549720D02*
G03*
X1266864Y549720I-2032J0D01*
G01*
X1251116Y611442D02*
G03*
X1251116Y611442I-2032J0D01*
G01*
X1234860Y542354D02*
G03*
X1234860Y542354I-2032J0D01*
G01*
X1223684Y542608D02*
G03*
X1223684Y542608I-2032J0D01*
G01*
X1336762Y901561D02*
G03*
X1336762Y901561I-2032J0D01*
G01*
X1365670Y882968D02*
G03*
X1365670Y882968I-2032J0D01*
G01*
X1101764Y769430D02*
G03*
X1101764Y769430I-2032J0D01*
G01*
X1104812Y822008D02*
G03*
X1104812Y822008I-2032J0D01*
G01*
X1235247Y352565D02*
G03*
X1235247Y352565I-2032J0D01*
G01*
X1234860Y558864D02*
G03*
X1234860Y558864I-2032J0D01*
G01*
X1361860Y808038D02*
G03*
X1361860Y808038I-2032J0D01*
G01*
X1116496Y524574D02*
G03*
X1116496Y524574I-2032J0D01*
G01*
X1140118Y495618D02*
G03*
X1140118Y495618I-2032J0D01*
G01*
X1128688Y489776D02*
G03*
X1128688Y489776I-2032J0D01*
G01*
X1202094Y653606D02*
G03*
X1202094Y653606I-2032J0D01*
G01*
X1216318Y647002D02*
G03*
X1216318Y647002I-2032J0D01*
G01*
X1089826Y858584D02*
G03*
X1089826Y858584I-2032J0D01*
G01*
X1073824Y740474D02*
G03*
X1073824Y740474I-2032J0D01*
G01*
X1072554Y658432D02*
G03*
X1072554Y658432I-2032J0D01*
G01*
X1085508Y742760D02*
G03*
X1085508Y742760I-2032J0D01*
G01*
X1101510Y607632D02*
G03*
X1101510Y607632I-2032J0D01*
G01*
X1093636Y620586D02*
G03*
X1093636Y620586I-2032J0D01*
G01*
X1075348Y581470D02*
G03*
X1075348Y581470I-2032J0D01*
G01*
X1093636D02*
G03*
X1093636Y581470I-2032J0D01*
G01*
X1384720Y709486D02*
G03*
X1384720Y709486I-2032J0D01*
G01*
X1372020Y710248D02*
G03*
X1372020Y710248I-2032J0D01*
G01*
X1402246Y737426D02*
G03*
X1402246Y737426I-2032J0D01*
G01*
X1384247Y695315D02*
G03*
X1384247Y695315I-2032J0D01*
G01*
X1255688Y869252D02*
G03*
X1255688Y869252I-2032J0D01*
G01*
X1130720Y334582D02*
G03*
X1130720Y334582I-2032J0D01*
G01*
Y394780D02*
G03*
X1130720Y394780I-2032J0D01*
G01*
X1240997Y743565D02*
G03*
X1240997Y743565I-2032J0D01*
G01*
X1198408Y291910D02*
G03*
X1198408Y291910I-2032J0D01*
G01*
X1188632Y420180D02*
G03*
X1188632Y420180I-2032J0D01*
G01*
X1299884Y638112D02*
G03*
X1299884Y638112I-2032J0D01*
G01*
X1169836Y385636D02*
G03*
X1169836Y385636I-2032J0D01*
G01*
X1171359Y355221D02*
G03*
X1171359Y355221I-2032J0D01*
G01*
X1170254Y347534D02*
G03*
X1170254Y347534I-2032J0D01*
G01*
X1171867Y378081D02*
G03*
X1171867Y378081I-2032J0D01*
G01*
X1171868Y831936D02*
G03*
X1171868Y831936I-2032J0D01*
G01*
X1276247Y835815D02*
G03*
X1276247Y835815I-2032J0D01*
G01*
X1050964Y256604D02*
G03*
X1050964Y256604I-2032J0D01*
G01*
X1069506D02*
G03*
X1069506Y256604I-2032J0D01*
G01*
X1276008Y290386D02*
G03*
X1276008Y290386I-2032J0D01*
G01*
X1276262Y299022D02*
G03*
X1276262Y299022I-2032J0D01*
G01*
X1343063Y227459D02*
G03*
X1343063Y227459I-2032J0D01*
G01*
X1130720Y292164D02*
G03*
X1130720Y292164I-2032J0D01*
G01*
X1124116Y256604D02*
G03*
X1124116Y256604I-2032J0D01*
G01*
X1130720Y263716D02*
G03*
X1130720Y263716I-2032J0D01*
G01*
X1157136Y263970D02*
G03*
X1157136Y263970I-2032J0D01*
G01*
X1130720Y364808D02*
G03*
X1130720Y364808I-2032J0D01*
G01*
X1123862Y906336D02*
G03*
X1123862Y906336I-2032J0D01*
G01*
X1295747Y566992D02*
G03*
X1295747Y566992I-2032J0D01*
G01*
X1226248Y264000D02*
G03*
X1226248Y264000I-2032J0D01*
G01*
X1118997Y581315D02*
G03*
X1118997Y581315I-2032J0D01*
G01*
X1143998Y624250D02*
G03*
X1143998Y624250I-2032J0D01*
G01*
X1068748Y183500D02*
G03*
X1068748Y183500I-2032J0D01*
G01*
X1112998Y646250D02*
G03*
X1112998Y646250I-2032J0D01*
G01*
X1317998Y413000D02*
G03*
X1317998Y413000I-2032J0D01*
G01*
X1314748Y374750D02*
G03*
X1314748Y374750I-2032J0D01*
G01*
X1178218Y383096D02*
G03*
X1178218Y383096I-2032J0D01*
G01*
X1141998Y431250D02*
G03*
X1141998Y431250I-2032J0D01*
G01*
X1380998Y599250D02*
G03*
X1380998Y599250I-2032J0D01*
G01*
X1404248Y249750D02*
G03*
X1404248Y249750I-2032J0D01*
G01*
X1404304Y214944D02*
G03*
X1404304Y214944I-2032J0D01*
G01*
X1272498Y394000D02*
G03*
X1272498Y394000I-2032J0D01*
G01*
Y404500D02*
G03*
X1272498Y404500I-2032J0D01*
G01*
X1272748Y377250D02*
G03*
X1272748Y377250I-2032J0D01*
G01*
X1219748Y320000D02*
G03*
X1219748Y320000I-2032J0D01*
G01*
X1089748Y826250D02*
G03*
X1089748Y826250I-2032J0D01*
G01*
X1350247Y529815D02*
G03*
X1350247Y529815I-2032J0D01*
G01*
X1400015Y626048D02*
G03*
X1400015Y626048I-2032J0D01*
G01*
X1281497Y880815D02*
G03*
X1281497Y880815I-2032J0D01*
G01*
X1313747Y880565D02*
G03*
X1313747Y880565I-2032J0D01*
G01*
X1306747Y876815D02*
G03*
X1306747Y876815I-2032J0D01*
G01*
X1276997Y903315D02*
G03*
X1276997Y903315I-2032J0D01*
G01*
X1069997Y622565D02*
G03*
X1069997Y622565I-2032J0D01*
G01*
X1169497Y394565D02*
G03*
X1169497Y394565I-2032J0D01*
G01*
X1263747Y324815D02*
G03*
X1263747Y324815I-2032J0D01*
G01*
X1289748Y238000D02*
G03*
X1289748Y238000I-2032J0D01*
G01*
X1372554Y666509D02*
G03*
X1372554Y666509I-2032J0D01*
G01*
X1165747Y836815D02*
G03*
X1165747Y836815I-2032J0D01*
G01*
X1274747Y817065D02*
G03*
X1274747Y817065I-2032J0D01*
G01*
X1240747Y822565D02*
G03*
X1240747Y822565I-2032J0D01*
G01*
X1234747Y809815D02*
G03*
X1234747Y809815I-2032J0D01*
G01*
X1326326Y587737D02*
G03*
X1326326Y587737I-2032J0D01*
G01*
X1342247Y586315D02*
G03*
X1342247Y586315I-2032J0D01*
G01*
X1363747Y626815D02*
G03*
X1363747Y626815I-2032J0D01*
G01*
X1302704Y364860D02*
G03*
X1302704Y364860I-2032J0D01*
G01*
X1309247Y413315D02*
G03*
X1309247Y413315I-2032J0D01*
G01*
X1333247Y524065D02*
G03*
X1333247Y524065I-2032J0D01*
G01*
X1164997Y676565D02*
G03*
X1164997Y676565I-2032J0D01*
G01*
X1122747Y633315D02*
G03*
X1122747Y633315I-2032J0D01*
G01*
X1230795Y905639D02*
G03*
X1230795Y905639I-2032J0D01*
G01*
X1169497Y481315D02*
G03*
X1169497Y481315I-2032J0D01*
G01*
X1169581Y489333D02*
G03*
X1169581Y489333I-2032J0D01*
G01*
X1203747Y540815D02*
G03*
X1203747Y540815I-2032J0D01*
G01*
X1307249Y600331D02*
G03*
X1307249Y600331I-2032J0D01*
G01*
X1305979Y608459D02*
G03*
X1305979Y608459I-2032J0D01*
G01*
X1165517Y652655D02*
G03*
X1165517Y652655I-2032J0D01*
G01*
X1130497Y538315D02*
G03*
X1130497Y538315I-2032J0D01*
G01*
X1217079Y843155D02*
G03*
X1217079Y843155I-2032J0D01*
G01*
X1304201Y817247D02*
G03*
X1304201Y817247I-2032J0D01*
G01*
X1302423Y624461D02*
G03*
X1302423Y624461I-2032J0D01*
G01*
X1141895Y645035D02*
G03*
X1141895Y645035I-2032J0D01*
G01*
X1078903Y669673D02*
G03*
X1078903Y669673I-2032J0D01*
G01*
X1294068Y438520D02*
G03*
X1294068Y438520I-2032J0D01*
G01*
X1085528Y702714D02*
G03*
X1085528Y702714I-2032J0D01*
G01*
X1059366Y704746D02*
G03*
X1059366Y704746I-2032J0D01*
G01*
X1091497Y834065D02*
G03*
X1091497Y834065I-2032J0D01*
G01*
X1353998Y710250D02*
G03*
X1353998Y710250I-2032J0D01*
G01*
X1078676Y908928D02*
G03*
X1078676Y908928I-2032J0D01*
G01*
X1374840Y908674D02*
G03*
X1374840Y908674I-2032J0D01*
G01*
X1182270Y761052D02*
G03*
X1182270Y761052I-2032J0D01*
G01*
X1346365Y667387D02*
G03*
X1346365Y667387I-2032J0D01*
G01*
X1313626Y605652D02*
G03*
X1313626Y605652I-2032J0D01*
G01*
X1276796Y629528D02*
G03*
X1276796Y629528I-2032J0D01*
G01*
X1051218Y172120D02*
G03*
X1051218Y172120I-2032J0D01*
G01*
X1204298Y596450D02*
G03*
X1204298Y596450I-2032J0D01*
G01*
X1111798Y766450D02*
G03*
X1111798Y766450I-2032J0D01*
G01*
X1116798Y756700D02*
G03*
X1116798Y756700I-2032J0D01*
G01*
X1350202Y497448D02*
G03*
X1350202Y497448I-2032J0D01*
G01*
X1290747Y427565D02*
G03*
X1290747Y427565I-2032J0D01*
G01*
X1122618Y843650D02*
G03*
X1122618Y843650I-2032J0D01*
G01*
X1408747Y588315D02*
G03*
X1408747Y588315I-2032J0D01*
G01*
X1386997Y581315D02*
G03*
X1386997Y581315I-2032J0D01*
G01*
X1405547Y840869D02*
G03*
X1405547Y840869I-2032J0D01*
G01*
X1303997Y912315D02*
G03*
X1303997Y912315I-2032J0D01*
G01*
X1166497Y927315D02*
G03*
X1166497Y927315I-2032J0D01*
G01*
X1263997Y156565D02*
G03*
X1263997Y156565I-2032J0D01*
G01*
X1253147Y205361D02*
G03*
X1253147Y205361I-2032J0D01*
G01*
X1395497Y140065D02*
G03*
X1395497Y140065I-2032J0D01*
G01*
X1240747Y861565D02*
G03*
X1240747Y861565I-2032J0D01*
G01*
X1288247Y877065D02*
G03*
X1288247Y877065I-2032J0D01*
G01*
X1255247Y763065D02*
G03*
X1255247Y763065I-2032J0D01*
G01*
X1274747Y762315D02*
G03*
X1274747Y762315I-2032J0D01*
G01*
X1178998Y736250D02*
G03*
X1178998Y736250I-2032J0D01*
G01*
X1095497Y866065D02*
G03*
X1095497Y866065I-2032J0D01*
G01*
X1187248Y726000D02*
G03*
X1187248Y726000I-2032J0D01*
G01*
X1276497Y171315D02*
G03*
X1276497Y171315I-2032J0D01*
G01*
X1408497Y180315D02*
G03*
X1408497Y180315I-2032J0D01*
G01*
X1171020Y763052D02*
G03*
X1171020Y763052I-2032J0D01*
G01*
X1325497Y912565D02*
G03*
X1325497Y912565I-2032J0D01*
G01*
X1220662Y932296D02*
G03*
X1220662Y932296I-2032J0D01*
G01*
X1306747Y163315D02*
G03*
X1306747Y163315I-2032J0D01*
G01*
X1370776Y582030D02*
G03*
X1370776Y582030I-2032J0D01*
G01*
X1123380Y652896D02*
G03*
X1123380Y652896I-2032J0D01*
G01*
X1363664Y171820D02*
G03*
X1363664Y171820I-2032J0D01*
G01*
X1360108Y179186D02*
G03*
X1360108Y179186I-2032J0D01*
G01*
X1337502Y215000D02*
G03*
X1337502Y215000I-2032J0D01*
G01*
X1193966Y920814D02*
G03*
X1193966Y920814I-2032J0D01*
G01*
X1287747Y925065D02*
G03*
X1287747Y925065I-2032J0D01*
G01*
X1093041Y643206D02*
G03*
X1093041Y643206I-2032J0D01*
G01*
X1143497Y551315D02*
G03*
X1143497Y551315I-2032J0D01*
G01*
X1106589Y581281D02*
G03*
X1106589Y581281I-2032J0D01*
G01*
X1085000Y581470D02*
G03*
X1085000Y581470I-2032J0D01*
G01*
X1142149Y635129D02*
G03*
X1142149Y635129I-2032J0D01*
G01*
X1206998Y605000D02*
G03*
X1206998Y605000I-2032J0D01*
G01*
X1223747Y732315D02*
G03*
X1223747Y732315I-2032J0D01*
G01*
X1277498Y738250D02*
G03*
X1277498Y738250I-2032J0D01*
G01*
X1171247Y671065D02*
G03*
X1171247Y671065I-2032J0D01*
G01*
X1322489Y670435D02*
G03*
X1322489Y670435I-2032J0D01*
G01*
X1328247Y654315D02*
G03*
X1328247Y654315I-2032J0D01*
G01*
X1322497Y877065D02*
G03*
X1322497Y877065I-2032J0D01*
G01*
X1240997Y843315D02*
G03*
X1240997Y843315I-2032J0D01*
G01*
X1103747Y880315D02*
G03*
X1103747Y880315I-2032J0D01*
G01*
X1316497Y727065D02*
G03*
X1316497Y727065I-2032J0D01*
G01*
X1275497Y134565D02*
G03*
X1275497Y134565I-2032J0D01*
G01*
X1373289Y833757D02*
G03*
X1373289Y833757I-2032J0D01*
G01*
X1285151Y904623D02*
G03*
X1285151Y904623I-2032J0D01*
G01*
X1272247Y691565D02*
G03*
X1272247Y691565I-2032J0D01*
G01*
X1169327Y531243D02*
G03*
X1169327Y531243I-2032J0D01*
G01*
X1136561Y461647D02*
G03*
X1136561Y461647I-2032J0D01*
G01*
X1169835Y550293D02*
G03*
X1169835Y550293I-2032J0D01*
G01*
X1263815Y666625D02*
G03*
X1263815Y666625I-2032J0D01*
G01*
X1274737Y442851D02*
G03*
X1274737Y442851I-2032J0D01*
G01*
X1383195Y241429D02*
G03*
X1383195Y241429I-2032J0D01*
G01*
X1394371Y249811D02*
G03*
X1394371Y249811I-2032J0D01*
G01*
X1394625Y221617D02*
G03*
X1394625Y221617I-2032J0D01*
G01*
X1108798Y896700D02*
G03*
X1108798Y896700I-2032J0D01*
G01*
X1078747Y878065D02*
G03*
X1078747Y878065I-2032J0D01*
G01*
X1261747Y724815D02*
G03*
X1261747Y724815I-2032J0D01*
G01*
X1255497Y894315D02*
G03*
X1255497Y894315I-2032J0D01*
G01*
X1316997Y782815D02*
G03*
X1316997Y782815I-2032J0D01*
G01*
X1318997Y797315D02*
G03*
X1318997Y797315I-2032J0D01*
G01*
X1181498Y614250D02*
G03*
X1181498Y614250I-2032J0D01*
G01*
X1323747Y428315D02*
G03*
X1323747Y428315I-2032J0D01*
G01*
X1169747Y596565D02*
G03*
X1169747Y596565I-2032J0D01*
G01*
X1130497Y410065D02*
G03*
X1130497Y410065I-2032J0D01*
G01*
X1339997Y624065D02*
G03*
X1339997Y624065I-2032J0D01*
G01*
X1357747Y838065D02*
G03*
X1357747Y838065I-2032J0D01*
G01*
X1408747Y188815D02*
G03*
X1408747Y188815I-2032J0D01*
G01*
X1124997Y862815D02*
G03*
X1124997Y862815I-2032J0D01*
G01*
X1093247Y843565D02*
G03*
X1093247Y843565I-2032J0D01*
G01*
X1283997Y745565D02*
G03*
X1283997Y745565I-2032J0D01*
G01*
X1342247Y608565D02*
G03*
X1342247Y608565I-2032J0D01*
G01*
X1129252Y703302D02*
G03*
X1129252Y703302I-2032J0D01*
G01*
X1124997Y691315D02*
G03*
X1124997Y691315I-2032J0D01*
G01*
X1144247Y575065D02*
G03*
X1144247Y575065I-2032J0D01*
G01*
X1272747Y385815D02*
G03*
X1272747Y385815I-2032J0D01*
G01*
X1338747Y141315D02*
G03*
X1338747Y141315I-2032J0D01*
G01*
X1352247Y134315D02*
G03*
X1352247Y134315I-2032J0D01*
G01*
X1262747Y205065D02*
G03*
X1262747Y205065I-2032J0D01*
G01*
X1224497Y466565D02*
G03*
X1224497Y466565I-2032J0D01*
G01*
X1216997Y851065D02*
G03*
X1216997Y851065I-2032J0D01*
G01*
X1204248Y919250D02*
G03*
X1204248Y919250I-2032J0D01*
G01*
X1336247Y185815D02*
G03*
X1336247Y185815I-2032J0D01*
G01*
X1331747Y193315D02*
G03*
X1331747Y193315I-2032J0D01*
G01*
X1130497Y561815D02*
G03*
X1130497Y561815I-2032J0D01*
G01*
X1045997Y842565D02*
G03*
X1045997Y842565I-2032J0D01*
G01*
X1300138Y810578D02*
G03*
X1300138Y810578I-2032J0D01*
G01*
X1295747Y617065D02*
G03*
X1295747Y617065I-2032J0D01*
G01*
X1276262Y592138D02*
G03*
X1276262Y592138I-2032J0D01*
G01*
X1246997Y762565D02*
G03*
X1246997Y762565I-2032J0D01*
G01*
X1381747Y827065D02*
G03*
X1381747Y827065I-2032J0D01*
G01*
X1402497Y772065D02*
G03*
X1402497Y772065I-2032J0D01*
G01*
X1402997Y809315D02*
G03*
X1402997Y809315I-2032J0D01*
G01*
X1402747Y790565D02*
G03*
X1402747Y790565I-2032J0D01*
G01*
X1354247Y830565D02*
G03*
X1354247Y830565I-2032J0D01*
G01*
X1269747Y356565D02*
G03*
X1269747Y356565I-2032J0D01*
G01*
X1264497Y362065D02*
G03*
X1264497Y362065I-2032J0D01*
G01*
X1290747Y317815D02*
G03*
X1290747Y317815I-2032J0D01*
G01*
X1106081Y516511D02*
G03*
X1106081Y516511I-2032J0D01*
G01*
X1112747Y486065D02*
G03*
X1112747Y486065I-2032J0D01*
G01*
X1152997Y318815D02*
G03*
X1152997Y318815I-2032J0D01*
G01*
X1070497Y870565D02*
G03*
X1070497Y870565I-2032J0D01*
G01*
X1389247Y183065D02*
G03*
X1389247Y183065I-2032J0D01*
G01*
X1144832Y843150D02*
G03*
X1144832Y843150I-2032J0D01*
G01*
X1365161Y243969D02*
G03*
X1365161Y243969I-2032J0D01*
G01*
X1371765Y248033D02*
G03*
X1371765Y248033I-2032J0D01*
G01*
X1329863Y152200D02*
G03*
X1329863Y152200I-2032J0D01*
G01*
X1121342Y880852D02*
G03*
X1121342Y880852I-2032J0D01*
G01*
X1323748Y438750D02*
G03*
X1323748Y438750I-2032J0D01*
G01*
X1223248Y495750D02*
G03*
X1223248Y495750I-2032J0D01*
G01*
X1215498Y467500D02*
G03*
X1215498Y467500I-2032J0D01*
G01*
X1210248Y473500D02*
G03*
X1210248Y473500I-2032J0D01*
G01*
X1299998Y654250D02*
G03*
X1299998Y654250I-2032J0D01*
G01*
X1301916Y473012D02*
G03*
X1301916Y473012I-2032J0D01*
G01*
X1203748Y549250D02*
G03*
X1203748Y549250I-2032J0D01*
G01*
X1387748Y821250D02*
G03*
X1387748Y821250I-2032J0D01*
G01*
X1251998Y293000D02*
G03*
X1251998Y293000I-2032J0D01*
G01*
X1177964Y318326D02*
G03*
X1177964Y318326I-2032J0D01*
G01*
X1230796Y224854D02*
G03*
X1230796Y224854I-2032J0D01*
G01*
X1336968Y856044D02*
G03*
X1336968Y856044I-2032J0D01*
G01*
X1232747Y495565D02*
G03*
X1232747Y495565I-2032J0D01*
G01*
X1227498Y502750D02*
G03*
X1227498Y502750I-2032J0D01*
G01*
X1234860Y513652D02*
G03*
X1234860Y513652I-2032J0D01*
G01*
X1226332Y512999D02*
G03*
X1226332Y512999I-2032J0D01*
G01*
X1219620Y508826D02*
G03*
X1219620Y508826I-2032J0D01*
G01*
Y560134D02*
G03*
X1219620Y560134I-2032J0D01*
G01*
Y607886D02*
G03*
X1219620Y607886I-2032J0D01*
G01*
X1227270Y638970D02*
G03*
X1227270Y638970I-2032J0D01*
G01*
X1202747Y669565D02*
G03*
X1202747Y669565I-2032J0D01*
G01*
X1249338Y666306D02*
G03*
X1249338Y666306I-2032J0D01*
G01*
X1227748Y678752D02*
G03*
X1227748Y678752I-2032J0D01*
G01*
X1266102Y658940D02*
G03*
X1266102Y658940I-2032J0D01*
G01*
X1283628Y452946D02*
G03*
X1283628Y452946I-2032J0D01*
G01*
X1311060Y473774D02*
G03*
X1311060Y473774I-2032J0D01*
G01*
X1319188D02*
G03*
X1319188Y473774I-2032J0D01*
G01*
X1296074Y484950D02*
G03*
X1296074Y484950I-2032J0D01*
G01*
X1078142Y722948D02*
G03*
X1078142Y722948I-2032J0D01*
G01*
X1092366Y693992D02*
G03*
X1092366Y693992I-2032J0D01*
G01*
X1108368Y693484D02*
G03*
X1108368Y693484I-2032J0D01*
G01*
X1117512Y687642D02*
G03*
X1117512Y687642I-2032J0D01*
G01*
X1194982Y913194D02*
G03*
X1194982Y913194I-2032J0D01*
G01*
X1085390Y687760D02*
G03*
X1085390Y687760I-2032J0D01*
G01*
X1242498Y266000D02*
G03*
X1242498Y266000I-2032J0D01*
G01*
X1244258Y483934D02*
G03*
X1244258Y483934I-2032J0D01*
G01*
X1235368Y472250D02*
G03*
X1235368Y472250I-2032J0D01*
G01*
X1229780Y477838D02*
G03*
X1229780Y477838I-2032J0D01*
G01*
X1771247Y499691D02*
G03*
X1771247Y499691I-2032J0D01*
G01*
Y514691D02*
G03*
X1771247Y514691I-2032J0D01*
G01*
Y529691D02*
G03*
X1771247Y529691I-2032J0D01*
G01*
Y544691D02*
G03*
X1771247Y544691I-2032J0D01*
G01*
Y559691D02*
G03*
X1771247Y559691I-2032J0D01*
G01*
X1771855Y355489D02*
G03*
X1771855Y355489I-2032J0D01*
G01*
Y340489D02*
G03*
X1771855Y340489I-2032J0D01*
G01*
Y325489D02*
G03*
X1771855Y325489I-2032J0D01*
G01*
Y310489D02*
G03*
X1771855Y310489I-2032J0D01*
G01*
Y295489D02*
G03*
X1771855Y295489I-2032J0D01*
G01*
X1660605Y337250D02*
G03*
X1660605Y337250I-2032J0D01*
G01*
X1651355Y337750D02*
G03*
X1651355Y337750I-2032J0D01*
G01*
X1633855Y366000D02*
G03*
X1633855Y366000I-2032J0D01*
G01*
X1632355Y292250D02*
G03*
X1632355Y292250I-2032J0D01*
G01*
X1620105Y294250D02*
G03*
X1620105Y294250I-2032J0D01*
G01*
X1647605Y330500D02*
G03*
X1647605Y330500I-2032J0D01*
G01*
X1688605Y344250D02*
G03*
X1688605Y344250I-2032J0D01*
G01*
X1646105Y359250D02*
G03*
X1646105Y359250I-2032J0D01*
G01*
X1682605Y353886D02*
G03*
X1682605Y353886I-2032J0D01*
G01*
X1676296Y349584D02*
G03*
X1676296Y349584I-2032J0D01*
G01*
X1669355Y359500D02*
G03*
X1669355Y359500I-2032J0D01*
G01*
X1670105Y373750D02*
G03*
X1670105Y373750I-2032J0D01*
G01*
X1658105Y379750D02*
G03*
X1658105Y379750I-2032J0D01*
G01*
X1656855Y392000D02*
G03*
X1656855Y392000I-2032J0D01*
G01*
X1689615Y397787D02*
G03*
X1689615Y397787I-2032J0D01*
G01*
X1658605Y412750D02*
G03*
X1658605Y412750I-2032J0D01*
G01*
X1685903Y324930D02*
G03*
X1685903Y324930I-2032J0D01*
G01*
X1599543Y312738D02*
G03*
X1599543Y312738I-2032J0D01*
G01*
X1599605Y772750D02*
G03*
X1599605Y772750I-2032J0D01*
G01*
X1702355Y319000D02*
G03*
X1702355Y319000I-2032J0D01*
G01*
X1746105Y296000D02*
G03*
X1746105Y296000I-2032J0D01*
G01*
X1727355Y852250D02*
G03*
X1727355Y852250I-2032J0D01*
G01*
X1597003Y449201D02*
G03*
X1597003Y449201I-2032J0D01*
G01*
X1633605Y373750D02*
G03*
X1633605Y373750I-2032J0D01*
G01*
X1650855Y415250D02*
G03*
X1650855Y415250I-2032J0D01*
G01*
X1695605Y366000D02*
G03*
X1695605Y366000I-2032J0D01*
G01*
X1688605Y373000D02*
G03*
X1688605Y373000I-2032J0D01*
G01*
X1697605Y392000D02*
G03*
X1697605Y392000I-2032J0D01*
G01*
X1695596Y412847D02*
G03*
X1695596Y412847I-2032J0D01*
G01*
X1689115Y416973D02*
G03*
X1689115Y416973I-2032J0D01*
G01*
X1688365Y409472D02*
G03*
X1688365Y409472I-2032J0D01*
G01*
X1714355Y647000D02*
G03*
X1714355Y647000I-2032J0D01*
G01*
X1680477Y629060D02*
G03*
X1680477Y629060I-2032J0D01*
G01*
X1716891Y258636D02*
G03*
X1716891Y258636I-2032J0D01*
G01*
X1720355Y241750D02*
G03*
X1720355Y241750I-2032J0D01*
G01*
X1701355Y244500D02*
G03*
X1701355Y244500I-2032J0D01*
G01*
X1662355Y256500D02*
G03*
X1662355Y256500I-2032J0D01*
G01*
X1832355Y176065D02*
G03*
X1832355Y176065I-2032J0D01*
G01*
X1761855Y844500D02*
G03*
X1761855Y844500I-2032J0D01*
G01*
X1772105Y844061D02*
G03*
X1772105Y844061I-2032J0D01*
G01*
X1787120Y239964D02*
G03*
X1787120Y239964I-2032J0D01*
G01*
X1719105Y333065D02*
G03*
X1719105Y333065I-2032J0D01*
G01*
X1598355Y521000D02*
G03*
X1598355Y521000I-2032J0D01*
G01*
X1597855Y749500D02*
G03*
X1597855Y749500I-2032J0D01*
G01*
X1582855Y727250D02*
G03*
X1582855Y727250I-2032J0D01*
G01*
X1661128Y706301D02*
G03*
X1661128Y706301I-2032J0D01*
G01*
X1624181Y813880D02*
G03*
X1624181Y813880I-2032J0D01*
G01*
X1582355Y670500D02*
G03*
X1582355Y670500I-2032J0D01*
G01*
X1695105Y906500D02*
G03*
X1695105Y906500I-2032J0D01*
G01*
X1653645Y898462D02*
G03*
X1653645Y898462I-2032J0D01*
G01*
X1654067Y906565D02*
G03*
X1654067Y906565I-2032J0D01*
G01*
X1659660Y892620D02*
G03*
X1659660Y892620I-2032J0D01*
G01*
X1798105Y763000D02*
G03*
X1798105Y763000I-2032J0D01*
G01*
X1799105Y797500D02*
G03*
X1799105Y797500I-2032J0D01*
G01*
X1625105Y613500D02*
G03*
X1625105Y613500I-2032J0D01*
G01*
X1630855Y619250D02*
G03*
X1630855Y619250I-2032J0D01*
G01*
X1599105Y614000D02*
G03*
X1599105Y614000I-2032J0D01*
G01*
X1632105Y640250D02*
G03*
X1632105Y640250I-2032J0D01*
G01*
X1630855Y476000D02*
G03*
X1630855Y476000I-2032J0D01*
G01*
X1615855Y863750D02*
G03*
X1615855Y863750I-2032J0D01*
G01*
X1621855Y868750D02*
G03*
X1621855Y868750I-2032J0D01*
G01*
X1772855Y759750D02*
G03*
X1772855Y759750I-2032J0D01*
G01*
X1789105Y764315D02*
G03*
X1789105Y764315I-2032J0D01*
G01*
X1757891Y233758D02*
G03*
X1757891Y233758I-2032J0D01*
G01*
X1791355Y233565D02*
G03*
X1791355Y233565I-2032J0D01*
G01*
X1565761Y801434D02*
G03*
X1565761Y801434I-2032J0D01*
G01*
X1625451Y453962D02*
G03*
X1625451Y453962I-2032J0D01*
G01*
X1712319Y553276D02*
G03*
X1712319Y553276I-2032J0D01*
G01*
X1721971Y549720D02*
G03*
X1721971Y549720I-2032J0D01*
G01*
X1706223Y611442D02*
G03*
X1706223Y611442I-2032J0D01*
G01*
X1689967Y542354D02*
G03*
X1689967Y542354I-2032J0D01*
G01*
X1678791Y542608D02*
G03*
X1678791Y542608I-2032J0D01*
G01*
X1791870Y901561D02*
G03*
X1791870Y901561I-2032J0D01*
G01*
X1820777Y882968D02*
G03*
X1820777Y882968I-2032J0D01*
G01*
X1556871Y769430D02*
G03*
X1556871Y769430I-2032J0D01*
G01*
X1559919Y822008D02*
G03*
X1559919Y822008I-2032J0D01*
G01*
X1690355Y352565D02*
G03*
X1690355Y352565I-2032J0D01*
G01*
X1689967Y558864D02*
G03*
X1689967Y558864I-2032J0D01*
G01*
X1816967Y808038D02*
G03*
X1816967Y808038I-2032J0D01*
G01*
X1571603Y524574D02*
G03*
X1571603Y524574I-2032J0D01*
G01*
X1595225Y495618D02*
G03*
X1595225Y495618I-2032J0D01*
G01*
X1583795Y489776D02*
G03*
X1583795Y489776I-2032J0D01*
G01*
X1657201Y653606D02*
G03*
X1657201Y653606I-2032J0D01*
G01*
X1671425Y647002D02*
G03*
X1671425Y647002I-2032J0D01*
G01*
X1544933Y858584D02*
G03*
X1544933Y858584I-2032J0D01*
G01*
X1528931Y740474D02*
G03*
X1528931Y740474I-2032J0D01*
G01*
X1527661Y658432D02*
G03*
X1527661Y658432I-2032J0D01*
G01*
X1540615Y742760D02*
G03*
X1540615Y742760I-2032J0D01*
G01*
X1556617Y607632D02*
G03*
X1556617Y607632I-2032J0D01*
G01*
X1548743Y620586D02*
G03*
X1548743Y620586I-2032J0D01*
G01*
X1530455Y581470D02*
G03*
X1530455Y581470I-2032J0D01*
G01*
X1548743D02*
G03*
X1548743Y581470I-2032J0D01*
G01*
X1839827Y709486D02*
G03*
X1839827Y709486I-2032J0D01*
G01*
X1827127Y710248D02*
G03*
X1827127Y710248I-2032J0D01*
G01*
X1857353Y737426D02*
G03*
X1857353Y737426I-2032J0D01*
G01*
X1839355Y695315D02*
G03*
X1839355Y695315I-2032J0D01*
G01*
X1710795Y869252D02*
G03*
X1710795Y869252I-2032J0D01*
G01*
X1585827Y334582D02*
G03*
X1585827Y334582I-2032J0D01*
G01*
Y394780D02*
G03*
X1585827Y394780I-2032J0D01*
G01*
X1696105Y743565D02*
G03*
X1696105Y743565I-2032J0D01*
G01*
X1653515Y291910D02*
G03*
X1653515Y291910I-2032J0D01*
G01*
X1643739Y420180D02*
G03*
X1643739Y420180I-2032J0D01*
G01*
X1754991Y638112D02*
G03*
X1754991Y638112I-2032J0D01*
G01*
X1624943Y385636D02*
G03*
X1624943Y385636I-2032J0D01*
G01*
X1626467Y355221D02*
G03*
X1626467Y355221I-2032J0D01*
G01*
X1625361Y347534D02*
G03*
X1625361Y347534I-2032J0D01*
G01*
X1626975Y378081D02*
G03*
X1626975Y378081I-2032J0D01*
G01*
X1626975Y831936D02*
G03*
X1626975Y831936I-2032J0D01*
G01*
X1731355Y835815D02*
G03*
X1731355Y835815I-2032J0D01*
G01*
X1506071Y256604D02*
G03*
X1506071Y256604I-2032J0D01*
G01*
X1524613D02*
G03*
X1524613Y256604I-2032J0D01*
G01*
X1731115Y290386D02*
G03*
X1731115Y290386I-2032J0D01*
G01*
X1731369Y299022D02*
G03*
X1731369Y299022I-2032J0D01*
G01*
X1798171Y227459D02*
G03*
X1798171Y227459I-2032J0D01*
G01*
X1585827Y292164D02*
G03*
X1585827Y292164I-2032J0D01*
G01*
X1579223Y256604D02*
G03*
X1579223Y256604I-2032J0D01*
G01*
X1585827Y263716D02*
G03*
X1585827Y263716I-2032J0D01*
G01*
X1612243Y263970D02*
G03*
X1612243Y263970I-2032J0D01*
G01*
X1585827Y364808D02*
G03*
X1585827Y364808I-2032J0D01*
G01*
X1578969Y906336D02*
G03*
X1578969Y906336I-2032J0D01*
G01*
X1750855Y566992D02*
G03*
X1750855Y566992I-2032J0D01*
G01*
X1681355Y264000D02*
G03*
X1681355Y264000I-2032J0D01*
G01*
X1574105Y581315D02*
G03*
X1574105Y581315I-2032J0D01*
G01*
X1599105Y624250D02*
G03*
X1599105Y624250I-2032J0D01*
G01*
X1523855Y183500D02*
G03*
X1523855Y183500I-2032J0D01*
G01*
X1568105Y646250D02*
G03*
X1568105Y646250I-2032J0D01*
G01*
X1773105Y413000D02*
G03*
X1773105Y413000I-2032J0D01*
G01*
X1769855Y374750D02*
G03*
X1769855Y374750I-2032J0D01*
G01*
X1633325Y383096D02*
G03*
X1633325Y383096I-2032J0D01*
G01*
X1597105Y431250D02*
G03*
X1597105Y431250I-2032J0D01*
G01*
X1836105Y599250D02*
G03*
X1836105Y599250I-2032J0D01*
G01*
X1859355Y249750D02*
G03*
X1859355Y249750I-2032J0D01*
G01*
X1859411Y214944D02*
G03*
X1859411Y214944I-2032J0D01*
G01*
X1727605Y394000D02*
G03*
X1727605Y394000I-2032J0D01*
G01*
Y404500D02*
G03*
X1727605Y404500I-2032J0D01*
G01*
X1727855Y377250D02*
G03*
X1727855Y377250I-2032J0D01*
G01*
X1674855Y320000D02*
G03*
X1674855Y320000I-2032J0D01*
G01*
X1544855Y826250D02*
G03*
X1544855Y826250I-2032J0D01*
G01*
X1805355Y529815D02*
G03*
X1805355Y529815I-2032J0D01*
G01*
X1855123Y626048D02*
G03*
X1855123Y626048I-2032J0D01*
G01*
X1736605Y880815D02*
G03*
X1736605Y880815I-2032J0D01*
G01*
X1768855Y880565D02*
G03*
X1768855Y880565I-2032J0D01*
G01*
X1761855Y876815D02*
G03*
X1761855Y876815I-2032J0D01*
G01*
X1732105Y903315D02*
G03*
X1732105Y903315I-2032J0D01*
G01*
X1525105Y622565D02*
G03*
X1525105Y622565I-2032J0D01*
G01*
X1624605Y394565D02*
G03*
X1624605Y394565I-2032J0D01*
G01*
X1718855Y324815D02*
G03*
X1718855Y324815I-2032J0D01*
G01*
X1744855Y238000D02*
G03*
X1744855Y238000I-2032J0D01*
G01*
X1827661Y666509D02*
G03*
X1827661Y666509I-2032J0D01*
G01*
X1620855Y836815D02*
G03*
X1620855Y836815I-2032J0D01*
G01*
X1729855Y817065D02*
G03*
X1729855Y817065I-2032J0D01*
G01*
X1695855Y822565D02*
G03*
X1695855Y822565I-2032J0D01*
G01*
X1689855Y809815D02*
G03*
X1689855Y809815I-2032J0D01*
G01*
X1781433Y587737D02*
G03*
X1781433Y587737I-2032J0D01*
G01*
X1797355Y586315D02*
G03*
X1797355Y586315I-2032J0D01*
G01*
X1818855Y626815D02*
G03*
X1818855Y626815I-2032J0D01*
G01*
X1757811Y364860D02*
G03*
X1757811Y364860I-2032J0D01*
G01*
X1764355Y413315D02*
G03*
X1764355Y413315I-2032J0D01*
G01*
X1788355Y524065D02*
G03*
X1788355Y524065I-2032J0D01*
G01*
X1620105Y676565D02*
G03*
X1620105Y676565I-2032J0D01*
G01*
X1577855Y633315D02*
G03*
X1577855Y633315I-2032J0D01*
G01*
X1685903Y905639D02*
G03*
X1685903Y905639I-2032J0D01*
G01*
X1624605Y481315D02*
G03*
X1624605Y481315I-2032J0D01*
G01*
X1624689Y489333D02*
G03*
X1624689Y489333I-2032J0D01*
G01*
X1658855Y540815D02*
G03*
X1658855Y540815I-2032J0D01*
G01*
X1762357Y600331D02*
G03*
X1762357Y600331I-2032J0D01*
G01*
X1761087Y608459D02*
G03*
X1761087Y608459I-2032J0D01*
G01*
X1620625Y652655D02*
G03*
X1620625Y652655I-2032J0D01*
G01*
X1585605Y538315D02*
G03*
X1585605Y538315I-2032J0D01*
G01*
X1672187Y843155D02*
G03*
X1672187Y843155I-2032J0D01*
G01*
X1759309Y817247D02*
G03*
X1759309Y817247I-2032J0D01*
G01*
X1757531Y624461D02*
G03*
X1757531Y624461I-2032J0D01*
G01*
X1597003Y645035D02*
G03*
X1597003Y645035I-2032J0D01*
G01*
X1534011Y669673D02*
G03*
X1534011Y669673I-2032J0D01*
G01*
X1749175Y438520D02*
G03*
X1749175Y438520I-2032J0D01*
G01*
X1540635Y702714D02*
G03*
X1540635Y702714I-2032J0D01*
G01*
X1514473Y704746D02*
G03*
X1514473Y704746I-2032J0D01*
G01*
X1546605Y834065D02*
G03*
X1546605Y834065I-2032J0D01*
G01*
X1809105Y710250D02*
G03*
X1809105Y710250I-2032J0D01*
G01*
X1533783Y908928D02*
G03*
X1533783Y908928I-2032J0D01*
G01*
X1829947Y908674D02*
G03*
X1829947Y908674I-2032J0D01*
G01*
X1637377Y761052D02*
G03*
X1637377Y761052I-2032J0D01*
G01*
X1801473Y667387D02*
G03*
X1801473Y667387I-2032J0D01*
G01*
X1768733Y605652D02*
G03*
X1768733Y605652I-2032J0D01*
G01*
X1731903Y629528D02*
G03*
X1731903Y629528I-2032J0D01*
G01*
X1506325Y172120D02*
G03*
X1506325Y172120I-2032J0D01*
G01*
X1659405Y596450D02*
G03*
X1659405Y596450I-2032J0D01*
G01*
X1566905Y766450D02*
G03*
X1566905Y766450I-2032J0D01*
G01*
X1571905Y756700D02*
G03*
X1571905Y756700I-2032J0D01*
G01*
X1805309Y497448D02*
G03*
X1805309Y497448I-2032J0D01*
G01*
X1745855Y427565D02*
G03*
X1745855Y427565I-2032J0D01*
G01*
X1577725Y843650D02*
G03*
X1577725Y843650I-2032J0D01*
G01*
X1863855Y588315D02*
G03*
X1863855Y588315I-2032J0D01*
G01*
X1842105Y581315D02*
G03*
X1842105Y581315I-2032J0D01*
G01*
X1860655Y840869D02*
G03*
X1860655Y840869I-2032J0D01*
G01*
X1759105Y912315D02*
G03*
X1759105Y912315I-2032J0D01*
G01*
X1621605Y927315D02*
G03*
X1621605Y927315I-2032J0D01*
G01*
X1719105Y156565D02*
G03*
X1719105Y156565I-2032J0D01*
G01*
X1708255Y205361D02*
G03*
X1708255Y205361I-2032J0D01*
G01*
X1850605Y140065D02*
G03*
X1850605Y140065I-2032J0D01*
G01*
X1695855Y861565D02*
G03*
X1695855Y861565I-2032J0D01*
G01*
X1743355Y877065D02*
G03*
X1743355Y877065I-2032J0D01*
G01*
X1710355Y763065D02*
G03*
X1710355Y763065I-2032J0D01*
G01*
X1729855Y762315D02*
G03*
X1729855Y762315I-2032J0D01*
G01*
X1634105Y736250D02*
G03*
X1634105Y736250I-2032J0D01*
G01*
X1550605Y866065D02*
G03*
X1550605Y866065I-2032J0D01*
G01*
X1642355Y726000D02*
G03*
X1642355Y726000I-2032J0D01*
G01*
X1731605Y171315D02*
G03*
X1731605Y171315I-2032J0D01*
G01*
X1863605Y180315D02*
G03*
X1863605Y180315I-2032J0D01*
G01*
X1626127Y763052D02*
G03*
X1626127Y763052I-2032J0D01*
G01*
X1780605Y912565D02*
G03*
X1780605Y912565I-2032J0D01*
G01*
X1675769Y932296D02*
G03*
X1675769Y932296I-2032J0D01*
G01*
X1761855Y163315D02*
G03*
X1761855Y163315I-2032J0D01*
G01*
X1825883Y582030D02*
G03*
X1825883Y582030I-2032J0D01*
G01*
X1578487Y652896D02*
G03*
X1578487Y652896I-2032J0D01*
G01*
X1818771Y171820D02*
G03*
X1818771Y171820I-2032J0D01*
G01*
X1815215Y179186D02*
G03*
X1815215Y179186I-2032J0D01*
G01*
X1792609Y215000D02*
G03*
X1792609Y215000I-2032J0D01*
G01*
X1649073Y920814D02*
G03*
X1649073Y920814I-2032J0D01*
G01*
X1742855Y925065D02*
G03*
X1742855Y925065I-2032J0D01*
G01*
X1548148Y643206D02*
G03*
X1548148Y643206I-2032J0D01*
G01*
X1598605Y551315D02*
G03*
X1598605Y551315I-2032J0D01*
G01*
X1561697Y581281D02*
G03*
X1561697Y581281I-2032J0D01*
G01*
X1540107Y581470D02*
G03*
X1540107Y581470I-2032J0D01*
G01*
X1597257Y635129D02*
G03*
X1597257Y635129I-2032J0D01*
G01*
X1662105Y605000D02*
G03*
X1662105Y605000I-2032J0D01*
G01*
X1678855Y732315D02*
G03*
X1678855Y732315I-2032J0D01*
G01*
X1732605Y738250D02*
G03*
X1732605Y738250I-2032J0D01*
G01*
X1626355Y671065D02*
G03*
X1626355Y671065I-2032J0D01*
G01*
X1777597Y670435D02*
G03*
X1777597Y670435I-2032J0D01*
G01*
X1783355Y654315D02*
G03*
X1783355Y654315I-2032J0D01*
G01*
X1777605Y877065D02*
G03*
X1777605Y877065I-2032J0D01*
G01*
X1696105Y843315D02*
G03*
X1696105Y843315I-2032J0D01*
G01*
X1558855Y880315D02*
G03*
X1558855Y880315I-2032J0D01*
G01*
X1771605Y727065D02*
G03*
X1771605Y727065I-2032J0D01*
G01*
X1730605Y134565D02*
G03*
X1730605Y134565I-2032J0D01*
G01*
X1828397Y833757D02*
G03*
X1828397Y833757I-2032J0D01*
G01*
X1740259Y904623D02*
G03*
X1740259Y904623I-2032J0D01*
G01*
X1727355Y691565D02*
G03*
X1727355Y691565I-2032J0D01*
G01*
X1624435Y531243D02*
G03*
X1624435Y531243I-2032J0D01*
G01*
X1591669Y461647D02*
G03*
X1591669Y461647I-2032J0D01*
G01*
X1624943Y550293D02*
G03*
X1624943Y550293I-2032J0D01*
G01*
X1718923Y666625D02*
G03*
X1718923Y666625I-2032J0D01*
G01*
X1729845Y442851D02*
G03*
X1729845Y442851I-2032J0D01*
G01*
X1838303Y241429D02*
G03*
X1838303Y241429I-2032J0D01*
G01*
X1849479Y249811D02*
G03*
X1849479Y249811I-2032J0D01*
G01*
X1849733Y221617D02*
G03*
X1849733Y221617I-2032J0D01*
G01*
X1563905Y896700D02*
G03*
X1563905Y896700I-2032J0D01*
G01*
X1533855Y878065D02*
G03*
X1533855Y878065I-2032J0D01*
G01*
X1716855Y724815D02*
G03*
X1716855Y724815I-2032J0D01*
G01*
X1710605Y894315D02*
G03*
X1710605Y894315I-2032J0D01*
G01*
X1772105Y782815D02*
G03*
X1772105Y782815I-2032J0D01*
G01*
X1774105Y797315D02*
G03*
X1774105Y797315I-2032J0D01*
G01*
X1636605Y614250D02*
G03*
X1636605Y614250I-2032J0D01*
G01*
X1778855Y428315D02*
G03*
X1778855Y428315I-2032J0D01*
G01*
X1624855Y596565D02*
G03*
X1624855Y596565I-2032J0D01*
G01*
X1585605Y410065D02*
G03*
X1585605Y410065I-2032J0D01*
G01*
X1795105Y624065D02*
G03*
X1795105Y624065I-2032J0D01*
G01*
X1812855Y838065D02*
G03*
X1812855Y838065I-2032J0D01*
G01*
X1863855Y188815D02*
G03*
X1863855Y188815I-2032J0D01*
G01*
X1580105Y862815D02*
G03*
X1580105Y862815I-2032J0D01*
G01*
X1548355Y843565D02*
G03*
X1548355Y843565I-2032J0D01*
G01*
X1739105Y745565D02*
G03*
X1739105Y745565I-2032J0D01*
G01*
X1797355Y608565D02*
G03*
X1797355Y608565I-2032J0D01*
G01*
X1584359Y703302D02*
G03*
X1584359Y703302I-2032J0D01*
G01*
X1580105Y691315D02*
G03*
X1580105Y691315I-2032J0D01*
G01*
X1599355Y575065D02*
G03*
X1599355Y575065I-2032J0D01*
G01*
X1727855Y385815D02*
G03*
X1727855Y385815I-2032J0D01*
G01*
X1793855Y141315D02*
G03*
X1793855Y141315I-2032J0D01*
G01*
X1807355Y134315D02*
G03*
X1807355Y134315I-2032J0D01*
G01*
X1717855Y205065D02*
G03*
X1717855Y205065I-2032J0D01*
G01*
X1679605Y466565D02*
G03*
X1679605Y466565I-2032J0D01*
G01*
X1672105Y851065D02*
G03*
X1672105Y851065I-2032J0D01*
G01*
X1659355Y919250D02*
G03*
X1659355Y919250I-2032J0D01*
G01*
X1791355Y185815D02*
G03*
X1791355Y185815I-2032J0D01*
G01*
X1786855Y193315D02*
G03*
X1786855Y193315I-2032J0D01*
G01*
X1585605Y561815D02*
G03*
X1585605Y561815I-2032J0D01*
G01*
X1501105Y842565D02*
G03*
X1501105Y842565I-2032J0D01*
G01*
X1755245Y810578D02*
G03*
X1755245Y810578I-2032J0D01*
G01*
X1750855Y617065D02*
G03*
X1750855Y617065I-2032J0D01*
G01*
X1731369Y592138D02*
G03*
X1731369Y592138I-2032J0D01*
G01*
X1702105Y762565D02*
G03*
X1702105Y762565I-2032J0D01*
G01*
X1836855Y827065D02*
G03*
X1836855Y827065I-2032J0D01*
G01*
X1857605Y772065D02*
G03*
X1857605Y772065I-2032J0D01*
G01*
X1858105Y809315D02*
G03*
X1858105Y809315I-2032J0D01*
G01*
X1857855Y790565D02*
G03*
X1857855Y790565I-2032J0D01*
G01*
X1809355Y830565D02*
G03*
X1809355Y830565I-2032J0D01*
G01*
X1724855Y356565D02*
G03*
X1724855Y356565I-2032J0D01*
G01*
X1719605Y362065D02*
G03*
X1719605Y362065I-2032J0D01*
G01*
X1745855Y317815D02*
G03*
X1745855Y317815I-2032J0D01*
G01*
X1561189Y516511D02*
G03*
X1561189Y516511I-2032J0D01*
G01*
X1567855Y486065D02*
G03*
X1567855Y486065I-2032J0D01*
G01*
X1608105Y318815D02*
G03*
X1608105Y318815I-2032J0D01*
G01*
X1525605Y870565D02*
G03*
X1525605Y870565I-2032J0D01*
G01*
X1844355Y183065D02*
G03*
X1844355Y183065I-2032J0D01*
G01*
X1599939Y843150D02*
G03*
X1599939Y843150I-2032J0D01*
G01*
X1820269Y243969D02*
G03*
X1820269Y243969I-2032J0D01*
G01*
X1826873Y248033D02*
G03*
X1826873Y248033I-2032J0D01*
G01*
X1784971Y152200D02*
G03*
X1784971Y152200I-2032J0D01*
G01*
X1576449Y880852D02*
G03*
X1576449Y880852I-2032J0D01*
G01*
X1778855Y438750D02*
G03*
X1778855Y438750I-2032J0D01*
G01*
X1678355Y495750D02*
G03*
X1678355Y495750I-2032J0D01*
G01*
X1670605Y467500D02*
G03*
X1670605Y467500I-2032J0D01*
G01*
X1665355Y473500D02*
G03*
X1665355Y473500I-2032J0D01*
G01*
X1755105Y654250D02*
G03*
X1755105Y654250I-2032J0D01*
G01*
X1757023Y473012D02*
G03*
X1757023Y473012I-2032J0D01*
G01*
X1658855Y549250D02*
G03*
X1658855Y549250I-2032J0D01*
G01*
X1842855Y821250D02*
G03*
X1842855Y821250I-2032J0D01*
G01*
X1707105Y293000D02*
G03*
X1707105Y293000I-2032J0D01*
G01*
X1633071Y318326D02*
G03*
X1633071Y318326I-2032J0D01*
G01*
X1685903Y224854D02*
G03*
X1685903Y224854I-2032J0D01*
G01*
X1792075Y856044D02*
G03*
X1792075Y856044I-2032J0D01*
G01*
X1687855Y495565D02*
G03*
X1687855Y495565I-2032J0D01*
G01*
X1682605Y502750D02*
G03*
X1682605Y502750I-2032J0D01*
G01*
X1689967Y513652D02*
G03*
X1689967Y513652I-2032J0D01*
G01*
X1681440Y512999D02*
G03*
X1681440Y512999I-2032J0D01*
G01*
X1674727Y508826D02*
G03*
X1674727Y508826I-2032J0D01*
G01*
Y560134D02*
G03*
X1674727Y560134I-2032J0D01*
G01*
Y607886D02*
G03*
X1674727Y607886I-2032J0D01*
G01*
X1682377Y638970D02*
G03*
X1682377Y638970I-2032J0D01*
G01*
X1657855Y669565D02*
G03*
X1657855Y669565I-2032J0D01*
G01*
X1704445Y666306D02*
G03*
X1704445Y666306I-2032J0D01*
G01*
X1682855Y678752D02*
G03*
X1682855Y678752I-2032J0D01*
G01*
X1721209Y658940D02*
G03*
X1721209Y658940I-2032J0D01*
G01*
X1738735Y452946D02*
G03*
X1738735Y452946I-2032J0D01*
G01*
X1766167Y473774D02*
G03*
X1766167Y473774I-2032J0D01*
G01*
X1774295D02*
G03*
X1774295Y473774I-2032J0D01*
G01*
X1751181Y484950D02*
G03*
X1751181Y484950I-2032J0D01*
G01*
X1533249Y722948D02*
G03*
X1533249Y722948I-2032J0D01*
G01*
X1547473Y693992D02*
G03*
X1547473Y693992I-2032J0D01*
G01*
X1563475Y693484D02*
G03*
X1563475Y693484I-2032J0D01*
G01*
X1572619Y687642D02*
G03*
X1572619Y687642I-2032J0D01*
G01*
X1650089Y913194D02*
G03*
X1650089Y913194I-2032J0D01*
G01*
X1540498Y687760D02*
G03*
X1540498Y687760I-2032J0D01*
G01*
X1697605Y266000D02*
G03*
X1697605Y266000I-2032J0D01*
G01*
X1699365Y483934D02*
G03*
X1699365Y483934I-2032J0D01*
G01*
X1690475Y472250D02*
G03*
X1690475Y472250I-2032J0D01*
G01*
X1684887Y477838D02*
G03*
X1684887Y477838I-2032J0D01*
G01*
X210282Y1040000D02*
G03*
X210282Y1040000I-2032J0D01*
G01*
X307782Y1026500D02*
G03*
X307782Y1026500I-2032J0D01*
G01*
X210036Y1066247D02*
G03*
X210036Y1066247I-2032J0D01*
G01*
X237782Y1073750D02*
G03*
X237782Y1073750I-2032J0D01*
G01*
X268532Y1040500D02*
G03*
X268532Y1040500I-2032J0D01*
G01*
X264781Y1023750D02*
G03*
X264781Y1023750I-2032J0D01*
G01*
X249032Y1017750D02*
G03*
X249032Y1017750I-2032J0D01*
G01*
X374032Y1076000D02*
G03*
X374032Y1076000I-2032J0D01*
G01*
X313032Y1070250D02*
G03*
X313032Y1070250I-2032J0D01*
G01*
X278532Y1050000D02*
G03*
X278532Y1050000I-2032J0D01*
G01*
X178282Y1057500D02*
G03*
X178282Y1057500I-2032J0D01*
G01*
X458031Y1047000D02*
G03*
X458031Y1047000I-2032J0D01*
G01*
X194032Y1072500D02*
G03*
X194032Y1072500I-2032J0D01*
G01*
X224282Y1041000D02*
G03*
X224282Y1041000I-2032J0D01*
G01*
X230032Y1047250D02*
G03*
X230032Y1047250I-2032J0D01*
G01*
X226282Y1027250D02*
G03*
X226282Y1027250I-2032J0D01*
G01*
X158781Y1019500D02*
G03*
X158781Y1019500I-2032J0D01*
G01*
X194531Y1027250D02*
G03*
X194531Y1027250I-2032J0D01*
G01*
X485030Y1013501D02*
G03*
X485030Y1013501I-2032J0D01*
G01*
X469782Y1029500D02*
G03*
X469782Y1029500I-2032J0D01*
G01*
X432281Y1064250D02*
G03*
X432281Y1064250I-2032J0D01*
G01*
X477281Y1013750D02*
G03*
X477281Y1013750I-2032J0D01*
G01*
X452031Y1033250D02*
G03*
X452031Y1033250I-2032J0D01*
G01*
X216532Y1027000D02*
G03*
X216532Y1027000I-2032J0D01*
G01*
X414782Y1029750D02*
G03*
X414782Y1029750I-2032J0D01*
G01*
X406796Y1029745D02*
G03*
X406796Y1029745I-2032J0D01*
G01*
X401532Y1096750D02*
G03*
X401532Y1096750I-2032J0D01*
G01*
X488929Y1043253D02*
G03*
X488929Y1043253I-2032J0D01*
G01*
X444297Y1032495D02*
G03*
X444297Y1032495I-2032J0D01*
G01*
X447781Y1078750D02*
G03*
X447781Y1078750I-2032J0D01*
G01*
X398782Y1047750D02*
G03*
X398782Y1047750I-2032J0D01*
G01*
X358834Y1112120D02*
G03*
X358834Y1112120I-2032J0D01*
G01*
X232032Y1099450D02*
G03*
X232032Y1099450I-2032J0D01*
G01*
X368282Y1014500D02*
G03*
X368282Y1014500I-2032J0D01*
G01*
X337782Y1015000D02*
G03*
X337782Y1015000I-2032J0D01*
G01*
X418032Y1064250D02*
G03*
X418032Y1064250I-2032J0D01*
G01*
X344282Y1028000D02*
G03*
X344282Y1028000I-2032J0D01*
G01*
X357782Y1056750D02*
G03*
X357782Y1056750I-2032J0D01*
G01*
X364032Y1038250D02*
G03*
X364032Y1038250I-2032J0D01*
G01*
X145782Y1043250D02*
G03*
X145782Y1043250I-2032J0D01*
G01*
X136782Y1014500D02*
G03*
X136782Y1014500I-2032J0D01*
G01*
X209782Y1096250D02*
G03*
X209782Y1096250I-2032J0D01*
G01*
X424282Y1094000D02*
G03*
X424282Y1094000I-2032J0D01*
G01*
X171282Y1068000D02*
G03*
X171282Y1068000I-2032J0D01*
G01*
X359282Y1102250D02*
G03*
X359282Y1102250I-2032J0D01*
G01*
X443282Y1013500D02*
G03*
X443282Y1013500I-2032J0D01*
G01*
X272532Y1101500D02*
G03*
X272532Y1101500I-2032J0D01*
G01*
X283282Y1103250D02*
G03*
X283282Y1103250I-2032J0D01*
G01*
X278039Y1109249D02*
G03*
X278039Y1109249I-2032J0D01*
G01*
X263539Y1102249D02*
G03*
X263539Y1102249I-2032J0D01*
G01*
X262532Y1110500D02*
G03*
X262532Y1110500I-2032J0D01*
G01*
X306782Y1038250D02*
G03*
X306782Y1038250I-2032J0D01*
G01*
X665281Y1040000D02*
G03*
X665281Y1040000I-2032J0D01*
G01*
X762781Y1026500D02*
G03*
X762781Y1026500I-2032J0D01*
G01*
X665035Y1066247D02*
G03*
X665035Y1066247I-2032J0D01*
G01*
X692781Y1073750D02*
G03*
X692781Y1073750I-2032J0D01*
G01*
X723531Y1040500D02*
G03*
X723531Y1040500I-2032J0D01*
G01*
X719780Y1023750D02*
G03*
X719780Y1023750I-2032J0D01*
G01*
X704031Y1017750D02*
G03*
X704031Y1017750I-2032J0D01*
G01*
X829031Y1076000D02*
G03*
X829031Y1076000I-2032J0D01*
G01*
X768031Y1070250D02*
G03*
X768031Y1070250I-2032J0D01*
G01*
X733531Y1050000D02*
G03*
X733531Y1050000I-2032J0D01*
G01*
X633281Y1057500D02*
G03*
X633281Y1057500I-2032J0D01*
G01*
X913030Y1047000D02*
G03*
X913030Y1047000I-2032J0D01*
G01*
X649031Y1072500D02*
G03*
X649031Y1072500I-2032J0D01*
G01*
X679281Y1041000D02*
G03*
X679281Y1041000I-2032J0D01*
G01*
X685031Y1047250D02*
G03*
X685031Y1047250I-2032J0D01*
G01*
X681281Y1027250D02*
G03*
X681281Y1027250I-2032J0D01*
G01*
X613780Y1019500D02*
G03*
X613780Y1019500I-2032J0D01*
G01*
X649530Y1027250D02*
G03*
X649530Y1027250I-2032J0D01*
G01*
X940029Y1013501D02*
G03*
X940029Y1013501I-2032J0D01*
G01*
X924781Y1029500D02*
G03*
X924781Y1029500I-2032J0D01*
G01*
X887280Y1064250D02*
G03*
X887280Y1064250I-2032J0D01*
G01*
X932280Y1013750D02*
G03*
X932280Y1013750I-2032J0D01*
G01*
X907030Y1033250D02*
G03*
X907030Y1033250I-2032J0D01*
G01*
X671531Y1027000D02*
G03*
X671531Y1027000I-2032J0D01*
G01*
X869781Y1029750D02*
G03*
X869781Y1029750I-2032J0D01*
G01*
X861795Y1029745D02*
G03*
X861795Y1029745I-2032J0D01*
G01*
X856531Y1096750D02*
G03*
X856531Y1096750I-2032J0D01*
G01*
X943928Y1043253D02*
G03*
X943928Y1043253I-2032J0D01*
G01*
X899297Y1032495D02*
G03*
X899297Y1032495I-2032J0D01*
G01*
X902780Y1078750D02*
G03*
X902780Y1078750I-2032J0D01*
G01*
X853781Y1047750D02*
G03*
X853781Y1047750I-2032J0D01*
G01*
X813833Y1112120D02*
G03*
X813833Y1112120I-2032J0D01*
G01*
X687031Y1099450D02*
G03*
X687031Y1099450I-2032J0D01*
G01*
X823281Y1014500D02*
G03*
X823281Y1014500I-2032J0D01*
G01*
X792781Y1015000D02*
G03*
X792781Y1015000I-2032J0D01*
G01*
X873031Y1064250D02*
G03*
X873031Y1064250I-2032J0D01*
G01*
X799281Y1028000D02*
G03*
X799281Y1028000I-2032J0D01*
G01*
X812781Y1056750D02*
G03*
X812781Y1056750I-2032J0D01*
G01*
X819031Y1038250D02*
G03*
X819031Y1038250I-2032J0D01*
G01*
X600781Y1043250D02*
G03*
X600781Y1043250I-2032J0D01*
G01*
X591781Y1014500D02*
G03*
X591781Y1014500I-2032J0D01*
G01*
X664781Y1096250D02*
G03*
X664781Y1096250I-2032J0D01*
G01*
X879281Y1094000D02*
G03*
X879281Y1094000I-2032J0D01*
G01*
X626281Y1068000D02*
G03*
X626281Y1068000I-2032J0D01*
G01*
X814281Y1102250D02*
G03*
X814281Y1102250I-2032J0D01*
G01*
X898281Y1013500D02*
G03*
X898281Y1013500I-2032J0D01*
G01*
X727531Y1101500D02*
G03*
X727531Y1101500I-2032J0D01*
G01*
X738281Y1103250D02*
G03*
X738281Y1103250I-2032J0D01*
G01*
X733039Y1109249D02*
G03*
X733039Y1109249I-2032J0D01*
G01*
X718538Y1102249D02*
G03*
X718538Y1102249I-2032J0D01*
G01*
X717531Y1110500D02*
G03*
X717531Y1110500I-2032J0D01*
G01*
X761781Y1038250D02*
G03*
X761781Y1038250I-2032J0D01*
G01*
X1120280Y1040000D02*
G03*
X1120280Y1040000I-2032J0D01*
G01*
X1217780Y1026500D02*
G03*
X1217780Y1026500I-2032J0D01*
G01*
X1120034Y1066247D02*
G03*
X1120034Y1066247I-2032J0D01*
G01*
X1147780Y1073750D02*
G03*
X1147780Y1073750I-2032J0D01*
G01*
X1178530Y1040500D02*
G03*
X1178530Y1040500I-2032J0D01*
G01*
X1174780Y1023750D02*
G03*
X1174780Y1023750I-2032J0D01*
G01*
X1159030Y1017750D02*
G03*
X1159030Y1017750I-2032J0D01*
G01*
X1284030Y1076000D02*
G03*
X1284030Y1076000I-2032J0D01*
G01*
X1223030Y1070250D02*
G03*
X1223030Y1070250I-2032J0D01*
G01*
X1188530Y1050000D02*
G03*
X1188530Y1050000I-2032J0D01*
G01*
X1088280Y1057500D02*
G03*
X1088280Y1057500I-2032J0D01*
G01*
X1368030Y1047000D02*
G03*
X1368030Y1047000I-2032J0D01*
G01*
X1104030Y1072500D02*
G03*
X1104030Y1072500I-2032J0D01*
G01*
X1134280Y1041000D02*
G03*
X1134280Y1041000I-2032J0D01*
G01*
X1140030Y1047250D02*
G03*
X1140030Y1047250I-2032J0D01*
G01*
X1136280Y1027250D02*
G03*
X1136280Y1027250I-2032J0D01*
G01*
X1068780Y1019500D02*
G03*
X1068780Y1019500I-2032J0D01*
G01*
X1104530Y1027250D02*
G03*
X1104530Y1027250I-2032J0D01*
G01*
X1395029Y1013501D02*
G03*
X1395029Y1013501I-2032J0D01*
G01*
X1379780Y1029500D02*
G03*
X1379780Y1029500I-2032J0D01*
G01*
X1342280Y1064250D02*
G03*
X1342280Y1064250I-2032J0D01*
G01*
X1387280Y1013750D02*
G03*
X1387280Y1013750I-2032J0D01*
G01*
X1362030Y1033250D02*
G03*
X1362030Y1033250I-2032J0D01*
G01*
X1126530Y1027000D02*
G03*
X1126530Y1027000I-2032J0D01*
G01*
X1324780Y1029750D02*
G03*
X1324780Y1029750I-2032J0D01*
G01*
X1316794Y1029745D02*
G03*
X1316794Y1029745I-2032J0D01*
G01*
X1311530Y1096750D02*
G03*
X1311530Y1096750I-2032J0D01*
G01*
X1398927Y1043253D02*
G03*
X1398927Y1043253I-2032J0D01*
G01*
X1354296Y1032495D02*
G03*
X1354296Y1032495I-2032J0D01*
G01*
X1357780Y1078750D02*
G03*
X1357780Y1078750I-2032J0D01*
G01*
X1308780Y1047750D02*
G03*
X1308780Y1047750I-2032J0D01*
G01*
X1268832Y1112120D02*
G03*
X1268832Y1112120I-2032J0D01*
G01*
X1142030Y1099450D02*
G03*
X1142030Y1099450I-2032J0D01*
G01*
X1278280Y1014500D02*
G03*
X1278280Y1014500I-2032J0D01*
G01*
X1247780Y1015000D02*
G03*
X1247780Y1015000I-2032J0D01*
G01*
X1328030Y1064250D02*
G03*
X1328030Y1064250I-2032J0D01*
G01*
X1254280Y1028000D02*
G03*
X1254280Y1028000I-2032J0D01*
G01*
X1267780Y1056750D02*
G03*
X1267780Y1056750I-2032J0D01*
G01*
X1274030Y1038250D02*
G03*
X1274030Y1038250I-2032J0D01*
G01*
X1055780Y1043250D02*
G03*
X1055780Y1043250I-2032J0D01*
G01*
X1046780Y1014500D02*
G03*
X1046780Y1014500I-2032J0D01*
G01*
X1119780Y1096250D02*
G03*
X1119780Y1096250I-2032J0D01*
G01*
X1334280Y1094000D02*
G03*
X1334280Y1094000I-2032J0D01*
G01*
X1081280Y1068000D02*
G03*
X1081280Y1068000I-2032J0D01*
G01*
X1269280Y1102250D02*
G03*
X1269280Y1102250I-2032J0D01*
G01*
X1353280Y1013500D02*
G03*
X1353280Y1013500I-2032J0D01*
G01*
X1182530Y1101500D02*
G03*
X1182530Y1101500I-2032J0D01*
G01*
X1193280Y1103250D02*
G03*
X1193280Y1103250I-2032J0D01*
G01*
X1188038Y1109249D02*
G03*
X1188038Y1109249I-2032J0D01*
G01*
X1173537Y1102249D02*
G03*
X1173537Y1102249I-2032J0D01*
G01*
X1172530Y1110500D02*
G03*
X1172530Y1110500I-2032J0D01*
G01*
X1216780Y1038250D02*
G03*
X1216780Y1038250I-2032J0D01*
G01*
X1575280Y1040000D02*
G03*
X1575280Y1040000I-2032J0D01*
G01*
X1672780Y1026500D02*
G03*
X1672780Y1026500I-2032J0D01*
G01*
X1575034Y1066247D02*
G03*
X1575034Y1066247I-2032J0D01*
G01*
X1602780Y1073750D02*
G03*
X1602780Y1073750I-2032J0D01*
G01*
X1633530Y1040500D02*
G03*
X1633530Y1040500I-2032J0D01*
G01*
X1629779Y1023750D02*
G03*
X1629779Y1023750I-2032J0D01*
G01*
X1614030Y1017750D02*
G03*
X1614030Y1017750I-2032J0D01*
G01*
X1739030Y1076000D02*
G03*
X1739030Y1076000I-2032J0D01*
G01*
X1678030Y1070250D02*
G03*
X1678030Y1070250I-2032J0D01*
G01*
X1643530Y1050000D02*
G03*
X1643530Y1050000I-2032J0D01*
G01*
X1543280Y1057500D02*
G03*
X1543280Y1057500I-2032J0D01*
G01*
X1823029Y1047000D02*
G03*
X1823029Y1047000I-2032J0D01*
G01*
X1559030Y1072500D02*
G03*
X1559030Y1072500I-2032J0D01*
G01*
X1589280Y1041000D02*
G03*
X1589280Y1041000I-2032J0D01*
G01*
X1595030Y1047250D02*
G03*
X1595030Y1047250I-2032J0D01*
G01*
X1591280Y1027250D02*
G03*
X1591280Y1027250I-2032J0D01*
G01*
X1523779Y1019500D02*
G03*
X1523779Y1019500I-2032J0D01*
G01*
X1559529Y1027250D02*
G03*
X1559529Y1027250I-2032J0D01*
G01*
X1850028Y1013501D02*
G03*
X1850028Y1013501I-2032J0D01*
G01*
X1834780Y1029500D02*
G03*
X1834780Y1029500I-2032J0D01*
G01*
X1797279Y1064250D02*
G03*
X1797279Y1064250I-2032J0D01*
G01*
X1842279Y1013750D02*
G03*
X1842279Y1013750I-2032J0D01*
G01*
X1817029Y1033250D02*
G03*
X1817029Y1033250I-2032J0D01*
G01*
X1581530Y1027000D02*
G03*
X1581530Y1027000I-2032J0D01*
G01*
X1779780Y1029750D02*
G03*
X1779780Y1029750I-2032J0D01*
G01*
X1771793Y1029745D02*
G03*
X1771793Y1029745I-2032J0D01*
G01*
X1766530Y1096750D02*
G03*
X1766530Y1096750I-2032J0D01*
G01*
X1853927Y1043253D02*
G03*
X1853927Y1043253I-2032J0D01*
G01*
X1809295Y1032495D02*
G03*
X1809295Y1032495I-2032J0D01*
G01*
X1812779Y1078750D02*
G03*
X1812779Y1078750I-2032J0D01*
G01*
X1763780Y1047750D02*
G03*
X1763780Y1047750I-2032J0D01*
G01*
X1723831Y1112120D02*
G03*
X1723831Y1112120I-2032J0D01*
G01*
X1597029Y1099450D02*
G03*
X1597029Y1099450I-2032J0D01*
G01*
X1733280Y1014500D02*
G03*
X1733280Y1014500I-2032J0D01*
G01*
X1702780Y1015000D02*
G03*
X1702780Y1015000I-2032J0D01*
G01*
X1783030Y1064250D02*
G03*
X1783030Y1064250I-2032J0D01*
G01*
X1709280Y1028000D02*
G03*
X1709280Y1028000I-2032J0D01*
G01*
X1722780Y1056750D02*
G03*
X1722780Y1056750I-2032J0D01*
G01*
X1729030Y1038250D02*
G03*
X1729030Y1038250I-2032J0D01*
G01*
X1510780Y1043250D02*
G03*
X1510780Y1043250I-2032J0D01*
G01*
X1501780Y1014500D02*
G03*
X1501780Y1014500I-2032J0D01*
G01*
X1574780Y1096250D02*
G03*
X1574780Y1096250I-2032J0D01*
G01*
X1789280Y1094000D02*
G03*
X1789280Y1094000I-2032J0D01*
G01*
X1536280Y1068000D02*
G03*
X1536280Y1068000I-2032J0D01*
G01*
X1724280Y1102250D02*
G03*
X1724280Y1102250I-2032J0D01*
G01*
X1808280Y1013500D02*
G03*
X1808280Y1013500I-2032J0D01*
G01*
X1637530Y1101500D02*
G03*
X1637530Y1101500I-2032J0D01*
G01*
X1648280Y1103250D02*
G03*
X1648280Y1103250I-2032J0D01*
G01*
X1643037Y1109249D02*
G03*
X1643037Y1109249I-2032J0D01*
G01*
X1628536Y1102249D02*
G03*
X1628536Y1102249I-2032J0D01*
G01*
X1627530Y1110500D02*
G03*
X1627530Y1110500I-2032J0D01*
G01*
X1671780Y1038250D02*
G03*
X1671780Y1038250I-2032J0D01*
G01*
M02*
